<?xml version="1.0" encoding="utf-8"?><!DOCTYPE svg  PUBLIC '-//W3C//DTD SVG 1.1//EN'  'http://www.w3.org/Graphics/SVG/1.1/DTD/svg11.dtd'>
<svg xmlns="http://www.w3.org/2000/svg" version="1.1" style="fill:none;" width="100%" height="100%" viewbox="-50 -50 1100 1264">

<!--svg enable_background="new 0 0 1000 1164" height="1164px" pretty_print="False" style="stroke-linejoin: round; stroke:#000; fill: none;" version="1.1" viewBox="0 0 1000 1164" width="1000px" xmlns="http://www.w3.org/2000/svg" xmlns:xlink="http://www.w3.org/1999/xlink"--><defs><style type="text/css"><![CDATA[path { fill-rule: evenodd; }]]></style></defs><metadata><views><view h="1164.68555594" padding="0" w="1000"><proj dist="1.3" id="satellite" lat0="33.7" lon0="-111.4" tilt="0" up="0"/><bbox h="273.86" w="235.34" x="861.28" y="840.41"/></view></views></metadata>
<g class="map" id="states"><path d="M668.215188,1162.635952L675.672825,1162.584274L712.990802,1162.322336L780.105501,1161.616630L802.474876,1161.314337L891.820942,1159.750746L899.252442,1159.598243L906.682556,1159.442048L914.120242,1159.281965L973.534925,1157.858589L995.790825,1157.267864L999.570331,1157.164213L998.333354,1084.183033L995.690672,939.826039L994.260269,867.474529L991.208357,722.540928L988.736794,613.780750L986.129672,505.075243L985.221069,468.858501L982.408379,360.380821L981.444638,324.281642L978.448206,216.222255L977.418552,180.285915L974.243794,72.813605L973.150614,37.109093L972.046824,1.470313L946.767773,1.849202L870.816093,2.817853L845.473430,3.087802L769.341214,3.729149L718.533766,4.023206L642.276103,4.253858L616.847853,4.277547L540.560048,4.179123L515.138518,4.093118L438.897384,3.665750L413.497563,3.470164L337.363892,2.714469L286.677062,2.077527L261.366530,1.718332L185.528149,0.472650L160.292456,0.000000L160.226169,1.662868L156.601207,102.043774L155.002591,147.747603L154.429778,159.931032L153.968915,161.910328L147.310338,170.472958L140.047869,192.974971L134.236880,196.120381L126.145026,197.268190L121.906597,196.932817L118.209585,195.222045L115.226992,192.477082L111.822060,187.361403L108.447108,179.060311L104.092678,173.143971L100.103268,171.460755L95.985289,172.326256L87.145141,175.054590L80.537249,171.164911L71.902549,168.362826L56.841711,171.717966L51.401481,174.924638L45.831661,177.365129L42.680627,181.201300L42.621250,189.821052L41.624752,194.312433L38.747724,197.127625L38.797835,202.770555L40.272359,208.189460L42.463720,212.930021L48.570279,221.591303L49.795364,225.744388L49.090596,227.990325L46.010917,233.093231L45.016285,236.075255L44.398472,247.295813L44.664712,252.880668L45.313822,257.003766L50.497969,271.898142L51.452309,275.198323L50.027230,279.582736L50.711519,288.426633L46.861761,298.175233L49.356081,306.387098L52.001877,316.279563L56.837127,327.008756L58.267773,331.888470L57.837824,337.360769L58.048329,342.552566L59.854562,352.348692L60.364665,360.530664L60.096051,364.866991L58.285802,372.949181L53.230248,374.916840L49.289548,375.590047L48.634912,378.353877L49.326218,380.269117L52.305142,383.974559L52.850734,386.821864L52.150809,388.724106L48.077042,393.778770L49.422281,400.428043L49.518317,402.840716L49.568697,404.266271L50.488045,428.220205L51.559860,430.651741L56.466978,432.961254L58.264778,435.836615L60.009047,441.601177L60.129702,447.336321L62.109995,451.289281L65.538754,453.607402L70.020696,454.423385L80.174130,477.309565L81.593276,480.724888L81.208788,485.573305L83.296564,490.339278L87.194589,494.221162L89.746323,500.611753L88.016539,508.739626L88.454433,511.206869L89.915739,513.512090L94.640109,514.397188L101.431990,520.267590L103.843939,523.346258L117.520430,533.996086L123.818754,539.339972L129.074983,543.008277L129.029171,545.799196L129.897233,550.101619L128.420952,552.836841L122.980809,556.819997L117.189898,562.255696L111.668302,569.099832L108.351936,569.906539L90.842396,581.810638L84.687711,583.582713L81.897946,586.361240L80.034596,590.124292L78.375209,598.797302L76.296935,602.703567L70.705314,608.600657L63.907604,612.891829L61.196058,615.653341L60.004339,620.157445L61.791646,624.859964L64.967288,628.874468L65.141635,630.712555L63.736453,632.538854L60.592786,634.967420L60.687414,643.315670L61.149843,648.278935L63.825536,654.047750L63.559982,656.437211L62.030935,658.504059L64.409155,664.538960L63.198593,667.524374L59.227274,672.643603L58.253056,677.623309L58.232944,682.012699L55.909620,686.441364L55.828353,689.155679L56.623107,693.639876L55.343316,697.660631L52.951009,700.627877L47.741372,705.963206L45.993584,710.941501L39.369622,722.668870L36.278012,724.890836L32.079554,726.007673L23.770530,726.358854L22.129085,727.352699L22.814054,729.771383L26.719510,736.309872L26.025832,738.043977L23.918343,740.190284L22.134100,745.800835L22.408176,748.864509L27.510864,755.153547L28.596837,757.969616L29.963603,769.828412L28.814777,778.653233L26.021087,786.229193L25.239446,793.302963L30.106537,800.661515L36.729918,803.581959L52.120271,805.223590L57.946724,808.674462L62.512961,815.801530L63.115449,818.405629L62.264931,824.925458L64.594489,838.052060L64.009763,842.488484L62.005539,845.058247L55.556809,849.279142L53.279744,851.903093L52.543081,855.434885L52.300586,862.877270L50.570206,865.886814L43.310164,867.310375L25.573297,863.026965L18.991134,867.602783L18.328974,869.974052L18.391648,870.245027L16.997917,875.275178L15.488076,878.808053L12.055936,883.632414L8.085854,886.912109L4.289903,893.623220L5.614731,897.830465L5.258614,902.282093L2.652156,910.529841L0.429669,912.708896L0.890806,912.904564L1.327122,913.089682L7.509266,915.618516L76.780613,943.810347L146.441572,971.730316L216.465345,999.360032L286.810947,1026.696737L357.455144,1053.711937L428.360395,1080.413921L499.493606,1106.779698L570.816694,1132.776020L624.744660,1152.969218L647.530202,1161.417811L658.165735,1162.685556L668.215188,1162.635952Z " id="Arizona" class="neighbor"/><path d="M18.328974,869.974052L18.991134,867.602783L25.573297,863.026965L43.310164,867.310375L50.570206,865.886814L52.300586,862.877270L52.543081,855.434885L53.279744,851.903093L55.556809,849.279142L62.005539,845.058247L64.009763,842.488484L64.594489,838.052060L62.264931,824.925458L63.115449,818.405629L62.512961,815.801530L57.946724,808.674462L52.120271,805.223590L36.729918,803.581959L30.106537,800.661515L25.239446,793.302963L26.021087,786.229193L28.814777,778.653233L29.963603,769.828412L28.596837,757.969616L27.510864,755.153547L22.408176,748.864509L22.134100,745.800835L23.918343,740.190284L26.025832,738.043977L26.719510,736.309872L22.814054,729.771383L22.129085,727.352699L23.770530,726.358854L32.079554,726.007673L36.278012,724.890836L39.369622,722.668870L45.993584,710.941501L47.741372,705.963206L52.951009,700.627877L55.343316,697.660631L56.623107,693.639876L55.828353,689.155679L55.909620,686.441364L58.232944,682.012699L58.253056,677.623309L59.227274,672.643603L63.198593,667.524374L64.409155,664.538960L62.030935,658.504059L63.559982,656.437211L63.825536,654.047750L61.149843,648.278935L60.687414,643.315670L60.592786,634.967420L63.736453,632.538854L65.141635,630.712555L64.967288,628.874468L61.791646,624.859964L60.004339,620.157445L61.196058,615.653341L63.907604,612.891829L70.705314,608.600657L76.296935,602.703567L78.375209,598.797302L80.034596,590.124292L81.897946,586.361240L84.687711,583.582713L90.842396,581.810638L108.351936,569.906539L111.668302,569.099832L117.189898,562.255696L122.980809,556.819997L128.420952,552.836841L129.897233,550.101619L129.029171,545.799196L129.074983,543.008277L123.818754,539.339972L117.520430,533.996086L103.843939,523.346258L101.431990,520.267590L94.640109,514.397188L89.915739,513.512090L88.454433,511.206869L88.016539,508.739626L89.746323,500.611753L87.194589,494.221162L83.296564,490.339278L81.208788,485.573305L81.593276,480.724888L80.174130,477.309565L70.020696,454.423385L65.538754,453.607402L62.109995,451.289281L60.129702,447.336321L60.009047,441.601177L58.264778,435.836615L56.466978,432.961254L51.559860,430.651741L50.488045,428.220205L49.568697,404.266271L49.518317,402.840716L19.794339,372.869882L0.000000,352.795264L0.000000,870.980612L11.459246,870.342742L18.328919,869.973815L18.328974,869.974052Z " id="California" class="neighbor"/><path d="M49.518317,402.840716L49.422281,400.428043L48.077042,393.778770L52.150809,388.724106L52.850734,386.821864L52.305142,383.974559L49.326218,380.269117L48.634912,378.353877L49.289548,375.590047L53.230248,374.916840L58.285802,372.949181L60.096051,364.866991L60.364665,360.530664L59.854562,352.348692L58.048329,342.552566L57.837824,337.360769L58.267773,331.888470L56.837127,327.008756L52.001877,316.279563L49.356081,306.387098L46.861761,298.175233L50.711519,288.426633L50.027230,279.582736L51.452309,275.198323L50.497969,271.898142L45.313822,257.003766L44.664712,252.880668L44.398472,247.295813L45.016285,236.075255L46.010917,233.093231L49.090596,227.990325L49.795364,225.744388L48.570279,221.591303L42.463720,212.930021L40.272359,208.189460L38.797835,202.770555L38.747724,197.127625L41.624752,194.312433L42.621250,189.821052L42.680627,181.201300L45.831661,177.365129L51.401481,174.924638L56.841711,171.717966L71.902549,168.362826L80.537249,171.164911L87.145141,175.054590L95.985289,172.326256L100.103268,171.460755L104.092678,173.143971L108.447108,179.060311L111.822060,187.361403L115.226992,192.477082L118.209585,195.222045L121.906597,196.932817L126.145026,197.268190L134.236880,196.120381L140.047869,192.974971L147.310338,170.472958L153.968915,161.910328L154.429778,159.931032L155.002591,147.747603L156.601207,102.043774L160.226169,1.662868L160.292456,0.000000L0.000000,0.000000L0.000000,352.795264L19.794339,372.869882L49.518317,402.840716Z " id="Nevada" class="neighbor"/><path d="M972.046824,1.470313L973.150614,37.109093L974.243794,72.813605L977.418552,180.285915L978.448206,216.222255L981.444638,324.281642L982.408379,360.380821L985.221069,468.858501L986.129672,505.075243L988.736794,613.780750L991.208357,722.540928L994.260269,867.474529L995.690672,939.826039L998.333354,1084.183033L999.570331,1157.164213L1000.000000,1157.152321L1000.000000,0.996035L972.046824,1.470313Z " id="New Mexico" class="neighbor"/><path d="M185.528149,0.472650L261.366530,1.718332L286.677062,2.077527L337.363892,2.714469L413.497563,3.470164L438.897384,3.665750L515.138518,4.093118L540.560048,4.179123L616.847853,4.277547L642.276103,4.253858L718.533766,4.023206L769.341214,3.729149L845.473430,3.087802L870.816093,2.817853L946.767773,1.849202L972.046824,1.470313L972.000769,0.000000L160.292456,0.000000L185.528149,0.472650Z " id="Utah" class="neighbor"/></g><g class="map" id="AZ"><path d="M668.215188,1162.635952L675.672825,1162.584274L712.990802,1162.322336L780.105501,1161.616630L802.474876,1161.314337L891.820942,1159.750746L899.252442,1159.598243L906.682556,1159.442048L914.120242,1159.281965L973.534925,1157.858589L995.790825,1157.267864L999.570331,1157.164213L998.333354,1084.183033L995.690672,939.826039L994.260269,867.474529L991.208357,722.540928L988.736794,613.780750L986.129672,505.075243L985.221069,468.858501L982.408379,360.380821L981.444638,324.281642L978.448206,216.222255L977.418552,180.285915L974.243794,72.813605L973.150614,37.109093L972.046824,1.470313L946.767773,1.849202L870.816093,2.817853L845.473430,3.087802L769.341214,3.729149L718.533766,4.023206L642.276103,4.253858L616.847853,4.277547L540.560048,4.179123L515.138518,4.093118L438.897384,3.665750L413.497563,3.470164L337.363892,2.714469L286.677062,2.077527L261.366530,1.718332L185.528149,0.472650L160.292456,0.000000L160.226169,1.662868L156.601207,102.043774L155.002591,147.747603L154.429778,159.931032L153.968915,161.910328L147.310338,170.472958L140.047869,192.974971L134.236880,196.120381L126.145026,197.268190L121.906597,196.932817L118.209585,195.222045L115.226992,192.477082L111.822060,187.361403L108.447108,179.060311L104.092678,173.143971L100.103268,171.460755L95.985289,172.326256L87.145141,175.054590L80.537249,171.164911L71.902549,168.362826L56.841711,171.717966L51.401481,174.924638L45.831661,177.365129L42.680627,181.201300L42.621250,189.821052L41.624752,194.312433L38.747724,197.127625L38.797835,202.770555L40.272359,208.189460L42.463720,212.930021L48.570279,221.591303L49.795364,225.744388L49.090596,227.990325L46.010917,233.093231L45.016285,236.075255L44.398472,247.295813L44.664712,252.880668L45.313822,257.003766L50.497969,271.898142L51.452309,275.198323L50.027230,279.582736L50.711519,288.426633L46.861761,298.175233L49.356081,306.387098L52.001877,316.279563L56.837127,327.008756L58.267773,331.888470L57.837824,337.360769L58.048329,342.552566L59.854562,352.348692L60.364665,360.530664L60.096051,364.866991L58.285802,372.949181L53.230248,374.916840L49.289548,375.590047L48.634912,378.353877L49.326218,380.269117L52.305142,383.974559L52.850734,386.821864L52.150809,388.724106L48.077042,393.778770L49.422281,400.428043L49.518317,402.840716L49.568697,404.266271L50.488045,428.220205L51.559860,430.651741L56.466978,432.961254L58.264778,435.836615L60.009047,441.601177L60.129702,447.336321L62.109995,451.289281L65.538754,453.607402L70.020696,454.423385L80.174130,477.309565L81.593276,480.724888L81.208788,485.573305L83.296564,490.339278L87.194589,494.221162L89.746323,500.611753L88.016539,508.739626L88.454433,511.206869L89.915739,513.512090L94.640109,514.397188L101.431990,520.267590L103.843939,523.346258L117.520430,533.996086L123.818754,539.339972L129.074983,543.008277L129.029171,545.799196L129.897233,550.101619L128.420952,552.836841L122.980809,556.819997L117.189898,562.255696L111.668302,569.099832L108.351936,569.906539L90.842396,581.810638L84.687711,583.582713L81.897946,586.361240L80.034596,590.124292L78.375209,598.797302L76.296935,602.703567L70.705314,608.600657L63.907604,612.891829L61.196058,615.653341L60.004339,620.157445L61.791646,624.859964L64.967288,628.874468L65.141635,630.712555L63.736453,632.538854L60.592786,634.967420L60.687414,643.315670L61.149843,648.278935L63.825536,654.047750L63.559982,656.437211L62.030935,658.504059L64.409155,664.538960L63.198593,667.524374L59.227274,672.643603L58.253056,677.623309L58.232944,682.012699L55.909620,686.441364L55.828353,689.155679L56.623107,693.639876L55.343316,697.660631L52.951009,700.627877L47.741372,705.963206L45.993584,710.941501L39.369622,722.668870L36.278012,724.890836L32.079554,726.007673L23.770530,726.358854L22.129085,727.352699L22.814054,729.771383L26.719510,736.309872L26.025832,738.043977L23.918343,740.190284L22.134100,745.800835L22.408176,748.864509L27.510864,755.153547L28.596837,757.969616L29.963603,769.828412L28.814777,778.653233L26.021087,786.229193L25.239446,793.302963L30.106537,800.661515L36.729918,803.581959L52.120271,805.223590L57.946724,808.674462L62.512961,815.801530L63.115449,818.405629L62.264931,824.925458L64.594489,838.052060L64.009763,842.488484L62.005539,845.058247L55.556809,849.279142L53.279744,851.903093L52.543081,855.434885L52.300586,862.877270L50.570206,865.886814L43.310164,867.310375L25.573297,863.026965L18.991134,867.602783L18.328974,869.974052L18.391648,870.245027L16.997917,875.275178L15.488076,878.808053L12.055936,883.632414L8.085854,886.912109L4.289903,893.623220L5.614731,897.830465L5.258614,902.282093L2.652156,910.529841L0.429669,912.708896L0.890806,912.904564L1.327122,913.089682L7.509266,915.618516L76.780613,943.810347L146.441572,971.730316L216.465345,999.360032L286.810947,1026.696737L357.455144,1053.711937L428.360395,1080.413921L499.493606,1106.779698L570.816694,1132.776020L624.744660,1152.969218L647.530202,1161.417811L658.165735,1162.685556L668.215188,1162.635952Z " id="Arizona" class="state"/></g>
<g class="map" id="uzones"><path d="M154.397895,348.825174L152.175625,348.866921L150.770257,349.989704L148.721211,353.212544L146.141857,355.533797L143.119238,355.373079L155.980237,357.926813L154.196504,355.614173L154.397895,348.825174Z " class="urban"/><path d="M560.118678,359.963973L559.175403,357.175706L554.619030,355.794072L550.887992,360.323812L544.878742,359.852754L543.451526,360.308508L543.399560,376.207777L550.857130,373.953431L552.719345,371.686814L560.720924,368.653187L562.033356,367.160540L567.010380,364.853320L567.624823,362.620844L566.131201,361.361867L562.304307,361.016250L560.118678,359.963973Z " class="urban"/><path d="M409.469292,505.493457L411.931569,504.901607L415.495414,502.805161L415.530485,495.463586L412.324499,491.964796L401.417502,495.163374L402.782657,503.026846L406.083987,504.994850L409.469292,505.493457Z " class="urban"/><path d="M98.019968,496.871626L96.249068,494.845603L94.147130,494.790109L92.562679,495.880273L90.167804,500.352468L91.214209,504.093867L91.351179,510.601765L97.157375,513.616493L100.824980,509.645974L103.259100,508.678215L105.603930,509.805025L107.509833,515.287462L109.663490,508.515859L107.037380,505.040232L103.012581,504.011720L101.618523,501.820069L105.831775,501.400311L107.329057,497.411078L106.172458,497.126146L98.019968,496.871626Z " class="urban"/><path d="M605.514815,569.577481L608.911250,567.881195L611.300633,565.346368L607.631747,560.530746L602.770684,559.398387L598.550977,560.547142L597.267952,565.886601L599.690623,568.772931L601.249514,569.665855L605.514815,569.577481Z " class="urban"/><path d="M965.018269,602.228814L964.051674,597.612049L962.518553,593.694121L955.378895,591.018641L955.296079,594.042383L956.977682,594.867452L961.102315,595.482129L961.780819,600.455054L962.522494,602.450048L965.018269,602.228814Z " class="urban"/><path d="M467.149170,668.630923L462.988593,667.203302L462.971738,669.478427L457.266989,671.702686L455.074197,671.376047L451.777555,669.472373L449.726186,669.376148L448.616236,671.127203L443.282366,672.871473L441.574725,674.747326L438.808921,675.952357L436.351297,673.872645L432.600861,676.070382L432.138212,677.722362L430.701058,678.319589L428.479772,677.039117L424.301649,673.153135L421.270579,673.690388L420.186418,676.412561L416.562006,680.034789L415.494468,682.748384L419.598901,687.446454L424.710223,688.613777L426.801308,689.683456L427.577702,691.113931L428.632957,696.541709L432.401770,700.647218L432.356692,703.417588L429.949910,705.064548L419.438194,709.476419L420.554618,711.390109L424.700291,712.475208L427.450793,711.684603L431.478280,708.585864L432.296315,710.259428L431.381215,714.852178L429.007472,717.966275L425.886929,718.902026L424.648371,726.598227L424.527858,730.690842L426.818106,731.572849L432.229439,727.436501L435.965533,726.246798L443.980436,730.995121L448.846017,730.564770L454.115349,733.080628L459.025837,738.225982L463.989619,737.636957L467.771875,740.107810L472.624956,744.768480L472.697593,748.453080L470.956916,752.562470L469.965862,758.424271L502.323201,760.898235L503.897898,764.680555L504.952779,774.765275L507.972110,776.862849L512.031686,768.448413L511.843525,763.204641L515.656729,760.961256L516.757624,760.975944L519.664773,763.271465L523.286659,758.712585L526.301466,758.900524L529.041672,755.474112L529.874749,752.659014L531.230333,750.594132L535.781495,749.291546L536.653370,747.351458L545.333095,744.777405L548.795976,741.450280L551.882389,740.561292L561.149003,741.054603L565.616686,740.267285L569.029648,736.014514L567.386077,735.081605L563.328266,731.450377L553.728104,728.051309L551.914148,726.866397L535.363354,713.551097L532.929174,717.704103L530.458276,718.555910L514.068350,722.548871L512.012458,722.175259L508.881205,719.663990L506.853734,715.886086L506.011370,711.267212L506.393129,706.213291L522.280603,701.396879L525.413336,697.155267L519.876498,689.276849L512.070090,684.834441L512.341119,681.916642L510.438350,680.926350L506.221804,681.577924L504.602733,681.125514L503.747759,675.849090L502.343672,674.376765L500.934261,675.523374L497.843266,679.714184L488.374160,676.481029L472.428508,674.104223L467.149170,668.630923Z " class="urban"/><path d="M533.892355,697.308251L537.247046,696.091472L538.706466,692.648281L535.913838,690.789673L527.297129,694.901268L530.101409,696.758880L533.892355,697.308251Z " class="urban"/><path d="M696.487701,737.990182L690.958098,733.461987L692.357249,737.093649L696.487701,737.990182Z " class="urban"/><path d="M938.927989,807.584356L939.795676,805.715724L941.713069,805.251488L946.489269,805.150349L948.344382,802.846134L953.874617,799.992649L952.929599,798.292229L944.864098,791.689692L943.097244,791.586484L942.029761,795.655979L938.753069,798.476235L936.788715,804.136546L936.866175,806.777007L938.927989,807.584356Z " class="urban"/><path d="M531.463659,847.754593L534.478277,842.999915L532.178515,841.741397L529.120873,837.411241L527.624590,846.450482L531.463659,847.754593Z " class="urban"/><path d="M40.341887,867.086549L39.616189,866.418289L28.463226,863.724876L25.169339,865.236732L24.861309,868.063823L27.149906,875.799001L31.510471,878.493541L38.165962,880.952629L40.179759,880.660819L42.657234,878.072354L43.914911,872.702627L45.017466,870.973730L49.712767,868.351470L48.320511,866.828974L42.135936,868.082982L40.341887,867.086549Z " class="urban"/><path d="M2.652156,910.529841L2.497670,910.681331L1.243827,913.054342L1.327122,913.089682L7.509266,915.618516L15.351410,918.810087L14.598705,918.263804L13.379391,914.122270L11.299918,912.017576L6.796828,912.198257L5.579871,909.495004L4.609240,904.337252L2.652156,910.529841Z " class="urban"/><path d="M663.027684,945.303670L664.076899,941.253976L663.767093,939.059964L659.165036,940.779221L661.095083,945.308680L657.989635,946.427804L648.915979,945.241189L643.683287,949.791687L643.466680,957.654409L647.671971,959.025856L651.541934,965.815716L648.658824,969.403448L647.712413,974.894427L649.658893,979.449533L649.952209,985.987059L648.588655,990.180945L646.810180,993.556911L645.857796,997.635843L665.732669,1001.778943L674.404037,999.669977L678.605141,990.671077L682.028268,989.593622L682.435172,988.380932L691.431769,990.216844L696.673398,982.722852L697.652225,972.922947L693.900969,967.856751L692.394878,966.488192L689.857184,962.073568L685.421245,951.795702L682.280036,952.025502L682.262548,949.756651L671.828876,952.260648L668.825015,952.096423L663.027684,945.303670Z " class="urban"/><path d="M785.734199,1118.633256L790.364770,1117.561600L793.313864,1114.186973L790.003799,1111.118125L787.721525,1110.430610L783.610972,1112.058924L779.736124,1112.120665L781.493010,1116.958126L785.734199,1118.633256Z " class="urban"/><path d="M674.333591,1162.593554L671.890080,1151.014568L669.455634,1149.319412L665.468778,1152.615197L663.964722,1156.254698L663.298952,1160.362213L663.505753,1162.659198L668.215188,1162.635952L674.333591,1162.593554Z " class="urban"/><path d="M913.880549,1159.287124L916.536532,1157.097347L917.421754,1155.350774L917.521792,1152.656618L912.294364,1149.885015L907.592413,1149.975855L904.507887,1153.737912L904.217030,1159.493878L906.682556,1159.442048L913.880549,1159.287124Z " class="urban"/><path d="M52.629096,385.665191L53.784299,385.909464L61.342418,375.997930L65.862281,373.172416L67.261087,371.435992L65.591856,363.014010L62.963250,361.312004L60.348596,360.790077L60.096051,364.866991L58.285802,372.949181L53.230248,374.916840L49.289548,375.590047L48.634912,378.353877L49.326218,380.269117L52.305142,383.974559L52.629096,385.665191Z " class="urban"/></g>
<g class="map" id="lakes"><path d="M132.548131,543.658669L121.797760,533.091751L118.698681,530.905680L115.095021,529.970620L109.838201,526.523873L96.864797,513.302924L92.108288,512.454097L91.351530,510.628515L91.210832,504.065790L90.833477,501.949747L89.735997,500.660274L88.016539,508.739626L88.454433,511.206869L89.915739,513.512090L94.640109,514.397188L101.431990,520.267590L103.843939,523.346258L117.520430,533.996086L123.818754,539.339972L129.074983,543.008277L129.039410,545.175422L133.048941,546.983498L139.299427,547.318419L132.548131,543.658669Z " class="Lake"/><path d="M57.320375,319.025124L54.460190,311.640250L48.900006,301.969280L48.189240,298.956322L49.149216,295.389495L52.338311,291.223415L51.235154,278.146450L51.443277,275.226111L50.027230,279.582736L50.711519,288.426633L46.861761,298.175233L49.356081,306.387098L52.001877,316.279563L56.837127,327.008756L57.705456,329.970492L58.624794,330.505893L58.099780,322.940638L57.320375,319.025124Z " class="Reservoir"/><path d="M216.734007,229.961916L212.278973,225.993819L210.500601,222.731777L208.024495,213.238428L206.537671,210.939650L199.215827,203.453988L200.489191,198.756200L198.513697,194.238876L194.886760,190.826852L191.127865,189.502849L186.344366,188.517409L182.787903,186.180780L177.484975,179.392304L174.316250,174.078519L169.412669,172.610831L166.908410,167.847819L166.605465,165.992320L164.806802,163.391810L164.116420,154.849293L161.575300,148.479366L159.717288,150.052450L157.814692,157.408503L154.439746,159.719008L154.429778,159.931032L153.968915,161.910328L147.310338,170.472958L140.047869,192.974971L134.236880,196.120381L126.145026,197.268190L121.906597,196.932817L118.209585,195.222045L115.226992,192.477082L111.822060,187.361403L108.447108,179.060311L104.092678,173.143971L100.103268,171.460755L95.985289,172.326256L87.145141,175.054590L80.537249,171.164911L71.902549,168.362826L56.841711,171.717966L51.401481,174.924638L45.831661,177.365129L42.680627,181.201300L42.621250,189.821052L41.624752,194.312433L38.747724,197.127625L38.747864,197.143332L42.772129,194.870203L44.621335,190.204983L45.374457,183.484670L48.807901,181.842507L55.458347,174.317730L58.075686,172.594188L67.671730,171.339053L72.164838,169.599471L74.279476,169.650229L76.587667,171.553707L77.888264,174.029500L79.469899,179.255758L80.759591,181.433794L85.281476,183.509491L86.634561,185.331221L84.975456,188.454453L87.305773,189.941608L90.238503,186.907446L95.070217,185.289399L96.147342,183.524257L95.810476,180.891345L94.316621,177.635521L95.878770,177.731180L98.697228,180.361086L99.185079,178.224592L101.031428,174.508682L102.387755,173.644774L105.582258,177.892609L106.755741,181.439136L106.907041,184.605088L106.242082,191.035680L107.994423,192.627306L116.367634,196.755242L122.859755,198.928874L130.746514,197.846355L136.723381,198.272962L138.568340,198.013517L141.239508,196.158820L143.654691,191.073952L146.551271,183.074467L147.129780,179.445421L150.732727,171.164686L151.949686,165.700700L154.104926,163.954648L158.493055,162.491586L162.146616,162.862248L162.098105,166.619620L164.034383,168.686400L164.138661,175.252673L165.096572,177.778397L167.264406,178.716438L170.298658,176.686606L171.975146,176.361057L175.783986,180.493932L179.736398,186.361529L181.599881,190.279029L184.122295,191.641024L192.622302,194.608190L195.026689,195.967116L196.802636,198.150852L198.238868,202.061485L198.946949,208.589384L200.045979,210.821439L202.952989,211.711612L204.495479,212.875650L205.681262,215.528041L206.433816,218.950262L207.149570,226.320093L208.828472,227.905885L214.326757,230.098611L212.052333,234.246345L214.723770,235.131987L219.061741,238.201381L219.783171,235.760336L218.898950,232.513272L216.734007,229.961916Z " class="Reservoir"/><path d="M617.653034,4.276797L619.985207,5.846533L619.583962,4.274998L617.653034,4.276797Z M571.251331,4.218720L571.820565,4.970300L574.740250,10.429257L577.372228,18.203786L579.750781,16.365166L588.105806,13.222200L591.441956,12.747485L593.337648,11.619981L594.056717,9.306218L593.480063,6.933673L590.481259,5.451255L592.811935,4.246537L571.251331,4.218720Z " class="Reservoir"/></g><g class="map" id="rivers"><path d="M961.534783,1158.146072L959.824151,1151.699938L959.756460,1150.024686L961.420295,1144.100914L963.627068,1139.558906L970.949860,1128.836139L970.391577,1121.235495L971.593690,1115.589808L971.272390,1111.396096L971.867898,1109.362618L973.947423,1106.596422 " class="River"/><path d="M577.376093,18.215674L572.282942,24.218644L569.303297,26.875336L565.121600,28.611441L562.889874,31.465710L563.950912,32.534162L563.474198,34.865414L560.486506,33.383972L555.295314,36.012630L551.772141,40.417226L544.408972,57.610223L541.295420,62.117444L535.865771,65.468583L534.853596,66.880703L533.120017,71.614180L530.524028,75.120461L530.494479,81.489447L529.899584,83.166888L516.918932,100.395657L517.342265,104.722033L518.838406,112.192583L517.820637,114.859850L516.124795,116.709050L511.956830,119.085685L512.810349,124.093500L516.420652,124.757110L515.845386,127.064339L514.103894,128.394597L509.647105,130.267820L512.597933,132.876652L513.405531,135.651406L514.067378,142.865661L515.561344,145.363265L520.262628,150.083773L521.986709,152.590729L521.245321,154.578340L523.071778,160.918083L523.415279,163.372298L522.260256,176.754069L521.199812,180.453652L519.585660,183.217761L517.979555,184.353368L514.472306,185.135151L509.725889,190.724077L503.537470,194.992334L499.821123,195.357609L486.721369,190.138812L481.625984,185.698864L474.856953,185.663993L472.682438,185.272061L467.500732,182.986691L453.349646,182.902194L452.193608,177.043481L443.829377,172.997920L441.799091,170.827884L436.485085,159.591440L434.428353,156.554928L431.926091,154.431793L428.752013,153.616211L425.426883,154.210691L423.744385,155.824355L420.781916,161.052917L419.005976,162.533763L413.191477,156.517875L407.573495,154.176916L405.871952,152.214674L406.047335,149.723556L407.690731,147.624511L411.512641,144.355021L413.978823,139.713211L415.462840,134.338435L414.187698,127.648532L408.445958,125.021749L401.341734,124.822502L395.964393,125.435776L387.068385,124.482547L384.637139,126.075998L383.427656,129.008072L382.164150,134.051013L379.514317,134.966124L375.811115,133.611117L374.299787,134.017013L372.584971,137.414530L373.757518,138.918927L365.992406,142.371921L362.580019,145.867861L359.031048,147.522246L348.875855,148.807542L346.153732,148.727981 M346.200869,148.712003L346.153732,148.727981 M346.153732,148.727981L345.371279,148.702777 M346.153732,148.727981L343.258633,149.677487L336.190037,156.082786L333.483182,157.247901L322.153298,158.118870L310.402949,165.028526L306.691814,168.274391L295.910726,172.886656L293.435534,177.295463L291.509007,182.587764L289.004534,186.997112L284.774278,188.804611L277.935621,187.434292L275.712597,187.641502L272.928988,190.029394L270.114699,193.680723L269.016005,196.473666L269.377888,205.834793L272.453180,214.082332L271.199760,215.717398L271.709052,222.399282L272.751693,228.445522L273.154198,234.905522L271.700281,242.853707L269.133597,248.816313L265.808508,252.871667L261.881878,255.244703L257.498173,256.135801L255.762369,255.809949L250.198570,253.202992L244.058816,252.506033L226.133369,238.893780L219.052159,238.174120 M49.080349,228.007303L49.078422,228.013485L48.595539,228.810614 M58.273694,372.953894L58.269544,372.972321L53.215571,374.933383L49.284529,375.611237 M52.139991,388.737529L52.138819,388.740724L51.455105,389.587323 M81.587811,480.793797L83.265673,490.268759 M129.884091,550.125969L129.884892,550.129972L129.643441,550.571840 M120.617339,559.038493L117.173328,562.276234 M111.658439,569.102231L111.652357,569.109760L108.330375,569.921310L90.830345,581.827311L84.679609,583.604485L81.890235,586.376811 M78.368610,598.809705L78.367150,598.817407L78.122450,599.272382 M71.854780,607.388396L70.693192,608.618974L63.896691,612.915170L61.766401,615.072488 M63.721350,632.550522L63.718939,632.553674L60.592990,634.985424 M61.191080,648.367842L63.688034,651.664915L63.804765,654.002966 M48.454387,705.232989L47.740754,705.964967 M43.526759,715.308883L39.362899,722.688981L36.266035,724.902454L32.072723,726.031103L23.761261,726.364466 M22.934765,726.864885L22.131106,727.359835 M26.010524,738.059567L26.009516,738.062096L23.914392,740.202707 M63.998395,842.503059L63.997476,842.510065L61.993206,845.081486L55.547106,849.290324 M52.292726,862.890940L52.292315,862.903948L51.049700,865.052860 M50.567113,865.887421L50.552224,865.913169L43.295267,867.325188L25.564364,863.033175 M23.374997,864.555190L18.987427,867.616060 " class="River"/><path d="M994.513936,880.305302L992.030783,879.016317L980.256028,870.123897L970.873572,859.083339L964.693845,845.238530L962.966206,834.360723L961.224940,831.493380L959.649440,830.362640L941.677420,822.881920L936.637997,822.462949L931.261106,824.273713L926.660973,827.550003L918.674625,836.557437L915.270433,842.914031L910.734347,846.426366L909.487862,847.924921L906.351140,846.560987L902.685734,847.505537L899.344738,849.576115L897.134787,851.658310L893.853558,853.643401L889.505976,854.047958L881.216642,852.638889L873.811997,849.585621L855.078001,836.297818L853.632491,833.787333L850.673618,824.707520L847.572258,821.013157L840.132779,809.063397L834.001664,803.392586L814.019830,789.844892L808.656175,784.510855L805.471766,782.333186L778.891858,777.763015L746.632370,780.169878L738.142043,783.208209L730.162550,787.814920L718.952842,797.765483L711.054812,801.786896L709.089679,803.828103L705.084930,814.341537L702.779534,817.168228L698.822407,818.796007L695.339100,817.667353L688.580664,812.195054L685.748388,810.885211L679.868204,809.783415L677.162841,808.529764L672.187509,804.625726L671.742220,803.518337L663.712166,795.529600L662.501891,795.234519L654.348155,796.043809L648.659235,794.062259L641.061827,794.045490L637.973506,794.438473L635.075494,795.556288L629.423218,800.184665L627.684231,801.181573L621.915327,801.068548L616.142957,798.500548L614.170943,798.194847 M614.170943,798.194847L585.621725,811.987242L568.173270,817.355075L560.389487,813.714582L556.658541,810.504220L526.589083,800.699455L509.797470,790.382891L507.007080,790.970287L501.196410,787.419939L498.191829,786.135763L495.229203,786.336503L490.126531,788.376622L487.525346,788.861788L482.258474,787.611131L476.946957,784.631432L468.737568,777.666397L467.555470,773.744598L463.263702,772.695348L454.401305,767.946334L452.322283,766.085668L447.084633,755.119843L443.365534,751.208207L438.490858,753.369013L436.255062,750.695575L433.159929,743.474429L430.888315,741.984928L427.120166,741.265518L419.230115,738.335402L415.037804,737.751070L411.493170,738.616043L406.801274,740.728121L402.713679,743.588010L400.934214,746.705906L364.362328,752.680676L357.394847,755.390543L351.099801,762.035460L351.770345,769.526672L356.078113,776.617505L360.689120,782.034851L363.634611,787.603919L366.673337,796.709563L368.405276,806.238942L367.342181,813.029031L361.844048,817.299196L354.558591,818.457433L347.199457,817.143639L338.015751,811.881092L335.269688,811.564557L327.991757,812.461316L326.244896,812.100509L320.293090,807.554377L316.501221,807.326396L314.390164,806.658368L307.183973,801.537027L303.377610,801.039198L301.640524,805.744344L300.297073,807.896828L293.574050,814.280707L290.847574,816.032471L287.611155,816.474392L275.000012,815.741866L270.884261,816.705557L267.512300,819.057407L264.468165,821.789736L261.350690,823.878309L257.855418,824.383982L249.798999,824.171638L246.702667,825.807678L243.640667,829.026493L240.924710,831.185523L223.851929,840.529109L221.696122,841.339067L204.428405,844.551267L201.065854,846.462335L199.958521,849.233511L197.645297,850.577261L193.515796,852.101787L189.792996,851.778766L188.104577,852.203833L184.398910,855.841937L182.008443,857.181108L174.953795,859.909055L171.095073,863.106433L169.001844,864.201172L169.060142,862.430279L164.994669,860.910949L159.965378,862.460758L154.916596,864.906836L147.553520,867.080657L147.852951,869.609329L146.657638,872.621480L143.972469,873.047489L140.854177,872.596092L138.325207,872.908979L135.645298,871.587075L129.652173,870.828840L124.916168,867.875364L123.087578,869.869159L121.949071,873.312758L121.777359,876.501071L114.866262,872.243311L113.729970,872.609338L109.483069,877.032985L104.182818,879.195351L93.430816,876.094378L89.275153,873.972075L86.090275,871.188852L84.416161,867.820109L81.866086,859.859627L79.734850,857.082937L76.612908,856.129069L73.463038,857.077627L70.572838,859.255767L64.401371,866.838851L60.360620,869.675245L55.781495,870.282057L50.354006,868.374739L46.693059,866.674270 M615.242696,799.711777L614.170943,798.194847 " class="River"/></g>
<g class="map" id="roads"><path d="M540.133007,857.853811L569.745157,876.416735L585.321627,887.099359L589.518155,891.012235L594.316560,897.057371L603.924400,912.696753L612.039467,923.351925L658.124983,967.984959L660.849387,972.943910L663.901741,985.354631 " class="Interstate"/><path d="M698.071232,739.365510L704.348094,744.667703L730.858021,750.524669L750.558282,758.897768L770.212306,761.193738L788.470115,772.027938L805.866706,784.274791L808.325938,791.006228L810.753282,794.889809L821.571412,802.929801L835.663619,810.201841L837.794635,813.728529L841.522693,825.413393L843.655725,828.938397L859.595666,839.002012L869.581152,849.149029L873.504381,852.282167L900.429778,857.484481L912.470112,864.361145L932.254456,870.356096L935.241588,870.648618L939.091685,869.145640L945.647874,869.004400L948.304037,867.525266L950.914437,863.559621L954.171120,862.421650L957.168774,863.420649L963.806406,867.888919L969.213745,870.251009L973.396223,870.863810L980.527883,869.984478L984.460645,873.086478L992.810126,888.506289L994.703101,889.873514 " class="Federal"/><path d="M875.002856,15.328767L879.143627,23.324555L878.275049,34.536669L874.605652,47.191802L877.418278,58.722488L889.879146,82.413651L896.072539,92.159279L901.619735,98.403646L902.048974,104.368971L894.502283,109.743777L884.843809,110.225364L883.446036,111.298190L882.656680,114.120421L881.818507,140.157793L886.815751,159.453106L887.917522,170.358244L887.417172,173.536451L886.051242,176.374550L879.847644,180.336114L878.478928,183.174720L879.104230,185.634246L883.185674,189.104815L884.376398,191.204271L885.219104,203.538145L888.060113,215.496644L887.943286,223.264628L885.349443,236.014609L885.629547,249.083254L888.420646,258.586491L897.799336,266.580676L898.156471,282.844099L902.577798,300.469632L902.934323,316.749445L905.795635,328.746630L916.526357,343.454806L916.613697,347.351359L914.841567,358.722254L915.209359,362.261270L917.306111,365.417534L920.811249,366.777460L924.111656,366.897581 " class="Federal"/><path d="M886.865098,15.530478L882.431492,7.193628L882.323155,2.671098 " class="Federal"/><path d="M932.853657,364.343869L933.776465,364.074996L937.172602,360.825558L943.066274,353.279029L946.754053,350.378463L962.018108,348.327790L974.542899,341.360059L979.333132,337.017577 M978.198574,337.747871L981.715378,334.422853 " class="Interstate"/><path d="M797.574254,429.165140L802.725697,422.359474L810.205952,415.882577L820.922562,412.206829L844.725403,408.714121L848.475219,406.889543L861.099515,397.488889L876.930053,389.810868L891.105793,387.469636L904.007626,380.172942L915.655430,369.344940L932.853657,364.343869 " class="Interstate"/><path d="M561.737636,4.206446L566.578629,9.011037L573.084190,13.216336L576.478089,17.419300 " class="Federal"/><path d="M576.478089,17.419300L577.608240,20.571160L577.322142,23.372585L572.207369,32.827747L569.636815,44.041674L563.370723,53.854734L561.097010,54.202830L560.241385,55.604936L554.524361,67.878919L551.669632,71.384880L551.652900,77.002905L548.236227,77.348158L548.206662,86.480840L550.753208,92.107477L559.843942,104.424940L562.676775,113.924770L571.499029,133.642680L573.212683,135.052453L576.065909,141.041262L586.074797,154.433145L590.084192,161.835338L590.659049,180.526512L590.372609,186.877695L592.095664,190.406662 " class="Federal"/><path d="M158.903820,38.280791L158.919352,38.279606L172.039982,25.229636L180.891982,21.541264L186.083441,17.786470L192.015364,17.189429L195.549097,12.356053L201.231522,10.703855L204.717437,7.267062L208.688469,6.283767L221.339789,6.835499L226.478588,4.469633L228.548190,1.179275 " class="Interstate"/><path d="M38.749098,197.282325L40.017611,197.794707L44.657462,202.490954L54.845213,210.850594L56.967628,214.779074L60.228396,226.136947L72.948261,244.084291L80.301295,261.554788L81.264416,266.520173L95.047516,289.459463L125.362540,345.349706L136.951041,361.904401L143.164704,366.295890 " class="Federal"/><path d="M73.233124,461.664306L112.004880,458.441534L121.484141,451.935697L125.980307,447.078363L128.425594,442.880210L129.163977,437.576774L127.746583,426.902060L127.896602,421.940770L135.436761,383.124924L137.596905,378.568475L142.448977,370.884870L143.762840,365.600937 " class="Interstate"/><path d="M143.164704,366.295890L148.461964,362.872493L155.693235,362.323743L169.451375,365.808740L182.992022,367.154461L192.699306,371.604252L206.220830,374.352385 " class="Interstate"/><path d="M411.092498,364.130982L412.117702,375.495351L417.544105,383.706782L421.195967,395.099075L422.804221,407.542114L422.469835,411.446322L421.265211,414.988128L414.457919,424.164819L410.031109,428.743309L408.827027,431.930035L409.051750,437.617781L411.542053,449.369565L411.317991,468.920803L413.272429,477.117760L417.247079,488.179615L416.326053,492.083912L413.612052,499.173362L413.572720,502.730511 " class="State"/><path d="M363.340090,620.356511L366.831981,623.960884L370.861228,631.844464L376.089181,638.673659L392.737979,654.891475L414.673414,678.985622L430.536709,693.384344L432.892287,695.186605L445.012548,699.565457L448.243790,703.510306L450.020810,703.880812L453.556301,707.114722L469.812719,716.852175 " class="Federal"/><path d="M20.844755,921.045751L4.305003,913.082549 " class="Federal"/><path d="M38.594603,873.536509L40.273771,877.139115L45.555295,879.089875L67.461614,880.518637L73.660364,881.780848L88.814460,881.191148L104.468088,884.859160L113.089115,884.759644L127.126586,881.971521L137.013948,878.700362L150.156217,876.220248L161.166372,876.158090L174.009737,874.004629L184.736604,873.563703L188.662666,870.819317L197.959527,867.492552L222.294619,856.331033L230.682702,853.673146L242.941616,851.092251L283.557631,845.851152L320.670718,836.181804L358.023272,830.696149 " class="Interstate"/><path d="M206.220830,374.352385L223.847661,375.395647L229.073503,374.782611L243.669637,369.725043L256.968705,370.661884L264.512725,370.077899L281.496674,361.484305L294.598757,358.137107L307.194875,350.874031L318.513093,349.612456L328.151622,345.131868L335.710577,343.456402L345.537915,344.641761L350.397776,348.600291L355.863141,351.146879L367.118215,354.466762L383.262049,361.379173L399.475891,364.378403L408.189292,364.104786L412.532479,364.713405 " class="Interstate"/><path d="M957.649821,17.292519L944.971189,15.416764L931.007232,10.031487L918.881019,9.855830L908.369939,6.855115L884.649402,17.307575L880.415354,17.360771L876.115631,14.615565L874.139823,14.639724 " class="Federal"/><path d="M874.139823,14.639724L867.647199,14.717930L863.655631,13.016168L849.514422,25.424712L839.874307,38.136486L836.526601,40.624692L829.516084,44.202445L815.158346,49.254251L805.913855,55.653839L798.024657,58.883207L757.816226,66.231056L749.382557,73.311136L741.804174,81.438680L741.875707,87.409068L739.920764,90.583942L708.504156,111.160679L682.920956,123.948040L676.083144,126.439418L673.534987,129.969182L670.431207,136.318084L651.628612,150.468721L644.546396,168.111711L641.407397,171.645812L629.099104,178.373388L617.634406,182.977760L616.775685,184.037379L605.873131,186.518514L595.252868,187.582697L593.818452,190.406374L592.095664,190.406662 " class="Federal"/><path d="M592.095664,190.406662L590.373619,200.290928L591.523327,202.409359L588.936038,228.198275L584.036671,239.863538L580.859992,250.825758L571.895550,269.927234L569.862662,278.067261L566.354847,302.856017L562.278816,315.254187L561.976268,321.988804L559.640656,330.140156L562.528345,336.882038L566.870231,343.626446L566.567757,351.430790L565.399594,355.332366L558.406212,365.259246L558.693973,366.679391 " class="Federal"/><path d="M797.282799,429.168270L787.349415,427.495881L773.549841,419.460648L752.525197,415.740470L747.279915,415.783658L736.188134,414.094078L725.942795,409.195161L721.854279,408.157635L718.051431,406.406964L712.515943,406.442561L707.224208,400.436891L695.272308,399.084322L685.931222,395.936020L642.793181,387.222077L629.688499,385.832791L609.590275,377.697137L606.099093,378.055422L590.967617,370.962369L585.732902,369.542240L576.427355,369.183411L565.962010,367.044187L559.565481,367.035646L545.293689,375.528410 " class="Interstate"/><path d="M206.220830,374.352385L209.238755,380.792019L211.021620,390.400223L210.191879,400.314788L208.229776,409.144884L208.622445,416.603256L215.214778,443.706669L217.037043,464.693003L222.566496,477.232961L239.110774,493.536478L241.728649,493.940405L243.954593,498.957124L248.548735,502.595472L249.880145,508.662593L253.325766,511.568777L263.217770,513.877177L277.955777,523.018518L295.381941,546.778121L303.067518,560.063089L307.550183,572.586812L329.892240,590.713981L350.223883,609.505568L360.439542,616.759165L362.750393,620.349084 " class="Federal"/><path d="M823.413738,561.158758L819.434939,549.820162L818.175798,543.785981L817.503993,537.744812L813.014822,531.394475L809.979802,523.958714L812.425277,510.055007L811.650720,496.547752L804.397371,458.585845L796.408425,429.177632 " class="State"/><path d="M55.836424,688.886102L58.601594,689.583941L62.152992,688.626415L84.385290,681.469400L92.614192,681.350553L110.028002,678.639025 " class="Interstate"/><path d="M362.750393,620.349084L358.907897,621.012343L347.700242,621.221100L334.673296,624.957324L307.863240,624.200370L292.829784,624.669807L282.485672,626.631096L220.752035,650.725674L204.298897,662.470870L199.461995,668.056294L187.080279,668.488710L143.241618,679.518935 " class="Federal"/><path d="M110.028002,678.639025L131.286988,675.298855L136.559759,676.147197L143.241618,679.518935 " class="Interstate"/><path d="M823.413738,561.158758L855.331295,555.030933L863.583205,557.044785L871.817322,557.987591L900.281756,558.239543L910.346834,563.046679L916.903037,568.266715L932.238170,572.254135L939.921120,574.953802L945.004055,579.479434L947.757704,584.760982L950.690706,584.702852 " class="Federal"/><path d="M987.884282,578.234740L978.408242,578.440012L957.974968,582.422326L954.804245,584.976213L950.690706,584.702852 " class="Federal"/><path d="M545.293689,375.528410L541.780120,382.620969L542.063263,385.107166L541.160213,394.338155L540.841395,402.862010L541.668603,417.785975L546.323092,422.416467L548.062420,426.684934L550.079237,436.996979L555.326790,441.628374L555.322855,443.405956L554.142584,448.381397L557.642378,452.298746L557.346305,454.076194L554.127996,454.781752L544.460178,460.807012L536.538714,467.544155L530.368758,473.928457L525.674336,476.403318L523.318381,479.596818L519.207165,482.072267L503.583499,500.509033L503.267171,504.777730L491.524829,506.499617L484.420341,516.425799L479.945759,527.077731L477.293026,528.485750L475.209693,532.388575L468.697350,539.110881L467.420760,549.087380 " class="Interstate"/><path d="M950.690706,584.702852L956.140732,592.418948L957.599780,592.033619L958.804482,593.431880L961.738060,593.371735L963.331180,599.030030L964.544434,600.783364L965.368255,611.437579L961.451465,620.412647L970.224064,631.611592L970.875028,634.443581L969.205143,638.748247L969.832448,640.513577L978.797927,646.722387L989.551358,649.625340 " class="Federal"/><path d="M468.867475,725.038797L454.915191,723.867452L439.746763,726.592562L422.233491,725.719880L407.418627,722.721208L391.960296,725.044766L382.680641,732.058524 " class="Interstate"/><path d="M143.241618,679.518935L149.962988,681.467144L180.807281,685.061029L221.052483,692.716008L310.874152,713.248985L382.680641,732.058524 " class="Interstate"/><path d="M469.563874,725.567527L469.426338,730.385911L476.555642,730.790137L483.681570,731.903854L489.019515,734.073030L491.384144,736.580168L492.242046,742.996888 " class="Interstate"/><path d="M573.748994,742.907622L492.242046,742.996888 " class="Federal"/><path d="M698.071232,739.365510L705.764794,733.615957L705.975111,720.078193L708.902390,713.646129L707.401725,711.162731L707.383020,708.312950L708.560670,706.879973L713.006939,706.136523L721.818554,693.959891L725.371016,693.220189L729.787069,689.266814L731.525426,684.265605L730.306124,680.000657L731.473851,677.853884L736.485254,674.962931L738.518853,670.314951L738.198625,667.467878L741.130767,664.236985L742.557281,658.169048L744.325878,657.441262L743.133206,656.383005L747.849528,654.560488L749.584540,650.270505L754.586907,647.731392L759.545330,640.917215L765.986823,635.155941L766.529713,630.520477L770.625506,626.918000L773.500384,619.765946L776.435094,618.311149L778.795087,618.286460L779.648182,615.428501L786.385960,611.438918L786.921608,606.803819L789.258551,604.997690L796.525218,596.726418L809.062722,586.966222L812.147494,575.536979L816.999697,564.798626L823.413738,561.158758 " class="Federal"/><path d="M573.748994,742.907622L585.944456,755.738718L599.645912,767.490723L602.922849,767.488433L611.859020,766.766610L618.408611,764.263371L624.067597,764.252810L625.260325,764.962731L638.655696,762.079784L645.191968,757.072910L652.030541,754.555821L653.805254,751.343357L660.341294,748.467865L661.225567,746.326888L667.167998,744.519928L668.063438,745.228289L674.002951,743.062783L685.860108,735.519827L691.504306,734.774894L693.605373,738.324480L695.089839,737.959225L698.071232,739.365510 " class="Federal"/><path d="M24.793224,863.569260L26.406689,864.609351L36.126678,866.360842L37.556990,868.182430L38.594603,873.536509 " class="Interstate"/><path d="M382.680641,732.058524L382.551981,743.451946L379.577857,743.771964L379.440165,755.876479L375.009788,779.318554L374.325359,787.141252L375.307734,805.662066L374.620147,813.838558L369.705180,826.584782L366.399844,828.675695L358.023272,830.696149 " class="State"/><path d="M110.028002,678.639025L108.115130,750.734273L99.023102,771.081553L94.398693,789.773270L93.660045,795.434298L94.429519,811.438462L93.628674,819.581723L89.555098,828.335491L83.758973,834.903958L81.272024,839.441858L79.025452,846.115711L76.631803,858.461079L75.410331,859.841995L71.226719,861.129079L69.662668,864.272340L68.284016,871.677835L65.858200,873.728187L38.594603,873.536509 " class="Federal"/><path d="M38.594603,873.536509L34.994529,875.186848L32.562126,888.220299L32.387648,894.594287L28.173189,896.928942L17.563262,894.784004L11.604062,895.988714L7.074786,899.014180L4.305003,913.082549 " class="Federal"/><path d="M492.242046,742.996888L490.987829,755.100433L491.268443,758.307664L501.299658,777.238709L538.994377,835.073402L540.133007,857.853811 " class="Interstate"/><path d="M358.023272,830.696149L382.414690,837.777143L393.453064,838.622515L416.066216,848.124490L424.116580,850.341432L449.803902,853.424251L475.813569,855.046448L530.561458,856.043355L535.952713,854.282409L540.133007,857.853811 " class="Interstate"/><path d="M2.518525,913.371302L2.080570,913.397883 " class="State"/><path d="M996.288129,975.327786L996.340562,975.326420 " class="Interstate"/><path d="M666.009426,985.344567L677.189833,995.223328L679.921355,1000.175345L688.074732,1004.383609L709.255494,1020.905208L718.328480,1025.796627L726.169992,1026.084410L755.759842,1032.177027L772.037974,1031.994632L778.053962,1030.505361 " class="Interstate"/><path d="M778.053962,1030.505361L784.068615,1029.013789L786.196547,1031.113382L799.413857,1026.688215L812.006591,1020.843010L820.618112,1009.374704L823.600236,1006.848683L832.766574,992.525275L843.506747,985.616974L851.835380,978.741159L866.911116,960.389601L873.123148,953.892260L879.673711,950.580254L896.426505,948.492383L901.265911,951.592419L954.172915,963.592505L983.035340,970.701516L996.288129,975.327786 " class="Interstate"/><path d="M997.925966,1061.929420L997.880051,1062.010703 " class="State"/><path d="M666.009426,985.344567L661.222418,994.594410L659.759682,1008.083314L659.820695,1027.233794L664.107985,1046.354218L659.918331,1058.419721L654.510686,1069.068586L652.412373,1075.450717L649.099439,1080.420159L648.221748,1092.102908L650.070002,1104.831590L649.789827,1113.673820L651.926364,1120.029063L658.931095,1133.075197L662.576413,1135.884511L664.408101,1140.114774L669.324082,1160.216583 " class="Interstate"/><path d="M669.324082,1160.216583L669.325226,1160.569545 " class="Interstate"/><path d="M997.880051,1062.010703L979.434717,1090.764594L969.036668,1099.152189L959.618571,1113.157100L957.531544,1114.620267L953.415250,1121.427130L948.639857,1124.718278L943.014477,1131.909489L935.085319,1126.094314L933.878814,1126.121957L929.700553,1129.393492L915.791906,1150.165687L911.315916,1154.494801 " class="State"/><path d="M911.315916,1154.494801L880.735443,1150.889476L862.727504,1136.406973L858.825105,1138.948390L854.293659,1139.381938L849.444119,1138.407628L833.293595,1126.672240L830.231145,1122.835914L831.415378,1120.344135L831.066635,1115.756668L825.229506,1106.306623L824.583023,1102.074702L827.805280,1092.124449L827.154633,1087.536991L821.973058,1082.664538L815.245912,1073.919807L807.030829,1066.960015L798.102055,1047.609196L795.654418,1043.745669L791.421116,1042.384415L784.179447,1041.768478L781.447844,1039.676809L779.919421,1037.215457L778.053962,1030.505361 " class="State"/><path d="M911.045959,1156.969026L911.315916,1154.494801 " class="Federal"/><path d="M909.885696,1159.373106L910.464485,1158.744557L911.045959,1156.969026 " class="Federal"/><path d="M921.398588,1159.107600L921.951945,1158.845419L924.474532,1159.033911 " class="Federal"/><path d="M668.977842,1162.630668L669.325226,1160.569545 " class="Federal"/><path d="M359.212134,831.068392L359.464209,834.985227L357.606684,840.651191L345.658164,865.730313L338.257483,884.105411L337.570966,891.203499L334.965551,908.219977L333.816956,928.449834L334.807772,945.510110L337.763801,949.107081L352.962148,958.214064L355.904973,963.581685L356.759166,967.853148L356.697426,973.530191L354.814004,980.953526L351.565113,1003.249624L345.350561,1021.232678L345.133933,1041.069583L343.878966,1045.653902L342.332304,1047.928779 " class="State"/><path d="M502.747278,687.530646L507.895329,701.396858L506.326129,719.915178L503.558721,739.851065L504.654999,760.160082 " class="State"/><path d="M547.358554,742.633494L548.170487,740.015488L542.549294,728.244829L531.577591,720.017639L518.776515,726.739172L507.766574,729.896969L488.133705,732.999191 " class="State"/><path d="M481.008930,731.531077L478.467465,709.784777L484.186766,696.282589L486.913809,686.323391 " class="State"/><path d="M64.763146,612.351753L62.951741,613.865306 " class="Federal"/><path d="M470.307391,197.842256L472.323396,197.147379L477.723267,203.883757L486.868280,210.285817L493.466895,212.082435L502.689266,208.590126L509.327435,204.025344L519.688619,200.883836L526.266953,207.260181L527.667282,215.388018L535.420515,218.588636L547.504045,218.615866L555.267898,220.396352L568.495117,226.774280L576.260633,234.910370L584.326140,236.327968 " class="State"/><path d="M464.298881,357.794252L464.407997,345.024256L459.450190,315.566498L462.201148,299.285864L466.376265,284.791468L467.673024,268.516423L467.759353,258.609931L466.834709,232.791339L467.139503,198.883418L470.307391,197.842256 " class="Federal"/><path d="M469.796849,717.407875L469.563874,725.567527 " class="Interstate"/><path d="M467.630221,682.721096L467.259207,699.378846L470.194607,704.030281L469.796849,717.407875 " class="Interstate"/><path d="M439.746763,726.592562L443.532707,699.196949L448.085606,686.053939L462.040178,682.598227L468.320261,682.642580 " class="State"/><path d="M491.524807,760.090004L517.456772,760.218696L543.972944,753.541660L547.358554,742.633494 " class="State"/><path d="M468.320261,682.642580L477.746579,682.704940L502.330349,686.406549L502.747278,687.530646 " class="State"/><path d="M467.420760,549.087380L466.511951,556.185072L468.836383,560.116963L469.984869,564.041153L469.659583,568.311965L468.153840,572.931250L466.084788,573.985736L461.555955,588.555366L463.820391,601.036379L462.305516,606.368356L461.967605,612.064852L463.422054,614.924569L464.537478,623.837324L463.016112,629.882264L462.063851,638.781004L462.561001,651.608851L463.723604,654.467008L467.687661,680.144464L467.630221,682.721096 " class="Interstate"/><path d="M924.111656,366.897581L934.140246,367.259219L934.346579,376.119532L935.628502,381.416294L954.082063,413.717265L954.354432,425.068444L953.248312,439.643416L951.305751,456.014084L947.566968,470.647496L942.579943,482.109944L938.859606,498.525981L933.559770,509.998278L925.918457,521.869665L926.725789,532.522194L931.585955,540.967463L932.380287,550.910401L941.717995,576.697679 " class="Federal"/><path d="M412.532479,364.713405L424.425036,366.374796L436.057723,365.048419L441.572775,365.444949L448.554530,364.430988L452.941348,361.267992L460.233477,357.768397L475.627589,357.507124L479.704135,356.110688L493.621143,359.730381L497.113961,358.682304L497.411122,357.619189L511.635693,359.453752L519.178020,361.965719L531.350194,370.522862L545.293689,375.528410 " class="Interstate"/><path d="M327.746472,2.593614L330.029944,4.149472L345.148933,27.112061L358.704449,31.746283L373.505292,32.016659L385.431464,30.537696L395.983735,25.725376L405.182902,16.348225L406.249578,3.398221 " class="State"/><path d="M413.572720,502.730511L415.631404,502.038104L422.655804,502.813153L424.128317,502.114592L424.450864,499.271311L426.226946,497.507994L434.443553,496.154239L438.534718,497.254652L443.769372,501.565118L447.796721,510.135374L447.184920,512.977483L443.023639,518.995052L442.414076,521.481408L446.440311,530.766193L453.709660,539.363383L460.735808,542.617231L465.988102,547.636948 " class="State"/><path d="M972.134974,4.316458L968.997490,8.746594L964.219744,18.261761L957.649821,17.292519 " class="Federal"/><path d="M98.956673,576.519379L101.828932,581.490871L102.559047,590.993282L105.436616,595.965424L104.983288,602.989592L107.864999,607.962263L113.319842,611.167672L117.115870,610.656219L126.674953,611.517693L132.228862,611.354254L134.985745,612.036456L140.444544,615.540701L145.582991,621.790436L149.211720,628.002182L151.429724,630.199592L181.871123,658.174170L185.085455,661.616561L197.356390,668.325171 " class="State"/><path d="M907.161980,1154.333824L906.992591,1141.278990L905.389019,1137.971251L901.162413,1132.894331L891.813417,1113.325468L891.274501,1111.815661L890.014615,1094.500485L887.596575,1088.156833L887.467850,1078.113309L885.938996,1060.173621L885.744299,1045.246010L881.041098,1042.287237L866.015483,1042.867662L864.700977,1041.366776L850.328339,1009.587134L847.128553,1001.704816L848.116732,997.720331L846.794158,995.299817L843.675136,994.129325L840.754841,987.764267 " class="Federal"/><path d="M889.508672,942.624733L893.429126,946.217495L896.283302,947.385113L897.079169,948.897460 " class="Federal"/><path d="M477.669003,846.478046L478.149989,807.564442L485.176861,791.056831L484.948979,785.843887L485.980465,784.930502L489.907545,770.237571L490.681629,769.322238L495.301475,768.428510 " class="State"/><path d="M63.599341,366.077530L69.324386,365.315252L72.500014,366.617740L81.425486,366.545007L85.234500,363.899758L87.938437,364.578186L88.516509,362.154663L91.591681,359.184734L94.852404,358.047468L131.717961,361.067705L134.704548,360.831616 " class="State"/><path d="M417.641424,489.479983L419.428775,487.352575L427.761213,485.894401 " class="State"/><path d="M487.630719,467.630627L490.653306,467.646485L493.957873,462.764579L500.034995,456.977169L507.150444,444.458961L512.693555,442.645431L515.460280,442.656223L519.247129,439.609856L528.305450,438.416434 " class="State"/><path d="M772.525901,1032.052329L773.329430,1035.093672L773.493518,1055.220272L772.013016,1064.992794L772.236554,1093.323365L774.086607,1096.955054 " class="State"/><path d="M776.402770,1030.175659L782.123597,1031.631411 " class="State"/><path d="M602.603973,566.565023L613.755192,563.487699L616.541046,561.950876L622.624785,562.247470L629.963858,557.634151L631.233148,558.551015 " class="State"/><path d="M673.525154,554.114799L674.789949,553.802453L680.871785,554.386382L684.640442,549.156383L691.974818,547.891104L695.265700,547.872563L702.595913,546.296663L706.634416,544.739067L711.902495,538.575477L713.375682,532.743087L716.123490,528.434509L720.648634,525.339028L726.982307,527.131849L732.101852,534.447455L733.629782,535.661400L739.945182,534.998445L743.249275,536.809954L747.050748,537.697358L750.358909,539.813983L755.675181,540.379944L757.944507,539.746600L764.774159,539.989693L771.104632,540.847981L774.418951,543.266518L780.013341,545.967530L785.884045,550.502421L789.941633,551.378066L797.843383,556.193280L807.454371,556.081993L810.517953,558.190378L812.346476,562.458236L816.684901,565.162905 " class="State"/><path d="M641.337910,548.715661L644.633127,549.625720L649.707140,552.062180L652.744137,551.438931 " class="State"/><path d="M798.196006,430.043123L798.417622,427.899725 " class="State"/><path d="M513.649617,796.726373L513.719625,779.251683 " class="State"/><path d="M593.020685,817.740507L593.275835,807.931702L594.558675,799.654444L596.355561,795.668376L599.680523,769.911369L600.448935,768.071020 " class="State"/><path d="M670.025527,911.577576L666.649066,906.696861L661.208552,901.824191L660.425419,899.378649L654.985100,893.584672L646.708447,887.492204L643.343370,883.522934L635.836189,872.520992L631.185882,868.245458L628.341087,863.657810L596.365867,823.869367L593.277961,818.353461 " class="State"/><path d="M358.741602,831.468732L366.210214,829.732739 " class="State"/><path d="M380.004945,744.105914L379.630498,732.145532 " class="State"/><path d="M513.976198,779.252824L513.805350,758.094834 " class="State"/><path d="M513.722095,778.638489L513.719625,779.251683 " class="State"/><path d="M597.292294,593.244873L596.782898,589.871865L598.303500,584.658178L600.585808,581.590539 " class="State"/><path d="M350.389225,609.452390L345.143907,586.396104L344.460671,581.177263L347.814127,576.931769 " class="State"/><path d="M778.056215,62.743315L776.544770,59.735770L780.634396,55.474838L781.334823,53.355769L779.920265,40.692948L777.674201,37.393156L773.970449,34.406893L774.422205,31.990761L781.759599,17.764113L787.920132,7.169974L788.844156,4.151093 " class="Federal"/><path d="M468.027427,279.306123L471.721609,283.594513L490.335528,289.789251L494.056524,291.636165L499.774177,292.881500L504.737017,295.646906L508.223243,295.660977L513.679038,299.951364L514.416716,301.784055L521.844845,311.571587L529.038029,320.443173L530.019612,324.413611L530.250417,328.992778L527.748919,330.206345L524.485730,334.164749L524.214090,339.048904L524.702823,341.493237L527.186894,344.860128L526.679219,346.690896L528.907134,351.889861L530.653626,352.811387L532.891056,356.177908L537.893131,356.191399L539.134258,358.943953L541.133499,359.559883L542.376528,362.006963L544.128004,362.011009L547.369454,365.990124L547.356413,370.573700 " class="Federal"/><path d="M798.196006,430.043123L797.974289,432.186613L806.281495,433.930512L808.284739,433.602061L812.819361,434.773673L831.482153,440.666129L834.271739,442.466177L840.675009,450.337070L842.708514,451.839951L852.300338,454.770056L855.344594,456.563591L874.858799,480.147239L887.890205,491.269184L896.486324,493.579445L902.263011,493.178360L905.592073,496.183054L907.867116,496.756745L915.792168,503.047509L918.917072,508.195686L924.727447,509.316690L933.529105,509.156840 " class="Federal"/><path d="M950.713424,807.104349L945.025437,803.858739L938.754063,796.642774L938.141660,791.144219L936.779619,786.579384L938.500197,782.869370L934.601061,779.274825L936.031858,773.733341L934.182490,770.402341L935.946863,769.141383L937.886074,763.589099L939.371086,761.108521L940.530930,754.959313L939.945447,750.989758L941.833132,742.987527L943.101556,742.655088L943.493094,736.521150L936.005439,731.466568L935.408757,726.883691L937.422770,725.617821L935.546755,720.754268L935.760386,718.605625L940.330435,717.900755L942.839706,716.011675L945.299929,711.672716L946.820235,711.335086L945.966106,706.757831L944.670238,705.559098L942.284903,700.706364L940.995507,699.813456L937.968050,701.099776L936.903265,698.670277L938.913472,697.404632L939.379957,695.250826L943.107825,690.886777L943.016459,686.293484L945.774046,684.399455L949.336179,684.632844L953.597012,681.787745L955.552184,678.071163L961.097611,676.116614L962.581354,674.247304L964.493704,668.693221L962.659575,665.975559L963.381220,664.122461L961.300460,661.716106L965.811535,659.170050L967.279425,656.688392L971.527267,653.840522L970.166542,649.582030L971.166336,648.947958L972.557493,643.098860 " class="Federal"/><path d="M889.665693,935.592853L889.337584,930.708679L887.716775,925.542307L887.566760,915.150372L884.447134,895.329324L881.449135,883.758784L881.098768,877.339907L879.494306,873.084589L879.365273,864.212281L880.852801,860.513410L880.735608,852.557580 " class="Federal"/><path d="M907.822985,860.625588L931.245379,849.446233L932.003875,848.818507L939.704963,849.268789L944.808901,847.935738L949.170730,848.147182L951.459905,847.179233L952.172068,844.103947L954.915613,840.065827L955.137407,838.225019L960.648115,831.676597L962.345738,826.742427L961.263645,823.706448 " class="Federal"/><path d="M966.032813,17.624495L968.270218,19.394239L972.827483,26.675936 " class="Federal"/><path d="M548.001131,77.991828L548.508800,72.551254L547.781900,70.131964L547.562047,62.577255L549.771528,60.466482L550.764332,55.937424L554.948000,46.885654L554.955493,44.168956L551.298680,41.145110L545.426026,43.549143L542.229680,48.674507L537.317506,54.098901L531.682462,56.199439L531.184829,58.010351L526.261547,64.039046L519.879504,67.344234L515.957180,68.238510L510.578557,67.011865L491.283246,61.499036L481.528527,57.830664L481.270969,59.339582L478.085959,59.928418L471.771896,55.064835L469.787240,58.074462L466.605300,58.359658L460.745821,57.421532L457.773850,61.028900L455.807704,61.923669L456.579736,58.303782L453.668492,56.172836L447.574220,54.626228L447.340069,53.718980L450.068790,50.112867L449.132109,46.485039L450.166436,41.361077L449.996692,34.722959L445.597248,35.299377L441.237229,32.557408L434.238194,26.480946L428.913467,23.430266L424.054895,22.190649L419.701548,19.748305L412.414376,18.187510L406.360921,15.730439L405.882889,15.124130L405.567578,3.676640 " class="Federal"/><path d="M658.343381,972.500063L662.488502,972.481540 " class="State"/><path d="M631.233148,558.551015L638.818469,553.014175L637.545596,550.871708L641.337910,548.715661 " class="State"/><path d="M652.744137,551.438931L655.271872,550.203941L660.359339,555.396310L663.144460,555.078838L665.920832,552.921734L669.213355,552.907794L673.525154,554.114799 " class="State"/><path d="M662.488502,972.481540L662.690633,955.971482L664.990786,947.703934L664.983080,945.563068L669.365156,941.259744L670.111588,933.608511L672.155809,927.479290L671.352406,920.445790L670.025527,911.577576 " class="State"/><path d="M514.186070,727.735629L513.685852,724.973154L521.129039,718.563206L526.761772,716.744141L531.117993,713.998823L533.683419,711.246728L534.975606,706.649931L539.841992,702.983669L545.723231,701.465689L551.088637,701.785001L555.180129,700.259803L560.044516,694.440589L567.204768,688.009502L572.062353,681.880052L572.066561,677.585612L570.541284,672.062626L573.611242,662.556538L573.359920,658.568658L574.893529,653.662122L576.168243,653.049635L577.699971,649.063110L576.938706,644.768304L577.958799,642.928589L575.161989,637.098729L576.439866,630.658510L580.767629,628.514074L581.786498,626.367519L584.585254,626.981912L590.946404,623.915338L592.980329,617.474185L594.760536,617.473740L597.048123,614.712602L594.503243,607.659564L596.026676,603.672177L597.294034,596.924839L597.292294,593.244873 " class="State"/><path d="M600.585808,581.590539L600.077078,579.751051L601.596606,575.763972L601.085332,570.245269L602.603973,566.565023 " class="State"/><path d="M347.814127,576.931769L351.938603,571.776377L355.206726,573.350681L358.750118,573.395697 " class="State"/><path d="M961.263645,823.706448L956.333016,820.143371L950.021119,811.098670L950.713424,807.104349 " class="Federal"/><path d="M886.771645,949.703829L888.778681,945.694153L889.744635,941.092367L889.665693,935.592853 " class="Federal"/><path d="M665.107197,980.415818L673.684288,986.789679L674.980389,986.782719 " class="State"/><path d="M98.871212,576.352138L98.956673,576.519379 " class="State"/><path d="M60.189604,363.356727L60.232875,363.245149 " class="State"/><path d="M788.844156,4.151093L789.012150,3.563439 " class="Federal"/><path d="M665.444551,1161.466235L664.656995,1162.653515 " class="Federal"/><path d="M358.750118,573.395697L362.900689,566.092898L363.457094,562.422599L365.298816,557.236009L365.349021,553.559731L371.507152,546.892720L372.575225,542.615893L376.694660,536.842564L389.448371,527.180674L393.730333,528.145181L395.765531,526.941022L395.297314,523.872684L400.635917,520.864021L401.176745,517.806166L403.213947,516.294927L403.491223,514.153459L406.277928,513.261956L407.574616,510.211494L407.360696,506.840173L408.653338,504.096095L412.198373,502.904700L412.989041,499.849412 " class="State"/></g>
<g class="map" id="airports"><circle cx="543.327284942" cy="382.587081967" id="Flagstaff Pulliam" class="Airport" r="10"/><circle cx="669.582946041" cy="1000.97662469" id="Tucson Int'l" class="Airport" r="10"/><circle cx="484.313945581" cy="731.40135237" id="Sky Harbor Int'l" class="Airport" r="10"/></g>
<g class="map" id="cities"><circle cx="453.365605094" cy="701.221131707" class="city" data-lat="33.5819411408" data-lon="-112.195823814" id="Glendale" r="15"/><circle cx="880.799885252" cy="852.601785747" class="city" data-lat="32.8338214305" data-lon="-109.706880129" id="Safford" r="15"/><circle cx="527.934659048" cy="845.722833527" class="city" data-lat="32.8793742056" data-lon="-111.756625816" id="Casa Grande" r="15"/><circle cx="531.813189388" cy="734.075506546" class="city" data-lat="33.4239146108" data-lon="-111.736084434" id="Mesa" r="15"/><circle cx="99.4015035876" cy="507.376087015" class="city" data-lat="34.4982934764" data-lon="-114.308278851" id="Lake Havasu City" r="15"/><circle cx="60.6336135608" cy="373.658828792" class="city" data-lat="35.1481762889" data-lon="-114.567487836" id="Bullhead City" r="15"/><circle cx="706.309871566" cy="352.500492477" class="city" data-lat="35.284705423" data-lon="-110.700695436" id="Winslow" r="15"/><circle cx="361.520501212" cy="829.72648769" class="city" data-lat="32.9503776235" data-lon="-112.724654584" id="Gila Bend" r="15"/><circle cx="821.408552079" cy="1082.52778341" class="city" data-lat="31.7131404816" data-lon="-110.066883994" id="Tombstone" r="15"/><circle cx="860.976968021" cy="971.702956702" class="city" data-lat="32.2532108755" data-lon="-109.831394492" id="Willcox" r="15"/><circle cx="509.467634134" cy="678.916908496" class="city" data-lat="33.6923478384" data-lon="-111.868040204" id="Scottsdale" r="15"/><circle cx="146.373308186" cy="367.269656229" class="city" data-lat="35.1898791698" data-lon="-114.052222129" id="Kingman" r="15"/><circle cx="467.216652182" cy="195.529349499" class="city" data-lat="36.054787617" data-lon="-112.138592165" id="Grand Canyon" r="15"/><circle cx="35.3200124414" cy="876.188629733" class="city" data-lat="32.6852775259" data-lon="-114.623608441" id="Yuma" r="15"/><circle cx="412.532573428" cy="494.171805064" class="city" data-lat="34.5900191437" data-lon="-112.447772259" id="Prescott" r="15"/><circle cx="912.420078544" cy="1152.96321248" class="city" data-lat="31.3586401561" data-lon="-109.548362673" id="Douglas" r="15"/><circle cx="547.408565415" cy="370.49710073" class="city" data-lat="35.1980957225" data-lon="-111.650508262" id="Flagstaff" r="15"/><circle cx="677.454092869" cy="983.239982518" class="city" data-lat="32.2049967641" data-lon="-110.889986208" id="Tucson" r="15"/><circle cx="474.474989794" cy="709.581522439" class="city" data-lat="33.5399798778" data-lon="-112.069991701" id="Phoenix" r="15"/></g></svg>