<?xml version="1.0" encoding="utf-8"?><!DOCTYPE svg  PUBLIC '-//W3C//DTD SVG 1.1//EN'  'http://www.w3.org/Graphics/SVG/1.1/DTD/svg11.dtd'>
<svg xmlns="http://www.w3.org/2000/svg" version="1.1" style="fill:none;" width="100%" height="100%" viewbox="-50 -50 1100 979">

<!--svg enable_background="new 0 0 1000 879" height="879px" pretty_print="False" style="stroke-linejoin: round; stroke:#000; fill: none;" version="1.1" viewBox="0 0 1000 879" width="1000px" xmlns="http://www.w3.org/2000/svg" xmlns:xlink="http://www.w3.org/1999/xlink"-->
<defs><style type="text/css"><![CDATA[path { fill-rule: evenodd; }]]></style></defs><metadata><views><view h="879.769323608" padding="0" w="1000"><proj dist="1.3" id="satellite" lat0="34.9" lon0="-92.3" tilt="0" up="0"/><bbox h="169.14" w="192.47" x="910.24" y="921.89"/></view></views></metadata>
<g class="map" id="states"><path d="M704.226047,875.770549L705.074107,849.740581L706.845078,846.636629L710.922803,844.841186L715.305736,843.509505L717.993045,841.828731L719.242614,837.390642L718.694782,833.092577L716.269518,824.817769L715.959299,812.393605L714.816783,809.350141L712.008175,807.102553L705.499200,804.792937L703.219185,804.395686L700.260303,799.569642L702.455322,794.189909L710.160349,783.836082L711.225342,779.066212L711.871701,771.697420L711.353137,759.951197L704.233208,752.771486L700.060629,749.431811L696.151688,748.052400L692.737971,746.226803L689.538392,742.152331L688.564247,738.050759L691.835525,736.156558L696.792538,736.053769L701.411431,735.227669L704.974765,732.686731L706.754843,727.427483L705.858978,721.200713L702.500331,717.922194L693.824793,713.779518L689.706897,709.560819L690.260127,707.264600L693.441119,705.456023L697.211626,702.638311L705.263700,691.528376L708.482029,688.782198L712.824447,684.329114L714.834406,682.776097L717.215203,682.231876L722.812136,681.913127L724.878043,680.938547L727.494805,675.619588L726.163800,670.897656L723.755504,666.916744L722.353354,658.382446L726.236115,652.690852L729.209501,646.576801L725.716832,639.767792L720.082040,637.068196L717.986190,635.402731L717.127867,631.954628L718.850952,630.141394L729.961465,627.585030L741.454724,621.386433L746.157596,620.530629L751.027064,620.508597L755.115214,619.965262L758.455279,617.941065L761.059633,613.464316L760.459751,603.821738L745.354776,596.695785L745.070355,589.613831L747.842894,586.951117L757.988282,580.419224L761.260300,579.116789L763.869649,577.022914L771.622896,558.535121L776.615545,556.494152L782.030354,558.340472L783.517273,554.696520L786.334570,549.966825L787.006134,547.931781L786.643421,544.824945L784.715213,540.140971L784.021408,534.335942L784.939571,533.006269L791.555461,536.011784L800.160399,534.847357L804.857972,532.981952L812.341880,528.688188L818.886017,521.320172L820.397330,513.948480L820.165358,505.274146L821.963277,484.073617L818.016694,466.899403L819.601877,456.258351L823.010208,447.389689L825.862627,442.292572L828.406254,441.482744L832.360269,443.938283L836.985924,444.062350L841.362967,442.636266L846.090466,437.086177L844.959568,432.476824L842.540306,427.530226L841.585639,423.204730L843.900428,419.932302L866.588886,410.448451L876.082282,404.022464L882.792712,395.349795L882.817611,384.775245L876.402167,377.289511L875.770827,376.195052L873.981215,373.123522L876.200021,371.226616L880.056649,370.354892L884.857400,368.338181L892.285625,363.906193L895.228902,360.592356L897.327156,356.769898L898.565678,352.433247L898.913842,347.528128L900.917672,343.157330L905.801520,342.944979L911.416106,344.256669L915.565743,344.448933L919.667712,338.148546L919.590911,327.977159L917.302115,317.505299L913.013263,305.193009L912.083444,300.151058L911.525691,288.737972L912.316550,282.908384L914.701756,278.860771L925.310376,269.552597L928.353092,265.856826L930.713752,261.705168L931.615222,257.548640L931.579889,251.170155L932.383792,246.924485L934.816897,244.293124L939.693744,242.768704L944.662692,242.010988L949.286860,240.581813L951.300698,237.402598L948.410721,231.389419L945.132925,226.826135L944.183701,223.915161L945.455020,221.553660L948.779571,218.645612L952.305789,214.596737L952.270969,211.323993L946.394235,204.028595L943.218248,198.278652L943.307098,193.812784L946.055262,190.406239L976.579181,176.088345L988.971583,165.140207L987.040266,160.603192L981.540497,156.833383L976.182393,154.395167L978.007457,149.715389L980.895374,146.469349L984.631070,144.533346L989.026304,143.850219L995.083957,148.458539L998.211288,149.213068L999.431022,144.449559L996.515196,136.882293L991.058842,131.534585L987.140738,125.234616L987.433183,123.434608L987.079128,123.430704L928.650118,126.307871L856.593550,129.689616L855.357672,129.326658L855.557020,124.824318L862.393118,110.764225L864.253279,108.223177L867.454455,102.473070L871.072860,97.661371L873.868303,95.493899L877.830205,94.451800L881.665051,91.575264L885.326955,80.998228L887.299078,79.583269L895.431014,76.241022L904.251100,68.340712L904.932568,63.352786L906.941008,60.631662L911.997463,58.948224L916.615554,52.085763L915.535425,43.429089L916.841033,34.373546L916.014076,30.429817L912.713784,26.857375L905.975052,22.838861L904.006731,18.204412L903.709652,14.202371L899.954850,9.327939L897.818758,3.771506L896.078348,0.698394L827.262784,1.871465L772.234969,2.661821L717.144327,3.321939L662.020000,3.851370L551.669241,4.517948L496.466858,4.654827L441.264168,4.660697L386.060926,4.535559L330.871635,4.279445L275.710783,3.892479L220.578114,3.374719L165.488088,2.726360L110.450230,1.947612L55.474039,1.038728L0.568978,0.000000L4.127654,34.796143L7.716120,69.617684L18.647838,174.205707L22.352871,209.100024L29.847601,278.940648L27.489720,333.325711L20.554227,496.472477L18.282919,550.831258L13.818188,659.477672L11.615670,713.735726L15.165396,714.662649L17.101870,719.264276L18.520547,724.511652L22.272196,728.124992L27.303528,729.767656L32.524601,729.084198L32.496942,730.638405L29.850269,733.131718L31.292898,735.585710L35.092348,736.484405L39.523642,734.360421L43.657481,736.801499L45.851044,734.668009L47.400510,730.726993L49.572197,727.762850L53.093536,727.755259L63.020815,733.179096L65.894167,731.929476L68.643034,729.591128L71.788273,728.455952L78.760867,732.748402L82.784480,733.910540L87.103138,733.778729L90.925879,731.897714L96.879148,736.535322L99.974068,738.157366L101.877462,755.427548L101.421543,844.762159L101.288294,874.500411L138.698740,875.178911L176.139372,875.768195L213.596948,876.280161L251.073621,876.726992L288.571787,877.096509L326.083558,877.370327L363.605870,877.578829L401.130809,877.709793L438.660617,877.769324L476.197563,877.733062L513.728500,877.631435L551.260835,877.458353L588.781415,877.201702L626.297663,876.873631L663.801565,876.468120L701.290091,875.966975L704.226047,875.770549Z " id="Arkansas" class="neighbor"/><path d="M1000.000000,0.000000L0.568978,0.000000L55.474039,1.038728L110.450230,1.947612L165.488088,2.726360L220.578114,3.374719L275.710783,3.892479L330.871635,4.279445L386.060926,4.535559L441.264168,4.660697L496.466858,4.654827L551.669241,4.517948L662.020000,3.851370L717.144327,3.321939L772.234969,2.661821L827.262784,1.871465L896.078348,0.698394L897.818758,3.771506L899.954850,9.327939L903.709652,14.202371L904.006731,18.204412L905.975052,22.838861L912.713784,26.857375L916.014076,30.429817L916.841033,34.373546L915.535425,43.429089L916.615554,52.085763L911.997463,58.948224L906.941008,60.631662L904.932568,63.352786L904.251100,68.340712L895.431014,76.241022L887.299078,79.583269L885.326955,80.998228L881.665051,91.575264L877.830205,94.451800L873.868303,95.493899L871.072860,97.661371L867.454455,102.473070L864.253279,108.223177L862.393118,110.764225L855.557020,124.824318L855.357672,129.326658L856.593550,129.689616L928.650118,126.307871L987.079128,123.430704L987.433183,123.434608L988.817604,114.857945L994.670128,104.342108L995.387993,100.209831L996.696407,97.813487L1000.000000,95.174393L1000.000000,73.627451L991.504560,61.794567L995.099889,60.492494L1000.000000,60.187123L1000.000000,0.000000Z " id="Missouri" class="neighbor"/><path d="M11.615670,713.735726L13.818188,659.477672L18.282919,550.831258L20.554227,496.472477L27.489720,333.325711L29.847601,278.940648L22.352871,209.100024L18.647838,174.205707L7.716120,69.617684L4.127654,34.796143L0.568978,0.000000L0.000000,0.000000L0.000000,712.286216L1.505862,712.842580L1.538828,711.129840L5.269324,713.118007L10.521677,713.447062L11.615670,713.735726Z " id="Oklahoma" class="neighbor"/><path d="M101.288294,874.500411L101.237807,877.769324L438.660617,877.769324L401.130809,877.709793L363.605870,877.578829L326.083558,877.370327L288.571787,877.096509L251.073621,876.726992L213.596948,876.280161L176.139372,875.768195L138.698740,875.178911L101.288294,874.500411Z M704.226047,875.770549L701.290091,875.966975L663.801565,876.468120L626.297663,876.873631L588.781415,877.201702L551.260835,877.458353L513.728500,877.631435L476.197563,877.733062L438.660617,877.769324L704.157675,877.769324L704.226047,875.770549Z " id="Louisiana" class="neighbor"/><path d="M101.288294,874.500411L101.421543,844.762159L101.877462,755.427548L99.974068,738.157366L96.879148,736.535322L90.925879,731.897714L87.103138,733.778729L82.784480,733.910540L78.760867,732.748402L71.788273,728.455952L68.643034,729.591128L65.894167,731.929476L63.020815,733.179096L53.093536,727.755259L49.572197,727.762850L47.400510,730.726993L45.851044,734.668009L43.657481,736.801499L39.523642,734.360421L35.092348,736.484405L31.292898,735.585710L29.850269,733.131718L32.496942,730.638405L32.524601,729.084198L27.303528,729.767656L22.272196,728.124992L18.520547,724.511652L17.101870,719.264276L15.165396,714.662649L11.615670,713.735726L10.521677,713.447062L5.269324,713.118007L1.538828,711.129840L1.505862,712.842580L0.000000,712.286216L0.000000,877.769324L101.237807,877.769324L101.288294,874.500411Z " id="Texas" class="neighbor"/><path d="M875.770827,376.195052L876.402167,377.289511L882.817611,384.775245L882.792712,395.349795L876.082282,404.022464L866.588886,410.448451L843.900428,419.932302L841.585639,423.204730L842.540306,427.530226L844.959568,432.476824L846.090466,437.086177L841.362967,442.636266L836.985924,444.062350L832.360269,443.938283L828.406254,441.482744L825.862627,442.292572L823.010208,447.389689L819.601877,456.258351L818.016694,466.899403L821.963277,484.073617L820.165358,505.274146L820.397330,513.948480L818.886017,521.320172L812.341880,528.688188L804.857972,532.981952L800.160399,534.847357L791.555461,536.011784L784.939571,533.006269L784.021408,534.335942L784.715213,540.140971L786.643421,544.824945L787.006134,547.931781L786.334570,549.966825L783.517273,554.696520L782.030354,558.340472L776.615545,556.494152L771.622896,558.535121L763.869649,577.022914L761.260300,579.116789L757.988282,580.419224L747.842894,586.951117L745.070355,589.613831L745.354776,596.695785L760.459751,603.821738L761.059633,613.464316L758.455279,617.941065L755.115214,619.965262L751.027064,620.508597L746.157596,620.530629L741.454724,621.386433L729.961465,627.585030L718.850952,630.141394L717.127867,631.954628L717.986190,635.402731L720.082040,637.068196L725.716832,639.767792L729.209501,646.576801L726.236115,652.690852L722.353354,658.382446L723.755504,666.916744L726.163800,670.897656L727.494805,675.619588L724.878043,680.938547L722.812136,681.913127L717.215203,682.231876L714.834406,682.776097L712.824447,684.329114L708.482029,688.782198L705.263700,691.528376L697.211626,702.638311L693.441119,705.456023L690.260127,707.264600L689.706897,709.560819L693.824793,713.779518L702.500331,717.922194L705.858978,721.200713L706.754843,727.427483L704.974765,732.686731L701.411431,735.227669L696.792538,736.053769L691.835525,736.156558L688.564247,738.050759L689.538392,742.152331L692.737971,746.226803L696.151688,748.052400L700.060629,749.431811L704.233208,752.771486L711.353137,759.951197L711.871701,771.697420L711.225342,779.066212L710.160349,783.836082L702.455322,794.189909L700.260303,799.569642L703.219185,804.395686L705.499200,804.792937L712.008175,807.102553L714.816783,809.350141L715.959299,812.393605L716.269518,824.817769L718.694782,833.092577L719.242614,837.390642L717.993045,841.828731L715.305736,843.509505L710.922803,844.841186L706.845078,846.636629L705.074107,849.740581L704.226047,875.770549L704.157675,877.769324L1000.000000,877.769324L1000.000000,373.514740L928.895907,375.135653L902.347073,375.688382L875.770827,376.195052Z " id="Mississippi" class="neighbor"/><path d="M987.433183,123.434608L987.140738,125.234616L991.058842,131.534585L996.515196,136.882293L999.431022,144.449559L998.211288,149.213068L995.083957,148.458539L989.026304,143.850219L984.631070,144.533346L980.895374,146.469349L978.007457,149.715389L976.182393,154.395167L981.540497,156.833383L987.040266,160.603192L988.971583,165.140207L976.579181,176.088345L946.055262,190.406239L943.307098,193.812784L943.218248,198.278652L946.394235,204.028595L952.270969,211.323993L952.305789,214.596737L948.779571,218.645612L945.455020,221.553660L944.183701,223.915161L945.132925,226.826135L948.410721,231.389419L951.300698,237.402598L949.286860,240.581813L944.662692,242.010988L939.693744,242.768704L934.816897,244.293124L932.383792,246.924485L931.579889,251.170155L931.615222,257.548640L930.713752,261.705168L928.353092,265.856826L925.310376,269.552597L914.701756,278.860771L912.316550,282.908384L911.525691,288.737972L912.083444,300.151058L913.013263,305.193009L917.302115,317.505299L919.590911,327.977159L919.667712,338.148546L915.565743,344.448933L911.416106,344.256669L905.801520,342.944979L900.917672,343.157330L898.913842,347.528128L898.565678,352.433247L897.327156,356.769898L895.228902,360.592356L892.285625,363.906193L884.857400,368.338181L880.056649,370.354892L876.200021,371.226616L873.981215,373.123522L875.770827,376.195052L902.347073,375.688382L928.895907,375.135653L1000.000000,373.514740L1000.000000,95.174393L996.696407,97.813487L995.387993,100.209831L994.670128,104.342108L988.817604,114.857945L987.433183,123.434608Z M1000.000000,60.187123L995.099889,60.492494L991.504560,61.794567L1000.000000,73.627451L1000.000000,60.187123Z " id="Tennessee" class="neighbor"/></g>
<g class="map" id="AR"><path d="M704.226047,875.770549L705.074107,849.740581L706.845078,846.636629L710.922803,844.841186L715.305736,843.509505L717.993045,841.828731L719.242614,837.390642L718.694782,833.092577L716.269518,824.817769L715.959299,812.393605L714.816783,809.350141L712.008175,807.102553L705.499200,804.792937L703.219185,804.395686L700.260303,799.569642L702.455322,794.189909L710.160349,783.836082L711.225342,779.066212L711.871701,771.697420L711.353137,759.951197L704.233208,752.771486L700.060629,749.431811L696.151688,748.052400L692.737971,746.226803L689.538392,742.152331L688.564247,738.050759L691.835525,736.156558L696.792538,736.053769L701.411431,735.227669L704.974765,732.686731L706.754843,727.427483L705.858978,721.200713L702.500331,717.922194L693.824793,713.779518L689.706897,709.560819L690.260127,707.264600L693.441119,705.456023L697.211626,702.638311L705.263700,691.528376L708.482029,688.782198L712.824447,684.329114L714.834406,682.776097L717.215203,682.231876L722.812136,681.913127L724.878043,680.938547L727.494805,675.619588L726.163800,670.897656L723.755504,666.916744L722.353354,658.382446L726.236115,652.690852L729.209501,646.576801L725.716832,639.767792L720.082040,637.068196L717.986190,635.402731L717.127867,631.954628L718.850952,630.141394L729.961465,627.585030L741.454724,621.386433L746.157596,620.530629L751.027064,620.508597L755.115214,619.965262L758.455279,617.941065L761.059633,613.464316L760.459751,603.821738L745.354776,596.695785L745.070355,589.613831L747.842894,586.951117L757.988282,580.419224L761.260300,579.116789L763.869649,577.022914L771.622896,558.535121L776.615545,556.494152L782.030354,558.340472L783.517273,554.696520L786.334570,549.966825L787.006134,547.931781L786.643421,544.824945L784.715213,540.140971L784.021408,534.335942L784.939571,533.006269L791.555461,536.011784L800.160399,534.847357L804.857972,532.981952L812.341880,528.688188L818.886017,521.320172L820.397330,513.948480L820.165358,505.274146L821.963277,484.073617L818.016694,466.899403L819.601877,456.258351L823.010208,447.389689L825.862627,442.292572L828.406254,441.482744L832.360269,443.938283L836.985924,444.062350L841.362967,442.636266L846.090466,437.086177L844.959568,432.476824L842.540306,427.530226L841.585639,423.204730L843.900428,419.932302L866.588886,410.448451L876.082282,404.022464L882.792712,395.349795L882.817611,384.775245L876.402167,377.289511L875.770827,376.195052L873.981215,373.123522L876.200021,371.226616L880.056649,370.354892L884.857400,368.338181L892.285625,363.906193L895.228902,360.592356L897.327156,356.769898L898.565678,352.433247L898.913842,347.528128L900.917672,343.157330L905.801520,342.944979L911.416106,344.256669L915.565743,344.448933L919.667712,338.148546L919.590911,327.977159L917.302115,317.505299L913.013263,305.193009L912.083444,300.151058L911.525691,288.737972L912.316550,282.908384L914.701756,278.860771L925.310376,269.552597L928.353092,265.856826L930.713752,261.705168L931.615222,257.548640L931.579889,251.170155L932.383792,246.924485L934.816897,244.293124L939.693744,242.768704L944.662692,242.010988L949.286860,240.581813L951.300698,237.402598L948.410721,231.389419L945.132925,226.826135L944.183701,223.915161L945.455020,221.553660L948.779571,218.645612L952.305789,214.596737L952.270969,211.323993L946.394235,204.028595L943.218248,198.278652L943.307098,193.812784L946.055262,190.406239L976.579181,176.088345L988.971583,165.140207L987.040266,160.603192L981.540497,156.833383L976.182393,154.395167L978.007457,149.715389L980.895374,146.469349L984.631070,144.533346L989.026304,143.850219L995.083957,148.458539L998.211288,149.213068L999.431022,144.449559L996.515196,136.882293L991.058842,131.534585L987.140738,125.234616L987.433183,123.434608L987.079128,123.430704L928.650118,126.307871L856.593550,129.689616L855.357672,129.326658L855.557020,124.824318L862.393118,110.764225L864.253279,108.223177L867.454455,102.473070L871.072860,97.661371L873.868303,95.493899L877.830205,94.451800L881.665051,91.575264L885.326955,80.998228L887.299078,79.583269L895.431014,76.241022L904.251100,68.340712L904.932568,63.352786L906.941008,60.631662L911.997463,58.948224L916.615554,52.085763L915.535425,43.429089L916.841033,34.373546L916.014076,30.429817L912.713784,26.857375L905.975052,22.838861L904.006731,18.204412L903.709652,14.202371L899.954850,9.327939L897.818758,3.771506L896.078348,0.698394L827.262784,1.871465L772.234969,2.661821L717.144327,3.321939L662.020000,3.851370L551.669241,4.517948L496.466858,4.654827L441.264168,4.660697L386.060926,4.535559L330.871635,4.279445L275.710783,3.892479L220.578114,3.374719L165.488088,2.726360L110.450230,1.947612L55.474039,1.038728L0.568978,0.000000L4.127654,34.796143L7.716120,69.617684L18.647838,174.205707L22.352871,209.100024L29.847601,278.940648L27.489720,333.325711L20.554227,496.472477L18.282919,550.831258L13.818188,659.477672L11.615670,713.735726L15.165396,714.662649L17.101870,719.264276L18.520547,724.511652L22.272196,728.124992L27.303528,729.767656L32.524601,729.084198L32.496942,730.638405L29.850269,733.131718L31.292898,735.585710L35.092348,736.484405L39.523642,734.360421L43.657481,736.801499L45.851044,734.668009L47.400510,730.726993L49.572197,727.762850L53.093536,727.755259L63.020815,733.179096L65.894167,731.929476L68.643034,729.591128L71.788273,728.455952L78.760867,732.748402L82.784480,733.910540L87.103138,733.778729L90.925879,731.897714L96.879148,736.535322L99.974068,738.157366L101.877462,755.427548L101.421543,844.762159L101.288294,874.500411L138.698740,875.178911L176.139372,875.768195L213.596948,876.280161L251.073621,876.726992L288.571787,877.096509L326.083558,877.370327L363.605870,877.578829L401.130809,877.709793L438.660617,877.769324L476.197563,877.733062L513.728500,877.631435L551.260835,877.458353L588.781415,877.201702L626.297663,876.873631L663.801565,876.468120L701.290091,875.966975L704.226047,875.770549Z " id="Arkansas" class="state"/></g>
<g class="map" id="uzones"><path d="M99.374533,36.956674L96.233458,37.181230L88.124935,42.491444L89.062155,43.764106L92.498990,45.194082L95.137808,48.451266L96.905130,48.022654L99.247864,40.169127L99.374533,36.956674Z " class="urban"/><path d="M99.029346,102.367899L98.161766,95.222201L98.519132,87.910149L102.136896,80.424445L93.796859,71.659035L89.121779,70.863432L84.870368,79.261564L90.516987,84.707096L91.552727,89.550945L81.415094,91.461022L84.903654,97.489627L86.760697,99.328809L86.773653,103.351493L81.496354,103.118797L77.345529,112.750357L79.751426,117.139644L82.648557,114.233868L85.565972,114.052117L88.400800,114.783666L91.048008,114.568788L93.400057,109.055636L95.637570,109.090086L98.275468,105.178770L99.029346,102.367899Z " class="urban"/><path d="M830.593625,114.645990L833.753348,113.080302L828.467162,106.509977L825.320210,108.080679L826.914863,114.185336L830.593625,114.645990Z " class="urban"/><path d="M979.771384,147.732722L975.113218,150.770228L977.578658,150.814902L978.007457,149.715389L979.771384,147.732722Z " class="urban"/><path d="M793.577704,177.546805L799.915647,174.793725L802.543639,167.984347L800.083852,163.014947L794.482689,160.685905L787.839697,161.389243L786.640211,174.863325L793.577704,177.546805Z " class="urban"/><path d="M50.607395,261.147473L40.698365,258.165453L40.751150,255.383798L38.899886,255.628062L33.786437,263.574253L30.043711,263.242121L28.900868,265.207288L29.076356,271.753699L29.847601,278.940648L29.234193,293.089046L30.850378,294.127133L30.675769,296.362639L36.507404,300.890454L44.861995,292.108503L53.577295,289.022122L50.449620,275.853973L50.935508,270.091520L54.115398,263.990123L50.607395,261.147473Z " class="urban"/><path d="M298.295498,303.473410L296.081113,297.900257L292.468809,296.022403L287.071629,305.786658L286.869765,308.993163L290.006344,313.555811L294.223932,316.816092L295.940630,314.625777L298.198249,314.645355L304.723057,310.981103L306.917637,308.338603L307.385863,303.555980L305.314396,301.734602L300.704597,303.522889L298.295498,303.473410Z " class="urban"/><path d="M582.916741,323.606974L584.685174,321.795003L587.069876,317.767200L590.512723,316.652811L593.940562,316.295166L596.208423,315.263953L596.118157,312.120966L588.636528,305.962810L584.107330,303.868034L577.888460,303.846560L575.528826,311.345856L575.668917,315.025284L577.959947,317.814579L579.491703,322.398138L580.282258,323.373308L582.916741,323.606974Z " class="urban"/><path d="M918.006126,320.726341L916.611559,323.159571L913.792199,326.249502L909.669696,327.338357L909.889219,332.053645L916.482199,333.603018L916.702121,338.301873L912.995796,337.692990L907.522020,332.935846L903.885871,333.299443L902.237929,331.140975L901.706560,326.293146L900.562461,324.751570L897.894964,324.258658L891.956169,325.217507L889.221040,324.982305L888.275146,329.953695L887.065619,330.587061L888.566556,337.235962L897.059097,343.518216L898.763754,349.642641L898.913842,347.528128L900.917672,343.157330L904.643577,342.995327L905.753427,341.689552L909.983040,341.252442L911.292977,343.835418L912.233341,344.294534L915.565743,344.448933L919.667712,338.148546L919.590911,327.977159L918.006126,320.726341Z " class="urban"/><path d="M443.880762,351.958252L441.435908,348.711241L439.168795,343.131294L428.686446,347.957180L426.502356,358.196751L436.857692,365.454852L440.758032,364.627319L443.640471,360.987831L445.418679,356.795657L445.614922,354.595735L443.880762,351.958252Z " class="urban"/><path d="M778.894455,377.043890L778.707853,369.033427L774.879906,366.441025L772.206427,374.097476L778.894455,377.043890Z " class="urban"/><path d="M499.952239,395.730802L493.910634,396.068247L491.625619,401.656552L489.329985,401.662370L486.364376,408.516560L484.782038,410.021026L482.103773,410.536893L476.105202,409.720258L471.033807,411.584848L464.201888,418.381058L462.105025,418.839149L457.270797,418.182548L455.000778,418.815304L455.059446,421.153870L451.454320,420.983557L449.421918,422.620647L447.626018,425.892839L444.512798,426.500598L441.340627,423.945096L432.187792,423.929997L431.541343,426.103701L429.890647,426.714033L432.168973,429.502736L431.613047,440.701251L434.673465,445.384838L440.381198,446.556837L441.296322,449.024225L443.265305,457.065911L443.562447,460.160341L440.152744,459.607342L438.360386,458.502658L439.293972,471.179932L445.352583,466.932639L448.170700,465.755163L450.246633,466.355880L454.258433,468.733633L457.338931,468.551748L464.003323,464.972007L468.787759,460.196374L473.890148,459.574595L476.782593,457.311194L480.255488,457.410008L480.253981,454.610269L482.119217,453.315296L484.335060,452.883866L487.856325,446.991402L488.557880,446.878377L496.263494,437.868626L493.979314,437.869596L493.095664,436.346123L491.783407,431.813722L491.675651,429.519016L497.031195,424.188082L491.965068,416.081723L491.652144,410.039051L495.080863,411.065318L501.218433,415.128261L505.364123,415.580036L506.715717,415.177635L513.295215,409.897927L514.298802,407.701124L514.487310,404.395889L507.759794,402.805510L499.952239,395.730802Z " class="urban"/><path d="M446.433064,414.260125L450.494508,412.824479L451.157128,408.042535L449.093211,402.246261L444.999702,403.031310L441.384881,405.909809L444.100415,414.109064L446.433064,414.260125Z " class="urban"/><path d="M423.686369,472.033515L422.948420,471.273840L421.939008,473.687964L416.487881,473.613425L413.633208,474.357455L409.166591,479.605809L399.982555,479.590284L400.793114,488.053351L408.575320,489.958900L411.434016,487.971210L418.344480,479.650935L421.583876,478.392519L427.105747,477.714728L427.530613,474.078978L423.686369,472.033515Z " class="urban"/><path d="M317.371921,493.063884L313.666350,492.899361L307.177620,490.302692L303.628006,490.158060L303.140003,493.085590L301.779875,492.799573L301.282931,495.704713L297.697697,495.519761L293.424988,498.606962L292.041971,504.008746L292.598664,508.807919L294.291402,512.380135L298.863245,512.418630L301.269558,516.274280L302.837362,517.770535L305.716242,518.044846L313.454375,509.465239L317.371921,493.063884Z " class="urban"/><path d="M512.525994,554.829954L511.030345,557.207599L507.924042,557.623347L508.036981,560.183212L506.037765,564.375919L510.468661,569.788057L510.136363,573.129764L510.886575,575.452231L512.560180,577.119037L514.089675,581.717220L514.876480,582.669675L521.457985,583.524293L528.695864,582.633911L528.696790,579.847675L534.547429,578.265375L537.895792,571.489171L542.493267,568.657713L542.371410,566.996808L540.160661,563.097594L536.336396,561.441092L535.559441,563.115645L529.643774,565.103364L512.525994,554.829954Z " class="urban"/><path d="M113.354451,585.667469L111.990979,585.066764L111.938100,587.849611L108.344513,587.652992L107.226284,588.257967L107.389749,590.017806L102.394843,592.939757L107.928489,596.059287L115.222330,598.617762L118.708381,596.338435L116.708150,588.048894L113.354451,585.667469Z " class="urban"/><path d="M96.150297,715.417691L98.463883,711.916670L96.396795,698.752500L93.453947,703.554341L80.712609,704.663881L77.759845,709.496144L79.484667,710.219673L82.295115,715.140445L89.191968,718.031109L91.538131,715.327118L96.150297,715.417691Z " class="urban"/><path d="M200.175213,714.393875L195.504638,704.333012L191.379338,703.964314L188.666593,708.665539L196.566452,713.822727L200.175213,714.393875Z " class="urban"/><path d="M355.162214,740.942014L357.493071,738.181551L360.280677,735.980137L361.537186,734.082470L361.357083,732.126141L358.175149,728.410812L350.600190,727.003698L348.881672,727.882687L348.246450,729.758277L348.015486,737.019529L355.162214,740.942014Z " class="urban"/><path d="M101.776628,775.185485L102.045890,774.793191L104.526299,773.838610L106.772404,776.263257L110.119730,775.420351L111.302709,771.736384L111.633053,762.884174L114.272619,756.839143L114.070464,754.609767L109.390027,751.259359L109.582696,749.527167L107.511544,748.298124L101.124262,748.593491L101.877462,755.427548L101.776628,775.185485Z " class="urban"/><path d="M276.087815,806.382833L274.441170,803.737509L268.902019,801.274274L263.703955,796.828627L257.334694,795.601560L255.314328,799.574255L261.972954,802.675113L264.214571,806.788012L262.234337,808.636492L261.334418,810.559754L261.847495,812.299711L266.489993,812.355692L268.603233,815.840117L274.452304,813.402212L275.797781,812.453210L276.087815,806.382833Z " class="urban"/><path d="M392.003155,832.991786L397.453502,832.239230L401.319728,829.957207L401.326747,827.184632L399.010173,824.390333L395.799468,816.240870L393.449502,813.522222L389.733974,813.257248L388.838101,814.507073L387.363289,821.577718L384.067149,824.481881L382.672501,826.512058L382.687183,829.891872L386.546455,832.193658L392.003155,832.991786Z " class="urban"/><path d="M536.656437,848.724945L539.879779,847.302775L541.021068,841.022730L530.554483,841.062198L529.365534,843.819759L532.720816,846.991007L536.656437,848.724945Z " class="urban"/><path d="M873.005758,406.104933L869.626893,403.037258L867.029641,404.250217L861.386817,409.008780L857.899658,410.942116L856.803425,412.443798L857.049799,414.116917L853.704263,415.645545L853.788629,415.799001L866.588886,410.448451L873.005758,406.104933Z " class="urban"/></g>
<g class="map" id="rivers"><path d="M29.723355,277.782839L29.875775,277.727307L31.904909,273.612368L33.356398,268.660370L37.618142,262.685152L42.395627,266.274744L45.993554,270.930432L51.742540,280.824152L55.521079,284.290568L60.315346,285.625930L73.800048,285.573827L88.138546,283.143539L90.265516,282.467891L93.234175,278.535421L91.745063,274.096619L89.450855,269.358384L90.041960,264.528507L91.323968,263.338433L95.616727,263.199298L98.913454,261.880511L106.028510,256.559870L109.972313,254.669281L114.069870,253.850421L131.352530,254.453353L135.492612,253.600374L140.707132,250.449448L145.564145,251.266497L150.718275,254.216965L155.197812,258.522406L158.055014,263.333951L159.302714,270.905190L160.126939,273.332952L163.522649,277.938198L167.549463,279.952379L194.957438,280.655527L198.956896,279.635516L209.924090,273.469092L212.276350,272.610159L228.877491,271.485773L233.392770,272.973163L236.174261,277.184000L241.789392,286.492912L245.725735,288.930595L250.244622,289.915217L255.626842,290.305774L260.906777,291.775045L265.405620,294.918509L285.027522,312.547281L289.906093,318.107168L295.863065,328.428785L297.855950,331.199263L300.372552,333.208619L303.877990,334.643877L315.349846,335.464049L337.791905,331.736474L349.475077,333.886024L351.493848,335.141900L359.075311,342.528211L364.579268,346.106427L367.544379,347.140977L373.420732,346.657714L374.626733,347.499726L379.243775,354.580451L381.590466,356.304363L391.619475,357.822264L394.801142,357.639539L397.919433,356.445911L407.943389,348.864113L412.086216,347.650791L414.103850,348.400819L415.517806,350.302257L415.720469,352.680308L413.087355,363.520911L410.825464,369.056024L407.838304,373.578647L407.340077,375.373244L408.072874,379.191847L410.490282,381.565991L413.738564,382.931724L421.350078,384.980420L425.627243,386.826154L429.276043,389.761825L431.785775,394.235945L432.666971,397.574432L435.037794,411.997853L436.414254,415.418583L438.495562,418.187069L441.407781,420.017514L448.290822,421.943283L455.492757,425.316022L460.234180,426.685462L462.387192,427.849361L464.121372,430.013074L465.579164,437.074954L467.255762,439.320006L469.226038,440.585218L494.814948,447.759865L496.250898,449.053783L496.985025,452.114032L493.443803,457.619207L492.643552,461.844811L493.465864,474.914991L492.115659,483.365302L492.075822,485.171345L493.481340,487.128530L497.769986,489.540447L499.135066,492.017607L498.877855,494.211652L496.632383,499.234911L496.325572,502.296135L497.431368,505.314359L503.259948,510.834028L503.493630,519.617264L503.849134,520.830566L509.453254,529.184123L511.298779,534.229341L512.055764,541.938927L513.520416,545.423806L516.132531,549.405393L519.542303,551.783130L523.389926,550.466932L525.114070,552.430304L528.965167,555.427138L530.478696,557.135650L531.914828,563.973948L534.709946,568.176119L536.795212,568.943781L538.550859,566.836732L540.391173,562.404060L539.511099,556.267995L541.910596,555.545070L544.230544,556.219363L546.787915,564.255417L546.968463,567.558705L548.916037,569.783857L554.705225,570.890607L572.121440,582.214375L577.396853,584.458835L587.886532,584.936958L591.571345,586.086201L604.115842,594.228911 M604.115842,594.228911L604.615740,594.551589L603.061938,593.002824L604.115842,594.228911 Z M604.115842,594.228911L608.366078,600.457365L611.293390,604.135905L613.817097,604.035436L617.613191,602.314348L622.224688,603.898674L630.207624,608.185267L639.211582,607.597818L642.967025,608.522129L644.532745,612.268466L645.016975,616.972196L646.359952,621.300861L648.578415,625.182823L651.621219,628.526608L655.490898,630.598271L659.071086,630.318415L663.031850,629.117062L668.043451,628.362475L669.841100,629.128174L669.772259,630.901668L668.512169,632.687617L663.767404,634.122225L663.188083,635.554443L666.020306,638.642777L670.249364,639.984026L695.443389,640.251398L700.072612,641.825620L704.100202,645.677418L706.663333,651.664794L708.139244,658.703678L708.955065,665.648249L706.947644,668.667127L707.586733,670.776897L709.005059,672.143643L713.423803,672.412865L715.788746,676.871885L717.372923,677.858981L720.421487,675.741879L723.312449,680.986603 " class="River"/><path d="M987.416449,123.434423L987.120960,125.255845L991.039120,131.557853L996.496879,136.897400L999.414871,144.482919L998.199438,149.210209 M980.996872,146.416748L980.876853,146.478351L978.550431,149.105082 M978.005535,149.720317L977.989326,149.738618L976.165894,154.418359L981.520722,156.856656L987.012464,160.632763L988.946396,165.162458 M985.323335,168.363272L976.569966,176.092668 M945.009770,191.702201L943.283498,193.819843L943.199943,198.299844L946.369393,204.051972L952.241290,211.351559L952.292331,214.612189 M947.906835,219.409011L945.429737,221.560765L944.170157,223.930149L945.109488,226.841344L948.392383,231.410627L951.275759,237.423959L949.274081,240.585762 M932.898552,246.367782L932.360457,246.945795L931.554845,251.189465L931.593375,257.563810L930.701763,261.718087L928.337646,265.863707L925.511889,269.307833 M914.691494,278.878185L914.680139,278.888149L912.298140,282.931619L911.512332,288.765177L912.053649,300.184725L912.996299,305.208069L917.272021,317.526759L919.567297,327.992371L919.649201,338.169763L915.564119,344.448858 M900.905297,343.184325L900.895939,343.184716L898.896687,347.537073L898.553589,352.446163L897.308634,356.793140L895.203550,360.607585L892.283003,363.907757 M876.177907,371.245522L876.176376,371.245867L873.950540,373.124563L876.381595,377.296471L882.794123,384.802657L882.775790,395.371666 M882.421723,395.829267L876.058349,404.029494L866.571606,410.455342L866.191116,410.614721 M843.792940,420.084258L841.561690,423.213763L842.524885,427.549298L844.935870,432.500130L846.071736,437.107352L841.342227,442.639124L840.359932,442.963064 M825.844628,442.324736L825.834081,442.328178L823.330818,446.816776 M823.007769,447.396034L823.003034,447.404526L819.573124,456.283759L817.992773,466.914529L821.944464,484.094775L820.148430,505.309540L820.373452,513.969726L818.865384,521.335244L812.331199,528.694316 M784.386695,533.806938L783.997483,534.359187L784.686301,540.168374 M784.686301,540.168374L784.144787,537.577871 M784.686301,540.168374L786.619457,544.846155L786.975386,547.949024L786.298834,549.988225L784.483110,553.075067 M782.874971,556.270592L782.023597,558.338168 M771.620270,558.541383L771.603829,558.548084L763.859680,577.030914 M761.422780,578.986406L761.257931,579.117732 M751.285734,584.734518L747.816990,586.960079L745.052946,589.628782L745.325513,596.706829L760.435653,603.840877L761.040662,613.489489L759.526471,616.099741 M718.836259,630.156856L718.820021,630.160569L717.223876,631.853595 M717.128025,631.955264L717.108773,631.975685L717.965339,635.417699L720.061390,637.101498L725.690848,639.776726L729.180110,646.583749L726.206895,652.714087L723.067373,657.335792 M722.353943,658.386035L722.339357,658.407507L723.726171,666.931829L726.146393,670.920726L727.475750,675.646753L726.003094,678.651714 M723.309122,681.678677L722.793969,681.914161 M705.258366,691.535737L705.249556,691.543239L697.198156,702.648377 M690.258309,707.272146L690.230784,707.287771L689.675761,709.573833L693.800493,713.798562L702.486345,717.955363L705.841463,721.219683L706.734012,727.454633L704.955678,732.700342 M703.498382,733.739509L701.400384,735.229645 M691.824015,736.163223L691.821264,736.163268L691.469989,736.368218 M688.566918,738.062004L688.546739,738.073778L689.508964,742.171423L692.711899,746.241790L696.132349,748.061208L700.041349,749.446724L704.215665,752.790446L711.323590,759.958120L711.847416,771.722569L711.206125,779.089258L710.141198,783.861818 M706.877650,788.247293L702.434362,794.210931L700.230850,799.592798L703.210067,804.410458L705.476475,804.807887L711.988973,807.129651L714.809293,809.356771L715.945082,812.408449L716.245278,824.853051L718.675505,833.113578L719.220008,837.419807L717.968572,841.841680L715.288709,843.514679 M706.827938,846.666669L706.820778,846.669855L705.042929,849.767805L704.201959,875.772160 " class="River"/><path d="M30.933905,732.110873L29.853479,733.137179 M43.655233,736.800171L44.859882,735.632028 M45.834845,734.683765L47.380602,730.759506L47.396001,730.738462 M63.016156,733.176550L64.015338,732.746578 M97.483893,736.852269L102.160812,739.109136L110.556964,738.294436L114.921492,741.060385L118.036705,735.262971L120.048821,734.324195L125.713652,736.247647L127.917093,736.175663L131.549372,734.461543L137.107108,729.404609L140.822522,727.730413L148.638956,727.863982L148.521523,729.072130L152.468820,740.313265L154.087204,743.014198L160.489142,746.972900L163.762028,749.740435L166.063320,752.969541L167.329884,756.242697L167.574403,759.174019L165.546242,767.607599L165.501760,770.584434L167.389733,774.527090L174.435221,781.893822L177.129212,783.216145L173.374830,789.069915L172.885263,792.444846L173.802491,794.673721L178.973037,795.800942L181.508189,797.069178L179.737283,798.849764L176.104861,804.338286L164.107158,810.431242L169.678995,822.592978L169.065077,823.456036L164.113486,826.450775L165.167463,830.883103L158.077162,837.584613L154.105066,842.387495L152.193985,842.780867L150.797917,839.317374L148.220066,842.062827L147.878892,844.207672L144.097153,842.416713L141.665768,842.921515L140.197258,845.350358L139.245471,849.309696L139.125617,854.115188L141.917611,863.748403L144.874855,870.543463L146.237640,874.774740L145.981569,875.293536 " class="River"/><path d="M663.477389,217.912150L659.994103,215.048689L657.764335,210.777365L656.548815,206.028310L656.166149,201.751171L661.797685,195.790810L660.918436,190.805403L661.179775,188.112966L665.814173,186.125139L668.373038,184.206559L670.544920,181.730972L678.204442,174.975132L677.732608,171.281642L678.143912,169.688515L681.726372,165.243050L686.378881,162.772932L683.552747,157.667364L686.397131,153.952349L687.633173,149.703374L686.791683,145.597516L683.370492,142.291060L690.708966,134.153886L692.385394,127.783905L694.355381,127.183595L697.036540,127.451310L699.894841,126.759892L703.809935,123.756266L704.946792,121.270550L705.296847,117.225759L703.438924,108.064926L704.446333,105.214891L711.916935,95.579561L714.609508,94.064584L714.744512,91.356717L718.026338,84.494018L720.547652,82.095645L725.663438,79.097988L728.189618,76.617669L730.992681,68.001475L733.675859,66.312529L732.174159,66.330114L735.272561,63.914232L738.747177,63.079820L742.468007,63.329912L753.676049,65.397755L756.997509,64.816688L759.899691,62.725600L763.788989,53.586402L766.037079,52.255864L779.749170,54.999419L782.366312,55.136147L784.504368,53.713867L784.909560,51.654992L784.178196,45.668567L784.315890,43.329182L787.170113,39.976504L795.327619,39.220776L800.280798,36.233028L807.517652,34.643251L814.512412,29.245399L818.824967,23.298403L821.687273,21.334818L829.900693,19.683386L830.293792,17.778087L829.170142,13.693137L830.976175,9.460930L840.023885,1.653931 " class="River"/><path d="M417.859659,42.501861L418.200532,43.936445L418.205245,42.228022L417.859659,42.501861 Z M417.859659,42.501861L413.280889,47.078199L413.133485,49.640758L417.491782,50.748897L418.642709,53.416125L419.170595,58.747226L420.244523,62.879521L426.423773,60.185201L429.171416,62.844955L431.044670,67.395499L431.924798,71.425878L431.113757,78.109799L434.207237,82.602140L437.791511,84.886569 M437.791511,84.886569L448.694500,78.893497L456.135722,73.006417L463.192936,71.940133L463.916759,71.451832L466.359355,75.501672L466.063120,80.548943L465.174151,84.843513L465.865456,86.655102L474.211995,86.653759L476.936930,87.293838L480.489634,93.490369L487.414742,100.478102L489.638648,100.292685L494.232214,98.404263L496.334558,99.612934L499.407745,104.495048L501.247410,109.928844L502.371768,111.668095L509.688706,114.098803L512.615928,117.615997L508.476163,120.852062L506.944018,125.304995L507.884245,136.078429L506.140981,139.055765L505.469206,141.450634L505.595158,146.278764L507.783880,146.407226L511.437641,144.525793L515.926278,143.293893L519.625868,143.499264L523.401188,146.790327L530.540246,143.256575L534.511588,145.485752L542.015036,154.925229L545.262546,157.043160L550.023371,157.453598L554.121212,159.149333L556.741539,162.725078L557.102027,168.806390L553.734301,173.415502L552.984795,175.823323L552.999747,179.023067L556.495240,186.845982L560.399390,189.795395L565.158388,191.394998L570.275576,191.789223L584.659564,189.107310L592.939608,188.673850L600.748544,190.716625L623.103072,204.276037L625.504922,205.349257L626.601351,211.589422L629.501463,215.563665L633.777823,217.641240L663.477389,217.912150 M437.791511,84.886569L438.803524,85.091366L437.420816,85.089641L437.791511,84.886569 Z M139.827950,158.817241L138.760168,155.370416L121.107365,130.287231L119.582508,126.132058L119.379788,119.972853L118.208585,116.749665L111.621547,109.789303L108.667875,105.449628L108.109153,102.165423L110.219468,100.113836L115.209036,99.449801L117.807519,98.432397L118.526355,96.093988L117.595345,93.730153L113.542752,91.917791L113.763216,90.314399L117.807449,86.655173L120.464490,86.757044L122.515192,83.839264L120.476037,79.832232L119.630687,71.461642L119.967096,68.101692L122.137345,65.278045L116.172190,61.039622L113.016378,56.599979L116.867750,53.254565L120.015063,52.743561L121.093640,50.381738L119.606033,42.788481L118.909477,40.766029L115.679845,37.739826L119.880588,35.558282L129.732614,38.590497L135.154386,38.029277L132.352124,34.747413L135.221486,34.067580L141.215065,37.018555L144.803066,36.459427L146.969692,34.833410L146.303688,29.652497L145.310135,29.831692L143.740872,27.960691L143.309313,25.648509L148.975185,23.644674L151.275583,21.319430L155.492023,15.220930L159.084161,12.364015L164.950972,10.765281L167.379969,9.334212L165.943507,5.903192L169.780096,3.870663L170.470371,2.784997 M321.517760,4.213825L324.293920,6.833516L328.696559,9.318966L327.861424,4.258328 M332.105141,4.285169L333.451331,6.704825L334.277499,5.774761L345.190678,7.531097L347.307972,4.355720 M349.467106,4.365740L350.741147,5.578005L354.104935,10.990185L364.308610,10.519047L367.296830,9.515804L368.908688,4.455961 M372.188356,4.471181L373.906448,8.425273L374.801697,9.546619L379.341839,9.360844L381.419799,10.008748L382.295200,11.963101L381.500404,13.606564L377.904419,14.843166L376.888422,16.363752L379.237412,20.306117L394.616051,13.041089L400.288197,12.875014L398.083660,14.911410L396.283432,18.199059L396.096399,21.857669L398.741021,24.976080L401.210488,22.584188L403.148934,23.972027L405.725052,28.390866L411.270818,28.303113L413.156096,28.795520L414.106833,31.817189L410.469654,35.092682L408.832840,38.698271L409.814657,42.208896L412.326193,42.438662L415.106215,40.736655L417.324306,40.182216L417.859659,42.501861 M663.470171,218.014145L666.243173,218.641168L667.977189,220.470071L667.662612,223.602296L664.927748,228.265598L667.467267,230.963958L669.356397,235.574505L669.237388,239.969509L665.766961,241.928690L663.456168,242.214990L661.461021,251.511157L656.979503,251.428959L655.419799,252.299198L656.593928,256.061515L662.356226,264.452629L660.380087,266.102149L651.409915,281.580500L644.830195,288.245473L642.687873,292.241063L641.916042,297.979653L643.521562,300.740681L650.942581,307.817378L653.217448,312.509916L651.798977,322.804621L650.675037,327.333512L646.315606,327.983303L642.350958,329.985688L640.992740,334.730512L641.292645,340.420571L645.049835,350.407145L639.388488,353.556232L638.094847,355.444133L638.164928,358.769538L639.992274,365.549257L638.964428,368.353316L634.445059,371.043039L634.049430,373.688765L634.141749,384.890835L634.925459,392.791810L636.869975,397.448835L640.540419,401.417730L641.305515,402.890675L640.885153,405.587818L639.000044,410.195059L638.581598,413.188044L639.428314,418.394633L643.854558,428.100456L654.087094,441.353777L655.882899,449.131564L657.001432,450.498372L664.376077,454.967604L667.412453,459.610031L667.630155,463.994448L666.619238,468.829652L665.970544,474.783281L666.904654,476.875400L672.418755,480.553241L672.994798,481.985609L674.693201,490.964690L677.400424,496.515715L681.083369,502.096492L684.190521,504.561712L687.900587,506.785126L689.809502,509.435933L687.479004,513.225113L689.305262,515.968536L691.845619,517.836822L694.357645,517.767461L696.081503,514.688285L699.429330,516.607455L700.047307,519.384201L698.696935,522.000378L696.173297,523.396134L704.683942,528.435374L714.039088,539.516400L717.037145,541.354687L722.384334,542.652445L723.350392,546.167421L722.881258,553.595225L721.604697,555.273454L719.083194,554.072393L722.104115,567.254833L722.098011,571.138466L720.866019,573.886138L717.298905,578.019302L716.562185,581.463514L718.731289,586.307369L719.434190,589.620676L718.111023,593.418645L715.638563,595.498726L705.454450,600.426031L699.711218,606.232859L697.627477,612.076159L698.828282,618.970064L706.036074,635.111065L707.885811,637.532735L711.543817,639.961776L714.561388,640.911176L724.415619,639.793833 " class="River"/></g>
<g class="map" id="roads"><path d="M282.528557,3.940308L282.868478,4.721138 " class="Federal"/><path d="M281.795087,3.935162L280.203421,25.082429L280.460313,33.760494L282.131955,41.149738L284.546355,44.640336L283.800788,48.973928L287.245568,54.643073L299.418284,64.284732L304.262916,71.265945L317.164480,80.472729L327.950389,92.701624L337.638872,113.177062L342.913918,113.206681L348.197714,111.931595L354.503507,115.874528L362.594059,115.913401L362.923414,119.825858L376.224987,133.790972L376.553527,138.573714L380.405634,143.370674L382.513675,144.682895L383.198627,149.032897L386.361204,151.218334L399.049863,151.695221L403.611894,157.795766L405.349180,165.627717L416.962715,176.529095L416.945330,183.053169L420.470343,185.670607L421.512127,193.067610L420.801202,194.806198L423.246752,206.992489L425.009979,209.171311L427.130038,210.045408L431.718869,214.839320L433.133129,215.276640L435.919251,242.696681L436.974719,247.485761L440.509596,254.019178L440.503143,258.807239L447.940184,268.391601L448.281116,283.193534L447.568950,285.369754L443.660143,287.978186L443.300904,291.460853L444.007770,294.509341L445.783487,294.946530L446.136927,296.688462L444.002292,299.298739L443.999805,301.475782L445.419855,302.783472L445.771583,306.267170L447.546742,308.445952L448.602611,320.203776L445.737103,339.361866L445.727658,348.507214L441.090958,353.292646 " class="Federal"/><path d="M472.474184,453.043100L468.178313,458.270038L463.522347,461.753943L454.925715,462.621904L445.609464,466.098465L413.690068,480.846726L398.234761,493.863789L389.620635,495.574431L378.082505,510.330734L364.021944,523.759905L358.964558,529.827922L355.002359,531.982714L348.858380,538.912127L337.312001,547.110440L326.062766,564.007294L317.364066,573.952072L306.138978,583.871234L302.072212,598.629366L291.461354,620.285103L276.175686,637.969860L249.618540,662.467545L221.585447,685.593781L199.727411,702.239934L191.327463,709.936444L178.229483,717.122467L149.883687,728.822026L139.670416,735.590823L112.975025,756.797050L109.689033,758.903009L102.075660,760.056896 " class="Interstate"/><path d="M27.917982,260.959236L29.168692,258.280028 " class="Interstate"/><path d="M480.338869,435.182906L517.176673,432.511405L525.037565,429.877241L540.053206,428.957645L555.070376,428.898062L570.810180,430.565771L590.825921,429.582780L600.809662,425.600287L628.318537,424.530247L646.839206,417.843813L661.475675,417.274376L675.694962,411.038499L684.904405,404.411672L692.366865,401.718764L714.057006,396.245042L739.590042,386.345620L756.621856,381.760652L777.495439,373.187740L790.990499,371.675220L793.800237,369.455032L797.249019,362.872427L801.108038,359.764381L840.599454,343.428284L851.900996,340.612457L875.993274,339.284140L887.642658,336.877760L897.822477,332.320893 " class="Interstate"/><path d="M811.889222,23.679961L797.557283,22.589762L789.903542,23.999050L784.048679,28.416306L767.577708,45.552197L758.952429,52.605150L751.998183,55.296356L741.493489,54.991418L737.320696,56.776940L735.960537,59.396630L736.013663,62.867647L738.511421,65.875796L738.908464,68.909050L734.357277,115.856068 " class="Federal"/><path d="M818.079058,2.003369L814.087444,11.510313L811.889222,23.679961 " class="Federal"/><path d="M441.090958,353.292646L440.697641,382.471954L441.401651,390.312395L443.893539,396.412746L453.165084,414.713338L458.880459,421.684802L462.812246,425.170141L477.474563,430.393840L480.338869,435.182906 " class="Interstate"/><path d="M68.450872,253.828943L85.070164,252.826465L88.988516,251.156375L95.084051,246.479347L99.707178,244.819318L129.717595,245.744858L177.029420,249.478090L205.572464,257.674433L225.710590,260.955533L232.760763,263.644331L239.079473,268.499054L242.921285,273.326511L249.523570,285.145332L255.141128,290.424741L263.978534,293.557557L285.597712,296.799568L291.597441,300.767646L301.462963,309.988825L307.474492,313.517728L318.826512,316.212302L347.608665,318.135388L355.052981,322.094710L369.576735,333.923287L374.900729,336.995331L406.220428,338.414835L415.466461,342.358632L425.422462,349.348319L435.040199,349.364935L441.090958,353.292646 " class="Interstate"/><path d="M53.534664,257.894580L30.217134,258.736164 " class="Interstate"/><path d="M79.084305,20.847953L88.241576,32.703671L88.826651,37.915816L86.289597,42.209668L86.762315,52.624880L92.276834,56.185644L92.524921,60.960893L92.074267,65.725069L87.824109,68.257454L86.580194,77.347360L85.667259,87.312000L86.993217,90.806050L86.219368,94.264916L88.578379,98.644837L83.952282,102.038938L82.099170,106.781999L82.338389,111.995270L84.330542,117.239004L87.448836,119.028753L88.579874,132.074460L85.546624,142.879922L79.270831,225.331580L78.106596,230.527492L74.464155,236.113362L74.629678,245.246625 " class="Interstate"/><path d="M620.554731,4.500810L620.486853,4.102253 " class="Federal"/><path d="M69.521255,1.270961L73.862513,5.160320L75.863353,9.093527L75.127453,10.814248L75.755475,13.858053L79.084305,20.847953 " class="Federal"/><path d="M734.357277,115.856068L713.496782,106.105550L709.230559,102.243183L702.197895,101.449323L698.279882,97.147035L696.317620,81.100757L694.536277,78.947951L685.370544,75.130931L681.816769,71.257787L672.641068,66.133632L666.613520,60.110497L653.652705,60.654558L646.572246,53.766919L644.111061,52.918150L641.671729,54.239008L631.465733,49.540813L629.681818,46.081767L632.805008,43.021680L632.421822,39.553081L633.455487,37.809998L630.272228,34.361867L630.939389,30.886317L629.531514,30.028662L628.811387,27.864651L629.458082,22.220897L628.388496,20.059666L628.693398,15.286618L627.616154,12.258346L624.454127,10.545450L620.554731,4.500810 " class="Federal"/><path d="M734.357277,115.856068L681.012655,212.069081L679.992247,215.558954L681.146181,223.812661L680.895942,232.950986 " class="Federal"/><path d="M957.249156,124.899594L958.039375,142.000282L957.082199,145.493915L946.498133,156.145223L908.909223,228.179724L886.983178,272.961638L880.021234,277.881170 " class="Interstate"/><path d="M734.357277,115.856068L736.470880,116.265050L762.105185,137.660614L767.850297,144.969441L775.159020,161.380886L785.579341,173.835720L787.362008,175.113638L803.913057,175.300316L811.816657,183.869501L832.095450,212.661973L832.640389,240.913196L851.114095,246.678212L861.889519,255.613423L865.799840,256.845315L870.507506,262.409548L880.021234,277.881170 " class="Federal"/><path d="M880.021234,277.881170L878.998203,279.640437L880.596331,288.306593L891.382285,312.881125L897.822477,332.320893 " class="Interstate"/><path d="M53.534664,257.894580L60.250332,257.588266L71.074153,246.485875L74.629678,245.246625 " class="Interstate"/><path d="M897.822477,332.320893L906.062871,336.498452L918.545301,339.872504 " class="Interstate"/><path d="M480.338869,435.182906L487.483106,425.159595L497.126455,418.178878L507.114403,408.144242L509.964028,404.218613L511.732573,396.375226L518.851939,388.083335L532.377857,377.156654L538.053803,368.427628L541.251119,365.367843L552.265725,357.050971L574.246632,336.917668L600.723375,305.416077L610.980754,299.253623L620.572220,299.621460L641.302606,275.084720L655.045890,266.263368L663.864973,262.267167L670.890136,256.544152L679.239319,242.974203L680.895942,232.950986 " class="Federal"/><path d="M480.338869,435.182906L472.474184,453.043100 " class="Interstate"/><path d="M472.474184,453.043100L473.910159,463.930250L472.837908,471.769490L472.840673,480.914561L474.277704,489.187872L485.052156,507.033685L485.415670,512.258274L493.354700,545.336366L506.697584,567.077154L509.943449,570.552023L514.625616,571.846738L526.142105,570.944709L531.543730,571.797973L533.707348,573.096288L535.881988,577.875784L537.326277,579.176144 " class="Interstate"/><path d="M657.441235,743.102976L657.643331,722.694636L643.003609,701.119852L638.068623,669.009429L635.091158,656.864884L614.300648,624.424225L608.503703,620.118301L579.933762,603.776390L570.523723,595.127578L561.143951,592.129616L558.606330,588.225706L553.563849,588.248806L550.309228,584.781941L547.064902,583.925271L535.540686,583.969310 " class="Federal"/><path d="M53.534664,257.894580L54.444984,264.868905L52.614481,267.877194L46.889544,271.243858L44.360870,273.802793L44.049685,288.146104L39.035478,291.089553L37.937094,292.806756L37.125421,297.573699L45.686056,310.792622L57.502980,321.464077L60.787380,334.142164L62.488978,337.655046L62.445044,339.829204L63.473537,341.589086L63.281351,351.155684L64.258622,355.524821L66.301187,359.914546L77.354380,357.514046L85.114166,360.268218L89.374773,360.345936L91.803862,363.435535L92.281529,376.062194L95.100718,377.418316L98.213055,382.260316L97.833974,383.558933L94.586763,386.111441L95.211097,390.909023L94.951817,405.263417L107.198247,417.665571L108.570568,420.735674L108.881951,423.352021L106.245150,431.573379L101.202262,434.529504L100.329944,443.651355L98.524187,444.924052L96.035714,444.443691L87.090811,446.018840L75.926659,451.897766L75.181322,453.623572L76.932191,455.397544L82.947868,458.122836L85.049040,460.337898L83.931689,462.927123L73.886058,465.779513L73.272798,479.688064L69.694828,480.052726L61.735142,485.548551L52.395055,488.402452L46.888113,496.116329L35.629789,505.443890L35.952424,507.190272L33.365660,511.482601L30.054989,516.193277L29.602042,520.966175L34.808382,528.906494L37.473721,538.964357L37.730179,544.187012L44.787333,549.556226L44.338490,554.328749L46.038269,559.147142L45.565416,565.222899L50.427121,573.585727L47.446856,579.607317L49.517199,583.997982L48.296994,591.794842L50.066313,593.136528L46.701831,600.451899L45.010343,614.319653L73.012017,615.343421L77.813825,628.910535L78.100316,633.261057L76.948726,637.582314L76.399864,648.865728L78.479155,653.685871L79.069717,661.515723L82.591664,666.363994L82.744739,701.534956L85.172750,707.660538L103.583306,731.457339L103.905857,734.066816L102.757608,738.383076 " class="Federal"/><path d="M676.739933,797.561602L674.835139,786.741605L669.261773,770.753203L657.441235,743.102976 " class="Federal"/><path d="M706.220640,805.873826L707.220507,805.403718 " class="Federal"/><path d="M676.739933,797.561602L676.786784,803.197662L685.564102,810.465419 " class="Federal"/><path d="M635.768712,806.653937L667.691815,801.131007L676.739933,797.561602 " class="Federal"/><path d="M657.441235,743.102976L648.444695,751.439757L643.885133,772.747510L636.018445,789.739149L635.768712,806.653937 " class="Federal"/><path d="M685.564102,810.465419L692.842382,812.111387L701.186447,811.140174L702.630795,810.254834L703.332730,807.645039L706.220640,805.873826 " class="Federal"/><path d="M102.075660,760.056896L101.852517,760.315486 " class=""/><path d="M102.757608,738.383076L101.868991,757.087484 " class="Federal"/><path d="M101.967484,767.426349L101.816815,767.311004 " class="Federal"/><path d="M104.474438,769.209604L101.967484,767.426349 " class="Federal"/><path d="M104.474438,769.209604L135.584703,770.655774L143.877655,773.403161L163.775058,775.472073L164.090117,779.379935L165.880823,781.143447L166.212014,783.750389L168.018754,784.213108L171.224349,789.033638L173.741595,790.807730L183.917251,788.797811L201.679789,789.493478L210.768611,787.452871L233.603887,789.488003L237.571132,792.139228L250.268321,792.725231L265.049117,805.466235L274.854932,805.570450L274.429594,813.802943L285.308080,816.947304L322.737101,818.577454L325.987564,822.503761L335.057915,826.471673L345.609112,825.677102L361.236323,828.807089L381.972503,828.913977L383.413784,833.254654L389.233265,834.146798L400.880428,833.325249L422.329905,845.956132L441.260171,849.458008L454.368318,853.370366L456.552997,855.104467L465.295092,851.208192L475.491428,848.173240L499.518404,842.946104L515.536250,842.476842L519.546081,845.065438L532.289728,845.457300L533.750504,847.185050L538.845346,846.299075L566.880664,847.033158L567.600295,844.862936L567.933706,837.061660L571.542572,829.673948L571.514168,822.738971L576.601973,821.842264L591.832512,813.074511L599.091115,810.855945L605.611770,806.905670L615.072022,808.999930L623.039485,804.598207L635.768712,806.653937 " class="Federal"/><path d="M685.564102,810.465419L683.648868,841.687769L685.536308,849.894744L692.930355,863.660733L694.430905,868.836826L693.941007,876.065217 " class="Federal"/><path d="M612.667859,876.992820L617.978166,870.933493L624.086946,857.025074L628.360921,841.826929L628.317502,834.894892L635.768712,806.653937 " class="Federal"/><path d="M104.474438,769.209604L104.735688,776.151514L115.103600,785.454032L122.191893,796.856126L133.961723,811.371546L133.826533,821.766311L135.562108,827.861610L130.118320,855.904865L130.386965,858.220469 " class="Federal"/><path d="M132.082909,872.817347L132.172613,875.060549 " class="Federal"/><path d="M457.808352,420.813311L449.579073,429.954402L446.346229,444.759339L444.534286,466.532827 " class="Federal"/><path d="M113.299058,754.386132L113.103415,768.115512L111.860060,774.956996L108.382681,777.636073L101.759010,778.637568 M101.131332,748.657634L107.653623,748.784500L113.299058,754.386132 " class=""/><path d="M130.386965,858.220469L132.082909,872.817347 " class="Federal"/><path d="M506.569166,730.404963L509.686048,728.528543L515.613927,728.514011 " class="Federal"/><path d="M515.612412,727.766192L518.733826,728.505615 " class="Federal"/><path d="M268.829300,813.078475L259.140526,812.225802L248.458034,818.073093L243.718327,823.612847L235.535759,829.107557L232.999345,832.805469L223.536801,840.887208L221.982233,873.295864L221.655114,874.781838 " class="Federal"/><path d="M367.109313,727.569228L370.538969,727.960856L379.559775,735.108158L383.300395,736.246581L387.029289,741.122480L390.772460,741.885533L396.393098,741.159663L408.866408,746.435229L423.226534,747.595084L425.413465,746.852410L435.404983,746.871552L441.646383,750.244839L455.386630,751.005463L461.945898,745.401392L464.756016,744.280424L471.623496,738.672310L475.055053,733.063028L480.046890,730.816714L485.662988,730.064006L491.903917,730.430501L495.338022,731.921129L501.578948,731.910515L506.569166,730.404963 " class="Federal"/><path d="M570.186108,723.431986L577.672241,723.763284L594.811076,721.411076L604.774993,719.097239L610.978154,713.815726L619.687403,711.129539L623.114890,711.101495L625.980908,720.425746L632.868881,724.852858L639.401820,722.924787L654.050386,722.784891L657.828428,727.606846 " class="Federal"/><path d="M513.440822,734.127929L517.183245,732.996585L518.733826,728.505615L523.728252,729.612811L537.761251,727.321524L541.494255,723.941767L546.479757,722.425558L559.888748,721.990041L570.186108,723.431986 " class="Federal"/><path d="M110.484305,597.701735L116.062437,597.054384L119.705204,601.610716L117.791898,605.318939L121.087758,612.488075L124.121356,616.658130L124.623660,624.524835L126.426610,628.298225L129.208915,628.721150L134.421417,632.552999L138.385949,637.110516L138.653590,640.108080L144.222950,640.950301L146.682499,642.487794L147.551128,646.991553L152.402425,655.301353L153.523683,664.296814L158.460450,666.621027L161.273759,665.169986L164.053198,666.336197L170.878806,666.816867L173.617525,671.347355L173.844775,678.082877L176.599567,681.490729L176.878354,684.112704L180.873300,687.912507L185.719082,698.828150L187.506757,705.584106L194.930846,709.430392L196.137773,712.812094 " class="Federal"/><path d="M44.909626,550.364971L49.203036,551.579251L64.575676,554.144845L81.255606,552.980909L82.206862,551.502081L92.367119,552.820691L100.043398,555.211232L104.321160,557.911041L105.779631,563.179049L99.500879,569.426631L100.687144,572.443421L103.757403,573.623457L104.326847,576.628566L108.313045,578.573488L110.678429,585.354212L113.121762,587.270049 " class="Federal"/><path d="M357.119051,532.830892L358.024694,537.332975L360.177436,539.967875 " class="Federal"/><path d="M348.362600,734.190814L351.466485,737.574490L353.959216,738.337185 " class="Federal"/><path d="M37.512243,297.468371L35.455794,294.057259L33.038033,293.259180 " class="Federal"/><path d="M93.402332,93.126382L94.176619,84.919598 " class="Federal"/><path d="M358.359208,731.259947L358.384134,725.651824L361.832577,721.558145L359.996183,713.694859L360.941188,711.456229L359.084343,708.453797L360.967433,705.472197L359.754258,697.984403L356.349958,693.101901L357.955019,682.635472L353.941712,675.502900L355.824810,672.146022L355.223659,667.651820L353.362369,666.518213L350.595762,659.765037L350.634696,651.905048L349.082093,651.521331L346.629658,644.768255L345.154152,629.783741L346.417981,625.672921L345.504093,622.297258 " class="State"/><path d="M579.514748,199.969938L586.473086,193.941008L590.428887,194.293445L596.222337,196.506737L598.335344,194.247251L601.074787,194.605049 " class="State"/><path d="M504.807741,271.789752L508.770488,268.034558L511.519064,268.028948L517.313635,265.017882 " class="State"/><path d="M33.649490,279.421031L49.575621,288.724168L52.891530,290.286647L57.964436,295.252307L63.406823,297.228742L72.566552,296.277853L80.122847,299.412786L84.062021,300.607778L91.021186,303.353900L98.323234,304.231351L102.924206,302.812909L120.915164,303.114511L126.444089,300.956755L142.317941,300.456596L146.259456,302.014921L164.839535,304.535528L178.571460,305.101446L182.551511,304.405912L210.332161,305.509631L224.986744,306.431281L228.361345,305.345358L235.056959,307.667938L238.741545,306.208981L245.749357,308.156886L251.552700,308.591360L258.893073,308.289873L270.491485,310.274280L273.228682,311.798560L277.769138,316.711776L283.264785,317.884552L288.129216,321.299444L289.326375,324.308023 " class="State"/><path d="M448.562703,314.172703L451.936229,305.928178L459.588867,298.809801L463.259504,299.560354L470.601143,298.810474L474.883041,297.309816L480.994036,288.685342L482.213632,284.561473L493.515032,278.553225L499.922302,272.922300L504.807741,271.789752 " class="State"/><path d="M543.069131,215.859401L545.488064,211.730397L550.665516,212.085562L557.981528,213.928887L562.841619,211.660514L570.106553,204.136294L574.064570,204.491670L576.778982,200.358426L579.514748,199.969938 " class="State"/><path d="M521.578764,261.634582L523.413807,262.754027L527.376782,260.869414L527.662936,254.872876L527.339889,249.253063 " class="State"/><path d="M527.339889,249.253063L530.088128,249.994530L532.217331,248.114609L533.425750,244.738623L536.775270,243.229212L540.725353,239.469206L541.919724,233.095853L541.293846,228.976966L537.924663,224.492807L538.516869,219.995510L540.649081,219.988332L543.069131,215.859401 " class="State"/><path d="M306.651117,584.566328L303.011572,573.673298L299.635344,569.524228L287.640407,559.304075L287.664515,556.307154L285.262542,547.293459L283.428431,544.653870L283.453294,541.656650L286.903728,535.693060L292.780727,535.370627L302.721961,529.084710L301.522286,524.203171L304.314717,522.727092L303.109528,518.594931L308.689857,516.016457L309.323969,513.772809 " class="State"/><path d="M345.504093,622.297258L339.907115,623.759342L334.637312,622.226491L334.029335,619.975667L330.321942,616.954380L325.673129,615.797872L321.366182,609.774628L318.280564,607.129967L315.215679,601.488871L309.953725,599.949319 " class="State"/><path d="M310.320853,504.036133L310.353346,499.538756L311.912977,497.301972L315.007656,496.201115L319.670967,491.363027L323.391788,488.766009L324.640976,486.525817L321.280003,481.628912L317.894676,480.479715L314.217416,477.078684L309.633052,471.420868L310.285441,466.552800L307.222914,463.904938L307.562021,459.784122L309.119362,457.547065L308.842045,453.421348L310.731807,447.812783L309.550408,441.055865L304.354774,436.141773L301.898576,435.372361L298.848207,431.973642L300.730103,427.490402L301.389977,421.872460L300.180812,419.238487L302.371946,414.382584L299.023566,410.231810L296.875095,409.839319L298.132038,406.475670L296.912058,405.341002L297.870762,400.850242L293.585475,398.940346L292.993275,396.311206L296.080311,394.462497L290.584421,390.667649L286.662130,382.761586L279.641031,378.575975L276.001213,374.044584L276.952995,370.679583L279.110372,369.574564L281.956224,360.228613L287.830986,354.656937L288.527050,345.291685L291.349951,337.818667L290.770473,334.065501L291.132819,327.696492L289.326375,324.308023L293.943115,321.347795L295.830886,315.366195L295.921730,304.872674L294.721661,302.239518L296.321816,294.007449L300.052787,286.541834L300.120084,278.672844L295.864971,276.390949L296.242762,268.150358L295.042011,265.892621L296.020393,258.781467L298.788553,256.180555L302.448554,256.208781L302.182021,251.710797L303.404946,251.345436L304.392721,242.736104L309.919140,237.906741L309.657611,232.660325L312.100906,231.928674L310.617678,227.048392L311.558921,223.683952L309.753595,221.049057L310.713312,215.437721L304.043108,212.392764L304.677471,209.401353L302.910622,202.647255L304.460496,199.288510L305.434066,192.181039L304.839075,190.678913L307.312326,185.829467L306.112931,183.948695L301.555280,183.914972L300.974277,180.915448L296.769299,175.642198L292.214074,175.606643L288.302402,171.831915L286.824430,167.702357L284.710804,166.562132L285.654351,163.201170L284.181580,158.697719L286.652553,154.226797L287.606286,149.743645L292.179853,147.160436L290.689019,144.529225L293.484884,137.441588L290.761103,137.046122L288.362494,134.408009L288.694744,131.417541L286.618722,126.911512L291.825066,120.967286L291.244918,118.344280L294.592713,116.499896L296.739794,113.523869L296.162774,110.527276L298.326490,105.681471L297.457651,101.561193L300.829685,96.724802L299.960851,92.605218L300.100663,77.651581L300.729236,75.039502L303.176404,71.693074 " class="State"/><path d="M664.823436,561.738155L662.966675,561.756766L663.229708,556.509456 " class="Federal"/><path d="M87.965939,37.391885L100.276879,37.965035 " class="Federal"/><path d="M620.268281,434.705384L620.889352,435.450471L619.871230,464.698588L620.198452,467.320131L619.730010,487.940182L619.786173,495.811034 " class="Federal"/><path d="M617.193293,435.103221L617.427736,424.979349 " class="Federal"/><path d="M527.063649,573.134819L527.109160,589.993442L530.535558,595.226887L530.251692,604.592074L529.332064,608.715049L523.749629,610.604959L520.035056,615.109809L519.755028,628.217527L520.405237,640.571829L521.965676,643.188146L523.849363,650.669979L523.862266,655.910649L525.742705,661.519566L525.453233,670.128717L528.267963,675.359120L530.173934,689.571740L529.252344,694.438462L526.155656,701.930293L523.982266,705.303558L518.073883,711.679139L516.210202,715.050172L515.914469,722.904316L514.045157,724.030949L514.059098,731.135312L513.129474,734.502576L513.450191,738.988050L515.016768,741.974713L513.465276,746.838122L508.790222,751.708300L508.168807,753.578442L499.747286,761.817062L497.877950,765.930696L492.569724,769.675332L487.884042,772.296669L485.076004,779.024278L480.702120,784.631289L472.572764,790.238273L467.255417,793.227021L461.310251,800.321482L457.867420,802.560566L457.552266,808.907490L455.672721,812.266357L448.470196,815.247106L446.590164,817.111542L435.938822,821.575962L430.612867,823.059264L422.158868,821.921257L416.207295,822.652438L412.758532,824.508736L396.151730,827.438292 " class="Federal"/><path d="M636.453703,659.361151L645.782275,659.650487L648.861526,655.879136L650.078185,652.499297L655.004456,646.837609L655.911992,643.834403L655.260317,640.097760L656.782328,636.339601L656.702067,626.607262L658.837049,622.093592L658.948285,598.502766L662.661530,597.716793L662.619354,592.848767L664.475421,592.455535L664.823436,561.738155 " class="Federal"/><path d="M663.229708,556.509456L662.907053,555.014148L633.515315,555.659501L626.394663,555.343829L624.524407,553.485540L625.008586,534.746649L623.137340,532.513128L623.530936,501.404180 " class="Federal"/><path d="M619.834154,502.557240L619.786173,495.811034L602.191563,495.937787L564.518646,494.657875L561.738192,494.296411L548.767324,493.604065L536.109004,494.026844L534.566275,494.407006L531.143557,485.796168L519.066320,470.085611L513.499956,463.725774L508.551867,456.613104L502.064268,448.376995L493.125467,446.516002 " class="Federal"/><path d="M393.361602,817.350858L397.759865,811.768657L400.894877,809.913519L409.991932,800.983107L416.258108,796.893680L427.546402,780.487363L430.067279,767.042876L431.035285,745.742451L431.716412,706.107353L430.475729,701.990337L428.935051,690.764082L431.438149,683.285570 " class="Federal"/><path d="M377.190283,876.957097L378.457820,873.235957L380.973775,871.384152L386.660440,858.360888L388.864302,855.387143L393.264340,851.675920L398.298944,844.608615L396.133396,834.154680 " class="Federal"/><path d="M443.280767,674.322517L443.602582,663.469247L440.817321,649.615633L442.686209,646.623070L443.971233,604.309208L444.603839,591.948561L445.850411,585.581332L443.686480,578.835324L444.312410,572.841354L445.867223,567.222727L445.880362,552.983422L447.126492,544.365352L450.849648,532.000803L451.781734,526.004612L454.567457,521.883456L456.115850,517.011536L456.118509,511.388926L457.977449,499.769172L473.110258,488.523398 " class="Federal"/><path d="M617.410960,299.773093L616.724587,290.033682L617.629683,288.528203L617.565630,280.284040L614.485666,276.932939L614.117367,268.691457L612.554239,263.830922L612.505882,257.461414L609.127786,254.486634L609.094323,249.990769L603.858725,242.906285L603.834433,239.534655L606.835452,233.146742L605.893844,229.406752L607.995511,225.272604L607.908501,213.661690L606.682609,212.545999L605.111035,205.814581L601.419420,200.220156L600.458549,193.485424L600.076514,182.628909L604.300333,178.484339L609.138206,175.458394L610.919762,170.205637L614.224034,165.691643L617.848497,163.421157L619.044009,161.167067L617.468038,154.066382L618.656686,151.064144L618.863180,139.461726L617.610222,134.605881L612.425045,130.524631L609.923904,120.813542L606.554800,115.971724L605.006394,111.492594L605.568353,105.878636L607.348696,101.379548L606.705534,96.521912L603.922998,88.686385L604.152891,79.337962L606.845634,75.956919L605.924625,74.093486L608.006140,69.968817 " class="Federal"/><path d="M100.702812,443.619806L116.650395,445.024605L125.533037,446.674228L130.985109,451.635464L138.911238,455.886275L146.585220,456.758254L149.978427,456.062221L159.493925,457.332705L161.905631,460.741312L168.578167,467.585114L173.721973,474.030091L176.805460,473.699928L177.395764,475.581862L182.927754,476.409835L185.600630,483.941200L187.414717,486.589292L197.184784,493.841808L203.644123,495.051566L208.884936,495.119556L214.112980,496.310144L219.680363,494.880560L222.164096,493.412062L228.943416,493.868166L231.690108,496.523623L236.913263,498.457764L240.923272,498.503280L243.059329,500.775634L253.263008,498.638299L261.884146,500.601917L268.343823,502.915394L272.057549,501.827484L292.117226,502.386836L294.889555,503.160339L298.256322,506.936745 " class="Federal"/><path d="M324.470948,512.387027L326.623760,513.901370L335.578997,514.711620L338.984385,513.609241L342.992530,515.133605L345.130487,519.644246L351.294165,523.053879L354.076339,523.069755L358.378336,528.340513 " class="Federal"/><path d="M360.852078,528.353788L367.021289,531.758554L369.478984,535.518389L369.771851,539.267421L374.101772,539.662792L387.699808,544.218469L391.716796,546.107762L395.110614,549.492957L407.799194,551.033559L410.892413,552.166693L419.563492,551.439650L429.471386,551.460627L434.732897,552.968714L441.855283,552.604096L444.330974,554.105970L448.356988,553.735316L454.861345,551.116979L463.840688,550.745428L485.827372,554.483463L492.953913,557.847743L506.904772,565.318271 " class="Federal"/><path d="M9.066656,80.741749L17.156022,82.024419L19.016614,79.820893L22.925646,79.897985 " class="Federal"/><path d="M94.794756,84.182595L104.119639,85.081255L110.719628,86.680643L116.483264,84.902498L119.174128,86.064925L120.114773,84.211168L125.296356,81.300888L134.297078,83.676659L138.826390,83.369062L142.691726,86.414115L150.224980,86.894468L150.427359,92.503064L156.088971,96.692986L161.823812,96.771244L165.710324,99.066198L173.270715,98.418273L176.610217,97.340063L180.499640,99.632650L184.762884,97.443436L188.131167,94.494783L195.087422,93.831903L199.275860,96.498632L203.526250,95.053262L204.767153,92.824759L211.686440,94.773040L215.030034,93.315197L220.779173,92.630811L222.012950,90.775052L225.038252,90.433746L228.697518,87.855785L233.325532,80.428053L245.991905,81.676095L251.477051,77.617123L254.500626,77.271778L257.266386,73.186034L257.940594,67.212542L265.017892,55.318560 " class="Federal"/><path d="M64.720424,81.800179L94.818147,83.062226 " class="Federal"/><path d="M738.410557,110.646931L740.246694,112.120243L745.652235,109.810197L763.491223,110.328894L766.506060,109.914904L793.996677,109.904143L807.259627,108.585092L809.092080,109.678549L818.456322,109.907253L821.511215,111.727972L827.856686,112.000265L829.697543,113.465592L858.059037,112.987298L860.759835,114.123467 " class="Federal"/><path d="M571.541815,823.167041L571.841086,819.806550L569.324521,816.834974L562.668526,795.217851L560.149612,790.749556L560.378042,768.336278L563.171076,763.464762L564.701756,755.609512L570.584238,743.617869L570.481889,719.691051L569.170804,704.738641L567.897377,698.386564L564.760402,693.165786L564.424273,687.181556L560.966050,678.967401L560.283805,664.001655L559.338645,661.012053L559.622850,654.273275L561.162481,650.522497L561.128925,642.286859L562.048985,639.287272L566.686048,633.647767L567.266425,624.283937L566.326616,622.416514L565.980276,614.179740L557.576326,608.603276L555.389182,604.868064L555.067187,601.873158L551.640135,598.142821L547.597808,595.538021L545.719564,590.676060L544.759214,582.063770 " class="Federal"/><path d="M559.647827,877.400984L560.131244,871.715943L561.693049,869.843985L561.356457,863.508029L563.229850,861.261102L563.211906,856.413789L565.395239,853.418788L566.938156,847.070167 " class="Federal"/><path d="M820.024421,503.391975L816.304881,501.959307 " class="Federal"/><path d="M891.659808,30.227316L885.310487,40.792605L885.480191,47.880792L883.695914,48.659990L883.687728,60.979158L870.761203,61.212707L853.133519,80.566457L841.472039,99.070167L832.571125,106.317426L830.806484,108.588622L829.705071,113.839252L826.489310,119.124476L821.907423,131.909191L815.704966,139.485970L815.616778,150.706740L809.740842,160.149703L802.489123,161.009455L798.304240,164.065547 " class="Federal"/><path d="M804.396535,489.054032L754.503323,489.457770L750.175253,488.395385L745.808276,484.335042L742.102009,483.636811L739.916899,481.418426L735.898254,480.348510L729.121248,480.438097L724.169499,478.628457L720.419199,474.179219L720.062087,470.061501L714.444379,463.760358L708.859427,460.080328L703.866295,454.142924L704.038610,442.147500L699.656872,435.451664L695.929435,432.120626L694.965891,428.383262L694.809209,414.141798L691.716465,412.301856L693.539118,410.407643L693.776054,404.032986L692.842441,402.918801L694.605734,395.777662L697.271043,387.127141L699.985135,382.973695L715.481014,346.064360L724.974548,322.715410L726.715178,315.574428L736.299597,257.386270L763.976879,196.365093L767.717127,183.588696L782.267822,183.009736L787.286603,175.078879 " class="Federal"/><path d="M22.949262,449.183804L36.417250,450.597748L48.619484,454.223634L56.532134,457.755998L61.685736,461.230392L69.319497,463.629056L70.820110,465.531105L75.120107,465.614981 " class="Federal"/><path d="M458.778762,39.761808L462.700793,36.026669L469.335193,35.279589L474.764102,37.146244L479.589507,37.143983L481.395487,33.033397L485.015669,34.898659L488.933351,33.027258L495.869389,33.766581L496.475018,35.260131L500.395138,35.254678L502.802813,33.009521L507.023009,32.628900L508.827427,30.757849L513.046888,30.376149L522.994716,30.353885L524.504435,31.097229L532.336519,29.581989L541.981841,29.552405L546.513286,31.778359L550.430205,31.390868L555.565964,33.612883L556.781511,35.475974L562.520098,37.320615L565.552230,40.296493L571.889448,41.015491L573.152711,50.350631L575.283324,53.330059L580.741870,57.414182L587.392295,58.874826L593.757904,62.577560L599.801308,63.290521L602.834667,65.141338L608.006140,69.968817L610.394600,66.589875L617.014440,63.930850L624.252258,63.134443L625.724205,59.013369L627.754050,50.031144L630.464898,49.638259 " class="Federal"/><path d="M14.499543,127.918112L18.363442,130.238460L24.083763,130.726724L24.587171,134.847790L33.016441,135.761444L35.368480,138.423685L41.102800,138.534358L45.044004,137.861947L47.510346,135.665819L51.770120,134.250545L61.227754,129.939319L69.044397,117.745625L72.101958,115.931076L83.034393,112.757440 " class="Federal"/><path d="M100.276879,37.965035L105.848491,30.214774L109.229739,26.535280L109.907143,22.813777L112.978731,19.502472L118.143471,16.595690L122.076436,15.162039L126.265197,15.970388L130.483680,15.285770L132.943654,12.336146L134.845651,7.139703L137.597110,4.567197L141.456726,6.860222L144.158552,6.897940L146.622717,3.574072L150.756738,7.361853L152.872141,6.644294L153.725482,9.267816L158.216842,10.074325L160.206725,16.445017L164.119366,16.123290L167.104796,17.281825L169.988584,24.411069L174.755216,27.085028L177.098844,30.847964L178.627551,29.373731L181.917834,30.534677L183.452297,28.686825L187.374627,27.987977L197.590803,28.856160L207.742846,34.199976L211.601219,37.977424 " class="Federal"/><path d="M211.896842,38.354155L214.585043,39.877637L223.312749,40.345176L227.483138,43.750459L245.841863,45.428496L249.694585,50.695196L256.583278,54.495455L263.824550,54.187126L265.017892,55.318560 " class="Federal"/><path d="M441.161009,357.279571L449.750964,357.663118L459.875114,358.793543L462.636228,360.293976L467.238913,360.669237L469.693470,359.169237L480.739500,359.539505L492.089807,357.653936L506.806180,352.756547L515.701778,353.112387L518.162249,355.730926L534.421013,356.059232L535.649269,356.430119L535.978017,362.802770L545.183140,362.770012 " class="Federal"/><path d="M617.410960,299.773093L619.268661,302.758127L643.169829,308.568809L646.533492,308.540445L650.491049,306.632499L658.738366,305.809650L661.202514,307.660954L677.102742,307.883375L680.497681,310.847301L686.314302,311.537088L695.484735,311.439673L702.869696,315.480384L723.964702,315.608183 " class="Federal"/><path d="M726.715178,315.574428L763.988033,315.081541L775.581287,314.165494L783.256626,316.673940L789.674770,316.951073L794.186052,312.760732L811.847302,310.231461L815.170117,308.304018L820.660678,308.212604L831.085509,311.031317L835.036311,310.213583L838.653264,307.902979L853.903294,308.002955L856.059115,309.086688L859.501412,313.516535L862.869762,314.202349L876.115749,320.688920L877.404969,324.033872L882.635082,326.177520L886.293743,326.104594L894.756716,322.563620 " class="Federal"/><path d="M723.964702,315.608183L726.409575,315.578197 " class="Federal"/><path d="M309.953725,599.949319L307.827548,593.565208L306.651117,584.566328 " class="Federal"/><path d="M73.673222,616.449091L82.440144,610.264733L91.167244,606.319677L94.308597,603.386604L98.328608,603.463159L103.954918,599.826674L110.478440,598.075878L110.887438,591.720889L112.491820,588.007226L117.495776,584.354229L124.724801,576.620789L131.253941,574.113005L138.102405,570.859368L147.709602,569.145673L149.585152,567.678323L157.023320,566.299117L166.250567,569.812313L174.637381,566.942985L183.308544,565.946339L188.560184,566.395750L190.189792,559.677565L190.240969,555.558503L194.332517,549.622639L198.372372,547.805056L209.183749,548.323305L215.708085,545.410402L223.492160,540.262926L232.806346,536.253922L237.132127,536.304397L241.176020,533.728128L249.864673,530.078057L255.167646,524.889439L260.440249,522.696462L267.249629,521.266848L271.903094,519.064452L283.029370,518.420408L290.158487,515.486662L293.271160,512.515804L300.085987,509.950282L307.230475,504.386603L311.864694,504.048106 " class="Federal"/><path d="M327.615409,503.788639L335.655904,501.968639L342.173156,496.387632L346.199255,494.163100L350.216534,493.437047L353.004775,491.578728L361.958615,491.252387L365.655944,492.770685L371.827175,493.550392L373.669947,495.808124L377.989802,496.577321L384.171517,495.104151L388.487732,496.995664 " class="Federal"/><path d="M617.193293,435.103221L620.268281,434.705384 " class="Federal"/><path d="M15.808000,611.056853L19.054603,610.775467L26.739778,612.821556L28.866424,614.739802L33.795632,615.598679L35.972624,614.899197L45.552446,615.109915 " class="Federal"/><path d="M94.818147,83.062226L94.794756,84.182595 " class="Federal"/><path d="M355.850050,734.236241L358.359208,731.259947 " class="Federal"/><path d="M287.166722,875.546614L287.181897,873.310746L284.393552,868.437936L279.457835,857.204812L280.161764,846.398787L277.100723,836.670474L275.252728,832.548134L271.590058,820.197930L274.447797,814.630544L275.129467,807.173349L277.415975,794.131433L281.528538,787.452062L284.348985,786.359685L288.450962,780.797799L293.475538,777.110362L298.163890,776.779804L304.719465,777.584874L306.288755,776.477908L307.254599,772.003830L318.872265,762.012364L323.250451,760.925486L333.589455,754.649370L335.496454,748.309634L340.505850,745.353900L347.067297,743.901653L353.959216,738.337185 " class="Federal"/><path d="M443.280767,674.322517L459.782501,664.978796L468.495635,665.354104L477.206277,659.736698L482.491817,654.866777L486.834608,641.385356L487.452251,636.891746L487.432722,615.546947L487.742189,614.423052L498.285503,604.670574L503.551229,598.293535L508.815309,592.663906L512.832369,585.162440L519.640010,579.150892L519.624884,572.781695 " class="Federal"/><path d="M367.109313,727.569228L371.202499,717.868188 " class="Federal"/><path d="M535.130332,576.105557L545.036386,572.696479L549.976216,567.805400L551.803441,559.554386L552.079833,550.934732L555.177001,551.295798L562.577168,544.516014L569.371228,541.483927L584.137740,525.661875L586.297730,524.899429L596.185573,524.087894L605.425199,518.778707L613.102346,511.602853L618.910540,502.939097L624.145648,501.024548L655.064238,471.522875L655.315782,465.148473L657.756968,462.501726L663.904113,460.943397L667.876209,457.530858L674.328409,455.966433L702.660311,456.405739L712.071017,445.050435L714.518632,443.896366L724.543678,433.652685L727.319558,434.366914L749.151288,434.825348L780.795622,434.361744L782.286016,431.341153L799.691698,425.069427L809.657682,415.163403L820.927514,410.475765L833.874530,397.136396L836.529758,391.469729L843.502702,387.597384L855.814792,375.008002 " class="Federal"/><path d="M855.508966,375.013755L855.433685,339.433247 " class="Federal"/><path d="M389.314147,809.868844L381.841235,798.262285L374.039715,792.997258L369.367164,788.118558L364.065255,784.728800L364.399197,779.501465L362.226787,775.753993L361.327087,766.782761L359.174221,758.923866L353.262812,754.031071L353.269676,752.536254L356.415234,747.322614L356.141777,738.723916 " class="State"/><path d="M798.304240,164.065547L797.536517,171.933674 " class="Federal"/><path d="M447.305715,49.843958L449.114338,52.087616L452.133696,50.968570L454.852101,47.980550L458.172331,46.487268L458.778762,39.761808 " class="Federal"/><path d="M22.925646,79.897985L27.436548,79.986099L30.990817,82.295538L36.122943,81.647022L39.486029,79.470114L44.865755,81.064961L49.662705,81.900926L56.369864,78.288791L64.720424,81.800179 " class="Federal"/><path d="M804.396535,489.054032L806.894583,491.259283L811.981674,501.285430L815.079173,502.355277 " class="Federal"/><path d="M815.079173,502.355277L816.304881,501.959307 " class="Federal"/><path d="M265.017892,55.318560L267.727838,55.715911L275.577522,55.035490L278.283950,55.805214L288.245527,55.137693 " class="Federal"/><path d="M31.258980,277.500638L33.649490,279.421031 " class="Federal"/><path d="M510.011707,569.807936L517.765420,572.786641L530.783595,573.497654L535.752529,576.852678L535.762948,580.224464 " class="Federal"/><path d="M311.864694,504.048106L314.669983,500.321505 " class="Federal"/><path d="M353.959216,738.337185L358.329393,737.988969L367.109313,727.569228 " class="Federal"/><path d="M371.202499,717.868188L374.965393,712.277075L387.772540,704.480022L396.196002,701.520547L399.638484,696.295745L407.116892,695.946406 " class="Federal"/><path d="M407.428453,695.947374L423.644784,687.759757L431.750110,682.911953L435.183020,677.304834L440.479059,674.318929L443.280767,674.322517 " class="Federal"/><path d="M396.151730,827.438292L396.484279,820.348853L393.361602,817.350858 " class="Federal"/><path d="M396.133396,834.154680L394.892669,829.672372L396.151730,827.438292 " class="Federal"/><path d="M298.256322,506.936745L297.918423,510.681681 " class="Federal"/><path d="M87.541568,99.380629L93.316653,97.235162 " class="Federal"/><path d="M739.738479,118.483320L742.043023,110.976515 " class="Federal"/><path d="M314.669983,500.321505L318.369589,501.098786L320.513104,503.738168L327.615409,503.788639L324.470948,512.387027L309.323969,513.772809L297.918423,510.681681 " class="Federal"/><path d="M474.329656,446.906948L469.091013,444.658658L455.226668,443.905889L447.525024,443.150326 " class="Interstate"/><path d="M221.640363,876.376062L221.655114,874.781838 " class="Federal"/><path d="M377.190283,876.957097L377.188027,877.626231 " class="Federal"/><path d="M287.759658,877.088506L287.166722,875.546614 " class="Federal"/><path d="M820.024421,503.391975L820.317895,503.475483 " class="Federal"/><path d="M901.090102,11.399756L901.384347,11.183692 " class="Federal"/><path d="M102.282232,770.245053L101.800429,770.521789 " class="Federal"/><path d="M28.794096,303.239983L30.091666,302.557648 " class="Federal"/><path d="M22.949262,449.183804L22.566595,449.134616 " class="Federal"/><path d="M13.809854,127.918824L14.499543,127.918112 " class="Federal"/><path d="M8.878427,80.737934L9.066656,80.741749 " class="Federal"/><path d="M29.540663,276.080405L31.258980,277.500638 " class="Federal"/><path d="M813.767788,25.192133L821.307532,26.570024L826.721673,26.859115L830.247427,23.071748L834.126879,21.890665L835.240282,17.768318L868.260721,17.962919L874.276494,18.603403L877.257695,17.804364L880.882748,18.858606L882.444733,21.441833L886.415457,24.354270L891.359822,30.232871L898.858813,30.092821L899.440101,29.335683L899.339267,13.297437L901.090102,11.399756 " class="Federal"/><path d="M693.845879,77.868670L695.910507,74.110420L709.095883,67.246857L715.128108,67.181738L721.105884,63.379182L731.362021,63.635842L733.790722,64.728326L739.402722,57.189918L742.421746,57.527170 " class="Federal"/></g>
<g class="map" id="airports"><circle cx="482.760089878" cy="448.362555595" id="Little Rock National" class="Airport" r="10"/></g>
<g class="map" id="cities"><circle cx="830.063075295" cy="112.410386789" class="city" data-lat="36.0570872183" data-lon="-90.5028843605" id="Paragould" r="15"/><circle cx="790.368091008" cy="166.679692927" class="city" data-lat="35.8425783478" data-lon="-90.7041640643" id="Jonesboro" r="15"/><circle cx="103.603278622" cy="767.01733538" class="city" data-lat="33.442104715" data-lon="-94.0374748146" id="Texarkana" r="15"/><circle cx="527.951241001" cy="573.564133788" class="city" data-lat="34.2286975291" data-lon="-92.0030511899" id="Pine Bluff" r="15"/><circle cx="310.394361681" cy="504.052791027" class="city" data-lat="34.5039520457" data-lon="-93.0550024839" id="Hot Springs" r="15"/><circle cx="38.1297816781" cy="279.105691459" class="city" data-lat="35.3862237742" data-lon="-94.3983571795" id="Fort Smith" r="15"/><circle cx="90.622315339" cy="110.737933226" class="city" data-lat="36.0629783315" data-lon="-94.1572091082" id="Fayetteville" r="15"/><circle cx="435.339947387" cy="357.344752343" class="city" data-lat="35.0912805369" data-lon="-92.4513184018" id="Conway" r="15"/><circle cx="390.438772175" cy="827.380329388" class="city" data-lat="33.2139274282" data-lon="-92.6625199806" id="El Dorado" r="15"/><circle cx="459.983420978" cy="446.448962164" class="city" data-lat="34.7360825796" data-lon="-92.3310931821" id="Little Rock" r="15"/></g>
</svg>