<?xml version="1.0" encoding="utf-8"?><!DOCTYPE svg  PUBLIC '-//W3C//DTD SVG 1.1//EN'  'http://www.w3.org/Graphics/SVG/1.1/DTD/svg11.dtd'>
<svg xmlns="http://www.w3.org/2000/svg" version="1.1" style="fill:none;" width="100%" height="100%" viewbox="-50 -50 1100 828">
<!--svg enable_background="new 0 0 1000 728" height="728px" pretty_print="False" style="stroke-linejoin: round; stroke:#000; fill: none;" version="1.1" viewBox="0 0 1000 728" width="1000px" xmlns="http://www.w3.org/2000/svg" xmlns:xlink="http://www.w3.org/1999/xlink"-->

<defs><style type="text/css"><![CDATA[path { fill-rule: evenodd; }]]></style></defs><metadata><views><view h="728.033220744" padding="0" w="1000"><proj dist="1.3" id="satellite" lat0="39.1" lon0="-105.3" tilt="0" up="0"/><bbox h="195.3" w="268.62" x="856.45" y="905.95"/></view></views></metadata>
<g class="map" id="states"><path d="M999.312274,716.436512L997.698700,666.429473L995.470392,599.623161L993.736951,549.440094L987.619749,381.810112L985.689183,331.481811L983.039015,264.369789L980.309246,197.305825L979.617602,180.544506L979.178393,169.379302L977.412979,124.750380L973.302375,24.502345L972.360934,2.268871L931.726179,3.466176L851.755133,5.477165L803.663099,6.459328L739.419862,7.528606L702.923564,7.995508L686.049947,8.185650L643.584681,8.575390L622.339776,8.722724L558.602106,8.974247L537.348961,8.994620L494.843299,8.940118L473.589664,8.865233L409.871684,8.450311L367.416588,8.015156L303.797672,7.125014L282.621267,6.765246L219.157361,5.496617L198.032482,5.010830L134.762154,3.365348L113.719098,2.754571L50.706647,0.735096L29.752543,0.000000L24.490808,111.251618L23.471773,133.545312L16.622121,289.801346L15.686633,312.138368L12.050902,401.500674L9.423334,468.506774L6.092315,557.721356L3.710232,624.522211L0.687726,713.375284L27.348811,714.614685L107.542050,717.953207L134.340917,718.939187L214.922544,721.514909L241.840200,722.245696L322.704080,724.052399L349.693340,724.525935L430.749603,725.559669L457.790839,725.775081L538.921007,726.033221L565.966497,725.989923L620.047954,725.709337L647.090179,725.471984L728.131149,724.372666L755.115052,723.877300L835.962080,722.005177L862.868067,721.252767L915.553946,719.591616L933.095984,718.983203L985.633460,716.995083L999.312274,716.436512Z " id="Colorado" class="neighbor"/><path d="M0.687726,713.375284L3.710232,624.522211L6.092315,557.721356L9.423334,468.506774L12.050902,401.500674L15.686633,312.138368L16.622121,289.801346L23.471773,133.545312L24.490808,111.251618L29.752543,0.000000L0.000000,0.000000L0.000000,713.341243L0.687726,713.375284Z " id="Utah" class="neighbor"/><path d="M979.617602,180.544506L980.309246,197.305825L983.039015,264.369789L985.689183,331.481811L987.619749,381.810112L993.736951,549.440094L995.470392,599.623161L997.698700,666.429473L999.312274,716.436512L1000.000000,716.406864L1000.000000,179.834518L979.617602,180.544506Z " id="Kansas" class="neighbor"/><path d="M702.923564,7.995508L739.419862,7.528606L803.663099,6.459328L851.755133,5.477165L931.726179,3.466176L972.360934,2.268871L973.302375,24.502345L977.412979,124.750380L979.178393,169.379302L979.617602,180.544506L1000.000000,179.834518L1000.000000,0.000000L702.832805,0.000000L702.923564,7.995508Z " id="Nebraska" class="neighbor"/></g>
<g class="map" id="CO"><path d="M999.312274,716.436512L997.698700,666.429473L995.470392,599.623161L993.736951,549.440094L987.619749,381.810112L985.689183,331.481811L983.039015,264.369789L980.309246,197.305825L979.617602,180.544506L979.178393,169.379302L977.412979,124.750380L973.302375,24.502345L972.360934,2.268871L931.726179,3.466176L851.755133,5.477165L803.663099,6.459328L739.419862,7.528606L702.923564,7.995508L686.049947,8.185650L643.584681,8.575390L622.339776,8.722724L558.602106,8.974247L537.348961,8.994620L494.843299,8.940118L473.589664,8.865233L409.871684,8.450311L367.416588,8.015156L303.797672,7.125014L282.621267,6.765246L219.157361,5.496617L198.032482,5.010830L134.762154,3.365348L113.719098,2.754571L50.706647,0.735096L29.752543,0.000000L24.490808,111.251618L23.471773,133.545312L16.622121,289.801346L15.686633,312.138368L12.050902,401.500674L9.423334,468.506774L6.092315,557.721356L3.710232,624.522211L0.687726,713.375284L27.348811,714.614685L107.542050,717.953207L134.340917,718.939187L214.922544,721.514909L241.840200,722.245696L322.704080,724.052399L349.693340,724.525935L430.749603,725.559669L457.790839,725.775081L538.921007,726.033221L565.966497,725.989923L620.047954,725.709337L647.090179,725.471984L728.131149,724.372666L755.115052,723.877300L835.962080,722.005177L862.868067,721.252767L915.553946,719.591616L933.095984,718.983203L985.633460,716.995083L999.312274,716.436512Z " id="Colorado" class="state"/></g>
<g class="map" id="uzones"><path d="M571.746085,79.567354L570.611670,76.490245L567.958792,72.007740L563.045751,71.617227L561.337045,74.412679L558.037149,76.279540L555.870573,79.991359L553.353164,79.820690L552.206273,82.891066L552.127280,89.665793L551.341522,91.944160L553.635584,93.624098L560.445107,93.919692L560.453372,95.908655L563.483320,97.891694L568.900670,96.021387L569.968329,95.109105L571.053082,91.903089L575.024383,85.472245L575.565107,83.926260L571.746085,79.567354Z " class="urban"/><path d="M330.078759,96.659948L326.922689,97.961546L322.461095,97.164827L319.386405,100.567597L328.495809,101.042434L331.563714,102.398505L331.426238,98.477444L330.078759,96.659948Z " class="urban"/><path d="M567.439958,117.521472L570.212407,113.654778L570.515148,112.443658L567.067390,105.274538L564.655812,104.349563L556.802942,111.926085L556.126151,113.367270L556.307775,117.337228L558.983444,119.784275L558.993223,121.778083L561.885448,122.039399L565.063190,117.784461L567.439958,117.521472Z " class="urban"/><path d="M619.755232,121.533238L620.737477,113.137573L609.151706,106.819543L606.027497,113.651087L615.697103,120.389185L619.755232,121.533238Z " class="urban"/><path d="M739.608821,143.689345L743.011440,138.101459L739.814634,137.773999L737.204985,136.767846L735.221309,136.972114L733.923585,140.236282L737.892380,143.560956L739.608821,143.689345Z " class="urban"/><path d="M566.684007,153.612757L565.257531,150.601048L563.334007,148.517409L559.051082,145.654968L557.511246,143.672155L553.923254,150.919328L552.866201,155.517171L552.973150,161.611937L555.868523,163.481531L558.755584,163.599679L566.588873,160.408998L567.544798,159.483026L566.684007,153.612757Z " class="urban"/><path d="M180.387858,148.937309L183.631929,145.110641L181.704071,143.515929L179.238184,143.070383L177.918391,148.499617L180.387858,148.937309Z " class="urban"/><path d="M603.481142,193.320408L603.462436,189.339605L602.237993,187.749037L599.828567,182.580631L603.481142,193.320408Z " class="urban"/><path d="M620.404365,207.172976L620.371389,203.194217L618.956330,202.778348L612.408049,213.050371L614.364248,219.196620L616.080433,219.076564L620.461423,215.160937L623.766108,213.249425L625.007762,209.140225L624.598816,207.583271L620.404365,207.172976Z " class="urban"/><path d="M364.235010,254.326840L366.843516,253.745213L367.561508,246.488466L362.792184,242.224274L362.873411,244.572664L364.200989,250.226940L361.088419,252.152008L361.085743,254.179207L364.235010,254.326840Z " class="urban"/><path d="M431.717647,254.926884L431.137542,251.230309L429.708069,248.616549L427.374821,247.139100L424.111408,246.870945L424.078065,251.363239L425.508629,253.969563L428.145924,255.047013L431.717647,254.926884Z " class="urban"/><path d="M256.606601,261.877339L256.677172,260.329969L248.975958,262.152731L249.017947,260.164007L247.772975,259.851887L244.327013,264.077744L245.444089,265.241515L251.154067,267.568522L252.270550,271.200483L253.331430,272.248633L256.387033,268.682777L257.771596,265.951144L256.606601,261.877339Z " class="urban"/><path d="M596.402958,301.078969L597.587187,298.473114L597.865575,295.197679L597.004088,292.368809L594.798742,291.105217L593.607944,297.323821L596.402958,301.078969Z " class="urban"/><path d="M322.943110,332.467945L324.514540,329.430514L322.759272,328.193170L318.626605,326.527782L316.859449,325.310716L317.701895,329.520171L320.201780,332.196828L322.943110,332.467945Z " class="urban"/><path d="M84.737736,338.365138L72.498839,336.048934L68.648608,337.155734L66.758525,341.232132L70.242952,342.590099L71.703830,344.631097L76.778674,349.883072L80.002922,351.343123L82.141425,352.978435L82.800767,350.802055L88.486571,347.220573L93.339304,346.109155L94.823773,341.464680L91.481275,341.876470L84.737736,338.365138Z " class="urban"/><path d="M605.086291,372.158372L601.166299,368.047196L597.075797,366.528761L594.805502,366.324804L590.831738,370.281076L590.786095,377.181123L590.163789,391.043743L591.987823,396.105759L595.556669,399.850385L597.201770,404.446687L607.066835,413.112886L607.843005,414.774754L615.644615,416.722000L617.191441,414.716444L615.626421,412.718635L614.036243,406.750843L618.888719,401.431850L620.170741,392.735867L618.950960,390.274031L617.030744,388.761368L617.107025,385.620404L615.288578,384.019099L615.566600,381.608353L613.642012,380.206431L612.266928,376.940019L613.827214,372.822861L613.362111,369.392613L612.238885,366.842602L609.732662,367.132751L608.049555,371.922295L606.065659,372.861161L605.086291,372.158372Z " class="urban"/><path d="M419.830697,396.758987L422.754778,396.621630L422.211443,392.324102L419.363935,390.752936L416.691071,391.051978L416.831704,395.765405L419.830697,396.758987Z " class="urban"/><path d="M436.973172,451.762367L439.139487,450.630425L442.366989,447.234657L442.641711,444.570268L434.848209,444.509642L435.286223,450.264573L436.973172,451.762367Z " class="urban"/><path d="M174.629922,457.565834L174.634126,453.233932L167.080572,449.369339L167.565364,453.112489L169.308218,455.349242L174.629922,457.565834Z " class="urban"/><path d="M534.130549,461.561838L532.231987,463.142460L534.120844,467.064270L535.715476,469.212571L550.314430,464.839467L542.558913,462.182084L534.691703,462.854899L534.130549,461.561838Z " class="urban"/><path d="M564.541312,475.430086L559.811643,472.931704L556.580858,474.803470L557.535308,478.667869L561.062804,484.181463L562.852174,484.773359L563.744794,481.094619L564.541312,475.430086Z " class="urban"/><path d="M636.036730,483.832599L636.374256,482.377338L628.554598,482.440513L628.563551,484.424898L626.034484,484.247526L625.284764,485.212531L625.460646,488.441297L622.356022,492.456799L622.380560,496.441499L617.686164,496.483537L617.918004,499.557306L620.874471,504.428865L622.456639,508.404747L639.366497,498.554726L639.401898,494.700960L635.916614,490.585794L634.856557,488.367796L634.827549,484.391143L636.036730,483.832599Z " class="urban"/><path d="M164.625577,659.669380L161.810553,657.844184L158.505168,661.750698L156.830698,665.670289L160.184156,664.321102L160.753560,666.730131L161.359031,673.740913L163.446624,674.532038L170.998805,675.053645L175.628493,670.235387L176.924624,670.368139L177.884576,668.386671L177.435288,660.372276L172.455083,658.669014L166.413967,660.018518L164.625577,659.669380Z " class="urban"/><path d="M463.318702,683.579122L465.151216,677.423419L462.969495,674.566215L458.986775,674.202915L455.349598,677.705558L458.575656,679.574584L461.390473,683.519149L463.318702,683.579122Z " class="urban"/><path d="M650.234665,697.091771L653.728200,695.072935L652.371593,690.765635L649.976367,686.662745L643.514170,684.190035L642.572670,689.225091L640.147865,690.149331L642.404121,695.328625L650.234665,697.091771Z " class="urban"/><path d="M165.217360,695.697661L167.322924,694.923479L166.077135,689.683496L163.967495,690.462060L162.703122,692.356968L162.422943,695.562428L165.217360,695.697661Z " class="urban"/><path d="M161.912061,719.820475L161.751353,719.432356L159.255047,717.576336L157.479288,719.678785L161.912061,719.820475Z " class="urban"/><path d="M548.709173,174.691255L548.413991,171.563593L538.810700,174.828823L535.973385,175.525334L533.311799,173.699208L531.381250,173.929325L530.935351,175.228387L528.724960,176.479829L527.837930,178.749606L527.034896,185.529265L530.152013,187.243643L532.571992,187.878961L536.949611,191.186112L541.343863,192.940275L544.519112,190.174944L546.910379,189.522006L548.068708,191.987945L549.964653,193.487834L549.873959,196.629291L552.371513,198.941032L554.199525,202.272294L554.984086,208.636157L556.003598,211.486851L554.200970,212.848201L550.487582,214.044891L548.742024,215.905022L545.075579,226.337416L543.313459,228.448860L541.239941,229.194427L537.822510,231.545352L543.968776,235.812372L550.925786,248.887411L551.319504,252.635097L553.924440,254.752214L558.082360,264.888340L566.991732,267.275806L571.364378,271.881104L575.982568,271.744438L578.941845,270.573439L581.154261,271.266562L583.944924,273.189413L586.893484,273.415215L591.629341,271.174289L593.179927,273.151631L597.751563,265.150317L602.356133,265.127068L601.268692,267.425050L601.298549,272.816418L607.620773,274.831204L609.355157,273.593579L610.093697,271.062819L608.872645,270.159296L606.982625,265.089568L601.603693,263.160990L600.812424,261.149553L603.350541,259.461584L613.085894,257.086524L612.335813,252.912939L609.332643,246.813570L608.394833,243.152676L609.914512,243.144003L612.137367,236.528903L611.471161,233.173400L609.831572,229.182727L609.162160,222.654018L602.569675,223.357173L600.237642,222.515715L600.196618,221.194678L597.805665,217.739513L595.730503,216.948971L592.157529,216.855954L591.372093,215.309962L594.355826,201.345098L593.162532,200.113568L588.243883,201.360515L581.256376,197.575948L579.664717,194.590889L575.257855,193.333284L572.906164,193.427907L571.376582,195.435668L566.791813,193.444253L563.575584,195.554588L561.893846,195.785325L560.689642,193.465447L561.535689,191.599906L565.253804,187.483837L564.473017,187.003132L563.710906,183.495832L561.481337,181.928157L551.484863,181.523412L548.709173,174.691255Z " class="urban"/></g>
<g class="map" id="lakes"><path d="M464.102639,156.559606L459.961457,153.898483L458.020570,151.407193L455.510607,149.651275L454.271790,150.805004L454.192555,153.443282L455.102009,156.140318L457.027199,157.998798L462.061054,160.138028L465.838379,163.324920L466.912720,162.696890L467.025596,160.691577L465.849382,158.152030L464.102639,156.559606Z " class="Lake"/></g>
<g class="map" id="rivers"><path d="M233.109205,583.426273L236.789034,586.789160L238.759408,587.741767L254.964728,587.898894L262.187505,589.029896L264.371578,588.861946L270.939963,587.154419L273.825245,587.044058L283.824897,590.342276L287.345146,591.254415L290.593759,591.220448L293.400254,589.705394L295.582232,586.195781L297.794374,578.271433L298.941079,576.035965L300.767822,574.433030L302.841162,573.949339L310.967226,575.395772L318.077957,579.914610L322.384284,581.566648L325.722239,583.360261L328.328886,586.436866L329.277978,589.862703L331.377388,592.681750L346.207535,603.439001L364.652425,603.393332L374.439223,604.754749L377.762298,604.435529L384.135135,602.851099L387.550781,602.493802L393.686989,603.843832L399.651202,607.147984L409.821989,614.973348L415.730225,618.501110L439.665207,625.535396L443.579955,625.901496L447.248276,626.912412L451.326342,630.349371L454.847983,632.084727L458.790850,637.781372L464.240713,644.023521L466.313416,646.961147L469.532150,654.604466L470.123041,658.899571L474.258479,672.302692L474.220440,676.148374L471.014060,682.236932L471.456824,687.711696L473.041996,689.478787L471.762397,692.705130L469.313906,711.582081L468.111026,715.408270L468.821081,718.272366L473.684435,723.829800L473.572019,725.825294 " class="River"/><path d="M383.976138,326.767046L386.107018,334.100324L393.848275,346.547087L396.896224,352.895269L398.768915,360.195012L400.306244,362.908374L403.053002,363.989757L405.720472,366.239164L407.917244,371.421464L415.732406,399.263213L416.669039,409.042949L417.965792,411.189047L424.290703,419.241349L426.329704,427.867297L426.435884,430.951762L423.452228,439.824648L423.317483,442.994284L426.366721,445.885380L464.178440,472.050012L473.609639,480.697486L476.027838,480.570557L488.955524,472.883299L493.319927,468.735070L495.712058,466.975060L498.250188,466.047765L503.433328,467.099319L505.638199,466.571423L510.951496,462.352919L515.050192,461.205776L523.334849,461.712824L524.770725,462.196206L532.122953,467.109012L535.328615,468.007712L538.648988,468.233450L547.303539,466.927003L553.065356,469.352127L561.607939,469.730490L576.895107,473.806554L579.092097,474.938165L582.544859,478.014641L592.000881,490.053152L596.774509,493.439741L605.712441,496.479087L609.264561,500.049969L613.594358,500.840083L631.099731,500.573822L654.877387,498.563986L669.337885,499.900314L676.542827,499.766516L679.237259,500.880557L686.769761,508.210989L690.717017,510.393698L707.178449,514.692960L726.469178,519.091438L746.225357,520.896124L752.862642,522.906932L758.874224,525.902941L773.328294,537.319768L777.836017,539.532511L782.834894,540.566576L788.511885,540.359204L793.099489,538.969967L798.374654,534.837145L803.311571,532.422920L805.262094,530.701892L808.564044,528.964142L824.117867,525.571091L827.747163,526.619751L833.715075,525.334328L841.195490,527.119846L843.870393,526.409291L871.876092,525.649638L877.807385,523.119126L880.970777,522.743420L884.293052,523.958098L887.179933,522.146018L890.342757,521.804293L897.247008,522.354014L900.521340,520.191904L908.272235,520.687327L920.214725,517.961014L929.884116,518.926338L952.609184,517.596902L959.215839,518.979740L969.093554,524.112846L972.744762,525.361902L975.524049,527.704913L977.140860,528.205190L984.345283,527.934068L992.995180,529.113303 " class="River"/><path d="M459.769884,115.354668L458.512396,119.539231L459.514231,126.069709L460.806768,142.834719L463.675854,149.327319L464.407088,152.840052L463.610569,156.199173 M457.312509,158.258633L454.112957,162.384288L451.462466,160.617097L448.175561,161.187487L444.911242,163.114367L442.340820,165.431994L440.026122,166.430236L430.569336,167.236223L421.655232,172.425667L418.748438,173.137986L405.125097,171.911832L385.670267,173.374023L379.692282,175.196257L377.031896,176.953021L369.668800,185.606693L367.358547,187.657907L361.733183,191.505398L359.566249,193.549893L352.456984,205.789970L348.210064,209.191088L343.510374,205.561992L340.825118,201.450187L337.929142,198.685278L334.622582,198.103201L329.004048,201.812628L327.179513,202.499509L321.107830,202.957948L312.819719,204.989589L309.735601,208.594086L308.504428,212.667651L306.426303,216.215737L299.804015,223.245580L297.295967,229.332392L292.465689,233.748404L290.024333,241.543752L287.076773,246.847131L282.533002,250.564060L259.413757,260.171344L253.021139,260.903188L235.507606,258.504483L230.161816,258.781806L224.637594,259.913876L214.781773,262.433623L211.487071,262.359265L204.886302,260.821152L198.345196,260.266491L192.115436,258.483605L189.234271,258.954491L186.509000,260.428513L184.095459,262.727550L179.387354,268.553189L167.527015,271.512260L161.966590,274.351470L132.630292,297.832680L124.847333,307.491179L123.574841,310.338764L123.562612,317.851752L122.727928,320.005774L118.761284,325.478389L114.272209,333.404667L113.313193,335.867267L111.921526,337.308675L97.020156,345.048256L90.846670,346.064146L84.456887,345.588797L78.061100,343.936074L72.615168,341.119531L55.430625,326.524271L43.109045,323.462868L34.714080,318.935619L32.050161,318.822629L23.995655,326.397836L22.634661,328.768884L19.672676,330.185353L14.902878,331.402221 " class="River"/><path d="M380.034488,110.541685L379.065155,107.995047L378.396942,103.819974L378.729662,99.918943L382.951561,96.717161L384.780233,93.189872L388.077447,81.777080L388.127608,76.819319L385.769362,71.945897L381.681523,68.291283L380.963319,66.667613L385.475194,60.392452L386.493592,53.090863L389.074971,46.898138L389.953295,41.575892L393.383382,29.751152L395.012276,26.634139L395.215614,25.007884L394.386807,16.896111L394.256177,8.290255 " class="River"/><path d="M28.565010,25.108641L29.431666,25.140213L34.425162,27.429658L38.729677,28.547615L41.504248,30.226674L46.306144,34.253734L48.012065,36.344246L50.886287,41.239276L52.403271,43.098453L49.593398,50.604464L39.140514,70.628470L37.707094,77.793627L36.638745,79.831586L34.048685,81.465375L31.354173,81.076081L26.002037,79.298907 " class="River"/><path d="M321.450499,647.462548L318.242846,647.686546L311.120502,651.041209L306.128999,655.698155L301.841405,660.729601L294.461942,672.444078L293.324703,675.594820L291.256948,683.453321L287.828471,689.275869L286.728944,692.126985L285.122729,699.169081L283.687533,701.924283L279.204862,707.331641L278.232648,709.355571L268.277705,717.046307L262.529159,716.909465L258.752500,718.906275L257.006699,719.197053L242.901004,716.420050L237.033872,717.593852L233.788733,722.027107 M8.391748,713.733423L7.306160,711.683306L1.021151,703.573553 " class="River"/><path d="M433.308807,324.081221L439.054034,327.648545L441.712103,330.299561L443.799650,338.413639L446.164003,342.238632L451.287154,347.528957L475.092348,363.715659L499.916028,376.074388L504.944928,379.493666L509.531893,383.450991L515.009802,379.505898L519.768950,374.855752L523.707477,368.953000L526.717744,361.293909L531.237515,339.276731L534.349578,332.960921L546.180752,316.200404L551.084163,302.072359L552.044811,298.058150L555.741483,289.347229L557.170406,286.625840L556.201330,281.321331L562.340224,271.735545L563.303979,269.277936L568.147116,261.805096L569.155095,259.763686L569.902380,255.377384L572.357916,246.843597L570.361010,243.188833L569.757238,240.626087L569.333626,234.264058L570.338677,232.128223L580.894204,220.298357L582.537570,217.276008L583.845584,213.429581L588.700801,208.064825L594.296211,199.351252L593.708104,196.097463L594.271214,194.517900L597.536793,189.538343L599.070927,181.647111L599.354870,178.448691L599.137250,171.618318L599.386414,168.267401L600.298008,165.526429L599.034962,161.482748L598.479508,158.048784L598.341397,151.395766L597.450961,147.796251L593.891483,142.290606L593.509274,138.521512L594.525221,135.731116L601.684050,128.332521L604.649043,127.078020L607.336350,124.329784L612.186645,122.400160L620.067860,117.016858L624.163013,115.940951L625.867126,114.923790L628.838640,110.690904L630.843288,110.516607L634.578756,111.255046L637.698727,112.696787L643.032757,116.518404L649.351080,117.873493L652.508724,119.413707L658.102164,123.395221L662.335276,127.795782L664.940517,129.812394L667.988869,130.650400L683.068918,130.676216L689.141486,131.264609L692.555481,129.548618L697.293921,128.355521L705.851759,122.878510L712.309201,122.482386L718.068387,125.299435L729.517413,133.580592L735.347681,135.573037L741.956113,136.260798L748.654736,135.850480L754.722218,134.514173L760.873454,131.934881L776.886356,120.466398L782.419885,118.035601L784.038780,112.579305L788.574152,110.660261L795.148632,101.805183L799.730485,99.387392L804.733738,93.072768L808.674357,89.850316L813.340319,83.119457L818.293342,78.347138L820.472720,75.552141L822.151143,69.537897L826.654818,64.716270L828.514895,61.957260L830.348154,54.073230L831.907868,50.935966L838.026085,48.848846L852.522541,38.759842L862.558314,32.731508L868.367875,30.459120L874.900332,30.302082L879.454652,28.092243L896.715724,22.343348L901.461506,19.048476L922.428500,12.695905L927.005611,9.892395L934.011500,11.247799L936.903737,11.397584L939.669678,9.983743L945.239421,5.978981L948.197132,5.087690L950.315597,2.918438 " class="River"/><path d="M933.962054,255.440034L952.956855,245.368849L964.712076,243.694170L980.868543,238.360153L981.956308,237.770244 " class="River"/></g><g class="map" id="roads"><path d="M755.594513,316.539884L749.626163,319.759933L740.150614,329.894692L734.898398,333.408807L720.431413,334.564485L715.138220,335.888386L711.314306,338.749118L710.633336,341.877366L700.710856,340.763894L696.619402,342.064482L689.215574,349.330904L686.313670,349.366094L682.235129,352.221652L668.560275,363.291709L663.481022,363.968655L652.330779,363.142190L647.742510,364.744041L629.204401,380.807012L621.522572,393.028738L613.308771,400.257988L603.345222,400.317146 " class="Federal"/><path d="M822.847003,71.208598L837.584218,59.410630L849.924494,47.347775L854.064151,44.462342L894.614985,29.837294L918.240799,16.820557L936.806861,13.824918L948.178109,6.376393L951.360629,2.887646 " class="Interstate"/><path d="M578.154738,220.139128L591.513905,208.867162L600.814170,203.214114L621.899415,176.921021L631.129786,168.136747L641.376457,167.747636L650.109045,159.267765L654.855152,157.669399L668.176034,156.609782L685.908689,147.706266L689.929261,146.104396L702.965398,143.458522L708.386957,140.589227L721.465113,141.348474L725.481098,140.047780L729.463364,136.879668L731.583104,135.915657L762.917644,136.357129L768.583240,135.016213L773.746012,132.437808L787.035333,122.557019L799.105607,112.379883L809.928699,100.667596L821.905499,71.228179 " class="Interstate"/><path d="M982.264985,528.937196L950.090794,527.000635L934.650823,523.489898L912.996823,524.509152 " class="Federal"/><path d="M992.976456,528.600221L992.462887,528.547530L982.264985,528.937196 " class="Federal"/><path d="M630.972665,491.491345L637.835800,493.304403L640.804893,497.641182L650.845040,498.483347L657.204004,498.108782L675.592733,501.957990L679.282170,503.783439L688.176166,511.460724L693.355443,514.819469L719.407852,522.542731L731.915544,523.899776L739.535865,525.950919L759.494613,533.996082L773.854999,543.363094L780.999946,545.706112L784.913002,545.313131L788.992790,540.559546L797.023815,537.895920L800.612412,533.460190L803.279160,532.155706L828.142107,528.146669L843.148899,521.545483L898.716745,519.046167 " class="Federal"/><path d="M291.408490,675.622427L293.114253,677.208598L295.948154,685.947057L299.382496,687.877793L301.567413,690.711639L301.004149,695.347868L303.433731,698.495538L302.853159,704.369140L303.816780,706.247046L307.496458,708.798799L315.146332,711.117065L317.111867,712.393582L315.318137,716.693857L322.072222,724.038282 " class="Federal"/><path d="M23.631014,130.061546L27.447693,135.293742L32.539801,137.036760L37.924301,137.547458L43.613137,136.515266L48.390001,134.826755L68.125302,135.525870L74.536685,134.194306L83.633764,136.365067L93.351567,128.924226L100.017099,121.067842L106.286272,117.231567L117.960999,113.559019L119.276196,109.873921L122.448059,106.866053L125.985672,106.662190L130.824028,103.081259L132.806315,100.346074L155.295186,89.813528L162.711707,93.120617L167.508833,90.456006L172.723587,89.352739L183.318433,89.317276L184.103769,86.853793L186.015263,85.971069L191.867118,87.049406L194.162171,88.969189L200.696036,90.992397L207.968226,92.098729L221.187958,91.474842L231.235853,94.806122L235.025487,94.268030L241.020751,90.670021L244.102281,90.114191L245.963958,91.085165L251.023688,96.160628L256.647782,97.828933L276.959853,97.914057L292.036711,100.052925L299.362999,100.180277L306.480093,99.057043L314.355927,95.455918L317.434599,95.194022L320.246627,96.481217L322.326198,98.999887L323.431016,103.057749L326.205156,106.519670L329.536352,118.385348L331.617562,121.215346L335.635375,121.896494L340.920512,117.929379L344.254070,117.043199L357.041579,117.837133L360.800240,120.062582L375.038861,136.102817L380.110479,147.364988L379.770579,154.831656L380.671616,158.577660L379.673016,161.990869L377.993749,162.905493L378.214742,164.153452L382.388871,172.608565L385.207946,175.754391L390.436753,177.057314L408.092526,176.300982L410.470476,176.946090L414.492308,180.097391L417.113368,180.432088L419.747093,179.520443L426.724335,173.348920L429.838571,171.816277L441.773676,170.346612L445.819874,171.308243L447.224563,174.743563L446.919612,183.463595L449.759096,186.908744L459.062331,188.522179L462.159591,189.785536L463.550937,196.647861L466.161911,199.777600L471.363096,210.710907L472.538324,214.768310L472.049561,216.636189L467.683028,226.589879L464.554786,228.755878L465.261075,230.941849L475.333141,230.367332L483.478895,231.648365 " class="Federal"/><path d="M291.408490,675.622427L295.414261,672.296278L297.181451,669.852366L299.512611,662.767265L305.265933,657.920135L306.797620,654.537760L307.350809,650.514904L308.383621,647.431921L310.416563,643.436799L309.228903,640.309739L316.443834,636.101704L318.909887,636.147847L323.076656,638.087426L325.058562,637.502501L325.577453,635.648999L324.616610,633.768677L324.222462,626.619231L324.745602,624.454636L330.523755,616.480947L335.993144,612.847029L341.746983,606.107012L346.707210,603.390536L351.404639,601.910835L377.759190,601.982158L387.108002,603.346918L394.438711,609.964589L398.862146,611.570798L400.310931,615.006283L404.946082,620.963075L416.045227,621.702558L424.653753,625.826302L443.841721,637.796973L452.964001,641.902459L480.899201,642.686207L490.792795,641.795811L504.629136,647.430104L512.048460,648.688999L519.470023,649.011471L522.687441,647.462385L525.162903,644.669428L529.864442,637.217196L533.820012,632.868520L535.549416,625.410841L543.945149,620.745113L549.373531,616.387790L552.344530,623.532329L559.018708,626.938539L561.241495,626.622860L570.389697,630.016219L582.242354,627.798336L592.103106,622.470693L599.006332,619.948121L604.662582,615.253138L609.351548,615.223952L610.579128,613.972647 " class="Federal"/><path d="M173.503554,456.301469L174.633504,459.447757L175.221602,464.756718L179.379472,472.971642L183.356722,479.001074L186.342742,485.934179L187.544722,496.237758L190.508543,504.412601L189.670913,508.744104L189.495388,515.893861L196.472465,530.089759L202.010205,543.928249L201.169247,548.568291L199.853744,552.572611L194.086918,558.624664L193.524957,561.716387L191.021336,564.129907L191.630563,569.430235L191.082894,571.899960L192.751919,573.812766L199.302584,576.486947L198.159879,583.599509L196.871352,586.358054L190.632924,591.145748L188.428311,591.080721L187.225469,590.113422L184.911394,594.702386L182.292704,601.764551L178.572470,603.514074L177.518086,606.585801L176.204950,620.509942L177.897759,632.040043L177.759950,637.928300L176.690467,641.616166L172.650331,646.140418L171.448621,655.401333L167.614501,661.476735L167.171433,669.826966L165.875567,672.572795 " class="Federal"/><path d="M170.589445,681.704873L170.436355,677.674467L169.516417,674.857838L167.583617,673.247282L164.399178,672.525002 " class="Federal"/><path d="M576.565243,114.877125L574.998940,76.635254L575.177805,61.409544L575.857490,53.952830L578.185790,46.182253L580.251987,33.137359L581.410399,28.788688L583.747489,25.057060L587.431657,8.913496L587.446078,8.860422 " class="Interstate"/><path d="M821.905499,71.228179L832.294586,72.250243L837.697876,71.822445L841.182800,70.193627L848.735931,62.886346L864.222110,61.906305L868.693430,62.109535L886.950013,67.241534L938.501415,77.306410L966.646850,77.070771L975.507625,78.283244 " class="Federal"/><path d="M620.700075,114.047788L618.633291,123.082827L616.532934,128.074226L602.353873,140.601642L599.757353,144.038575L599.566223,152.133983L602.317387,174.231200L602.132184,183.265928L592.469536,208.551342 " class="Federal"/><path d="M577.434961,219.829775L578.154738,220.139128 " class="Interstate"/><path d="M576.721966,221.390700L578.154738,220.139128 " class="Interstate"/><path d="M577.434961,219.829775L576.721966,221.390700 " class="Federal"/><path d="M576.721966,221.390700L576.672344,207.676160L578.484324,180.872560L579.021023,135.406948L578.751062,127.316081L576.827613,121.409950L576.565243,114.877125 " class="Interstate"/><path d="M570.304681,238.244915L572.196103,229.509821L576.721966,221.390700 " class="Interstate"/><path d="M483.478895,231.648365L489.000864,229.797962L492.837821,229.498851L502.894564,234.203275L506.490747,234.834947L510.091818,233.283171L514.888412,233.291136L520.160244,237.039322L530.474981,241.411643L536.474700,239.852998L547.996726,242.964166L551.593983,240.777248L552.790023,238.281199L570.304681,238.244915 " class="Interstate"/><path d="M374.321156,257.581583L381.837120,251.748146L387.130848,250.561842L394.085027,250.950101L398.128747,254.110646L399.749490,259.427909L402.864489,260.083316L403.077436,262.579927L409.674981,275.118169L413.504123,277.025560L416.159100,276.114465L422.551436,261.202563L427.900509,254.075507L445.255393,245.474781L453.421460,244.592378L459.198888,241.820623L473.589569,243.142372L477.193933,242.223168L479.122437,240.360637L481.549619,234.134921L483.478895,231.648365 " class="Interstate"/><path d="M75.709409,337.582793L74.046070,337.210860L70.139000,339.245299L55.691008,328.748102L49.756873,327.588035L42.564285,322.021635L39.598521,318.484398L32.546434,315.718189L29.649370,316.535771L25.472632,319.477889L15.265522,322.488814 " class="Interstate"/><path d="M374.321156,257.581583L366.231592,252.491798L352.857491,248.572118L349.765186,246.970295L341.737618,239.374294L338.165954,238.074696L332.116536,241.722559L331.131989,243.265598L326.793740,244.755778L322.911811,247.498493L302.530012,248.399184L294.886627,247.326369L288.158407,248.447633L266.526654,262.977424L255.981772,263.067110L253.543764,264.884045L246.412231,262.546696L242.814181,262.777890L239.733104,261.462103L235.912079,261.063247L230.146456,261.863907L226.813081,261.162272L202.227530,267.719425L195.771521,267.552007L192.389402,268.708772L180.898106,269.022394L170.760219,272.166260L167.578848,274.567286L163.469213,276.006564L160.362907,275.916734L156.950579,277.996733L149.021137,286.790912L141.681795,291.861141L138.284982,293.313186L134.339012,296.926379L129.211099,307.349830L123.920504,315.274641L123.476377,321.486759L121.855274,327.037899L117.628527,331.568996L113.316934,338.585839L88.099370,339.584490L75.709409,337.582793 " class="Interstate"/><path d="M578.154738,220.139128L588.965747,226.956946L603.121949,229.696375L612.742776,234.630662L651.097936,234.034191L656.616799,234.607462L659.266315,235.829455L671.493088,236.019184L693.133255,241.385981L696.270246,242.906156L703.558032,249.671805L709.196067,258.014395L718.584283,275.655221L724.712322,283.361103L733.679320,302.557034L736.357752,304.385994L739.339549,309.951215L750.032415,315.387840L755.594513,316.539884 " class="Interstate"/><path d="M755.594513,316.539884L773.198313,317.469719 " class="Interstate"/><path d="M773.198313,317.469719L789.542789,315.906332L838.779862,312.333151L855.408115,314.106457L870.928707,310.590523L946.896419,308.978978L956.680200,308.035272L958.964287,304.846542L984.457619,300.294069 " class="Interstate"/><path d="M570.304681,238.244915L576.305907,239.162493L583.283078,243.815363L586.176839,246.922380L588.114297,250.656462L592.007627,261.242615L592.749870,265.605446L593.044780,276.832064L592.379247,288.687822L595.809660,300.213592L590.582866,317.395339L594.015590,328.298904L596.701903,333.901681L595.313122,346.699761L595.577773,351.378269L601.956957,367.256801L603.197449,372.553652L602.742294,378.171616L599.395945,388.172297L599.447462,398.466460 " class="Interstate"/><path d="M75.709409,337.582793L79.976887,345.517321L89.546768,353.018194L96.638383,363.227732L99.674047,365.823748L101.228844,369.612813L103.797867,371.880612L105.355417,375.669456L108.147033,378.566771L109.267367,381.095251L115.549927,387.845501L117.286148,393.818289L118.249262,393.850701L122.254727,396.786267L125.742111,400.948752L130.225722,404.209208L136.254040,404.405062L137.246933,403.503074L148.092464,404.158302L148.401685,410.083593L154.490822,416.811079L156.110828,419.351752L161.146937,438.185710L164.597912,444.828010L173.503554,456.301469 " class="Federal"/><path d="M407.720251,373.352218L411.737010,384.309500L419.373569,398.730233L419.580855,402.786914L423.893906,409.999615L424.356656,412.810732L422.326750,422.772562L423.967943,430.271847L424.527221,451.168551 " class="Federal"/><path d="M173.503554,456.301469L175.985981,454.195755L192.008768,454.033967L206.114978,463.140369L209.515470,463.231705L212.408429,464.242752L217.525295,463.754436L220.569647,468.815421L227.543462,472.418793L236.036855,473.564781L237.766982,472.361631L239.314143,468.351038L253.796349,462.464786L262.653557,457.681578L268.259988,457.182107L274.317498,458.558829L280.904674,457.762808L288.974896,455.746735L293.427508,451.784716L309.820154,446.798804L313.718305,446.557954L319.255354,450.396224L326.062056,451.137223L333.081460,454.059604L349.750114,464.607438L359.224327,467.552030L365.257212,472.935224L372.797490,475.219147L374.998251,474.936536L379.707390,468.764098L386.347482,464.171183L387.594317,461.692598L387.617925,459.510889L389.585784,457.975738L390.897932,449.262434L394.573313,447.434292L397.744698,447.158233L404.550858,449.102745L406.750709,448.502273L421.593072,452.077264 " class="Federal"/><path d="M599.447462,398.466460L599.941290,400.023588L602.131720,400.635747L612.423960,414.923864L618.331772,425.801448L630.757292,460.946306L631.287705,466.865373L630.173763,482.147960L630.972665,491.491345 " class="Interstate"/><path d="M523.083737,458.515025L536.511929,458.520005L538.465598,460.078530L541.154364,465.689591L542.620980,467.247580L550.923525,464.121312L555.565168,464.737701L572.190620,470.621112L583.698359,477.126512L594.957975,480.504502L601.086935,483.901067L608.192014,486.353380L624.610267,491.228791L631.466285,492.110665 " class="Federal"/><path d="M5.739608,567.612317L6.295816,567.821901L11.312604,570.218152L18.651500,575.815815L28.007786,579.636735L29.877951,581.888257L35.135799,592.035728L36.564703,593.027048L38.175367,595.885818L39.248636,600.271020L46.957837,618.261513L56.687750,627.343338L61.836013,642.731940L66.030351,649.715889L67.950291,651.032731L69.071449,654.483693 " class="Federal"/><path d="M762.366970,317.979637L770.985296,327.799348L796.684202,346.622169L842.607423,391.080350L854.042242,393.907312L861.907611,398.998514L873.644201,403.978319L877.261360,403.567138L881.893784,404.995248L887.451146,404.837830 " class="Federal"/><path d="M898.716745,519.046167L913.577311,518.894077L913.810494,527.592216 " class="Federal"/><path d="M630.972665,491.491345L632.235410,497.090401L632.257380,500.206236L630.803862,502.399056L630.831901,506.449293L629.126149,507.709070L628.684606,514.877959L622.881799,527.381725L615.824185,537.086202L612.430399,544.893406L610.241484,548.955040L601.210703,561.772306L600.750265,568.621932L601.307953,582.931815L600.355037,590.091865L606.602328,608.091384L609.578008,611.181436L610.579128,613.972647 " class="Interstate"/><path d="M69.071449,654.483693L73.505336,653.734777L87.709008,654.298835L93.799100,655.773767L97.852474,659.954503L101.031423,660.385230L104.077291,656.784675L117.642356,654.499682L127.024302,661.961294L139.319478,661.773540L146.044121,668.198557L150.408285,670.823796L154.596427,670.654314L155.379325,668.822076L157.108264,668.569622L159.016226,671.110299L163.429652,671.874086 " class="Federal"/><path d="M46.155350,698.364326L53.131111,678.881107L57.238518,672.869291L65.523484,658.362296L69.071449,654.483693 " class="Federal"/><path d="M168.626630,681.332320L172.377453,678.975014L179.033619,678.874938L197.745161,680.062585L201.649723,682.035665L204.614829,681.812156L210.369304,677.950222L210.945535,673.938949L213.467758,671.221358L220.665943,668.941916L224.844190,669.675569L227.260822,672.220023L230.581066,679.125954L242.890995,680.996291L244.292179,685.369601L251.723030,684.317019L255.158728,685.641018L266.376238,680.022451L270.097040,679.179371L273.519280,681.427537L275.259010,680.847301L282.524356,674.810296L284.752549,674.549107L291.408490,675.622427 " class="Federal"/><path d="M46.155350,698.364326L45.420170,706.364505L42.999624,715.266243 " class="Federal"/><path d="M610.579128,613.972647L618.562109,629.456327L626.037437,640.272376L630.784267,648.308229L641.326154,670.874201L647.311308,676.711477L648.317874,678.872903L648.838235,682.279563L648.177795,693.759391L648.436923,695.306879L645.502392,701.225407L645.815416,710.519001L646.592614,715.158440L648.356995,718.857896L652.102439,721.606985L652.856659,722.837862L652.533487,725.398146 " class="Interstate"/><path d="M913.810494,527.592216L914.396925,568.282416L917.610064,588.362554L914.740687,610.182393L915.450405,638.382976L917.781865,673.007856L918.010209,692.502173L922.376948,699.778891L923.042369,706.870057L929.077180,711.608004L929.399399,714.688375L930.830668,719.061771 " class="Federal"/><path d="M590.285842,252.830185L596.517699,250.307383L599.378848,246.551649L600.535713,238.750898L599.048638,230.028772 " class="Interstate"/><path d="M561.576282,160.048662L561.245531,160.049326L552.200674,167.227432L547.679159,175.331269L540.525568,185.928749 " class="State"/><path d="M520.232205,8.972672L525.378637,15.212825L542.090042,33.830737L543.040052,43.143115L547.526028,47.797128L551.075745,54.936167L551.093662,66.430058L558.196013,72.323492L566.025601,81.631614L566.123668,115.527547L567.352061,129.526864L561.888773,130.783872L561.248483,161.294998 " class="Federal"/><path d="M539.570676,187.175435L554.873910,195.262076L563.984832,205.840574L575.766974,222.328919 " class="Federal"/><path d="M592.847876,267.263015L586.021344,266.569537L573.273930,265.990165L566.786074,267.879272L559.808348,266.647257L555.231282,262.289074L554.017452,255.118070L550.405415,249.197949L549.392521,242.861613 " class="State"/><path d="M394.269833,318.623599L395.934563,320.825113L394.948320,322.685859L390.578770,324.820753L389.595152,326.369173L391.952604,331.386348L391.419854,335.747203L392.788894,342.936683L401.332128,358.313755L402.965639,364.257535L405.853161,366.158905L407.947300,374.914141 " class="Federal"/><path d="M374.321156,257.581583L378.348776,261.683494L380.201859,267.006021L382.111818,267.963942L387.005593,280.493346L392.202545,288.659677L393.999679,299.906821L391.280901,305.802682L392.159026,313.297937L394.514622,318.314371 " class="Federal"/><path d="M886.984658,405.474044L886.925108,421.358892L888.829018,456.799214L895.150761,457.235958L895.628155,475.274067L897.661013,478.636341L898.002419,482.360231L897.259634,500.428232L898.716745,519.046167 " class="Federal"/><path d="M421.593072,452.077264L433.074639,449.683147L437.215869,450.340228L440.863372,451.927555L463.451066,471.097308L472.691741,480.811048L476.845709,481.454819L481.740937,480.230149L495.944551,472.489944L502.798877,467.521423L511.843219,464.423649L523.327631,458.827054 " class="Federal"/><path d="M604.078918,229.379593L604.034650,221.898240L608.079410,217.512381L619.811686,217.441743 " class="Other"/><path d="M576.565243,114.877125L592.469863,115.441053L620.700075,114.047788 " class="Federal"/><path d="M614.210478,234.663909L613.789378,247.719371L614.570134,256.757447L612.448590,263.007248L609.345256,266.455973L603.100979,267.737964L597.810565,267.764862L592.847876,267.263015 " class="State"/><path d="M549.392521,242.861613L548.711532,238.598095L554.221767,233.602267L555.651226,228.299930L560.440941,226.109029L590.165567,227.263664 " class="State"/><path d="M602.135487,201.514030L605.373459,205.683639L614.582602,223.085201L614.210478,234.663909 " class="State"/><path d="M557.510332,198.685581L565.627749,193.994734L572.795125,193.041184L577.879821,193.025550 " class="State"/><path d="M577.879821,193.025550L586.417300,192.994938L597.182745,195.129698L602.135487,201.514030 " class="State"/><path d="M579.118612,160.001821L561.576282,160.048662 " class="State"/><path d="M46.155350,698.364326L34.687722,704.039172L25.326281,705.162999L5.961505,712.293630L4.251557,713.540957 " class="Federal"/><path d="M170.496590,685.726843L166.562167,706.643332L167.046079,719.984579 " class="Federal"/><path d="M536.825971,176.242816L536.827542,183.484280L537.239277,185.629991L539.296672,188.043499 " class="Other"/><path d="M501.446915,119.380579L504.715547,120.191644 " class="Federal"/><path d="M492.046730,118.551173L495.508436,122.311573L497.554935,121.781480L500.209686,122.859888L503.692612,120.457257 " class="Federal"/><path d="M617.500070,111.936179L617.051478,106.583358 " class="Federal"/><path d="M955.841805,456.240586L961.854344,455.226862L988.888439,453.976414L990.269692,454.426621 " class="State"/><path d="M894.712309,456.867697L906.861462,458.109414L910.237180,459.345197L913.583188,459.509135L915.111132,461.872640L917.242924,463.413038L923.889062,462.129838L927.025613,462.296602L932.408884,460.781753L953.767668,456.580262 " class="State"/><path d="M504.715547,120.191644L508.597437,121.270989L514.316139,124.763091L516.358403,126.641261L517.990206,129.858354L522.079754,132.542031L530.876816,145.410401L533.131063,143.266657L535.999306,143.534620L536.204671,146.482818L537.434326,146.750622L541.330080,149.965642L540.513329,155.863459L536.822757,161.494654L536.825971,176.242816 " class="Federal"/><path d="M661.139208,684.604069L662.847838,684.851971L673.074050,683.397605L676.059590,683.361001L684.848130,688.053703L689.118903,688.530446L690.195825,689.583417L698.103524,691.074002L714.013897,702.306992L715.720844,702.279885L722.306359,699.772165L726.950279,695.692872L734.602355,693.693314L751.468982,695.518412L758.246767,692.452718L774.743018,684.379635L788.154697,684.355988L811.756116,683.272831L811.369026,673.410356L811.997029,672.861418L875.253562,671.149763L875.459776,670.876880L875.120188,655.412772L881.474131,655.222277L882.049338,652.536246L915.897491,651.193877L934.497370,650.559899L939.377262,651.188687L960.265953,649.897747L980.892918,640.312550L988.398004,637.351285L990.666681,635.661244L996.488560,633.028313 " class="Federal"/><path d="M443.799008,171.378920L445.455964,169.513071L451.019720,166.599375L452.055505,165.265191L453.526196,160.448359L451.914531,156.417510L457.488917,150.821354L457.293118,149.480088L461.651913,140.928056L460.043925,136.363930L460.273440,132.614004L458.855606,130.462833L458.059288,127.243525L458.718367,120.550310L459.763748,117.074087L459.779975,114.663755L462.427037,116.017020L464.698134,112.279344L468.186478,109.618662L471.243488,110.704228L473.676645,113.928891L476.331082,114.208206L478.365993,115.823631L478.154868,117.161948L481.217715,117.709865L483.266391,116.646295L483.258987,118.253333L485.709275,118.797966L487.559037,116.393798L489.806958,116.401295L490.221009,115.063460L492.670000,115.874631L493.694705,115.074208L498.184038,116.961667L499.607120,119.376031L502.874838,120.455400L506.762611,119.124468L509.008194,120.468139L511.670394,118.329904L513.920380,117.529884L516.576670,118.069297L518.828896,115.393564L525.165353,113.792272L529.457830,110.312852L535.177375,111.384930L536.812026,112.991641L540.694491,113.793868L542.736574,112.185830L546.007637,114.326033L551.114069,112.981598L552.546462,114.318903L555.613053,115.117985L565.421745,115.099237 " class="Federal"/><path d="M946.449362,8.833825L944.308648,5.432429 " class="Federal"/><path d="M955.257466,491.605439L954.522939,481.190180L953.185912,437.850366L950.448955,436.872386L950.224247,429.646636 " class="Federal"/><path d="M950.224247,429.646636L949.847732,417.602672L949.149199,415.214765L948.439815,392.729181 " class="Federal"/><path d="M955.736746,528.518774L955.249411,519.171966L954.487048,493.773957L955.257466,491.605439 " class="Federal"/><path d="M96.246214,343.406088L99.340458,343.513584L107.468893,341.380416L112.628004,341.554407L114.530027,340.277982L114.394838,338.129431 " class="Federal"/><path d="M595.169679,295.809407L594.338318,295.544753L591.624372,292.065953L589.128913,290.734056L579.991599,288.084139L578.321762,285.135963L576.437965,280.040053L572.274170,274.145340 " class="Federal"/><path d="M611.783373,83.325900L609.905367,76.914520L608.672855,75.315915L608.656321,72.908251L604.709231,60.625059L603.468857,57.422321L603.342518,37.908810L602.919526,35.238654L602.659715,26.423248L601.421791,22.956655L602.618122,20.012972L602.991691,15.204238L605.779317,8.788075 " class="Federal"/><path d="M564.385677,267.721640L564.378320,264.768108L563.337436,262.353984L563.325127,257.252719 " class="State"/><path d="M564.750946,94.215162L576.376272,94.184640 " class="State"/><path d="M254.358710,266.079658L254.653332,271.182838L256.879585,273.108622L258.226390,277.429833L261.280606,279.372770L263.019486,284.775356L266.431418,289.408028L280.432001,292.375293L285.569619,294.085824L286.789118,295.182798L288.178196,298.161474L290.220999,299.542327L293.946634,299.612656 " class="State"/><path d="M293.946634,299.612656L297.186359,303.430306L300.655964,306.177958L304.576770,307.054093L306.821161,308.973011L307.813080,311.406301L313.116104,316.330728L314.279691,320.914112L318.695684,329.579615 " class="State"/><path d="M602.626026,409.378614L607.861598,409.617275 " class="State"/><path d="M609.952115,409.067659L610.367705,408.528052L610.242559,387.044680L609.188257,385.439632L606.253648,383.845415L604.129252,377.411649L603.286656,376.073416 " class="State"/><path d="M80.806511,347.948343L82.662335,348.015334L94.755986,344.693781L97.145237,341.293760 " class="Federal"/><path d="M618.970556,117.283402L619.125611,110.855061L618.284368,107.646924L617.051478,106.583358L615.333550,95.081634L612.625096,87.067701L611.783373,83.325900 " class="Federal"/><path d="M831.030149,53.370725L830.748679,43.228331L830.338596,35.761324L829.755651,14.958117L832.719608,5.865919 " class="State"/><path d="M228.284216,92.719734L228.411298,88.177248L229.057178,86.854834L232.136643,85.586037L235.296411,81.377649L238.215212,78.500159L238.505313,75.298882L240.032871,71.322478L239.600015,64.899853L238.660935,62.207996L235.511417,58.934697L233.712850,58.094515L231.368127,55.105334L229.886854,50.265512L229.207913,45.710931L229.539709,41.179068L228.660357,36.621469L226.113704,33.896399L223.927069,25.841855L219.842362,14.012810L218.737078,5.486952 " class="State"/><path d="M191.619524,268.861296L191.123774,264.558251L192.190480,263.245927L192.929129,258.975676L191.375597,255.717514L188.543749,254.033866L185.736393,251.546146L183.104581,250.134966L177.899579,245.436581L172.937764,239.671455L170.984282,236.401206L170.254214,233.433023L169.271801,225.366646L169.429245,220.280097L168.734878,216.241872L169.273511,205.540817L168.895010,198.030124L168.178633,194.796209L167.922270,189.968292L168.432419,186.768696L167.955777,182.470912L168.236461,180.068672L171.960830,178.564013L173.227414,177.259582L180.208133,176.108140L184.111424,168.713735L185.801219,160.190417L187.277285,158.622457L189.959842,157.620781L187.286260,151.662761L189.087644,146.088301L190.993671,143.728255 " class="State"/><path d="M190.993671,143.728255L194.364586,140.066847L193.801994,131.757179L200.332187,124.428087L207.668315,124.071506L210.531099,123.604958L214.395510,123.696538L215.638911,122.923070L218.623276,118.176747L215.891889,114.100298L213.217414,108.152917L216.808985,103.422699L219.291526,101.875458L219.180403,98.663833L224.436467,92.366087 " class="State"/><path d="M824.614899,63.123454L827.889023,56.909872L831.030149,53.370725 " class="Federal"/><path d="M646.926174,695.964158L650.537944,693.525891L654.124086,687.883328L655.184791,687.071288L661.139208,684.604069 " class="Federal"/><path d="M420.112414,401.254234L424.302233,400.486382L431.432487,398.130524L434.587880,395.739319L436.678818,395.755861L438.783600,393.892347L438.604208,389.862752L437.581230,386.900811L438.017124,384.487184L440.535855,382.894957L441.593843,381.022912L446.824803,379.717697L449.766475,377.052195L454.394015,371.711041L457.146530,365.282342L462.166164,363.163425L465.501152,363.719244L472.820198,360.265421L486.800876,358.982843L500.358910,359.026604L502.858034,360.644679L507.236219,361.997839L514.121545,362.010751L518.501841,363.091414L521.213143,364.437532L522.671282,367.393568L523.923279,367.931864L526.426103,371.425466L530.601122,375.187750L535.823017,377.068380L538.538423,376.261983L540.627791,377.335487L540.837370,378.678345L545.643303,379.480711L547.731817,378.672881L549.821676,379.207659L554.207113,377.858525 " class="Federal"/><path d="M413.868164,591.624608L415.086081,546.633449L415.431750,530.553584L417.974207,529.506168L426.632830,529.319086L428.328014,528.529867L440.631670,520.051739L443.401188,516.050341L444.053121,513.105099L443.274091,503.174925L438.064111,494.550141L430.169496,479.996462L426.628546,475.403905L426.224868,473.253554L421.634032,468.918269L420.817792,465.958675L423.589396,461.153293L425.326429,454.190508 " class="Federal"/><path d="M434.242447,725.587493L432.966979,719.012256L432.817300,708.875824L441.603122,668.639234L452.394537,643.865444L452.617406,641.995363 " class="Federal"/><path d="M440.963355,381.555352L442.285759,371.896792L442.106015,367.866930L441.074480,366.247906L440.059086,362.480351L440.333103,353.619478L438.279445,349.575449L436.502220,336.938991L437.823424,327.549188L439.089757,325.141614L441.811014,322.744539L442.246691,320.062041L443.927211,317.656964L448.503291,317.151358L456.048262,307.262873L462.302291,303.271098L466.067837,298.189096L467.747116,294.706739L471.274401,294.724478L469.836116,292.031898L470.469659,289.886707L475.468222,285.613836L482.315200,284.569050L489.770453,287.013755L498.675471,291.338182L510.079188,294.855906L510.499471,292.171104L512.164698,289.219976L515.488635,286.002660L517.147309,286.273519L521.090290,283.861250L522.541719,283.862654L526.069364,279.837289L527.313195,279.569487L533.324470,276.080429L533.531829,273.932230 " class="Federal"/><path d="M413.625579,621.596536L413.868164,591.624608 " class="Federal"/><path d="M769.225737,137.213615L771.908105,138.505853L778.266013,139.731830L802.750706,147.569618L812.957777,155.664726L814.407368,156.438111L822.372546,156.269844L828.335639,157.747616L842.188845,156.366159L853.448802,157.442201L878.948134,157.079404L881.239231,158.626579L882.332094,161.007666L884.004166,162.302712L896.642289,161.966633L916.074987,163.835159L925.441689,163.564309L933.620919,164.392796L940.606321,166.055248L943.948206,168.361445L949.635963,167.917839L958.129551,166.312635L968.070650,165.457771L974.838061,166.840839L979.166837,169.087168 " class="Federal"/><path d="M646.614411,123.512398L658.962639,131.173321L670.046065,134.549884L675.369935,135.031480L689.888128,134.873035L691.330568,135.660098L700.838479,142.512193L705.956262,142.716242 " class="Federal"/><path d="M716.542123,609.561718L719.232714,604.168307L722.193751,603.585973L728.076247,599.476286L734.392737,596.426493L737.098594,592.900971L741.069269,589.084761L748.548652,579.314578L762.304867,566.205610L767.930570,561.275921L775.410532,553.895515L780.157985,547.638121 " class="Federal"/><path d="M661.139208,684.604069L665.798295,680.546564L678.713359,670.510306L679.946677,665.686749L684.152133,660.022519L690.152456,642.839308L697.916337,633.107698L700.445556,631.200037L704.646153,626.860628L711.815895,622.474407L714.729999,617.615228L716.542123,609.561718 " class="Federal"/><path d="M873.348392,245.365890L879.107883,245.482761L886.904060,245.005948L910.096006,244.357071L913.566123,243.720439L928.747457,243.536968L929.558461,243.244415L935.258167,235.836488L936.272994,235.537342L953.866316,234.714994L953.387405,226.963315L971.168180,226.380641L980.144789,225.809402L981.339579,224.965336 " class="Federal"/><path d="M683.241331,238.184995L685.662350,233.863707L716.997722,233.197038L720.939089,234.751453L736.180765,233.989334L741.729628,233.098001 " class="Federal"/><path d="M741.729628,233.098001L800.809692,232.031129L826.709221,231.210963L829.851951,233.553613L837.044850,233.389306L842.930219,238.346012L852.588688,238.114354L858.274141,243.068393L871.636649,242.997657L873.142949,245.371236 " class="Federal"/><path d="M953.387405,226.963315L953.012244,222.154739L952.099880,219.505887L953.035932,217.065885L952.698280,213.327749L953.499272,207.143721L953.374564,203.667056L954.531419,201.756088L953.572383,180.907343L955.589200,180.308193L955.390772,169.342704L954.773587,158.125011L951.993961,154.466826L951.416316,133.355846L950.120194,131.256726L949.842199,123.779075L948.527083,121.146018L948.165555,116.880002L944.495161,110.843711L942.880661,105.547101L941.375246,70.598806L941.426625,55.915631L942.765754,54.008156L942.430390,45.212737L950.076041,44.986403L950.467985,44.707919L949.224215,13.015939L946.449362,8.833825 " class="Federal"/><path d="M955.530673,306.464346L954.534304,265.499893L955.540879,259.037220L953.866316,234.714994 " class="Federal"/><path d="M954.589738,352.323362L954.155316,339.205641L953.950957,326.884233L953.106036,307.884319 " class="Federal"/><path d="M946.176370,393.340647L945.727954,392.283570L944.533444,361.233274L945.136697,360.677424L954.440820,360.368429L954.827843,359.551423L954.589738,352.323362 " class="Federal"/><path d="M564.717380,82.171082L566.555724,83.772585L575.113555,83.750031 " class="State"/><path d="M554.207113,377.858525L564.225749,374.078386L567.762705,368.966194L569.222516,368.425043L571.952703,374.057635L572.796065,376.740983L580.342290,384.235950L580.349928,386.384557L583.494454,388.789788L586.216523,389.853088L588.736656,392.528079L593.970615,393.847022L595.652502,395.718819L599.430709,398.385270 " class="Federal"/><path d="M533.531829,273.932230L533.946274,271.247033L534.981883,270.172953L542.643644,268.022206L542.848069,264.262977L545.330256,262.113120L543.670489,257.013086L545.325097,256.474831 " class="Federal"/><path d="M565.421745,115.099237L598.931593,114.982194L603.238642,117.639502L617.950982,117.557501L625.097714,116.976305L625.919338,117.506479L638.378817,117.149576L640.853232,119.540933L646.614411,123.512398 " class="Federal"/><path d="M996.488560,633.028313L996.580450,632.903523 " class="Federal"/><path d="M981.339579,224.965336L981.433272,224.920476 " class="Federal"/><path d="M886.656446,405.096762L889.940754,403.393993L911.381001,396.593120L914.049461,395.439298L917.978417,394.782130L925.857459,394.267611L931.500398,395.428151L936.487743,395.535181L945.355492,393.635918L962.967577,386.607789L972.724263,387.070398L976.053802,387.487986L987.734936,384.966586 " class="Federal"/></g>
    <g class="map" id="airports"><circle cx="618.213551173" cy="403.712423991" id="City of Colorado Springs" class="Airport" r="10"/><circle cx="620.674818578" cy="214.747198439" id="Denver Int'l" class="Airport" r="10"/></g>
<g class="map" id="cities"><circle cx="254.273905191" cy="266.388657486" class="city" data-lat="39.5465899852" data-lon="-107.324699953" id="Glenwood Springs" r="15"/><circle cx="602.265385464" cy="242.428716767" class="city" data-lat="39.6958573599" data-lon="-104.80849695" id="Aurora" r="15"/><circle cx="610.862579038" cy="112.642917588" class="city" data-lat="40.4191982209" data-lon="-104.739974001" id="Greeley" r="15"/><circle cx="567.214168793" cy="87.4792494765" class="city" data-lat="40.5606882925" data-lon="-105.058869265" id="Fort Collins" r="15"/><circle cx="628.781448861" cy="496.465804269" class="city" data-lat="38.280388203" data-lon="-104.630006553" id="Pueblo" r="15"/><circle cx="912.219766674" cy="525.639723511" class="city" data-lat="38.086498229" data-lon="-102.619405764" id="Lamar" r="15"/><circle cx="647.710553427" cy="694.862933028" class="city" data-lat="37.1713344513" data-lon="-104.506396527" id="Trinidad" r="15"/><circle cx="305.787648468" cy="447.244338539" class="city" data-lat="38.5447648306" data-lon="-106.928290041" id="Gunnison" r="15"/><circle cx="167.007196003" cy="670.899405563" class="city" data-lat="37.2756433299" data-lon="-107.879989056" id="Durango" r="15"/><circle cx="174.420948613" cy="456.18295068" class="city" data-lat="38.47727541" data-lon="-107.865519655" id="Montrose" r="15"/><circle cx="227.832872289" cy="91.8782099823" class="city" data-lat="40.5172800894" data-lon="-107.550396771" id="Craig" r="15"/><circle cx="541.749582822" cy="181.113964854" class="city" data-lat="40.0384462678" data-lon="-105.246092979" id="Boulder" r="15"/><circle cx="82.8640408159" cy="342.659656874" class="city" data-lat="39.0938527619" data-lon="-108.549999839" id="Grand Junction" r="15"/><circle cx="605.397268885" cy="392.019751174" class="city" data-lat="38.8629624624" data-lon="-104.79198633" id="Colorado Springs" r="15"/><circle cx="577.711584166" cy="234.403834485" class="city" data-lat="39.7391880484" data-lon="-104.984015952" id="Denver" r="15"/></g></svg>