<?xml version="1.0" encoding="utf-8"?><!DOCTYPE svg  PUBLIC '-//W3C//DTD SVG 1.1//EN'  'http://www.w3.org/Graphics/SVG/1.1/DTD/svg11.dtd'>
<svg xmlns="http://www.w3.org/2000/svg" version="1.1" style="fill: none;" width="100%" height="100%" viewbox="0 0 1000 740">

<!--svg enable_background="new 0 0 1000 716" height="716px" pretty_print="False" style="stroke-linejoin: round; stroke:#000; fill: none;" version="1.1" viewBox="0 0 1000 716" width="100%" height="100%" xmlns="http://www.w3.org/2000/svg" xmlns:xlink="http://www.w3.org/1999/xlink"-->
    
<defs><style type="text/css"><![CDATA[path { fill-rule: evenodd; }]]></style></defs><metadata><views><view h="716.889091335" padding="0" w="1000"><proj dist="1.3" id="satellite" lat0="35" lon0="-108" tilt="0" up="0"/><bbox h="191.0" w="266.8" x="959.7" y="712.57"/></view></views></metadata>
    
<g class="map" id="CO"><path d="M661.176437,6.971118L598.884895,8.120539L578.073563,8.470616L515.518733,9.421101L494.623981,9.704677L431.838557,10.455063L410.881111,10.671656L347.921000,11.220690L305.893672,11.502494L242.800576,11.798573L221.756184,11.863477L158.605101,11.956693L116.497362,11.934228L53.370495,11.773690L32.329506,11.686340L11.301384,11.582124L8.045825,205.148678L6.663219,292.380803L5.658526,358.218061L2.470777,579.918121L0.698432,714.234475L27.912622,714.450952L109.589387,714.842706L136.823637,714.887382L191.297038,714.847825L218.531729,714.763586L300.193985,714.253199L327.389866,713.997302L408.885896,712.972761L436.017999,712.545717L517.252203,711.009385L544.271288,710.412450L625.128164,708.368322L652.016882,707.602545L732.406754,705.055170L759.110033,704.122981L838.924295,701.078700L865.422458,699.981904L985.917551,694.445914L999.301568,693.774943L995.534652,643.968617L990.384893,577.724991L986.423876,528.184741L979.653372,445.910868L972.663505,364.056337L968.378383,315.182433L962.546400,250.296853L956.589388,185.783634L955.083656,169.710489L954.099766,159.014862L950.143633,116.352359L941.036180,21.041385L938.972436,0.000000L899.761127,1.175631L822.383030,3.310511L775.717408,4.473155L713.225689,5.905640L677.645431,6.641666L661.176437,6.971118Z " id="Colorado" class="state"/></g><g class="map" id="cities"><circle cx="244.72227294" cy="262.610673157" lat="39.5465899852" lat="-107.324699953" id="Glenwood Springs" class="city" r="15"/><circle cx="589.16505799" cy="232.458369661" lat="39.6958573599" lat="-104.80849695" id="Aurora" class="city" r="15"/><circle cx="592.17391022" cy="107.400265457" lat="40.4191982209" lat="-104.739974001" id="Greeley" class="city" r="15"/><circle cx="548.21145047" cy="83.8836246299" lat="40.5606882925" lat="-105.058869265" id="Fort Collins" class="city" r="15"/><circle cx="625.413675731" cy="480.168013166" lat="38.280388203" lat="-104.630006553" id="Pueblo" class="city" r="15"/><circle cx="905.645031025" cy="505.338481098" lat="38.086498229" lat="-102.619405764" id="Lamar" class="city" r="15"/><circle cx="651.539917796" cy="676.92022868" lat="37.1713344513" lat="-104.506396527" id="Trinidad" class="city" r="15"/><circle cx="302.116793459" cy="438.528680211" lat="38.5447648306" lat="-106.928290041" id="Gunnison" class="city" r="15"/><circle cx="168.75287515" cy="665.372361716" lat="37.2756433299" lat="-107.879989056" id="Durango" class="city" r="15"/><circle cx="170.451411221" cy="451.049482372" lat="38.47727541" lat="-107.865519655" id="Montrose" class="city" r="15"/><circle cx="212.404509482" cy="94.4556006284" lat="40.5172800894" lat="-107.550396771" id="Craig" class="city" r="15"/><circle cx="527.014046481" cy="174.157118904" lat="40.0384462678" lat="-105.246092979" id="Boulder" class="city" r="15"/><circle cx="74.9719915828" cy="342.039821782" lat="39.0938527619" lat="-108.549999839" id="Grand Junction" class="city" r="15"/><circle cx="598.24834525" cy="377.960115906" lat="38.8629624624" lat="-104.79198633" id="Colorado Springs" class="city" r="15"/><circle cx="564.637708192" cy="225.057314014" lat="39.7391880484" lat="-104.984015952" id="Denver" class="city" r="15"/></g><g class="map" id="roads"><path d="M743.013222,302.367270L737.298004,305.559167L728.434943,315.513637L723.428533,318.990797L709.267315,320.284941L704.121831,321.636843L700.483978,324.467443L699.946230,327.520783L690.142887,326.560892L686.173074,327.879181L679.191104,335.052432L676.336621,335.124861L672.440140,337.961634L659.427583,348.942274L654.450479,349.673724L643.426716,349.025874L638.967651,350.655430L621.321568,366.620201L614.220289,378.690575L606.389455,385.896069L596.543735,386.115157 " class="Federal"/><path d="M797.497730,65.884502L811.260605,54.574484L822.664768,43.044484L826.544165,40.283912L865.162226,26.246783L887.392010,13.845091L905.205693,10.971907L915.819512,3.905397L918.710674,0.607487 " class="Interstate"/><path d="M564.494115,211.261431L577.194194,200.181703L586.117729,194.595529L605.757229,168.976570L614.455040,160.407057L624.503114,159.904955L632.711865,151.648237L637.300627,150.056243L650.322666,148.883981L667.315870,140.140547L671.184408,138.560674L683.834556,135.887163L689.014204,133.081120L701.846356,133.680819L705.716495,132.395681L709.468479,129.322049L711.497780,128.378683L742.138896,128.526612L747.609737,127.195858L752.531040,124.685576L765.040016,115.128228L776.333154,105.311637L786.326575,94.052331L796.582651,65.908567 " class="Interstate"/><path d="M974.288130,508.065125L942.761633,506.379245L927.504105,503.039952L906.356104,504.218664 " class="Federal"/><path d="M984.735481,507.667688L984.226972,507.618426L974.288130,508.065125 " class="Federal"/><path d="M627.391754,475.227528L634.251787,476.901090L637.355849,481.127585L647.318821,481.794686L653.591789,481.323624L671.915629,484.830381L675.632115,486.573432L684.719077,494.009173L689.966510,497.244489L715.989948,504.483046L728.382794,505.645388L735.979782,507.563958L755.978113,515.235511L770.507135,524.297442L777.639953,526.520239L781.477088,526.082500L785.298363,521.337060L793.092421,518.608919L796.439351,514.188210L799.008405,512.869392L823.282968,508.630220L837.742702,501.962027L892.130487,498.963365 " class="Federal"/><path d="M294.504561,666.209517L296.267435,667.751887L299.367806,676.445692L302.881625,678.284608L305.162186,681.068307L304.725083,685.745397L307.260956,688.838951L306.840665,694.764107L307.864075,696.625143L311.642742,699.084530L319.413673,701.193319L321.429240,702.420724L319.743563,706.802261L326.754437,714.003281 " class="Federal"/><path d="M9.194189,136.870150L13.155573,141.768142L18.329454,143.297446L23.759651,143.627237L29.448200,142.457198L34.198689,140.681444L54.047083,140.770919L60.443768,139.296650L69.642625,141.129562L79.160711,133.664210L85.597674,125.892788L91.760484,122.016172L103.341134,118.150860L104.539913,114.562738L107.619416,111.577457L111.155097,111.284527L115.882445,107.703976L117.777304,105.016607L139.924541,94.284423L147.448171,97.272454L152.152827,94.585668L157.325693,93.390967L167.906081,93.087725L168.606594,90.699745L170.485012,89.803219L176.363349,90.693161L178.719642,92.481238L185.309535,94.263985L192.603244,95.148470L205.766023,94.227430L215.898585,97.188487L219.656665,96.581192L225.504074,92.982157L228.554213,92.375929L230.442813,93.265294L235.661437,98.024554L241.321229,99.497654L261.541956,99.116659L276.615444,100.836250L283.904171,100.797943L290.937261,99.564394L298.630803,95.936877L301.679314,95.619958L304.519664,96.796403L306.677800,99.171220L307.924509,103.045656L310.807183,106.313323L314.552207,117.649756L316.723393,120.327787L320.738916,120.898459L325.840511,116.972779L329.117075,116.051645L341.837256,116.553143L345.649489,118.616649L360.374317,133.761030L365.826722,144.503669L365.768732,151.704698L366.802461,155.297475L365.938881,158.608514L364.306604,159.524415L364.572306,160.723541L369.028762,168.796518L371.943164,171.775891L377.179856,172.928614L394.662227,171.850313L397.044001,172.426666L401.149740,175.390236L403.760390,175.662775L406.336159,174.732355L413.014891,168.645266L416.041184,167.108495L427.803074,165.469867L431.845391,166.322963L433.368224,169.610005L433.401899,178.028157L436.345429,181.301215L445.616246,182.689347L448.730173,183.853045L450.372211,190.454126L453.077007,193.430192L458.646417,203.902546L459.966029,207.804540L459.554271,209.619798L455.613862,219.330056L452.598976,221.484264L453.381919,223.587835L463.332714,222.847783L471.444611,223.941598 " class="Federal"/><path d="M294.504561,666.209517L298.445459,662.752703L300.155906,660.248230L302.301664,653.072388L307.953982,648.045664L309.398103,644.611316L309.838783,640.564385L310.788796,637.446435L312.718010,633.387491L311.432672,630.290525L318.565351,625.874580L321.045966,625.851372L325.291518,627.675396L327.266395,627.034663L327.733305,625.165626L326.712203,623.311286L326.104980,616.172150L326.566585,613.993595L332.134127,605.865883L337.517816,602.086720L343.090775,595.202023L347.986233,592.357919L352.654131,590.756205L379.081219,590.136304L388.491003,591.257221L396.041896,597.671056L400.522787,599.161387L402.081908,602.552694L406.911513,608.381254L418.047900,608.841396L426.795377,612.744943L446.376595,624.231579L455.632386,628.113703L483.577635,628.238021L493.428778,627.121098L507.428437,632.435732L514.874360,633.527392L522.289159,633.685088L525.445945,632.066983L527.820069,629.223555L532.254122,621.682383L536.047950,617.258545L537.515288,609.784470L545.717149,604.956973L550.970918,600.502798L554.177395,607.559720L560.940174,610.816992L563.141609,610.456756L572.364373,613.653040L584.076661,611.204979L593.691200,605.703366L600.461441,603.057654L605.911918,598.275646L610.568049,598.157884L611.741852,596.889503 " class="Federal"/><path d="M169.530862,451.194413L170.758710,454.271828L171.502377,459.506082L175.924320,467.510950L180.102057,473.361228L183.306990,480.139515L184.810112,490.317241L188.027400,498.336685L187.305609,502.660956L187.329791,509.765270L194.759961,523.658236L200.729006,537.253650L200.010797,541.897671L198.795941,545.924950L193.147841,552.131178L192.666129,555.229452L190.206713,557.712861L190.966533,562.978428L190.481413,565.458630L192.217798,567.314500L198.900241,569.778359L197.941945,576.911804L196.716894,579.705968L190.550005,584.683085L188.322522,584.687678L187.082010,583.759452L184.868793,588.417384L182.412896,595.559632L178.701216,597.428025L177.717380,600.534013L176.757590,614.511705L178.770922,626.007456L178.785211,631.914565L177.799650,635.647686L173.830539,640.318534L172.853050,649.653612L169.128343,655.882430L168.891978,664.288742L167.649540,667.092619 " class="Federal"/><path d="M172.652721,676.120491L172.395883,672.071032L171.393296,669.268907L169.395842,667.713804L166.153534,667.093921 " class="Federal"/><path d="M558.563684,109.990506L555.402854,73.410906L554.928003,58.865773L555.275806,51.740882L557.227931,44.299826L558.692697,31.842361L559.641083,27.686579L561.772344,24.105095L564.681829,8.703705L564.688949,8.673988 " class="Interstate"/><path d="M796.582651,65.908567L806.737882,66.823544L811.971728,66.387067L815.281236,64.817946L822.267914,57.825315L837.263742,56.821317L841.615512,56.995286L859.589084,61.803674L910.068763,71.221451L937.302699,70.943357L945.913321,72.081463 " class="Federal"/><path d="M601.893432,108.623595L600.253035,117.306690L598.404482,122.118514L585.006375,134.321058L582.599273,137.655451L582.753078,145.434513L586.387899,166.648186L586.583915,175.349501L578.122332,199.863220 " class="Federal"/><path d="M563.772039,210.973259L564.494115,211.261431 " class="Interstate"/><path d="M563.132862,212.492037L564.494115,211.261431 " class="Interstate"/><path d="M563.772039,210.973259L563.132862,212.492037 " class="Federal"/><path d="M563.132862,212.492037L562.523930,199.247963L563.206705,173.376100L561.842360,129.648990L561.237104,121.888395L559.096841,116.249949L558.563684,109.990506 " class="Interstate"/><path d="M557.488759,228.885603L559.000714,220.407875L563.132862,212.492037 " class="Interstate"/><path d="M471.444611,223.941598L476.837167,222.052213L480.621493,221.695126L490.751317,226.073688L494.332093,226.623158L497.831875,225.059276L502.573766,224.985421L507.931488,228.524665L518.296233,232.585757L524.161491,230.977913L535.663463,233.803234L539.127612,231.628603L540.208460,229.193715L557.488759,228.885603 " class="Interstate"/><path d="M364.114145,251.238850L371.377940,245.413239L376.597102,244.149836L383.521953,244.381298L387.654645,247.365509L389.458352,252.495262L392.577041,253.067346L392.879481,255.488008L399.890379,267.537065L403.763959,269.312821L406.368094,268.372522L412.169015,253.753418L417.214842,246.727837L434.108428,238.046036L442.170167,237.034856L447.790624,234.239322L462.095725,235.253924L465.629631,234.297408L467.467595,232.457764L469.631005,226.383764L471.444611,223.941598 " class="Interstate"/><path d="M67.614864,337.284254L65.926957,336.972167L62.042948,339.093108L47.174372,329.258176L41.153502,328.312382L33.739971,323.087670L30.648765,319.716648L23.452770,317.236104L20.549544,318.132743L16.410985,321.155013L6.173845,324.449363 " class="Interstate"/><path d="M364.114145,251.238850L355.885708,246.469819L342.439049,242.955752L339.304614,241.468653L331.045315,234.273162L327.443757,233.091615L321.548508,236.768161L320.622093,238.288466L316.353023,239.833918L312.581171,242.586367L292.295410,243.935279L284.635290,243.073860L277.961015,244.324246L256.853173,258.983086L246.319438,259.334204L243.942729,261.164332L236.736280,259.070014L233.146222,259.386915L230.021939,258.185024L226.187343,257.895042L220.445925,258.823630L217.087999,258.227248L192.685151,265.264572L186.211863,265.275746L182.859399,266.494847L171.350604,267.115341L161.281875,270.461677L158.164859,272.892213L154.085820,274.411685L150.965719,274.411828L147.604712,276.537875L139.911727,285.348562L132.692683,290.513027L129.323223,292.030705L125.465790,295.677275L120.620874,306.020993L115.533780,313.933750L115.269470,320.029611L113.800747,325.516281L109.678643,330.084710L105.540996,337.096090L80.163314,338.857156L67.614864,337.284254 " class="Interstate"/><path d="M564.494115,211.261431L575.427132,217.690275L589.485319,220.133774L599.163062,224.767753L636.873864,223.676478L642.323068,224.159979L644.978863,225.307247L657.000618,225.338536L678.480363,230.265328L681.624924,231.697853L689.069024,238.153418L694.961769,246.156783L704.935572,263.125104L711.281431,270.521156L720.908438,289.034086L723.615647,290.778942L726.781570,296.147371L737.507516,301.308491L743.013222,302.367270 " class="Interstate"/><path d="M743.013222,302.367270L760.313518,303.086398 " class="Interstate"/><path d="M760.313518,303.086398L776.258972,301.406543L824.275618,297.501631L840.604480,299.089956L855.599631,295.566532L929.568413,293.550739L939.042911,292.591420L941.112058,289.494842L965.664711,284.990616 " class="Interstate"/><path d="M557.488759,228.885603L563.444567,229.681972L570.513081,234.079318L573.492312,237.043312L575.554128,240.629462L579.822355,250.825327L580.731046,255.042457L581.475828,265.924672L581.296833,277.441635L585.144223,288.585478L580.671664,305.375521L584.494179,315.936638L587.369028,321.352149L586.504099,333.849437L586.950108,338.408808L593.877464,353.806968L595.311369,358.961628L595.082255,364.459340L592.166261,374.293165L592.618159,384.366970 " class="Interstate"/><path d="M67.614864,337.284254L72.140798,344.936365L82.001241,351.999351L89.438309,361.807230L92.571819,364.263628L94.245944,367.940059L96.899691,370.089567L98.576563,373.767292L101.472368,376.530221L102.672969,378.983083L109.196224,385.430907L111.114695,391.258042L112.086446,391.259945L116.206569,394.026756L119.838990,398.019308L124.449774,401.093360L130.529593,401.100569L131.504230,400.181266L142.446832,400.495873L142.928159,406.325750L149.253220,412.773566L150.957481,415.230115L156.568272,433.665996L160.233710,440.122969L169.530862,451.194413 " class="Federal"/><path d="M401.450186,363.448471L405.833147,374.098256L413.941606,388.075444L414.289490,392.052509L418.836422,399.039992L419.395208,401.791016L417.718984,411.625401L419.613641,418.963674L420.890424,439.522457 " class="Federal"/><path d="M169.530862,451.194413L171.970635,449.037403L188.095620,448.398568L202.553652,456.986236L205.976877,456.977048L208.916192,457.892506L214.047495,457.260959L217.257657,462.178201L224.375463,465.541700L232.946504,466.432187L234.649362,465.192645L236.084315,461.181962L250.452700,454.956137L259.197794,449.985244L264.808091,449.338310L270.927260,450.533205L277.509214,449.568993L285.537854,447.362122L289.876815,443.332903L306.141065,437.984568L310.036601,437.646356L315.702433,441.290114L322.539294,441.847267L329.657589,444.552368L346.673408,454.544020L356.243399,457.216461L362.450637,462.383820L370.062630,464.455447L372.252846,464.122902L376.754913,457.914815L383.235202,453.223530L384.397820,450.748656L384.348672,448.596083L386.262266,447.035596L387.280373,438.414928L390.887188,436.527647L394.042620,436.181971L400.899015,437.940695L403.073134,437.298556L417.996435,440.483687 " class="Federal"/><path d="M592.618159,384.366970L593.166957,385.883464L595.356433,386.446958L606.087711,400.276607L612.351571,410.846210L626.001689,445.160266L626.755302,450.973327L626.242646,466.034993L627.391754,475.227528 " class="Interstate"/><path d="M519.209905,444.692514L532.541700,444.438361L534.537943,445.935289L537.412474,451.408844L538.925265,452.915346L547.048716,449.680154L551.676045,450.200452L568.381432,455.688297L580.031562,461.888508L591.315566,465.016782L597.515189,468.256201L604.645010,470.549626L621.085200,475.075128L627.903940,475.829749 " class="Federal"/><path d="M2.646935,567.666711L8.371925,569.905393L15.961234,575.232050L25.558034,578.710611L27.510883,580.894546L33.090503,590.857695L34.565472,591.798035L36.268819,594.601697L37.461868,598.954419L45.714853,616.705495L55.812722,625.462902L61.402442,640.727441L65.826755,647.593218L67.808158,648.847235L69.027656,652.275931 " class="Federal"/><path d="M749.717346,303.693575L758.595065,313.142524L784.606397,331.183661L831.544434,374.061631L842.862528,376.718754L850.785813,381.619076L862.489751,386.381589L866.008911,385.950857L870.602888,387.307699L876.029063,387.110380 " class="Federal"/><path d="M892.130487,498.963365L906.676751,498.686219L907.288660,507.247820 " class="Federal"/><path d="M627.391754,475.227528L628.855800,480.726177L628.996765,483.798458L627.641986,485.985661L627.824273,489.981117L626.183737,491.253011L626.019148,498.337127L620.745011,510.789285L614.115898,520.508794L611.042824,528.294726L609.023336,532.355123L600.538429,545.218135L600.332692,552.018382L601.408944,566.208420L600.723323,573.337400L607.579638,591.112898L610.646580,594.130984L611.741852,596.889503 " class="Interstate"/><path d="M69.027656,652.275931L73.514787,651.362581L87.952714,651.420044L94.170179,652.686044L98.384109,656.745445L101.620765,657.066129L104.625152,653.339167L118.329268,650.569036L128.024295,657.743352L140.481426,657.132879L147.454592,663.362641L151.941301,665.854286L156.179454,665.542266L156.926487,663.673667L158.671133,663.361665L160.667160,665.851926L165.155457,666.471868 " class="Federal"/><path d="M46.716188,697.323756L53.380462,677.416790L57.422185,671.209093L65.512318,656.305270L69.027656,652.275931 " class="Federal"/><path d="M170.655989,675.811232L174.393860,673.314559L181.128556,672.993015L200.088924,673.573930L204.088518,675.431540L207.080770,675.110815L212.796999,671.042403L213.274056,666.992001L215.751238,664.180610L222.962931,661.662093L227.202552,662.267153L229.711042,664.747122L233.248446,671.582333L245.727724,673.077330L247.259885,677.430086L254.731667,676.141702L258.234570,677.366828L269.396878,671.377484L273.125643,670.417858L276.638175,672.573255L278.376059,671.937941L285.530948,665.657250L287.768847,665.328781L294.504561,666.209517 " class="Federal"/><path d="M46.716188,697.323756L46.143805,705.427628L43.869236,714.527486 " class="Federal"/><path d="M611.741852,596.889503L620.230027,612.156230L628.044903,622.795378L633.049514,630.720364L644.334273,653.051541L650.488829,658.773671L651.566538,660.915482L652.206442,664.311595L651.964379,675.807097L652.277429,677.350985L649.574361,683.331053L650.217600,692.634561L651.155452,697.269616L653.040855,700.944978L656.861249,703.630729L657.654700,704.850900L657.424221,707.431198 " class="Interstate"/><path d="M907.288660,507.247820L909.644805,547.378653L913.666369,567.201872L911.794136,588.834909L913.697529,616.806791L917.455353,651.218102L918.500055,670.642746L923.096143,677.856645L924.047242,684.927195L930.175996,689.595960L930.621757,692.669133L932.171853,696.915190 " class="Federal"/><path d="M577.783351,242.701945L583.823635,240.167029L586.489859,236.489741L587.310124,228.925527L585.486939,220.513285 " class="Interstate"/><path d="M545.694584,153.576186L545.368818,153.581666L536.752055,160.622951L532.626051,168.494543L526.001653,178.817151 " class="State"/><path d="M498.699647,9.649364L504.016559,15.502571L521.236616,33.003422L522.565760,41.868054L527.173540,46.245416L530.966140,53.008728L531.470213,63.983187L538.703235,69.516291L546.795293,78.307198L548.320218,110.757992L550.114663,124.168099L544.789925,125.451928L545.423065,154.779950 " class="Federal"/><path d="M525.110104,180.034035L540.530332,187.596481L549.943334,197.665662L562.229675,213.412901 " class="Federal"/><path d="M580.894814,256.647779L574.134263,256.078563L561.534359,255.712980L555.206434,257.646569L548.268473,256.562653L543.575679,252.410089L542.091959,245.478952L538.289906,239.801386L537.037460,233.681568 " class="State"/><path d="M386.134311,310.236442L387.868892,312.348579L386.953338,314.185864L382.679799,316.364819L381.755239,317.898000L384.278692,322.745674L383.901670,327.017202L385.517096,334.013118L394.562699,348.864787L396.397412,354.646514L399.339215,356.444686L401.730904,364.973634 " class="Federal"/><path d="M364.114145,251.238850L368.266704,255.137640L370.300352,260.270693L372.234143,261.160969L377.549869,273.241469L383.010733,281.078142L385.200103,291.993358L382.705319,297.797607L383.845111,305.086903L386.366944,309.929435 " class="Federal"/><path d="M875.601708,387.734979L876.257592,403.249436L879.702260,437.914009L885.907584,438.289715L887.176541,455.971854L889.315296,459.254152L889.814491,462.906362L889.885339,480.661518L892.130487,498.963365 " class="Federal"/><path d="M417.996435,440.483687L429.358230,437.868815L433.507246,438.424617L437.196081,439.908031L460.359285,458.312144L469.899086,467.697126L474.056926,468.244098L478.886252,466.932300L492.742700,459.003337L499.380408,453.966446L508.257987,450.732794L519.463464,444.994955 " class="Federal"/><path d="M590.414739,219.813996L590.062299,212.585913L593.862963,208.293472L605.406802,208.063880 " class="Other"/><path d="M558.563684,109.990506L574.223823,110.317882L601.893432,108.623595 " class="Federal"/><path d="M600.609508,224.779378L600.733943,237.413196L601.874856,246.151532L600.041321,252.235591L597.124590,255.622239L591.022684,256.955945L585.808418,257.060194L580.894814,256.647779 " class="State"/><path d="M537.037460,233.681568L536.195111,229.565321L541.434182,224.643730L542.631931,219.492760L547.269255,217.299847L576.621941,217.969198 " class="State"/><path d="M587.347757,192.937276L590.708174,196.914369L600.495733,213.585227L600.609508,224.779378 " class="State"/><path d="M543.268949,190.858994L551.079867,186.211847L558.103740,185.186199L563.112414,185.096794 " class="State"/><path d="M563.112414,185.096794L571.519772,184.944226L582.207346,186.850088L587.347757,192.937276 " class="State"/><path d="M562.965781,153.279108L545.694584,153.576186 " class="State"/><path d="M46.716188,697.323756L35.162455,703.486282L25.648664,704.979018L6.056125,712.934254L3.960930,714.260426 " class="Federal"/><path d="M172.660107,680.170926L169.197563,701.372520L170.020026,714.863276 " class="Federal"/><path d="M521.960708,169.539836L522.255016,176.518376L522.747816,178.580470L524.874860,180.875332 " class="Other"/><path d="M484.761322,115.420486L488.018444,116.146910 " class="Federal"/><path d="M475.453036,114.775625L479.020577,118.329105L481.018558,117.787242L483.681407,118.779837L487.020185,116.418065 " class="Federal"/><path d="M598.660899,106.640537L597.989768,101.520402 " class="Federal"/><path d="M945.169722,436.875635L950.990632,435.845947L977.296603,434.468440L978.714632,434.917801 " class="State"/><path d="M885.462195,437.932475L897.401702,439.051878L900.758224,440.236399L904.037262,440.371312L905.637358,442.675523L907.790822,444.168874L914.229760,442.861860L917.302696,443.002351L922.494335,441.479649L943.160842,437.221336 " class="State"/><path d="M488.018444,116.146910L491.890969,117.121456L497.672482,120.383641L499.762719,122.154816L501.502674,125.218321L505.644265,127.732066L514.841868,139.960668L516.976697,137.865644L519.814879,138.079461L520.137816,140.910010L521.360810,141.148737L525.332048,144.180486L524.768091,149.864647L521.359135,155.339020L521.960708,169.539836 " class="Federal"/><path d="M664.503541,666.410529L666.208520,666.627452L676.303163,664.990184L679.263628,664.900726L688.153389,669.437794L692.406167,669.840197L693.512934,670.874368L701.408049,672.228842L717.594811,683.195461L719.285160,683.139825L725.715362,680.522036L730.161152,676.366514L737.661650,674.244079L754.421989,675.802986L761.008331,672.634938L777.002843,664.324779L790.250367,664.107671L813.504203,662.699714L812.729747,652.866987L813.327309,652.311246L875.571775,649.823631L875.763380,649.549449L874.788942,634.157699L881.029272,633.897738L881.482866,631.219412L914.681399,629.532352L932.908718,628.723915L937.722701,629.303865L958.147231,627.836856L977.932508,618.151054L985.148051,615.155265L987.293352,613.461634L992.872538,610.807576 " class="Federal"/><path d="M429.847746,166.428062L431.415957,164.598842L436.809493,161.689351L437.782666,160.384912L439.050688,155.717613L437.299599,151.864108L442.594902,146.377198L442.348838,145.089695L446.323094,136.785377L444.554095,132.424458L444.633334,128.815623L443.147198,126.772728L442.233266,123.693047L442.620436,117.252421L443.515907,113.896644L443.436469,111.582553L446.105393,112.836269L448.200497,109.210256L451.539931,106.598361L454.602160,107.588559L457.133614,110.642053L459.765804,110.865835L461.839578,112.382316L461.684662,113.670305L464.730545,114.145449L466.710362,113.090868L466.767491,114.633400L469.208105,115.115876L470.937303,112.778191L473.156133,112.748766L473.510870,111.458285L475.960215,112.196973L476.939029,111.412408L481.444578,113.151342L482.946141,115.445503L486.213428,116.429285L489.994227,115.090392L492.263467,116.344477L494.801816,114.250901L496.987731,113.448249L499.628587,113.924577L501.739485,111.322977L507.918904,109.690431L512.005220,106.289453L517.683679,107.231975L519.360135,108.748204L523.217098,109.460128L525.161450,107.888495L528.471116,109.892698L533.442552,108.529939L534.908247,109.791411L537.960028,110.513643L547.611668,110.357202 " class="Federal"/><path d="M914.274662,6.233014L912.030032,3.017156 " class="Federal"/><path d="M946.213585,471.548879L945.022557,461.333562L941.732428,418.900224L939.016799,417.961070L938.464691,410.900241 " class="Federal"/><path d="M938.464691,410.900241L937.541158,399.139722L936.749336,396.813029L935.014005,374.888987 " class="Federal"/><path d="M948.349624,507.832770L947.452670,498.638317L945.559451,473.683027L946.213585,471.548879 " class="Federal"/><path d="M88.482710,342.352349L91.603836,342.361502L99.731828,340.016881L104.932829,340.029066L106.811350,338.718730L106.613184,336.615516 " class="Federal"/><path d="M584.336010,284.315891L583.505124,284.071494L580.687711,280.733834L578.171951,279.478605L569.048198,277.046938L567.282243,274.210331L565.219293,269.292984L560.873936,263.638160 " class="Federal"/><path d="M591.813513,79.337858L589.692599,73.234524L588.413781,71.722474L588.293100,69.423085L583.886576,57.745473L582.530308,54.704883L581.555174,36.105024L581.023492,33.566852L580.382338,25.177281L579.016391,21.893036L580.059968,19.078434L580.214571,14.500557L582.653848,8.393569 " class="Federal"/><path d="M552.830504,257.531691L552.705459,254.667762L551.581607,252.343717L551.365707,247.399559 " class="State"/><path d="M546.073839,90.362484L557.502830,90.175600 " class="State"/><path d="M244.796834,262.307695L245.259796,267.269481L247.548800,269.088858L249.037667,273.264555L252.154847,275.080624L254.071305,280.302400L257.634735,284.733186L271.724561,287.276757L276.914111,288.817818L278.168885,289.857610L279.655812,292.728834L281.742429,294.025649L285.465924,294.002845 " class="State"/><path d="M285.465924,294.002845L288.829201,297.648404L292.386113,300.245137L296.330542,301.004926L298.635902,302.823471L299.708036,305.174767L305.168037,309.854903L306.483872,314.303507L311.183952,322.664717 " class="State"/><path d="M596.184922,395.002562L601.370766,395.150625 " class="State"/><path d="M603.416008,394.578124L603.805794,394.042730L602.841454,373.015253L601.736725,371.462307L598.774508,369.950232L596.422889,363.694241L595.537796,362.399767 " class="State"/><path d="M73.045528,347.296900L74.918936,347.303850L87.017390,343.662650L89.328622,340.251534 " class="Federal"/><path d="M600.334847,111.744666L600.210134,105.585084L599.245928,102.523491L597.989768,101.520402L595.806682,90.534747L592.801652,82.904280L591.813513,79.337858 " class="Federal"/><path d="M804.596466,48.863906L803.069924,32.132781L801.489350,12.394518L803.920676,3.770489 " class="State"/><path d="M212.883746,95.253580L212.851886,90.885511L213.449392,89.599662L216.473832,88.307725L219.474357,84.191534L222.280605,81.360427L222.456532,78.280995L223.837192,74.429831L223.178415,68.279588L222.147777,65.720345L218.895487,62.655613L217.074689,61.892162L214.633754,59.082011L212.986995,54.479349L212.149182,50.132754L212.318330,45.785871L211.280478,41.443977L208.647981,38.895480L206.183812,31.241778L201.694954,20.029743L200.286493,11.895168 " class="State"/><path d="M182.092678,266.664454L181.459774,262.484998L182.487119,261.177536L183.091718,256.998353L181.431705,253.867920L178.540904,252.305586L175.648997,249.960247L172.967011,248.658390L167.602061,244.228360L162.446847,238.755907L160.385566,235.629124L159.560016,232.763155L158.320016,224.950221L158.316288,220.004655L157.492108,216.102080L157.690251,205.701446L157.070513,198.427218L156.249246,195.311337L155.837312,190.639050L156.245097,187.525216L155.629215,183.375108L155.832630,181.041299L159.512231,179.484769L160.737659,178.188198L167.685999,176.888455L171.348824,169.631338L172.758306,161.345814L174.182528,159.791936L176.831511,158.754340L173.961176,153.067210L175.576849,147.637247L177.403313,145.309789 " class="State"/><path d="M177.403313,145.309789L180.649632,141.689627L179.809052,133.687608L186.084716,126.456506L200.099642,125.400927L201.314142,124.624984L204.129612,119.979546L201.264550,116.121088L198.392044,110.461650L201.812360,105.822228L204.235116,104.273430L204.013289,101.187286L209.035745,95.005865 " class="State"/><path d="M798.828829,58.177062L801.713428,52.246825L804.596466,48.863906 " class="Federal"/><path d="M650.800272,678.037090L654.300276,675.529494L657.657972,669.818075L658.681791,668.986402L664.503541,666.410529 " class="Federal"/><path d="M414.765467,390.536398L418.910961,389.691261L425.926929,387.225139L428.983277,384.811557L431.064700,384.783106L433.093214,382.910521L432.772015,378.962961L431.649245,376.080957L431.997263,373.706043L434.446199,372.092558L435.431871,370.236050L440.587396,368.848000L443.416778,366.176178L447.824709,360.851280L450.327891,354.503802L455.238125,352.329368L458.571067,352.806009L465.713427,349.282465L479.543574,347.754986L492.995366,347.538257L495.534120,349.072524L499.926175,350.312801L506.752982,350.196950L511.135375,351.172205L513.873167,352.438102L515.429465,355.301155L516.690512,355.804486L519.302344,359.174844L523.581348,362.778395L528.826395,364.523283L531.486069,363.685474L533.596454,364.698027L533.854906,366.007942L538.645669,366.706959L540.683407,365.879545L542.773316,366.365664L547.064171,364.968751 " class="Federal"/><path d="M414.909101,578.904594L414.667667,534.142810L414.484420,518.184667L416.989577,517.086235L425.630702,516.697427L427.297035,515.875752L439.293131,507.193847L441.921041,503.169423L442.471657,500.239659L441.357707,490.433824L435.868743,482.024860L427.500707,467.827047L423.813157,463.373652L423.337430,461.260567L418.611485,457.087049L417.696809,454.186045L420.297008,449.384380L421.790713,442.482116 " class="Federal"/><path d="M439.520197,712.479482L438.040450,705.903614L437.577990,695.719390L445.120354,655.137644L455.126249,630.089135L455.288787,628.214864 " class="Federal"/><path d="M434.823738,370.770964L435.794193,361.283485L435.471227,357.342390L434.387588,355.779332L433.243007,352.113874L433.197233,343.441843L431.010315,339.530994L428.788347,327.222106L429.761383,318.028988L430.932109,315.654050L433.548163,313.260402L433.883135,310.635345L435.464375,308.256262L439.989969,307.671539L447.115635,297.885861L453.173173,293.876289L456.719186,288.856321L458.254557,285.435314L461.752815,285.385322L460.225885,282.793151L460.773625,280.694501L465.568064,276.445126L472.313966,275.301658L479.792757,277.540609L488.777469,281.582581L500.203398,284.798153L500.516549,282.180010L502.051557,279.281478L505.217332,276.095938L506.869095,276.330052L510.677092,273.917388L512.113000,273.893573L515.446135,269.922699L516.665856,269.641290L522.473810,266.151208L522.594849,264.062385 " class="Federal"/><path d="M415.622275,608.795865L414.909101,578.904594 " class="Federal"/><path d="M748.338170,129.295090L751.016602,130.511083L757.279789,131.634661L781.533248,138.957860L791.864863,146.643000L793.314452,147.374201L801.071837,147.158069L806.953118,148.534732L820.384629,147.122228L831.400313,148.085729L856.195600,147.598932L858.498227,149.069495L859.675633,151.345284L861.364058,152.577834L873.635143,152.195263L892.607513,153.901428L901.690269,153.605509L909.671058,154.369338L916.532234,155.937788L919.888732,158.135921L925.385023,157.693002L933.543356,156.130670L943.138834,155.285817L949.766862,156.593887L954.073821,158.735078 " class="Federal"/><path d="M627.732844,117.381096L640.177257,124.581743L651.191169,127.694607L656.430277,128.097819L670.647020,127.790626L672.094666,128.529996L681.709908,135.001359L686.729680,135.145001 " class="Federal"/><path d="M716.574998,590.687403L719.026271,585.289003L721.930520,584.665485L727.583755,580.496653L733.704557,577.375977L736.238599,573.838531L740.009116,569.995890L747.004859,560.204831L760.049725,547.034092L765.396851,542.081151L772.468505,534.684684L776.889760,528.439624 " class="Federal"/><path d="M664.503541,666.410529L668.979625,662.270235L681.422079,652.015286L682.466402,647.178115L686.424849,641.453107L691.727289,624.219760L699.048221,614.399680L701.479592,612.459574L705.471886,608.073489L712.397927,603.596241L715.093591,598.718979L716.574998,590.687403 " class="Federal"/><path d="M854.934076,232.488916L860.552563,232.565884L868.125946,232.059322L890.676911,231.305624L894.023530,230.674244L908.782968,230.424132L909.557589,230.138504L914.742344,222.977153L915.714362,222.684726L932.769593,221.822496L931.926640,214.363961L949.160341,213.743257L957.842277,213.167157L958.959654,212.352068 " class="Federal"/><path d="M668.631438,227.289078L670.823125,223.085935L701.537871,222.087306L705.469998,223.545440L720.374476,222.649426L725.771093,221.732568 " class="Federal"/><path d="M725.771093,221.732568L783.525266,220.159132L808.783672,219.163199L811.959288,221.397994L818.971757,221.186715L824.943723,225.923343L834.354970,225.632580L840.130251,230.371197L853.154754,230.215899L854.734085,232.495365 " class="Federal"/><path d="M931.926640,214.363961L931.327599,209.739678L930.312233,207.195590L931.101913,204.846161L930.591188,201.253968L931.065864,195.308879L930.774241,191.969771L931.803303,190.130688L929.845793,170.128927L931.772818,169.548303L931.037615,159.040631L929.882380,148.301445L927.005260,144.808482L925.393730,124.625861L924.032607,122.624034L923.389428,115.484125L921.983183,112.974039L921.419293,108.903762L917.560188,103.154560L915.730343,98.107818L912.513522,64.834915L911.819989,50.880280L913.019439,49.065983L912.247871,40.716466L919.999268,40.223551L917.172520,10.187920L914.274662,6.233014 " class="Federal"/><path d="M937.849546,291.075989L934.911842,251.490816L935.577531,245.252258L932.769593,221.822496 " class="Federal"/><path d="M939.112300,335.546651L938.069092,322.813614L937.285666,310.863991L935.558546,292.461621 " class="Federal"/><path d="M932.835645,375.497964L932.349281,374.470551L929.735448,344.257922L930.297189,343.714273L939.346574,343.364171L939.685044,342.568124L939.112300,335.546651 " class="Federal"/><path d="M545.531948,78.840790L547.407167,80.347311L555.818444,80.210821 " class="State"/><path d="M547.064171,364.968751L556.835978,361.098270L560.138753,356.040767L561.562035,355.487137L564.480384,360.946094L565.418270,363.555249L573.172646,370.757901L573.263221,372.859792L576.466637,375.160347L579.200148,376.155252L581.796202,378.731103L587.023314,379.935146L588.759078,381.739559L592.598439,384.287755 " class="Federal"/><path d="M522.594849,264.062385L522.899496,261.449290L523.881110,260.389601L531.368543,258.175302L531.422387,254.525624L533.789763,252.400092L531.948561,247.482999L533.561648,246.934280 " class="Federal"/><path d="M547.611668,110.357202L580.554173,109.793766L584.899234,112.284568L599.345574,112.019943L606.336647,111.375095L607.166018,111.873007L619.377166,111.381630L621.908613,113.643286L627.732844,117.381096 " class="Federal"/><path d="M992.872538,610.807576L992.948061,610.696161 " class="Federal"/><path d="M958.959654,212.352068L959.039071,212.313198 " class="Federal"/><path d="M875.263851,387.369292L878.397505,385.682043L899.034409,378.891041L901.587082,377.747593L905.392564,377.080219L913.058827,376.526636L918.618360,377.621790L923.488690,377.694970L932.048976,375.790510L948.886300,368.846198L958.411518,369.246777L961.673526,369.636999L972.925787,367.127777 " class="Federal"/></g><g class="map" id="airports"><circle cx="611.371505483" cy="389.200030298" data-abv="COS" class="airport" id=s"City of Colorado Springs" r="10"/><circle cx="606.143524258" cy="205.45105297" data-abv="DEN" class="airport" id="Denver Int'l" r="10"/></g><g class="map" id="uzones"><path d="M552.330887,76.256700L551.085072,73.330595L548.287047,69.082575L543.441241,68.775508L541.879946,71.469987L536.740415,76.877848L534.257251,76.749570L533.258336,79.701796L533.465205,86.184133L532.787654,88.375626L535.115217,89.951256L541.884732,90.428567L541.918268,92.042838L544.889821,91.995031L544.982019,93.899291L550.230864,92.034508L551.242140,91.146787L552.173045,88.063983L555.804034,81.858926L556.267792,80.364316L552.330887,76.256700Z " class="urban"/><path d="M314.289437,96.761641L311.204031,98.077397L306.744140,97.406099L303.943124,102.312919L312.879902,101.003250L315.899355,101.311264L315.905501,98.409137L314.289437,96.761641Z " class="urban"/><path d="M549.698840,112.651218L552.508539,107.732847L550.001972,105.246276L546.406970,100.067210L538.997919,107.436919L538.392006,108.827977L538.736344,112.631570L541.564675,116.852221L544.422156,117.061795L547.371360,112.936587L549.698840,112.651218Z " class="urban"/><path d="M601.288101,115.807459L587.468364,108.427241L597.254063,114.761601L601.288101,115.807459Z " class="urban"/><path d="M719.696767,135.755143L722.979868,131.944416L717.033055,129.143676L713.983283,132.502141L718.012758,135.647723L719.696767,135.755143Z " class="urban"/><path d="M550.458842,147.312784L548.929479,144.438142L546.949131,142.463204L542.613102,139.774430L541.018555,137.888145L537.779762,144.909322L536.927393,149.348318L540.212833,156.963078L543.062145,157.034035L550.646387,153.849833L551.755722,151.222842L550.458842,147.312784Z " class="urban"/><path d="M166.973578,150.613965L169.119088,149.565427L168.110292,145.344695L165.630049,144.978669L162.512855,148.765098L164.489632,150.255700L166.973578,150.613965Z " class="urban"/><path d="M588.331048,185.018547L586.550492,179.286125L584.288644,174.721084L583.255080,173.580898L579.964846,180.546531L579.206316,183.270108L588.331048,185.018547Z " class="urban"/><path d="M605.560592,198.145932L605.361416,194.308737L603.952059,193.926654L601.040402,198.235920L597.938172,203.925959L599.534427,208.726785L601.803208,209.693246L605.950857,205.853298L609.122047,203.963846L605.560592,198.145932Z " class="urban"/><path d="M353.964911,248.295426L356.539189,247.673862L358.138380,245.858259L358.337409,242.343492L356.993835,240.612324L352.262233,238.854109L353.784831,244.314514L350.756805,246.251698L350.823113,248.214103L353.964911,248.295426Z " class="urban"/><path d="M421.034071,247.478641L418.805834,241.395390L416.435948,240.008242L413.319754,244.167156L414.841632,246.676276L417.494368,247.665847L421.034071,247.478641Z " class="urban"/><path d="M246.904478,258.160507L239.286410,258.621347L239.262777,256.684718L238.007908,256.412560L235.040807,259.251816L235.856885,261.718139L241.642425,263.838486L242.878256,267.347101L243.973397,268.341068L245.856772,265.883520L246.989640,262.504984L248.203769,262.096518L246.904478,258.160507Z " class="urban"/><path d="M585.764346,289.417409L586.828153,286.867020L586.971126,283.680545L586.007452,280.945874L583.372762,288.018058L585.764346,289.417409Z " class="urban"/><path d="M315.521434,325.386027L316.987732,322.379260L315.193947,321.211967L311.012391,319.683657L310.191921,322.634584L312.775550,325.186899L315.521434,325.386027Z " class="urban"/><path d="M76.740123,337.766432L64.333977,335.881353L60.481276,337.090176L57.617429,340.382651L62.240960,342.372804L63.771505,344.329773L69.037059,349.324941L72.329966,350.656272L77.604629,348.670915L80.769167,346.339636L85.629610,345.096226L87.245295,343.790749L83.637018,341.000155L76.740123,337.766432Z " class="urban"/><path d="M597.161915,358.545278L593.127424,354.591611L589.026165,353.174119L586.774769,353.011530L583.002285,356.940972L583.226431,363.685317L583.150065,377.254654L585.150149,382.179041L588.824648,385.786176L590.629700,390.260416L600.720930,398.589028L601.554670,400.205874L609.341476,401.986924L610.796157,399.987877L609.167274,398.063649L607.362445,392.242561L611.949098,386.956329L611.522617,382.371448L613.120906,381.683873L612.873472,378.425266L607.707395,369.976424L607.886921,367.615070L605.930638,366.274905L604.443560,363.103957L605.821979,359.056410L605.652328,357.229030L604.010718,353.236155L601.557188,353.559973L600.079889,358.267578L598.157102,359.216354L597.161915,358.545278Z " class="urban"/><path d="M414.328022,386.131122L418.754990,383.853374L416.541956,381.727492L411.006793,380.597438L409.464260,383.984163L411.306724,385.221931L414.328022,386.131122Z " class="urban"/><path d="M433.314602,439.830821L435.433766,438.668161L438.887211,434.260834L438.717943,432.628570L430.940598,432.743801L431.582006,438.392634L433.314602,439.830821Z " class="urban"/><path d="M170.701379,452.410689L170.581757,448.127268L168.587167,446.189132L162.863851,444.535634L165.278065,450.379940L170.701379,452.410689Z " class="urban"/><path d="M530.289333,447.478517L527.863676,450.778944L532.142455,454.983012L545.276146,452.268786L546.472897,450.399741L538.677588,447.928425L530.893704,448.740938L530.289333,447.478517Z " class="urban"/><path d="M560.975278,460.565208L554.480569,458.979741L553.057254,460.093856L554.145214,463.885891L559.645412,469.805320L559.796983,465.753725L560.975278,460.565208Z " class="urban"/><path d="M632.107424,467.597813L632.390284,466.162940L628.479136,465.810897L624.651914,466.349956L624.736945,468.304512L622.225664,468.172172L621.522745,469.132605L621.820292,472.313588L618.900753,476.323624L619.076866,480.251915L615.748413,485.439329L617.889259,488.156343L619.606737,492.052916L635.966622,482.052938L635.854808,478.251970L632.248596,474.253263L631.114585,472.085076L630.932846,468.167811L632.107424,467.597813Z " class="urban"/><path d="M166.057109,654.166146L159.913895,656.461456L158.601019,657.793551L158.319009,660.457734L161.678763,658.988129L162.316097,661.390226L162.145030,665.331899L165.238111,669.143829L172.898898,669.416449L177.462193,664.418538L178.777211,664.509145L179.697888,662.485891L179.037673,654.448529L173.955178,652.901874L167.876127,654.457409L166.057109,654.166146Z " class="urban"/><path d="M467.328294,669.574788L468.964561,663.361854L466.690517,660.552228L462.694524,660.284645L459.176936,661.740958L465.393359,669.559976L467.328294,669.574788Z " class="urban"/><path d="M654.127387,679.103982L657.524599,677.012014L656.021857,672.733669L653.495025,668.673785L646.987594,666.320917L646.233328,671.374939L642.925807,673.243728L643.248018,675.448411L646.285895,677.486520L650.142786,678.983021L654.127387,679.103982Z " class="urban"/><path d="M167.563152,690.387762L169.676677,689.536975L168.281855,684.302501L166.169602,685.154398L164.931603,687.112277L164.724572,690.337709L167.563152,690.387762Z " class="urban"/><path d="M164.811947,714.867058L162.061066,712.648535L158.351796,712.286343L158.511321,714.871633L164.811947,714.867058Z " class="urban"/><path d="M533.615417,167.862409L533.203167,164.860263L523.860911,168.146813L521.090734,168.861890L518.391540,167.144282L516.496449,167.396220L516.109015,168.654718L513.978728,169.895341L513.194911,172.096633L512.678971,178.653155L515.820003,180.248289L518.233552,180.822528L525.070638,186.137107L527.089952,185.567100L530.112448,182.849363L532.444450,182.182728L533.686727,184.542917L535.617295,185.960335L535.655015,188.989949L538.211906,191.184106L540.149656,194.370717L541.181009,200.502018L542.301840,203.239154L540.578743,204.581871L536.963646,205.795614L535.316213,207.620049L532.116096,217.761972L530.460983,219.832084L528.443633,220.586495L525.162866,222.915908L531.401617,226.945372L538.791341,239.492246L539.329232,243.116403L541.985560,245.125928L544.070167,252.169309L546.491240,254.882690L555.385358,257.058099L559.885462,261.455891L564.437949,261.251125L567.311188,260.069468L569.521982,260.707556L572.352585,262.529671L575.270505,262.703583L579.851331,260.458397L580.233979,261.884216L585.644085,254.526772L590.182197,254.436291L590.655183,264.122865L595.763917,263.768020L597.428222,262.537395L598.053388,260.086498L596.810034,259.218751L594.740491,254.332321L589.360464,252.542044L588.498602,250.604685L590.931302,248.932228L600.429105,246.482585L599.515994,242.460836L596.307088,236.599874L595.232783,233.070982L596.734813,233.035228L598.645411,226.611571L597.850752,223.376779L596.071363,219.542561L595.142028,213.243992L588.679973,214.015982L586.253558,211.959202L583.756578,208.657546L581.680236,207.923726L578.157161,207.885171L577.319878,206.403554L577.018235,192.052377L573.664043,192.985412L566.625774,189.435739L564.932810,186.578982L560.543590,185.431898L552.204605,185.663644L549.120876,187.746952L547.472549,187.994783L546.190924,185.775447L546.948801,183.963731L550.055115,182.213179L550.447056,179.947712L548.798472,177.607227L548.764756,176.126382L546.499918,174.641951L536.630158,174.402364L533.615417,167.862409Z " class="urban"/></g><g class="map" id="states"><path d="M661.176437,6.971118L598.884895,8.120539L578.073563,8.470616L515.518733,9.421101L494.623981,9.704677L431.838557,10.455063L410.881111,10.671656L347.921000,11.220690L305.893672,11.502494L242.800576,11.798573L221.756184,11.863477L158.605101,11.956693L116.497362,11.934228L53.370495,11.773690L32.329506,11.686340L11.301384,11.582124L8.045825,205.148678L6.663219,292.380803L5.658526,358.218061L2.470777,579.918121L0.698432,714.234475L27.912622,714.450952L109.589387,714.842706L136.823637,714.887382L191.297038,714.847825L218.531729,714.763586L300.193985,714.253199L327.389866,713.997302L408.885896,712.972761L436.017999,712.545717L517.252203,711.009385L544.271288,710.412450L625.128164,708.368322L652.016882,707.602545L732.406754,705.055170L759.110033,704.122981L838.924295,701.078700L865.422458,699.981904L985.917551,694.445914L999.301568,693.774943L995.534652,643.968617L990.384893,577.724991L986.423876,528.184741L979.653372,445.910868L972.663505,364.056337L968.378383,315.182433L962.546400,250.296853L956.589388,185.783634L955.083656,169.710489L954.099766,159.014862L950.143633,116.352359L941.036180,21.041385L938.972436,0.000000L899.761127,1.175631L822.383030,3.310511L775.717408,4.473155L713.225689,5.905640L677.645431,6.641666L661.176437,6.971118Z " id="Colorado" class="neighbor"/><path d="M0.698432,714.234475L2.470777,579.918121L5.658526,358.218061L6.663219,292.380803L8.045825,205.148678L11.301384,11.582124L0.000000,11.517939L0.000000,714.227366L0.698432,714.234475Z " id="Utah" class="neighbor"/><path d="M955.083656,169.710489L956.589388,185.783634L962.546400,250.296853L968.378383,315.182433L972.663505,364.056337L979.653372,445.910868L986.423876,528.184741L990.384893,577.724991L995.534652,643.968617L999.301568,693.774943L1000.000000,693.738845L1000.000000,168.055992L986.154864,168.579220L955.083656,169.710489Z " id="Kansas" class="neighbor"/><path d="M955.083656,169.710489L986.154864,168.579220L1000.000000,168.055992L1000.000000,0.000000L938.972436,0.000000L941.036180,21.041385L950.143633,116.352359L954.099766,159.014862L955.083656,169.710489Z M677.645431,6.641666L713.225689,5.905640L775.717408,4.473155L822.383030,3.310511L899.761127,1.175631L938.972436,0.000000L677.242757,0.000000L677.645431,6.641666Z " id="Nebraska" class="neighbor"/></g></svg>