<?xml version="1.0" encoding="utf-8"?><!DOCTYPE svg  PUBLIC '-//W3C//DTD SVG 1.1//EN'  'http://www.w3.org/Graphics/SVG/1.1/DTD/svg11.dtd'>
<svg xmlns="http://www.w3.org/2000/svg" version="1.1" style="fill:none;" width="100%" height="100%" viewbox="-50 -50 1100 827">
    
<!--svg enable_background="new 0 0 1000 727" height="727px" pretty_print="False" style="stroke-linejoin: round; stroke:#000; fill: none;" version="1.1" viewBox="0 0 1000 727" width="1000px" xmlns="http://www.w3.org/2000/svg" xmlns:xlink="http://www.w3.org/1999/xlink"--><defs><style type="text/css"><![CDATA[path { fill-rule: evenodd; }]]></style></defs><metadata><views><view h="727.728140647" padding="0" w="1000"><proj dist="1.3" id="satellite" lat0="41.6" lon0="-72.7" tilt="0" up="0"/><bbox h="50.83" w="69.95" x="962.77" y="977.91"/></view></views></metadata>
<g class="map" id="states"><path d="M194.864103,2.929062L257.236760,5.739521L319.624404,8.498409L382.000558,11.138198L416.570176,12.535835L449.416552,13.937815L477.134846,16.556333L477.737426,34.525550L499.842224,32.323761L502.781692,16.580188L573.117995,17.632358L585.058065,21.358558L591.640970,22.495573L596.019926,22.253888L605.370799,17.423597L707.062130,19.133751L782.752896,20.278735L858.438068,21.297688L934.139674,22.224035L992.638227,22.090297L993.118409,29.510729L1000.000000,29.299835L1000.000000,0.000000L132.533763,0.000000L194.864103,2.929062Z " id="Massachusetts" class="neighbor"/><path d="M42.164404,725.247533L45.904416,721.648763L53.829790,720.576935L58.123217,718.832917L61.959336,710.960124L65.630536,710.410624L69.149221,716.570239L82.254512,713.842987L91.757210,707.095327L96.753319,705.489514L103.927392,712.309698L113.945125,697.874959L123.881776,690.183533L129.408565,689.618011L148.742070,677.167148L155.980127,674.031810L178.960254,658.735828L183.029118,657.534063L187.139074,654.760316L194.438734,654.285003L203.641171,649.586855L212.163332,648.528709L219.476024,647.443142L223.808442,643.264074L227.598166,635.430201L231.792834,638.545599L235.279991,647.118307L240.171912,645.383781L249.382380,640.078258L254.957047,634.103439L258.069931,629.906605L259.980142,625.079030L259.548306,615.790453L261.676636,613.137568L267.962355,620.361778L280.775653,616.954422L280.930581,608.447020L288.161022,611.617908L295.923767,619.049336L306.712654,627.142781L320.093573,626.174492L319.041075,617.041587L320.732829,608.244074L322.651856,604.352175L327.501732,596.825375L332.165537,592.917678L343.507979,587.607407L348.806574,582.830474L356.625759,587.353365L369.402218,586.370458L375.563594,576.029984L380.309520,571.050602L393.666770,552.176551L413.025359,533.370592L414.426560,529.893651L418.809706,523.112116L423.460200,518.660625L425.603854,521.837907L426.958871,537.953680L431.034612,545.766763L430.773840,552.852736L432.469132,560.174180L451.331312,559.906810L458.180032,550.914922L466.673719,552.282780L473.506091,550.167136L477.303229,551.435211L485.730474,544.848546L491.091947,542.889006L510.863675,541.527696L517.952792,542.906034L523.016308,545.882837L527.573935,549.532669L532.638802,552.283770L539.202407,552.395505L543.296074,549.587680L547.304174,544.758440L552.113317,540.209147L581.644970,533.505064L593.526587,536.942747L614.938008,547.321613L620.626927,542.819312L624.488199,542.811355L625.888088,546.401341L629.101166,549.089058L631.914728,552.282688L638.455951,542.667448L648.902503,535.230376L660.534262,530.482072L670.464985,529.020309L692.620334,537.365913L703.508853,538.138743L713.261052,528.864552L711.190135,527.862526L706.154786,523.756451L711.384086,507.314076L706.536276,496.526162L697.924951,487.464250L691.858986,476.314012L701.764834,477.343720L709.283157,481.974071L714.408651,488.606153L717.007357,495.472827L716.737528,501.733850L714.777238,507.047467L713.446994,511.853095L715.153845,516.898738L718.327792,519.608235L725.616331,522.776738L729.321740,526.240946L745.911606,533.573681L777.447802,514.265106L791.414006,523.335589L794.283257,505.129276L807.905078,505.972202L824.854959,513.020295L837.655094,513.606759L842.555875,505.741021L845.563452,489.411111L851.602527,485.269426L876.195032,508.662209L908.862272,490.570466L913.845258,489.376657L947.582759,488.284889L954.166152,489.513326L961.046235,493.151718L966.145224,497.704775L969.235804,504.631049L958.235774,512.319338L961.628316,518.450901L974.163289,512.642165L975.232803,505.252797L978.348919,491.614153L982.592319,456.760736L985.592969,447.399900L988.807891,441.910125L995.542948,440.054695L997.830716,397.438260L999.311985,368.841887L994.599593,109.159715L993.859447,69.308625L993.118409,29.510729L992.638227,22.090297L934.139674,22.224035L858.438068,21.297688L782.752896,20.278735L707.062130,19.133751L605.370799,17.423597L596.019926,22.253888L591.640970,22.495573L585.058065,21.358558L573.117995,17.632358L502.781692,16.580188L499.842224,32.323761L477.737426,34.525550L477.134846,16.556333L449.416552,13.937815L416.570176,12.535835L382.000558,11.138198L319.624404,8.498409L257.236760,5.739521L194.864103,2.929062L132.533763,0.000000L130.245533,31.921051L116.403770,223.392124L109.472198,319.094345L94.528565,523.643716L117.752545,565.598219L125.450417,577.053718L117.163871,583.239712L60.100750,618.118980L8.071188,649.796871L0.688015,654.622800L3.497667,659.589572L28.275368,700.100141L29.954748,702.122769L35.244965,707.250501L37.785061,713.221481L41.554678,725.728141L42.164404,725.247533Z " id="Connecticut" class="neighbor"/><path d="M993.118409,29.510729L993.859447,69.308625L994.599593,109.159715L999.311985,368.841887L997.830716,397.438260L995.542948,440.054695L988.807891,441.910125L985.592969,447.399900L982.592319,456.760736L978.348919,491.614153L975.232803,505.252797L974.163289,512.642165L983.543936,508.291749L1000.000000,504.004307L1000.000000,29.299835L993.118409,29.510729Z " id="Rhode Island" class="neighbor"/><path d="M751.556109,688.381366L749.286384,681.156118L750.444497,674.294260L742.711395,672.300214L737.550673,670.686044L728.440597,663.587214L725.743123,656.369345L719.346557,657.343953L718.654440,666.334320L708.098541,673.798779L702.680296,681.595506L703.278977,690.990142L709.808999,697.281527L719.183978,695.396746L731.154317,695.173467L741.506955,700.110878L747.584455,705.128579L753.172943,706.734616L753.079417,701.606011L749.550946,695.686449L751.556109,688.381366Z M855.100603,662.642492L855.389591,659.109771L848.664674,657.824654L839.434671,654.469350L827.969050,645.161740L829.519697,652.893060L826.082013,657.895986L822.615278,661.489466L825.488835,664.257616L832.550244,664.122780L839.993771,665.744450L842.922307,672.042228L843.798322,681.550767L843.961869,690.720879L851.552641,681.050736L853.938761,676.419939L852.067940,670.458903L851.966278,664.817044L855.100603,662.642492Z M669.985090,725.728141L668.230897,718.018690L668.952745,711.310275L672.214720,708.058100L682.116839,705.453334L693.327815,707.248643L696.139051,698.280356L692.110554,696.415362L688.375448,693.566804L680.393051,691.450069L681.910926,684.245277L717.520164,650.096264L737.830377,637.769195L745.668590,650.556526L752.550165,647.968447L760.811960,642.425378L767.710270,635.204269L770.376030,627.359861L767.470679,621.229499L760.817806,617.728725L752.739954,616.535481L745.517913,617.581775L717.553562,631.854472L709.630391,638.454573L697.041531,653.826963L681.554526,667.056908L664.793109,669.844414L660.298756,677.737240L651.079317,690.501675L614.862986,712.746516L596.190039,725.728141L669.985090,725.728141Z M748.250201,725.728141L741.321281,724.607141L739.817471,714.721710L736.950841,704.268672L729.229168,704.091229L723.744505,707.656404L729.532472,724.724427L728.922526,725.728141L748.250201,725.728141Z M838.078276,725.728141L835.158816,723.456802L832.656294,716.207483L815.583521,690.396532L809.605893,689.298521L802.790892,695.949875L799.449033,722.105825L785.266568,701.062482L774.886918,698.183045L771.526758,702.530284L770.343415,708.545477L767.214271,716.452545L759.512925,717.995962L756.572568,725.728141L838.078276,725.728141Z M884.623329,725.728141L892.023082,722.660456L933.136347,701.294945L956.252348,695.869444L966.582081,684.264259L970.411836,677.576057L961.187442,674.918583L946.482745,668.881718L932.172120,673.071769L938.475913,682.600773L938.512976,686.893296L930.941949,682.644026L924.718545,676.805051L918.105572,679.455204L917.881959,695.617341L909.081410,697.684647L900.186705,693.464538L890.365999,698.737557L870.636428,715.730679L850.837848,724.746946L846.450728,725.728141L884.623329,725.728141Z M910.677751,538.891462L922.879573,536.752456L932.472718,532.933548L936.181847,526.403444L926.320740,525.940983L919.031064,529.790333L898.264660,532.472397L896.202901,538.696932L893.501982,543.595516L889.312862,537.287179L883.722089,536.883917L881.650243,543.766864L876.324026,547.974365L875.224204,555.859121L883.494287,553.006868L895.984750,554.160670L901.332610,548.308559L910.677751,538.891462Z M132.533763,0.000000L0.000000,0.000000L0.000000,725.728141L41.554678,725.728141L37.785061,713.221481L35.244965,707.250501L29.954748,702.122769L28.275368,700.100141L3.497667,659.589572L0.688015,654.622800L8.071188,649.796871L60.100750,618.118980L117.163871,583.239712L125.450417,577.053718L117.752545,565.598219L94.528565,523.643716L109.472198,319.094345L116.403770,223.392124L130.245533,31.921051L132.533763,0.000000Z " id="New York" class="neighbor"/></g>
<g class="map" id="CT"><path d="M42.164404,725.247533L45.904416,721.648763L53.829790,720.576935L58.123217,718.832917L61.959336,710.960124L65.630536,710.410624L69.149221,716.570239L82.254512,713.842987L91.757210,707.095327L96.753319,705.489514L103.927392,712.309698L113.945125,697.874959L123.881776,690.183533L129.408565,689.618011L148.742070,677.167148L155.980127,674.031810L178.960254,658.735828L183.029118,657.534063L187.139074,654.760316L194.438734,654.285003L203.641171,649.586855L212.163332,648.528709L219.476024,647.443142L223.808442,643.264074L227.598166,635.430201L231.792834,638.545599L235.279991,647.118307L240.171912,645.383781L249.382380,640.078258L254.957047,634.103439L258.069931,629.906605L259.980142,625.079030L259.548306,615.790453L261.676636,613.137568L267.962355,620.361778L280.775653,616.954422L280.930581,608.447020L288.161022,611.617908L295.923767,619.049336L306.712654,627.142781L320.093573,626.174492L319.041075,617.041587L320.732829,608.244074L322.651856,604.352175L327.501732,596.825375L332.165537,592.917678L343.507979,587.607407L348.806574,582.830474L356.625759,587.353365L369.402218,586.370458L375.563594,576.029984L380.309520,571.050602L393.666770,552.176551L413.025359,533.370592L414.426560,529.893651L418.809706,523.112116L423.460200,518.660625L425.603854,521.837907L426.958871,537.953680L431.034612,545.766763L430.773840,552.852736L432.469132,560.174180L451.331312,559.906810L458.180032,550.914922L466.673719,552.282780L473.506091,550.167136L477.303229,551.435211L485.730474,544.848546L491.091947,542.889006L510.863675,541.527696L517.952792,542.906034L523.016308,545.882837L527.573935,549.532669L532.638802,552.283770L539.202407,552.395505L543.296074,549.587680L547.304174,544.758440L552.113317,540.209147L581.644970,533.505064L593.526587,536.942747L614.938008,547.321613L620.626927,542.819312L624.488199,542.811355L625.888088,546.401341L629.101166,549.089058L631.914728,552.282688L638.455951,542.667448L648.902503,535.230376L660.534262,530.482072L670.464985,529.020309L692.620334,537.365913L703.508853,538.138743L713.261052,528.864552L711.190135,527.862526L706.154786,523.756451L711.384086,507.314076L706.536276,496.526162L697.924951,487.464250L691.858986,476.314012L701.764834,477.343720L709.283157,481.974071L714.408651,488.606153L717.007357,495.472827L716.737528,501.733850L714.777238,507.047467L713.446994,511.853095L715.153845,516.898738L718.327792,519.608235L725.616331,522.776738L729.321740,526.240946L745.911606,533.573681L777.447802,514.265106L791.414006,523.335589L794.283257,505.129276L807.905078,505.972202L824.854959,513.020295L837.655094,513.606759L842.555875,505.741021L845.563452,489.411111L851.602527,485.269426L876.195032,508.662209L908.862272,490.570466L913.845258,489.376657L947.582759,488.284889L954.166152,489.513326L961.046235,493.151718L966.145224,497.704775L969.235804,504.631049L958.235774,512.319338L961.628316,518.450901L974.163289,512.642165L975.232803,505.252797L978.348919,491.614153L982.592319,456.760736L985.592969,447.399900L988.807891,441.910125L995.542948,440.054695L997.830716,397.438260L999.311985,368.841887L994.599593,109.159715L993.859447,69.308625L993.118409,29.510729L992.638227,22.090297L934.139674,22.224035L858.438068,21.297688L782.752896,20.278735L707.062130,19.133751L605.370799,17.423597L596.019926,22.253888L591.640970,22.495573L585.058065,21.358558L573.117995,17.632358L502.781692,16.580188L499.842224,32.323761L477.737426,34.525550L477.134846,16.556333L449.416552,13.937815L416.570176,12.535835L382.000558,11.138198L319.624404,8.498409L257.236760,5.739521L194.864103,2.929062L132.533763,0.000000L130.245533,31.921051L116.403770,223.392124L109.472198,319.094345L94.528565,523.643716L117.752545,565.598219L125.450417,577.053718L117.163871,583.239712L60.100750,618.118980L8.071188,649.796871L0.688015,654.622800L3.497667,659.589572L28.275368,700.100141L29.954748,702.122769L35.244965,707.250501L37.785061,713.221481L41.554678,725.728141L42.164404,725.247533Z " id="Connecticut" class="state"/></g>
<g class="map" id="uzones"><path d="M780.608709,242.986934L786.165464,237.001179L788.557011,226.851646L788.349786,213.203218L777.712592,216.463010L770.121219,223.934412L771.312220,244.031297L780.608709,242.986934Z " class="urban"/><path d="M393.356484,344.111441L393.414417,321.054081L358.884139,317.580249L347.573885,313.225651L345.075556,309.736628L340.472836,299.937213L336.175789,297.863428L336.289150,298.977646L332.500363,303.999508L330.435952,305.483984L310.587347,307.124176L304.458294,310.107965L305.658377,323.631626L318.826197,328.482022L322.923627,331.881972L340.002989,361.580974L341.567797,366.847132L335.864797,366.822243L335.300030,369.547618L335.773700,382.182848L334.244202,383.626465L331.969529,383.821639L330.185594,385.153392L330.038252,389.869136L334.320945,391.518213L336.378349,393.499960L335.731577,397.557348L347.016596,394.345054L357.900379,378.644291L368.751822,372.058055L369.015975,369.694002L370.329536,367.019391L372.627095,366.206993L379.180923,367.358051L381.804992,367.056966L393.356484,344.111441Z " class="urban"/><path d="M849.653322,390.101236L858.097646,366.111242L860.417591,363.963450L867.333236,360.908789L869.457152,358.383011L870.142969,353.028122L868.929801,340.829135L869.270074,335.321840L842.566765,332.484379L832.049712,337.620295L823.493160,350.984121L830.844341,356.539343L836.988199,363.666702L840.736701,374.071976L849.653322,390.101236Z " class="urban"/><path d="M139.614178,417.915801L137.763706,412.843799L131.455929,410.638277L129.008124,403.748020L111.556213,426.594313L107.380111,431.477756L105.728145,434.203406L102.924691,441.835600L101.608410,450.159689L102.293405,458.188546L105.438557,464.888342L115.116868,470.637075L169.510113,429.277836L169.153725,411.779816L165.475188,406.082304L148.482026,416.480326L140.373352,419.182489L139.614178,417.915801Z " class="urban"/><path d="M845.563452,489.411111L851.602527,485.269426L871.152180,503.865368L870.290532,501.176693L878.167955,491.267284L878.220849,488.235353L862.280033,470.142826L858.817361,465.713355L856.683245,456.629592L856.708280,447.916604L854.837859,440.467855L847.047188,435.134388L846.208114,438.408229L823.154703,444.288447L816.592288,479.083941L818.651585,489.007593L824.397104,488.992995L832.049976,492.760805L842.912653,503.803862L845.563452,489.411111Z " class="urban"/><path d="M227.598166,635.430201L231.792834,638.545599L235.279991,647.118307L240.171912,645.383781L249.382380,640.078258L254.957047,634.103439L258.069931,629.906605L259.980142,625.079030L259.548306,615.790453L261.676636,613.137568L267.962355,620.361778L280.775653,616.954422L280.930581,608.447020L288.161022,611.617908L295.923767,619.049336L306.712654,627.142781L320.093573,626.174492L319.041075,617.041587L320.732829,608.244074L322.651856,604.352175L327.501732,596.825375L332.165537,592.917678L343.507979,587.607407L348.806574,582.830474L356.625759,587.353365L369.402218,586.370458L375.563594,576.029984L380.309520,571.050602L393.666770,552.176551L413.025359,533.370592L414.426560,529.893651L418.809706,523.112116L423.460200,518.660625L425.603854,521.837907L426.958871,537.953680L431.034612,545.766763L430.773840,552.852736L432.469132,560.174180L451.331312,559.906810L458.180032,550.914922L466.673719,552.282780L473.506091,550.167136L477.303229,551.435211L478.227171,550.713066L471.118886,547.374197L479.995907,525.432580L474.456772,522.962450L469.812480,518.835839L467.170196,512.934809L467.684126,505.233844L482.692910,510.128703L487.010296,508.314490L478.833554,490.864803L462.379770,492.960031L456.213608,482.191937L456.128973,464.806961L462.034871,436.244913L465.229292,432.216204L475.658924,424.986048L479.308118,420.931333L479.905364,417.647360L479.120741,409.131871L479.325333,405.604583L485.033071,405.616114L484.641159,393.473833L485.070159,390.332059L486.187140,389.952291L489.634182,390.645272L491.067650,388.719051L490.530321,384.131824L491.997931,382.259848L495.382227,382.985853L496.814732,381.058841L496.289511,376.371766L496.589050,374.927522L501.951931,371.990490L507.601267,370.394302L508.115826,353.280148L503.210942,341.344398L502.149754,329.017410L508.080211,321.333465L547.844387,354.395540L569.260186,329.788076L566.089250,319.175461L565.412331,305.964365L566.550879,302.121288L569.945751,299.796536L571.621839,292.953594L570.352543,280.452950L571.126207,275.312302L574.311900,271.208349L589.940055,256.561887L592.282535,248.082633L593.958612,244.636365L596.589954,242.633298L605.383182,236.942846L605.886179,228.527687L599.880139,214.460588L599.642538,206.283749L614.044852,208.058900L623.428976,204.158312L633.872522,190.919170L638.565672,191.263532L640.193784,187.530690L639.282115,179.086875L639.598398,175.531280L643.810636,170.694763L645.279066,167.899036L655.965204,129.080576L633.700419,121.885560L633.071239,130.684616L630.768933,137.062846L627.083388,141.578013L622.329809,144.900800L619.285923,145.040754L617.834584,142.366142L616.645676,137.248224L613.660844,137.893792L612.041994,140.578019L610.901349,144.920599L592.161000,143.451978L586.604144,140.665623L582.388929,137.305332L577.247949,130.250505L577.916602,124.139554L580.793584,116.957797L576.665238,106.650676L576.166264,104.034093L576.269713,70.366150L580.797628,64.012216L599.402464,60.703273L608.497960,17.476187L605.370799,17.423597L596.019926,22.253888L591.640970,22.495573L585.058065,21.358558L573.117995,17.632358L566.761891,17.537277L565.912278,18.736812L565.151875,22.357979L570.860538,22.392979L571.209257,24.923634L570.870637,37.680410L569.776489,41.540779L566.351391,43.848449L565.175799,45.364993L564.808579,48.978885L565.628298,57.175233L565.181733,60.700109L558.360731,72.813531L551.598775,73.657156L543.053789,69.921741L526.371080,77.818506L526.729673,85.837324L530.957787,106.674754L520.223370,107.531350L513.813407,114.314491L512.857389,119.081645L509.094408,125.711159L507.157071,133.541896L502.435010,137.339436L499.763960,169.085789L496.712257,175.609329L485.815336,188.850872L473.851084,198.618093L458.679491,200.313022L442.387036,197.588590L430.385667,199.213699L432.581778,221.167149L448.534319,226.629634L450.853814,236.888706L445.520672,237.348875L433.715320,244.502744L430.116312,232.443942L426.779879,225.772711L422.664212,222.730812L416.568914,221.482386L412.245670,224.517445L411.909190,227.232211L410.830341,229.136198L395.524964,240.447845L393.602125,252.112035L396.073007,266.622983L415.564194,291.789837L422.096202,305.844668L422.179439,312.838199L420.554039,318.924070L416.268808,328.808242L426.019437,335.015027L438.594799,337.403698L448.588693,343.193168L450.631794,359.533404L429.666999,358.771680L421.857069,405.493922L425.016602,398.134404L427.031855,389.328672L430.771782,382.885150L439.121735,382.567699L447.737561,412.322833L447.107437,425.610061L439.017891,436.153922L429.566358,435.359695L419.765340,421.573275L410.323179,420.756535L409.350524,426.314386L407.355812,430.407354L406.829508,433.488349L410.256731,436.133390L409.903522,454.841202L408.520395,462.537999L404.477431,466.724059L369.852806,466.518277L364.137057,474.261631L373.895007,483.161152L373.216918,496.739397L365.089949,508.652309L352.542156,512.501339L339.900096,454.973705L322.298207,481.568567L318.063901,489.374574L307.178511,485.316581L301.395367,486.415063L305.974718,500.268286L307.657690,512.331438L305.855564,524.393393L300.593044,527.639093L289.760361,524.837733L271.278339,514.878627L265.231120,534.249081L265.961956,542.723661L255.229911,538.458851L250.357450,538.718426L242.890277,550.292633L240.198609,552.409165L233.688051,555.277581L231.339951,557.856827L229.045549,565.991720L228.168505,581.749555L225.342839,588.452196L223.111430,590.196660L220.262578,591.526549L220.777514,595.000346L222.995630,598.277240L225.245137,603.822872L229.779116,607.249521L230.939002,611.452123L229.817172,622.376883L227.021842,630.068508L225.178801,631.627631L225.260742,638.612277L225.704997,639.343636L227.598166,635.430201Z M461.268824,327.033116L453.013278,310.404253L450.809870,290.575878L453.176160,286.098716L460.668049,280.758920L462.276516,275.308375L486.515999,300.296013L496.597072,305.975547L495.466290,311.547944L491.893489,315.293162L487.756407,318.155551L485.100295,321.267972L485.463801,334.210720L485.087645,336.574465L472.887999,336.896041L461.268824,327.033116Z " class="urban"/><path d="M42.164404,725.247533L45.904416,721.648763L53.829790,720.576935L58.123217,718.832917L61.959336,710.960124L65.630536,710.410624L69.149221,716.570239L82.254512,713.842987L91.757210,707.095327L96.753319,705.489514L103.927392,712.309698L113.945125,697.874959L123.881776,690.183533L129.408565,689.618011L148.742070,677.167148L155.980127,674.031810L178.960254,658.735828L183.029118,657.534063L187.139074,654.760316L194.438734,654.285003L203.641171,649.586855L212.163332,648.528709L214.437190,648.191156L217.156529,639.579563L218.482013,634.495063L161.190419,594.209600L144.611853,595.463752L141.396931,596.613747L138.773240,603.078626L131.878364,607.471072L116.120460,607.441261L109.876049,610.464417L108.553031,616.324803L108.795550,624.490408L108.062834,631.415424L103.897289,633.383650L97.061196,628.172807L87.874578,619.660435L80.880821,625.503445L72.228334,637.905363L60.703625,661.822724L51.571413,671.175890L35.712373,675.708226L11.789393,673.146219L28.275368,700.100141L29.954748,702.122769L35.244965,707.250501L37.785061,713.221481L41.554664,725.728094L42.164404,725.247533Z " class="urban"/></g>
<g class="map" id="rivers"><path d="M578.989375,19.464671L571.025108,112.941134L558.561479,168.140249L555.123588,196.215717L560.607668,226.027464L563.880541,232.033242L566.606241,233.996464L568.976546,236.717831L571.142729,245.306888L571.653170,253.560462L570.505033,259.288755L568.685596,265.101810L567.350182,273.581566L567.880804,281.357974L571.291200,294.859322L571.192373,301.822083L568.908496,306.484521L560.287233,315.727560L556.826054,321.120069L569.369386,330.628921L584.664720,335.779390L597.549889,342.388094L602.991538,356.192735L607.176545,370.756801L617.260811,378.964556L629.468300,385.228206L640.128941,394.018948L666.704303,433.951652L687.648856,452.663871L696.108068,462.739435L698.621775,476.288971 " class="River"/></g>
<g class="map" id="roads"><path d="M29.815578,701.955155L39.533469,700.283047L66.749535,687.413015L122.886297,668.819958L133.766772,662.933569L155.597749,641.571808L179.105057,634.583214L210.772887,620.456383L234.256622,614.634722L255.996520,598.009063L309.208968,592.324461L320.058104,585.191435L338.178300,562.515721L347.205595,557.763138 " class="Interstate"/><path d="M547.982677,267.002352L548.895651,314.930507L552.486763,330.505818L559.666917,346.078743L591.993583,381.993117L608.198233,413.121033L618.100784,426.282710L656.822178,462.134413L698.284108,493.147707 " class="State"/><path d="M537.245590,298.158314L508.555887,350.873679L495.991906,362.847259L470.855471,378.396164L461.862104,391.562880L451.035655,422.696844L425.820189,451.398678L408.679892,475.316116L398.757594,486.069876L379.843104,494.394826L368.115120,503.936955L348.144588,548.183550L338.183336,561.317822 " class="Interstate"/><path d="M706.868018,497.264393L701.004629,499.127597L688.455205,512.352417L676.775782,518.382544L656.091898,524.435884L484.162522,522.188134L445.446150,528.118687L437.349099,525.705867L425.669167,516.094817L418.472344,514.878708L398.638774,526.802991L379.675850,544.710910L349.893563,561.368219 " class="Interstate"/><path d="M626.016569,17.770799L623.604692,50.057984L616.520063,70.436566L604.062032,80.041743L580.010019,89.657380L566.646452,99.253565L559.520336,110.040666L546.152341,139.998304L544.369428,147.187363L543.479598,157.970527L552.417802,179.533662L550.642325,205.893760 " class="Interstate"/><path d="M836.734289,351.034552L854.516014,330.541164L894.775610,323.042634L913.493891,312.103492L935.466770,266.383853L945.003680,233.949870L953.769626,215.898055L957.992387,190.700411L954.316555,179.953354L956.913101,171.543177L956.819760,161.960466L945.757939,124.927745L942.901188,105.787665L953.197597,64.966959L963.652651,42.111426L959.328468,22.166449 " class="Interstate"/><path d="M555.108852,201.099061L565.845238,216.668489L607.921604,250.166351L631.242341,276.481128L657.250393,293.190668L680.625730,320.677499L707.535394,327.768788L728.199725,339.664344L741.622995,334.810462L795.404165,335.722835L809.788027,342.824194L826.810144,341.516480L836.734289,351.034552 " class="State"/><path d="M550.642325,205.893760L539.920822,229.860371L539.922069,237.049495L547.082011,250.227833L547.083618,255.020629L537.245590,298.158314 " class="Interstate"/><path d="M794.383399,468.719088L842.077814,476.795433L935.492510,468.850756L996.537167,421.534427 " class="Interstate"/><path d="M794.383399,468.719088L825.656976,439.768625L831.849516,425.350180L836.734289,351.034552 " class="Interstate"/><path d="M794.383399,468.719088L757.617470,486.893408L744.144804,490.554514L716.860590,495.085018 M704.124747,493.988450L698.284108,493.147707 " class="Interstate"/><path d="M550.642325,205.893760L520.252269,208.292229L482.690207,226.239021L477.314453,234.620025L475.508704,247.797855L468.322027,268.157519L429.746330,306.428088L427.898567,330.387893L422.497265,339.960506L414.410020,347.128984L398.242319,356.668678L383.000898,355.421850L367.747353,357.764298L352.540566,348.119895L334.603903,349.241857L330.056117,363.599403L326.441192,369.573592L264.353329,402.789375L238.068139,442.159041L229.983671,442.104372L215.670218,433.617571L170.711916,440.460262L156.352379,439.142195L136.491406,450.948347L130.150830,456.880819L130.119056,460.474437L126.493402,464.035062L99.215496,459.488720 " class="Interstate"/><path d="M8.497561,649.628053L8.532729,649.515864 " class="Interstate"/><path d="M4.569075,661.341282L8.497561,649.628053 " class="Interstate"/><path d="M816.301330,20.730399L792.001054,64.979242L742.335820,109.560804L695.187162,139.706248L668.423246,142.191118L610.473169,175.875815L598.885616,191.470260L589.955359,195.077058L551.535077,203.497058 " class="Interstate"/><path d="M38.373153,715.172624L52.291632,702.863909L88.915401,693.976938L112.317098,684.932135L124.761047,684.020016L137.343624,666.610340L147.511495,658.453759L157.651428,653.387355L157.700942,647.201618L180.294258,638.110936L188.896965,629.931027L198.968460,633.102628L223.040390,633.280384L242.467025,631.351884L249.499666,624.180222L254.219817,613.899077 " class="Federal"/><path d="M582.882800,137.185465L579.029223,125.843872L579.010286,108.309892L576.698528,100.061080L580.528509,92.837494L582.806745,72.207862 " class="Federal"/><path d="M587.389570,56.732644L586.600504,39.201593L588.117385,26.824582L591.943119,22.694737 " class="Federal"/><path d="M443.182520,458.959206L437.746364,468.231098L428.388036,499.153331L428.364626,509.467451 " class="Federal"/><path d="M343.411158,263.689653L348.795423,265.775123L368.079749,259.661013L406.601266,258.754386L410.461658,255.670477L442.844749,241.305508L452.082048,243.386075L462.871978,238.246449L470.566618,242.383848L482.897763,234.146892 " class="Federal"/><path d="M267.881440,399.463387L267.199878,383.987174L272.702006,367.515982L269.698168,353.057427L279.843125,333.517780L286.804024,330.462247L289.957289,318.101463L310.813132,312.021037L319.326076,305.873455L328.655129,289.412748L328.707250,278.066288L337.207029,272.946648 " class="Federal"/><path d="M254.219817,613.899077L257.355348,608.763109L268.257158,602.643369L273.724305,596.488895 " class="Federal"/><path d="M582.806745,72.207862L587.389570,56.732644 " class="Federal"/><path d="M562.948366,194.965943L576.771437,171.230088L583.659610,144.404692L582.882800,137.185465 " class="Federal"/><path d="M238.986590,446.727544L252.084027,455.064102L282.994370,461.438375L284.519382,465.572676L293.815961,463.561146L307.637553,485.293659L317.634072,499.783229L333.086955,508.107160 " class="State"/><path d="M580.792384,332.144899L591.608212,341.415753L613.217669,340.350109L638.650328,324.823339L643.246088,311.402019L654.778491,297.961733L657.071351,290.734583L673.234448,282.434145L684.025173,282.398763L697.871770,275.128839L711.734496,273.012236L720.919689,258.533138L745.469453,237.792775L749.293625,232.616934 " class="State"/><path d="M816.986802,467.412257L808.399963,455.089974L800.633554,449.980815L795.165165,440.730835L778.862537,429.478988L771.059758,416.112815L757.063825,399.682495 " class="State"/><path d="M861.179677,479.480796L866.657486,487.690363L888.346255,489.582721L889.862033,485.445057L913.071632,484.218833L919.059464,489.207922 M935.921560,488.662253L943.270852,486.009521L953.311893,483.851892L968.669178,471.326552L981.446989,466.167969 " class="Federal"/><path d="M446.073408,166.012112L464.517450,170.169556L466.839487,159.858286L475.312385,146.460848L476.096840,134.084523L487.648776,106.249195L484.605272,81.493059L486.157541,64.993199L480.805976,50.549054L483.885708,39.208265 " class="Federal"/><path d="M162.124996,388.390761L158.452396,365.668566L163.355896,332.703645L166.466574,329.635027L167.364524,314.170744L175.273627,289.480120L183.880103,273.044991L197.069799,260.768529L211.755178,253.656072L225.702268,241.376350L231.833012,245.543779L244.239878,232.216323L263.508562,228.210233L270.515666,214.842651L281.299990,212.841376L287.536183,198.435362L296.816546,189.201883L311.454609,184.118937L320.742332,171.786202L334.622363,162.566330L348.461982,161.593525L362.321353,155.459319L389.213219,157.615659L393.808314,162.787287L402.263786,162.812501L409.973830,154.582469L415.353641,154.596755 " class="Federal"/><path d="M211.932479,21.605723L225.675141,27.887484L242.508079,31.091471L250.915523,34.237900L260.110330,34.293904L276.133773,45.730553L289.924564,46.837505L302.911202,55.155049L309.001696,63.435647L317.416233,67.601466L320.438161,76.897433L347.215706,93.516110L354.855894,101.797581L359.469538,99.752718L377.115513,101.879439L385.520443,113.252698L387.792831,122.542600L399.290129,129.797810L399.264825,138.049113L414.590678,152.531868 " class="Federal"/><path d="M663.692191,184.469363L668.293713,180.329769L693.662310,178.182945L732.871925,176.993696L743.571023,163.535947L770.415691,153.087749L797.995477,139.525395L820.188434,127.012749L827.867071,126.963112L838.580478,121.734941L850.871838,122.681216L864.738450,128.769231L873.233092,134.893870L909.314593,133.575338L911.581981,129.431067L911.401313,108.806630L928.273851,107.630631L943.452985,89.963859L964.906938,87.701354L974.162298,92.767967L994.327337,94.500846 " class="Federal"/><path d="M416.890735,154.600718L426.110821,155.654847L446.073408,166.012112 " class="Federal"/><path d="M464.517450,170.169556L477.583988,173.281775L485.264159,181.542342L502.948956,186.714826L525.254272,186.723853L542.946478,193.943637L546.024878,198.068820 " class="Federal"/><path d="M127.568338,68.954300L143.358404,66.442176L151.827722,62.389229L167.343477,40.861694L171.191889,38.830111L195.742573,34.893935L200.427570,23.585538L208.884373,19.521840 " class="Federal"/><path d="M658.314683,186.547724L662.920043,183.440134L673.706650,189.596373L682.968324,198.849627L689.940240,212.235085L704.593582,220.433162L713.085274,226.588712L722.308967,223.456058L749.293625,232.616934 " class="Federal"/><path d="M955.842318,180.602885L960.473831,182.621672L991.973107,181.279120L995.875764,179.484687 " class="Federal"/><path d="M798.491732,221.005381L813.053765,211.633436L821.428319,198.171479L844.501450,198.016951L856.007034,193.809792L865.274038,198.899096L889.004911,185.308646L902.100104,188.296919L913.623015,187.169199L919.718195,180.928830L950.393240,173.434520 " class="Federal"/><path d="M161.821804,331.659446L149.534215,325.366747L141.132901,316.010796L144.297802,306.755635L128.307651,284.953665L125.339668,272.549729L116.213827,260.088767L125.653242,238.516227L137.382858,217.993299L143.546252,217.015786L170.761398,182.175994L183.928582,169.903366L187.059882,162.707868L180.211050,154.403897L184.902954,144.126771L188.914814,122.499408L192.834211,112.215863L189.903152,94.661701L193.852592,80.253595L193.925601,70.972859L207.023667,62.818810L210.276322,38.092834L208.071500,25.703008L211.290776,5.102944 " class="Federal"/><path d="M152.448995,624.472746L158.708707,618.340344L159.617059,601.850191L154.236205,595.617016L152.018811,582.192661L155.997196,569.852877L142.416421,525.390950L130.186189,506.717577L134.218932,488.190927L131.268279,471.662971 " class="Federal"/><path d="M165.869043,402.861778L162.124996,388.390761 " class="Federal"/><path d="M333.086955,508.107160L341.573149,516.395917L355.526500,514.391573L364.796804,521.647612L373.313037,523.742060L388.049058,519.667461L400.461311,514.549544 " class="State"/><path d="M563.045109,334.223821L574.622847,336.277413L580.792384,332.144899 " class="State"/><path d="M492.810253,343.500905L497.451183,331.126144L509.810870,305.345217L512.901160,292.968008L529.095145,253.773229L533.716562,237.268704 " class="Federal"/><path d="M950.393240,173.434520L955.842318,180.602885 " class="Federal"/><path d="M750.149222,407.968981L740.059165,398.734112L736.836917,369.867027L725.120175,338.973948 " class="State"/><path d="M136.034184,637.730175L139.166008,634.665453L157.073389,628.637184L177.360791,615.403000L189.003306,615.496306L210.793928,607.413386L219.393436,598.195418L234.176378,592.111787L245.929297,573.628430L256.042701,568.537271L277.774395,565.575390L304.146722,564.689662L325.113559,558.606229L334.423210,557.618016L339.872710,552.485742L357.024745,527.805473L360.949539,514.413079L379.574033,505.199245L394.344134,487.713965L414.502722,477.458152L438.537359,459.981042L446.289594,452.776509L459.502845,415.666301L469.579094,397.114334L495.104487,369.291606 " class="State"/><path d="M26.195526,696.699682L27.517750,693.304802L25.286370,684.001291L30.901008,667.572765L37.179824,661.459473L45.743937,659.494489L51.903915,664.717694L67.509710,657.671109L81.499026,656.787655L101.020005,645.645086L120.423936,646.864323L136.034184,637.730175 " class="State"/><path d="M276.754606,609.912338L275.282018,595.466886L283.147283,575.918996L296.386431,565.679768L300.326210,553.325322L316.670739,540.001714L326.078587,516.325839L333.082471,509.138527L327.752504,488.486053L329.346870,478.179254L341.844448,451.417574L340.336436,442.127873L342.747533,420.477284L348.965899,412.251595L351.338607,398.851883L350.624131,384.407855L353.726416,381.325929L354.617374,351.415432L349.230737,347.267457L346.953660,337.974292L350.845679,329.738131L343.195817,314.233373L345.552961,303.928052L336.349843,292.541779L337.207029,272.946648 " class="State"/><path d="M343.411158,263.689653L341.184843,244.081460L331.211857,235.785746L322.797053,224.400742L319.763222,215.103088L319.084035,196.533316L322.220307,184.170542L319.943450,177.971122L321.570961,159.412834L340.944091,123.399768L344.859752,105.882715L349.500451,97.650811 " class="State"/><path d="M749.293625,232.616934L772.354212,226.310377L798.491732,221.005381 " class="State"/><path d="M550.626673,164.027999L581.389307,175.351211L593.695269,177.399062L600.633787,188.735432 " class="Interstate"/><path d="M591.412059,194.937498L599.115915,202.147219L630.666025,204.152177L640.663473,202.066152L652.184458,194.816399L658.314683,186.547724 " class="Interstate"/><path d="M500.518796,357.948798L474.277199,349.669874L467.327892,350.691802L457.298893,346.549809L429.512384,345.462670L419.483085,343.375252 " class="Interstate"/><path d="M592.709344,22.693726L592.714599,22.436317 " class="Federal"/><path d="M483.885708,39.208265L483.891702,33.912543 " class="Federal"/><path d="M977.016923,454.742029L982.990614,455.518213 " class="State"/><path d="M212.056415,5.108335L211.716411,3.688413 " class="Federal"/></g>
<g class="map" id="airports"><circle cx="539.788100426" cy="87.4467063714" id="Bradley Int'l" class="Airport" r="10"/></g>
<g class="map" id="cities"><circle cx="842.979227214" cy="482.925919569" class="city" data-lat="41.3555234976" data-lon="-72.100028322" id="New London" r="15"/><circle cx="95.8192317919" cy="690.264459952" class="city" data-lat="41.0533455598" data-lon="-73.5391911231" id="Stamford" r="15"/><circle cx="351.559808415" cy="349.470815264" class="city" data-lat="41.5500077505" data-lon="-73.0500220151" id="Waterbury" r="15"/><circle cx="428.670698322" cy="501.245611525" class="city" data-lat="41.3303829133" data-lon="-72.9000053321" id="New Haven" r="15"/><circle cx="541.59865285" cy="196.692781534" class="city" data-lat="41.770020161" data-lon="-72.6799670834" id="Hartford" r="15"/><circle cx="271.698949151" cy="603.001992821" class="city" data-lat="41.1799786571" data-lon="-73.1999611833" id="Bridgeport" r="15"/></g></svg>