<?xml version="1.0" encoding="utf-8"?><!DOCTYPE svg  PUBLIC '-//W3C//DTD SVG 1.1//EN'  'http://www.w3.org/Graphics/SVG/1.1/DTD/svg11.dtd'>
<svg xmlns="http://www.w3.org/2000/svg" version="1.1" style="fill:none;" width="100%" height="100%" viewbox="-50 -50 1100 1649">
    
<!--svg enable_background="new 0 0 1000 1549" height="1549px" pretty_print="False" style="stroke-linejoin: round; stroke:#000; fill: none;" version="1.1" viewBox="0 0 1000 1549" width="1000px" xmlns="http://www.w3.org/2000/svg" xmlns:xlink="http://www.w3.org/1999/xlink"--><defs><style type="text/css"><![CDATA[path { fill-rule: evenodd; }]]></style></defs><metadata><views><view h="1549.82830328" padding="0" w="1000"><proj dist="1.3" id="satellite" lat0="44.2" lon0="-114.5" tilt="0" up="0"/><bbox h="335.59" w="216.67" x="906.45" y="770.45"/></view></views></metadata>
<g class="map" id="states"><path d="M208.131870,2.545064L205.490559,103.544329L202.637586,216.053651L204.339613,219.519362L207.522234,222.741300L211.730672,228.235754L213.394551,231.590919L216.952335,236.636586L219.599172,241.181403L221.428940,242.705779L225.926666,247.930349L229.400212,250.119806L232.032279,254.330729L234.634892,264.829229L236.293870,267.273121L240.200685,269.734477L243.944853,277.089355L249.235832,281.074819L250.656516,285.936748L250.161743,291.347973L250.844898,293.147810L254.811404,299.562609L255.713975,305.015304L254.759206,307.208391L252.589805,309.606377L248.956738,311.826820L247.493601,314.371817L248.355017,315.503341L253.483970,319.515292L256.980970,327.653306L259.269638,328.790590L260.851785,332.340363L257.220346,334.517124L250.828078,335.051975L247.952419,338.112307L251.791285,341.739784L257.652349,343.561550L268.781512,351.209268L274.847680,358.276146L277.249973,361.928998L278.470912,365.013564L281.908205,369.833753L284.095559,370.802897L291.646403,372.261427L305.128575,377.842719L309.196589,382.788394L313.192370,390.472042L313.694702,392.791333L315.103121,394.742672L318.861264,397.585701L321.521777,401.009993L327.343437,405.615057L331.418361,411.500130L333.528581,416.637824L346.901003,431.781076L347.900491,436.909691L348.972355,438.720261L357.283791,443.045184L361.485645,448.862738L368.427708,454.219520L367.566810,460.467274L368.960039,468.936476L370.209442,472.061057L372.558974,474.324338L377.175976,477.419077L382.586225,482.915194L391.265757,486.993686L391.868885,491.473348L390.755514,496.788946L392.007817,499.877486L393.508865,500.258379L395.672543,499.418488L399.077540,495.119306L401.544605,492.971271L404.683751,492.051508L410.812153,495.582132L413.416737,500.603608L411.064170,509.125735L412.174675,510.446953L419.663155,515.233430L421.573342,515.735938L425.965110,515.102598L429.444089,513.686671L434.024789,514.667198L437.443552,514.359197L442.828953,510.994591L453.173399,508.300721L456.878150,508.865811L457.803346,509.709868L458.808343,514.028359L458.758978,518.020770L456.742248,525.369377L457.287602,528.904242L455.180209,535.511658L456.466120,539.688324L453.118123,543.705811L448.949317,545.350872L447.069848,547.461882L450.710567,552.814210L451.621789,556.427776L450.892572,560.556621L447.331617,568.262372L446.253136,576.285529L446.526429,578.914743L445.706807,582.549696L442.559324,587.234740L441.686451,592.237139L438.816871,598.478651L441.055588,604.745458L441.831142,610.868285L441.580991,616.895638L438.829811,618.605600L432.760400,619.612879L432.177659,625.295595L438.296180,631.962090L438.322822,638.820662L435.212377,643.566205L434.504726,647.386191L436.172726,651.200608L435.887598,655.329822L437.760527,658.121865L446.641525,661.557832L447.073742,665.671420L445.548114,668.818363L445.711954,676.035711L448.978463,681.350017L448.367832,685.293598L444.657137,689.110702L441.581581,690.483639L436.279030,690.735495L432.562300,692.724283L429.138622,698.846062L427.114211,703.136905L423.841130,707.492281L427.541139,716.588353L431.509171,720.638225L432.784548,723.717379L432.105121,725.826342L432.477544,731.703675L431.364451,734.067852L425.228152,741.116166L426.631069,749.447798L424.799401,752.262312L427.572838,754.227192L430.640535,754.216935L439.506180,756.184123L444.661083,760.178774L446.146866,763.796281L454.053658,769.217518L456.667189,772.431099L461.678136,773.224406L465.573629,771.712259L469.283623,769.727462L470.793974,767.807788L472.404442,763.066244L477.397002,758.997906L480.040116,759.184321L485.767441,756.119812L491.919987,753.474465L494.725469,748.742884L498.985672,745.463273L502.101592,738.858615L504.707958,736.941873L509.871483,734.652836L509.326955,725.476672L511.165455,724.018936L516.199231,726.228531L521.814650,730.238104L525.842294,733.795591L526.837210,738.360009L529.770574,740.579413L537.864696,743.378334L541.687959,746.488940L542.666393,748.997805L539.742159,756.782900L539.945720,762.293163L541.204888,763.390106L546.081004,765.553693L547.715038,767.108208L548.643830,773.893977L546.743259,782.544147L548.425693,788.733971L552.855557,792.408816L554.665137,795.367668L554.742856,798.059633L554.093224,807.610157L554.360164,810.138115L556.367945,813.133837L559.868309,815.784334L563.260062,824.056051L566.014060,826.315983L569.217858,829.988557L571.767970,831.972508L575.510065,837.479825L576.923633,843.179777L579.100805,846.953994L579.191368,849.653201L581.607427,852.142486L586.897834,851.969375L588.086330,852.531751L596.723400,868.323686L599.244339,874.596843L600.256913,880.866994L599.335637,886.280987L592.624703,893.287238L592.434819,894.360369L596.938891,901.639558L599.132411,908.071160L603.517049,913.387668L610.954586,916.835848L613.109288,918.149989L615.288792,924.242730L617.695319,925.525550L623.298148,923.935475L626.366039,920.873936L629.280361,919.407072L632.013628,919.426548L635.694112,920.328238L639.881318,922.460683L643.579287,925.453111L646.613912,928.580197L650.118580,934.020668L652.442958,936.298954L655.499992,943.463787L656.861020,945.077714L661.341980,954.050030L662.879516,958.243381L661.624429,961.272269L660.014509,962.681162L659.526046,967.545890L663.903391,972.326929L664.700970,976.990128L665.503129,978.090984L670.564457,981.492729L670.876866,983.901866L669.447305,987.402832L668.999355,991.022212L670.530519,993.958963L671.649510,998.659789L678.117526,1002.364768L680.676098,1005.928404L682.665907,1007.321291L689.780290,1009.474277L691.510259,1010.811009L695.303853,1016.098619L697.719171,1016.730069L700.263834,1015.362419L701.050369,1012.888125L698.221602,1008.181154L699.769409,1001.688889L708.668824,992.179339L715.018903,989.848387L717.755527,987.913664L720.770448,987.543876L726.184935,988.860457L745.655380,990.871870L749.005090,993.450945L759.741764,993.608271L763.901255,996.864649L767.015616,996.954713L771.707417,993.926482L774.273750,986.461353L775.299227,981.183392L777.199884,978.443207L781.480130,976.156857L785.439547,975.041027L789.735298,971.784258L793.442543,972.754740L795.826876,974.575761L805.352375,975.099494L809.895277,976.096030L815.307499,977.745239L830.280569,974.510817L832.819673,974.760430L840.468970,971.717728L848.555833,971.471835L857.311115,978.464259L867.664553,976.139274L878.173481,969.764615L880.462945,969.356019L897.662505,968.888224L899.604323,969.232715L904.576643,971.446392L906.560800,972.814896L911.682926,972.733585L914.154233,971.503230L912.707026,969.073634L907.347479,966.784682L905.437738,958.548189L907.485977,950.344560L913.101410,947.128593L913.679554,946.173610L913.650040,942.302683L911.134448,937.690583L911.683494,935.487852L913.128472,933.833910L916.004226,932.176930L920.512537,931.382827L922.533347,929.989304L924.115011,926.814556L928.167041,926.398625L933.973358,929.390275L935.596519,930.653841L937.235171,934.381467L943.984996,944.412299L946.098027,948.028226L949.884534,950.487329L950.903037,957.603650L952.187108,960.707964L958.572629,964.962305L960.750542,967.427383L963.652506,972.023910L968.429483,977.645861L971.063231,979.455188L978.052237,981.116950L977.763490,974.380530L973.281737,869.686068L1000.000000,868.585819L1000.000000,0.000000L796.740199,0.000000L714.563976,1.618254L651.171000,2.602597L555.955991,3.590340L524.189769,3.797944L460.644391,4.030396L428.870519,4.055238L333.553460,3.764245L301.785210,3.545386L238.298698,2.925234L208.131870,2.545064Z " id="Montana" class="neighbor"/><path d="M507.385265,1547.574762L538.278165,1547.340448L569.163994,1547.037438L600.040573,1546.649579L630.905796,1546.176923L661.757638,1545.624923L692.594030,1544.993648L723.416928,1544.283079L754.220457,1543.504162L784.998368,1542.646326L815.752378,1541.698804L846.480652,1540.672493L877.189156,1539.567223L907.859823,1538.383706L938.498972,1537.132570L969.104109,1535.797823L999.677175,1534.379445L998.463988,1499.984894L994.714841,1396.574837L990.797787,1292.902499L986.707973,1189.054421L985.309795,1154.411100L981.008133,1050.438840L979.534611,1015.766040L978.052237,981.116950L971.063231,979.455188L968.429483,977.645861L963.652506,972.023910L960.750542,967.427383L958.572629,964.962305L952.187108,960.707964L950.903037,957.603650L949.884534,950.487329L946.098027,948.028226L943.984996,944.412299L937.235171,934.381467L935.596519,930.653841L933.973358,929.390275L928.167041,926.398625L924.115011,926.814556L922.533347,929.989304L920.512537,931.382827L916.004226,932.176930L913.128472,933.833910L911.683494,935.487852L911.134448,937.690583L913.650040,942.302683L913.679554,946.173610L913.101410,947.128593L907.485977,950.344560L905.437738,958.548189L907.347479,966.784682L912.707026,969.073634L914.154233,971.503230L911.682926,972.733585L906.560800,972.814896L904.576643,971.446392L899.604323,969.232715L897.662505,968.888224L880.462945,969.356019L878.173481,969.764615L867.664553,976.139274L857.311115,978.464259L848.555833,971.471835L840.468970,971.717728L832.819673,974.760430L830.280569,974.510817L815.307499,977.745239L809.895277,976.096030L805.352375,975.099494L795.826876,974.575761L793.442543,972.754740L789.735298,971.784258L785.439547,975.041027L781.480130,976.156857L777.199884,978.443207L775.299227,981.183392L774.273750,986.461353L771.707417,993.926482L767.015616,996.954713L763.901255,996.864649L759.741764,993.608271L749.005090,993.450945L745.655380,990.871870L726.184935,988.860457L720.770448,987.543876L717.755527,987.913664L715.018903,989.848387L708.668824,992.179339L699.769409,1001.688889L698.221602,1008.181154L701.050369,1012.888125L700.263834,1015.362419L697.719171,1016.730069L695.303853,1016.098619L691.510259,1010.811009L689.780290,1009.474277L682.665907,1007.321291L680.676098,1005.928404L678.117526,1002.364768L671.649510,998.659789L670.530519,993.958963L668.999355,991.022212L669.447305,987.402832L670.876866,983.901866L670.564457,981.492729L665.503129,978.090984L664.700970,976.990128L663.903391,972.326929L659.526046,967.545890L660.014509,962.681162L661.624429,961.272269L662.879516,958.243381L661.341980,954.050030L656.861020,945.077714L655.499992,943.463787L652.442958,936.298954L650.118580,934.020668L646.613912,928.580197L643.579287,925.453111L639.881318,922.460683L635.694112,920.328238L632.013628,919.426548L629.280361,919.407072L626.366039,920.873936L623.298148,923.935475L617.695319,925.525550L615.288792,924.242730L613.109288,918.149989L610.954586,916.835848L603.517049,913.387668L599.132411,908.071160L596.938891,901.639558L592.434819,894.360369L592.624703,893.287238L599.335637,886.280987L600.256913,880.866994L599.244339,874.596843L596.723400,868.323686L588.086330,852.531751L586.897834,851.969375L581.607427,852.142486L579.191368,849.653201L579.100805,846.953994L576.923633,843.179777L575.510065,837.479825L571.767970,831.972508L569.217858,829.988557L566.014060,826.315983L563.260062,824.056051L559.868309,815.784334L556.367945,813.133837L554.360164,810.138115L554.093224,807.610157L554.742856,798.059633L554.665137,795.367668L552.855557,792.408816L548.425693,788.733971L546.743259,782.544147L548.643830,773.893977L547.715038,767.108208L546.081004,765.553693L541.204888,763.390106L539.945720,762.293163L539.742159,756.782900L542.666393,748.997805L541.687959,746.488940L537.864696,743.378334L529.770574,740.579413L526.837210,738.360009L525.842294,733.795591L521.814650,730.238104L516.199231,726.228531L511.165455,724.018936L509.326955,725.476672L509.871483,734.652836L504.707958,736.941873L502.101592,738.858615L498.985672,745.463273L494.725469,748.742884L491.919987,753.474465L485.767441,756.119812L480.040116,759.184321L477.397002,758.997906L472.404442,763.066244L470.793974,767.807788L469.283623,769.727462L465.573629,771.712259L461.678136,773.224406L456.667189,772.431099L454.053658,769.217518L446.146866,763.796281L444.661083,760.178774L439.506180,756.184123L430.640535,754.216935L427.572838,754.227192L424.799401,752.262312L426.631069,749.447798L425.228152,741.116166L431.364451,734.067852L432.477544,731.703675L432.105121,725.826342L432.784548,723.717379L431.509171,720.638225L427.541139,716.588353L423.841130,707.492281L427.114211,703.136905L429.138622,698.846062L432.562300,692.724283L436.279030,690.735495L441.581581,690.483639L444.657137,689.110702L448.367832,685.293598L448.978463,681.350017L445.711954,676.035711L445.548114,668.818363L447.073742,665.671420L446.641525,661.557832L437.760527,658.121865L435.887598,655.329822L436.172726,651.200608L434.504726,647.386191L435.212377,643.566205L438.322822,638.820662L438.296180,631.962090L432.177659,625.295595L432.760400,619.612879L438.829811,618.605600L441.580991,616.895638L441.831142,610.868285L441.055588,604.745458L438.816871,598.478651L441.686451,592.237139L442.559324,587.234740L445.706807,582.549696L446.526429,578.914743L446.253136,576.285529L447.331617,568.262372L450.892572,560.556621L451.621789,556.427776L450.710567,552.814210L447.069848,547.461882L448.949317,545.350872L453.118123,543.705811L456.466120,539.688324L455.180209,535.511658L457.287602,528.904242L456.742248,525.369377L458.758978,518.020770L458.808343,514.028359L457.803346,509.709868L456.878150,508.865811L453.173399,508.300721L442.828953,510.994591L437.443552,514.359197L434.024789,514.667198L429.444089,513.686671L425.965110,515.102598L421.573342,515.735938L419.663155,515.233430L412.174675,510.446953L411.064170,509.125735L413.416737,500.603608L410.812153,495.582132L404.683751,492.051508L401.544605,492.971271L399.077540,495.119306L395.672543,499.418488L393.508865,500.258379L392.007817,499.877486L390.755514,496.788946L391.868885,491.473348L391.265757,486.993686L382.586225,482.915194L377.175976,477.419077L372.558974,474.324338L370.209442,472.061057L368.960039,468.936476L367.566810,460.467274L368.427708,454.219520L361.485645,448.862738L357.283791,443.045184L348.972355,438.720261L347.900491,436.909691L346.901003,431.781076L333.528581,416.637824L331.418361,411.500130L327.343437,405.615057L321.521777,401.009993L318.861264,397.585701L315.103121,394.742672L313.694702,392.791333L313.192370,390.472042L309.196589,382.788394L305.128575,377.842719L291.646403,372.261427L284.095559,370.802897L281.908205,369.833753L278.470912,365.013564L277.249973,361.928998L274.847680,358.276146L268.781512,351.209268L257.652349,343.561550L251.791285,341.739784L247.952419,338.112307L250.828078,335.051975L257.220346,334.517124L260.851785,332.340363L259.269638,328.790590L256.980970,327.653306L253.483970,319.515292L248.355017,315.503341L247.493601,314.371817L248.956738,311.826820L252.589805,309.606377L254.759206,307.208391L255.713975,305.015304L254.811404,299.562609L250.844898,293.147810L250.161743,291.347973L250.656516,285.936748L249.235832,281.074819L243.944853,277.089355L240.200685,269.734477L236.293870,267.273121L234.634892,264.829229L232.032279,254.330729L229.400212,250.119806L225.926666,247.930349L221.428940,242.705779L219.599172,241.181403L216.952335,236.636586L213.394551,231.590919L211.730672,228.235754L207.522234,222.741300L204.339613,219.519362L202.637586,216.053651L205.490559,103.544329L208.131870,2.545064L206.574508,2.523941L174.872748,2.061992L79.905883,0.312692L65.529651,0.000000L61.602947,102.092075L60.315310,136.302906L58.690199,168.037573L56.469741,202.122936L52.301563,307.245103L51.232235,340.351764L48.479153,412.306189L47.445568,445.575549L46.049111,483.052235L44.480249,519.614837L43.506644,552.381261L43.483978,559.136668L43.028969,565.267739L42.285851,569.227274L43.263310,572.613491L50.161545,582.324193L54.968933,591.138614L56.931939,595.858649L58.294140,606.729283L61.398387,612.847279L61.249477,617.477494L59.685078,621.979675L57.604371,624.993762L52.911938,630.029526L53.682122,632.389645L61.433065,643.170112L64.709471,653.208020L65.033424,654.211302L66.138720,661.080560L70.242446,673.643293L79.144570,683.478275L81.954147,689.875091L92.934250,692.639024L97.469694,697.885069L106.272363,703.749878L112.729621,705.213928L116.829656,709.861099L118.708599,714.268720L121.316117,723.406015L126.470333,734.291562L127.554435,738.867624L127.570731,743.567174L126.224472,747.722382L124.002686,751.094052L119.269755,756.339370L118.356487,757.826022L115.227775,765.232102L113.715568,772.068175L106.058821,781.430060L103.539982,788.812515L97.965458,795.101719L95.841757,799.086467L95.083237,803.788206L94.348465,813.005616L90.561990,820.330547L87.377757,833.923209L83.909116,842.390662L66.548711,867.639217L64.663774,872.252991L64.935631,874.796418L66.720551,878.380072L66.328379,883.034775L64.316741,893.365257L62.931387,897.471992L59.067982,905.188008L50.251704,919.070831L47.928332,921.753598L44.923731,924.313098L35.210643,930.342210L32.155632,933.885972L30.373323,937.048929L25.681007,948.191783L21.439685,955.951197L19.542617,960.608888L17.915560,969.241370L16.199807,973.360965L13.979884,977.067794L11.718276,979.669813L6.792170,982.077515L6.150814,984.877070L2.802080,988.866057L4.225552,994.905781L1.011813,1003.207767L0.322825,1008.315023L0.936015,1010.905446L2.882754,1015.512046L3.229386,1018.360069L1.901938,1025.837911L2.817642,1029.998037L5.287937,1032.969740L11.264858,1037.679022L15.772138,1032.474864L17.959524,1031.679864L20.020988,1032.288205L23.277350,1038.058868L26.497951,1039.224140L32.189081,1037.376843L35.786204,1036.784748L37.749744,1037.637480L38.257331,1044.604976L40.203495,1048.816232L43.602381,1050.836336L49.363747,1056.327880L50.092087,1058.404006L47.608521,1062.429981L46.498326,1070.110884L45.143076,1072.310347L39.041775,1073.220467L37.344478,1075.109703L37.278355,1078.771287L41.410224,1086.451456L42.417179,1091.161735L42.124632,1093.713110L39.991657,1099.513723L38.638408,1108.598552L36.408647,1115.753762L35.652487,1121.051328L33.665259,1125.990083L31.800132,1128.872432L28.192756,1131.623847L25.584884,1135.133822L26.685327,1140.287358L27.092058,1144.886364L20.735848,1381.037310L19.005745,1449.572116L17.330438,1517.985394L16.791379,1540.741946L47.335037,1541.757797L77.900237,1542.690293L108.488843,1543.544845L139.102764,1544.326838L169.740103,1545.030757L200.382812,1545.650779L231.044732,1546.203372L261.724120,1546.666861L292.418750,1547.057342L323.110489,1547.374591L353.813505,1547.607975L384.525731,1547.757431L415.241060,1547.828303L445.961482,1547.820576L476.680938,1547.739633L507.385265,1547.574762Z " id="Idaho" class="neighbor"/><path d="M64.709471,653.208020L61.433065,643.170112L53.682122,632.389645L52.911938,630.029526L57.604371,624.993762L59.685078,621.979675L61.249477,617.477494L61.398387,612.847279L58.294140,606.729283L56.931939,595.858649L54.968933,591.138614L50.161545,582.324193L43.263310,572.613491L42.285851,569.227274L43.028969,565.267739L43.483978,559.136668L43.506644,552.381261L44.480249,519.614837L46.049111,483.052235L47.445568,445.575549L48.479153,412.306189L51.232235,340.351764L52.301563,307.245103L56.469741,202.122936L58.690199,168.037573L60.315310,136.302906L61.602947,102.092075L65.529651,0.000000L0.000000,0.000000L0.000000,651.457923L4.244940,651.583257L24.032505,652.139601L43.839553,652.673990L64.709471,653.208020Z " id="Washington" class="neighbor"/><path d="M16.791379,1540.741946L0.000000,1540.137184L0.000000,1547.828303L415.241060,1547.828303L384.525731,1547.757431L353.813505,1547.607975L323.110489,1547.374591L292.418750,1547.057342L261.724120,1546.666861L231.044732,1546.203372L200.382812,1545.650779L169.740103,1545.030757L139.102764,1544.326838L108.488843,1543.544845L77.900237,1542.690293L47.335037,1541.757797L16.791379,1540.741946Z M507.385265,1547.574762L476.680938,1547.739633L445.961482,1547.820576L415.241060,1547.828303L507.386455,1547.828303L507.385265,1547.574762Z " id="Nevada" class="neighbor"/><path d="M16.791379,1540.741946L17.330438,1517.985394L19.005745,1449.572116L20.735848,1381.037310L27.092058,1144.886364L26.685327,1140.287358L25.584884,1135.133822L28.192756,1131.623847L31.800132,1128.872432L33.665259,1125.990083L35.652487,1121.051328L36.408647,1115.753762L38.638408,1108.598552L39.991657,1099.513723L42.124632,1093.713110L42.417179,1091.161735L41.410224,1086.451456L37.278355,1078.771287L37.344478,1075.109703L39.041775,1073.220467L45.143076,1072.310347L46.498326,1070.110884L47.608521,1062.429981L50.092087,1058.404006L49.363747,1056.327880L43.602381,1050.836336L40.203495,1048.816232L38.257331,1044.604976L37.749744,1037.637480L35.786204,1036.784748L32.189081,1037.376843L26.497951,1039.224140L23.277350,1038.058868L20.020988,1032.288205L17.959524,1031.679864L15.772138,1032.474864L11.264858,1037.679022L5.287937,1032.969740L2.817642,1029.998037L1.901938,1025.837911L3.229386,1018.360069L2.882754,1015.512046L0.936015,1010.905446L0.322825,1008.315023L1.011813,1003.207767L4.225552,994.905781L2.802080,988.866057L6.150814,984.877070L6.792170,982.077515L11.718276,979.669813L13.979884,977.067794L16.199807,973.360965L17.915560,969.241370L19.542617,960.608888L21.439685,955.951197L25.681007,948.191783L30.373323,937.048929L32.155632,933.885972L35.210643,930.342210L44.923731,924.313098L47.928332,921.753598L50.251704,919.070831L59.067982,905.188008L62.931387,897.471992L64.316741,893.365257L66.328379,883.034775L66.720551,878.380072L64.935631,874.796418L64.663774,872.252991L66.548711,867.639217L83.909116,842.390662L87.377757,833.923209L90.561990,820.330547L94.348465,813.005616L95.083237,803.788206L95.841757,799.086467L97.965458,795.101719L103.539982,788.812515L106.058821,781.430060L113.715568,772.068175L115.227775,765.232102L118.356487,757.826022L119.269755,756.339370L124.002686,751.094052L126.224472,747.722382L127.570731,743.567174L127.554435,738.867624L126.470333,734.291562L121.316117,723.406015L118.708599,714.268720L116.829656,709.861099L112.729621,705.213928L106.272363,703.749878L97.469694,697.885069L92.934250,692.639024L81.954147,689.875091L79.144570,683.478275L70.242446,673.643293L66.138720,661.080560L65.033424,654.211302L64.709471,653.208020L43.839553,652.673990L24.032505,652.139601L4.244940,651.583257L0.000000,651.457923L0.000000,1540.137184L16.791379,1540.741946Z " id="Oregon" class="neighbor"/><path d="M999.677175,1534.379445L969.104109,1535.797823L938.498972,1537.132570L907.859823,1538.383706L877.189156,1539.567223L846.480652,1540.672493L815.752378,1541.698804L784.998368,1542.646326L754.220457,1543.504162L723.416928,1544.283079L692.594030,1544.993648L661.757638,1545.624923L630.905796,1546.176923L600.040573,1546.649579L569.163994,1547.037438L538.278165,1547.340448L507.385265,1547.574762L507.386455,1547.828303L1000.000000,1547.828303L1000.000000,1543.718874L999.677175,1534.379445Z " id="Utah" class="neighbor"/><path d="M978.052237,981.116950L979.534611,1015.766040L981.008133,1050.438840L985.309795,1154.411100L986.707973,1189.054421L990.797787,1292.902499L994.714841,1396.574837L998.463988,1499.984894L999.677175,1534.379445L1000.000000,1543.718874L1000.000000,868.585819L973.281737,869.686068L977.763490,974.380530L978.052237,981.116950Z " id="Wyoming" class="neighbor"/></g>
<g class="map" id="ID"><path d="M507.385265,1547.574762L538.278165,1547.340448L569.163994,1547.037438L600.040573,1546.649579L630.905796,1546.176923L661.757638,1545.624923L692.594030,1544.993648L723.416928,1544.283079L754.220457,1543.504162L784.998368,1542.646326L815.752378,1541.698804L846.480652,1540.672493L877.189156,1539.567223L907.859823,1538.383706L938.498972,1537.132570L969.104109,1535.797823L999.677175,1534.379445L998.463988,1499.984894L994.714841,1396.574837L990.797787,1292.902499L986.707973,1189.054421L985.309795,1154.411100L981.008133,1050.438840L979.534611,1015.766040L978.052237,981.116950L971.063231,979.455188L968.429483,977.645861L963.652506,972.023910L960.750542,967.427383L958.572629,964.962305L952.187108,960.707964L950.903037,957.603650L949.884534,950.487329L946.098027,948.028226L943.984996,944.412299L937.235171,934.381467L935.596519,930.653841L933.973358,929.390275L928.167041,926.398625L924.115011,926.814556L922.533347,929.989304L920.512537,931.382827L916.004226,932.176930L913.128472,933.833910L911.683494,935.487852L911.134448,937.690583L913.650040,942.302683L913.679554,946.173610L913.101410,947.128593L907.485977,950.344560L905.437738,958.548189L907.347479,966.784682L912.707026,969.073634L914.154233,971.503230L911.682926,972.733585L906.560800,972.814896L904.576643,971.446392L899.604323,969.232715L897.662505,968.888224L880.462945,969.356019L878.173481,969.764615L867.664553,976.139274L857.311115,978.464259L848.555833,971.471835L840.468970,971.717728L832.819673,974.760430L830.280569,974.510817L815.307499,977.745239L809.895277,976.096030L805.352375,975.099494L795.826876,974.575761L793.442543,972.754740L789.735298,971.784258L785.439547,975.041027L781.480130,976.156857L777.199884,978.443207L775.299227,981.183392L774.273750,986.461353L771.707417,993.926482L767.015616,996.954713L763.901255,996.864649L759.741764,993.608271L749.005090,993.450945L745.655380,990.871870L726.184935,988.860457L720.770448,987.543876L717.755527,987.913664L715.018903,989.848387L708.668824,992.179339L699.769409,1001.688889L698.221602,1008.181154L701.050369,1012.888125L700.263834,1015.362419L697.719171,1016.730069L695.303853,1016.098619L691.510259,1010.811009L689.780290,1009.474277L682.665907,1007.321291L680.676098,1005.928404L678.117526,1002.364768L671.649510,998.659789L670.530519,993.958963L668.999355,991.022212L669.447305,987.402832L670.876866,983.901866L670.564457,981.492729L665.503129,978.090984L664.700970,976.990128L663.903391,972.326929L659.526046,967.545890L660.014509,962.681162L661.624429,961.272269L662.879516,958.243381L661.341980,954.050030L656.861020,945.077714L655.499992,943.463787L652.442958,936.298954L650.118580,934.020668L646.613912,928.580197L643.579287,925.453111L639.881318,922.460683L635.694112,920.328238L632.013628,919.426548L629.280361,919.407072L626.366039,920.873936L623.298148,923.935475L617.695319,925.525550L615.288792,924.242730L613.109288,918.149989L610.954586,916.835848L603.517049,913.387668L599.132411,908.071160L596.938891,901.639558L592.434819,894.360369L592.624703,893.287238L599.335637,886.280987L600.256913,880.866994L599.244339,874.596843L596.723400,868.323686L588.086330,852.531751L586.897834,851.969375L581.607427,852.142486L579.191368,849.653201L579.100805,846.953994L576.923633,843.179777L575.510065,837.479825L571.767970,831.972508L569.217858,829.988557L566.014060,826.315983L563.260062,824.056051L559.868309,815.784334L556.367945,813.133837L554.360164,810.138115L554.093224,807.610157L554.742856,798.059633L554.665137,795.367668L552.855557,792.408816L548.425693,788.733971L546.743259,782.544147L548.643830,773.893977L547.715038,767.108208L546.081004,765.553693L541.204888,763.390106L539.945720,762.293163L539.742159,756.782900L542.666393,748.997805L541.687959,746.488940L537.864696,743.378334L529.770574,740.579413L526.837210,738.360009L525.842294,733.795591L521.814650,730.238104L516.199231,726.228531L511.165455,724.018936L509.326955,725.476672L509.871483,734.652836L504.707958,736.941873L502.101592,738.858615L498.985672,745.463273L494.725469,748.742884L491.919987,753.474465L485.767441,756.119812L480.040116,759.184321L477.397002,758.997906L472.404442,763.066244L470.793974,767.807788L469.283623,769.727462L465.573629,771.712259L461.678136,773.224406L456.667189,772.431099L454.053658,769.217518L446.146866,763.796281L444.661083,760.178774L439.506180,756.184123L430.640535,754.216935L427.572838,754.227192L424.799401,752.262312L426.631069,749.447798L425.228152,741.116166L431.364451,734.067852L432.477544,731.703675L432.105121,725.826342L432.784548,723.717379L431.509171,720.638225L427.541139,716.588353L423.841130,707.492281L427.114211,703.136905L429.138622,698.846062L432.562300,692.724283L436.279030,690.735495L441.581581,690.483639L444.657137,689.110702L448.367832,685.293598L448.978463,681.350017L445.711954,676.035711L445.548114,668.818363L447.073742,665.671420L446.641525,661.557832L437.760527,658.121865L435.887598,655.329822L436.172726,651.200608L434.504726,647.386191L435.212377,643.566205L438.322822,638.820662L438.296180,631.962090L432.177659,625.295595L432.760400,619.612879L438.829811,618.605600L441.580991,616.895638L441.831142,610.868285L441.055588,604.745458L438.816871,598.478651L441.686451,592.237139L442.559324,587.234740L445.706807,582.549696L446.526429,578.914743L446.253136,576.285529L447.331617,568.262372L450.892572,560.556621L451.621789,556.427776L450.710567,552.814210L447.069848,547.461882L448.949317,545.350872L453.118123,543.705811L456.466120,539.688324L455.180209,535.511658L457.287602,528.904242L456.742248,525.369377L458.758978,518.020770L458.808343,514.028359L457.803346,509.709868L456.878150,508.865811L453.173399,508.300721L442.828953,510.994591L437.443552,514.359197L434.024789,514.667198L429.444089,513.686671L425.965110,515.102598L421.573342,515.735938L419.663155,515.233430L412.174675,510.446953L411.064170,509.125735L413.416737,500.603608L410.812153,495.582132L404.683751,492.051508L401.544605,492.971271L399.077540,495.119306L395.672543,499.418488L393.508865,500.258379L392.007817,499.877486L390.755514,496.788946L391.868885,491.473348L391.265757,486.993686L382.586225,482.915194L377.175976,477.419077L372.558974,474.324338L370.209442,472.061057L368.960039,468.936476L367.566810,460.467274L368.427708,454.219520L361.485645,448.862738L357.283791,443.045184L348.972355,438.720261L347.900491,436.909691L346.901003,431.781076L333.528581,416.637824L331.418361,411.500130L327.343437,405.615057L321.521777,401.009993L318.861264,397.585701L315.103121,394.742672L313.694702,392.791333L313.192370,390.472042L309.196589,382.788394L305.128575,377.842719L291.646403,372.261427L284.095559,370.802897L281.908205,369.833753L278.470912,365.013564L277.249973,361.928998L274.847680,358.276146L268.781512,351.209268L257.652349,343.561550L251.791285,341.739784L247.952419,338.112307L250.828078,335.051975L257.220346,334.517124L260.851785,332.340363L259.269638,328.790590L256.980970,327.653306L253.483970,319.515292L248.355017,315.503341L247.493601,314.371817L248.956738,311.826820L252.589805,309.606377L254.759206,307.208391L255.713975,305.015304L254.811404,299.562609L250.844898,293.147810L250.161743,291.347973L250.656516,285.936748L249.235832,281.074819L243.944853,277.089355L240.200685,269.734477L236.293870,267.273121L234.634892,264.829229L232.032279,254.330729L229.400212,250.119806L225.926666,247.930349L221.428940,242.705779L219.599172,241.181403L216.952335,236.636586L213.394551,231.590919L211.730672,228.235754L207.522234,222.741300L204.339613,219.519362L202.637586,216.053651L205.490559,103.544329L208.131870,2.545064L206.574508,2.523941L174.872748,2.061992L79.905883,0.312692L65.529651,0.000000L61.602947,102.092075L60.315310,136.302906L58.690199,168.037573L56.469741,202.122936L52.301563,307.245103L51.232235,340.351764L48.479153,412.306189L47.445568,445.575549L46.049111,483.052235L44.480249,519.614837L43.506644,552.381261L43.483978,559.136668L43.028969,565.267739L42.285851,569.227274L43.263310,572.613491L50.161545,582.324193L54.968933,591.138614L56.931939,595.858649L58.294140,606.729283L61.398387,612.847279L61.249477,617.477494L59.685078,621.979675L57.604371,624.993762L52.911938,630.029526L53.682122,632.389645L61.433065,643.170112L64.709471,653.208020L65.033424,654.211302L66.138720,661.080560L70.242446,673.643293L79.144570,683.478275L81.954147,689.875091L92.934250,692.639024L97.469694,697.885069L106.272363,703.749878L112.729621,705.213928L116.829656,709.861099L118.708599,714.268720L121.316117,723.406015L126.470333,734.291562L127.554435,738.867624L127.570731,743.567174L126.224472,747.722382L124.002686,751.094052L119.269755,756.339370L118.356487,757.826022L115.227775,765.232102L113.715568,772.068175L106.058821,781.430060L103.539982,788.812515L97.965458,795.101719L95.841757,799.086467L95.083237,803.788206L94.348465,813.005616L90.561990,820.330547L87.377757,833.923209L83.909116,842.390662L66.548711,867.639217L64.663774,872.252991L64.935631,874.796418L66.720551,878.380072L66.328379,883.034775L64.316741,893.365257L62.931387,897.471992L59.067982,905.188008L50.251704,919.070831L47.928332,921.753598L44.923731,924.313098L35.210643,930.342210L32.155632,933.885972L30.373323,937.048929L25.681007,948.191783L21.439685,955.951197L19.542617,960.608888L17.915560,969.241370L16.199807,973.360965L13.979884,977.067794L11.718276,979.669813L6.792170,982.077515L6.150814,984.877070L2.802080,988.866057L4.225552,994.905781L1.011813,1003.207767L0.322825,1008.315023L0.936015,1010.905446L2.882754,1015.512046L3.229386,1018.360069L1.901938,1025.837911L2.817642,1029.998037L5.287937,1032.969740L11.264858,1037.679022L15.772138,1032.474864L17.959524,1031.679864L20.020988,1032.288205L23.277350,1038.058868L26.497951,1039.224140L32.189081,1037.376843L35.786204,1036.784748L37.749744,1037.637480L38.257331,1044.604976L40.203495,1048.816232L43.602381,1050.836336L49.363747,1056.327880L50.092087,1058.404006L47.608521,1062.429981L46.498326,1070.110884L45.143076,1072.310347L39.041775,1073.220467L37.344478,1075.109703L37.278355,1078.771287L41.410224,1086.451456L42.417179,1091.161735L42.124632,1093.713110L39.991657,1099.513723L38.638408,1108.598552L36.408647,1115.753762L35.652487,1121.051328L33.665259,1125.990083L31.800132,1128.872432L28.192756,1131.623847L25.584884,1135.133822L26.685327,1140.287358L27.092058,1144.886364L20.735848,1381.037310L19.005745,1449.572116L17.330438,1517.985394L16.791379,1540.741946L47.335037,1541.757797L77.900237,1542.690293L108.488843,1543.544845L139.102764,1544.326838L169.740103,1545.030757L200.382812,1545.650779L231.044732,1546.203372L261.724120,1546.666861L292.418750,1547.057342L323.110489,1547.374591L353.813505,1547.607975L384.525731,1547.757431L415.241060,1547.828303L445.961482,1547.820576L476.680938,1547.739633L507.385265,1547.574762Z " id="Idaho" class="state"/></g>
<g class="map" id="uzones"><path d="M94.750030,284.013686L99.891947,282.449696L99.338037,275.712292L95.298110,266.290326L95.784166,258.115155L92.983337,258.074969L90.703172,259.304052L85.012223,265.685896L85.768604,268.720456L85.388811,272.429635L82.002979,274.773595L81.280081,276.217393L80.095828,282.017078L94.750030,284.013686Z " class="urban"/>
<path d="M66.933408,279.060091L70.398659,276.943349L71.747978,270.951712L70.663347,269.658251L69.256379,271.934462L64.593681,273.539140L65.387221,278.255257L66.933408,279.060091Z " class="urban"/><path d="M56.965456,554.668961L52.988461,554.027124L45.028806,556.786156L43.541532,556.288895L43.493661,556.250694L43.483978,559.136668L43.042648,565.083420L45.817100,566.774581L49.452155,566.001126L56.761026,557.606514L56.965456,554.668961Z " class="urban"/><path d="M42.159941,1089.958444L43.360696,1087.191714L42.711690,1085.391575L41.136493,1085.942655L41.410224,1086.451456L42.159941,1089.958444Z " class="urban"/><path d="M140.914262,1168.900396L137.791609,1163.718764L135.663192,1163.832924L132.047976,1166.222869L131.936076,1171.157700L129.648060,1173.476759L129.634582,1180.019812L128.139111,1180.969857L121.087197,1180.920734L117.317850,1185.671205L136.326668,1193.725684L154.641464,1196.429898L155.794754,1198.381933L158.174693,1198.990754L159.909138,1201.489881L169.015698,1195.715204L162.101511,1181.737830L162.196366,1180.279125L163.978564,1176.826816L161.027506,1174.995601L160.044304,1176.188783L157.762009,1176.312515L157.262695,1175.451623L151.415006,1174.417904L148.527467,1169.982317L146.403902,1168.632057L140.914262,1168.900396Z " class="urban"/><path d="M83.465809,1168.102569L79.829562,1164.134704L75.438152,1164.871051L73.068704,1169.647009L74.684622,1173.813883L76.209601,1175.738519L83.580810,1177.370543L83.465809,1168.102569Z " class="urban"/><path d="M96.257282,1198.413390L101.644834,1196.646558L104.764382,1187.822619L102.340623,1185.016604L99.203619,1183.146756L95.307150,1182.283934L90.588089,1182.496332L91.573737,1193.548305L96.257282,1198.413390Z " class="urban"/><path d="M834.044962,1214.333261L837.610908,1212.740349L836.018903,1206.963881L827.220007,1203.394309L824.873313,1211.345044L829.159869,1214.013925L834.044962,1214.333261Z " class="urban"/><path d="M237.372085,1294.297865L239.943622,1293.001337L238.832032,1287.530220L235.880540,1287.022235L232.098985,1291.833331L234.420670,1293.789010L237.372085,1294.297865Z " class="urban"/><path d="M754.587384,1341.091614L752.678028,1336.217071L749.002192,1333.848235L749.264953,1346.173326L755.660914,1344.716951L756.907277,1345.430200L759.964372,1351.436097L761.330156,1352.444983L765.740822,1353.521176L765.735811,1355.612722L769.027119,1354.413186L771.398829,1347.379011L772.741211,1345.562167L775.628281,1349.058067L779.977964,1345.349051L779.291302,1343.732003L776.310389,1342.977628L774.476710,1338.619755L772.327933,1337.164049L765.503755,1340.489502L762.822803,1337.845454L759.900418,1336.023930L759.944315,1338.487928L754.587384,1341.091614Z " class="urban"/><path d="M432.447568,1406.988296L430.298611,1408.684617L431.540949,1415.373102L431.149632,1423.845041L434.481489,1427.289379L439.407277,1426.404615L441.552491,1426.717157L443.429121,1419.771387L443.497240,1414.618419L442.130848,1411.175169L439.718434,1409.442981L432.447671,1409.444178L432.447568,1406.988296Z " class="urban"/><path d="M549.061201,1431.100032L552.649461,1423.642418L549.953499,1421.675189L546.303099,1421.140184L543.104138,1422.480560L545.244017,1429.688597L546.747201,1431.130909L549.061201,1431.100032Z " class="urban"/></g>
<g class="map" id="lakes"><path d="M178.827423,178.441847L173.702134,176.634745L172.163675,175.140852L168.889300,169.277123L169.666268,167.821921L169.024274,164.556518L165.195147,158.686862L162.348331,155.577347L159.797793,154.194731L154.108458,154.542857L150.902753,152.764920L148.961685,149.224058L147.380017,148.048498L140.209743,148.301342L136.194606,149.055994L134.391503,150.106101L132.689695,153.325668L129.475124,157.218483L127.330645,160.685539L128.886249,162.629081L132.157894,161.670448L137.394959,155.326400L140.744697,153.857640L142.453851,155.100391L143.607218,160.989249L145.015664,162.928672L146.195773,162.503338L148.673750,159.230421L150.253669,158.429268L151.886780,159.414914L153.947832,163.406518L156.808763,165.306806L157.675115,167.427781L154.939937,174.976794L153.623417,176.294642L146.597932,173.232572L144.344120,176.831227L140.032477,187.291797L135.154255,191.482356L133.131505,196.429949L131.793676,202.287067L131.463888,207.141820L133.744883,211.855812L133.820152,213.585025L132.260060,216.179285L128.564489,216.236206L127.871457,220.191472L125.847146,224.954053L136.944629,224.078640L142.657375,222.200262L145.246053,217.190245L145.665268,212.717701L142.975118,206.270230L142.620325,204.408690L143.411322,201.992817L148.533344,196.267025L149.621657,193.281985L150.028840,187.729033L152.810136,186.756061L168.881747,187.031860L173.077869,182.692506L180.195083,183.893485L182.758701,182.847961L180.851025,179.687636L178.827423,178.441847Z " class="Lake"/><path d="M959.529145,1536.215405L960.713373,1530.487938L961.010195,1527.746242L960.832779,1514.887726L958.966258,1506.389454L958.266410,1504.859844L953.696591,1502.003613L951.853081,1501.563468L948.342455,1502.430461L945.520842,1503.787166L943.400660,1506.023643L942.246498,1509.128828L939.894578,1521.709980L939.043851,1532.338236L940.322410,1537.053047L959.529145,1536.215405Z " class="Lake"/><path d="M622.293483,1393.652374L618.333084,1392.471345L608.591035,1392.680248L603.024085,1394.065821L599.906506,1397.245404L600.808570,1398.278567L603.677131,1398.630928L614.793742,1398.274744L620.002064,1399.045658L625.544949,1401.507767L625.048118,1396.484597L622.293483,1393.652374Z " class="Lake"/><path d="M737.657859,1321.188543L730.545022,1312.333149L728.907868,1309.362574L725.989604,1307.992166L721.932828,1315.480372L716.021128,1331.250875L714.594841,1336.777291L705.746742,1345.150080L700.179105,1353.968308L698.636335,1357.532165L696.445299,1361.109488L698.714923,1364.656190L704.540302,1361.783665L715.360017,1349.315198L722.493749,1347.777033L723.764979,1346.635648L725.702146,1339.200919L728.207704,1336.394810L730.666688,1334.897203L737.240749,1332.252344L740.826155,1329.809405L743.750968,1326.727940L744.078131,1324.103533L739.871705,1323.030923L737.657859,1321.188543Z " class="Reservoir"/><path d="M973.116223,1251.148416L974.927594,1255.254306L982.709279,1268.183866L990.031978,1273.457155L989.786771,1267.230900L989.464680,1265.923517L978.807861,1249.659244L978.432387,1240.456541L979.219260,1238.787585L970.022340,1238.727025L965.661378,1239.697709L965.005928,1242.406699L966.249195,1243.400154L969.141117,1242.949832L972.070312,1245.374319L973.116223,1251.148416Z " class="Reservoir"/></g>
<g class="map" id="rivers"><path d="M966.662657,1239.297413L962.686797,1232.595320L942.044946,1214.259075L934.778913,1210.841861L931.245702,1208.431023L929.664051,1204.884056L928.148796,1195.833706L928.592345,1191.247580L927.901540,1188.877014L925.498704,1185.840048L918.347608,1182.333363L914.989529,1179.502251L911.803931,1178.238151L907.674059,1179.460949L903.503900,1181.453170L900.225349,1182.470126L896.947897,1181.594744L892.490777,1179.367371L888.529333,1176.323985L884.998176,1170.258654L873.437929,1166.571852L871.672606,1165.184246L869.400010,1162.184114L859.844233,1157.790168L856.973550,1154.743868L854.514540,1151.284759L851.642668,1148.562917L847.499531,1147.701670L845.373532,1148.485733L841.083848,1152.317971L838.886384,1152.061880L832.111804,1148.190646L828.564240,1146.761111L825.579905,1146.771421L822.910165,1148.673412L820.320242,1152.963466L824.094377,1152.468279L824.293986,1153.974616L821.496186,1159.013784L820.987728,1162.715111L821.665899,1165.465615L823.413943,1167.268689L826.127259,1168.118091L825.666147,1172.089471L831.297861,1201.357453L831.657211,1204.550673L830.575714,1209.092556L828.278877,1213.065779L825.397811,1215.879994L822.612156,1216.988959L819.511116,1224.053621L815.635361,1226.877907L815.795838,1230.864352L808.693268,1247.476205L803.808490,1255.602100L797.750399,1260.529823L790.776679,1262.712158L788.095007,1264.362714L782.482271,1271.034747L762.018259,1285.187074L757.368547,1290.618735L755.528705,1297.432331L754.104264,1298.644927L746.209414,1308.279068L743.852955,1310.481483L734.473343,1317.133069 M698.766020,1364.974819L697.824348,1371.374031L694.020788,1377.038500L669.265710,1400.706968L665.016158,1402.928321L660.022476,1404.430621L636.892463,1405.975956L630.177031,1405.002529L625.532912,1401.473310 M599.694559,1397.165179L591.288652,1399.011140L585.705129,1403.742756L573.247678,1422.692405L570.355456,1425.081615L567.271116,1426.208377L559.110355,1425.700032L557.040048,1424.529712L555.028163,1421.453455L552.605051,1421.956055L549.443948,1423.647964L542.739610,1425.227127L540.421764,1424.742312L536.232082,1422.611917L532.470965,1422.643350L530.150678,1424.828969L508.516721,1428.549384L502.070379,1432.812724L498.170182,1433.836423L494.225471,1433.893269L491.078649,1433.150669L489.291607,1431.841267L486.571811,1427.123290L484.661045,1426.400392L479.721895,1425.824812L476.413690,1423.887096L472.058444,1424.281370L468.824297,1422.115544L456.108273,1416.657076L433.741892,1410.431296L428.150471,1405.896604L421.407563,1404.790724L416.533267,1401.623916L386.146280,1398.224253L383.713662,1396.661059L381.128613,1393.036675L377.711448,1386.064343L377.510813,1378.914761L373.204448,1376.246838L368.461908,1374.912846L366.491543,1373.872157L363.837301,1369.744895L363.287941,1364.851033L364.956233,1360.276215L368.895651,1357.068803L363.910621,1347.701010L359.434978,1344.049043L356.368670,1342.882173L342.045510,1341.593261L333.661130,1343.501708L329.461054,1343.576417L327.682694,1340.785016L326.956264,1336.572968L325.175183,1331.591705L322.973711,1327.185107L321.024096,1324.716195L315.346688,1326.320164L309.200551,1329.988500L306.581576,1332.477273L303.670930,1334.103049L300.633622,1334.994083L290.900556,1335.168250L285.215454,1337.617102L274.824918,1339.091300L269.452328,1336.300131L257.333746,1336.552322L254.563971,1335.400799L251.239043,1331.997601L248.899009,1331.574566L242.793224,1334.531381L234.850856,1335.918628L230.656305,1335.471759L227.694808,1333.551561L226.387250,1327.533788L224.138523,1325.000178L218.378732,1325.038648L210.621260,1323.248329L204.959050,1320.487466L199.987614,1319.392129L196.685275,1320.714250L195.482282,1323.124525L193.926360,1328.530338L192.735969,1330.515160L189.024497,1331.591826L185.363082,1329.241120L181.632383,1325.983572L174.412046,1322.662324L171.971121,1317.791247L164.978140,1314.007848L159.600062,1309.966322L157.482912,1307.640623L156.995638,1306.146454L157.648185,1301.637765L156.161487,1299.234932L149.020827,1294.326154L141.642658,1291.036244L140.055117,1289.931820L136.537327,1284.511386L132.258148,1281.641291L131.025171,1277.214265L130.341302,1268.311436L126.874932,1260.354187L124.089268,1256.141160L121.399195,1254.283111L109.425569,1254.987459L105.261490,1253.875720L99.146588,1249.896583L67.399766,1211.863569L65.519253,1208.604564L64.946487,1204.459534L64.631012,1198.266408L63.895762,1192.640330L62.058532,1190.133275L60.390916,1189.387575L57.904146,1186.281470L50.243506,1183.120878L45.708533,1180.041663L42.163691,1176.918697L39.152076,1173.485190L36.283813,1167.393158L32.233899,1165.718892L26.553014,1164.913333 M25.587031,1135.143878L27.511180,1132.541190 M28.185058,1131.634207L31.786011,1128.890496L31.795390,1128.876049 M32.541426,1127.726843L33.653583,1126.013660L33.659408,1125.999125 M37.837064,1074.561412L39.030295,1073.238627L45.136625,1072.334099L46.490794,1070.127357L46.491587,1070.121821 M13.179521,1035.468330L11.262654,1037.677285 M2.802497,988.867828L6.144310,984.900795L6.149250,984.878934 M6.789280,982.090127L11.706763,979.689760L13.971872,977.098721L15.170119,975.080339 M21.433247,955.967002L22.657953,953.722399 M28.372593,941.800066L30.366692,937.078094L32.147667,933.916909L35.202858,930.367721L44.908509,924.331156L47.921741,921.782772L50.240389,919.087195L50.248253,919.074816 M52.702761,915.211198L59.056521,905.209808L59.065359,905.192138 M97.963645,795.105120L98.506189,794.491664 M108.607632,778.313635L113.709147,772.097338L113.715539,772.068210 M118.608245,757.416201L119.263497,756.363109L123.996630,751.110568L125.068395,749.476785 M52.914408,630.037098L57.593212,625.011863L59.675233,621.996010L59.676679,621.991843 M43.031175,565.238006L45.630036,558.197816L45.967436,553.310565L43.501193,554.005942 " class="River"/><path d="M58.690169,168.038025L61.149425,170.933691L64.004862,172.976400L67.538676,174.213993L80.989657,173.909452L85.180958,174.928383L87.094096,176.338002L90.580058,180.173518L92.423442,181.590328L94.503967,181.935072L101.021345,178.312530L104.583882,170.762394L106.629818,168.828440L110.280843,161.459321L111.870589,159.692779L114.523972,159.075973L117.337093,159.537484L122.860760,161.418185L127.549822,161.358839 " class="River"/><path d="M203.197987,193.953804L200.726866,193.466834L194.182583,190.877739L188.059839,187.241686L182.766272,182.831264 " class="River"/><path d="M997.943900,1485.639669L992.861964,1490.134828L990.156309,1495.599867L982.658072,1501.150137L982.108958,1500.061032L983.030484,1494.365588L982.906073,1492.097203L981.710672,1491.145253L976.122592,1489.386165L971.116810,1484.199216L965.483056,1482.616060L962.301924,1479.860847L957.652493,1473.462451L956.820632,1467.992721L954.062155,1466.087912L951.705965,1458.846239L951.002409,1447.183287L949.995215,1444.399303L939.408625,1426.599505L938.660641,1422.360199L936.898557,1419.712302L931.167096,1415.532963L926.507710,1409.215449L922.661473,1407.144183L921.838374,1404.580936L921.805349,1400.642416L919.836648,1398.665411L918.214481,1398.423457L913.390057,1399.461938L909.393485,1399.068574L907.847678,1397.460562L905.371866,1391.460047L900.888364,1389.386590L895.857910,1391.932266L880.173145,1409.471646L877.071733,1415.004052L877.744678,1420.632160L877.093341,1421.972094L877.965910,1428.321927L879.754562,1430.743764L885.354561,1433.194883L886.917283,1436.704829L887.621571,1450.632936L890.982561,1464.049877L891.518187,1469.440164L890.598341,1472.823719L879.871781,1490.829354L877.865277,1492.469313L874.480417,1493.934738L872.106831,1496.576769L864.031165,1503.454310L861.760191,1506.845692L860.423847,1510.796625L859.681561,1515.283328L859.638570,1534.215796L859.349801,1536.975803L858.302565,1540.246995 " class="River"/><path d="M374.926295,1118.745949L380.104381,1110.533224L379.463171,1107.583274L377.688307,1102.705971L378.356005,1092.351724L376.969089,1087.249001L376.197080,1080.225993L375.338681,1076.884739L372.261796,1069.080370L371.301298,1061.457526L370.015305,1059.737385L365.781256,1056.107097L366.427878,1051.575559L368.225284,1048.083528L371.018152,1045.403070L374.658432,1043.215472L378.345661,1041.961213L396.670911,1041.796080L399.719104,1040.706424L405.262608,1044.700356L407.114561,1044.259541L411.814399,1041.664499L413.508716,1042.047889L420.032690,1044.721838L434.789271,1041.679318L451.556596,1041.991356L459.514428,1040.299127L465.484985,1034.154158L467.631169,1026.403151L471.422104,1018.973615L472.481282,1011.579046L473.833951,1007.212649L477.339657,1000.508319L482.421393,994.132894L484.850513,990.205921L485.866620,985.803797L485.196816,980.256947L484.035385,975.981608L483.514733,971.876076L484.804725,966.865919L492.873250,956.051192L496.294094,955.273589L498.450526,953.286601L501.585557,947.704160L503.852679,945.180993L508.672112,941.936045L510.723704,939.349639L512.318167,934.916511L512.269521,931.372546L510.635302,925.390754L510.679648,920.224137L514.091849,915.001413L514.950458,910.772848L515.813449,894.129847L517.521396,886.943071L523.742387,868.294658L523.214616,862.845355L525.689035,857.575361L526.362352,852.879394L525.829579,843.628114L526.261273,840.021299L529.909458,829.963930L527.304073,819.463273L528.952447,811.269515L525.992394,803.679029L513.622972,788.882380L509.969118,787.546422L508.314031,788.315612L505.661947,791.424212L504.081955,792.129225L479.680878,788.109415L475.408460,788.793026L471.995007,791.508601L469.560657,794.383712L460.711278,801.408928L454.634599,804.361482L424.943286,811.166575L420.417236,811.435114L417.282934,809.848248L411.836243,804.447379L407.099627,796.856311L404.103027,793.285521L401.474153,790.936572L398.448879,789.653889L387.138779,789.024903L383.955058,788.127631L380.337679,786.151446L362.661602,769.141643L355.932850,764.792847L343.434351,761.355263L335.292707,756.011826L332.107849,754.633258L327.408107,750.467370L325.441165,749.277326L321.515903,750.114698L316.213080,756.816013L312.924004,758.415772L309.095183,759.386176L306.568487,761.922491L301.733014,768.804690L292.422108,775.560409L286.674750,778.061032L283.747424,781.982651L281.268147,786.514834L278.883918,789.962386L275.157007,791.929004L271.319460,791.667902L259.191306,788.762868L256.595035,786.387468L254.333504,783.382871L251.207341,780.511573L237.389590,778.036618L233.082463,774.430698L216.603432,773.895542L209.646228,775.359215L202.659387,779.251318L184.689400,785.968689L182.283215,784.758924L181.272623,782.434732L178.862325,781.766963L174.397403,782.200076L173.277382,782.911639L171.057727,786.830720L164.216874,786.700022L157.313733,782.486633L152.315348,781.093614L151.052421,776.882016L149.599931,774.266921L151.297795,771.417612L151.499482,764.615153L152.982247,759.845696L152.223241,753.766466L154.185813,749.522526L156.743402,742.290769L156.721150,739.778763L154.860334,736.191698L154.476368,731.152752L150.861467,722.464624L152.250650,718.311458L152.218711,713.949684L151.290283,705.047760L152.027381,700.711701L155.109365,692.153631L156.039058,687.596826L154.276809,678.928075L148.798319,674.516686L142.268455,671.606571L137.296480,667.409639L133.307890,660.166746L130.559203,657.620332L126.484623,656.595691L120.903017,658.376664L117.124399,654.912886L111.349992,650.331104L108.092299,644.489605L106.282785,644.042809L104.545150,645.624948L104.385385,651.686429L101.071633,652.060278L97.136445,653.301966L93.252589,655.517211L90.069026,658.775926L88.862258,662.550884L88.561562,671.748941L87.906829,674.681721L85.376485,679.787346L79.149881,683.490368 " class="River"/></g>
<g class="map" id="roads"><path d="M45.481127,1103.281103L40.933080,1116.676099L39.000117,1125.895618L39.065198,1133.242494L40.720282,1143.343375L44.413210,1150.413018L43.405904,1176.278104L42.418506,1181.658360L40.391986,1184.301408L39.447073,1188.136574L40.153074,1192.795148L42.587317,1195.574543L45.859745,1198.378920L49.507922,1197.716230L52.556135,1198.580221L53.051497,1200.913375L50.650842,1207.023744L50.214404,1212.805957L50.460048,1224.402874L48.657474,1228.983813L40.864144,1237.628726L27.689591,1258.064917L23.944118,1261.841114 " class="Federal"/>
<path d="M768.334628,1341.491809L764.649613,1340.819791L756.193099,1341.429380L739.933974,1347.243708L726.704624,1349.879549L718.353359,1356.632154L709.172663,1364.939815L700.856485,1374.763315L693.890960,1381.467212L688.631798,1388.902041L678.513547,1394.504992L663.939052,1406.350070L633.650524,1414.206275L610.949241,1417.641021L595.916079,1421.318945 " class="Interstate"/><path d="M595.351298,1421.711771L572.603824,1423.149842L553.220606,1419.118455L533.575541,1417.370194L501.715573,1419.519763L488.048541,1418.048432L466.989674,1418.897595L459.015297,1416.220027L446.483998,1406.219322L439.942138,1405.068840 " class="Interstate"/><path d="M706.921830,1544.663345L678.581701,1507.269738L671.907537,1500.486845L670.725107,1497.819728L664.056893,1491.029948L651.067565,1480.889510L634.270647,1461.945161L613.716159,1435.320203L602.827301,1428.929348L594.485795,1420.567418 " class="Interstate"/><path d="M179.702516,673.496991L165.215104,684.782346L162.383936,690.890333L156.872828,696.561304L153.813786,700.738438L150.898062,709.926681L150.622944,721.096271L154.037702,735.812105L154.437676,741.603353L149.467312,757.314614L149.270189,776.599082L148.290684,783.524638L146.554316,788.119779L140.929883,796.493198L140.321335,799.182192L141.073746,812.709208L144.105376,822.039628L150.187418,852.292252L152.289950,867.403666L151.098449,883.609535 " class="Federal"/><path d="M441.078493,1403.140388L437.666348,1403.142485L434.822508,1401.215775L428.001562,1391.189954L422.889837,1386.945036L405.575365,1379.977662L395.650714,1374.937797L387.722260,1368.739285L371.627107,1350.148615L365.696350,1345.872707L356.935864,1341.963005L346.482056,1338.035449L338.002917,1336.044264L331.496675,1335.607554L317.902487,1337.034919L303.191807,1336.505744L288.242121,1331.710068L279.738496,1333.539453L270.431215,1331.106256L263.715846,1324.840682L256.751971,1316.250811L253.762582,1306.554690L247.646436,1299.128341L243.782477,1292.504828 " class="Interstate"/><path d="M650.665277,1186.269661L652.059523,1185.691454L666.391171,1173.061258L671.660890,1154.785429L674.068763,1148.938290L675.163414,1147.757231L692.710473,1146.640294L696.589594,1145.400812L699.586336,1141.857833L701.250057,1141.436391L708.531063,1143.216065L711.873529,1143.143872L714.356182,1141.929398L720.073072,1135.614637L726.432322,1133.537219L731.449146,1133.808492L747.386300,1136.909106L795.446049,1134.096350 " class="State"/><path d="M646.235739,1186.138484L653.848674,1192.621488L665.410390,1197.828962L674.239582,1206.557171L677.360106,1208.817138L682.714975,1210.645801L695.344395,1211.936967L702.130990,1215.273635L778.919478,1275.983891 " class="Federal"/><path d="M243.782477,1292.504828L234.000299,1286.174124L227.000416,1282.971646L186.162909,1233.555577L171.021689,1217.792408L165.307703,1208.782963L163.026104,1196.363741L161.128496,1193.230614L153.082774,1189.964531L135.215300,1188.789008 " class="Interstate"/><path d="M956.303856,1467.663229L955.496668,1460.401432L949.861705,1444.124194L944.114401,1432.837909L930.883180,1417.238442L920.845310,1403.796078L915.315057,1398.628836L909.271113,1395.017551L901.607343,1393.774354L885.591652,1396.687740L875.360450,1394.752617L869.713041,1394.955679L861.869859,1397.543388L856.608406,1401.576823L839.435341,1404.855323L825.261869,1404.163729L815.291168,1401.784333L807.660369,1402.405701 " class="Federal"/><path d="M996.842281,1455.254501L994.456114,1457.497070L988.579635,1459.305472L971.586502,1458.925075L961.062285,1465.919447L956.303856,1467.663229 " class="Federal"/><path d="M956.303856,1467.663229L960.558371,1476.308178L963.838239,1481.153855L969.127166,1486.675501L970.993759,1491.580132L977.764322,1490.506871L980.516856,1488.079365L981.800420,1484.183615L985.169510,1483.261534L987.446227,1483.540220L990.974943,1487.213360L998.052794,1488.643216 " class="Federal"/><path d="M825.928123,1208.945796L828.763051,1210.402766L831.712632,1206.060683L838.006911,1201.611433L851.043941,1189.598466L858.990906,1185.084722L872.761209,1179.979853L878.034005,1179.410092L883.646492,1180.757578L894.127508,1186.175398L904.269549,1189.664977L908.811419,1192.198673L918.165520,1204.972391L925.630601,1211.246822L931.265552,1212.955836L938.807424,1213.427766L942.480633,1214.823905L951.671551,1229.886221L955.390939,1232.433320L963.581251,1235.176753L969.733434,1243.016771L973.720603,1245.159883L977.048400,1251.958669L983.811544,1260.918310L989.956193,1271.532851 " class="Federal"/><path d="M76.183159,551.419812L71.303665,554.750190L64.938360,554.973823L59.777210,558.676769L48.660932,558.386662 " class="Federal"/><path d="M76.725181,551.049679L80.568941,546.925946L85.885451,546.286873L91.841130,542.210683L100.595119,541.646132L107.279787,539.496917L119.338471,543.594485L133.560942,546.577159L147.897351,545.713870L159.507096,547.853324L170.112817,558.788479L176.062974,576.548386L183.137180,592.799864L188.033267,600.182422L195.928645,604.924871L198.012414,607.264585L200.160932,619.214636L202.630855,628.866592 " class="Federal"/><path d="M419.514362,516.266222L418.451150,518.948107L418.706192,526.998365L417.641711,529.681242L416.048262,530.829921L411.537867,530.824369L409.679053,531.588573L401.158535,541.928340L389.468214,543.049909L370.023910,552.572171L356.727593,553.277135L348.206314,555.149404L342.069091,557.799239L331.098423,565.020158L313.986572,572.569668L296.490832,587.778794L295.594751,595.454182L292.790045,606.187806L277.828125,606.804122L270.574622,609.799595L267.318305,613.222354L264.315578,617.416581L262.368084,622.392215L261.476865,628.150061L256.395471,628.088681L247.628643,624.517496L242.295774,623.678852L238.540481,624.397719L234.722936,628.575734L232.570113,629.315064L230.177821,628.512392L226.513919,624.230330L224.390601,623.430705L207.009055,623.937324L203.520300,624.651091L201.342901,626.538715 " class="Federal"/><path d="M201.861219,627.316099L203.683940,629.652531L204.414435,633.125333L203.877934,646.195361L205.249003,657.761182L204.626913,661.984936L202.435089,664.259164L195.927948,667.616882L191.002104,672.153682L187.741422,674.022849L179.702516,673.496991 " class="State"/><path d="M781.401627,976.198790L785.153252,979.699774L790.028235,986.915651L795.610790,999.523537L798.107811,1009.894835L798.513183,1024.191036L793.444477,1050.241000L792.582623,1069.213926L793.483538,1081.950421L796.733159,1109.701107L798.743894,1122.403883L801.825291,1133.528151 " class="Interstate"/><path d="M778.919478,1275.983891L774.618163,1284.209902L769.855662,1297.078319L768.029796,1315.652517L764.568402,1324.619959L762.520245,1333.933528L762.323971,1337.796190L762.956767,1340.865070 " class="Interstate"/><path d="M89.755071,278.725289L86.391993,279.029194L84.426718,276.333217L83.152672,275.925682L76.700634,276.157326L64.657782,274.360388L53.425825,278.891026 M53.404691,279.424045L53.626174,279.775424L53.386420,279.884826 " class="Interstate"/><path d="M50.175197,553.058673L49.719469,558.414658L44.107148,559.799178 " class="Federal"/><path d="M44.107148,559.799178L43.423512,559.951424 " class="Federal"/><path d="M151.098449,883.609535L155.677831,886.409017L166.634218,885.081830L168.793873,886.283440L170.019046,892.878172L181.355359,900.051029L182.613263,905.486711L182.544407,922.497846L184.766000,962.760096L187.275829,975.184454L187.908516,985.253957L192.742371,991.918457L193.439360,998.894777L192.432096,1008.548838L190.072654,1016.630778L186.322509,1025.073438L180.110862,1031.920536L178.227077,1043.491420L173.334499,1053.068538L171.274457,1059.218105L171.098467,1068.113165L175.861571,1079.814159L175.831726,1081.361149L174.399920,1083.654324L167.303758,1091.636726L162.120925,1100.815046L160.360706,1105.420594L160.435584,1115.479997L159.523491,1119.329146L154.383385,1125.795838L151.075506,1137.714904L138.608106,1160.641338L135.974164,1166.381246L134.462936,1171.759665L133.779941,1177.543551L135.215300,1188.789008 " class="State"/><path d="M517.378748,727.070740L514.683300,736.782578L513.935763,745.659309L515.048204,749.896599L519.979953,757.969251L520.283048,762.212256L518.415882,766.083340L511.142485,772.302334L509.833421,779.258212L511.819080,791.988085L515.373835,795.442446L518.401352,800.830354L524.427962,806.970732L525.811850,810.051345L526.983876,854.864852L526.468255,858.733744L524.592481,863.385270L524.390119,872.664793L523.863873,875.374695L519.809860,881.974451L513.726061,913.337570L509.956660,924.577557L509.983429,928.832676L511.138627,937.723806L510.890725,941.981009L508.162644,945.478884L501.031445,948.999766L494.479132,959.092250L484.312740,964.166422L480.742374,966.888735L479.377914,970.376436L479.144198,981.600023L475.034251,989.741247L474.771262,993.612334L475.884990,996.317890L478.104021,999.019574L489.178220,1004.781898L493.900000,1009.792186L498.090151,1018.286970L502.551772,1024.843809L506.539475,1044.562109L521.328488,1059.178277L525.003658,1068.829256L536.511817,1084.611465L544.359599,1092.286992L550.556632,1101.133686L557.289143,1106.875770L565.686157,1111.436068L575.276336,1122.943205L582.559938,1126.343232L590.098249,1127.414172L602.756119,1136.539646L607.661241,1149.241700L613.386610,1159.994731L615.708940,1166.538124L622.258250,1175.339510L626.001203,1183.019135 " class="Federal"/><path d="M89.620339,282.511311L93.433757,284.111368L100.638526,292.228439L105.698501,295.370103L112.091694,297.400685L129.636617,298.514330L137.464731,304.736541L144.122673,307.139703L145.878136,309.070173L148.196420,309.492782L151.193100,313.343936L152.725090,314.131218L162.609444,312.789472L169.572214,314.049177L191.060571,315.161221L202.609706,320.275481L216.166133,329.210887L223.113148,332.347774L231.395934,333.979138L245.964435,333.403129L250.970489,335.040059 " class="Interstate"/><path d="M163.116021,16.983314L149.690945,5.583164L146.487672,1.596613 " class="State"/><path d="M189.408790,2.281375L190.351074,12.187593L187.550872,13.636830L181.944709,7.964655L178.196970,7.535078L171.877470,9.299193L166.512880,12.566662L163.116021,16.983314 " class="State"/><path d="M173.639379,60.080484L173.726933,57.091243L165.464662,38.655255L162.441143,22.563899L163.116021,16.983314 " class="Federal"/><path d="M173.639379,60.080484L192.819489,59.625225L196.279581,62.292976L198.470613,65.316429L201.789424,73.594777L206.098658,80.291649 " class="Federal"/><path d="M58.315286,173.792706L69.994399,176.285992L78.430236,175.723719L88.695612,180.846751L99.300261,176.929849L112.395567,159.881602L122.324008,160.078221L130.074402,156.840910 " class="Federal"/><path d="M130.887832,161.751277L131.137681,163.258334L130.685813,169.273056L127.197933,174.478534L122.456171,178.906792L119.830188,188.653197L115.602403,200.258591L115.346716,207.799457L106.996559,219.708968L106.027180,232.911106L98.260034,249.382779L91.499639,258.694927L89.266166,263.566195L89.076343,268.862451L90.134003,275.324231 " class="Federal"/><path d="M44.077764,545.996680L43.698386,545.928227 " class="Federal"/><path d="M44.077764,545.996680L52.767607,539.710850L57.814569,539.075198L59.162481,538.343387L59.507118,536.053020L60.227646,523.046162L59.517041,520.730103L52.325021,515.183914L51.297623,507.117898L48.484465,504.748000L49.413704,500.945297L51.616442,498.324019L51.894272,490.679547L53.625403,479.250856L52.756018,474.258328L48.987418,469.574032L49.029773,468.428543L53.661500,456.702695L62.007058,450.801897L63.770666,445.499255L63.714430,439.770741L65.366867,437.521114L71.849636,431.954090L72.259202,427.766222L74.471619,424.385437L75.376187,420.973568L80.407747,419.185559L82.080814,416.173403L81.911693,413.499771L80.424022,411.176855L77.330908,409.959960L67.289348,398.664483L65.081957,394.800203L64.988210,390.226242L66.568010,382.647348L68.926666,375.089609L71.692570,370.588286L72.733473,363.382955L72.296473,361.089891L73.705041,358.080100L74.608855,347.453705L63.900038,342.256362L59.680806,337.213445L56.603888,329.540140L57.237582,326.517466L64.366393,322.893665L65.500686,320.263223L69.003896,316.550689L75.276738,300.761855L79.163152,300.472411L77.996918,297.032330L79.982807,292.148777L81.571827,291.047733L83.012247,286.910811L84.627559,285.052320L90.637985,282.912821L90.134003,275.324231 " class="Federal"/><path d="M50.175197,553.058673L49.463830,550.739645L44.077764,545.996680 " class="Federal"/><path d="M419.642783,515.220408L418.983522,517.032259 " class="Federal"/><path d="M76.725181,551.049679L78.161158,555.686152L79.259591,570.672449L80.700747,575.312026L84.402381,575.785384L90.577687,573.630302L101.237908,572.343381L105.898278,576.286933L106.371414,578.216614L111.002914,583.310431L107.102304,598.197817L110.215168,600.956405L115.758916,602.615969L121.337779,603.121854L125.608090,602.829437L126.715965,601.316484L130.176632,601.389584L132.488383,604.511181L135.919277,605.734871L137.424356,609.223755L140.027477,611.582472L139.894487,616.575595L140.592524,620.433277L146.024751,627.077864L147.685526,635.185471L147.309639,639.408213L148.697196,647.897879L151.484174,654.108597L155.900579,659.582079L179.702516,673.496991 " class="Federal"/><path d="M151.098449,883.609535L140.800964,880.300740L134.742812,882.488024L132.389988,889.392480L132.653732,900.993240L135.126179,911.871108L126.551271,926.756214L124.093293,959.952358L121.745600,966.085272L118.099087,969.093602L100.698029,972.539160L86.451332,971.016964L83.040562,975.181206L80.249461,986.707673L77.901228,992.058696L74.769592,995.841446L70.887571,996.896185L63.242442,1004.418742L56.562349,1006.937280L52.634706,1018.811449L45.315999,1024.011802L41.170794,1033.555523L40.939294,1041.281648L44.306308,1048.728153L50.394240,1057.800439L49.927745,1064.360260L46.484146,1078.178897L43.182843,1086.973664L41.885767,1088.675926 " class="Federal"/><path d="M41.216215,1096.183546L45.481127,1103.281103 " class="Interstate"/><path d="M899.089795,1095.587637L908.798260,1088.664367L918.365856,1078.262168L918.386705,1071.306053L921.335747,1061.535212L921.077664,1054.589586L918.761778,1051.584976L916.493213,1042.395363L915.296592,1032.392719L915.630807,1026.584113L916.830891,1021.902837L921.091721,1018.267070L924.497075,1013.889492L926.728743,1007.623656L934.590992,977.192011L933.737574,962.545440L934.188399,953.258112L936.638433,946.213062L940.681663,944.900417L942.856683,942.735526 " class="Federal"/><path d="M135.215300,1188.789008L97.302499,1185.146489L94.298583,1182.361647L84.268218,1170.496280L78.673753,1160.292338L69.698620,1141.485663L66.684487,1129.415219L65.122687,1125.504564L60.572834,1119.188349L49.483059,1108.812718L45.481127,1103.281103 " class="Interstate"/><path d="M899.089795,1095.587637L891.499912,1100.110418L882.969401,1101.570132L874.955566,1118.852435L865.016388,1128.852246 " class="Federal"/><path d="M795.446049,1134.096350L861.330422,1135.159401 " class="State"/><path d="M248.643307,1287.168665L263.542763,1266.512502L279.152696,1254.729996L340.758094,1257.642729L357.129535,1249.245330L398.212473,1248.261041L435.917544,1250.624563L449.987259,1249.452349L469.152623,1250.214257 " class="Federal"/><path d="M243.782477,1292.504828L248.643307,1287.168665 " class=""/><path d="M865.016388,1128.852246L862.908915,1132.401285L862.211361,1136.675832L862.683945,1142.843361L857.373330,1150.749534L836.344076,1192.392042L829.179296,1205.367512L825.928123,1208.945796 " class="Federal"/><path d="M825.928123,1208.945796L823.222577,1212.120107 " class=""/><path d="M801.856848,1134.687089L808.405127,1150.347187L815.735395,1173.707541L819.893746,1182.856930L823.349461,1196.662074L823.222577,1212.120107 " class="Interstate"/><path d="M823.222577,1212.120107L813.824417,1226.313709L793.708859,1249.694523L778.919478,1275.983891 " class="Interstate"/><path d="M445.366403,1338.467967L449.791067,1318.235356L460.754918,1286.537455L467.719991,1251.347502 " class="State"/><path d="M807.660369,1402.405701L803.493210,1382.502701L801.740969,1368.683138L799.679412,1365.275995L784.383382,1363.794826L776.712505,1362.083818L772.344301,1356.421780L768.334628,1341.491809 " class="Interstate"/><path d="M403.388929,1547.800956L403.865448,1544.338647L402.461447,1527.434472L401.319419,1525.126266L401.043822,1519.361403L402.772180,1513.984855L408.799357,1504.386967L411.661209,1504.392070L419.108166,1496.711438L419.737151,1422.795823L438.527983,1422.799907L441.361633,1401.212436 " class="Federal"/><path d="M813.302508,1541.774284L813.257694,1541.371570L808.692123,1529.239691L807.738740,1525.048382L806.447506,1506.278013L805.200960,1501.708312L805.555821,1492.478517L808.514911,1485.086601L808.653943,1478.933769L806.638433,1465.927076L814.298107,1441.844290L814.931736,1432.975338L813.287176,1423.790893L807.660369,1402.405701 " class="Interstate"/><path d="M172.566153,53.709148L168.453649,64.858512L163.447364,71.884105L157.284656,91.624902L150.704384,99.756489L139.660719,120.190869L134.416498,125.350317L132.417417,132.073141L130.030747,150.445412L130.074402,156.840910L130.887832,161.751277 " class="Federal"/><path d="M627.399802,1182.997856L627.443425,1186.091331L628.568014,1186.460857L641.436808,1186.256580L648.168042,1187.304769L650.665277,1186.269661 " class="Federal"/><path d="M469.152623,1250.214257L486.855008,1250.892175L509.391220,1255.413062L524.006725,1252.222467L570.271358,1235.951018L595.999351,1201.617108L613.248974,1192.101870L627.443425,1186.091331 " class="Federal"/><path d="M441.361633,1401.212436L444.721985,1341.409236L445.366403,1338.467967 " class="Federal"/><path d="M752.505425,1341.089869L760.617559,1345.194277L772.558704,1357.154969 " class="Federal"/><path d="M771.313068,1355.861454L766.074271,1350.028546 " class="Federal"/><path d="M229.014751,1285.736570L235.240196,1291.821391L237.622546,1295.183750 " class="Federal"/><path d="M44.303470,1149.362793L49.227376,1153.171005L64.135708,1160.262585L71.700287,1164.470807L78.816811,1167.664001 " class="Federal"/><path d="M237.847580,1296.517295L242.838047,1304.905831L250.607328,1305.353106 " class="Federal"/><path d="M435.168409,1422.926307L438.601429,1426.242312L454.047134,1426.555751L454.049995,1428.546048L456.013123,1429.537441L477.592221,1429.807524L478.576039,1430.798878L483.762170,1441.722030L484.991367,1442.379922L507.812115,1442.259377L512.213325,1439.246929L522.269124,1438.845111L531.040210,1429.491313L541.090432,1429.405810L546.228005,1428.032226L551.622367,1428.312355 " class="Federal"/><path d="M350.080097,1339.641113L355.184463,1342.332241L360.058211,1342.693603L361.516166,1343.698892L361.986630,1347.356949L367.311369,1356.689232L367.521233,1364.663399L366.774449,1367.981234L368.478240,1369.318683L368.453139,1375.296920L370.876248,1380.290481L374.533478,1382.632431L375.013656,1384.959003L373.032161,1391.590087L375.462049,1395.917121L374.468471,1399.895887L374.431183,1409.852460L377.369725,1409.865813L377.847832,1413.186323L390.585542,1412.903789L390.576650,1416.221955L401.600127,1416.917601L407.967319,1418.922375L412.373105,1422.911395L419.481280,1422.920587 " class="Federal"/><path d="M237.622546,1295.183750L237.847580,1296.517295 " class="Federal"/><path d="M556.957630,1421.293379L565.458899,1412.909857 " class="State"/><path d="M551.622367,1428.312355L554.041702,1424.308216L556.957630,1421.293379 " class="Federal"/><path d="M158.875500,1188.260706L155.559991,1185.526534L152.432959,1185.458602L145.114616,1178.639261 " class="Federal"/><path d="M361.033318,1342.699183L413.206861,1342.886385L420.522691,1341.233435L442.705695,1338.242528L447.095467,1340.564446L449.044940,1339.897187L457.820581,1339.881951L460.255053,1338.214818L463.172867,1334.884040L467.306668,1331.216572L472.658901,1328.540861L474.845228,1326.538931L474.837474,1323.879401L476.536879,1322.211147L487.466162,1315.185174L490.140241,1314.507991L495.714939,1309.493027L499.338915,1304.153313L500.535856,1300.155979L502.465958,1297.151971L502.934135,1293.490670L505.814077,1286.488760L510.868271,1278.141273L512.546671,1274.470945L518.359762,1272.768828L520.021223,1266.768234L521.716580,1266.423532L521.666561,1258.437644 " class="Federal"/><path d="M941.061681,1536.946084L941.162845,1532.322437L942.782983,1529.283277L944.043601,1522.628502L943.424580,1510.770033L941.994297,1504.226257L941.021335,1496.670378L940.359391,1475.879565L940.762515,1473.217977L942.956709,1473.125180L946.739216,1469.327803L950.362056,1468.180849L952.744171,1466.425216L956.885111,1466.245777 " class="Federal"/><path d="M874.994838,1539.646202L876.040344,1536.572579L873.845802,1528.069744L865.832232,1522.088066L864.063542,1520.170147L863.704102,1515.888672L858.548895,1515.742746L857.236630,1512.485363L858.488519,1504.179574L852.727344,1490.167624L845.260515,1476.204290L839.683941,1468.784096L835.678976,1465.278301L831.810468,1457.463230L823.075400,1450.464663L820.533704,1446.572830L814.850708,1434.167529L813.540753,1430.564617 " class="Federal"/><path d="M158.875500,1188.260706L158.751536,1194.582386 " class="Federal"/><path d="M142.234593,1189.891575L143.925452,1189.596948L147.842633,1186.356071L152.432959,1185.458602 " class="Interstate"/><path d="M941.052910,1537.021188L941.061681,1536.946084 " class="Federal"/></g>
<g class="map" id="airports"><circle cx="154.035934719" cy="1196.37942281" id="Boise Air Terminal" class="Airport" r="20"/></g>
<g class="map" id="cities"><circle cx="547.924492072" cy="1428.59609105" class="city" data-lat="42.5358132111" data-lon="-113.791876263" id="Burley" r="25"/><circle cx="218.11294941" cy="331.797640632" class="city" data-lat="47.4742197867" data-lon="-115.926888063" id="Wallace" r="25"/><circle cx="957.020023968" cy="1465.03183953" class="city" data-lat="42.3226220897" data-lon="-111.296912274" id="Montpelier" r="25"/><circle cx="438.265316264" cy="1423.56611447" class="city" data-lat="42.5609537954" data-lon="-114.460569297" id="Twin Falls" r="25"/><circle cx="82.3602579081" cy="1174.13922023" class="city" data-lat="43.6609641714" data-lon="-116.670537762" id="Caldwell" r="25"/><circle cx="526.808193874" cy="841.078705689" class="city" data-lat="45.1756779165" data-lon="-113.894996584" id="Salmon" r="25"/><circle cx="92.3132134007" cy="284.974214032" class="city" data-lat="47.6780833121" data-lon="-116.779445843" id="Coeur d'Alene" r="25"/><circle cx="766.800495919" cy="1350.11444638" class="city" data-lat="42.871348286" data-lon="-112.44472335" id="Pocatello" r="25"/><circle cx="829.979537754" cy="1215.93941364" class="city" data-lat="43.4666866242" data-lon="-112.033301434" id="Idaho Falls" r="25"/><circle cx="46.7737014671" cy="560.924314935" class="city" data-lat="46.4166099234" data-lon="-117.016588991" id="Lewiston" r="25"/><circle cx="153.302825251" cy="1187.5402486" class="city" data-lat="43.6085901073" data-lon="-116.22748987" id="Boise" r="25"/></g></svg>