<?xml version="1.0" encoding="utf-8"?><!DOCTYPE svg  PUBLIC '-//W3C//DTD SVG 1.1//EN'  'http://www.w3.org/Graphics/SVG/1.1/DTD/svg11.dtd'>
<svg xmlns="http://www.w3.org/2000/svg" version="1.1" style="fill:none;" width="100%" height="100%" viewbox="-50 -50 1100 716">

<!--svg enable_background="new 0 0 1000 616" height="616px" pretty_print="False" style="stroke-linejoin: round; stroke:#000; fill: none;" version="1.1" viewBox="0 0 1000 616" width="1000px" xmlns="http://www.w3.org/2000/svg" xmlns:xlink="http://www.w3.org/1999/xlink"--><defs><style type="text/css"><![CDATA[path { fill-rule: evenodd; }]]></style></defs><metadata><views><view h="616.592640286" padding="0" w="1000"><proj dist="1.3" id="satellite" lat0="42.2" lon0="-71.5" tilt="0" up="0"/><bbox h="79.15" w="128.57" x="928.1" y="966.75"/></view></views></metadata>
<g class="map" id="states"><path d="M756.026557,614.373535L755.990349,611.111189L752.527586,608.749508L750.304848,609.807982L747.899016,609.838292L747.398415,611.218907L750.000448,613.419600L753.448483,614.407186L756.026557,614.373535Z M981.585771,614.592640L991.085005,610.594779L993.562702,600.699333L988.560408,590.890095L979.791069,575.872803L975.713045,565.683484L972.901007,559.739040L969.797299,556.707995L966.231650,555.946450L965.762250,557.407295L970.634918,564.744274L968.776115,572.979408L960.076817,588.073122L964.483718,585.921869L972.206300,577.216121L977.321124,575.201923L975.700807,580.414405L972.600619,585.440198L968.552769,589.247940L961.447840,591.615597L958.536005,595.050774L956.364658,596.049138L954.095857,595.921095L951.527726,594.167093L946.605243,594.012890L936.279416,595.274763L920.433923,593.861684L913.796050,592.653393L909.401347,589.639056L904.869214,588.888967L903.267400,590.202438L909.467011,595.779356L943.088487,612.321311L954.419902,614.119832L969.767162,613.283202L981.585771,614.592640Z M855.573934,568.575732L856.002955,563.095942L855.558044,551.298663L852.767338,545.295543L848.599433,548.841145L844.110346,555.516227L840.304137,558.948907L841.986572,563.167428L845.838168,567.892178L850.317490,571.327205L853.871155,571.799915L855.573934,568.575732Z M720.063968,550.743804L726.109870,549.294189L734.658721,549.189098L740.695110,546.635247L742.327497,544.686254L739.235887,539.487798L735.968719,543.110392L728.532831,544.028025L724.700333,546.554907L720.570305,546.880252L716.470260,549.960938L714.284483,552.469177L717.058121,553.538545L720.063968,550.743804Z M814.031042,530.004726L810.616524,529.157790L795.293519,535.879922L787.025696,544.749377L783.383128,546.768206L779.838377,549.593856L772.398419,562.978991L768.967833,567.631704L761.293644,574.548284L743.210803,574.762609L743.230565,577.537891L746.673664,580.041177L752.099611,587.193189L755.021470,590.217807L760.190984,593.328912L763.146979,593.211080L771.018597,583.166996L777.659745,578.712600L785.418637,575.343041L793.919126,573.198366L833.577868,571.977293L838.508133,570.590740L835.499265,551.550305L826.528536,551.275864L822.566630,549.766319L818.860731,546.392472L824.407493,543.064911L827.269735,540.118417L827.369032,536.502495L824.465113,530.984392L820.365123,529.079148L817.847279,532.127858L815.285363,536.549484L811.123277,538.822586L814.031042,530.004726Z M764.823600,535.043041L767.817817,531.699607L767.511237,528.947745L778.742546,522.747950L783.936008,518.825395L789.690013,515.722959L785.251301,513.297344L780.833046,512.524322L760.884177,527.926319L752.163633,536.850928L748.020030,536.074264L744.740022,538.594444L746.704319,541.601906L753.576486,539.864813L758.528239,538.977720L764.823600,535.043041Z M979.382323,496.790635L986.260357,474.730980L990.843875,467.018835L989.129831,460.034085L986.895412,459.190888L984.818945,468.991883L973.975094,498.032849L979.382323,496.790635Z M292.751961,58.140649L279.225904,57.485172L238.659966,55.446366L171.087039,51.889638L146.024103,51.596720L132.376715,50.995900L119.274299,50.032225L105.624752,49.781402L89.711371,49.043154L73.162217,48.622180L71.869138,52.491630L53.761514,115.097779L22.445141,222.726408L2.703924,290.221727L0.812225,296.978161L8.012120,306.311101L41.791405,308.397791L109.433067,312.408741L179.843665,316.379807L194.874590,318.018809L195.066944,327.793296L207.087139,326.767847L208.801826,318.230609L246.997656,319.346029L253.455977,321.464210L259.404565,322.035440L264.521511,319.480659L319.771289,321.189093L360.911420,322.387278L402.062896,323.513558L443.237463,324.586259L475.070993,324.950683L475.274739,328.991423L500.494962,328.564048L576.166969,327.073663L590.624388,327.278613L592.504123,367.757624L593.792194,372.198509L596.002527,372.808865L601.280086,372.461015L603.517593,372.905725L604.515828,374.314481L605.083004,378.554518L603.952081,386.754897L604.426323,392.323132L603.111364,405.029899L603.706481,409.397728L605.241606,412.252384L608.446743,416.559695L613.031450,420.084832L618.968488,422.808757L624.131623,427.016986L632.849044,442.087648L632.852336,442.081220L635.038958,437.815702L635.625957,436.012681L637.248647,433.885631L640.908579,434.712512L647.104653,437.376199L649.798794,435.625788L651.669419,433.115179L660.404189,415.586049L663.754043,410.884948L668.025930,409.125144L661.147722,424.741389L645.932940,451.025667L644.906734,454.310898L644.906210,454.312573L662.539146,460.138375L659.555721,480.689662L662.640654,484.787036L665.339085,515.694509L665.358308,515.676603L672.290073,511.752909L671.047755,509.912853L668.440170,504.096945L678.845148,505.967593L682.091862,504.027964L681.985992,496.338378L685.675162,500.972173L687.234357,506.624205L685.682232,511.545690L679.980417,514.048060L688.330653,517.755739L695.258138,515.793353L707.705047,506.195796L706.966012,508.763789L710.872513,508.600997L714.253613,506.610233L720.525326,501.211667L718.639478,490.147390L721.586840,483.351825L725.369024,477.099017L725.854207,467.680095L732.717504,472.177011L734.624009,474.009024L735.840620,476.670169L737.875425,483.643199L739.568097,485.735719L742.852728,485.389318L743.163686,481.083834L741.382485,471.499792L744.053414,471.722695L749.488340,469.389523L753.982730,466.513668L753.752824,463.341499L755.941716,460.377704L759.243168,459.754186L762.569801,465.066194L767.625639,458.718658L769.533560,452.429275L772.235481,448.513010L779.649439,449.313394L777.074665,444.164306L776.647493,439.605174L777.543076,427.448269L780.132482,426.721677L785.932685,429.794418L794.818857,436.344591L796.731957,436.325049L797.599040,431.737695L799.862915,429.180858L802.495580,429.458609L804.493229,433.451331L800.546705,436.285610L802.237622,440.342643L800.014607,443.677493L796.672894,446.855747L794.951916,450.413801L795.331654,455.628929L796.814281,461.732908L796.947543,490.310635L794.453096,500.665205L787.817745,508.100960L795.410849,511.578358L812.869207,499.508103L821.330483,497.490860L830.616941,497.016910L838.575339,495.212878L845.378768,491.315187L851.120296,484.591285L859.550841,469.378423L862.397629,466.289644L865.828046,467.190263L869.913064,474.001316L872.904714,472.541888L877.052688,468.808116L880.938609,467.854048L890.158487,468.684725L894.637453,467.826641L902.165795,464.161081L906.336199,463.351112L903.617914,472.835583L903.238505,476.762019L905.625974,474.636186L909.899856,467.248624L912.275124,464.374689L918.558694,462.401102L927.465558,457.653211L941.014648,457.433018L985.281858,448.679712L996.309159,451.326222L997.642842,426.251626L996.821415,406.799492L994.563107,401.776443L990.466908,401.349350L984.064299,405.495450L985.124116,400.425634L985.971103,389.668189L988.194556,387.994526L991.168894,388.931400L995.268776,392.242250L998.358228,391.055011L999.187775,389.833940L993.875445,382.604523L982.401219,346.814880L973.244153,329.981375L962.660750,314.858185L954.181661,308.025205L943.892997,302.399811L935.898028,299.826273L923.148370,298.132042L916.610219,298.764657L912.847452,300.331872L908.759308,304.856097L908.101215,307.585681L912.427483,309.107768L920.611775,320.625213L924.355347,323.696899L929.437109,319.859108L929.153310,316.101173L923.447493,316.190323L924.031711,311.877339L930.672939,306.352059L938.365033,308.661385L949.121962,315.972908L953.743925,325.248957L954.962689,331.772864L956.728846,349.512557L957.589316,356.980458L958.682493,369.856848L961.768129,365.698732L963.117782,354.046717L966.954139,351.584149L969.697293,352.909622L972.388253,355.822777L975.959767,358.475706L981.354620,358.989234L981.402954,361.780958L971.752998,364.517197L977.390043,373.801717L977.053032,387.160975L978.285928,398.383291L972.484372,408.008445L958.975329,414.793098L950.479910,417.758552L925.303584,425.249805L910.777347,434.080757L902.153725,437.567042L890.816892,437.579683L885.222179,436.285846L883.983941,433.861760L887.597373,431.689740L897.836234,431.450740L902.044532,429.649286L866.732604,426.864014L855.964456,422.853468L837.628180,410.352623L829.457046,400.620084L829.760910,391.031401L831.809213,381.025245L830.049276,366.758660L825.629087,354.002464L819.759712,348.527330L808.856160,349.714697L803.627132,348.823408L794.905383,348.149536L778.047692,331.214869L784.831949,326.631753L786.913246,326.107870L791.875628,328.089663L794.309836,310.295170L796.344891,307.557276L798.996630,309.912012L801.725224,315.349469L805.173220,325.648934L799.482942,328.013044L802.257006,329.892758L805.224979,330.732003L808.156284,330.197315L810.910248,327.893316L812.550398,325.372053L810.646208,323.224733L802.099692,309.788590L799.704908,303.706512L801.078572,297.280405L794.891997,291.144684L787.747516,278.054633L782.767434,270.682315L779.266113,267.600579L777.659365,255.248754L776.924061,252.736372L769.757565,243.869508L764.222045,238.833806L758.020789,234.962693L744.775248,231.313886L737.969277,226.022211L726.020264,213.161625L725.893844,217.605513L727.923414,223.545784L731.236415,228.789572L734.867232,231.022715L734.815748,233.206438L732.607848,237.116036L729.342091,238.605398L726.165722,233.635204L723.121733,236.145126L718.631300,238.740768L714.551879,240.416790L712.776581,240.245114L712.050981,241.623961L707.413041,239.118778L707.403061,237.530911L710.400652,234.519399L711.166965,232.468537L708.255530,227.616326L702.530748,227.880533L698.252196,226.348533L699.693136,216.125463L692.965352,220.210338L690.356490,220.117969L687.224857,217.340862L684.883053,212.253640L686.103823,208.399522L689.544544,206.105980L693.785099,205.670192L692.253725,202.289224L690.109508,200.194064L684.276368,198.026706L687.532153,193.123627L691.469351,195.285493L696.114741,198.832054L701.321082,197.931357L698.412609,196.360609L696.129740,193.701898L695.731337,191.154425L698.510078,190.023835L702.274180,191.482587L706.845174,197.409270L710.942820,197.872161L708.754006,194.282740L707.976051,190.791261L707.055265,182.537145L704.751696,176.520589L705.001720,173.267111L707.832035,168.303134L713.172702,165.017550L720.794705,174.173432L727.618172,171.927976L724.109269,169.662326L720.414810,166.542458L718.213964,162.648824L719.094087,158.001883L720.908037,156.539404L725.370037,156.982202L727.506159,156.539860L729.309043,155.198974L734.774108,149.892785L737.496634,146.804264L742.210865,145.226985L741.608783,143.094346L738.882602,139.817466L737.739643,136.070633L734.931693,138.106354L731.237314,142.041088L727.414540,143.991636L728.040972,140.415019L729.178476,137.521778L730.882868,135.265633L733.163977,133.463194L731.097732,130.913436L735.658980,127.354187L749.731709,121.293774L777.673000,113.928582L779.738289,111.376026L781.267561,108.049826L783.794957,104.622746L786.985000,102.410272L789.455005,104.569489L794.583406,105.252714L798.852028,102.127661L801.111751,99.205251L802.458992,96.047671L804.355573,93.907074L808.340155,93.881646L808.314877,91.577336L806.856645,88.570436L807.934030,82.439485L805.218383,81.353114L801.524818,81.115609L799.122006,79.872805L798.058438,76.892077L798.527724,71.423987L791.065613,75.357484L787.660917,78.091058L785.451808,81.545646L786.067728,91.521306L784.833543,94.966910L779.897182,91.853063L779.502988,87.094783L764.103679,85.764719L759.085177,79.213314L764.041687,78.912505L768.294722,76.571672L752.558214,69.101817L746.673999,62.829727L745.478553,51.164417L748.584623,54.039931L756.897511,66.426664L758.947305,63.632368L750.681218,39.679174L751.627595,35.109224L749.282974,30.672015L745.543611,30.700846L739.631612,27.907137L737.008407,26.064833L734.193818,22.606249L746.713749,23.383102L749.213347,22.494084L749.711438,19.225026L747.372582,5.999920L747.640561,3.362229L737.852946,5.924092L732.083724,4.455078L722.820995,0.500109L717.034759,0.116972L690.462219,12.192678L679.999874,22.866423L676.426970,25.520584L673.811557,26.402769L662.883988,25.581817L660.158509,26.032701L655.026123,29.239559L652.532896,32.362215L649.256220,38.060467L645.676779,47.641949L642.837481,50.875056L639.587637,52.406052L634.212031,54.053160L629.282792,56.723421L625.549580,61.523156L621.543358,65.544744L617.486253,68.677579L612.548974,70.199961L547.437592,68.085426L469.177402,65.321022L390.976472,62.296167L371.432720,61.503039L292.778636,58.159252L292.751961,58.140649Z " id="Massachusetts" class="neighbor"/><path d="M195.702862,605.105538L198.626729,604.085296L209.368635,603.506710L213.207224,604.312490L221.113803,609.522717L224.676330,609.636556L226.918558,608.145314L231.771727,603.124825L247.853895,599.723250L254.281516,601.685550L265.835632,607.493378L268.957091,605.094542L271.054196,605.121280L271.789039,607.081822L275.020502,610.323713L278.641369,605.155418L284.368223,601.200960L290.720118,598.715808L296.124951,598.001562L308.101192,602.710800L314.011178,603.217532L319.375795,598.259030L315.551382,595.428285L318.510190,586.540416L315.953603,580.642851L311.339993,575.652641L308.124429,569.548386L313.498930,570.186439L317.550536,572.761122L320.287749,576.403969L321.650425,580.154093L321.458889,583.552401L319.598508,589.021966L320.489765,591.775797L322.194879,593.272577L326.132377,595.051420L328.120936,596.962292L337.082984,601.076707L354.359365,590.840732L361.884656,595.877942L363.575184,586.012032L370.973066,586.577641L380.135679,590.539919L387.089649,590.959571L389.810682,586.725699L391.563943,577.878894L394.877164,575.676552L408.078247,588.577481L425.972595,579.005892L428.691055,578.396376L447.047168,578.067129L450.618894,578.785948L454.334493,580.816388L457.074720,583.329841L458.705244,587.116930L452.666090,591.207792L454.466679,594.565360L461.327070,591.507684L461.962717,587.501543L463.757360,580.116004L466.321098,561.211804L468.022252,556.148642L469.811592,553.190488L473.489258,552.234454L476.067008,513.562133L475.370076,350.647922L475.274739,328.991423L475.070993,324.950683L443.237463,324.586259L402.062896,323.513558L360.911420,322.387278L319.771289,321.189093L264.521511,319.480659L259.404565,322.035440L253.455977,321.464210L246.997656,319.346029L208.801826,318.230609L207.087139,326.767847L195.066944,327.793296L194.874590,318.018809L179.843665,316.379807L109.433067,312.408741L41.791405,308.397791L8.012120,306.311101L6.537035,323.640965L5.062618,340.942623L3.573839,358.279666L0.000000,399.974945L0.000000,614.592640L141.134695,614.592640L145.691857,608.332557L156.326741,598.282461L159.537239,592.760761L162.091960,590.382065L163.232924,592.124394L163.855361,600.884066L166.012400,605.158603L165.821387,609.002978L166.690219,612.991070L176.927926,612.999913L180.707584,608.174584L185.307678,608.986312L189.030666,607.893435L191.082669,608.612723L195.702862,605.105538Z " id="Connecticut" class="neighbor"/><path d="M292.751961,58.140649L292.778636,58.159252L371.432720,61.503039L390.976472,62.296167L469.177402,65.321022L547.437592,68.085426L612.548974,70.199961L617.486253,68.677579L621.543358,65.544744L625.549580,61.523156L629.282792,56.723421L634.212031,54.053160L639.587637,52.406052L642.837481,50.875056L645.676779,47.641949L649.256220,38.060467L652.532896,32.362215L655.026123,29.239559L660.158509,26.032701L662.883988,25.581817L673.811557,26.402769L676.426970,25.520584L679.999874,22.866423L690.462219,12.192678L717.034759,0.116972L722.820995,0.500109L732.083724,4.455078L737.852946,5.924092L747.640561,3.362229L747.640940,3.358492L747.985385,0.000000L269.752247,0.000000L269.067898,2.121809L268.784591,8.918946L269.339118,14.756042L270.343815,19.033402L274.189454,26.904990L285.826999,39.341549L291.094498,47.154284L292.766165,58.076715L292.751961,58.140649Z " id="New Hampshire" class="neighbor"/><path d="M589.322320,534.546034L595.272105,527.382375L596.900259,522.512914L598.352702,515.309118L599.219831,507.053133L599.058510,498.951111L598.688144,495.869419L597.759494,493.597361L596.078545,492.180990L593.473847,491.544120L589.275610,504.779575L588.539974,510.868539L591.607329,514.343169L589.429153,518.557182L587.578410,519.703835L588.601114,524.188059L586.975129,532.611531L587.595547,535.066935L589.322320,534.546034Z M609.062923,509.337823L608.144833,513.261052L609.330551,517.545821L612.861832,522.450564L609.734170,525.066558L600.935753,529.066186L599.109011,531.083241L600.032529,536.390582L602.391462,537.728716L605.546154,536.105473L608.879539,532.467647L614.463306,533.339670L619.299434,527.469207L625.232364,522.174142L633.997850,524.725554L632.750897,520.564542L633.951916,509.117667L634.165414,480.963959L637.481384,468.149149L637.457346,460.457410L634.067294,463.383644L627.053035,467.937998L624.254291,470.967787L622.645061,475.336906L621.027419,485.809924L619.336433,490.071884L613.657840,493.839861L612.804422,495.322014L611.797559,505.456153L609.062923,509.337823Z M611.035477,490.443061L613.939708,481.646590L614.286794,473.343962L610.264959,470.911447L606.603438,465.547247L602.937469,456.763598L599.659402,460.676687L598.575188,467.515832L599.311620,471.421469L605.157527,473.363975L606.629282,479.221137L604.815389,486.061411L604.822463,489.967917L606.654124,492.405742L611.035477,490.443061Z M641.307106,465.816130L640.555789,473.342526L640.356532,482.316392L641.414902,498.838595L644.626160,512.833792L644.429762,515.611352L642.865721,519.660215L643.690456,523.593397L647.436739,532.351458L665.339085,515.694509L662.640654,484.787036L659.555721,480.689662L662.539146,460.138375L644.906210,454.312573L641.307106,465.816130Z M475.274739,328.991423L475.370076,350.647922L476.067008,513.562133L473.489258,552.234454L469.811592,553.190488L468.022252,556.148642L466.321098,561.211804L463.757360,580.116004L461.962717,587.501543L461.327070,591.507684L466.461434,589.217436L487.649047,584.025927L531.302978,570.447534L543.426305,567.714206L550.588778,567.116259L556.945507,570.244421L559.786474,570.930849L562.443999,569.313922L563.657617,565.805722L567.692346,561.538423L571.862325,555.988313L579.917439,532.512229L580.666797,525.890361L580.307335,506.208616L578.931585,500.396315L575.202491,492.800144L576.718799,488.999375L580.552541,485.425294L583.696983,478.509193L584.305754,470.923826L583.305814,463.446725L580.631580,457.726091L574.060400,454.327747L575.495529,451.762657L578.686037,449.119717L581.945461,447.788860L585.229038,448.090651L587.602044,449.614144L591.531543,455.439301L592.689959,451.896740L596.441457,444.427430L597.234478,441.236115L596.247751,436.826555L593.976600,434.311559L591.410461,432.392019L589.561637,429.830156L588.506025,423.451022L588.153905,414.536823L588.508202,406.109938L589.526454,401.208357L593.038221,406.378559L595.412621,411.229362L596.752690,416.631066L597.207013,423.316271L599.561401,428.395322L604.764373,433.071734L610.057739,436.434007L612.680790,437.481285L613.904814,434.456220L614.570311,426.334184L615.454990,424.683509L618.007957,425.425128L619.880666,427.389389L620.479871,430.181140L616.818821,438.158216L614.748139,444.741758L613.292307,451.460864L612.722016,456.681945L614.692809,460.874369L619.209505,460.863070L626.312401,464.033223L630.638575,453.062109L632.421721,442.922058L632.849044,442.087648L624.131623,427.016986L618.968488,422.808757L613.031450,420.084832L608.446743,416.559695L605.241606,412.252384L603.706481,409.397728L603.111364,405.029899L604.426323,392.323132L603.952081,386.754897L605.083004,378.554518L604.515828,374.314481L603.517593,372.905725L601.280086,372.461015L596.002527,372.808865L593.792194,372.198509L592.504123,367.757624L590.624388,327.278613L576.166969,327.073663L500.494962,328.564048L475.274739,328.991423Z " id="Rhode Island" class="neighbor"/><path d="M73.162217,48.622180L89.711371,49.043154L105.624752,49.781402L119.274299,50.032225L132.376715,50.995900L146.024103,51.596720L171.087039,51.889638L238.659966,55.446366L279.225904,57.485172L292.751961,58.140649L292.766165,58.076715L291.094498,47.154284L285.826999,39.341549L274.189454,26.904990L270.343815,19.033402L269.339118,14.756042L268.784591,8.918946L269.067898,2.121809L269.752247,0.000000L74.069099,0.000000L73.847854,4.354895L72.964867,10.439880L69.688254,23.623133L67.377574,29.077572L70.221193,48.371816L73.162217,48.622180Z " id="Vermont" class="neighbor"/><path d="M426.609238,605.269320L433.259988,604.203389L438.504606,602.204301L440.569141,598.686138L435.209698,598.357531L431.217578,600.391295L419.905857,601.684863L417.235798,607.689183L415.003597,604.229658L411.966681,603.966549L410.790514,607.688787L407.864308,609.932068L407.209548,614.205924L411.726512,612.722072L418.509533,613.447332L426.609238,605.269320Z M8.012120,306.311101L0.812225,296.978161L2.703924,290.221727L22.445141,222.726408L53.761514,115.097779L71.869138,52.491630L73.162217,48.622180L70.221193,48.371816L67.377574,29.077572L69.688254,23.623133L72.964867,10.439880L73.847854,4.354895L74.069099,0.000000L0.000000,0.000000L0.000000,399.974945L3.573839,358.279666L5.062618,340.942623L6.537035,323.640965L8.012120,306.311101Z " id="New York" class="neighbor"/></g>
<g class="map" id="MA"><path d="M756.026557,614.373535L755.990349,611.111189L752.527586,608.749508L750.304848,609.807982L747.899016,609.838292L747.398415,611.218907L750.000448,613.419600L753.448483,614.407186L756.026557,614.373535Z M981.585771,614.592640L991.085005,610.594779L993.562702,600.699333L988.560408,590.890095L979.791069,575.872803L975.713045,565.683484L972.901007,559.739040L969.797299,556.707995L966.231650,555.946450L965.762250,557.407295L970.634918,564.744274L968.776115,572.979408L960.076817,588.073122L964.483718,585.921869L972.206300,577.216121L977.321124,575.201923L975.700807,580.414405L972.600619,585.440198L968.552769,589.247940L961.447840,591.615597L958.536005,595.050774L956.364658,596.049138L954.095857,595.921095L951.527726,594.167093L946.605243,594.012890L936.279416,595.274763L920.433923,593.861684L913.796050,592.653393L909.401347,589.639056L904.869214,588.888967L903.267400,590.202438L909.467011,595.779356L943.088487,612.321311L954.419902,614.119832L969.767162,613.283202L981.585771,614.592640Z M855.573934,568.575732L856.002955,563.095942L855.558044,551.298663L852.767338,545.295543L848.599433,548.841145L844.110346,555.516227L840.304137,558.948907L841.986572,563.167428L845.838168,567.892178L850.317490,571.327205L853.871155,571.799915L855.573934,568.575732Z M720.063968,550.743804L726.109870,549.294189L734.658721,549.189098L740.695110,546.635247L742.327497,544.686254L739.235887,539.487798L735.968719,543.110392L728.532831,544.028025L724.700333,546.554907L720.570305,546.880252L716.470260,549.960938L714.284483,552.469177L717.058121,553.538545L720.063968,550.743804Z M814.031042,530.004726L810.616524,529.157790L795.293519,535.879922L787.025696,544.749377L783.383128,546.768206L779.838377,549.593856L772.398419,562.978991L768.967833,567.631704L761.293644,574.548284L743.210803,574.762609L743.230565,577.537891L746.673664,580.041177L752.099611,587.193189L755.021470,590.217807L760.190984,593.328912L763.146979,593.211080L771.018597,583.166996L777.659745,578.712600L785.418637,575.343041L793.919126,573.198366L833.577868,571.977293L838.508133,570.590740L835.499265,551.550305L826.528536,551.275864L822.566630,549.766319L818.860731,546.392472L824.407493,543.064911L827.269735,540.118417L827.369032,536.502495L824.465113,530.984392L820.365123,529.079148L817.847279,532.127858L815.285363,536.549484L811.123277,538.822586L814.031042,530.004726Z M764.823600,535.043041L767.817817,531.699607L767.511237,528.947745L778.742546,522.747950L783.936008,518.825395L789.690013,515.722959L785.251301,513.297344L780.833046,512.524322L760.884177,527.926319L752.163633,536.850928L748.020030,536.074264L744.740022,538.594444L746.704319,541.601906L753.576486,539.864813L758.528239,538.977720L764.823600,535.043041Z M979.382323,496.790635L986.260357,474.730980L990.843875,467.018835L989.129831,460.034085L986.895412,459.190888L984.818945,468.991883L973.975094,498.032849L979.382323,496.790635Z M292.751961,58.140649L279.225904,57.485172L238.659966,55.446366L171.087039,51.889638L146.024103,51.596720L132.376715,50.995900L119.274299,50.032225L105.624752,49.781402L89.711371,49.043154L73.162217,48.622180L71.869138,52.491630L53.761514,115.097779L22.445141,222.726408L2.703924,290.221727L0.812225,296.978161L8.012120,306.311101L41.791405,308.397791L109.433067,312.408741L179.843665,316.379807L194.874590,318.018809L195.066944,327.793296L207.087139,326.767847L208.801826,318.230609L246.997656,319.346029L253.455977,321.464210L259.404565,322.035440L264.521511,319.480659L319.771289,321.189093L360.911420,322.387278L402.062896,323.513558L443.237463,324.586259L475.070993,324.950683L475.274739,328.991423L500.494962,328.564048L576.166969,327.073663L590.624388,327.278613L592.504123,367.757624L593.792194,372.198509L596.002527,372.808865L601.280086,372.461015L603.517593,372.905725L604.515828,374.314481L605.083004,378.554518L603.952081,386.754897L604.426323,392.323132L603.111364,405.029899L603.706481,409.397728L605.241606,412.252384L608.446743,416.559695L613.031450,420.084832L618.968488,422.808757L624.131623,427.016986L632.849044,442.087648L632.852336,442.081220L635.038958,437.815702L635.625957,436.012681L637.248647,433.885631L640.908579,434.712512L647.104653,437.376199L649.798794,435.625788L651.669419,433.115179L660.404189,415.586049L663.754043,410.884948L668.025930,409.125144L661.147722,424.741389L645.932940,451.025667L644.906734,454.310898L644.906210,454.312573L662.539146,460.138375L659.555721,480.689662L662.640654,484.787036L665.339085,515.694509L665.358308,515.676603L672.290073,511.752909L671.047755,509.912853L668.440170,504.096945L678.845148,505.967593L682.091862,504.027964L681.985992,496.338378L685.675162,500.972173L687.234357,506.624205L685.682232,511.545690L679.980417,514.048060L688.330653,517.755739L695.258138,515.793353L707.705047,506.195796L706.966012,508.763789L710.872513,508.600997L714.253613,506.610233L720.525326,501.211667L718.639478,490.147390L721.586840,483.351825L725.369024,477.099017L725.854207,467.680095L732.717504,472.177011L734.624009,474.009024L735.840620,476.670169L737.875425,483.643199L739.568097,485.735719L742.852728,485.389318L743.163686,481.083834L741.382485,471.499792L744.053414,471.722695L749.488340,469.389523L753.982730,466.513668L753.752824,463.341499L755.941716,460.377704L759.243168,459.754186L762.569801,465.066194L767.625639,458.718658L769.533560,452.429275L772.235481,448.513010L779.649439,449.313394L777.074665,444.164306L776.647493,439.605174L777.543076,427.448269L780.132482,426.721677L785.932685,429.794418L794.818857,436.344591L796.731957,436.325049L797.599040,431.737695L799.862915,429.180858L802.495580,429.458609L804.493229,433.451331L800.546705,436.285610L802.237622,440.342643L800.014607,443.677493L796.672894,446.855747L794.951916,450.413801L795.331654,455.628929L796.814281,461.732908L796.947543,490.310635L794.453096,500.665205L787.817745,508.100960L795.410849,511.578358L812.869207,499.508103L821.330483,497.490860L830.616941,497.016910L838.575339,495.212878L845.378768,491.315187L851.120296,484.591285L859.550841,469.378423L862.397629,466.289644L865.828046,467.190263L869.913064,474.001316L872.904714,472.541888L877.052688,468.808116L880.938609,467.854048L890.158487,468.684725L894.637453,467.826641L902.165795,464.161081L906.336199,463.351112L903.617914,472.835583L903.238505,476.762019L905.625974,474.636186L909.899856,467.248624L912.275124,464.374689L918.558694,462.401102L927.465558,457.653211L941.014648,457.433018L985.281858,448.679712L996.309159,451.326222L997.642842,426.251626L996.821415,406.799492L994.563107,401.776443L990.466908,401.349350L984.064299,405.495450L985.124116,400.425634L985.971103,389.668189L988.194556,387.994526L991.168894,388.931400L995.268776,392.242250L998.358228,391.055011L999.187775,389.833940L993.875445,382.604523L982.401219,346.814880L973.244153,329.981375L962.660750,314.858185L954.181661,308.025205L943.892997,302.399811L935.898028,299.826273L923.148370,298.132042L916.610219,298.764657L912.847452,300.331872L908.759308,304.856097L908.101215,307.585681L912.427483,309.107768L920.611775,320.625213L924.355347,323.696899L929.437109,319.859108L929.153310,316.101173L923.447493,316.190323L924.031711,311.877339L930.672939,306.352059L938.365033,308.661385L949.121962,315.972908L953.743925,325.248957L954.962689,331.772864L956.728846,349.512557L957.589316,356.980458L958.682493,369.856848L961.768129,365.698732L963.117782,354.046717L966.954139,351.584149L969.697293,352.909622L972.388253,355.822777L975.959767,358.475706L981.354620,358.989234L981.402954,361.780958L971.752998,364.517197L977.390043,373.801717L977.053032,387.160975L978.285928,398.383291L972.484372,408.008445L958.975329,414.793098L950.479910,417.758552L925.303584,425.249805L910.777347,434.080757L902.153725,437.567042L890.816892,437.579683L885.222179,436.285846L883.983941,433.861760L887.597373,431.689740L897.836234,431.450740L902.044532,429.649286L866.732604,426.864014L855.964456,422.853468L837.628180,410.352623L829.457046,400.620084L829.760910,391.031401L831.809213,381.025245L830.049276,366.758660L825.629087,354.002464L819.759712,348.527330L808.856160,349.714697L803.627132,348.823408L794.905383,348.149536L778.047692,331.214869L784.831949,326.631753L786.913246,326.107870L791.875628,328.089663L794.309836,310.295170L796.344891,307.557276L798.996630,309.912012L801.725224,315.349469L805.173220,325.648934L799.482942,328.013044L802.257006,329.892758L805.224979,330.732003L808.156284,330.197315L810.910248,327.893316L812.550398,325.372053L810.646208,323.224733L802.099692,309.788590L799.704908,303.706512L801.078572,297.280405L794.891997,291.144684L787.747516,278.054633L782.767434,270.682315L779.266113,267.600579L777.659365,255.248754L776.924061,252.736372L769.757565,243.869508L764.222045,238.833806L758.020789,234.962693L744.775248,231.313886L737.969277,226.022211L726.020264,213.161625L725.893844,217.605513L727.923414,223.545784L731.236415,228.789572L734.867232,231.022715L734.815748,233.206438L732.607848,237.116036L729.342091,238.605398L726.165722,233.635204L723.121733,236.145126L718.631300,238.740768L714.551879,240.416790L712.776581,240.245114L712.050981,241.623961L707.413041,239.118778L707.403061,237.530911L710.400652,234.519399L711.166965,232.468537L708.255530,227.616326L702.530748,227.880533L698.252196,226.348533L699.693136,216.125463L692.965352,220.210338L690.356490,220.117969L687.224857,217.340862L684.883053,212.253640L686.103823,208.399522L689.544544,206.105980L693.785099,205.670192L692.253725,202.289224L690.109508,200.194064L684.276368,198.026706L687.532153,193.123627L691.469351,195.285493L696.114741,198.832054L701.321082,197.931357L698.412609,196.360609L696.129740,193.701898L695.731337,191.154425L698.510078,190.023835L702.274180,191.482587L706.845174,197.409270L710.942820,197.872161L708.754006,194.282740L707.976051,190.791261L707.055265,182.537145L704.751696,176.520589L705.001720,173.267111L707.832035,168.303134L713.172702,165.017550L720.794705,174.173432L727.618172,171.927976L724.109269,169.662326L720.414810,166.542458L718.213964,162.648824L719.094087,158.001883L720.908037,156.539404L725.370037,156.982202L727.506159,156.539860L729.309043,155.198974L734.774108,149.892785L737.496634,146.804264L742.210865,145.226985L741.608783,143.094346L738.882602,139.817466L737.739643,136.070633L734.931693,138.106354L731.237314,142.041088L727.414540,143.991636L728.040972,140.415019L729.178476,137.521778L730.882868,135.265633L733.163977,133.463194L731.097732,130.913436L735.658980,127.354187L749.731709,121.293774L777.673000,113.928582L779.738289,111.376026L781.267561,108.049826L783.794957,104.622746L786.985000,102.410272L789.455005,104.569489L794.583406,105.252714L798.852028,102.127661L801.111751,99.205251L802.458992,96.047671L804.355573,93.907074L808.340155,93.881646L808.314877,91.577336L806.856645,88.570436L807.934030,82.439485L805.218383,81.353114L801.524818,81.115609L799.122006,79.872805L798.058438,76.892077L798.527724,71.423987L791.065613,75.357484L787.660917,78.091058L785.451808,81.545646L786.067728,91.521306L784.833543,94.966910L779.897182,91.853063L779.502988,87.094783L764.103679,85.764719L759.085177,79.213314L764.041687,78.912505L768.294722,76.571672L752.558214,69.101817L746.673999,62.829727L745.478553,51.164417L748.584623,54.039931L756.897511,66.426664L758.947305,63.632368L750.681218,39.679174L751.627595,35.109224L749.282974,30.672015L745.543611,30.700846L739.631612,27.907137L737.008407,26.064833L734.193818,22.606249L746.713749,23.383102L749.213347,22.494084L749.711438,19.225026L747.372582,5.999920L747.640561,3.362229L737.852946,5.924092L732.083724,4.455078L722.820995,0.500109L717.034759,0.116972L690.462219,12.192678L679.999874,22.866423L676.426970,25.520584L673.811557,26.402769L662.883988,25.581817L660.158509,26.032701L655.026123,29.239559L652.532896,32.362215L649.256220,38.060467L645.676779,47.641949L642.837481,50.875056L639.587637,52.406052L634.212031,54.053160L629.282792,56.723421L625.549580,61.523156L621.543358,65.544744L617.486253,68.677579L612.548974,70.199961L547.437592,68.085426L469.177402,65.321022L390.976472,62.296167L371.432720,61.503039L292.778636,58.159252L292.751961,58.140649Z " id="Massachusetts" class="state"/></g>
<g class="map" id="uzones"><path d="M794.905383,348.149536L778.319871,331.488569L772.769598,330.495724L772.256304,352.203208L774.508775,352.945659L797.945583,352.498515L801.801101,348.682594L794.905383,348.149536Z " class="urban"/><path d="M722.843760,0.509829L721.861335,5.726096L719.751315,6.422604L717.113145,4.126140L714.149491,2.552256L709.624123,5.739739L710.445356,16.198367L717.288778,19.214177L722.330985,28.334725L725.373951,31.751415L729.342453,29.681198L732.675896,27.424884L732.489919,25.100800L729.585987,23.298849L726.435859,10.804406L729.481454,10.785727L729.458621,6.634650L732.912380,4.666078L732.083724,4.455078L722.843760,0.509829Z " class="urban"/><path d="M582.910304,73.888032L582.907263,69.237327L563.561741,68.609068L577.715616,73.974363L582.910304,73.888032Z " class="urban"/><path d="M493.859556,144.657717L493.590053,138.615770L496.546725,128.894978L496.999215,123.812498L496.047637,120.307033L485.326435,103.863241L479.165420,103.628317L463.250586,111.181641L465.934674,121.606633L472.398076,123.749557L475.470868,132.093688L488.065141,144.264285L493.859556,144.657717Z " class="urban"/><path d="M423.115381,123.377182L427.482322,121.129402L429.487661,115.183657L420.490468,111.110652L414.116285,119.298252L418.092473,122.567735L423.115381,123.377182Z " class="urban"/><path d="M72.669023,168.999888L75.078976,167.001308L75.829982,164.897152L85.731330,163.143532L90.639047,156.415113L91.201539,152.051871L90.338446,147.966787L86.570388,140.761229L85.016898,139.762633L82.468377,139.997174L81.628933,150.591896L63.627245,160.460084L66.325176,161.773040L72.669023,168.999888Z " class="urban"/><path d="M278.199738,193.131506L280.462628,187.942694L276.247157,179.569396L269.752442,181.813056L269.774628,187.740458L272.521122,192.126020L278.199738,193.131506Z " class="urban"/><path d="M556.605325,184.656736L551.419183,183.498646L549.088305,181.507516L549.146656,178.074090L543.513059,176.990079L538.575303,177.702007L535.083191,179.640890L532.772478,185.574903L530.385554,185.964646L527.365865,185.539917L522.764797,189.598269L522.369538,198.472862L521.395639,203.044613L520.335358,204.082888L509.037057,217.713453L505.973649,219.674768L505.775266,218.353030L502.922201,211.378107L497.168734,208.805211L494.656134,210.768346L490.593494,211.340981L490.596684,207.138446L484.425168,207.119185L477.774268,204.990475L468.620207,205.387996L463.374080,220.424965L454.603483,229.653787L456.554272,236.233923L457.099826,243.268136L456.131053,255.514072L464.487056,261.150731L468.002541,256.399013L471.925989,252.982269L474.089282,253.200145L478.286512,256.595584L481.189056,257.182481L484.283201,253.022792L493.567140,248.883056L499.732907,248.895539L501.259363,242.453265L499.769161,236.375789L501.330875,232.200973L516.754218,229.513280L533.622746,217.531918L554.613167,208.427979L561.466218,198.927929L559.044864,197.849857L558.680700,194.472509L558.951191,190.164129L558.403124,186.426176L556.605325,184.656736Z " class="urban"/><path d="M242.957953,216.962223L247.176589,213.580997L249.311224,208.088270L249.169450,201.383715L246.549241,195.572750L241.280945,192.636498L241.633523,193.402809L230.659349,202.232797L228.785645,204.972823L239.046095,215.743618L242.957953,216.962223Z " class="urban"/><path d="M564.558581,273.953602L564.559407,269.777775L560.022083,267.675920L553.890553,269.397756L546.001533,273.967104L546.819530,281.278560L547.697626,284.485447L552.481974,286.746330L558.377278,282.020214L561.457746,282.321395L566.930460,295.948823L574.474172,300.427829L578.719082,305.918755L583.150382,307.321033L589.114170,306.782838L592.364607,304.756139L595.522277,298.965900L598.342919,297.791046L602.261111,297.691465L605.140585,296.156056L596.775137,291.282547L583.129671,286.444901L580.900664,286.199695L575.987756,286.954739L573.854948,286.454157L570.767610,278.123917L568.312638,278.319366L567.536653,277.291760L567.674997,273.950254L564.558581,273.953602Z " class="urban"/><path d="M666.865495,344.592400L664.713204,344.100810L659.787053,344.919224L655.971834,351.161200L656.442259,356.241054L658.135652,361.466958L661.034635,362.858884L660.571794,367.854460L661.339382,369.843745L663.235864,369.469733L663.998112,370.457345L663.883081,373.788287L670.818951,378.500982L679.459028,378.631745L687.277521,374.240162L689.258221,363.603553L687.166438,355.633781L681.929044,351.977432L673.707528,353.402063L670.006082,352.889609L667.732234,346.149655L666.865495,344.592400Z " class="urban"/><path d="M654.259006,457.402673L661.111820,448.825687L662.285512,445.892717L664.166186,436.308371L669.699551,426.356332L670.326632,423.739140L664.095404,419.630909L663.984019,418.808675L661.157144,424.747065L645.921531,451.062198L644.906734,454.310898L644.906210,454.312573L654.259006,457.402673Z " class="urban"/><path d="M637.248647,433.885631L640.908579,434.712512L647.104653,437.376199L649.798794,435.625788L651.669419,433.115179L660.404189,415.586049L662.102004,413.203377L660.613864,414.162932L656.393413,413.422656L651.346453,425.492801L648.575962,427.996230L642.566792,426.710976L635.903168,416.887497L631.894795,426.977063L637.074203,434.114294L637.248647,433.885631Z " class="urban"/><path d="M721.586840,483.351825L725.369024,477.099017L725.854207,467.680095L732.717504,472.177011L734.624009,474.009024L734.781634,474.353805L729.468470,452.390819L726.151221,451.168773L723.865121,448.305035L716.088680,432.084554L713.861080,429.413251L708.176127,433.239172L708.664936,446.687012L707.813288,452.717362L697.760622,460.178155L696.326040,462.279402L695.398184,465.306582L719.403688,488.385395L721.586840,483.351825Z " class="urban"/><path d="M905.172222,463.577178L906.224029,461.796586L906.121186,455.362680L904.210865,451.397368L900.779628,446.825215L895.508003,442.284464L879.940339,446.968464L887.550468,461.783630L888.704993,468.553771L890.158487,468.684725L894.637453,467.826641L902.165795,464.161081L905.172222,463.577178Z " class="urban"/><path d="M607.173235,414.848257L610.089384,409.633377L611.209405,403.155302L608.860220,397.960046L604.992823,394.809255L604.400429,392.019109L604.426323,392.323132L603.111364,405.029899L603.706481,409.397728L605.241606,412.252384L607.173235,414.848257Z M604.257984,390.346606L608.020084,365.631118L611.565250,362.267430L623.514695,357.252695L623.401230,332.200202L626.534051,328.097340L632.417308,328.454551L634.675787,333.750724L635.952080,340.393334L639.076467,335.476145L645.016293,324.749617L642.417202,309.183919L637.329703,305.979137L632.141120,306.361853L627.984143,305.066993L626.460942,298.884600L629.923442,289.107355L632.301963,285.392998L635.692289,282.197269L641.849947,282.177468L641.847269,278.004839L645.930203,276.438014L651.030354,279.548517L663.339463,292.897555L665.736262,297.735405L665.488486,303.088148L663.607156,311.266412L665.633215,312.907639L670.592912,314.049870L672.917789,315.417374L672.948207,319.581588L678.869706,320.065206L682.893517,318.458897L685.836176,316.354081L688.396734,315.343691L696.255609,319.503000L699.367367,319.970178L701.930289,310.694559L704.434962,306.972937L707.421264,304.235484L709.998228,302.682201L711.688685,302.716875L713.118382,306.829689L717.202592,305.474318L719.658237,293.284982L722.288662,290.093792L728.409702,281.707765L729.758617,277.383271L736.660807,278.311170L740.498935,283.071587L742.883999,285.022482L743.820668,277.430579L746.922460,277.401904L747.375960,275.698373L743.785544,273.233758L741.288987,268.142633L725.694950,250.030080L722.320275,236.608505L718.631300,238.740768L714.551879,240.416790L712.776581,240.245114L712.404337,240.952509L712.064490,241.621521L712.052912,241.620292L712.050981,241.623961L707.413041,239.118778L707.403061,237.530911L710.400652,234.519399L711.166965,232.468537L708.255530,227.616326L702.530748,227.880533L698.252196,226.348533L699.693136,216.125463L695.158402,218.879163L692.987056,220.208477L692.969697,220.207700L692.965352,220.210338L690.356490,220.117969L687.224857,217.340862L684.883053,212.253640L686.103823,208.399522L689.544544,206.105980L693.785099,205.670192L692.253725,202.289224L690.109508,200.194064L684.276368,198.026706L687.532153,193.123627L691.469351,195.285493L696.114741,198.832054L701.321082,197.931357L698.412609,196.360609L696.129740,193.701898L695.731337,191.154425L698.510078,190.023835L702.274180,191.482587L706.845174,197.409270L710.942820,197.872161L708.754006,194.282740L707.976051,190.791261L707.055265,182.537145L704.751696,176.520589L705.001720,173.267111L707.832035,168.303134L713.172702,165.017550L720.794705,174.173432L727.618172,171.927976L724.109269,169.662326L720.414810,166.542458L718.213964,162.648824L719.094087,158.001883L720.908037,156.539404L725.370037,156.982202L727.506159,156.539860L729.309043,155.198974L734.774108,149.892785L737.496634,146.804264L742.210865,145.226985L741.608783,143.094346L738.882602,139.817466L737.739643,136.070633L734.931693,138.106354L731.237314,142.041088L727.414540,143.991636L728.040972,140.415019L729.178476,137.521778L730.882868,135.265633L733.163977,133.463194L731.097732,130.913436L735.658980,127.354187L743.190993,124.110530L733.247704,102.411684L723.785901,100.453789L718.712191,104.250921L711.810121,106.737095L708.766809,99.784265L705.726679,96.136196L699.445581,94.295038L696.410646,98.480377L694.263020,98.830248L689.247916,97.942354L687.202504,98.530249L687.325945,101.888518L683.585085,107.066127L681.719685,106.710045L680.844577,108.668875L681.450067,113.550563L681.164419,115.225133L676.682388,117.439762L672.727628,114.213134L667.559747,106.612673L663.954322,107.406399L662.721368,107.002709L661.525801,101.317170L663.583590,94.932362L668.757186,86.143914L670.911772,80.492698L670.909058,77.099462L668.677784,69.456749L668.596878,52.812849L671.917322,50.048557L686.934448,48.546936L686.537141,38.980665L682.600025,31.681755L676.444945,25.507231L676.426970,25.520584L673.811557,26.402769L662.883988,25.581817L660.158509,26.032701L660.076897,26.083694L658.983249,33.533844L653.223117,40.337637L649.995043,36.775627L649.256220,38.060467L645.676779,47.641949L642.837481,50.875056L639.587637,52.406052L634.212031,54.053160L629.282792,56.723421L628.992359,57.096826L628.825859,61.278326L629.392307,63.822462L631.908354,69.589616L625.253783,76.150842L622.739634,77.948343L620.389205,77.032955L616.572343,69.625546L615.413740,69.316627L612.548974,70.199961L600.543872,69.810087L588.653784,72.402220L585.962419,73.852299L582.916628,90.530154L578.582515,94.919384L580.874448,106.556143L595.209643,107.228195L598.281895,115.521976L603.027999,118.598654L609.611728,125.453112L612.649925,130.086580L613.910730,135.783636L612.499152,155.844505L616.786431,161.380300L618.393746,164.449780L618.752268,167.545936L615.454986,178.954919L615.054154,189.796324L613.823216,194.689648L611.366533,194.536798L610.600729,195.550052L610.889993,198.025835L610.132685,199.046215L607.656265,198.864521L604.711153,204.692340L595.387383,207.204813L595.772692,197.930527L592.722424,195.186624L583.043469,194.737725L579.961649,186.405997L575.060596,183.642505L573.771107,182.247773L571.595278,186.985305L573.730087,195.341797L573.782233,203.069813L569.676641,205.856162L563.857615,214.648345L558.377528,215.609811L558.817794,222.600086L561.274825,226.000150L563.821663,228.352791L564.523581,232.270136L561.068950,234.301880L564.682911,237.294029L564.537668,240.653762L567.022125,240.452241L567.742798,241.470232L567.658993,244.803126L568.988665,245.196565L573.814820,244.799728L575.122015,248.262112L580.012783,240.640775L582.650569,238.443665L592.342539,236.444543L593.318535,234.464714L595.415626,232.271705L615.946017,227.879901L620.076415,228.034409L622.651743,229.344942L631.420682,239.080404L631.807718,241.899773L631.011966,245.102531L626.206242,254.960021L623.807153,256.749493L620.155918,257.198269L614.642043,253.733501L610.785015,257.220804L607.776941,257.247467L608.987694,265.014037L613.875852,267.809649L619.595874,269.463168L623.257788,273.876821L614.835872,279.176448L611.607582,283.158866L610.943861,290.586363L616.160666,291.917992L619.950033,295.129633L622.360148,300.229449L623.356630,307.226238L621.433959,312.143940L618.786020,316.087298L616.114453,318.711379L611.854303,321.390602L611.020243,323.919245L605.928405,327.013414L602.475970,326.288527L599.356364,342.971211L601.393127,347.044862L601.754438,348.951587L598.678395,353.127298L597.200371,356.376730L593.827938,359.145411L592.140670,359.930884L592.504123,367.757624L593.792194,372.198509L596.002527,372.808865L601.280086,372.461015L603.517593,372.905725L604.515828,374.314481L605.083004,378.554518L603.952081,386.754897L604.257984,390.346606Z M571.327409,327.168980L571.338217,326.891937L568.630949,322.524132L563.773240,321.270892L561.413593,319.088228L561.471988,315.664387L558.052561,315.975419L555.099663,317.819874L545.346152,327.680689L571.327409,327.168980Z " class="urban"/><path d="M266.220372,319.533191L267.489440,313.887977L270.289673,313.421029L279.849089,314.039637L280.168020,312.538317L279.956239,305.668508L283.114331,301.539050L291.190035,267.918311L287.450533,263.667258L282.515666,255.269773L277.455399,255.604000L276.000552,252.388298L269.544233,251.770876L265.221182,247.114820L265.544159,240.152609L261.102842,237.679980L251.233384,239.229991L246.848949,238.569669L246.559601,230.301620L243.922955,226.522840L240.476232,225.001565L232.117603,226.371593L228.497243,225.783786L229.882990,232.122417L234.548736,234.249560L238.557529,238.970080L240.528912,246.817972L239.823355,249.530007L235.435203,257.643528L234.142646,263.414370L239.729382,278.144450L237.007515,280.090429L230.212075,275.514668L228.798117,272.506112L227.390690,264.901295L224.951784,259.088500L221.354788,259.358019L219.184865,261.730473L217.552363,264.822828L215.553652,267.271954L199.677044,273.398384L196.877821,279.519326L199.340473,281.363230L201.292984,289.175824L204.726344,292.714648L212.143317,292.257365L214.438673,294.426323L229.219169,297.118155L230.866624,302.953364L234.897201,300.359759L236.556926,304.104386L241.565666,307.267284L245.350001,315.930955L244.150867,318.414735L244.539689,319.274250L246.997656,319.346029L253.455977,321.464210L259.404565,322.035440L264.521511,319.480659L266.220372,319.533191Z " class="urban"/></g>
<g class="map" id="rivers"><path d="M292.724205,58.139304L291.751560,69.468353L289.171775,82.716508L284.922769,94.572608L278.863797,101.721983L274.568199,102.282278L265.331375,101.210301L261.873268,103.838802L261.069666,106.911767L261.788815,109.454100L264.506351,112.936641L265.748128,115.943175L263.765331,121.611885L263.322470,124.582676L265.301725,135.871020L265.037184,139.851532L263.058563,145.062651L258.713686,153.968538L257.457284,158.852508L257.142605,165.717412L260.379422,172.230093L260.956969,174.603302L260.111747,178.149427L255.028088,181.046708L251.243561,191.256180L249.075704,194.968025L245.352399,198.628736L251.307161,204.384880L251.988368,210.041779L250.264298,216.781999L248.278870,229.579033L247.142755,233.548415L246.638698,237.510795L247.785787,241.281165L251.600311,246.673847L253.431469,250.071224L254.094228,252.995503L252.925908,255.972503L248.122992,262.046679L246.515329,265.689215L246.398277,268.572839L247.892922,273.584363L248.894339,285.275590L251.578055,298.301549L251.526500,306.742541L250.174417,320.387934 " class="River"/><path d="M584.023640,69.273582L586.349387,75.870115L594.612759,85.155071L600.218943,87.191612L619.353883,87.899584L624.873227,86.145148L639.959022,72.469299L643.802067,70.975706L654.093010,68.907725L657.046693,67.064497L660.716413,62.440219L663.928106,56.108167L665.589191,49.370679L664.621221,43.743598L670.314184,41.581823L681.127205,43.788693L687.199571,43.635472L691.835412,41.230066L694.422837,37.416087L699.397829,26.935267L707.462201,18.983693L718.370944,13.818975L728.958021,14.129251L734.193938,22.621506 " class="River"/></g>
<g class="map" id="roads"><path d="M836.324569,428.056698L829.072537,420.927876L823.605446,409.266288L821.490473,393.005312L812.166321,382.685519L801.776156,361.948773L791.979568,350.972722L779.339368,345.882740L772.208696,306.203292L766.305520,294.527313L740.542610,275.190968L728.919574,270.715857L709.530219,259.117471L701.305375,255.909999L696.916375,248.116135L692.570576,247.489311 " class="State"/><path d="M500.316115,138.968295L484.507049,126.545043L456.655231,129.048904L447.057714,128.354668L421.169346,123.008328L409.648556,123.591197L398.155119,120.259773L385.696291,118.219010L380.450201,114.271925L369.888286,115.494389L348.708599,123.788018L340.079769,123.059727L323.918284,108.576094L314.859677,103.926413L303.815851,105.766458L295.099371,113.489479L291.249146,114.749856L283.225809,104.237420L257.466766,95.462336 " class="State"/><path d="M85.341159,48.931986L85.605326,51.041611L88.427520,53.049367L88.332268,57.604403 " class="Federal"/><path d="M29.322992,201.005733L28.834917,200.765920 " class="Interstate"/><path d="M91.835763,49.860287L88.277879,60.207323L80.924552,69.177520L78.412456,74.986972L80.853187,95.218016L75.672552,113.996628L81.142392,127.128547L81.512789,132.345170L79.380163,142.721404L70.713835,167.291582L67.588676,178.949237L67.368724,189.364163L69.318725,210.895009 " class="Federal"/><path d="M400.410722,283.173567L396.075936,281.189161L384.482231,281.106326L361.914650,264.638501L355.639956,264.585412L343.520646,270.342547L331.458573,269.577966L310.200572,271.318576L285.140822,267.783822L271.155966,266.966208L257.614437,269.403594L241.141772,274.399855 " class="Interstate"/><path d="M725.096591,10.150066L725.970404,1.844833 " class="Interstate"/><path d="M723.688405,13.415392L700.327234,19.422032L692.234032,24.025932L684.622459,29.927349L675.538588,29.321069L671.250413,31.946158L661.260329,42.410534L656.053379,54.806951L658.033025,69.780432L657.593945,78.901853L652.820186,82.829284L643.717598,82.862727 " class="Interstate"/><path d="M643.717598,82.862727L633.595903,54.386928 " class="Interstate"/><path d="M697.243097,140.598751L703.469702,137.956081L702.456472,129.492298L708.127243,115.776408L707.112929,107.313445L704.181846,98.862245L703.123959,83.234264L706.849647,66.927264L718.129929,37.547202L722.284544,17.331864L725.096591,10.150066 " class="Interstate"/><path d="M665.083739,144.671115L669.403867,144.000145L675.608675,136.152317L690.999990,140.633758L697.243097,140.598751 " class="Interstate"/><path d="M681.226675,195.362772L670.317552,145.893550L657.336556,130.369840L652.466674,113.449606L646.684937,106.956263L643.717598,82.862727 " class="Interstate"/><path d="M643.717598,82.862727L624.113741,96.603688L614.058935,101.840421L588.175629,110.354825L575.229518,118.836682L563.234206,129.266365L554.590098,140.342858 " class="Interstate"/><path d="M554.590098,140.342858L536.341185,136.423077L529.615145,138.370473L500.316115,138.968295 " class="State"/><path d="M267.531815,57.811547L268.429222,62.380920L267.371777,70.183247L257.466766,95.462336 M267.421175,56.891877L267.540249,57.160424 " class="Interstate"/><path d="M622.985016,208.678429L621.039108,201.515374L626.276412,180.648801L626.700552,161.099184L628.131108,157.185534L650.202477,147.338312L665.083739,144.671115 " class="Interstate"/><path d="M697.243097,140.598751L692.028131,152.356076L692.106846,166.038707L690.753231,181.684473L679.775474,198.684417L680.316895,200.126925 " class="Federal"/><path d="M661.734726,257.417527L681.514478,255.368730L692.570576,247.489311 " class="Interstate"/><path d="M661.734726,257.417527L644.818921,251.619666L639.490447,245.773282L636.535653,227.536417L622.985016,208.678429 " class="Interstate"/><path d="M622.308033,207.080868L616.242325,209.347172L598.429379,216.551441L577.225736,217.228622L560.358781,228.965543L542.031069,236.127857 " class="Interstate"/><path d="M554.590098,140.342858L537.275129,164.442317L530.524923,179.422529L529.546885,191.802481L537.231620,210.708758L542.031069,236.127857 " class="Interstate"/><path d="M542.031069,236.127857L522.720422,247.836307L513.065660,249.774565L492.309277,251.680219L462.343088,262.655206 " class="Interstate"/><path d="M500.316115,138.968295L497.387240,156.553624L494.492381,160.455592L481.001211,169.537928L473.256074,183.195392L472.242662,196.876009L475.082287,210.570730L480.335648,224.273470L479.756298,228.597884 " class="Interstate"/><path d="M619.426288,325.335829L627.630094,316.190362L632.925141,307.051264L638.190211,290.091094L642.991953,280.951248L658.874150,265.901359L661.734726,257.417527 " class="Interstate"/><path d="M542.031069,236.127857L552.633105,268.717144L561.810580,275.886367L567.612972,289.570208L576.804383,298.688514L583.101420,309.109585L597.632939,320.168442L619.426288,325.335829 " class="Interstate"/><path d="M619.426288,325.335829L638.813787,332.446060L663.579078,348.639219L682.982944,353.105828L708.769186,369.895801L719.019695,380.252392L739.948927,389.872093L749.713730,397.611976L774.607442,413.680630 " class="Interstate"/><path d="M774.607442,413.680630L790.207187,420.044615L803.767558,415.997426L810.585403,417.878722L816.527396,428.886545L824.313863,430.101445L835.465046,428.017244 " class="State"/><path d="M400.410722,283.173567L412.014170,281.945387L462.343088,262.655206 " class="Interstate"/><path d="M456.770608,323.886964L456.809349,314.764261L460.276865,295.229678L457.931348,278.276660L458.439262,272.413878L462.343088,262.655206 " class="Interstate"/><path d="M594.712567,372.452659L606.427681,362.507882L619.426288,325.335829 " class="Interstate"/><path d="M400.410722,283.173567L393.502769,303.978075L380.321731,320.823375 " class="Interstate"/><path d="M241.141772,274.399855L241.078659,243.126926L243.206969,228.170827L244.213738,224.926688L251.530567,217.855886L252.544454,213.959950L241.152507,202.083883L240.858107,188.399020L246.541661,159.158555L244.604089,125.260187L247.179085,112.266412L257.466766,95.462336 " class="Interstate"/><path d="M241.141772,274.399855L229.061397,275.537193L186.681049,270.347037L167.501351,263.522912L161.793846,258.867906L150.947030,245.004184L148.080461,243.651887L124.140447,236.059904L94.669138,217.264994L78.887752,213.043881L62.593102,210.755574 " class="Interstate"/><path d="M603.183962,405.562730L618.676779,415.254727L630.351157,419.782217L646.113704,436.950191 M651.073445,442.145194L653.284997,444.454943 " class="Interstate"/><path d="M241.141772,274.399855L259.347832,285.062080L271.838555,290.429627L275.625079,296.990721L275.854918,318.493604 " class="Interstate"/><path d="M954.948412,595.969210L955.625556,598.102975 " class="Ferry"/><path d="M275.854918,318.493604L275.736662,319.827454 " class="Interstate"/><path d="M456.943583,324.743164L456.770608,323.886964 " class="Interstate"/><path d="M653.284997,444.454943L660.126607,452.242704L668.913460,458.716251L684.026532,463.850195L703.504223,465.039290L731.212452,459.639003L741.874752,453.695302L754.932407,443.818468L759.747630,437.915097L774.607442,413.680630 " class="Interstate"/><path d="M380.321731,320.823375L379.151006,322.886480 " class="Interstate"/><path d="M611.256690,353.375233L596.228788,351.449016L591.765605,351.854081 " class="Interstate"/><path d="M654.994382,457.645636L659.161276,454.201003 " class="State"/><path d="M703.469702,137.956081L710.161981,133.354360L718.707616,119.617722L739.800558,117.514633L747.453701,114.850292L773.221945,100.955626L785.183337,98.892610L797.682367,102.680952 " class="State"/><path d="M918.680192,307.679382L929.246092,303.607013L944.246292,305.320544L957.519973,319.429772L972.028049,348.489024L979.945519,358.768604L979.978000,358.858195 M981.071710,361.874882L982.995100,367.180009L983.299429,384.758185L985.000143,399.053844L980.398784,413.463854 " class="Federal"/><path d="M657.958707,52.845270L635.976744,60.740822 " class="State"/><path d="M605.911186,103.812011L588.159854,97.976421L581.442509,92.771739L575.198660,75.187653L573.724839,68.939122 " class="Federal"/><path d="M980.839236,410.851156L978.051576,418.064541L966.742896,438.451850L962.405710,440.481263L933.283013,441.621908L909.154276,453.069680L886.304003,452.753410L878.057834,454.171103L872.183872,450.995402L860.846718,438.121271L854.970105,434.289455L836.929492,428.651060L836.324569,428.056698 " class="Federal"/><path d="M479.756298,228.597884L478.851747,235.346798L477.391400,239.251820L464.313417,252.888191L462.343088,262.655206 " class="Interstate"/><path d="M62.593102,210.755574L45.810098,209.096898L29.322992,201.005733 " class="Interstate"/><path d="M679.702225,195.370510L647.695086,197.574080L622.308033,207.080868 " class="Interstate"/><path d="M680.316895,200.126925L683.194124,207.789745L687.678629,235.134951L692.570576,247.489311 " class="Interstate"/><path d="M211.515477,285.157757L230.953047,292.166509L240.120805,290.609699L242.592681,292.325640L251.359194,289.637257 " class="Federal"/><path d="M68.351881,199.073536L73.458751,212.073461L77.078006,217.193156L82.893439,216.189001L98.159934,218.732693L102.255190,221.054602L105.404631,229.525734L110.713428,233.551702L121.959737,230.397075L130.658076,230.555637L136.921939,227.864025L139.387219,229.029247L146.508137,224.667824L151.429967,227.556666L153.433692,231.516455L161.268574,233.892191L162.059644,236.148619L171.500491,241.912764L175.646491,241.980157L181.370558,247.119397L182.940375,252.752594L181.606646,258.339596L188.564267,264.618664L188.918223,268.550013 " class="Federal"/><path d="M188.918223,268.550013L193.450227,270.863883L193.813810,274.234509L197.483011,278.777657L204.070171,282.803527L211.947269,284.042414 " class="Federal"/><path d="M267.314479,276.939217L271.912395,274.751905L280.209563,275.973101L280.592351,278.782206L291.442374,274.981132L298.079194,276.177217L305.162464,274.571566L317.636292,274.141314L324.734972,270.847021L336.724099,277.694312L347.087408,281.155351L350.780706,286.797890L356.163746,289.649627L364.922020,286.918435L369.882235,290.885557L379.034752,290.957170L388.615703,289.345369L394.012420,291.066703L401.932438,288.876800L409.047425,282.191102L417.802016,278.879048L425.294319,277.800631L430.278796,278.950340L438.602610,277.872211L446.104738,274.543155L448.615436,271.188902L456.539699,265.614353L468.194470,261.734784L474.041688,253.902106L479.443343,253.920868L488.189406,247.216263L491.944004,241.616874L500.671078,239.395823L511.490971,228.199340L518.157776,213.625040L520.647664,213.068165L529.780743,207.470930L538.491918,205.235974 " class="Federal"/><path d="M257.615876,321.863676L258.257373,303.187620 " class="Federal"/><path d="M696.712146,174.555660L701.218478,166.675959L707.376571,158.785461 " class="State"/><path d="M484.088953,230.372813L502.771612,229.302346L512.323369,227.078932L531.002707,225.986275L555.906262,223.197524L562.131120,221.514464L570.431426,223.195068L577.069343,220.385847L582.464847,221.503236L595.328063,220.926143L615.654035,218.081480L622.284828,215.259727 " class="State"/><path d="M623.114517,215.257515L640.117058,213.522784L648.825658,212.930610L655.867653,210.659046L667.055041,208.367038 " class="State"/><path d="M646.935319,262.307706L646.085503,257.261589L647.709983,247.157090 " class="Federal"/><path d="M248.850465,290.726161L246.400213,287.328501L244.506906,273.281220 " class="Federal"/><path d="M702.974144,462.279670L703.425424,467.884062L713.494157,469.501049L721.034579,468.888684 " class="Federal"/><path d="M715.647645,158.172043L724.701177,151.380212L727.154085,147.436764L726.675214,138.465565 " class="State"/><path d="M730.290743,124.417928L727.345436,117.147322 " class="State"/><path d="M658.830191,323.972173L665.080880,323.944838 " class="State"/><path d="M725.418908,136.230672L727.477262,135.094579L730.290743,124.417928 " class="State"/><path d="M575.033720,278.735093L596.238010,271.978915L626.134711,256.204280L629.878119,257.315474L636.091741,251.124793L638.971584,242.699850L647.674219,237.619786L650.141702,231.439216 " class="State"/><path d="M657.774839,75.468037L678.498699,96.125333L692.604360,108.951267L693.859535,111.748636L703.003693,121.230789L712.962657,127.899983L715.881782,131.807432L720.010342,131.219331L726.675214,138.465565 " class="State"/><path d="M665.080880,323.944838L668.399291,320.563690L676.715714,317.157626L675.452425,314.358923L687.064356,304.761739L692.880720,302.485456 " class="State"/><path d="M653.891091,339.700292L657.618901,333.514126L658.830191,323.972173 " class="State"/><path d="M559.643486,326.988551L562.143971,323.622309L560.893449,320.256362L563.808397,310.157649L566.306717,307.351911L565.887874,298.936649L566.717873,290.520943L570.463004,289.397379L575.035962,282.101305L575.033720,278.735093 " class="State"/><path d="M712.862629,302.363618L712.309832,281.049384L710.624829,277.694235L710.510524,259.742858 " class="State"/><path d="M587.367571,158.104404L593.996653,163.144466L603.523478,166.494612L608.900470,164.240152L616.362525,168.711349L625.480546,172.053753 " class="State"/><path d="M88.562243,61.015773L95.046200,65.624387L106.535537,66.962490L111.903299,65.941072L120.116579,66.651619L123.742201,70.640606L127.909051,67.912444L131.167621,69.651748L138.171123,69.213795L140.587435,72.058345L141.707991,78.243804L148.913297,89.578639L154.628458,92.477933L155.923724,89.135897L161.679252,89.791749L163.699407,92.067337L168.278438,89.338641L175.204358,93.934617L184.249394,95.197830L191.602573,99.235374L200.678365,98.811001L204.834784,96.629554L213.884716,97.881842L218.780585,101.315455L220.741982,108.071541L226.870705,112.081752L235.604483,107.153777L237.333320,101.569597L242.685749,102.200992L247.106539,110.669583L249.574025,111.262099 " class="State"/><path d="M70.976416,56.745388L79.848522,64.768343L82.184568,70.979476 " class="State"/><path d="M777.274126,336.633811L770.581537,333.890425L763.023749,327.226010L755.080576,323.927905L753.794632,319.450959L742.523217,316.175771L735.039021,317.915821L725.864025,316.299719L722.448202,303.982111L720.347914,301.191641L715.780194,302.905399L706.198718,301.845141L692.880720,302.485456 " class="State"/><path d="M899.336161,456.297408L911.549258,461.719983L916.997536,462.196685L926.523513,455.320261L932.396726,456.347177L936.554563,454.597910L942.845814,455.615310L954.103264,453.183295L958.735497,453.928934 M962.447485,453.194933L969.938036,449.543836L986.193387,446.446419L989.983856,448.057561 " class="State"/><path d="M803.738473,484.418432L803.771093,487.781671L806.760749,493.355516L805.557358,498.974088L811.843051,498.345283L813.889223,493.277662L818.053564,490.428315L825.605870,490.902646L831.876214,489.147470L838.114439,484.588141L843.042469,475.558564L849.261706,469.875117L859.658121,463.575306L868.422676,461.217064L875.546191,461.681121L898.917716,456.303569 " class="State"/><path d="M75.852777,156.617924L81.217597,156.725534L89.150353,152.397348L100.326121,150.931855 " class="State"/><path d="M107.006120,147.134132L115.758265,142.812147L121.641435,137.313447L128.654664,137.440093L135.173224,142.041382L142.994014,143.299524L148.269639,148.436671L150.786425,146.236787L156.575721,145.773830L164.765426,149.834796L170.846419,156.662815L178.217387,160.706307L181.036387,165.237050L185.268810,159.135019L190.640209,159.218166L198.430009,163.262076L200.022338,167.211503L206.534187,174.037849L210.644180,175.780470L215.929527,182.025873L220.861321,184.339463L227.799558,191.166718L229.336290,199.600718L234.227057,205.276406L239.596014,206.470692L244.491229,212.144533L249.981189,204.364107L258.701277,202.792893L276.655515,191.233457L282.031519,191.857298L286.113202,196.952383L292.669731,203.196451L294.696863,207.145408L301.296128,210.022279L303.703372,217.340248L307.368491,223.549542L319.758536,228.725892L325.140121,229.901343L328.912254,226.011487L333.071015,224.929451L336.782887,227.208249L340.038941,233.969992L355.798330,235.231956L359.976950,231.901483L364.961186,231.381725L366.178514,234.757504L377.721934,244.946161L382.708883,244.422751L386.400873,250.620820L394.688347,253.484697L405.525513,247.947328L415.922417,245.768306L426.761344,238.538066L432.167907,236.884528L441.279286,241.419573L449.999803,241.461231L452.483818,243.155572L459.959299,243.187960L465.782533,240.967462L471.216719,231.450777L477.445392,230.911956 " class="State"/><path d="M401.419208,118.900677L406.859587,108.279172L406.525718,96.499370L407.842101,84.730456L409.933707,80.257014L416.975130,75.252165L417.042204,64.597873 " class="Federal"/><path d="M538.491918,205.235974L550.519259,201.316213L557.153039,202.439723L568.347139,199.632945L571.662931,197.948391L579.124944,197.943316L588.243742,196.811925L604.412599,197.908792L622.230316,195.063356L628.439245,192.241143L636.724094,191.093699L646.688694,196.108299L659.556901,200.545702 " class="Federal"/><path d="M707.891226,110.544606L707.880255,108.862096L721.635415,69.516934L726.018956,49.300787L730.839441,33.568186L730.800690,28.522593 " class="Federal"/><path d="M657.844048,187.649907L658.655902,183.719619 " class="Federal"/><path d="M211.947269,284.042414L211.515477,285.157757 " class="Federal"/><path d="M52.113469,166.217902L56.240783,166.305019L60.428640,163.589643L73.695384,161.059270 " class="Federal"/><path d="M40.691498,160.017026L40.608348,163.728971L46.298412,167.775713L51.288033,166.200394 " class="Federal"/><path d="M256.460450,248.196833L260.624591,247.127805L272.788937,236.620419L279.466396,233.334470L304.795454,231.375273L308.979565,228.054030L307.356476,224.671286L307.903302,212.336536L309.188710,208.423543L308.431995,201.684493L310.161038,194.971530L308.643046,182.054677L310.419118,170.855170L312.511852,168.633215L314.663493,160.802777L323.825789,154.724591L327.235498,144.661912L330.156802,141.885541L330.195893,137.959839L333.154742,131.257466L336.878221,130.731247L342.328353,122.368102 " class="Federal"/><path d="M211.947269,284.042414L218.331829,273.479162L218.492479,262.264249L226.771602,264.064574L232.199902,261.896691L239.272885,260.871558L241.831390,255.858014L247.650039,255.374340 " class="Federal"/><path d="M198.413416,327.507807L198.437387,325.901569L201.450235,319.217905L201.541782,313.050279L205.750707,309.748952L207.594957,297.438206L207.302856,289.021227L211.515477,285.157757 " class="Federal"/><path d="M667.430741,199.950305L665.749531,194.908889L657.858315,191.015806L657.844048,187.649907 " class="Federal"/><path d="M658.655902,183.719619L659.891373,182.031492L655.313975,177.001458L655.267435,165.782143L653.179491,161.302686L649.861989,159.632560L644.444789,149.555192 " class="Federal"/><path d="M603.699405,399.347513L621.503441,394.221122L628.181144,390.836827L636.519383,384.640545L656.960853,377.271784L667.804208,373.858270L672.379186,369.910010 " class="Federal"/><path d="M673.214167,369.905950L685.729910,368.158716L703.272022,369.739916L709.947657,369.136871 " class="Federal"/><path d="M709.947657,369.136871L710.365086,369.134174 " class="Federal"/><path d="M709.947657,369.136871L710.365086,369.134174 " class="Federal"/><path d="M710.365086,369.134174L709.947657,369.136871 " class="Federal"/><path d="M710.365086,369.134174L720.789435,367.381647L737.471829,365.577597L752.872124,360.406888 " class="Federal"/><path d="M498.079854,278.100570L486.886781,265.726363L481.103555,254.487417 " class="State"/><path d="M574.536522,155.311203L587.367571,158.104404 " class="State"/><path d="M813.194215,424.884172L815.772751,431.584703L815.487239,444.484421L813.859041,448.988000 " class="State"/><path d="M247.650039,255.374340L253.140555,248.154231L256.460450,248.196833 " class="Federal"/><path d="M659.556901,200.545702L671.172300,202.177045 " class="Federal"/><path d="M675.707340,197.106376L667.430741,199.950305 " class="Federal"/><path d="M680.663471,193.715742L687.250747,185.827584 " class="Federal"/><path d="M481.103555,254.487417L479.469794,246.066548L475.333964,241.003068 " class="State"/><path d="M502.201939,293.819668L501.801855,287.086371L503.060725,282.601155L498.079854,278.100570 " class="State"/><path d="M683.290685,381.073067L697.142801,393.335037L708.054437,401.120118L710.188957,408.397548L710.312196,428.586690L716.237575,439.202413L713.778097,447.630550L715.509247,456.590913L713.019964,460.532755L711.395150,468.954287 " class="State"/><path d="M534.807107,327.888259L524.642248,319.109105L520.070668,311.808762L509.669751,305.618005L505.930549,301.682711L502.201939,293.819668 " class="State"/><path d="M625.480546,172.053753L630.043923,174.845613L635.427474,174.829082L649.110538,179.269491L657.410763,183.163775 " class="State"/><path d="M664.379894,452.394107L666.404368,436.121899L665.112616,427.715538L667.187909,423.780132L674.272159,417.576813L676.765943,414.199211L677.974765,404.658366L685.335638,372.648292L691.930416,356.905532L692.737180,351.852393L691.044186,347.374335L691.412314,338.396831L685.507841,325.526871L681.686060,311.522313L681.226817,303.109695L682.429630,294.127354L676.420745,257.130958 " class="State"/><path d="M813.859041,448.988000L809.434016,466.977873L804.941332,478.799519L803.738473,484.418432 " class="State"/><path d="M752.872124,360.406888L760.789602,359.218166L770.301523,349.598808L779.474985,349.514315L784.447278,346.101571 " class="Federal"/><path d="M680.251975,194.278820L680.663471,193.715742 " class="Federal"/><path d="M636.600304,154.069378L624.138701,136.716924L621.235498,133.358989L614.178298,121.035894L611.682538,113.749718L607.120261,104.785003 " class="Federal"/><path d="M258.708436,300.388939L255.381196,300.346273L252.964628,294.145252L248.850465,290.726161 " class="Federal"/><path d="M250.621924,282.336078L249.440735,277.272610L251.713837,262.158159L247.650039,255.374340 " class="Interstate"/><path d="M689.359680,192.547985L691.004488,190.295037 " class="Federal"/><path d="M476.625013,228.104007L476.636824,224.737915L489.093621,222.533720L492.003222,220.859027L496.585548,214.139231L508.627692,208.557573L513.190872,208.005776L525.640762,202.416310L534.354007,196.816788 " class="Interstate"/><path d="M252.993312,291.902075L255.953320,288.014072L265.174669,281.960831L267.300751,278.060860L268.220889,270.780401 " class="Interstate"/><path d="M668.671576,27.198145L668.470505,26.001513 " class="State"/><path d="M417.042204,64.597873L416.263359,63.274278 " class="Federal"/><path d="M70.786904,56.233396L70.976416,56.745388 " class="State"/><path d="M559.164248,327.408537L559.226669,326.988556 " class="State"/><path d="M599.733778,372.562934L599.732566,371.831917 " class="Federal"/><path d="M605.650957,412.802500L605.656085,412.767670 " class="State"/><path d="M625.989584,205.151320L648.771896,198.905591L663.694882,198.844948L669.928586,202.182847L688.172357,202.652236L690.232552,200.397047L690.222227,200.304205 M689.546709,194.229795L689.359680,192.547985 " class="Interstate"/><path d="M681.124776,202.689278L683.170795,197.629796L677.339645,192.049437L676.491092,188.126703L669.407760,179.745635L668.513242,165.725424L668.895212,158.992160L665.137473,151.716664L664.692954,144.987315 " class="Interstate"/><path d="M558.399005,138.487427L569.567673,148.021348L574.536522,155.311203 " class="State"/><path d="M50.925123,308.939394L48.443547,297.887653L44.010896,291.624126L44.570391,284.908839L40.983354,278.102716L41.471177,255.688269L43.213546,251.801919L46.112944,251.864973L48.839944,240.711115L53.292885,226.229798L59.607129,221.317633L61.794496,215.756989 " class="Federal"/></g>
<g class="map" id="airports"><circle cx="693.212486915" cy="195.305338717" id="Gen E L Logan Int'l" class="Airport" r="10"/></g>
<g class="map" id="cities"><circle cx="714.796777222" cy="461.725075358" class="city" data-lat="41.6561253042" data-lon="-70.9446983253" id="New Bedford" r="15"/><circle cx="258.641978744" cy="286.286072294" class="city" data-lat="42.1200246369" data-lon="-72.5799990251" id="Springfield" r="15"/><circle cx="729.732502518" cy="136.567182914" class="city" data-lat="42.5224989035" data-lon="-70.8830917458" id="Salem" r="15"/><circle cx="72.3508089273" cy="160.108666444" class="city" data-lat="42.4481958202" data-lon="-73.2598283302" id="Pittsfield" r="15"/><circle cx="609.744739572" cy="95.4031140466" class="city" data-lat="42.6336883739" data-lon="-71.3166911231" id="Lowell" r="15"/><circle cx="475.832689961" cy="231.611319722" class="city" data-lat="42.2704288931" data-lon="-71.8000207943" id="Worcester" r="15"/><circle cx="677.879148676" cy="208.39202728" class="city" data-lat="42.3299601431" data-lon="-71.0700136736" id="Boston" r="15"/></g></svg>