<?xml version="1.0" encoding="utf-8"?><!DOCTYPE svg  PUBLIC '-//W3C//DTD SVG 1.1//EN'  'http://www.w3.org/Graphics/SVG/1.1/DTD/svg11.dtd'>
<svg xmlns="http://www.w3.org/2000/svg" version="1.1" style="fill:none;" width="100%" height="100%" viewbox="-50 -50 1100 2025">

<!--svg enable_background="new 0 0 1000 1925" height="1925px" pretty_print="False" style="stroke-linejoin: round; stroke:#000; fill: none;" version="1.1" viewBox="0 0 1000 1925" width="1000px" xmlns="http://www.w3.org/2000/svg" xmlns:xlink="http://www.w3.org/1999/xlink"-->
<defs><style type="text/css"><![CDATA[path { fill-rule: evenodd; }]]></style></defs><metadata><views><view h="1925.63679052" padding="0" w="1000"><proj dist="1.3" id="satellite" lat0="40.3" lon0="-74.5" tilt="0" up="0"/><bbox h="117.39" w="60.99" x="960.63" y="948.98"/></view></views></metadata>
<g class="map" id="states"><path d="M83.269571,1223.763795L79.049328,1220.253968L70.015590,1215.614032L55.830564,1208.634389L40.693723,1202.277576L19.824754,1198.321382L0.000000,1197.617622L0.000000,1335.755225L5.039305,1333.937496L8.344380,1330.823224L36.139350,1296.320751L44.232575,1282.633898L51.226743,1250.706331L59.691284,1240.916036L81.311599,1226.276495L83.269571,1223.763795Z M0.000000,1439.108977L1.829338,1432.850002L1.244121,1418.519902L0.000000,1415.494642L0.000000,1439.108977Z M149.990750,1923.636791L146.820888,1919.180553L146.500430,1902.087380L146.582263,1887.494509L144.397974,1874.744092L127.592818,1846.040833L111.375882,1830.040442L96.386158,1817.800503L91.873614,1799.793793L94.477474,1780.590192L92.022483,1769.085597L90.306062,1758.417257L89.513823,1741.540175L90.493965,1725.565958L97.370391,1684.262829L95.181577,1664.687191L89.404334,1648.093752L76.836857,1631.321497L73.392327,1612.642513L58.351263,1601.862858L44.262871,1588.749821L40.551611,1586.614879L39.207875,1581.741414L16.944802,1541.995066L0.000000,1521.763815L0.000000,1923.636791L149.990750,1923.636791Z " id="Delaware" class="neighbor"/><path d="M693.350735,1535.129294L687.721907,1528.472364L677.174132,1532.824733L691.025725,1553.474907L710.695066,1557.089911L731.566928,1547.243904L748.856110,1527.805948L756.801127,1505.710603L759.560159,1504.803320L764.701088,1501.122376L766.408995,1497.191601L736.137409,1492.941063L726.420116,1497.045126L731.787702,1511.166103L723.888747,1519.546902L714.811377,1543.375472L706.778263,1549.017477L698.336399,1544.746817L693.350735,1535.129294Z M809.286978,1427.262434L838.008402,1377.659111L860.062465,1337.734536L871.055408,1309.675912L885.519026,1287.558096L890.086219,1266.537953L883.198941,1271.916344L877.884429,1280.604061L869.063670,1299.096826L852.641291,1322.278369L804.086740,1409.557941L795.254571,1431.759127L795.387108,1441.845173L794.602018,1445.710559L794.219730,1451.667187L809.286978,1427.262434Z M458.934878,1874.113013L471.257861,1852.435404L470.097741,1846.968296L467.592398,1839.728696L468.410600,1833.528982L483.175814,1829.465198L489.486379,1825.917738L494.473457,1821.401223L499.753674,1808.977978L514.187944,1792.527795L517.522723,1787.328732L516.391749,1778.581797L512.604536,1773.717540L507.159953,1772.899147L500.805688,1776.481906L499.618457,1771.463299L496.621357,1771.133032L502.259645,1763.819278L508.687168,1760.364896L515.429876,1761.025778L521.763800,1766.250099L550.786886,1705.508252L557.739014,1695.679760L571.372019,1688.272250L597.073201,1653.082966L614.433876,1641.323034L614.436686,1635.918591L580.996735,1647.178393L573.071737,1644.369064L566.121945,1639.919387L558.125150,1636.238958L547.157813,1635.832866L558.444714,1622.245360L575.346817,1617.767455L614.445381,1619.221938L614.447696,1614.782168L611.637758,1604.452764L619.541856,1590.203937L639.570753,1565.272694L656.627999,1576.502038L640.041249,1593.266933L632.541159,1603.593673L627.006753,1614.788281L627.005375,1619.228054L643.727312,1613.247315L679.496635,1590.360041L698.444866,1582.428486L693.327741,1568.114480L685.598394,1552.481869L675.860754,1543.445701L664.637755,1549.050705L665.331307,1538.977589L668.661677,1527.647798L673.036232,1517.668527L677.162469,1511.229107L686.435864,1504.077247L693.077360,1504.908343L699.721895,1508.828421L708.828312,1511.199689L716.541399,1492.263877L718.713402,1479.288920L713.112794,1473.405957L705.773325,1467.492141L702.578008,1453.524840L702.102164,1424.293736L707.721460,1429.824721L714.582633,1434.258745L722.607614,1435.019983L731.667071,1429.661386L754.599737,1445.811102L756.495758,1449.831077L757.679026,1457.812039L760.971821,1464.049768L769.244956,1462.485331L773.593829,1450.982375L765.413272,1436.354455L749.405289,1420.149549L750.129195,1409.065277L763.417210,1394.231447L773.014703,1386.064669L781.879044,1384.550243L794.037877,1380.902450L799.427495,1373.158867L796.621696,1365.293751L801.773871,1355.678299L821.699509,1349.695174L829.039828,1329.746691L839.345955,1317.165693L847.993314,1311.292444L851.837190,1294.259647L850.469002,1282.941789L834.080929,1275.889411L836.245517,1253.759696L848.715933,1226.439574L860.783799,1207.240238L872.058421,1193.180152L872.876397,1187.507128L869.112048,1174.321124L866.131646,1159.549990L872.011229,1147.707677L882.313749,1135.115223L880.086550,1127.733893L868.375362,1125.641751L880.772916,1112.990875L886.824878,1096.145943L884.626798,1084.589718L872.346084,1087.769289L874.738547,1075.322574L882.346377,1070.907136L885.826177,1062.031271L898.371055,1064.200988L902.767150,1053.119957L910.129782,1048.669353L907.893592,1039.825604L901.252656,1038.372617L899.761961,1032.476957L911.709178,1023.790892L918.049625,1029.429293L917.494395,1044.956153L913.862045,1063.401619L908.734866,1078.921077L905.087332,1094.429841L900.072386,1134.131041L888.589884,1244.737564L893.131725,1250.174617L905.347983,1171.710924L908.230673,1149.587604L911.107832,1125.987077L913.261623,1109.016410L920.532534,1075.074482L924.140285,1050.714296L926.295202,1034.464654L929.902268,1010.091837L932.771475,984.982975L937.114492,961.310452L941.522180,940.173553L952.567498,893.136801L959.675461,850.899846L963.977989,813.264787L964.542434,760.126146L961.502142,732.806870L959.325647,716.969419L952.962160,702.023089L935.653960,692.355813L947.889547,723.511341L949.717715,738.748692L954.183947,749.824816L951.205211,754.135818L927.400372,739.056842L874.510841,720.586358L858.859116,718.717209L828.007192,724.243923L822.704701,722.618240L813.044847,715.560062L792.283408,709.175959L784.274141,690.959353L776.333012,679.686551L784.168372,673.647427L787.594014,667.010832L789.982560,648.441577L789.582477,636.494828L796.442442,627.642997L806.075180,624.794148L812.887255,620.377596L816.675432,604.870444L819.952889,571.150394L831.522955,559.113994L838.271847,555.823752L849.243393,548.696119L855.687348,547.308745L860.348770,537.838767L865.626074,525.848956L869.968055,516.384202L878.067271,504.694015L882.234841,514.731432L862.331342,552.298841L860.510788,561.430950L867.161182,562.311737L879.375910,558.155372L888.162450,554.636365L892.108585,543.139073L903.033602,528.881490L916.755228,518.184164L926.393498,507.406484L928.674733,496.567413L932.872159,485.308835L934.204986,477.676946L936.733201,466.453511L941.497024,454.735415L950.006763,440.562162L971.977293,392.842787L993.527279,335.035131L999.505774,303.023342L999.739929,288.050172L999.740211,288.032365L940.458243,252.265364L881.175853,216.408411L821.959835,180.472039L762.855710,144.495738L703.821413,108.480643L644.873101,72.369790L585.997992,36.222093L527.241309,0.000000L527.499025,1.370741L515.685859,9.103148L502.467746,9.881924L496.367721,12.162844L488.336087,19.339981L481.978388,20.055397L478.952692,22.266112L477.113065,25.503151L473.892994,33.252451L472.636809,35.487582L440.403756,65.588358L435.928785,76.111969L435.439917,81.669915L429.604006,103.637155L415.313185,138.353951L384.168904,180.314365L376.418699,186.785816L372.217295,188.349068L365.906409,192.161067L360.143875,196.670447L357.646533,200.442979L357.851913,210.177962L357.636420,212.166165L355.358866,213.081447L330.824057,243.967936L319.586004,253.078362L306.355565,256.630804L297.466389,260.381254L283.213172,269.832670L269.749905,282.164200L263.251899,294.657048L264.551569,300.210292L268.078137,306.532219L274.950850,316.334648L275.452932,319.487060L274.704652,325.934816L276.914302,327.166708L280.518375,327.364444L283.941485,328.372204L286.478122,330.880991L287.422525,335.601255L291.755475,342.275395L301.026617,353.095744L309.567405,366.731513L311.629100,381.912194L305.502153,395.497621L297.276337,401.301322L290.001226,408.887773L286.766769,427.939913L282.567742,442.444771L272.634822,450.263033L260.392428,451.531349L249.443803,446.332300L243.911235,459.587988L239.778927,465.780476L235.338081,468.356444L232.414980,471.445981L233.137995,477.983640L235.434923,483.644160L237.261583,484.082981L228.878537,506.690212L226.389508,517.320564L228.330692,527.250518L230.625405,535.250458L228.716512,541.131021L228.155270,548.896748L230.196837,573.943248L227.317574,581.768916L228.380417,590.050114L230.807799,598.399807L235.153418,620.430527L242.732084,623.754152L260.800764,620.367049L291.254985,630.375167L301.424950,651.395931L305.373691,713.071337L311.369105,727.859747L322.393349,743.934758L335.701147,753.389639L359.359762,744.607935L367.148210,758.104921L375.281072,788.674419L406.677932,817.012431L412.201800,824.499768L414.127329,829.187001L434.445280,858.427112L453.212872,881.911854L485.359873,910.091542L500.641059,927.091453L507.096255,944.238672L499.563845,959.685645L482.017797,970.616023L461.892689,977.084873L446.672892,979.195298L440.910396,982.286021L419.719851,1001.242946L413.525541,1004.154733L390.715248,1011.415489L381.397351,1017.382132L357.440263,1044.166959L349.211322,1049.708182L327.936074,1059.818351L318.274678,1070.584504L294.167134,1109.250247L290.402488,1103.297208L282.036230,1114.032234L271.593507,1109.899770L268.937352,1119.255399L272.814293,1134.069580L281.824099,1146.503044L271.990585,1153.778505L263.072047,1164.247695L254.050941,1171.267646L243.986994,1168.292286L240.620519,1172.389437L224.371192,1176.899513L202.340576,1186.960289L191.989769,1188.997298L178.484450,1189.747938L152.549114,1195.500395L118.141145,1210.527029L94.390899,1226.802992L73.482823,1247.091548L60.086303,1269.709443L58.910206,1292.526295L57.757509,1296.248372L50.748026,1298.776545L46.751234,1304.429670L44.015743,1310.193626L35.672101,1316.857482L33.215033,1326.551832L31.785793,1337.384821L29.820841,1344.991617L25.963160,1348.808808L14.388134,1355.686845L0.799689,1369.490323L0.259789,1375.632081L6.695495,1385.530335L27.069548,1407.345893L28.934651,1418.569703L21.749734,1454.498534L20.196825,1469.637666L15.459424,1466.779823L12.023454,1463.036529L9.639485,1458.501466L15.309130,1482.997266L29.443813,1499.484359L47.945468,1512.736099L109.673148,1583.111239L111.852431,1587.091088L114.728108,1591.174571L119.474007,1594.955530L122.465918,1594.439512L126.323288,1591.744622L131.023564,1589.411797L136.617958,1590.175811L142.969990,1598.506597L147.570120,1611.097582L153.351845,1622.637553L163.224028,1627.750209L186.439892,1627.965505L190.947631,1631.415679L195.666000,1646.671711L200.698711,1650.189794L209.419207,1653.932192L231.279499,1671.772637L236.623059,1677.926590L237.413977,1682.628306L235.402481,1692.356125L236.479543,1699.021456L241.121347,1706.133261L249.865332,1711.861923L248.944343,1715.327443L259.726102,1714.928667L266.937396,1710.931673L273.460020,1705.192019L282.177288,1699.370684L301.387508,1694.810025L314.188565,1694.091569L322.503747,1697.200473L324.814108,1703.711143L324.432957,1709.689974L325.157934,1714.132175L330.763427,1715.903857L336.481966,1715.167437L347.104357,1711.854896L351.749464,1711.110363L376.450950,1711.858982L386.469194,1715.062748L396.198036,1722.153962L407.777209,1748.158056L403.258996,1779.096424L372.338178,1844.409506L367.211974,1857.946924L364.558789,1873.280595L359.291017,1897.807358L356.677107,1906.487786L357.681269,1914.561786L365.609686,1921.995030L372.037915,1923.636791L378.905749,1922.132177L414.642706,1907.951408L438.702367,1893.118247L458.934878,1874.113013Z " id="New Jersey" class="neighbor"/><path d="M901.092428,570.986591L902.978309,567.812421L901.990917,562.796044L899.772937,559.344666L895.672666,558.751202L879.661514,568.129784L870.165782,571.552623L853.602475,568.451784L843.191889,563.802783L836.304973,568.568346L830.693127,575.839091L829.204123,588.115384L827.151681,610.142812L825.032366,622.106687L821.624476,629.675903L814.742817,635.382516L806.275668,639.528729L800.974635,646.483719L802.611736,655.907418L802.358210,664.079892L797.029207,667.264282L794.221449,671.693166L795.507314,676.407493L800.237104,677.947938L809.030518,675.686380L820.632390,669.944671L830.685580,668.306895L838.190419,661.650344L848.214105,655.607120L857.295924,649.885040L862.328398,649.853141L865.799067,651.404005L884.866179,633.979660L913.866739,595.731098L909.080358,586.328370L902.741173,579.451904L901.092428,570.986591Z M944.263974,515.334758L960.072869,507.356280L962.115872,496.902414L962.094473,486.233722L977.377768,457.205508L985.092194,441.364490L980.981617,428.184178L981.686552,416.842725L987.062492,404.442192L994.752761,388.935230L993.909271,379.665581L987.856377,377.771189L985.053209,384.648099L981.330421,396.232638L953.065993,456.176381L943.468014,474.311608L938.294848,494.790287L935.469232,519.151183L944.263974,515.334758Z M1000.000000,626.096390L982.688510,632.741865L982.762969,643.445315L1000.000000,636.501989L1000.000000,626.096390Z M1000.000000,448.012150L987.105492,460.401928L971.332596,484.206663L969.880913,498.867281L963.981212,511.500597L957.399557,514.810411L947.020172,521.621192L944.536957,526.353699L936.428119,536.154042L938.071905,546.519807L931.551246,558.826477L924.372843,567.051000L921.957292,582.165329L928.009687,593.447298L943.150260,599.950833L947.277976,605.905894L945.739137,610.950833L939.155513,614.140885L943.919710,621.033314L953.362026,621.915244L981.325463,617.642226L986.969546,615.089446L990.396370,610.347643L1000.000000,610.316389L1000.000000,448.012150Z M1000.000000,349.403570L991.507642,370.405904L996.990632,374.493373L999.400626,384.783376L995.567926,394.082917L989.443637,410.611051L985.599929,418.879964L985.641399,425.063590L988.977280,435.317299L1000.000000,435.662193L1000.000000,349.403570Z M993.189384,165.542915L992.362227,151.451929L983.676106,139.839754L971.729297,131.191236L965.218647,118.255107L960.902117,107.712108L956.322875,80.999720L953.570041,74.483622L951.857589,67.801051L953.529006,56.596316L957.115652,49.917426L963.001811,43.611672L974.021641,34.863350L975.436047,50.746351L970.562808,63.642794L968.546749,77.070203L978.492346,94.225523L998.211010,111.995415L1000.000000,114.008757L1000.000000,0.000000L527.241309,0.000000L585.997992,36.222093L644.873101,72.369790L703.821413,108.480643L762.855710,144.495738L821.959835,180.472039L881.175853,216.408411L940.458243,252.265364L999.740211,288.032365L1000.000000,271.583970L1000.000000,267.455215L991.055839,200.155739L993.189384,165.542915Z " id="New York" class="neighbor"/><path d="M103.425820,1197.879833L112.737015,1193.659891L123.440108,1191.159167L160.976996,1173.000500L175.655570,1179.189992L190.506389,1176.808985L215.383766,1162.653357L252.005337,1149.347803L260.782460,1141.424074L257.661484,1124.843050L261.316684,1107.022859L269.437956,1092.777800L279.967380,1086.988668L293.591349,1083.279997L313.987155,1065.435045L327.936074,1059.818351L349.211322,1049.708182L357.440263,1044.166959L381.397351,1017.382132L390.715248,1011.415489L413.525541,1004.154733L419.719851,1001.242946L440.910396,982.286021L446.672892,979.195298L461.892689,977.084873L482.017797,970.616023L499.563845,959.685645L507.096255,944.238672L500.641059,927.091453L485.359873,910.091542L453.212872,881.911854L434.445280,858.427112L414.127329,829.187001L412.201800,824.499768L406.677932,817.012431L375.281072,788.674419L367.148210,758.104921L359.359762,744.607935L335.701147,753.389639L322.393349,743.934758L311.369105,727.859747L305.373691,713.071337L301.424950,651.395931L291.254985,630.375167L260.800764,620.367049L242.732084,623.754152L235.153418,620.430527L230.807799,598.399807L228.380417,590.050114L227.317574,581.768916L230.196837,573.943248L228.155270,548.896748L228.716512,541.131021L230.625405,535.250458L228.330692,527.250518L226.389508,517.320564L228.878537,506.690212L237.261583,484.082981L235.434923,483.644160L233.137995,477.983640L232.414980,471.445981L235.338081,468.356444L239.778927,465.780476L243.911235,459.587988L249.443803,446.332300L260.392428,451.531349L272.634822,450.263033L282.567742,442.444771L286.766769,427.939913L290.001226,408.887773L297.276337,401.301322L305.502153,395.497621L311.629100,381.912194L309.567405,366.731513L301.026617,353.095744L291.755475,342.275395L287.422525,335.601255L286.478122,330.880991L283.941485,328.372204L280.518375,327.364444L276.914302,327.166708L274.704652,325.934816L275.452932,319.487060L274.950850,316.334648L268.078137,306.532219L264.551569,300.210292L263.251899,294.657048L269.749905,282.164200L283.213172,269.832670L297.466389,260.381254L306.355565,256.630804L319.586004,253.078362L330.824057,243.967936L355.358866,213.081447L357.636420,212.166165L357.851913,210.177962L357.646533,200.442979L360.143875,196.670447L365.906409,192.161067L372.217295,188.349068L376.418699,186.785816L384.168904,180.314365L415.313185,138.353951L429.604006,103.637155L435.439917,81.669915L435.928785,76.111969L440.403756,65.588358L472.636809,35.487582L473.892994,33.252451L477.113065,25.503151L478.952692,22.266112L481.978388,20.055397L488.336087,19.339981L496.367721,12.162844L502.467746,9.881924L515.685859,9.103148L527.499025,1.370741L527.241309,0.000000L0.000000,0.000000L0.000000,1197.617622L19.824754,1198.321382L40.693723,1202.277576L55.830564,1208.634389L70.015590,1215.614032L79.049328,1220.253968L83.269571,1223.763795L103.425820,1197.879833Z " id="Pennsylvania" class="neighbor"/></g>
<g class="map" id="NJ"><path d="M693.350735,1535.129294L687.721907,1528.472364L677.174132,1532.824733L691.025725,1553.474907L710.695066,1557.089911L731.566928,1547.243904L748.856110,1527.805948L756.801127,1505.710603L759.560159,1504.803320L764.701088,1501.122376L766.408995,1497.191601L736.137409,1492.941063L726.420116,1497.045126L731.787702,1511.166103L723.888747,1519.546902L714.811377,1543.375472L706.778263,1549.017477L698.336399,1544.746817L693.350735,1535.129294Z M809.286978,1427.262434L838.008402,1377.659111L860.062465,1337.734536L871.055408,1309.675912L885.519026,1287.558096L890.086219,1266.537953L883.198941,1271.916344L877.884429,1280.604061L869.063670,1299.096826L852.641291,1322.278369L804.086740,1409.557941L795.254571,1431.759127L795.387108,1441.845173L794.602018,1445.710559L794.219730,1451.667187L809.286978,1427.262434Z M458.934878,1874.113013L471.257861,1852.435404L470.097741,1846.968296L467.592398,1839.728696L468.410600,1833.528982L483.175814,1829.465198L489.486379,1825.917738L494.473457,1821.401223L499.753674,1808.977978L514.187944,1792.527795L517.522723,1787.328732L516.391749,1778.581797L512.604536,1773.717540L507.159953,1772.899147L500.805688,1776.481906L499.618457,1771.463299L496.621357,1771.133032L502.259645,1763.819278L508.687168,1760.364896L515.429876,1761.025778L521.763800,1766.250099L550.786886,1705.508252L557.739014,1695.679760L571.372019,1688.272250L597.073201,1653.082966L614.433876,1641.323034L614.436686,1635.918591L580.996735,1647.178393L573.071737,1644.369064L566.121945,1639.919387L558.125150,1636.238958L547.157813,1635.832866L558.444714,1622.245360L575.346817,1617.767455L614.445381,1619.221938L614.447696,1614.782168L611.637758,1604.452764L619.541856,1590.203937L639.570753,1565.272694L656.627999,1576.502038L640.041249,1593.266933L632.541159,1603.593673L627.006753,1614.788281L627.005375,1619.228054L643.727312,1613.247315L679.496635,1590.360041L698.444866,1582.428486L693.327741,1568.114480L685.598394,1552.481869L675.860754,1543.445701L664.637755,1549.050705L665.331307,1538.977589L668.661677,1527.647798L673.036232,1517.668527L677.162469,1511.229107L686.435864,1504.077247L693.077360,1504.908343L699.721895,1508.828421L708.828312,1511.199689L716.541399,1492.263877L718.713402,1479.288920L713.112794,1473.405957L705.773325,1467.492141L702.578008,1453.524840L702.102164,1424.293736L707.721460,1429.824721L714.582633,1434.258745L722.607614,1435.019983L731.667071,1429.661386L754.599737,1445.811102L756.495758,1449.831077L757.679026,1457.812039L760.971821,1464.049768L769.244956,1462.485331L773.593829,1450.982375L765.413272,1436.354455L749.405289,1420.149549L750.129195,1409.065277L763.417210,1394.231447L773.014703,1386.064669L781.879044,1384.550243L794.037877,1380.902450L799.427495,1373.158867L796.621696,1365.293751L801.773871,1355.678299L821.699509,1349.695174L829.039828,1329.746691L839.345955,1317.165693L847.993314,1311.292444L851.837190,1294.259647L850.469002,1282.941789L834.080929,1275.889411L836.245517,1253.759696L848.715933,1226.439574L860.783799,1207.240238L872.058421,1193.180152L872.876397,1187.507128L869.112048,1174.321124L866.131646,1159.549990L872.011229,1147.707677L882.313749,1135.115223L880.086550,1127.733893L868.375362,1125.641751L880.772916,1112.990875L886.824878,1096.145943L884.626798,1084.589718L872.346084,1087.769289L874.738547,1075.322574L882.346377,1070.907136L885.826177,1062.031271L898.371055,1064.200988L902.767150,1053.119957L910.129782,1048.669353L907.893592,1039.825604L901.252656,1038.372617L899.761961,1032.476957L911.709178,1023.790892L918.049625,1029.429293L917.494395,1044.956153L913.862045,1063.401619L908.734866,1078.921077L905.087332,1094.429841L900.072386,1134.131041L888.589884,1244.737564L893.131725,1250.174617L905.347983,1171.710924L908.230673,1149.587604L911.107832,1125.987077L913.261623,1109.016410L920.532534,1075.074482L924.140285,1050.714296L926.295202,1034.464654L929.902268,1010.091837L932.771475,984.982975L937.114492,961.310452L941.522180,940.173553L952.567498,893.136801L959.675461,850.899846L963.977989,813.264787L964.542434,760.126146L961.502142,732.806870L959.325647,716.969419L952.962160,702.023089L935.653960,692.355813L947.889547,723.511341L949.717715,738.748692L954.183947,749.824816L951.205211,754.135818L927.400372,739.056842L874.510841,720.586358L858.859116,718.717209L828.007192,724.243923L822.704701,722.618240L813.044847,715.560062L792.283408,709.175959L784.274141,690.959353L776.333012,679.686551L784.168372,673.647427L787.594014,667.010832L789.982560,648.441577L789.582477,636.494828L796.442442,627.642997L806.075180,624.794148L812.887255,620.377596L816.675432,604.870444L819.952889,571.150394L831.522955,559.113994L838.271847,555.823752L849.243393,548.696119L855.687348,547.308745L860.348770,537.838767L865.626074,525.848956L869.968055,516.384202L878.067271,504.694015L882.234841,514.731432L862.331342,552.298841L860.510788,561.430950L867.161182,562.311737L879.375910,558.155372L888.162450,554.636365L892.108585,543.139073L903.033602,528.881490L916.755228,518.184164L926.393498,507.406484L928.674733,496.567413L932.872159,485.308835L934.204986,477.676946L936.733201,466.453511L941.497024,454.735415L950.006763,440.562162L971.977293,392.842787L993.527279,335.035131L999.505774,303.023342L999.739929,288.050172L999.740211,288.032365L940.458243,252.265364L881.175853,216.408411L821.959835,180.472039L762.855710,144.495738L703.821413,108.480643L644.873101,72.369790L585.997992,36.222093L527.241309,0.000000L527.499025,1.370741L515.685859,9.103148L502.467746,9.881924L496.367721,12.162844L488.336087,19.339981L481.978388,20.055397L478.952692,22.266112L477.113065,25.503151L473.892994,33.252451L472.636809,35.487582L440.403756,65.588358L435.928785,76.111969L435.439917,81.669915L429.604006,103.637155L415.313185,138.353951L384.168904,180.314365L376.418699,186.785816L372.217295,188.349068L365.906409,192.161067L360.143875,196.670447L357.646533,200.442979L357.851913,210.177962L357.636420,212.166165L355.358866,213.081447L330.824057,243.967936L319.586004,253.078362L306.355565,256.630804L297.466389,260.381254L283.213172,269.832670L269.749905,282.164200L263.251899,294.657048L264.551569,300.210292L268.078137,306.532219L274.950850,316.334648L275.452932,319.487060L274.704652,325.934816L276.914302,327.166708L280.518375,327.364444L283.941485,328.372204L286.478122,330.880991L287.422525,335.601255L291.755475,342.275395L301.026617,353.095744L309.567405,366.731513L311.629100,381.912194L305.502153,395.497621L297.276337,401.301322L290.001226,408.887773L286.766769,427.939913L282.567742,442.444771L272.634822,450.263033L260.392428,451.531349L249.443803,446.332300L243.911235,459.587988L239.778927,465.780476L235.338081,468.356444L232.414980,471.445981L233.137995,477.983640L235.434923,483.644160L237.261583,484.082981L228.878537,506.690212L226.389508,517.320564L228.330692,527.250518L230.625405,535.250458L228.716512,541.131021L228.155270,548.896748L230.196837,573.943248L227.317574,581.768916L228.380417,590.050114L230.807799,598.399807L235.153418,620.430527L242.732084,623.754152L260.800764,620.367049L291.254985,630.375167L301.424950,651.395931L305.373691,713.071337L311.369105,727.859747L322.393349,743.934758L335.701147,753.389639L359.359762,744.607935L367.148210,758.104921L375.281072,788.674419L406.677932,817.012431L412.201800,824.499768L414.127329,829.187001L434.445280,858.427112L453.212872,881.911854L485.359873,910.091542L500.641059,927.091453L507.096255,944.238672L499.563845,959.685645L482.017797,970.616023L461.892689,977.084873L446.672892,979.195298L440.910396,982.286021L419.719851,1001.242946L413.525541,1004.154733L390.715248,1011.415489L381.397351,1017.382132L357.440263,1044.166959L349.211322,1049.708182L327.936074,1059.818351L318.274678,1070.584504L294.167134,1109.250247L290.402488,1103.297208L282.036230,1114.032234L271.593507,1109.899770L268.937352,1119.255399L272.814293,1134.069580L281.824099,1146.503044L271.990585,1153.778505L263.072047,1164.247695L254.050941,1171.267646L243.986994,1168.292286L240.620519,1172.389437L224.371192,1176.899513L202.340576,1186.960289L191.989769,1188.997298L178.484450,1189.747938L152.549114,1195.500395L118.141145,1210.527029L94.390899,1226.802992L73.482823,1247.091548L60.086303,1269.709443L58.910206,1292.526295L57.757509,1296.248372L50.748026,1298.776545L46.751234,1304.429670L44.015743,1310.193626L35.672101,1316.857482L33.215033,1326.551832L31.785793,1337.384821L29.820841,1344.991617L25.963160,1348.808808L14.388134,1355.686845L0.799689,1369.490323L0.259789,1375.632081L6.695495,1385.530335L27.069548,1407.345893L28.934651,1418.569703L21.749734,1454.498534L20.196825,1469.637666L15.459424,1466.779823L12.023454,1463.036529L9.639485,1458.501466L15.309130,1482.997266L29.443813,1499.484359L47.945468,1512.736099L109.673148,1583.111239L111.852431,1587.091088L114.728108,1591.174571L119.474007,1594.955530L122.465918,1594.439512L126.323288,1591.744622L131.023564,1589.411797L136.617958,1590.175811L142.969990,1598.506597L147.570120,1611.097582L153.351845,1622.637553L163.224028,1627.750209L186.439892,1627.965505L190.947631,1631.415679L195.666000,1646.671711L200.698711,1650.189794L209.419207,1653.932192L231.279499,1671.772637L236.623059,1677.926590L237.413977,1682.628306L235.402481,1692.356125L236.479543,1699.021456L241.121347,1706.133261L249.865332,1711.861923L248.944343,1715.327443L259.726102,1714.928667L266.937396,1710.931673L273.460020,1705.192019L282.177288,1699.370684L301.387508,1694.810025L314.188565,1694.091569L322.503747,1697.200473L324.814108,1703.711143L324.432957,1709.689974L325.157934,1714.132175L330.763427,1715.903857L336.481966,1715.167437L347.104357,1711.854896L351.749464,1711.110363L376.450950,1711.858982L386.469194,1715.062748L396.198036,1722.153962L407.777209,1748.158056L403.258996,1779.096424L372.338178,1844.409506L367.211974,1857.946924L364.558789,1873.280595L359.291017,1897.807358L356.677107,1906.487786L357.681269,1914.561786L365.609686,1921.995030L372.037915,1923.636791L378.905749,1922.132177L414.642706,1907.951408L438.702367,1893.118247L458.934878,1874.113013Z " id="New Jersey" class="state"/></g>
<g class="map" id="uzones"><path d="M229.823067,537.722150L243.912329,533.390753L243.654561,525.116444L228.000115,510.441849L226.389508,517.320564L228.330692,527.250518L230.625405,535.250458L229.823067,537.722150Z " class="urban"/><path d="M629.568293,538.303236L622.675564,527.399091L610.808469,517.281720L608.224208,510.257268L606.839903,500.692975L604.100436,492.815416L588.294214,529.397690L595.329077,561.531842L610.795884,561.208385L611.735939,557.653847L617.300353,553.393939L624.595832,550.848946L629.568293,538.303236Z " class="urban"/><path d="M625.433632,865.501990L630.682420,860.433257L635.133978,857.421687L637.229691,851.331573L637.414038,833.976650L603.882827,833.961100L613.684015,862.782177L625.433632,865.501990Z " class="urban"/><path d="M603.734559,1062.717490L602.492753,1058.064782L598.425763,1055.605432L596.961035,1053.881031L597.534944,1039.214428L596.975497,1036.355331L588.287026,1032.877523L579.844176,1034.802869L563.252829,1045.025939L563.805135,1051.206453L562.274135,1065.614072L565.438508,1072.257727L576.718672,1071.521771L581.406551,1079.529276L583.306330,1090.823633L586.942153,1099.062968L603.724080,1074.329076L603.734559,1062.717490Z " class="urban"/><path d="M130.262892,1262.475928L130.670015,1218.471514L113.709538,1224.289957L108.365300,1257.959273L114.618673,1260.773148L130.262892,1262.475928Z " class="urban"/><path d="M317.842652,1562.871688L323.755528,1544.971231L324.788434,1536.497191L326.000245,1532.634881L328.352454,1529.780820L331.657627,1527.822641L330.470463,1518.115839L324.491537,1500.950100L325.027554,1492.624285L339.999692,1486.055169L347.416260,1478.532058L337.134917,1448.080732L321.272959,1440.589252L302.278473,1441.527624L284.546416,1448.320552L296.228115,1527.880910L298.673631,1554.674817L310.246844,1561.622638L317.842652,1562.871688Z " class="urban"/><path d="M195.691142,1535.490969L209.417813,1526.917778L206.823611,1510.637971L190.155777,1492.603170L182.792341,1531.371977L195.691142,1535.490969Z " class="urban"/><path d="M470.914722,1850.818478L468.959869,1853.687723L441.133365,1862.080403L432.301776,1861.945150L431.167476,1864.350531L446.951449,1885.369543L458.934878,1874.113013L471.257861,1852.435404L470.914722,1850.818478Z " class="urban"/><path d="M327.936074,1059.818351L324.335667,1063.831151L318.280027,1070.583376L318.276766,1070.587689L316.704944,1073.104136L294.167134,1109.250247L290.402488,1103.297208L285.185125,1109.992422L282.056672,1114.017954L282.049567,1114.015126L282.036230,1114.032234L271.593507,1109.899770L268.937352,1119.255399L272.814293,1134.069580L281.824099,1146.503044L271.990585,1153.778505L263.072047,1164.247695L254.050941,1171.267646L243.986994,1168.292286L240.620519,1172.389437L224.371192,1176.899513L202.340576,1186.960289L191.989769,1188.997298L178.495319,1189.747336L161.913825,1214.128162L164.411160,1218.847113L178.795228,1217.254341L213.137036,1232.906473L227.387334,1264.218047L238.404298,1263.436850L245.181057,1271.394175L251.564266,1316.306374L268.057500,1318.148754L276.947905,1309.820556L283.284432,1298.269057L292.341181,1290.269429L306.001314,1297.888803L312.507890,1299.188619L321.892361,1304.846223L335.254475,1324.893664L346.265997,1325.768526L350.269746,1303.012431L353.165905,1299.442316L367.884847,1297.881554L360.082364,1273.091210L365.558208,1273.281181L367.181295,1271.408729L366.658385,1266.178898L366.859574,1264.261600L373.383157,1253.159809L378.937187,1249.491066L383.489699,1253.208066L387.103506,1264.316625L379.502951,1269.173605L380.316397,1273.177871L382.622580,1273.852792L393.844461,1273.269893L397.595974,1271.799959L398.999574,1267.516133L400.669241,1264.446795L411.450619,1258.716882L414.226326,1255.772457L414.338708,1229.272481L414.025346,1227.584830L414.609874,1222.442745L396.440053,1190.943002L394.299692,1176.495564L404.615402,1172.111103L435.686734,1178.042586L455.064050,1176.735746L451.616465,1135.281061L448.483809,1123.961348L441.776886,1117.690765L424.780557,1108.426728L421.627464,1097.418281L454.871400,1097.007801L482.304637,1088.903705L480.722458,1058.084302L457.278766,1022.829796L455.701629,992.059980L472.398706,993.447870L481.946700,983.863033L488.489303,971.836482L496.161944,965.800515L502.564215,968.844386L506.728889,975.657930L512.346064,981.925358L522.988102,983.459048L523.901075,977.969274L528.219047,970.399778L528.911801,944.946111L529.835327,939.425381L533.332757,938.241393L545.888899,940.276201L550.601450,936.391513L550.037201,921.907443L551.544977,917.750284L556.769206,913.109372L561.896755,892.925014L560.563837,886.082420L545.302089,846.552453L543.516213,833.933221L552.734857,826.506753L560.960612,828.450888L570.513835,833.125877L577.128037,781.169836L584.732830,761.102305L583.809547,754.747844L543.652902,745.888723L543.799413,746.898282L537.881165,753.908012L536.887594,754.686882L525.313411,774.982765L530.135670,781.121261L533.552721,790.671990L536.728330,825.062150L521.580218,830.430660L506.523086,829.195578L476.402877,816.117563L467.369726,837.444658L462.936391,842.448346L456.000886,845.862029L441.949554,848.189962L433.061440,856.435591L434.445280,858.427112L453.212872,881.911854L485.359873,910.091542L500.641059,927.091453L507.096255,944.238672L499.563845,959.685645L482.017797,970.616023L461.892689,977.084873L446.672892,979.195298L440.910396,982.286021L419.719851,1001.242946L413.525541,1004.154733L390.715248,1011.415489L381.397351,1017.382132L357.440263,1044.166959L349.211322,1049.708182L327.936074,1059.818351Z " class="urban"/><path d="M813.395248,1343.944344L812.792769,1333.709516L808.960054,1327.574112L803.975396,1323.082934L799.801317,1317.519636L786.111040,1264.768360L762.048627,1298.395459L776.825142,1316.647277L813.395248,1343.944344Z " class="urban"/><path d="M575.836187,1645.349208L570.687212,1659.894137L581.926498,1673.821375L597.073201,1653.082966L614.433876,1641.323034L614.436686,1635.918591L580.996735,1647.178393L575.836187,1645.349208Z " class="urban"/><path d="M575.346817,1617.767455L614.445381,1619.221938L614.447696,1614.782168L611.637758,1604.452764L619.541856,1590.203937L639.570753,1565.272694L656.627999,1576.502038L651.008510,1582.183676L651.012314,1582.188590L648.176920,1585.045885L640.041249,1593.266933L632.541159,1603.593673L627.006753,1614.788281L627.005375,1619.228054L643.727312,1613.247315L679.496635,1590.360041L698.444866,1582.428486L693.327741,1568.114480L685.598394,1552.481869L675.860754,1543.445701L664.637755,1549.050705L665.331307,1538.977589L668.661677,1527.647798L669.017753,1526.835515L652.397545,1526.259051L646.763734,1523.464154L638.830915,1513.914402L627.794209,1482.702557L623.768883,1476.037857L620.911881,1475.173182L610.175751,1476.016422L604.067800,1474.294731L593.674730,1468.374604L589.768515,1467.173792L586.307065,1468.618483L584.690797,1471.497115L582.982427,1475.991847L578.134221,1476.390059L567.301802,1474.868906L562.623352,1475.966231L548.802363,1487.784803L544.455499,1494.878764L542.234121,1502.271182L569.562862,1526.052312L576.141237,1537.462266L576.998550,1543.417618L577.177586,1564.071883L582.884714,1563.887121L586.803714,1576.440815L581.735135,1587.517073L574.058421,1597.890141L572.773386,1618.449239L575.346817,1617.767455Z " class="urban"/><path d="M693.350735,1535.129294L687.721907,1528.472364L677.174132,1532.824733L691.025725,1553.474907L698.814315,1554.906362L698.814050,1554.895500L696.707316,1541.604694L693.350735,1535.129294Z " class="urban"/><path d="M835.129267,188.464161L826.591597,232.290949L816.560236,244.381524L807.089673,246.956768L755.903126,247.759618L736.979023,262.183630L730.400019,262.194055L727.578165,260.715874L725.188009,257.713531L718.944550,255.199382L715.391983,259.817915L710.492506,271.028332L718.215022,277.181955L719.896868,297.945378L731.754332,306.213952L738.833637,299.532898L745.035697,296.191959L750.376035,306.149770L742.864563,327.045785L737.744836,335.258438L730.521714,341.270659L677.100027,349.636074L670.696840,350.160294L666.541722,348.619544L660.899998,343.268865L657.437800,341.337494L636.215440,337.259753L630.837071,332.590868L621.059432,313.708456L614.815499,307.225469L604.298708,306.195674L603.498557,331.584039L594.134753,345.606670L564.339302,358.892801L545.883179,329.376317L537.768602,332.488363L517.896576,341.175290L517.897398,332.437011L513.009075,331.073033L505.758933,332.893388L497.915155,341.201068L516.604458,364.249311L524.413646,367.687185L527.991342,366.376499L535.410648,359.690240L537.724385,358.930350L558.320597,394.651932L580.956595,385.948176L590.867702,385.380053L592.080119,387.100991L592.503054,389.963178L601.638290,395.972290L607.402134,415.280860L624.149182,420.569939L625.647597,423.416992L646.179816,455.068095L672.642165,469.328240L678.892514,477.047084L682.732966,487.316457L684.102981,499.614071L682.499402,506.037999L670.764543,526.077005L650.536008,536.870404L644.084443,543.674905L644.367132,557.254094L644.075154,561.235263L641.726460,563.407348L633.235089,567.367405L630.911691,575.211899L636.576671,583.444784L637.419858,587.622859L624.085358,596.437422L604.542595,597.411622L591.963217,592.127324L583.762012,582.402863L577.399356,569.993610L574.308535,552.544753L557.354495,543.598009L547.447587,548.143171L543.749226,578.502975L537.259811,587.476878L527.428081,578.489574L510.567693,578.643732L510.426960,622.666048L535.392680,625.128043L544.345454,630.880985L550.479168,640.337067L535.968467,664.075770L532.710464,675.209243L537.032015,693.164701L548.101665,695.312492L563.845248,675.612229L574.290329,669.729695L577.263430,666.833519L579.207580,660.395411L580.273554,653.155286L583.159835,648.349412L602.720872,653.543968L613.259108,662.631561L620.832319,673.744007L624.024046,684.427088L607.153503,704.148667L603.956319,710.797198L602.834554,715.297927L600.665776,717.316564L597.206524,719.564978L595.793217,736.036461L606.859968,773.800278L612.733438,779.198550L637.400747,781.242811L644.380935,816.050710L668.785981,812.774871L699.225912,795.872655L724.538408,789.952921L723.379689,811.477970L726.069844,826.303763L731.374749,836.138758L746.364546,849.586629L749.465160,853.981470L751.498309,860.272926L749.267086,860.833727L738.641288,873.236687L743.087819,884.114152L744.878540,886.718468L768.237907,897.400527L780.761000,898.975961L792.425832,892.500012L791.841238,877.816077L801.354879,868.494775L805.413970,862.001413L805.190531,851.368088L792.554962,850.306559L787.547342,848.102379L785.065277,842.601654L785.711847,837.111774L790.420055,829.566218L792.846497,821.146551L795.160597,818.209828L798.408406,816.201880L794.897481,799.746560L781.066714,777.087552L784.850145,763.464636L792.771597,761.033853L807.707127,770.227382L818.355413,772.165815L833.054752,762.280550L838.413848,763.301932L841.188089,767.779634L845.203553,789.614411L851.968025,798.425597L852.549990,804.552391L851.132026,818.860754L852.072230,824.815133L854.475971,825.654910L862.824663,824.210930L865.488078,824.775366L866.131079,828.281023L865.565447,842.365423L876.227430,853.627072L879.051009,859.904093L879.130068,864.593243L876.750960,866.831587L872.348113,868.687694L875.117683,875.601418L879.131965,877.511832L885.751658,903.739506L885.967382,912.590426L872.535452,912.651435L875.802434,927.152566L886.046746,946.915324L886.163248,956.590206L878.967750,962.889870L852.633747,965.531266L833.445151,983.389203L825.810567,983.223036L820.206670,970.008797L824.475876,943.747070L818.872354,930.473634L791.617991,935.131870L787.686172,944.825346L785.311089,956.939590L778.567003,956.984932L777.982325,965.705958L782.301874,980.748259L785.377024,983.400241L788.994281,999.423907L789.658000,1010.180569L782.496742,1043.080646L778.802935,1044.918286L764.904854,1045.550249L750.096129,1029.671752L738.342278,1027.412455L738.040978,1033.839850L736.719702,1038.413337L734.494951,1041.928594L731.659730,1045.024452L732.935458,1049.575110L745.218457,1071.470169L747.796921,1072.315824L755.944895,1070.677163L758.626116,1071.440250L775.193102,1100.377628L782.658092,1103.995418L785.694642,1106.551947L787.626590,1110.595979L790.219462,1120.454124L792.452632,1124.159349L798.216654,1125.896268L805.002216,1125.528269L810.591692,1126.667218L812.732849,1132.830459L808.360708,1142.001621L808.410027,1158.891508L812.820863,1167.979201L790.087333,1169.150785L782.460457,1174.622036L797.817286,1191.034080L802.629447,1196.380327L807.469643,1217.410892L813.057448,1229.586252L853.542594,1203.073148L851.730967,1187.486589L845.534405,1178.736191L833.160359,1167.924358L833.085572,1163.201901L836.147735,1148.358144L829.661742,1146.505996L824.877518,1142.248679L826.303775,1132.844240L845.945957,1147.809183L855.533966,1150.729090L879.624540,1127.670453L870.077117,1125.945932L868.375362,1125.641751L880.772916,1112.990875L886.824878,1096.145943L884.628786,1084.600173L881.816124,1085.317711L872.346084,1087.769289L874.738547,1075.322574L882.346377,1070.907136L885.826177,1062.031271L888.119687,1062.427948L884.829233,1044.102645L893.296045,1026.976140L903.304885,1021.095681L925.771336,1014.737739L929.537179,1012.558730L929.902268,1010.091837L932.771475,984.982975L937.114492,961.310452L941.522180,940.173553L952.567498,893.136801L955.754142,874.201116L954.562293,872.828890L950.778316,862.754790L951.808628,849.674903L948.022913,809.338805L941.138673,801.156954L932.360220,780.416945L925.384647,778.048115L917.474247,777.836440L911.926998,774.551712L912.162050,762.982216L919.808839,760.689626L938.901086,746.344210L927.400372,739.056842L874.510841,720.586358L858.859116,718.717209L828.007192,724.243923L822.704701,722.618240L813.044847,715.560062L792.283408,709.175959L784.274141,690.959353L776.333012,679.686551L784.168372,673.647427L787.594014,667.010832L789.982560,648.441577L789.582477,636.494828L796.442442,627.642997L806.075180,624.794148L812.887255,620.377596L816.675432,604.870444L819.952889,571.150394L831.522955,559.113994L838.271847,555.823752L849.243393,548.696119L855.687348,547.308745L860.348770,537.838767L865.626074,525.848956L869.968055,516.384202L878.067271,504.694015L882.234841,514.731432L862.331342,552.298841L860.510788,561.430950L867.161182,562.311737L879.375910,558.155372L888.162450,554.636365L892.108585,543.139073L903.033602,528.881490L916.755228,518.184164L926.393498,507.406484L928.674733,496.567413L932.872159,485.308835L934.204986,477.676946L936.733201,466.453511L941.497024,454.735415L950.006763,440.562162L971.977293,392.842787L993.527279,335.035131L999.505774,303.023342L999.739929,288.050172L999.740211,288.032365L940.458243,252.265364L881.175853,216.408411L835.129267,188.464161Z M668.395284,770.558412L658.940897,760.588638L647.222299,752.779326L645.594194,748.426232L644.128556,737.259945L658.852725,737.701819L668.987591,744.111514L684.290441,763.603915L677.418342,774.873995L668.395284,770.558412Z " class="urban"/></g>
<g class="map" id="rivers"><path d="M527.442543,1.407712L527.448385,1.436342L515.630289,9.194462L502.378321,9.966706L496.278222,12.266917L490.206145,17.668882 M488.326538,19.341056L488.275766,19.386225L481.888910,20.140150L480.723746,20.972097 M415.277031,138.402661L415.262168,138.438793L404.359078,153.112322 M384.110511,180.363123L384.083830,180.399031L381.338709,182.677589 M376.365360,186.805662L376.333813,186.831848L372.127229,188.453005L365.845515,192.252266L360.117126,196.729627L359.622800,197.457593 M357.579985,212.188845L357.575638,212.231609L355.344748,213.099221 M336.259917,237.124818L330.767940,244.052699L319.534718,253.163143L306.270417,256.689612L297.424779,260.466077L284.734307,268.823994 M305.470112,395.520227L305.450840,395.563094L301.278544,398.477576 M292.756096,406.015007L289.995414,408.922007 M282.522465,442.480409L282.506420,442.535930L272.598050,450.328580L260.321499,451.596649L249.411707,446.409201 M243.849829,459.680009L243.844850,459.691951L243.059577,460.864244 M239.758418,465.792372L239.722590,465.845858L235.286615,468.421858L232.419900,471.490470 M499.514447,959.716417L499.497454,959.751288L481.926718,970.688012L461.850939,977.131219L446.616133,979.299576L440.838911,982.370902L435.951179,986.722505 M414.842396,1003.535713L413.444292,1004.200866L390.658415,1011.506813L381.310849,1017.486185L365.134125,1035.564963 M357.432403,1044.172252L357.378546,1044.232441L349.134685,1049.792901L327.960746,1059.818501 " class="River"/></g>
<g class="map" id="roads"><path d="M486.369620,1751.456524L539.045429,1679.989475L551.524326,1635.994547 M553.858038,1627.766936L556.169856,1619.616515 M557.233419,1619.618373L574.285060,1590.809431L612.583574,1540.034610 " class="State"/><path d="M283.362704,1202.105777L279.077773,1211.698641L270.385256,1248.751308L255.378199,1280.254349L255.067513,1325.606153L273.850070,1365.596986L294.813170,1400.096014L303.140976,1424.883649L294.364561,1474.281678L296.346278,1497.647147L304.683046,1523.800349L331.119352,1543.197789L334.138587,1574.802126L347.779069,1609.211786L379.472345,1654.693643L403.839906,1680.897165L435.684987,1707.117865L447.337168,1726.378791L467.567301,1730.571228L480.323002,1741.593040L487.782730,1741.616927 " class="State"/><path d="M527.318286,0.409428L527.907405,0.410633 " class=""/><path d="M845.750195,194.909674L846.498154,203.421627L834.092980,210.333969L824.947145,259.826363L813.557029,265.358209 " class="Interstate"/><path d="M912.136862,235.135177L892.773856,343.392823 " class="State"/><path d="M813.557029,265.358209L835.423434,287.273881L867.769021,327.006771L892.773856,343.392823 " class="State"/><path d="M813.557029,265.358209L800.046717,257.152930L772.065252,265.468038L741.066559,328.744518L695.407935,371.412004L693.345795,389.282872 " class="Interstate"/><path d="M892.773856,343.392823L871.057265,365.476174L851.361049,377.923368L834.846202,409.597296L818.421846,474.262644 " class="Interstate"/><path d="M730.779770,402.836773L734.968923,404.351559L764.162152,433.164175L794.384849,446.837776L795.450192,455.083336L801.722728,463.314434L818.421846,474.262644 " class="Interstate"/><path d="M295.459708,335.967199L300.623801,340.122485L331.833534,332.062268L505.229547,350.639698L519.735409,367.168043L528.044409,369.935306L549.889414,361.730488L585.233496,356.282419L619.529744,353.560222L643.430901,356.315176L670.462801,379.676083L693.345795,389.282872 " class="Interstate"/><path d="M264.212870,292.809517L295.459708,335.967199 " class="Interstate"/><path d="M818.421846,474.262644L809.113572,494.913656L796.662091,512.822906 " class="Interstate"/><path d="M928.505411,497.371930L923.734623,495.826050L894.554431,494.591724L833.155033,515.459662L796.662091,512.822906 " class="Interstate"/><path d="M772.473406,559.307294L795.109631,572.486251L819.386442,576.978275 " class="Interstate"/><path d="M555.768156,565.207365L671.593197,557.024732L701.833537,541.876838L729.963583,522.591088L759.126496,508.789050L796.662091,512.822906 " class="Interstate"/><path d="M693.345795,389.282872L676.731701,429.159232L656.963214,453.912137L630.924933,478.657889L603.801383,525.390408L564.144262,547.345330L557.871468,555.585638L555.768156,565.207365 " class="Interstate"/><path d="M762.598204,661.413002L749.981638,625.684642L747.862454,610.562325L771.765971,562.384798L784.186818,525.230253L796.662091,512.822906 " class="Interstate"/><path d="M738.543888,655.958960L762.598204,661.413002 " class="Interstate"/><path d="M738.543888,655.958960L662.227526,632.658423L637.148483,646.412023L625.652422,645.033867L604.772704,616.144064L578.668317,609.242636L571.369399,600.982538L555.768156,565.207365 " class="Interstate"/><path d="M762.598204,661.413002L762.625904,673.789659L761.601576,683.418296L763.724242,697.165861L771.066767,705.400644L779.454468,712.256636L786.812502,724.615011L861.357323,782.128107L889.821593,820.513115L899.466034,864.476234L886.058472,916.797620L886.156238,938.800777 " class="State"/><path d="M228.675696,541.695779L233.575493,540.351997L247.075489,547.326494L263.799818,541.946581L273.133942,548.885448L286.671310,551.725959L312.770559,547.766668L362.701553,571.422565L401.308978,571.609282L452.492257,558.064582L555.768156,565.207365 " class="Interstate"/><path d="M738.543888,655.958960L686.330158,723.409557L642.362288,849.951912L581.425452,921.428864 " class="Interstate"/><path d="M886.156238,938.800777L857.780287,937.546526L748.516805,948.872821L704.369892,947.564891L695.963922,950.324066L647.611388,931.094306L623.442354,935.215603L581.425452,921.428864 " class="Interstate"/><path d="M504.536939,998.293692L559.337637,937.900906L581.425452,921.428864 " class="Interstate"/><path d="M447.790271,981.609918L485.609174,995.489522L504.536939,998.293692 " class="Interstate"/><path d="M444.227303,980.506993L447.790271,981.609918 " class="Interstate"/><path d="M279.329000,1173.208252L296.200878,1174.698444L311.004970,1169.296067L325.751590,1173.512688L331.042591,1170.795161L354.390622,1144.808145L504.536939,998.293692 " class="Interstate"/><path d="M269.916832,1156.212819L279.329000,1173.208252 " class="Interstate"/><path d="M279.329000,1173.208252L281.358614,1185.595220 " class="Interstate"/><path d="M281.358614,1185.595220L283.362704,1202.105777 " class="Interstate"/><path d="M33.820633,1324.162440L109.271396,1307.810689L144.326812,1288.921518L208.125223,1240.018053L255.861713,1210.155730L281.358614,1185.595220 " class="Interstate"/><path d="M612.583574,1540.034610L623.216558,1509.821969L629.594410,1479.602668L639.146935,1452.127746L663.534684,1435.637565L675.182699,1406.777144L685.767492,1388.906052L750.302215,1340.715811L779.848862,1302.163602L800.868119,1252.620394L814.449869,1200.338673L822.643287,1120.567867L818.323154,1087.581885L820.400052,1077.949626L886.156238,938.800777 " class="State"/><path d="M283.362704,1202.105777L299.111750,1215.959549L307.476206,1229.760982L312.562644,1262.783862L355.688063,1302.902549L387.360200,1315.439694L418.938937,1355.443346L535.205467,1456.131457L560.622039,1482.282466L568.015120,1508.394552L612.583574,1540.034610 " class="State"/><path d="M612.583574,1540.034610L631.700738,1546.910682L683.774647,1581.232111 " class="State"/><path d="M361.549460,1887.292040L375.257861,1885.170286L382.722584,1887.952486 " class=""/><path d="M731.831854,394.734361L755.694962,368.575622L850.248832,360.059398L876.033791,362.392779 " class="Interstate"/><path d="M435.560439,859.822561L437.755188,856.424776L460.884813,842.756929L512.284025,842.909636L520.634326,860.808580L526.797233,921.335050 " class="Interstate"/><path d="M693.345795,389.282872L730.779770,402.836773 " class="Interstate"/><path d="M876.033791,362.392779L893.914506,364.003709L933.553175,389.926087L973.148640,389.700657 " class="Interstate"/><path d="M525.971065,921.333201L526.797233,921.335050L549.923558,913.129965L586.678237,921.434928 " class="Interstate"/><path d="M489.317523,914.494322L514.190973,921.305434L525.971065,921.333201 " class="Federal"/><path d="M382.722584,1887.952486L402.008229,1872.966574L428.860178,1829.202931L486.369620,1751.456524 " class="State"/><path d="M921.413174,458.682245L940.036767,424.265156L941.717432,405.321889 " class="Federal"/><path d="M646.216709,1530.564012L648.044996,1524.651435L664.493345,1503.361845L669.968008,1483.254482L671.788135,1467.878195L666.295655,1432.396039 " class="Federal"/><path d="M781.211030,324.303317L784.747827,310.096742L777.540875,288.818702L781.972451,275.794638L794.456097,268.664636L803.341710,254.444694L816.676647,237.844795L820.217435,229.553891L838.009023,215.301767L852.492922,199.001627 " class="Federal"/><path d="M629.162594,477.127046L647.994914,454.641347L656.956324,441.621266L657.846466,416.767741L682.905993,387.170943L690.964210,388.348267 " class="Federal"/><path d="M690.964210,388.348267L692.750294,383.613271 " class="Federal"/><path d="M287.588562,1136.523233L298.370427,1154.350043L340.764834,1206.690921L346.155379,1218.557103L361.568724,1226.927670L376.105868,1229.371785L411.433353,1262.678798L414.124441,1272.157930L429.496703,1298.257610L434.911598,1311.296026L448.494831,1333.830931L469.391775,1352.837090 " class="Federal"/><path d="M129.738620,1227.515350L137.684259,1253.625988L165.792580,1263.359067L191.240298,1265.954275L203.901116,1275.529544L204.774156,1280.269952L214.764704,1282.720288L248.350152,1294.820545L276.474409,1309.226917L290.131427,1309.322358L343.789972,1321.494661L345.623921,1319.138904 " class="Federal"/><path d="M361.911586,1340.527907L380.951960,1360.741884L386.372584,1371.417032L401.820067,1383.322679L421.852808,1390.511514L449.135506,1413.099110L469.084912,1453.388663L516.485641,1487.828730 " class="Federal"/><path d="M345.263670,413.584139L361.369503,416.036363L370.338013,413.715102L375.755341,405.458184L389.234312,396.055553L402.742715,379.549939L419.715508,386.721925L423.269939,392.653099L441.174563,392.722312L457.249407,403.429951 " class="Federal"/><path d="M965.801485,390.987140L972.900550,381.479075L983.456398,354.200950L995.605448,300.885500L996.732270,286.217563 " class="Federal"/><path d="M870.466817,492.054542L891.136599,500.250985 " class="Federal"/><path d="M485.299649,894.805038L516.113633,861.736814 " class="Federal"/><path d="M94.157467,1241.350216L129.738620,1227.515350 " class="Federal"/><path d="M521.384292,926.868908L506.035368,916.175073 " class="Federal"/><path d="M345.623921,1319.138904L361.911586,1340.527907 " class="Federal"/><path d="M516.485641,1487.828730L559.394298,1508.023388 " class="Federal"/><path d="M833.291779,384.497328L865.463551,372.545291L865.432549,365.445671L880.642993,365.383040L903.089329,380.665726L908.502271,388.923449L919.281942,395.971037 " class="Federal"/><path d="M639.061151,215.633219L628.357940,207.351495L623.011725,194.339475L598.034902,201.420231L598.051978,183.679683L602.519229,173.039473L598.080508,154.114560L591.856078,142.283789L593.651532,129.278386L582.089088,117.442479L567.910863,74.862675L559.910744,71.304606L552.821628,57.107918L552.841987,46.469377L540.415583,36.991564L538.684891,15.713523L542.249017,10.992659L539.098378,7.309600 " class="State"/><path d="M398.327012,552.325721L395.707629,536.925675L382.296373,526.209644L374.299985,510.783194L364.436873,509.549793L358.309159,482.295421L361.058648,471.657817L357.519265,463.354673L362.982952,447.997569L361.217154,443.254563L348.714182,436.087753L349.665230,426.625406L345.263670,413.584139 " class="State"/><path d="M485.299649,894.805038L479.908783,884.132686L474.557797,861.620003L473.749311,832.017580L464.772704,816.596141L466.629547,801.210508L464.905275,777.525040L461.318058,771.592969L449.607367,767.999641L429.826594,753.716361L425.383160,738.306965 " class="State"/><path d="M40.561220,1323.571721L32.381662,1332.868405 M24.685177,1349.568202L26.551800,1356.527626L40.736816,1393.362856L59.645680,1416.053135L86.893793,1427.000437L89.584149,1431.760242L110.462300,1442.625681L156.601257,1489.205909L156.512316,1499.847163L188.301180,1522.606803L205.643113,1525.123749L310.592416,1550.749074L333.438291,1553.258550 " class="State"/><path d="M762.278757,1063.036273L773.159831,1063.011027L805.737017,1040.428870 " class="State"/><path d="M385.533816,1157.222579L412.779441,1157.350758L454.590313,1148.050514L483.618922,1158.801325L503.589575,1163.593917L532.658306,1163.664640L573.543185,1159.002080L612.611525,1143.653061L632.594616,1123.538269L653.472280,1114.069131L676.159710,1108.141890L711.548997,1104.557949L726.956665,1091.514580L739.621733,1070.184677L753.208822,1061.871755L759.556027,1061.858395 " class="State"/><path d="M586.266383,1153.099564L639.850343,1188.642551L747.201844,1248.904557L749.935589,1251.266073L780.077468,1300.899171 " class="State"/><path d="M539.149035,210.801300L555.216988,204.915751L573.092769,180.105011L582.907013,174.203635L590.051682,162.385126L598.073653,161.209904L621.254398,141.121667L636.399911,132.848866L646.197271,130.484700L668.455196,113.926357L672.903498,108.012604L688.654799,99.189802 " class="State"/><path d="M469.391775,1352.837090L474.895435,1341.023867L506.929531,1283.138688L506.967085,1267.754711L500.620799,1258.270028L502.566584,1208.568401L500.769686,1200.278454L504.462168,1177.800033L499.047643,1163.581408L497.369434,1111.493400L502.851194,1097.303300L504.765329,1058.242539L511.207474,1019.191567L520.349048,983.696482L520.359911,978.960759 " class="Federal"/><path d="M558.206928,539.794550L550.149895,526.760169L546.586541,512.549535L531.364599,497.132335L527.822300,477.003294L530.547347,461.622522L522.521509,443.852037L516.269120,435.553151L519.914889,410.708831L525.311108,401.253501L530.734947,378.780895L525.401241,363.386377 " class="Federal"/><path d="M505.309972,847.501555L509.864755,832.121276L546.045204,797.864519L543.351817,790.755444L546.991423,774.186252L552.421764,763.539973L555.157350,745.784805L547.086154,723.275117L548.923035,704.335051L559.784250,672.386968L565.189118,670.027407L569.712250,654.643017L576.922368,646.365295 " class="Federal"/><path d="M516.489825,349.166998L514.737748,334.964109L503.169388,314.821633L500.573512,285.237625L484.554058,266.265499L486.381774,253.258336L494.470956,235.537467L507.920705,213.098703L507.947066,203.636721L518.692645,187.104238L502.684801,172.874023L478.666799,158.616783L471.571789,149.135060L473.374356,143.228171L465.392093,133.743514L463.698916,110.090490L465.514202,100.637894L466.534842,65.175201L472.810928,51.009782L467.306722,40.465074 " class="Federal"/><path d="M88.813482,1322.930273L115.047436,1340.951067L134.986649,1351.798702L146.868830,1347.182794L175.918427,1359.284869L197.673633,1373.673720L236.728227,1392.924878L246.781701,1389.454883L271.366919,1394.370880L292.295330,1401.616069L306.831292,1411.176854L366.909728,1437.559883L385.980213,1458.949692L486.277181,1510.213294L504.555229,1510.266899L506.391470,1506.724212L523.742553,1512.681268L545.683766,1509.181068L559.394298,1508.023388 " class="Federal"/><path d="M669.093418,1580.218441L673.672006,1587.309593 " class="Federal"/><path d="M289.394066,336.340072L300.041203,348.239097L301.002359,353.067432 M310.304211,372.156769L317.703535,382.660426L311.329700,399.188514L313.984255,403.937894L345.263670,413.584139 " class="Federal"/><path d="M821.277088,1081.813496L813.016703,1049.877109L818.313985,1004.872687L816.432054,982.384415L811.847238,963.456043 " class="Federal"/><path d="M603.257218,354.034292L591.640729,341.008363L588.080672,325.623008L588.099662,309.058756L585.423816,304.323418 " class="State"/><path d="M907.558005,379.461383L901.209306,362.925171L901.904487,323.876351L893.723685,296.702373L881.102940,273.097063L877.431241,251.819644L871.106972,235.285457L855.870546,219.968442L851.355574,206.974920L844.186871,198.721834 " class="State"/><path d="M762.571516,780.068845L749.022532,770.624709L718.314481,738.707356L710.187837,726.877944L698.438338,692.555842L694.834973,691.375306 " class="State"/><path d="M723.013782,272.359042L711.400840,271.191011L694.417869,258.195747L677.440636,240.464191L659.586545,234.557158L652.444591,221.547198L639.061151,215.633219 " class="State"/><path d="M781.211030,324.303317L772.213222,301.844981L755.201891,287.684245L750.742173,291.242060L735.546080,287.719579L729.272012,275.899003L723.013782,272.359042 " class="State"/><path d="M431.941806,676.769072L434.670961,669.676383L430.248598,650.716837L433.909966,635.341014L427.712733,611.639733L417.921773,589.107373L416.192624,573.711080L400.066735,564.170849L398.327012,552.325721 " class="State"/><path d="M762.278757,1063.036273L772.274843,1072.483836L786.806508,1080.733560L810.445638,1099.605419L837.677395,1103.064184L851.314051,1110.115046L878.552383,1113.552429L879.876460,1113.905648 " class="State"/><path d="M805.737017,1040.428870L811.164444,1036.860511L846.483323,1029.634641 " class="State"/><path d="M298.554716,1124.760464L323.890492,1137.942152L351.092971,1144.020253L374.641606,1155.983733L385.533816,1157.222579 " class="State"/><path d="M250.048291,1182.412503L271.028233,1169.548080L278.356027,1160.131464L291.256978,1130.629952L292.202161,1124.718071 " class="Federal"/><path d="M516.113633,861.736814L567.691134,805.004315L651.611489,715.076709L684.037132,703.223632L693.935523,692.560069L699.325529,679.531597L723.611598,664.110918L741.580169,646.323416L764.932860,628.518769L812.376894,558.548919L818.656235,556.161841L830.251304,533.633061 " class="Federal"/><path d="M906.320611,487.161196L921.413174,458.682245 " class="Federal"/><path d="M941.717432,405.321889L947.991942,406.471164L959.550717,393.389727 " class="Federal"/><path d="M292.202161,1124.718071L315.973505,1095.280381L368.757378,1061.255363L422.425401,1017.707550L430.583409,1016.557474L441.489733,1007.129599L523.115913,961.207977L533.115822,939.918729L559.386860,918.656098L576.595819,898.553229L616.389626,870.173621L617.295693,865.438058L637.177194,837.028485L648.011312,790.852525L639.894581,757.700197L641.698620,748.228401L652.514501,730.468277L670.531527,715.071236L672.329808,707.966572 " class="Federal"/><path d="M129.738620,1227.515350L138.805781,1229.971001L152.470456,1226.552126 " class="Federal"/><path d="M559.083012,552.817136L558.206928,539.794550 " class="Federal"/><path d="M425.383160,738.306965L429.957048,721.750222L426.461648,695.689705L428.311643,683.858043L435.556796,673.231519L495.055951,642.648297L544.581550,620.269431L566.166678,619.121380L572.471686,612.027071L571.587676,601.371267 " class="Federal"/><path d="M786.648728,350.320450L781.211030,324.303317 " class="Federal"/><path d="M576.922368,646.365295L575.143599,630.972460L567.967022,617.940117 " class="Federal"/><path d="M524.034205,955.290299L524.978600,937.532955L521.384292,926.868908 " class="Federal"/><path d="M520.359911,978.960759L523.115913,961.207977 " class="Federal"/><path d="M418.020661,566.616219L432.402869,564.306844L456.660144,563.212511L467.431034,565.616271L486.248140,581.063613L526.655246,594.188695L568.875013,612.022120L604.837333,617.980214L631.816759,614.442107L672.267739,587.208885L697.410088,564.698501L709.069701,549.297178L729.713910,542.166746L744.958426,531.487565L804.172717,519.510722L815.848165,521.842947 " class="Federal"/><path d="M227.158127,521.252368L246.841740,518.287849L264.618969,540.903223 " class="Federal"/><path d="M270.634955,1113.276026L292.202161,1124.718071 " class="Federal"/><path d="M559.394298,1508.023388L565.786814,1511.581466L605.980802,1542.373393L608.720473,1548.287557L627.009192,1555.391818 " class="Federal"/><path d="M935.436367,402.988568L941.717432,405.321889 " class="Federal"/><path d="M811.847238,963.456043L810.913340,953.987383L796.355434,925.615618L791.785067,907.868702L783.611169,893.682678L781.779334,884.215450L771.801601,868.848038L769.947854,848.724349L764.502402,836.896701L760.813665,801.384638L763.478806,782.434851L760.739162,767.048880L764.263938,730.337797L768.722757,710.200428L765.944180,677.056363L766.786786,652.192330L771.248877,636.791610L767.622822,624.961182 " class="Federal"/><path d="M370.902148,772.215085L374.746267,771.226546 " class="Federal"/><path d="M118.389649,1210.418502L129.738620,1227.515350 " class="Federal"/><path d="M822.281219,565.620235L823.906037,567.037914 " class="Interstate"/><path d="M849.014464,511.076559L868.420578,519.757429 M877.435516,523.790050L880.485257,525.154280L888.585448,529.853532L912.715795,509.618829L915.326425,494.219095L928.908325,495.940859 " class="Interstate"/><path d="M873.110301,481.391294L879.366061,476.630670L894.592304,473.012938L907.992575,463.482139L924.874957,436.178599L932.797410,411.286004 " class="Interstate"/><path d="M965.801485,390.987140L969.389312,392.149502L984.358752,355.378627L983.392747,344.735867L991.310080,325.756786L997.317209,290.227657L995.480579,285.462372 " class="State"/><path d="M724.242573,487.725433L744.903386,503.079178 " class="State"/><path d="M585.423816,304.323418L585.445161,286.577111L580.090727,281.838874L572.980108,256.987139L565.857746,243.965224L556.950091,233.305864 " class="State"/><path d="M904.941011,937.036000L903.092525,928.757442L913.886599,916.864660L917.366183,889.616240L910.893904,860.049916L900.918670,851.810800L887.355728,848.321999L872.013280,850.757180L858.456734,848.444963L827.806771,865.134155L810.601555,852.166206L799.698087,829.702825L790.656726,824.992114L780.687184,809.626206L771.614264,789.520333L762.571516,780.068845 " class="State"/><path d="M676.667009,432.145524L703.583154,462.895601L705.381860,467.627981L718.846962,478.263982L724.242573,487.725433 " class="State"/><path d="M744.903386,503.079178L751.198852,510.169367 " class="State"/><path d="M833.291779,384.497328L845.912381,406.937027L886.326750,431.627103L901.574609,435.108592L915.991209,450.424714L920.529625,461.053704 " class="State"/><path d="M830.251304,533.633061L836.456222,512.305498L849.019160,512.260194L852.579854,505.144956L871.358562,490.867269L884.812669,490.810141L906.320611,487.161196 " class="Federal"/><path d="M484.356838,907.826007L489.822760,893.634453L512.473650,872.383871L516.113633,861.736814 " class="Federal"/><path d="M374.746267,771.226546L410.932014,745.349652L425.383160,738.306965 " class="Federal"/><path d="M511.103695,356.253764L516.489825,349.166998 " class="Federal"/><path d="M815.848165,521.842947L827.486788,513.519739L836.456222,512.305498 " class="Federal"/><path d="M807.908294,565.664968L822.281219,565.620235 " class="Interstate"/><path d="M40.561220,1323.571721L45.087052,1325.990393L60.754427,1307.241532L113.001403,1267.577791L135.020527,1246.500274L139.640451,1238.262332L153.379327,1226.560720L193.466809,1215.090082L226.325342,1196.429430L250.048291,1182.412503L266.391149,1183.717138L280.056190,1177.896800 " class="Interstate"/><path d="M272.506309,1132.892744L274.044548,1125.776300L270.081793,1115.224397 " class="Interstate"/><path d="M228.442008,508.554576L232.630190,500.429073L233.104106,495.294781 M232.467112,471.917367L235.567405,469.680078L236.451702,467.710474 " class="State"/><path d="M229.021341,577.138177L230.226070,576.161735L229.815120,574.980733 M228.212179,548.109323L235.934462,535.961079 " class="State"/><path d="M435.722812,78.453676L440.723861,69.815981L443.833252,62.385730 " class="Federal"/></g>
<g class="map" id="airports"><circle cx="839.314578557" cy="526.548928769" id="Newark Int'l" class="Airport" r="20"/></g>
<g class="map" id="cities"><circle cx="842.895212204" cy="344.854067735" class="city" data-lat="40.9199945262" data-lon="-74.1700053321" id="Paterson" r="25"/><circle cx="692.391914759" cy="1576.49233744" class="city" data-lat="39.3646372671" data-lon="-74.4233232032" id="Atlantic City" r="25"/><circle cx="843.572124988" cy="518.662657179" class="city" data-lat="40.7004213654" data-lon="-74.1700053321" id="Newark" r="25"/><circle cx="498.301491385" cy="901.667857564" class="city" data-lat="40.2169625031" data-lon="-74.7433553484" id="Trenton" r="25"/></g></svg>