<?xml version="1.0" encoding="utf-8"?><!DOCTYPE svg  PUBLIC '-//W3C//DTD SVG 1.1//EN'  'http://www.w3.org/Graphics/SVG/1.1/DTD/svg11.dtd'>
<svg xmlns="http://www.w3.org/2000/svg" version="1.1" style="fill:none;" width="100%" height="100%" viewbox="-50 -50 1100 845">
    
<!--svg enable_background="new 0 0 1000 745" height="745px" pretty_print="False" style="stroke-linejoin: round; stroke:#000; fill: none;" version="1.1" viewBox="0 0 1000 745" width="1000px" xmlns="http://www.w3.org/2000/svg" xmlns:xlink="http://www.w3.org/1999/xlink"--><defs><style type="text/css"><![CDATA[path { fill-rule: evenodd; }]]></style></defs><metadata><views><view h="745.359489384" padding="0" w="1000"><proj dist="1.3" id="satellite" lat0="44.5" lon0="-122.1" tilt="0" up="0"/><bbox h="205.48" w="276.05" x="912.87" y="914.94"/></view></views></metadata><g class="map" id="states"><path d="M944.058172,27.259903L944.387594,28.019263L945.788323,33.290881L949.943862,42.793632L957.554785,49.856282L960.217210,54.644761L968.846232,56.068539L972.733784,59.846227L979.931546,63.821258L984.983418,64.531209L988.483132,67.869513L990.265874,71.168390L992.975901,78.091607L997.763965,86.201196L998.949056,89.681854L999.328282,93.329533L998.624697,96.645746L997.191353,99.412446L993.403816,105.018562L991.588804,110.979993L990.962820,116.390376L985.835066,124.178063L984.478284,130.082263L980.699277,135.345481L979.380800,138.585015L979.160959,142.288749L979.303773,149.498384L976.965613,155.446903L975.562255,166.223622L973.548816,173.039653L962.153977,193.856060L961.055271,197.572034L961.454261,199.529437L963.090629,202.189688L963.137986,205.833544L962.366387,214.000302L961.609926,217.287974L959.220765,223.553921L953.485525,234.961483L949.783312,239.411186L942.768681,244.783576L940.682252,247.754541L939.545126,250.339659L936.755621,259.335497L934.061891,265.670105L932.942809,269.426757L932.319826,276.254862L929.860458,282.621937L928.308888,284.807352L924.691889,287.033152L924.400770,289.256348L922.110853,292.599307L923.642771,297.193883L921.765852,303.881974L921.602106,307.903622L924.089099,313.315083L924.559709,315.504580L924.071649,321.415575L925.073110,324.583795L927.186196,326.714662L932.120090,329.940655L935.217307,325.567311L938.471033,325.113295L941.383833,329.361176L943.941323,330.032224L950.902281,327.460943L952.470158,327.980583L953.353047,333.356222L955.144275,336.485582L962.700932,341.650855L963.405470,343.209838L961.783814,346.517853L961.470973,352.563867L960.585454,354.371302L955.967979,355.525928L954.797503,357.117931L955.002662,359.966751L958.708982,365.627415L959.809225,369.211049L959.762068,371.213887L958.528055,375.875881L958.118355,383.030881L956.900972,388.752652L956.685373,392.922691L955.499528,396.905766L954.265611,399.283038L951.684546,401.688701L949.922188,404.609338L951.746125,412.071086L955.227535,471.141897L960.306977,560.276540L964.203303,631.414843L967.943741,702.357567L968.860839,720.046037L992.326335,718.319666L1000.000000,717.733082L1000.000000,0.000000L938.433813,0.000000L937.672594,3.287886L936.319857,5.768415L933.124478,9.992199L933.907754,11.779045L940.733296,19.663842L944.058172,27.259903Z " id="Idaho" class="neighbor"/><path d="M168.904903,18.961432L164.948477,15.798104L162.892708,13.543945L158.273552,9.698419L156.833175,8.997858L157.467813,14.184095L161.531399,17.538827L168.904903,18.961432Z M185.361890,13.852028L193.622987,12.663950L195.969531,13.343949L203.425776,19.208553L207.108769,19.916998L211.045657,21.671821L214.776359,24.048048L217.825143,26.582844L220.025974,29.283852L222.127196,32.872095L223.694695,36.770407L224.930689,43.425380L230.145628,49.280187L230.846674,52.168910L231.750167,60.057083L233.933276,66.165547L233.078992,72.902780L233.128669,76.877625L235.851813,81.724255L236.321225,83.447220L235.502351,90.643344L236.034716,97.467564L236.775105,101.377515L237.882319,104.293984L239.968948,106.744820L245.858061,110.822313L255.403423,112.852521L260.339770,111.516345L262.161856,111.589537L266.114789,113.687192L272.357419,115.405443L276.003966,117.528212L286.334427,117.753469L296.177747,121.401430L300.645755,119.380938L309.787055,116.599838L331.627895,108.143635L336.517522,105.039160L344.868738,97.921203L349.924572,94.998273L353.363918,94.301346L362.535338,96.249503L380.476020,92.767622L416.887825,96.092909L422.698081,98.097252L425.179097,100.166994L429.119640,109.395948L431.325219,111.041732L434.018528,110.675884L444.808591,105.530791L462.380566,107.246298L467.560650,105.620021L490.408145,96.089661L494.851080,91.538976L496.116583,91.202868L514.544568,94.490688L519.924579,92.517162L526.223932,93.565733L530.350385,92.152044L535.055000,89.163472L541.778414,89.449523L543.654986,89.218383L546.992824,87.619597L550.101621,85.250603L553.724790,81.418987L555.890597,79.886328L561.549791,78.767467L579.065017,70.830388L611.779499,64.085031L616.713778,59.808849L620.048042,55.270395L621.994504,54.093631L625.171915,53.629202L633.546124,53.789744L650.112976,50.031341L679.983728,48.598116L685.745103,45.680346L690.566317,39.421786L712.658545,38.599432L759.036582,36.731558L820.689849,33.938095L866.772673,31.610851L882.098430,30.791860L927.984558,28.208916L944.058172,27.259903L940.733296,19.663842L933.907754,11.779045L933.124478,9.992199L936.319857,5.768415L937.672594,3.287886L938.433813,0.000000L153.855381,0.000000L157.448485,6.319287L159.692763,9.161601L167.360051,15.979545L171.054344,18.466674L174.492890,18.708209L177.177436,16.617810L182.048577,13.940591L185.287289,13.690073L185.361890,13.852028Z M96.184247,0.000000L102.016332,1.923121L104.121030,0.000000L96.184247,0.000000Z " id="Washington" class="neighbor"/><path d="M43.200826,742.439789L43.458027,743.359489L316.748803,743.359489L282.872202,743.300489L248.999923,743.117112L215.142721,742.809471L181.292384,742.377526L147.459660,741.821426L113.648968,741.141305L79.871022,740.337489L42.408364,739.300339L43.200826,742.439789Z M587.379018,739.358687L553.624161,740.292758L519.844540,741.103013L486.038256,741.789444L452.206558,742.351931L418.353860,742.790305L384.497228,743.104331L350.625291,743.294098L316.748803,743.359489L587.461489,743.359489L587.379018,739.358687Z " id="California" class="neighbor"/><path d="M968.860839,720.046037L945.284674,721.712922L874.299337,726.350388L850.564189,727.774035L779.147547,731.676794L755.280881,732.854235L683.506730,736.014741L659.539625,736.943458L611.513570,738.614436L587.379018,739.358687L587.461489,743.359489L1000.000000,743.359489L1000.000000,717.733082L992.326335,718.319666L968.860839,720.046037Z " id="Nevada" class="neighbor"/><path d="M587.379018,739.358687L611.513570,738.614436L659.539625,736.943458L683.506730,736.014741L755.280881,732.854235L779.147547,731.676794L850.564189,727.774035L874.299337,726.350388L945.284674,721.712922L968.860839,720.046037L967.943741,702.357567L964.203303,631.414843L960.306977,560.276540L955.227535,471.141897L951.746125,412.071086L949.922188,404.609338L951.684546,401.688701L954.265611,399.283038L955.499528,396.905766L956.685373,392.922691L956.900972,388.752652L958.118355,383.030881L958.528055,375.875881L959.762068,371.213887L959.809225,369.211049L958.708982,365.627415L955.002662,359.966751L954.797503,357.117931L955.967979,355.525928L960.585454,354.371302L961.470973,352.563867L961.783814,346.517853L963.405470,343.209838L962.700932,341.650855L955.144275,336.485582L953.353047,333.356222L952.470158,327.980583L950.902281,327.460943L943.941323,330.032224L941.383833,329.361176L938.471033,325.113295L935.217307,325.567311L932.120090,329.940655L927.186196,326.714662L925.073110,324.583795L924.071649,321.415575L924.559709,315.504580L924.089099,313.315083L921.602106,307.903622L921.765852,303.881974L923.642771,297.193883L922.110853,292.599307L924.400770,289.256348L924.691889,287.033152L928.308888,284.807352L929.860458,282.621937L932.319826,276.254862L932.942809,269.426757L934.061891,265.670105L936.755621,259.335497L939.545126,250.339659L940.682252,247.754541L942.768681,244.783576L949.783312,239.411186L953.485525,234.961483L959.220765,223.553921L961.609926,217.287974L962.366387,214.000302L963.137986,205.833544L963.090629,202.189688L961.454261,199.529437L961.055271,197.572034L962.153977,193.856060L973.548816,173.039653L975.562255,166.223622L976.965613,155.446903L979.303773,149.498384L979.160959,142.288749L979.380800,138.585015L980.699277,135.345481L984.478284,130.082263L985.835066,124.178063L990.962820,116.390376L991.588804,110.979993L993.403816,105.018562L997.191353,99.412446L998.624697,96.645746L999.328282,93.329533L998.949056,89.681854L997.763965,86.201196L992.975901,78.091607L990.265874,71.168390L988.483132,67.869513L984.983418,64.531209L979.931546,63.821258L972.733784,59.846227L968.846232,56.068539L960.217210,54.644761L957.554785,49.856282L949.943862,42.793632L945.788323,33.290881L944.387594,28.019263L944.058172,27.259903L927.984558,28.208916L882.098430,30.791860L866.772673,31.610851L820.689849,33.938095L759.036582,36.731558L712.658545,38.599432L690.566317,39.421786L685.745103,45.680346L679.983728,48.598116L650.112976,50.031341L633.546124,53.789744L625.171915,53.629202L621.994504,54.093631L620.048042,55.270395L616.713778,59.808849L611.779499,64.085031L579.065017,70.830388L561.549791,78.767467L555.890597,79.886328L553.724790,81.418987L550.101621,85.250603L546.992824,87.619597L543.654986,89.218383L541.778414,89.449523L535.055000,89.163472L530.350385,92.152044L526.223932,93.565733L519.924579,92.517162L514.544568,94.490688L496.116583,91.202868L494.851080,91.538976L490.408145,96.089661L467.560650,105.620021L462.380566,107.246298L444.808591,105.530791L434.018528,110.675884L431.325219,111.041732L429.119640,109.395948L425.179097,100.166994L422.698081,98.097252L416.887825,96.092909L380.476020,92.767622L362.535338,96.249503L353.363918,94.301346L349.924572,94.998273L344.868738,97.921203L336.517522,105.039160L331.627895,108.143635L309.787055,116.599838L300.645755,119.380938L296.177747,121.401430L286.334427,117.753469L276.003966,117.528212L272.357419,115.405443L266.114789,113.687192L262.161856,111.589537L260.339770,111.516345L255.403423,112.852521L245.858061,110.822313L239.968948,106.744820L237.882319,104.293984L236.775105,101.377515L236.034716,97.467564L235.502351,90.643344L236.321225,83.447220L235.851813,81.724255L233.128669,76.877625L233.078992,72.902780L233.933276,66.165547L231.750167,60.057083L230.846674,52.168910L230.145628,49.280187L224.930689,43.425380L223.694695,36.770407L222.127196,32.872095L220.025974,29.283852L217.825143,26.582844L214.776359,24.048048L211.045657,21.671821L207.108769,19.916998L203.425776,19.208553L195.969531,13.343949L193.622987,12.663950L185.361890,13.852028L183.734102,15.010522L178.822686,21.070949L176.016795,21.702100L173.456484,21.561170L170.849987,20.300030L167.632368,20.623305L160.459773,19.254188L155.168240,13.864558L154.391327,10.096291L150.113128,6.698851L148.733277,4.493927L142.520036,3.715015L141.831892,5.063840L137.008413,8.391526L133.894912,7.909205L132.290037,8.618404L132.318074,10.040767L134.789465,10.917460L133.008197,11.822064L121.868678,14.354782L119.305830,14.375708L114.666897,8.433270L110.850052,10.198498L108.084851,10.836850L102.705046,11.274457L105.280707,13.651668L109.669449,14.698347L113.006670,20.047926L110.337288,18.884568L110.400817,26.037710L108.788118,23.968331L107.440536,16.499751L106.267971,15.513306L102.409775,15.896708L98.376588,14.293602L98.032397,12.287519L92.473916,7.845472L90.341410,6.838411L88.420014,6.874913L87.269855,5.090828L88.100807,3.991096L86.395557,2.034263L83.963297,3.178462L87.700565,8.530890L92.141510,22.624496L93.638005,29.295416L94.975184,41.130054L93.536975,47.071715L89.814637,49.213772L88.711290,51.668371L86.507918,54.193641L88.944814,57.610488L90.063672,61.346952L90.333248,65.540842L89.776012,75.558754L88.505622,81.470033L86.771940,83.839369L88.881463,88.049040L90.834511,89.469358L91.513122,91.052293L91.912392,95.939821L91.691229,102.621569L92.390223,101.251186L92.748177,96.919122L94.365701,95.028249L99.976862,96.289799L97.925893,98.859451L95.177516,97.346451L94.205674,97.625061L93.787373,102.306234L91.153100,104.719501L90.707629,109.446098L88.894256,117.286272L92.785919,121.186208L96.364839,120.210338L95.733395,124.001112L96.044051,126.421671L97.676812,130.737153L96.690907,135.008176L93.993775,133.583499L92.936261,131.542876L90.848284,130.641243L90.168059,126.112889L89.919716,120.614812L89.207244,122.132471L88.547785,127.760371L86.999855,131.495864L86.748208,138.900910L88.670795,142.285912L93.040260,145.019794L89.766367,149.891812L87.694686,151.721719L87.348181,147.539419L86.160124,154.585411L85.096054,156.727893L82.533449,157.566198L82.503939,158.758487L86.134809,159.917617L87.417494,165.434990L86.228352,174.045688L85.099827,179.937485L85.944065,181.932262L85.484730,190.928416L83.649312,199.406234L81.112679,203.250129L79.576068,208.132284L80.876998,210.066036L79.298021,223.268924L78.027902,227.411466L78.750598,232.189670L77.883290,233.363749L76.509981,238.804605L73.981556,245.681146L72.489265,248.333852L71.280719,256.280769L72.870082,261.805497L72.910413,265.317918L71.684257,271.698387L70.982693,273.523254L72.499485,278.332393L70.931001,283.712769L71.246392,284.213679L73.769277,281.687765L75.379032,282.919073L78.889622,283.334848L78.131999,287.506562L75.835962,284.286340L74.049133,283.625774L71.824702,285.665892L68.726894,305.062655L68.938699,311.305491L68.544233,317.342297L72.838472,313.787144L75.535428,315.507596L76.625301,320.669735L72.283310,316.520307L70.806110,317.093783L68.352949,320.148164L66.007433,334.829209L64.219478,338.267776L63.744677,358.654451L60.681689,384.133401L60.645789,386.269854L62.288123,390.768334L61.644153,392.542495L59.998922,393.516400L57.811054,412.435953L54.175172,433.158578L50.445825,447.316843L54.471924,444.487981L55.821915,441.013393L56.022866,437.697912L57.534221,435.845792L60.091024,435.651098L63.397898,441.045135L67.278308,442.366586L66.963859,443.566792L62.372504,443.209035L58.607077,438.401290L58.305605,440.397013L53.970819,448.768498L50.453634,450.459775L49.482998,451.503222L47.464651,463.694822L45.478769,470.497743L37.339535,492.795615L32.411208,501.823165L33.656690,502.343892L39.117473,495.428102L40.007984,492.256460L44.725658,489.744418L45.661835,487.920356L50.169136,487.133617L48.943210,488.704647L48.692254,490.841918L50.452318,492.799336L51.303279,497.822640L53.397733,499.883314L57.137458,500.765395L55.620005,501.752741L52.338466,501.715067L47.921907,500.631784L47.290175,498.633949L47.446357,493.350053L46.936780,491.798036L43.057862,493.037844L39.996609,497.051317L38.488063,501.079455L35.719679,503.732809L35.256728,506.551214L35.657594,508.442304L34.496202,513.295673L33.297580,511.096623L33.466505,506.498881L33.069791,504.718415L31.482208,504.098701L29.195593,505.743789L27.082871,506.038036L23.810518,511.190552L24.548711,512.959085L25.464248,519.428443L20.893140,540.353952L21.115659,543.262570L20.036392,544.307786L18.105559,555.243188L17.048084,559.756526L10.558972,576.976169L3.147784,591.408755L0.671718,593.321378L4.955329,598.681976L6.881675,608.339708L8.041646,610.498300L9.789215,610.339493L12.165947,611.710386L12.828954,616.555161L14.340111,619.317467L19.326480,623.729747L21.002119,631.889744L20.471413,635.481384L21.494905,640.441329L19.780465,648.550004L17.825289,653.434584L17.305143,659.820679L15.162592,662.335702L16.979430,665.741013L16.599885,675.790865L15.602077,681.396465L18.465081,687.217217L17.886397,695.393912L20.069392,697.105509L22.062995,700.488025L22.332260,704.587569L23.841403,708.354088L23.443209,712.685823L24.916561,715.874086L24.149262,719.119888L25.261793,721.757404L27.104437,722.931832L32.449722,730.885066L34.802556,731.145061L42.116745,738.144373L42.408364,739.300339L79.871022,740.337489L113.648968,741.141305L147.459660,741.821426L181.292384,742.377526L215.142721,742.809471L248.999923,743.117112L282.872202,743.300489L316.748803,743.359489L350.625291,743.294098L384.497228,743.104331L418.353860,742.790305L452.206558,742.351931L486.038256,741.789444L519.844540,741.103013L553.624161,740.292758L587.379018,739.358687Z M149.324266,0.000000L149.612631,3.456119L150.705112,5.401008L153.994773,7.494405L154.519020,6.258452L153.646662,3.550101L149.324266,0.000000Z " id="Oregon" class="neighbor"/></g>
<g class="map" id="OR"><path d="M587.379018,739.358687L611.513570,738.614436L659.539625,736.943458L683.506730,736.014741L755.280881,732.854235L779.147547,731.676794L850.564189,727.774035L874.299337,726.350388L945.284674,721.712922L968.860839,720.046037L967.943741,702.357567L964.203303,631.414843L960.306977,560.276540L955.227535,471.141897L951.746125,412.071086L949.922188,404.609338L951.684546,401.688701L954.265611,399.283038L955.499528,396.905766L956.685373,392.922691L956.900972,388.752652L958.118355,383.030881L958.528055,375.875881L959.762068,371.213887L959.809225,369.211049L958.708982,365.627415L955.002662,359.966751L954.797503,357.117931L955.967979,355.525928L960.585454,354.371302L961.470973,352.563867L961.783814,346.517853L963.405470,343.209838L962.700932,341.650855L955.144275,336.485582L953.353047,333.356222L952.470158,327.980583L950.902281,327.460943L943.941323,330.032224L941.383833,329.361176L938.471033,325.113295L935.217307,325.567311L932.120090,329.940655L927.186196,326.714662L925.073110,324.583795L924.071649,321.415575L924.559709,315.504580L924.089099,313.315083L921.602106,307.903622L921.765852,303.881974L923.642771,297.193883L922.110853,292.599307L924.400770,289.256348L924.691889,287.033152L928.308888,284.807352L929.860458,282.621937L932.319826,276.254862L932.942809,269.426757L934.061891,265.670105L936.755621,259.335497L939.545126,250.339659L940.682252,247.754541L942.768681,244.783576L949.783312,239.411186L953.485525,234.961483L959.220765,223.553921L961.609926,217.287974L962.366387,214.000302L963.137986,205.833544L963.090629,202.189688L961.454261,199.529437L961.055271,197.572034L962.153977,193.856060L973.548816,173.039653L975.562255,166.223622L976.965613,155.446903L979.303773,149.498384L979.160959,142.288749L979.380800,138.585015L980.699277,135.345481L984.478284,130.082263L985.835066,124.178063L990.962820,116.390376L991.588804,110.979993L993.403816,105.018562L997.191353,99.412446L998.624697,96.645746L999.328282,93.329533L998.949056,89.681854L997.763965,86.201196L992.975901,78.091607L990.265874,71.168390L988.483132,67.869513L984.983418,64.531209L979.931546,63.821258L972.733784,59.846227L968.846232,56.068539L960.217210,54.644761L957.554785,49.856282L949.943862,42.793632L945.788323,33.290881L944.387594,28.019263L944.058172,27.259903L927.984558,28.208916L882.098430,30.791860L866.772673,31.610851L820.689849,33.938095L759.036582,36.731558L712.658545,38.599432L690.566317,39.421786L685.745103,45.680346L679.983728,48.598116L650.112976,50.031341L633.546124,53.789744L625.171915,53.629202L621.994504,54.093631L620.048042,55.270395L616.713778,59.808849L611.779499,64.085031L579.065017,70.830388L561.549791,78.767467L555.890597,79.886328L553.724790,81.418987L550.101621,85.250603L546.992824,87.619597L543.654986,89.218383L541.778414,89.449523L535.055000,89.163472L530.350385,92.152044L526.223932,93.565733L519.924579,92.517162L514.544568,94.490688L496.116583,91.202868L494.851080,91.538976L490.408145,96.089661L467.560650,105.620021L462.380566,107.246298L444.808591,105.530791L434.018528,110.675884L431.325219,111.041732L429.119640,109.395948L425.179097,100.166994L422.698081,98.097252L416.887825,96.092909L380.476020,92.767622L362.535338,96.249503L353.363918,94.301346L349.924572,94.998273L344.868738,97.921203L336.517522,105.039160L331.627895,108.143635L309.787055,116.599838L300.645755,119.380938L296.177747,121.401430L286.334427,117.753469L276.003966,117.528212L272.357419,115.405443L266.114789,113.687192L262.161856,111.589537L260.339770,111.516345L255.403423,112.852521L245.858061,110.822313L239.968948,106.744820L237.882319,104.293984L236.775105,101.377515L236.034716,97.467564L235.502351,90.643344L236.321225,83.447220L235.851813,81.724255L233.128669,76.877625L233.078992,72.902780L233.933276,66.165547L231.750167,60.057083L230.846674,52.168910L230.145628,49.280187L224.930689,43.425380L223.694695,36.770407L222.127196,32.872095L220.025974,29.283852L217.825143,26.582844L214.776359,24.048048L211.045657,21.671821L207.108769,19.916998L203.425776,19.208553L195.969531,13.343949L193.622987,12.663950L185.361890,13.852028L183.734102,15.010522L178.822686,21.070949L176.016795,21.702100L173.456484,21.561170L170.849987,20.300030L167.632368,20.623305L160.459773,19.254188L155.168240,13.864558L154.391327,10.096291L150.113128,6.698851L148.733277,4.493927L142.520036,3.715015L141.831892,5.063840L137.008413,8.391526L133.894912,7.909205L132.290037,8.618404L132.318074,10.040767L134.789465,10.917460L133.008197,11.822064L121.868678,14.354782L119.305830,14.375708L114.666897,8.433270L110.850052,10.198498L108.084851,10.836850L102.705046,11.274457L105.280707,13.651668L109.669449,14.698347L113.006670,20.047926L110.337288,18.884568L110.400817,26.037710L108.788118,23.968331L107.440536,16.499751L106.267971,15.513306L102.409775,15.896708L98.376588,14.293602L98.032397,12.287519L92.473916,7.845472L90.341410,6.838411L88.420014,6.874913L87.269855,5.090828L88.100807,3.991096L86.395557,2.034263L83.963297,3.178462L87.700565,8.530890L92.141510,22.624496L93.638005,29.295416L94.975184,41.130054L93.536975,47.071715L89.814637,49.213772L88.711290,51.668371L86.507918,54.193641L88.944814,57.610488L90.063672,61.346952L90.333248,65.540842L89.776012,75.558754L88.505622,81.470033L86.771940,83.839369L88.881463,88.049040L90.834511,89.469358L91.513122,91.052293L91.912392,95.939821L91.691229,102.621569L92.390223,101.251186L92.748177,96.919122L94.365701,95.028249L99.976862,96.289799L97.925893,98.859451L95.177516,97.346451L94.205674,97.625061L93.787373,102.306234L91.153100,104.719501L90.707629,109.446098L88.894256,117.286272L92.785919,121.186208L96.364839,120.210338L95.733395,124.001112L96.044051,126.421671L97.676812,130.737153L96.690907,135.008176L93.993775,133.583499L92.936261,131.542876L90.848284,130.641243L90.168059,126.112889L89.919716,120.614812L89.207244,122.132471L88.547785,127.760371L86.999855,131.495864L86.748208,138.900910L88.670795,142.285912L93.040260,145.019794L89.766367,149.891812L87.694686,151.721719L87.348181,147.539419L86.160124,154.585411L85.096054,156.727893L82.533449,157.566198L82.503939,158.758487L86.134809,159.917617L87.417494,165.434990L86.228352,174.045688L85.099827,179.937485L85.944065,181.932262L85.484730,190.928416L83.649312,199.406234L81.112679,203.250129L79.576068,208.132284L80.876998,210.066036L79.298021,223.268924L78.027902,227.411466L78.750598,232.189670L77.883290,233.363749L76.509981,238.804605L73.981556,245.681146L72.489265,248.333852L71.280719,256.280769L72.870082,261.805497L72.910413,265.317918L71.684257,271.698387L70.982693,273.523254L72.499485,278.332393L70.931001,283.712769L71.246392,284.213679L73.769277,281.687765L75.379032,282.919073L78.889622,283.334848L78.131999,287.506562L75.835962,284.286340L74.049133,283.625774L71.824702,285.665892L68.726894,305.062655L68.938699,311.305491L68.544233,317.342297L72.838472,313.787144L75.535428,315.507596L76.625301,320.669735L72.283310,316.520307L70.806110,317.093783L68.352949,320.148164L66.007433,334.829209L64.219478,338.267776L63.744677,358.654451L60.681689,384.133401L60.645789,386.269854L62.288123,390.768334L61.644153,392.542495L59.998922,393.516400L57.811054,412.435953L54.175172,433.158578L50.445825,447.316843L54.471924,444.487981L55.821915,441.013393L56.022866,437.697912L57.534221,435.845792L60.091024,435.651098L63.397898,441.045135L67.278308,442.366586L66.963859,443.566792L62.372504,443.209035L58.607077,438.401290L58.305605,440.397013L53.970819,448.768498L50.453634,450.459775L49.482998,451.503222L47.464651,463.694822L45.478769,470.497743L37.339535,492.795615L32.411208,501.823165L33.656690,502.343892L39.117473,495.428102L40.007984,492.256460L44.725658,489.744418L45.661835,487.920356L50.169136,487.133617L48.943210,488.704647L48.692254,490.841918L50.452318,492.799336L51.303279,497.822640L53.397733,499.883314L57.137458,500.765395L55.620005,501.752741L52.338466,501.715067L47.921907,500.631784L47.290175,498.633949L47.446357,493.350053L46.936780,491.798036L43.057862,493.037844L39.996609,497.051317L38.488063,501.079455L35.719679,503.732809L35.256728,506.551214L35.657594,508.442304L34.496202,513.295673L33.297580,511.096623L33.466505,506.498881L33.069791,504.718415L31.482208,504.098701L29.195593,505.743789L27.082871,506.038036L23.810518,511.190552L24.548711,512.959085L25.464248,519.428443L20.893140,540.353952L21.115659,543.262570L20.036392,544.307786L18.105559,555.243188L17.048084,559.756526L10.558972,576.976169L3.147784,591.408755L0.671718,593.321378L4.955329,598.681976L6.881675,608.339708L8.041646,610.498300L9.789215,610.339493L12.165947,611.710386L12.828954,616.555161L14.340111,619.317467L19.326480,623.729747L21.002119,631.889744L20.471413,635.481384L21.494905,640.441329L19.780465,648.550004L17.825289,653.434584L17.305143,659.820679L15.162592,662.335702L16.979430,665.741013L16.599885,675.790865L15.602077,681.396465L18.465081,687.217217L17.886397,695.393912L20.069392,697.105509L22.062995,700.488025L22.332260,704.587569L23.841403,708.354088L23.443209,712.685823L24.916561,715.874086L24.149262,719.119888L25.261793,721.757404L27.104437,722.931832L32.449722,730.885066L34.802556,731.145061L42.116745,738.144373L42.408364,739.300339L79.871022,740.337489L113.648968,741.141305L147.459660,741.821426L181.292384,742.377526L215.142721,742.809471L248.999923,743.117112L282.872202,743.300489L316.748803,743.359489L350.625291,743.294098L384.497228,743.104331L418.353860,742.790305L452.206558,742.351931L486.038256,741.789444L519.844540,741.103013L553.624161,740.292758L587.379018,739.358687Z M149.324266,0.000000L149.612631,3.456119L150.705112,5.401008L153.994773,7.494405L154.519020,6.258452L153.646662,3.550101L149.324266,0.000000Z " id="Oregon" class="state"/></g>
<g class="map" id="uzones"><path d="M656.394596,69.160223L658.036052,65.508123L658.929945,65.203493L658.378705,61.970547L655.551704,58.191743L652.076337,61.257648L654.323697,68.124583L656.394596,69.160223Z " class="urban"/><path d="M430.208223,339.482961L429.052339,339.766136L429.136759,347.524463L430.638077,347.950593L433.586338,344.383644L433.244798,341.768419L430.208223,339.482961Z " class="urban"/><path d="M185.919249,372.614647L184.339727,370.591554L180.315550,374.484781L176.894273,375.407968L175.727694,378.753498L176.163317,384.972587L175.952593,388.027117L208.043494,388.425287L207.194077,383.853595L204.769827,381.250637L199.778900,378.612126L196.621678,375.199938L190.096283,372.666402L189.131585,374.842590L185.919249,372.614647Z " class="urban"/><path d="M416.479914,388.095460L420.757761,384.769970L422.073098,379.892365L421.075822,374.790942L419.545748,372.109400L417.891366,371.063255L416.088302,371.409970L409.497780,375.720908L408.364219,378.033415L408.649821,388.517794L416.479914,388.095460Z " class="urban"/><path d="M954.963295,363.226181L953.363518,362.476977L950.592113,364.738538L951.551170,368.982442L959.028484,369.829411L959.527847,368.294564L958.708982,365.627415L958.463469,365.252442L956.169564,366.318754L954.963295,363.226181Z " class="urban"/><path d="M155.715496,535.076510L157.103971,531.092944L157.275386,525.404713L155.952578,524.307750L152.492429,523.206879L150.228961,523.357304L149.401664,527.586021L150.265747,530.958665L152.484104,533.469002L155.715496,535.076510Z " class="urban"/><path d="M155.932622,670.496750L159.635984,670.386819L157.252481,661.846502L154.224700,660.792617L151.151048,662.519473L151.150265,667.276839L152.924053,669.692875L155.932622,670.496750Z " class="urban"/><path d="M219.730864,663.480486L217.656267,664.450256L214.378326,664.030789L212.248206,666.792201L212.498406,673.041545L209.625597,674.942964L206.144982,675.908124L205.311244,676.818697L205.091483,680.361105L208.071030,688.424848L209.338224,691.169972L216.617561,694.291165L221.017237,682.773128L223.345433,681.422957L223.936002,675.099060L220.920853,675.415924L218.480749,676.407073L216.612432,676.235295L215.364158,673.077614L216.331832,670.525495L219.375893,666.905829L219.730864,663.480486Z " class="urban"/><path d="M357.901881,708.797746L362.454577,708.128295L365.563705,706.546804L366.714907,704.130042L354.446113,694.257395L353.295867,700.045264L355.567103,707.596272L357.901881,708.797746Z " class="urban"/><path d="M423.845430,114.393096L427.023291,113.783791L429.563746,111.198098L423.775433,106.202769L421.980405,107.856058L421.017042,112.750274L423.845430,114.393096Z " class="urban"/><path d="M178.512034,185.976908L181.474251,183.535891L178.870530,176.437961L177.798005,178.334150L174.759963,180.836802L174.659020,184.159121L178.512034,185.976908Z " class="urban"/><path d="M221.163275,198.202414L222.355691,197.314783L222.497545,193.311465L216.956094,192.395465L217.558305,195.865481L221.163275,198.202414Z " class="urban"/><path d="M207.580034,224.965689L207.053315,221.404612L205.726349,219.947817L200.003402,216.302405L195.594603,218.436980L190.383491,226.509346L190.556088,229.518299L189.029893,234.794327L194.526804,234.867883L194.454201,240.685874L195.255557,243.357597L198.565931,242.678736L205.392313,240.278363L207.512037,235.468725L207.580034,224.965689Z " class="urban"/><path d="M190.181843,288.823171L194.673888,283.910072L193.989222,279.512585L192.047492,278.046548L185.702489,279.406070L185.330871,281.511129L185.792395,286.874331L185.572235,289.119427L190.181843,288.823171Z " class="urban"/><path d="M166.274697,298.196303L171.708773,292.821593L167.055113,289.449535L164.523180,288.963928L162.067222,290.719920L166.274697,298.196303Z " class="urban"/><path d="M239.531567,106.231097L238.196357,107.241617L236.219403,105.669617L230.716484,105.627280L228.700207,107.176750L228.366312,111.875705L229.692677,115.355915L232.658442,118.828081L232.640305,120.771151L234.099176,123.563277L233.956086,126.596946L236.480038,127.413166L236.653292,128.546341L230.498113,124.804976L225.026390,119.252026L223.850016,119.595497L221.760127,122.607971L220.501843,121.515049L219.341931,117.396213L217.755323,116.759884L215.685964,120.844259L209.188878,125.839924L206.799837,124.410571L201.511104,127.370704L205.277527,133.772028L210.573388,133.738462L212.823495,135.282468L214.058816,138.818910L216.265851,140.729809L219.033220,140.990068L220.324933,142.716464L220.158058,145.871570L221.039294,148.180984L223.651186,151.720917L224.169366,153.657498L222.283299,155.599273L226.839465,159.509330L227.415882,166.088075L230.088503,168.531344L233.586773,169.266969L234.971014,167.337558L234.667961,165.121802L232.393197,162.403388L232.304902,159.551963L235.655528,158.236161L237.229101,153.895453L237.008048,150.926266L242.748585,146.076808L244.678557,146.072956L244.838472,149.007657L246.820101,152.093646L247.083308,155.344124L245.969123,157.756903L245.938344,159.651364L247.491899,161.380474L255.466400,163.589020L256.859081,159.716443L258.242097,157.780509L258.265250,153.905276L263.554886,146.212463L262.528681,142.991514L266.524564,138.435809L269.426810,137.362961L274.797451,138.854970L277.463462,138.159990L280.810471,132.642382L280.823130,123.146554L281.182036,120.583933L276.734141,117.544134L276.003966,117.528212L275.431475,117.194947L274.007703,117.311352L272.786236,115.832388L272.721799,115.617560L272.357419,115.405443L266.114789,113.687192L262.161856,111.589537L260.339770,111.516345L255.403423,112.852521L245.858061,110.822313L239.968948,106.744820L239.531567,106.231097Z M259.607529,122.199706L257.754846,120.484190L257.131904,117.068604L259.410733,118.154056L262.230069,118.509659L264.507285,119.614085L265.238191,122.904132L259.607529,122.199706Z M268.321391,122.892644L267.989711,119.044466L270.692741,117.526729L273.713915,119.621661L275.809600,122.410759L276.096311,124.893516L270.191125,124.593309L268.321391,122.892644Z " class="urban"/></g>
<g class="map" id="lakes"><path d="M351.304845,692.686142L351.863145,688.702213L352.285848,677.313068L351.820808,673.841377L350.674834,670.780451L348.847103,667.670326L346.605112,665.225152L340.363146,660.694989L334.132266,660.709161L331.420666,658.056089L331.322054,654.886801L332.984387,652.327638L335.518799,651.248977L337.350839,649.148554L337.834341,644.391526L337.484741,639.175203L336.798204,635.698106L335.112195,633.245909L334.091760,633.247930L335.461230,638.821542L334.746035,640.920231L332.024242,641.743670L331.406513,646.756802L329.307633,647.680514L329.308965,648.907779L326.287623,656.120650L321.820119,657.198052L318.317806,659.602089L321.995159,666.653189L324.536771,670.330113L327.192468,672.728511L328.687701,670.376453L330.582960,670.271488L332.101425,671.954976L332.465840,675.172732L334.776764,673.635839L337.070741,673.630931L339.044861,674.954439L340.395621,677.300684L340.478153,680.722428L336.537015,683.438549L336.011289,686.911853L337.647377,689.205654L342.827206,688.171072L345.133073,692.197087L351.898077,701.053631L353.301133,700.078587L353.366172,696.352983L351.304845,692.686142Z " class="Lake"/><path d="M546.766717,740.457244L546.987693,737.788608L545.529728,730.544772L542.147781,725.077221L537.030189,722.348560L533.629845,721.155656L530.759697,722.139817L528.366294,724.436612L524.266560,730.591103L523.421727,732.443428L523.603271,737.887342L525.791358,740.332139L525.549466,740.966172L546.766717,740.457244Z " class="Alkaline Lake"/><path d="M755.409008,513.010033L759.493341,508.827559L759.712669,506.358896L758.875656,503.887521L753.606546,494.547858L750.166304,493.678399L749.410915,491.355160L749.629607,487.399383L751.047523,482.415665L739.230193,486.988746L730.353340,488.295587L716.780191,487.431734L714.568403,488.292026L712.766426,492.928636L712.756217,495.287082L717.155446,499.616015L717.840065,504.302546L723.904649,515.166550L728.965967,514.950577L731.167734,517.826866L733.487030,519.826462L736.203354,520.476279L737.785424,513.492066L739.567818,511.006110L742.005342,509.207998L744.570082,509.350265L748.099853,507.553190L749.695432,507.583881L751.761129,511.690780L755.409008,513.010033Z " class="Alkaline Lake"/><path d="M708.295714,519.350921L706.339293,517.022404L700.979601,516.264725L697.328147,512.105372L692.897447,511.305885L689.193411,506.580602L688.347574,512.559001L687.185190,514.551413L680.896926,516.790430L679.782341,518.011362L686.044911,521.872351L685.398248,526.662509L686.692501,528.713299L691.190598,530.229230L698.349017,533.942174L700.328193,533.555727L707.176685,526.363845L708.034751,523.152734L708.295714,519.350921Z " class="Alkaline Lake"/></g><g class="map" id="rivers"><path d="M952.665051,427.662950L950.532690,427.567171L945.477571,425.534495L946.422511,421.200891L949.578239,415.605486L951.184096,409.827488L949.915067,404.632744L949.924192,404.617540 M951.224055,402.451840L951.673851,401.702436L951.679343,401.697322 M954.262218,399.286201L954.756081,398.338095 M955.495656,396.913226L956.672036,392.942264L956.890392,388.767799L958.108533,383.041734L958.521832,375.896405L959.753603,371.230312L959.802161,369.217476L958.695050,365.652690L954.987880,359.977922L954.785886,357.131728L955.137282,356.655787 M961.466570,352.572855L961.770846,346.541652L963.395238,343.229213L962.689619,341.668884L955.131049,336.505144L953.341553,333.371422L952.464247,328.005335L950.894769,327.475885L943.931549,330.043058L941.374309,329.376240L938.462420,325.126883L935.213495,325.577766L933.436233,328.082229 M932.118269,329.939464L932.106563,329.955960L927.178889,326.733828L925.064473,324.597376L924.064010,321.429093L924.555646,315.527795L924.081303,313.325777L921.591913,307.924375L921.758815,303.905369L923.634994,297.204574L922.105974,292.608405L922.111302,292.600654 M924.399700,289.257911L924.682395,287.048197L924.690577,287.043167 M931.712263,277.827787L932.308900,276.278496L932.934348,269.441742L934.054775,265.690673L934.058094,265.682852 M934.834980,263.852099L936.745207,259.350603L938.355474,254.176152 M953.483814,234.963540L955.083869,231.782329 M959.219055,223.557323L961.599822,217.305902L962.359143,214.016633L963.134261,205.858141L963.083686,202.210243L961.443720,199.540312L961.048235,197.591177L962.143728,193.871161L973.541268,173.050339L975.553060,166.238656L976.955660,155.464811L979.294909,149.517636L979.149765,142.302492L979.367667,138.598880L980.682963,135.369446L980.698156,135.348236 M981.064414,134.836936L984.466521,130.087563L985.824386,124.184706L987.542246,121.585313 M990.962798,116.390410L991.578459,110.990855L993.391300,105.039451L993.402495,105.022898 M997.878890,98.085333L998.615355,96.656543L999.321506,93.348633L998.942833,89.695269L997.756255,86.207647L992.968168,78.110758L990.263282,71.191441L988.476396,67.875890L984.979440,64.548699L979.922632,63.837647L972.722418,59.855704L968.839436,56.087608L960.203900,54.654341L957.546041,49.875460L949.933479,42.817133L945.774460,33.306111L944.380480,28.034091L944.041672,27.260878 " class="River"/><path d="M353.662050,699.980109L356.429620,701.569589L357.858433,704.807466L357.543053,707.996221L352.789606,710.709693L351.641557,713.717420L350.270564,720.108419L345.906794,723.358078L340.246572,721.281827L334.264722,717.447596L328.919128,715.426645L324.219645,718.075257L317.562471,730.529307L313.181248,735.050871L307.070500,737.286480L304.456083,739.290432L302.775492,743.335153 M286.318345,743.306491L285.686892,743.261154L285.532550,743.305123 " class="River"/><path d="M472.723950,672.580261L466.652068,672.680047L459.974360,671.599159L454.619133,667.436468L451.210901,665.925653L441.513764,662.981300L431.011784,662.035330L424.480192,660.227099L400.635012,660.854045L384.580916,657.169980L380.703954,654.356914L379.117972,648.091845L378.008993,646.996552L371.124096,643.985612L367.494969,637.579268L363.893175,637.237637L361.824220,638.732858L355.785583,638.024927L353.170237,638.983135L346.207516,644.961149L342.183950,651.235990L336.554927,657.801028L335.093737,660.729282 " class="River"/><path d="M316.559384,496.058424L312.253079,495.056660L308.227475,492.377497L300.778066,485.040518L296.373835,481.318473L294.921007,480.548440L287.982613,479.600733L280.984729,479.961808L275.051984,478.014144L271.294417,470.134860L270.383282,462.415877L270.600847,458.303325L273.481681,451.836195L274.427627,447.832533L274.376217,443.746210L273.058852,440.236997L271.195568,438.572832L265.378274,435.787260L263.208357,435.306861L263.111630,434.069671L260.737786,428.320853L259.571821,426.544404L252.681813,420.275994L247.756381,418.295646L243.064810,413.087101L240.579543,410.907410L232.337754,407.521569L227.493054,406.320894L225.312851,404.381750L214.512354,390.825895L211.896250,388.594810L206.063284,388.240891L202.931477,387.672717L194.853180,382.693412L190.677171,378.226442L189.958631,376.404231L191.544142,372.221553L190.221981,368.429151L189.246330,363.047961L188.180825,360.125947L186.530411,358.831920L184.506545,346.765782L180.755579,340.913019L180.354135,337.771291L176.929898,332.646895L177.911604,328.777151L176.221232,327.559168L177.291785,326.137222L179.935324,315.205957L180.112740,307.583940L178.314622,298.847286L175.363301,294.710468L175.445869,292.044553L181.006099,290.348487L183.021280,285.673678L183.155527,283.164818L186.248145,281.020971L191.813403,280.805350L194.637068,279.814956L196.540035,277.973842L196.442912,275.092231L194.592211,273.491623L189.154322,271.142994L188.047349,268.426742L188.586962,264.927287L189.937505,262.732134L194.171150,259.554293L189.051249,257.423075L190.840799,254.735440L194.642601,252.775370L195.123308,250.988920L190.917500,248.663272L185.530654,246.648280L184.464227,244.615268L185.867768,241.340688L189.255799,240.294741L190.146155,236.835568L194.526729,230.701637L201.939246,225.467136L203.046665,223.644805L202.253555,221.801788L198.360445,218.217878L197.164507,215.332072L197.141161,211.905138L199.840602,203.326692L201.821080,201.336797L206.794707,198.958807L208.409877,196.260190L206.000577,190.776381L206.887620,188.134561L205.665780,184.603755L202.386415,182.415448L200.951697,180.566346L201.846810,179.808597L207.383624,177.564727L209.738409,170.617768L212.239068,170.152375L217.917076,172.402399L223.632121,172.695614L239.941899,166.508634L246.119122,166.252852L248.274046,164.881285L250.190966,158.839741L254.832812,154.974194L255.974253,152.202932L255.174841,148.426205L251.121405,143.486713L250.200253,139.702385L250.745860,132.987184L250.360694,129.668470L248.624597,125.929684L238.340242,116.850121L235.232574,111.084253L238.441778,105.394175 " class="River"/><path d="M307.562663,555.243168L305.436880,552.674444L297.684053,552.719636L290.158774,553.134983L287.950166,556.624176L281.201717,562.018248L279.092226,567.347645L278.761196,575.148754L277.018329,578.698734L274.839972,581.530626L271.931423,583.168333L266.909044,590.043046L266.684159,595.367509L267.598832,601.008436L266.828089,609.895769L264.926233,612.094011L251.561059,619.046929L248.068038,619.524954L245.528182,621.154980L241.797777,626.234249L233.937252,626.127023L228.632182,627.855020L226.776884,629.577659L225.467828,632.217351L222.436497,644.249935L221.326690,653.370181L217.470050,661.512102L215.752881,663.521243L207.723274,662.881193L201.979302,663.703211L198.122949,665.244742L190.395417,664.353532L182.580028,667.946202L180.567707,665.240944L178.921053,664.588501L176.029569,665.774629L173.139920,665.844068L160.990584,664.027006L144.349665,664.076281L139.681994,662.379687L139.060336,654.231619L139.558820,648.942489L138.698971,646.608791L136.657096,644.436130L132.112548,643.161339L126.115881,640.682083L125.200907,639.101741L126.574027,633.298109L126.484964,630.284760L125.189566,625.740760L121.888749,624.181611L118.628387,624.375771L115.336612,625.218632L109.330386,624.771087L108.328614,623.009749L107.314713,618.935539L105.717699,617.924275L98.898599,615.754840L91.275720,611.085966L85.924225,613.164251L85.234077,615.254947L81.750063,616.194778L82.159522,618.177772L75.689221,620.589282L71.533536,623.282303L68.103264,626.854478L65.944819,633.115698L66.781611,637.843745L66.741998,640.061106L65.616472,641.839724L60.688510,639.397261L57.483431,640.390611L55.145257,643.017349 M55.139600,643.038382L48.841002,650.636814L46.437202,650.864634L37.871931,649.619126L35.484413,650.077596L32.101767,653.936352L25.560141,656.545200L23.177172,659.435176L17.316439,664.422114 " class="River"/><path d="M690.578127,39.421346L685.741470,45.697758L679.978927,48.611321L650.102236,50.044720L633.542425,53.808567L625.161319,53.648220L621.989603,54.106820L620.042817,55.277508 M617.948641,58.128008L616.705913,59.822121L611.775930,64.109518L579.060895,70.839296L561.539835,78.780758L555.882643,79.900988L553.713979,81.437963L550.090941,85.275247L547.461844,87.262190 M546.982185,87.624693L546.980674,87.625834L543.647248,89.242961L543.466039,89.241656 M535.552907,89.184656L535.045089,89.180998L530.339469,92.169587L526.213038,93.584691L519.919612,92.536000L514.529684,94.509709L496.112471,91.217427L494.841107,91.557888L490.399976,96.100029L467.549676,105.643188L462.368469,107.262380L444.796423,105.544015L434.008286,110.686238L431.310059,111.056395L429.108558,109.419081L425.167864,100.177347L422.686947,98.116116L416.883579,96.107444L380.467759,92.783586L362.526062,96.268297L353.355607,94.317290L349.919242,95.017043L344.861392,97.934301L336.507190,105.057938L331.613558,108.153898L309.778649,116.611497 M309.768690,116.625690L300.630322,119.420980L296.167278,121.437216L286.323955,117.779303L275.996390,117.568246L272.344855,115.445452L266.107241,113.714436L262.151242,111.629540L260.332216,111.542165L255.391784,112.892512L245.846448,110.853774L239.950435,106.767705L237.874659,104.325460L236.767395,101.414666L236.027055,97.499034L235.491642,90.683300L236.308532,83.488574L235.838230,81.754250L233.117963,76.917565L233.065360,72.938439L233.918667,66.201193L231.735545,60.094138L230.832073,52.204539L230.134072,49.307331L224.921996,43.461040L223.679191,36.797501L222.113635,32.902034L220.014380,29.313802L217.813497,26.617038L214.765688,24.082245L211.034025,21.703169L207.090117,19.958184L203.410078,19.248345L195.956144,13.356848L193.611423,12.686776L185.979593,14.043102L183.591369,15.186647 " class="River"/><path d="M957.559819,49.865335L957.546041,49.875460 " class="River"/><path d="M564.633769,257.417446L559.805546,261.733969L554.963648,262.956685L547.062858,260.137685L541.523070,262.898134L538.896014,263.517095L535.578827,262.579064L530.733086,258.991823L528.917966,256.121927L528.589968,252.574191L530.063485,246.671814L529.758371,244.204347L527.629971,241.859735L520.767327,239.652228L519.167572,237.210006L519.396185,229.812836L516.838413,225.171415L516.270335,221.969654L516.826402,210.018621L514.479125,204.150834L515.044571,200.707685L517.742950,199.170691L519.165639,189.237991L518.553379,185.846590L516.841358,183.172665L512.317889,180.629676L510.294592,178.756258L509.071603,175.645858L509.136792,172.462098L510.259132,165.799752L510.236772,162.284265L509.202558,151.778029L509.637906,145.826465L511.519522,140.040634L514.518340,135.448275L518.358254,133.096942L524.865872,133.609705L526.729839,132.018276L527.560551,129.190884L528.756750,127.591275L528.652482,123.051047L526.749874,118.050225L524.050716,113.526285L521.538285,110.374876L503.009292,96.128564L498.803537,91.774820 M760.827101,339.399682L760.592310,335.677296L756.564139,327.040734L755.633310,323.994224L755.319477,315.576199L754.590488,312.179864L750.472326,307.631115L744.705274,305.556719L738.560832,305.524759L727.375630,309.351835L680.758150,313.131810L672.317577,310.307617L652.441232,308.814306L645.902404,307.082792L641.173902,303.832388L634.887558,302.660693L628.139672,299.765361L626.400497,298.518319L625.037981,296.371271L622.609902,287.022383L623.094990,283.248803L621.093274,268.642657L621.711182,259.905886L621.178583,258.117013L616.118487,250.244347L613.963418,248.090195L608.585848,246.326079L602.399773,241.938271L599.375917,242.618728L596.628062,244.548537L589.070323,244.517131L581.111514,247.944271L574.709426,248.085774L571.493240,249.338741L564.120079,257.813682 " class="River"/></g>
<g class="map" id="roads"><path d="M154.876972,540.711522L153.134955,538.866623L155.432002,532.549642L156.757902,516.527088L159.320255,506.575715L158.306947,500.198962L160.995172,480.852746L162.127425,478.446418L164.813664,474.851732L165.969106,470.626527L174.207499,461.958833L174.496578,456.506292L176.551234,450.168805L176.804921,447.443554L175.755298,443.790066L176.877772,441.683328L181.534411,437.199065L187.871759,438.496295L190.729902,437.623133L196.730357,429.811778L200.361974,417.721461L202.245614,405.001176L202.130222,395.290463L197.199091,387.343565L197.038711,382.182873 " class="Interstate"/><path d="M667.795798,736.623534L665.030539,736.654617L660.061342,734.741977L654.900392,734.033672L653.752481,732.875583L652.950753,727.802646L633.363395,722.193519L628.874369,721.446020L625.307393,721.866723L621.027136,720.507542L617.850266,718.509332L615.092989,715.294348L612.288341,709.975774L609.567635,708.259226L590.321082,707.046134L581.291101,702.799097L575.223005,701.166383L570.338114,702.805331L555.788988,701.989887L545.653981,698.034840L542.710983,696.001095 " class="State"/><path d="M699.890684,459.691060L709.487607,459.611149L731.435076,481.085514L734.129786,483.086589L756.841280,483.288496L759.838733,487.383889L759.580248,491.930109L761.400170,510.583162L773.739340,518.461408L795.740967,527.047322L805.873834,539.209365L810.380639,542.295608L814.785431,548.099315L825.823857,555.354503L831.677303,564.082409L856.822777,592.497115 " class="State"/><path d="M197.701720,112.166369L191.825927,107.556194L187.608704,105.992060L180.084918,98.933778L177.378936,95.871069L175.967416,91.311030L173.044520,88.850535L168.226053,86.060854L164.683652,82.984590L160.437727,84.134886L155.156037,84.057286L147.863675,78.497935L146.003635,76.350338L145.826784,74.531847L142.087290,71.446289L136.881008,68.032999L133.923680,68.286124L132.522142,64.632040L131.487243,63.706899L120.191071,59.878568L114.275929,60.677327L106.929129,59.630527L101.000134,61.026560L98.315441,58.855823L97.119507,56.109988L94.843218,54.551783 " class="Federal"/><path d="M90.534296,189.227030L91.224160,187.119467L95.815798,182.365900L100.939558,172.770742L104.449795,168.294772L102.909897,160.988943L105.537821,157.707676L106.935335,152.280107L103.157324,140.689764L103.343831,132.513281L102.947277,131.293559L99.002129,127.578632L97.356020,125.424585L96.170535,121.765537L97.915444,119.681324L97.732215,118.466134L93.467391,119.589349L91.627414,116.825152L91.270327,114.092184L92.286253,107.149185L94.080819,102.947904L94.613432,98.417911L98.402921,99.101013L100.770599,97.332487L99.355970,94.579600L96.238357,92.397350 " class="Federal"/><path d="M957.055124,503.212635L956.117119,504.361480 " class="Federal"/><path d="M431.936521,347.009045L443.901070,348.381946L448.939291,351.655396L452.202119,351.915293L460.223366,350.589564L461.914221,347.226670L470.729923,341.328670L491.958069,339.159915L498.061268,340.872490L501.308551,340.509894L503.655218,338.342264L510.408892,328.503679L518.817956,315.593366L529.221682,306.276662L532.489780,297.407808L534.405547,296.153166L539.771765,294.823013L544.608632,289.254122L547.167172,287.982828L550.844474,288.505689L581.547669,300.493545L590.384260,300.258882L595.836162,294.650354L599.893366,293.324708L608.186537,297.032933L617.954744,299.477029L622.869361,298.116663L626.703710,303.762113L638.079464,309.168784L665.999174,312.789593L674.087092,316.144055L687.575111,313.837974 " class="State"/><path d="M326.941107,322.775405L323.037499,322.778907L321.086459,324.298119L315.013078,326.424646L307.854376,325.814304L303.730183,327.935423L300.478289,326.109395L297.007332,326.103534L293.974145,324.275826L279.874223,324.842814L275.532769,325.737281L265.764626,327.211717L250.167664,323.783203L235.409345,325.498428L232.612472,322.743644L229.200412,316.036332L224.288669,308.100232L222.568138,306.870307L218.037849,305.309944L216.537986,303.777569L213.622449,292.516654L210.457114,285.198980L208.955241,284.272732L196.429736,284.437890 " class="Federal"/><path d="M215.828425,683.171840L219.512262,669.651832L228.689357,667.933263L234.081175,663.761625L237.892895,661.683680L242.109277,666.541273L248.804888,668.400140L260.628247,674.203733L267.333799,675.446304L301.787372,674.356082L309.173723,666.828896L315.433836,665.323931L332.223650,683.693069L340.753669,695.420185L351.088245,705.321049L354.466294,710.122642 " class="State"/><path d="M707.157886,313.704282L692.190290,316.394963L689.598520,316.188153L687.834035,315.040882L688.402256,312.898177L692.657533,311.527979L695.983962,308.372497L697.555668,304.373169L697.634422,300.733164L696.877102,297.730795L692.404881,293.048292L687.743273,288.976579L684.717915,288.480598L682.578294,282.798682L682.198727,278.265541L684.053178,270.317830L687.017829,263.542383L686.961553,262.028973L690.264289,247.361250L690.248523,241.300774L691.281207,240.353981L694.136712,242.370566L695.987654,240.484063L697.626307,233.150904L697.698975,224.058241L701.506647,217.857254L705.216386,214.688667L703.867558,212.921709L700.452049,212.746293L698.702454,211.599365L700.023765,207.309241L698.685286,200.391472L699.414923,197.335455L699.834940,191.867880L702.436041,187.834240L702.689438,183.584904L702.082056,179.064890L700.069211,171.265986L699.938262,162.792924L696.503460,161.707208L695.372518,159.931633L694.930204,154.195421L696.076935,151.126726L696.466149,145.058645L695.054648,136.332324L696.632090,133.551834L697.873194,132.901752L712.398523,131.760797L717.986464,124.288494L720.065551,118.764356L720.117563,115.132815L717.238278,107.076576L717.012780,97.106682 " class="Federal"/><path d="M923.851951,379.088241L916.658968,365.629786L902.899137,357.087812L888.537143,337.368343L873.849772,334.876359L844.351561,327.710083L814.165287,324.114462L812.536959,321.470940L811.502799,313.348715L809.618456,309.808777L804.758023,306.716083L799.728272,304.537041L795.155892,298.397215L789.204581,294.741726L785.832432,291.265403L770.068898,283.505393L751.725357,290.065991L742.427567,303.488799L716.847867,313.929981L706.252370,312.527105 " class="State"/><path d="M542.924125,708.027823L542.982475,711.334047L545.097538,716.993953L548.446325,728.930507L549.905896,740.381946 " class="Federal"/><path d="M431.936521,347.009045L430.288832,335.493240L430.862047,328.505059L428.423770,323.675503L427.737204,320.343927L428.060733,310.322785L429.501436,303.628424L435.968739,283.519743L443.592425,271.893160L448.417658,261.815898L450.119998,260.276297L455.274618,259.297322L459.711699,253.469969L462.221463,248.578980L460.779540,238.281428L452.555328,218.669670L453.181383,217.447787L451.818647,212.004444L445.154720,194.493761L441.664810,189.379624L436.976778,190.648141L436.094824,188.535000L435.820147,183.685119L436.628749,180.036298L433.615968,178.250763L431.697628,178.575356L429.735558,175.260703L427.579141,173.464190L428.827430,170.721532L433.461821,165.818999L433.961120,154.595023L433.470533,149.446781L435.518197,143.058172L436.692622,135.164592L439.435867,133.617759L439.788146,128.158981L438.882214,123.927353L436.919856,120.010998L433.026612,114.298232 " class="Federal"/><path d="M542.710983,696.001095L541.556303,693.922940L541.524320,692.118202L542.773456,686.971482L543.645106,685.746208L546.961420,683.858467L548.050010,682.326249L547.939371,676.307387L547.220290,673.615006L548.285477,670.878057L547.950996,664.861935L548.741532,659.419098L550.444449,655.157821L552.602619,651.486975L560.221409,642.549872L560.828846,639.518978L560.642706,630.174899L562.286609,623.495515L563.779757,620.439323L567.897614,615.502471L571.256868,606.358047L579.052629,597.691993L584.802086,587.264053L583.043353,577.949701L584.875638,570.949139L588.769125,538.795614L593.052476,533.531721L596.964341,531.301123L596.876124,527.673964L595.731821,525.892247L598.957815,522.772980L617.102078,509.819875L625.529855,496.542014L640.193525,480.021855L643.830944,469.607181 " class="Federal"/><path d="M355.781269,700.185060L362.080063,706.476787L374.443503,713.026988L378.258832,713.302996L381.161580,710.575223L381.152408,708.769894L380.010011,704.564691L380.226639,703.058308L382.686149,701.836999L388.517084,702.395313L391.429096,702.071138L399.654294,691.764834L405.455134,688.699552L407.211296,683.863550L407.632591,680.244552L409.616847,676.308170L417.166762,669.599931L421.837210,666.835714L426.742065,665.573340L432.100800,665.207047L438.590477,666.330030L443.973106,668.367744L453.405024,672.754131L461.749047,679.255557L473.640693,682.676598L480.605870,685.266547L493.267581,695.269731L495.546938,698.235518L498.997703,704.787642L501.042657,706.852853L503.066241,707.413873L510.001268,706.970627L522.144574,710.317683L528.620383,709.269189L533.736535,707.346002L542.008199,706.847294L542.924125,708.027823 " class="State"/><path d="M417.974917,386.009378L417.782990,388.742521L413.249477,393.946500L411.528011,396.694171L410.306295,406.718959L409.240079,409.763102L403.623714,418.005840L400.392115,424.404605L397.646622,437.774168L394.209316,447.507061L377.689029,474.912569L371.339580,480.709765L368.066978,486.789422L362.196632,504.999663L358.261893,514.408205L358.938858,518.342629L356.312769,525.016422L355.661499,528.349971L356.559331,532.282350L351.519410,546.832269L349.603681,573.462921L349.055096,615.777251L347.515492,623.030200L343.523364,630.892312L342.638947,634.215193L343.101602,641.758606L342.675646,651.112376L343.131485,655.333716L345.151641,659.549604 " class="Federal"/><path d="M717.012780,97.106682L718.928852,97.638962L723.506849,96.557562L728.164412,97.285030L737.419384,106.596387L743.465845,109.982444L757.204473,107.000447L760.076835,109.903374L759.317378,115.981774L765.844455,124.776474L774.283372,138.020431L778.742394,142.966109L783.084478,145.495455L795.123100,150.092641L803.877409,148.175859L807.723735,149.205193L810.566745,151.187667L813.101132,155.300674L815.375139,162.449638L815.970674,165.747684L815.366312,170.313299L816.609242,173.882930L822.746065,178.121902L823.474027,179.901037L823.097250,184.759008L826.297803,197.306322L829.457056,205.014922L843.279512,221.861038L845.548869,248.367623L846.069303,250.155924L850.127047,254.481992L864.348396,261.891876L881.637764,266.990075L894.733785,280.461410L897.112750,284.860287L901.120044,287.954066L906.715069,296.394876L910.616722,304.931878L913.013718,316.881853L915.825669,321.247578L921.597339,325.129982L931.357382,338.734866L934.601971,346.691749L936.730486,350.184281L946.188707,358.346238L957.574181,369.994268 " class="Interstate"/><path d="M704.297304,454.674061L745.921629,454.743709L750.608548,452.115523L757.041600,444.263145L766.342360,437.787671L770.519482,428.517440L773.042636,426.584527L779.804850,427.476852L782.554267,425.833464L785.657125,422.357102L788.416457,421.014258L797.063954,420.593522L804.546099,423.248088L816.037032,423.574911L820.927074,426.347774L822.884660,426.548814L825.851435,425.184867L832.659906,418.174785L837.791601,416.995267L847.058587,416.496512L849.918283,417.550112L855.095887,421.800396L859.003509,422.188356L864.391041,417.655428L867.958186,415.640909L874.117556,409.548161L878.165897,404.480190L884.497577,401.998746L889.440531,397.781413L897.969570,396.371728L904.580492,391.443819L907.412736,388.251447L913.602465,387.573994L920.911764,380.176307L923.851951,379.088241 " class="Federal"/><path d="M109.099737,11.918584L106.573204,12.474619L106.537896,13.951497 M106.495972,15.705118L106.450504,17.607020L104.745709,18.782522L96.374590,18.315546L95.102802,18.894055L94.787003,23.116864L96.118232,28.582138L96.057780,39.460393L94.182399,47.281795L94.843218,54.551783 " class="Federal"/><path d="M63.278957,440.851122L62.476738,437.587423L58.053484,430.501530L57.942680,425.951897L56.909339,423.499830L56.995967,419.864418L61.128378,411.179755L62.549839,406.365015L64.900841,389.746680L65.296670,382.174792L63.694723,376.371958L64.606810,374.575136L63.810277,371.522049L65.047354,365.183502L65.908379,347.307925L66.732551,340.047691L68.169169,334.319033L69.339144,321.605623L71.392582,317.104539L71.370108,316.874828 M71.200681,315.143053L70.351242,306.460645L72.916050,289.532086L75.164721,285.641220L74.644868,283.846009 M74.565374,282.296703L75.065350,280.784583 " class="Federal"/><path d="M9.593206,603.339884L11.035454,598.859490L11.355982,594.945900L13.948435,588.688990L13.795975,585.966717L16.256753,576.078546L19.278945,570.131470L20.739267,564.738314L20.692926,549.021137L21.673370,545.121240L23.048332,543.046926L24.286087,537.641934L30.380328,531.776256L33.689461,531.571329L35.039592,530.400924L35.318430,527.989200L37.841317,523.827143L38.339656,521.421199L42.208942,516.085340L45.535887,514.968528 " class="Federal"/><path d="M106.371088,12.168736L105.952491,11.010301 " class="Federal"/><path d="M230.878352,52.445487L228.004949,49.794577L225.069488,43.581210 M224.888469,43.198053L224.705688,42.811170L223.432855,36.119221 " class="Interstate"/><path d="M246.959439,111.056565L246.702504,112.292737 " class="Interstate"/><path d="M259.133700,111.842806L260.041871,116.915373 " class="Interstate"/><path d="M246.702504,112.292737L245.821597,116.528595L246.184420,124.712247L245.295419,129.858259 " class="Interstate"/><path d="M109.099737,11.918584L113.921988,11.706547L115.946716,14.764081L118.851934,16.025018L130.769199,17.441461L144.895871,13.441993L149.704166,14.120145L153.851243,16.599093L156.726218,19.964738L160.448359,23.039943L164.823942,24.914460L171.941094,26.219401L178.893440,24.797670L182.850486,26.962162L186.836290,27.312217L188.293362,28.236090L200.485464,27.767179L212.439539,29.700579L215.995124,31.245166L218.070361,33.682494L218.651320,38.222925L221.120906,43.385381L222.486609,53.680914L228.914245,64.626337L227.591693,70.365469L226.092537,72.471693L220.262438,84.529832L220.767144,96.948924L221.975489,103.016800L237.912055,123.139824L245.295419,129.858259 " class="Federal"/><path d="M197.701720,112.166369L231.893769,130.973225L234.651847,131.600770L245.295419,129.858259 " class="Federal"/><path d="M260.041871,116.915373L259.983263,126.611804 " class="Interstate"/><path d="M259.983263,126.611804L259.977780,127.520942 " class="Interstate"/><path d="M245.295419,129.858259L252.116398,127.173741L257.209137,128.415236L259.977780,127.520942 " class="Interstate"/><path d="M245.295419,129.858259L243.760477,135.909632L236.682453,142.830933L236.238694,144.949600L236.831344,150.410948L236.579943,154.956889 " class="Interstate"/><path d="M259.977780,127.520942L259.892131,141.766184L258.992810,149.643598L258.120149,152.973975L255.101387,158.414890L252.319211,159.914670L246.796835,156.847793L236.579943,154.956889 " class="Interstate"/><path d="M650.568635,50.009478L650.665475,51.023520L652.222474,53.392399L651.673259,55.524753 " class="Interstate"/><path d="M432.810663,113.997657L427.947033,115.261565L423.884313,112.576904L424.452538,106.815715L422.513231,104.109190L419.327904,103.534658L412.935631,100.262859L407.630629,99.400969L397.889083,99.782728L393.011313,99.213172L383.022922,95.040337L377.743039,97.192001L374.777472,97.208680L360.599118,100.305855L351.057918,99.129842L346.400128,100.355642L336.035278,109.467812L317.366913,115.849177L308.659502,119.785955L300.792671,124.929356 " class="Interstate"/><path d="M433.238714,114.295904L438.883603,108.356040 M442.168414,106.789723L444.580904,106.289745L449.454034,106.230040L457.942177,107.029346L460.084497,108.515063L461.562865,108.192150L462.725855,107.137895 " class="Interstate"/><path d="M652.103698,55.813530L659.739198,57.990180L671.039961,57.321388L675.365031,55.365067L690.028756,45.200051L693.389262,40.553308L694.588674,39.272059 " class="Federal"/><path d="M651.684581,55.826589L651.446207,60.669369L648.899226,65.584499L645.740359,76.867858 " class="Interstate"/><path d="M503.724558,92.560241L512.165719,97.088388L515.779387,97.929811L523.171251,97.486583L532.405620,94.579506L535.151790,94.523672L537.438555,92.963207L540.613693,93.199793L549.631028,90.585691L552.061606,86.598275L554.935274,83.508685L563.522080,81.196192L572.859264,75.834100L584.770362,72.518270L608.211918,68.278202L613.886145,68.122628L622.613350,71.203424L645.707326,75.961778 " class="Interstate"/><path d="M645.740359,76.867858L664.373222,80.209014L682.215940,84.753020L699.694939,90.488360L717.012780,97.106682 " class="Interstate"/><path d="M196.429736,284.437890L196.677982,281.708844L198.291987,272.924687L197.709684,267.454348L198.872897,260.182953L201.103846,253.530607L203.533456,248.094140L204.240658,242.638786L205.835012,215.647611L209.345730,208.402078L229.985753,177.042597L232.607580,170.391365L233.119472,160.691413L236.579943,154.956889 " class="Interstate"/><path d="M196.429736,284.437890L193.846549,283.800345L191.036642,284.070031L184.377082,281.558396L180.041041,283.019503L172.138670,292.321060L167.536690,296.808213L164.052656,298.578138L158.416014,299.706779L155.827848,299.362976L148.015203,288.311188L145.019778,286.744081L136.320220,290.540405L135.068892,288.090440L129.642086,289.813897L124.125060,284.856303L119.591274,285.073769L114.004064,284.054641L112.692375,284.939031L111.011020,282.781330L109.280686,283.049983L104.477330,275.669350L102.102275,275.923507L102.931412,277.457937L99.048509,277.679898L97.620303,274.008474L92.225597,274.499002L92.615584,276.327999L90.657646,277.195376L86.908021,281.056546L82.767314,283.086861L82.142306,282.162376L75.058091,281.087804 " class="Federal"/><path d="M415.929365,377.229102L418.270199,371.439019L422.971216,362.588200L431.936521,347.009045 " class="Federal"/><path d="M415.929365,377.229102L411.924526,368.163145L397.668383,354.933780L384.330595,344.104961L378.413165,335.643149L364.662354,320.235486L352.093690,321.806059L338.646396,320.327077L337.125578,318.812345L334.524221,318.817449L331.707474,319.733043L326.941107,322.775405 " class="Federal"/><path d="M48.294868,509.900543L49.230615,507.505093L49.081667,504.474233L47.359779,502.913259L46.689313,494.115787L46.883430,491.815088 M46.443558,487.783908L45.816356,484.705510L47.524971,477.484828L48.093633,472.048837L51.056479,467.283175L53.715464,456.751613L52.467550,453.991339L52.532466,451.266132L53.457575,449.169850L55.432566,448.919402L57.894497,446.560140L62.541547,444.256622L63.166673,443.270917 " class="Federal"/><path d="M415.929365,377.229102L417.974917,386.009378 " class="Federal"/><path d="M707.887431,321.555346L707.848669,314.889698L706.252370,312.527105 " class="Federal"/><path d="M197.038711,382.182873L197.566116,373.995299L195.281814,364.256313L196.429736,284.437890 " class="Interstate"/><path d="M154.876972,540.711522L152.166186,544.902020L147.477196,548.149177L141.712185,549.256634L135.758285,548.239437L130.622743,551.469364L126.806579,555.024605L121.048503,555.514379L119.038571,556.683089L113.407569,562.613718L107.070813,570.640335L102.601635,572.959845L96.609828,573.730997L91.321960,572.399261L89.004369,566.299281L83.972509,563.458037L76.887757,563.888399L67.039775,559.103106L64.376654,559.638168L63.006107,561.718095L60.180724,559.527076L58.193361,559.473813L56.078933,555.184468L56.814604,551.878697L54.088410,545.454937L50.987381,536.297176L49.287403,533.528033L47.752598,533.182952L45.159259,530.993045L43.689206,527.926658L45.052535,526.149936L46.259225,521.645577L45.535887,514.968528 " class="State"/><path d="M959.228592,367.319852L958.158545,369.050013 " class="Federal"/><path d="M958.158545,369.050013L957.574181,369.994268 " class="Federal"/><path d="M957.574181,369.994268L957.379357,370.309016 " class="Interstate"/><path d="M957.379357,370.309016L959.033407,372.918809 " class="Interstate"/><path d="M923.176787,378.525719L928.158593,379.424867L946.514275,378.262123L948.184874,377.550460L952.534295,371.530508L957.379357,370.309016 " class="Federal"/><path d="M959.033407,372.918809L959.236542,373.199279 " class="Interstate"/><path d="M643.830944,469.607181L624.150711,470.248810L613.446046,471.186659L605.199163,474.160046L602.321554,473.033611L596.264716,467.455020L587.879288,464.965781L584.763402,462.931441L568.576337,463.968551L564.620641,463.463913L560.604875,460.232270L554.734811,452.195448L550.943332,448.953285L521.513574,432.636353L511.587165,427.986662L479.698797,416.434803L469.861747,416.289052L462.192546,414.888437L453.826272,410.154553L443.206786,399.070775L437.217116,390.649524L434.347979,387.649506L429.088747,385.282800L426.030165,384.710029L417.974917,386.009378 " class="Federal"/><path d="M704.297304,454.674061L706.229735,447.635289L705.873216,443.714265L704.211729,439.844761L706.018641,435.534502L705.901844,426.152986L710.501724,415.068257L712.137560,412.277123L714.433732,409.761887L713.026912,401.035743L713.318313,391.331600L714.253884,387.356231L713.947331,384.945206L711.242149,376.268102L707.944134,374.883875L709.198438,367.866050L707.131269,364.614575L706.996505,360.983917L701.991486,354.209327L699.860955,349.139747L700.716144,343.046042L705.559628,339.828574L707.576912,336.113581L707.887431,321.555346 " class="Federal"/><path d="M699.890684,459.691060L704.297304,454.674061 " class="Federal"/><path d="M699.890684,459.691060L696.932754,462.530967L696.931415,468.886333L696.141066,471.338127L691.183092,473.346270L686.599059,473.522019L677.796648,471.734826L672.555643,471.928196L671.653194,471.053184L665.945994,470.351855L643.830944,469.607181 " class="Federal"/><path d="M43.029641,739.317539L40.887056,733.168855L37.823808,729.773773L29.197568,725.004634L26.377667,721.011689L25.692484,711.675783L23.784495,707.107399L23.886978,702.601393L18.894784,686.804336L18.317862,682.874660L19.792347,667.571308L18.305882,655.176753L20.041343,647.699878L22.864672,641.158535L21.654387,635.996461L22.413853,632.100979L18.926727,620.230925L15.203000,618.303281L12.502715,610.976990L9.219051,609.362544L9.593206,603.339884 " class="Federal"/><path d="M160.341967,665.842907L156.277226,669.390711L144.645484,670.691740L141.941000,672.449534L139.893289,675.122459L134.713139,678.035570L129.781203,679.143324L122.523146,686.222509L120.350066,696.711956L116.426287,704.451224L116.295616,712.869692L111.156043,726.284706L105.627389,735.474023L106.562445,740.972667 " class="Federal"/><path d="M217.145063,686.499029L230.481565,700.481012L242.308517,709.309733L246.070483,718.664726L249.181551,724.702309L250.299692,725.612354 " class="Interstate"/><path d="M956.117119,504.361480L953.678823,507.237313L952.981870,510.297323L954.675389,513.497974L955.389230,518.571434L952.632122,539.537876L955.512694,552.588024L949.133437,551.213199L943.049467,551.319036L939.506600,554.263442L933.141502,561.606104L927.261946,565.902894L919.731570,567.894353L913.823207,571.883902L900.762721,572.705283L871.263313,587.138500L868.342546,590.321167L865.979493,591.363016L856.822777,592.497115 " class="Federal"/><path d="M342.342375,743.310087L350.022747,726.382982L354.690615,710.121708L356.249495,706.503925 " class="Federal"/><path d="M542.924125,708.027823L542.710983,696.001095 " class="Federal"/><path d="M250.076660,725.310089L250.958339,728.623594L250.263306,732.827216L250.919403,736.438493L249.557230,739.133385L249.548903,743.120084 " class="Interstate"/><path d="M881.152775,725.902653L867.991840,676.002089L867.007360,673.660464L862.838476,669.106620L855.993269,648.487190L855.344282,638.608111L856.822777,592.497115 " class="Federal"/><path d="M345.151641,659.549604L345.159428,662.866346L346.060680,665.878358L350.095185,669.783289L352.568123,674.294826L352.800656,677.307378L352.151061,684.841952L353.059830,689.356463L353.981806,698.085243L355.780328,699.884026L355.567400,703.497133L356.250442,706.804871 " class="Federal"/><path d="M154.660235,540.405296L154.580556,546.153018L155.861165,549.502407L154.935088,552.512162L155.127172,554.632873L158.392503,558.619159L158.585446,560.739494L159.889378,562.575405L162.534063,563.525334L163.174738,565.350065L159.801325,569.226803L157.980951,572.825220L157.944682,575.545558L159.250391,577.380875L163.457941,577.751183L165.212141,579.290470L166.045672,583.535368L167.128208,585.667994L169.779116,586.615638L170.415239,589.043091L167.181275,599.266420L168.484177,601.703438L167.769544,605.619128L165.743482,607.701531L157.501690,609.077654L154.818943,610.240451L153.012637,612.323382L153.170151,617.156975L152.693031,619.563910L150.662788,621.641769L150.411688,623.750291L151.705955,626.791025L150.532181,631.297218L151.620984,633.126680L150.463080,636.425319L150.426578,639.139809L152.391361,642.190602L153.461810,645.526907L152.689966,653.353939L153.315664,656.681167L156.396400,660.049987L159.270949,662.208375L160.565236,665.846609L164.800236,666.518570L168.575143,668.386830L173.262111,668.760700L175.956026,667.595871L177.742888,667.622379L179.940605,670.969401L182.165295,671.905418L188.235564,668.373907L191.145925,667.810333L195.158640,668.767017L199.605129,671.234162L208.080175,673.444939L214.959929,679.848877L217.145063,686.499029 " class="Interstate"/><path d="M190.479402,383.923559L189.847142,382.094876L189.890395,378.453867 " class="Other"/><path d="M180.427223,385.916561L181.620683,377.739487L197.069294,379.452024 " class="State"/><path d="M181.830806,378.349223L178.009225,370.710715L177.544110,356.440436L175.898882,349.437109L171.626604,344.217248L166.478230,339.893235L166.861391,328.365253L169.474894,312.316325L170.159970,294.721279 " class="State"/><path d="M45.535887,514.968528L46.642426,514.696785L48.287784,510.202994 " class="Federal"/><path d="M198.772196,383.113705L207.699892,384.124629L217.052151,386.649172L223.820799,385.803357L230.395137,381.916398L238.917819,379.254055L249.411581,374.472962L252.923274,370.246269L255.760055,369.353060L258.149206,370.581208L265.766123,372.139778L273.598635,374.907603L279.923988,373.414616L285.168009,368.575411L290.834826,367.073402L294.761705,363.743347L322.847865,363.459544L324.151303,359.815830L322.842620,355.566876L323.492850,352.227097L323.489748,347.976993L325.442126,343.421560L328.479907,339.775155L328.688863,333.095807L327.815964,329.150079L327.374501,322.471319 " class="State"/><path d="M75.065350,280.784583L74.274023,268.933918L74.946004,258.938419L74.004946,253.455847L73.908834,248.599976L78.626877,239.912622L78.492974,236.572885L79.394171,234.773567L81.352004,233.604830L81.631511,230.881246L80.375274,229.639480L82.799922,217.865476L86.508925,214.915143L87.407393,213.115227L87.607588,204.628133L84.275999,200.915728L84.319697,199.097302L86.842165,191.875675L90.541423,188.923981 " class="Federal"/><path d="M96.231065,92.699881L90.023514,87.425800L90.498127,85.317379L90.467757,78.054503L91.935345,69.916644L91.131871,59.918605L92.251813,57.220097L95.241421,55.467073 " class="Federal"/><path d="M231.896510,130.670181L231.021381,133.390883L231.607148,139.154368L234.117745,144.024032L236.656780,145.862180 " class="State"/><path d="M301.005665,124.626604L289.949010,127.029901L281.665279,125.491241L275.496006,126.984935L262.113667,125.713613L259.983263,126.611804 " class="Interstate"/><path d="M64.301902,396.706362L73.744467,393.301546L79.708288,389.502090L82.774591,388.664385L93.431870,389.211169L95.210855,387.430779L100.416058,388.454550L108.618219,392.268376L121.236081,393.432787L125.599415,393.213686L128.071100,389.013488L136.420818,384.919742L139.312509,381.330480L143.874969,382.016818L151.876249,385.792208L189.142769,386.334311L190.482982,383.620150L198.772196,383.113705 " class="State"/><path d="M433.006836,113.022805L432.240305,110.917431 " class="Federal"/><path d="M175.999990,112.488445L179.246490,115.138336L179.763398,117.231352L182.975441,122.488319L186.758192,126.447585L190.948931,127.541043L191.479976,128.851632 " class="State"/><path d="M195.320379,128.895824L194.405977,128.885428 " class="State"/><path d="M191.479976,128.851632L194.405977,128.885428 " class="State"/><path d="M208.851900,129.301367L204.830866,128.999290 " class="State"/><path d="M194.405977,128.885428L191.479976,128.851632 " class="State"/><path d="M200.258357,128.950607L196.417677,128.908196 " class="State"/><path d="M205.379586,129.005000L204.830866,128.999290 " class="State"/><path d="M401.110863,100.285682L404.246654,103.910835L405.898980,104.940142L408.482515,107.786644L410.498322,108.551368L418.358621,109.522124L421.680261,112.619322L422.255155,114.960899L424.279493,116.244640L433.215992,115.106941 " class="Federal"/><path d="M313.623545,554.204800L313.050084,559.935407L313.621892,562.800597L313.239643,565.404881L311.328988,570.351956L309.036178,572.694037L309.225707,575.297809 " class="Other"/><path d="M309.225707,575.297809L306.358315,577.638490L306.928391,581.804151L308.264697,584.408238L309.411640,584.669364L310.939612,588.314003L309.981212,592.737430L306.729468,591.954210 " class="Other"/><path d="M161.618760,531.345696L166.004171,530.372361L168.458535,531.713069L170.362865,531.481349L174.077582,523.196726L180.433353,515.988847L185.750108,516.061643L188.207125,517.137097L192.603415,514.586906L194.904146,512.530076L199.083780,512.320528L200.238813,510.769916L201.741915,512.352141L205.711704,514.223132L208.346000,516.859899L210.618367,517.666965L214.234975,516.923397L215.560235,517.458628L220.135265,515.679800L221.093735,514.646277L231.959820,509.531153L235.001715,509.035393L240.294345,512.728762L241.985383,515.610037L244.257270,516.930766L250.140768,518.276081L251.662699,518.025544L252.985941,519.337859L256.598837,519.099888L257.934672,518.065034L259.452624,518.595450L261.743395,516.522590L264.405188,516.276326L268.007297,518.380704L268.950231,520.210430L271.226509,521.524791L271.598741,523.612195L275.210163,524.149435L281.094861,527.822056L287.188047,525.756515L289.658507,526.806291L294.986102,526.297867L298.409863,526.565341L302.026555,524.746297L306.781747,524.751929L308.112678,525.535195L310.584121,528.665147L311.533331,534.400189L311.150574,539.351934L311.911748,541.176513L311.147711,546.387798L312.098678,552.120187L313.623545,554.204800L324.874399,554.200859L351.002383,555.443468 " class="State"/><path d="M258.134620,148.994058L263.639362,148.500604L269.691261,148.528705L271.898131,147.233049L278.866345,147.259664L282.359886,144.661263L286.026487,144.672213 " class="State"/><path d="M255.895604,154.985134L257.691979,161.260360L256.941166,163.866881L258.939652,167.532994L257.422981,175.096704L256.498600,175.874889L255.923835,179.527416L256.470897,180.313929L256.622469,185.537721L255.877879,186.839283L252.684146,196.484032L250.635555,199.605814L243.013855,207.914220L238.736905,212.063110L236.303080,216.224602L231.292435,219.058799 " class="State"/><path d="M202.013515,227.400615L204.436853,225.598156L209.246825,225.126125L215.015621,221.264990L222.773976,221.337308L226.842928,220.850423L229.630120,219.045161L231.477138,219.060298 " class="State"/><path d="M388.697186,456.915291L388.884478,456.652859L398.129833,480.068793L399.101940,483.452574L406.338471,488.084473L407.679929,489.898124L415.291137,493.214795L418.698804,492.657758L423.090857,496.001428L428.272270,502.202566L428.680143,505.066508L431.921806,506.593003L433.838377,508.395267L433.528599,515.178176L432.980200,517.270498L434.360941,522.206808L435.900162,524.012524L436.500349,526.872232L437.850308,528.679759L438.456641,532.060136L440.392037,535.162548L443.123691,541.380457L447.556855,546.270858L455.936409,546.413144L467.731069,545.713397L473.669387,548.483135L476.186698,551.566935L478.349559,556.478613L480.488395,559.566862L482.408148,560.575231L482.822427,562.911264L483.965709,562.891293L485.142635,565.213647L484.678737,572.770614L483.215542,577.220716L480.980367,581.163015L480.079907,585.081522L481.470428,588.959988L481.308240,591.043942L483.099850,596.214882L482.566285,599.085095L485.590398,610.212262L488.507929,613.538961L490.053556,614.550401L496.004359,615.738724L505.957483,615.804142L509.217933,616.257922L514.425313,618.748830L515.037520,621.074548L517.359519,622.584304L518.632630,630.090669L520.991178,633.675846L531.752054,635.513122L533.307083,636.775702L544.146439,642.750049L547.284277,646.566793L549.332159,653.522756L549.577454,656.370650 " class="State"/><path d="M238.975601,628.315408L240.313517,629.105837L241.856053,627.818605L245.115440,628.103433L248.964790,625.792310L251.663605,623.211733L251.671826,621.652115L256.095774,618.821418L260.702366,617.549404L266.095066,611.338700L266.297316,608.739144L267.656848,604.064464L266.531508,598.335680L267.307560,595.737948L269.039789,593.144677L269.818018,589.765623L271.938027,585.351352L275.772121,582.244831L280.932693,582.265084L283.032306,583.313695L288.189845,584.891720L290.671357,586.720474L294.495149,586.990061L299.080379,589.861972L302.715302,589.086951L304.627115,589.870121L305.390359,591.952832L306.538167,591.954025L309.023746,594.298046L310.552728,598.201823L312.657868,599.243432L314.380311,601.845369L316.486398,602.365744L319.167522,604.446210L320.893625,610.687645L322.620052,614.327254L324.729422,615.885674L327.604896,616.142573L329.143768,621.080431L332.214407,622.895380L332.217194,624.974941L334.528187,630.948571L336.643224,633.282993L338.773063,643.150937L343.401473,651.190052 " class="State"/><path d="M219.089736,669.421436L222.586258,665.045474L224.149937,661.686924L224.399503,653.901580L224.032419,651.561215L224.649082,646.113895L223.710058,643.247816L223.551129,638.830397L225.123257,633.909407L224.956439,630.529869L227.260290,630.291884L228.422417,628.743494L231.882142,627.735320L236.093284,629.071182L238.400149,628.310713 " class="State"/><path d="M231.128467,134.198514L228.560747,134.699596L211.749445,131.939105L209.202756,130.609364L208.851900,129.301367 " class="State"/><path d="M196.417677,128.908196L195.320379,128.895824 " class="State"/><path d="M204.830866,128.999290L200.258357,128.950607 " class="State"/><path d="M200.258357,128.950607L196.417677,128.908196 " class="State"/><path d="M205.393284,222.734685L207.084981,220.140136L208.066337,214.925764L212.571594,207.918577L219.469802,200.670978L222.439423,198.608434L229.916978,186.919922L234.568172,181.211867L235.503513,179.391160L239.761608,176.028271L245.303725,172.672453L247.532353,169.553957L246.634473,166.676140L247.393951,163.287126L248.694415,161.206970L252.195535,159.401256L254.419042,156.281850L254.249199,154.192573L250.445176,147.122349L249.380376,142.156981L249.952237,139.028938L249.243762,135.632148L247.252589,132.488267 " class="State"/><path d="M828.887503,203.048170L829.333563,204.588620L829.704207,211.602404L827.078960,217.203288L827.282782,221.100459L833.922378,232.749521L838.795550,238.492604L841.218014,242.796471L841.551958,245.644641L842.829048,245.578677L843.500619,247.888300L846.024949,250.622484 " class="Federal"/><path d="M654.625399,54.919469L656.804101,64.737521L656.941921,68.376270L659.770137,71.409015L664.446904,75.422264L666.214123,79.008533L667.931909,81.294841 " class="Federal"/><path d="M176.278702,230.743842L188.839518,231.427739L192.724680,231.213332L194.563513,232.018755L198.477264,229.451240 " class="State"/><path d="M249.384092,141.635058L254.854029,145.843659L257.965751,146.644099 " class="State"/><path d="M190.658789,176.863905L187.155956,177.604874L185.112543,179.146200L181.233651,180.402682L180.637698,183.528230L179.129081,186.119776 " class="State"/><path d="M722.081669,94.988858L725.275226,93.565239L742.624230,81.696437L745.216897,79.251327L747.037937,75.796639L750.979267,71.475817L754.360121,70.557604L761.670546,65.315335L764.198231,61.830221L765.780846,50.327828L764.946024,48.023975L764.364791,36.490141 " class="State"/><path d="M385.880988,344.608814L389.249659,344.846251L392.234710,343.778754L400.650466,343.711639L403.264165,343.166692L408.873839,343.116613L417.489979,344.601599L421.440589,346.912994L426.311431,347.644828L431.732160,347.322725 " class="State"/><path d="M84.688919,214.222374L88.556022,214.307639L92.719982,217.531177L94.193916,217.562726L98.507716,214.259303L103.682837,213.582805L106.156723,209.977311L110.609864,208.499337L112.635504,208.539049L116.924960,206.010649L118.360650,207.865782L120.928510,208.436383L122.412459,207.941782L130.322993,208.607880L135.496199,207.915263L139.147605,209.805835L142.460101,210.122636L148.241580,206.299903L157.514688,202.788627L162.136784,201.813087L165.865756,198.994660L174.664251,189.455124L178.205554,186.368809 " class="State"/><path d="M183.201597,184.344277L188.719793,184.412582L190.014323,183.905955L197.069535,178.765966L197.446998,177.986927 " class="State"/><path d="M226.211125,249.585793L228.420531,251.172589L235.247244,254.886582L245.052603,257.833126L251.553897,256.307732L256.182024,257.642208L260.062202,260.277300L262.656719,260.813701L264.873760,262.654304L269.326289,262.936727L274.338115,262.696806L279.161329,263.237817L288.815259,262.222301L292.895062,263.538957L294.373727,266.417029L296.784345,267.989916L299.562917,272.176443L301.605291,272.963567L303.464460,271.920532L305.511981,268.002408L309.227296,265.914629L313.867791,270.621024L320.927436,273.233599L322.786274,274.539337L326.130720,274.275180L328.361115,274.795441L331.704652,274.006744L335.812594,284.192918L335.073602,286.808049L332.846812,290.209843L331.173842,291.519357L330.061460,294.657478L328.201169,295.966777L329.135649,298.579390L329.142132,303.545584L327.842585,307.729267L328.031505,309.820082L330.646941,313.214558L332.332829,317.655409L335.880409,318.694560 " class="State"/><path d="M717.779440,95.932980L720.274916,95.057645 " class="State"/><path d="M717.779440,95.932980L716.740614,97.013299 " class="State"/><path d="M201.075883,394.364914L209.668211,399.423438L221.829178,406.076153L226.877775,409.779528L229.692064,410.849138L233.269871,410.618300L234.955839,411.676987L236.067795,414.036788L237.383749,414.308470L244.496925,420.630706L247.696334,421.175572L249.197165,422.230492L250.307234,425.633140L254.632196,427.488972L257.637440,429.596377L261.576546,433.797170L261.364484,438.496420L262.869214,439.549103L264.570345,439.035838L269.097812,439.580561L273.427967,442.472434L280.037011,442.237523L286.263386,443.824852L291.357319,445.927692L297.204938,450.379134L299.654813,454.821808L303.054640,457.176406L304.000278,456.916533L309.859818,459.793466L311.560859,462.404792L313.263134,463.188499L319.505329,461.360912L319.694833,462.404999L326.887626,467.098052L331.811605,469.701390L334.468092,473.611627L336.944842,481.696531L340.932152,485.340228L345.117003,491.068641L345.120383,492.373092L348.735285,496.274758L355.025787,504.859323L359.419487,511.882174 " class="State"/><path d="M102.250985,138.127036L104.255321,138.428078L114.719013,136.544991L118.612530,134.009678L119.886191,134.294107L123.229708,131.746942L127.223002,133.122801L132.178119,132.166285L130.047774,128.999252L131.759213,125.638404L132.029884,121.209531L136.248597,120.238348L137.784309,116.352484L143.095426,115.396754L148.074291,112.607814L151.708875,113.446584L154.099093,112.440014L155.043195,110.628983L158.495601,111.462652L164.059353,106.067444L168.452500,105.085937L172.273517,105.659351L173.335279,107.759494L173.124512,109.581967L176.361048,112.753945L177.634727,113.031282L179.122043,111.224970L186.582564,112.882518L193.698642,113.227043L198.276310,112.235215 " class="State"/><path d="M187.471201,385.317248L190.098436,385.350645 " class="State"/><path d="M209.517953,167.411422L207.313963,167.388958L204.712091,169.972518L200.784728,175.674127L197.446998,177.986927 " class="State"/><path d="M615.930674,70.379732L616.663101,70.619600L629.352186,60.627424L638.451859,57.236493L652.451044,54.727389 " class="Federal"/><path d="M234.705774,143.881705L231.007564,147.506528L230.055135,151.413861L226.183937,153.469866L221.548591,158.389022L220.418426,161.250319L218.558521,163.582796L209.517953,167.411422 " class="State"/><path d="M178.205554,186.368809L180.600737,186.138857L183.201597,184.344277 " class="State"/><path d="M206.000116,234.497567L211.888145,237.432302L216.651195,242.182130L226.211125,249.585793 " class="State"/></g>
<g class="map" id="airports"><circle cx="203.507029941" cy="235.352653339" id="McNary Field" class="Airport" r="10"/><circle cx="255.634386921" cy="117.298536908" id="Portland Int'l" class="Airport" r="10"/></g>
<g class="map" id="cities"><circle cx="205.589305924" cy="385.441172641" class="city" data-lat="44.0519480581" data-lon="-122.978033897" id="Springfield" r="15"/><circle cx="102.478672465" cy="138.657879344" class="city" data-lat="45.4552474152" data-lon="-123.842503094" id="Tillamook" r="15"/><circle cx="956.430901962" cy="369.765523879" class="city" data-lat="44.0266266063" data-lon="-116.961889488" id="Ontario" r="15"/><circle cx="806.625363616" cy="152.135791789" class="city" data-lat="45.3246869091" data-lon="-118.086601198" id="La Grande" r="15"/><circle cx="156.055051309" cy="530.255201777" class="city" data-lat="43.2184330435" data-lon="-123.356098675" id="Roseburg" r="15"/><circle cx="718.922386629" cy="95.2748085843" class="city" data-lat="45.6725984895" data-lon="-118.787488649" id="Pendleton" r="15"/><circle cx="707.781833304" cy="314.733579278" class="city" data-lat="44.416525288" data-lon="-118.95202641" id="John Day" r="15"/><circle cx="157.959403348" cy="665.773783621" class="city" data-lat="42.4395400178" data-lon="-123.327185712" id="Grants Pass" r="15"/><circle cx="168.983999059" cy="294.019375409" class="city" data-lat="44.5723555695" data-lon="-123.279979291" id="Corvallis" r="15"/><circle cx="193.101467161" cy="285.923575593" class="city" data-lat="44.6204921662" data-lon="-123.086941978" id="Albany" r="15"/><circle cx="106.982328258" cy="11.0241630558" class="city" data-lat="46.1883809602" data-lon="-123.829997398" id="Astoria" r="15"/><circle cx="216.038828775" cy="686.162781646" class="city" data-lat="42.3266270132" data-lon="-122.87442265" id="Medford" r="15"/><circle cx="357.127780045" cy="704.224885685" class="city" data-lat="42.2250053091" data-lon="-121.780535931" id="Klamath Falls" r="15"/><circle cx="190.272161145" cy="385.599113573" class="city" data-lat="44.0500101919" data-lon="-123.100016115" id="Eugene" r="15"/><circle cx="47.4188511005" cy="502.023804832" class="city" data-lat="43.3666152131" data-lon="-124.216588788" id="Coos Bay" r="15"/><circle cx="415.08220391" cy="382.066939142" class="city" data-lat="44.0719209992" data-lon="-121.309996177" id="Bend" r="15"/><circle cx="201.560324306" cy="232.26334999" class="city" data-lat="44.9280702912" data-lon="-123.02389673" id="Salem" r="15"/><circle cx="244.640932107" cy="128.919722996" class="city" data-lat="45.5200238231" data-lon="-122.679990074" id="Portland" r="15"/></g></svg>