<?xml version="1.0" encoding="utf-8"?><!DOCTYPE svg  PUBLIC '-//W3C//DTD SVG 1.1//EN'  'http://www.w3.org/Graphics/SVG/1.1/DTD/svg11.dtd'>
<svg xmlns="http://www.w3.org/2000/svg" version="1.1" style="fill:none;" width="100%" height="100%" viewbox="-50 -50 1100 347">
    
<!--svg enable_background="new 0 0 1000 247" height="247px" pretty_print="False" style="stroke-linejoin: round; stroke:#000; fill: none;" version="1.1" viewBox="0 0 1000 247" width="1000px" xmlns="http://www.w3.org/2000/svg" xmlns:xlink="http://www.w3.org/1999/xlink"--><defs><style type="text/css"><![CDATA[path { fill-rule: evenodd; }]]></style></defs><metadata><views><view h="247.713933872" padding="0" w="1000"><proj dist="1.3" id="satellite" lat0="35.7" lon0="-86.7" tilt="0" up="0"/><bbox h="82.86" w="335.84" x="857.76" y="951.46"/></view></views></metadata>
<g class="map" id="states"><path d="M2.943154,236.073569L2.026639,234.268357L8.317478,231.909978L12.652577,229.636854L16.558672,223.320743L16.907914,220.542557L18.177442,218.122642L20.947324,218.162734L26.427470,219.339979L28.947124,215.890197L29.222447,210.099636L28.255844,204.065173L26.216612,196.917908L25.850206,194.017953L25.898047,187.503388L26.532323,184.210365L28.012864,181.983008L34.322742,177.024438L37.639280,172.728378L38.285090,170.389574L39.066280,164.361684L40.531928,162.940100L48.863707,161.286270L50.111096,159.538318L46.514272,151.624746L51.432829,146.569424L51.521437,144.702374L48.426885,140.357792L46.815348,136.979655L47.014616,134.436173L48.688348,132.579876L66.514240,125.365790L73.936049,119.502445L72.990555,116.852673L69.988538,114.530516L67.022951,112.973093L68.220533,110.358275L69.974434,108.594373L74.691959,107.349587L77.983947,110.167565L79.739478,110.694863L80.597135,108.012221L79.195383,103.600985L76.271469,100.379539L74.257349,96.661777L74.485880,95.642776L74.284439,95.629718L73.660306,95.596904L24.662987,95.390505L0.000000,95.168713L0.000000,245.713934L6.407978,245.713934L6.661279,241.185002L3.266200,236.716610L2.943154,236.073569Z M0.000000,91.781303L4.001622,84.591618L11.013483,76.237731L13.290085,75.764024L15.558873,74.240391L17.997884,68.319868L23.883324,65.911743L29.155370,61.670372L29.716315,58.844792L30.949974,57.352327L33.875157,56.543272L35.979898,54.765221L36.735247,52.764740L37.490160,42.660221L37.161385,40.384072L35.417089,38.246560L31.740115,35.752729L30.789941,33.048752L30.764631,30.755202L28.811386,27.861585L26.924782,22.820775L0.000000,21.887482L0.000000,91.781303Z " id="Arkansas" class="neighbor"/><path d="M74.485880,95.642776L75.570356,90.786737L79.268269,84.957992L80.649920,81.289564L86.609823,78.427405L87.728732,75.849462L84.888956,69.961449L78.956778,60.550664L81.051190,59.914058L91.712734,59.807421L94.787843,57.036000L90.857259,55.038444L88.744673,52.885608L87.128914,49.902526L86.960755,47.278076L89.178569,46.207128L94.853997,46.034258L96.996686,44.677035L98.306995,41.587289L98.044054,38.346447L95.712233,32.380982L96.831569,27.542879L95.963710,25.430250L95.499671,24.849145L94.491565,23.580114L93.534474,21.768497L94.634202,16.795041L98.421203,15.255544L102.266931,17.283407L103.558757,23.019520L102.980319,24.869933L102.606002,26.066646L101.433739,28.895136L101.569518,31.008941L104.530728,31.911438L110.627468,26.219229L110.952427,25.432430L111.617871,23.803417L114.012224,15.003037L115.799067,9.685262L119.033318,5.774327L121.696310,8.348139L124.333405,11.684807L127.258085,14.606354L130.789028,15.906302L133.918626,14.352746L136.415836,10.547431L139.465290,2.370587L140.639380,0.000000L0.000000,0.000000L0.000000,21.887482L26.924782,22.820775L28.811386,27.861585L30.764631,30.755202L30.789941,33.048752L31.740115,35.752729L35.417089,38.246560L37.161385,40.384072L37.490160,42.660221L36.735247,52.764740L35.979898,54.765221L33.875157,56.543272L30.949974,57.352327L29.716315,58.844792L29.155370,61.670372L23.883324,65.911743L17.997884,68.319868L15.558873,74.240391L13.290085,75.764024L11.013483,76.237731L4.001622,84.591618L0.000000,91.781303L0.000000,95.168713L24.662987,95.390505L73.660306,95.596904L74.284439,95.629718L74.485880,95.642776Z " id="Missouri" class="neighbor"/><path d="M552.241940,245.611167L531.665917,245.498878L494.705416,245.466483L439.230955,245.703511L420.735271,245.713934L383.745283,244.822581L365.263174,244.127170L328.301071,243.047975L309.831571,242.870484L249.656639,241.463232L250.387320,243.179918L251.245314,245.713934L552.260947,245.713934L552.241940,245.611167Z " id="Alabama" class="neighbor"/><path d="M841.883073,239.699131L842.481852,237.997026L842.596471,236.278845L842.542624,236.106772L833.798602,236.560883L807.539402,237.888022L763.672692,239.958375L710.877256,242.193956L702.067246,242.542222L691.811339,242.618897L638.362711,243.806303L579.581860,245.477865L564.869559,245.678515L552.241940,245.611167L552.260947,245.713934L837.701660,245.713934L837.809595,245.598292L840.538190,244.452182L841.517849,241.575951L841.883073,239.699131Z " id="Georgia" class="neighbor"/><path d="M250.387320,243.179918L249.244049,243.161639L214.654581,242.509678L153.930436,241.090746L108.496757,239.809405L63.177696,238.328752L17.979913,236.670362L2.943154,236.073569L3.266200,236.716610L6.661279,241.185002L6.407978,245.713934L251.245314,245.713934L250.387320,243.179918Z " id="Mississippi" class="neighbor"/><path d="M842.542624,236.106772L842.596471,236.278845L842.481852,237.997026L841.883073,239.699131L841.517849,241.575951L840.538190,244.452182L837.809595,245.598292L837.701660,245.713934L1000.000000,245.713934L1000.000000,202.951093L936.651434,202.770279L928.027593,204.001274L924.664210,201.557694L920.972775,204.698147L920.429122,206.831445L900.531402,213.043382L896.815964,215.224643L891.787327,216.598322L890.234764,219.930337L883.537510,224.181703L881.676578,222.231001L878.020410,223.210092L844.653011,235.996811L842.542624,236.106772Z " id="South Carolina" class="neighbor"/><path d="M103.558757,23.019520L102.266931,17.283407L98.421203,15.255544L94.634202,16.795041L93.534474,21.768497L94.491565,23.580114L95.499671,24.849145L102.980319,24.869933L103.558757,23.019520Z M110.952427,25.432430L130.687515,25.933376L190.001457,27.249189L209.802716,27.624089L269.302901,28.550488L269.691794,25.219316L269.746545,17.759012L268.338791,10.347618L266.395221,3.555485L266.918689,1.188005L289.641027,3.699979L292.975869,8.185296L293.647903,8.007382L379.901985,7.563796L440.829727,6.876341L445.956110,5.875992L450.955470,6.044101L479.351891,8.840744L496.617441,9.878439L519.557168,10.568937L546.346677,11.178019L570.176551,11.480926L605.165316,10.123286L661.673543,11.132236L730.509680,11.993781L764.301803,12.285415L768.317411,11.049210L771.371626,9.480503L776.247218,4.969401L778.398221,3.847355L779.183823,3.747694L788.453895,0.000000L140.639380,0.000000L139.465290,2.370587L136.415836,10.547431L133.918626,14.352746L130.789028,15.906302L127.258085,14.606354L124.333405,11.684807L121.696310,8.348139L119.033318,5.774327L115.799067,9.685262L114.012224,15.003037L111.617871,23.803417L110.952427,25.432430Z " id="Kentucky" class="neighbor"/><path d="M993.211120,9.167813L994.487800,17.415961L992.986696,22.709356L990.074205,30.130440L991.586922,34.120172L993.235752,36.245273L989.580995,37.835580L982.437890,36.382380L974.033688,42.782621L970.643597,46.165935L960.404346,68.588265L954.641921,74.010488L950.253990,74.061772L948.332538,72.925020L946.868918,69.120652L941.710241,67.585556L940.612594,66.838045L934.339759,70.204596L930.387391,70.691076L927.624153,72.248370L920.828141,75.095937L918.865444,76.742518L914.029608,82.819853L910.283097,90.048037L902.678469,95.899308L899.453294,96.444277L896.947550,94.058195L896.231936,92.221267L896.796861,86.275357L894.793431,83.641430L892.408212,83.310127L884.376239,87.446414L876.765586,92.080739L875.885768,96.581050L873.271639,101.320352L871.257121,101.771870L868.379206,99.688791L864.709164,98.924332L861.432224,100.425936L860.586477,102.475694L860.844397,105.490518L861.927684,107.769889L859.182059,115.217205L856.532271,119.636044L853.714835,123.262929L850.451523,123.748357L843.088253,123.450570L837.200534,126.831641L831.665369,129.116716L820.750722,138.131228L818.503426,141.502065L812.828136,142.598772L808.471630,146.999933L802.364036,149.882241L797.000529,155.412833L787.949816,158.246300L783.816925,156.435998L779.162207,157.446026L773.215986,158.044253L769.123153,157.797297L763.835692,159.445325L757.331489,163.846450L753.658197,164.733494L750.107734,166.725941L748.326708,170.649152L746.156974,172.935663L741.338782,174.784266L739.496344,176.100328L736.932901,179.052881L736.275391,180.830957L736.931634,183.923234L736.306661,186.203108L734.354593,189.190454L733.451543,192.151771L733.385803,196.726917L731.965275,199.241721L727.401922,203.225731L715.707403,204.058062L713.682438,202.470365L710.192103,202.854745L706.570197,206.013989L704.157554,210.845487L702.506278,235.829216L702.067246,242.542222L710.877256,242.193956L763.672692,239.958375L807.539402,237.888022L833.798602,236.560883L842.542624,236.106772L844.653011,235.996811L878.020410,223.210092L881.676578,222.231001L883.537510,224.181703L890.234764,219.930337L891.787327,216.598322L896.815964,215.224643L900.531402,213.043382L920.429122,206.831445L920.972775,204.698147L924.664210,201.557694L928.027593,204.001274L936.651434,202.770279L1000.000000,202.951093L1000.000000,2.097755L999.261754,1.919128L998.820925,1.517084L997.973361,0.000000L993.211120,9.167813Z " id="North Carolina" class="neighbor"/><path d="M987.489034,0.072543L969.357956,0.302373L965.217497,3.316895L912.955473,5.290796L854.147756,7.233943L818.729307,8.268883L783.224476,9.196673L771.371626,9.480503L768.317411,11.049210L764.301803,12.285415L730.509680,11.993781L661.673543,11.132236L605.165316,10.123286L570.176551,11.480926L546.346677,11.178019L519.557168,10.568937L496.617441,9.878439L479.351891,8.840744L450.955470,6.044101L445.956110,5.875992L440.829727,6.876341L379.901985,7.563796L293.647903,8.007382L292.975869,8.185296L289.641027,3.699979L266.918689,1.188005L266.395221,3.555485L268.338791,10.347618L269.746545,17.759012L269.691794,25.219316L269.302901,28.550488L209.802716,27.624089L190.001457,27.249189L130.687515,25.933376L110.952427,25.432430L110.627468,26.219229L104.530728,31.911438L101.569518,31.008941L101.433739,28.895136L102.606002,26.066646L102.980319,24.869933L95.499671,24.849145L95.963710,25.430250L96.831569,27.542879L95.712233,32.380982L98.044054,38.346447L98.306995,41.587289L96.996686,44.677035L94.853997,46.034258L89.178569,46.207128L86.960755,47.278076L87.128914,49.902526L88.744673,52.885608L90.857259,55.038444L94.787843,57.036000L91.712734,59.807421L81.051190,59.914058L78.956778,60.550664L84.888956,69.961449L87.728732,75.849462L86.609823,78.427405L80.649920,81.289564L79.268269,84.957992L75.570356,90.786737L74.485880,95.642776L74.257349,96.661777L76.271469,100.379539L79.195383,103.600985L80.597135,108.012221L79.739478,110.694863L77.983947,110.167565L74.691959,107.349587L69.974434,108.594373L68.220533,110.358275L67.022951,112.973093L69.988538,114.530516L72.990555,116.852673L73.936049,119.502445L66.514240,125.365790L48.688348,132.579876L47.014616,134.436173L46.815348,136.979655L48.426885,140.357792L51.521437,144.702374L51.432829,146.569424L46.514272,151.624746L50.111096,159.538318L48.863707,161.286270L40.531928,162.940100L39.066280,164.361684L38.285090,170.389574L37.639280,172.728378L34.322742,177.024438L28.012864,181.983008L26.532323,184.210365L25.898047,187.503388L25.850206,194.017953L26.216612,196.917908L28.255844,204.065173L29.222447,210.099636L28.947124,215.890197L26.427470,219.339979L20.947324,218.162734L18.177442,218.122642L16.907914,220.542557L16.558672,223.320743L12.652577,229.636854L8.317478,231.909978L2.026639,234.268357L2.943154,236.073569L17.979913,236.670362L63.177696,238.328752L108.496757,239.809405L153.930436,241.090746L214.654581,242.509678L249.244049,243.161639L250.387320,243.179918L249.656639,241.463232L309.831571,242.870484L328.301071,243.047975L365.263174,244.127170L383.745283,244.822581L420.735271,245.713934L439.230955,245.703511L494.705416,245.466483L531.665917,245.498878L552.241940,245.611167L564.869559,245.678515L579.581860,245.477865L638.362711,243.806303L691.811339,242.618897L702.067246,242.542222L702.506278,235.829216L704.157554,210.845487L706.570197,206.013989L710.192103,202.854745L713.682438,202.470365L715.707403,204.058062L727.401922,203.225731L731.965275,199.241721L733.385803,196.726917L733.451543,192.151771L734.354593,189.190454L736.306661,186.203108L736.931634,183.923234L736.275391,180.830957L736.932901,179.052881L739.496344,176.100328L741.338782,174.784266L746.156974,172.935663L748.326708,170.649152L750.107734,166.725941L753.658197,164.733494L757.331489,163.846450L763.835692,159.445325L769.123153,157.797297L773.215986,158.044253L779.162207,157.446026L783.816925,156.435998L787.949816,158.246300L797.000529,155.412833L802.364036,149.882241L808.471630,146.999933L812.828136,142.598772L818.503426,141.502065L820.750722,138.131228L831.665369,129.116716L837.200534,126.831641L843.088253,123.450570L850.451523,123.748357L853.714835,123.262929L856.532271,119.636044L859.182059,115.217205L861.927684,107.769889L860.844397,105.490518L860.586477,102.475694L861.432224,100.425936L864.709164,98.924332L868.379206,99.688791L871.257121,101.771870L873.271639,101.320352L875.885768,96.581050L876.765586,92.080739L884.376239,87.446414L892.408212,83.310127L894.793431,83.641430L896.796861,86.275357L896.231936,92.221267L896.947550,94.058195L899.453294,96.444277L902.678469,95.899308L910.283097,90.048037L914.029608,82.819853L918.865444,76.742518L920.828141,75.095937L927.624153,72.248370L930.387391,70.691076L934.339759,70.204596L940.612594,66.838045L941.710241,67.585556L946.868918,69.120652L948.332538,72.925020L950.253990,74.061772L954.641921,74.010488L960.404346,68.588265L970.643597,46.165935L974.033688,42.782621L982.437890,36.382380L989.580995,37.835580L993.235752,36.245273L991.586922,34.120172L990.074205,30.130440L992.986696,22.709356L994.487800,17.415961L993.211120,9.167813L997.973361,0.000000L987.489034,0.072543Z " id="Tennessee" class="neighbor"/><path d="M998.820925,1.517084L999.261754,1.919128L1000.000000,2.097755L1000.000000,0.000000L997.973361,0.000000L998.820925,1.517084Z M771.371626,9.480503L783.224476,9.196673L818.729307,8.268883L854.147756,7.233943L912.955473,5.290796L965.217497,3.316895L969.357956,0.302373L987.489034,0.072543L997.973361,0.000000L788.453895,0.000000L779.183823,3.747694L778.398221,3.847355L776.247218,4.969401L771.371626,9.480503Z " id="Virginia" class="neighbor"/></g>
<g class="map" id="TN"><path d="M987.489034,0.072543L969.357956,0.302373L965.217497,3.316895L912.955473,5.290796L854.147756,7.233943L818.729307,8.268883L783.224476,9.196673L771.371626,9.480503L768.317411,11.049210L764.301803,12.285415L730.509680,11.993781L661.673543,11.132236L605.165316,10.123286L570.176551,11.480926L546.346677,11.178019L519.557168,10.568937L496.617441,9.878439L479.351891,8.840744L450.955470,6.044101L445.956110,5.875992L440.829727,6.876341L379.901985,7.563796L293.647903,8.007382L292.975869,8.185296L289.641027,3.699979L266.918689,1.188005L266.395221,3.555485L268.338791,10.347618L269.746545,17.759012L269.691794,25.219316L269.302901,28.550488L209.802716,27.624089L190.001457,27.249189L130.687515,25.933376L110.952427,25.432430L110.627468,26.219229L104.530728,31.911438L101.569518,31.008941L101.433739,28.895136L102.606002,26.066646L102.980319,24.869933L95.499671,24.849145L95.963710,25.430250L96.831569,27.542879L95.712233,32.380982L98.044054,38.346447L98.306995,41.587289L96.996686,44.677035L94.853997,46.034258L89.178569,46.207128L86.960755,47.278076L87.128914,49.902526L88.744673,52.885608L90.857259,55.038444L94.787843,57.036000L91.712734,59.807421L81.051190,59.914058L78.956778,60.550664L84.888956,69.961449L87.728732,75.849462L86.609823,78.427405L80.649920,81.289564L79.268269,84.957992L75.570356,90.786737L74.485880,95.642776L74.257349,96.661777L76.271469,100.379539L79.195383,103.600985L80.597135,108.012221L79.739478,110.694863L77.983947,110.167565L74.691959,107.349587L69.974434,108.594373L68.220533,110.358275L67.022951,112.973093L69.988538,114.530516L72.990555,116.852673L73.936049,119.502445L66.514240,125.365790L48.688348,132.579876L47.014616,134.436173L46.815348,136.979655L48.426885,140.357792L51.521437,144.702374L51.432829,146.569424L46.514272,151.624746L50.111096,159.538318L48.863707,161.286270L40.531928,162.940100L39.066280,164.361684L38.285090,170.389574L37.639280,172.728378L34.322742,177.024438L28.012864,181.983008L26.532323,184.210365L25.898047,187.503388L25.850206,194.017953L26.216612,196.917908L28.255844,204.065173L29.222447,210.099636L28.947124,215.890197L26.427470,219.339979L20.947324,218.162734L18.177442,218.122642L16.907914,220.542557L16.558672,223.320743L12.652577,229.636854L8.317478,231.909978L2.026639,234.268357L2.943154,236.073569L17.979913,236.670362L63.177696,238.328752L108.496757,239.809405L153.930436,241.090746L214.654581,242.509678L249.244049,243.161639L250.387320,243.179918L249.656639,241.463232L309.831571,242.870484L328.301071,243.047975L365.263174,244.127170L383.745283,244.822581L420.735271,245.713934L439.230955,245.703511L494.705416,245.466483L531.665917,245.498878L552.241940,245.611167L564.869559,245.678515L579.581860,245.477865L638.362711,243.806303L691.811339,242.618897L702.067246,242.542222L702.506278,235.829216L704.157554,210.845487L706.570197,206.013989L710.192103,202.854745L713.682438,202.470365L715.707403,204.058062L727.401922,203.225731L731.965275,199.241721L733.385803,196.726917L733.451543,192.151771L734.354593,189.190454L736.306661,186.203108L736.931634,183.923234L736.275391,180.830957L736.932901,179.052881L739.496344,176.100328L741.338782,174.784266L746.156974,172.935663L748.326708,170.649152L750.107734,166.725941L753.658197,164.733494L757.331489,163.846450L763.835692,159.445325L769.123153,157.797297L773.215986,158.044253L779.162207,157.446026L783.816925,156.435998L787.949816,158.246300L797.000529,155.412833L802.364036,149.882241L808.471630,146.999933L812.828136,142.598772L818.503426,141.502065L820.750722,138.131228L831.665369,129.116716L837.200534,126.831641L843.088253,123.450570L850.451523,123.748357L853.714835,123.262929L856.532271,119.636044L859.182059,115.217205L861.927684,107.769889L860.844397,105.490518L860.586477,102.475694L861.432224,100.425936L864.709164,98.924332L868.379206,99.688791L871.257121,101.771870L873.271639,101.320352L875.885768,96.581050L876.765586,92.080739L884.376239,87.446414L892.408212,83.310127L894.793431,83.641430L896.796861,86.275357L896.231936,92.221267L896.947550,94.058195L899.453294,96.444277L902.678469,95.899308L910.283097,90.048037L914.029608,82.819853L918.865444,76.742518L920.828141,75.095937L927.624153,72.248370L930.387391,70.691076L934.339759,70.204596L940.612594,66.838045L941.710241,67.585556L946.868918,69.120652L948.332538,72.925020L950.253990,74.061772L954.641921,74.010488L960.404346,68.588265L970.643597,46.165935L974.033688,42.782621L982.437890,36.382380L989.580995,37.835580L993.235752,36.245273L991.586922,34.120172L990.074205,30.130440L992.986696,22.709356L994.487800,17.415961L993.211120,9.167813L997.973361,0.000000L987.489034,0.072543Z " id="Tennessee" class="state"/></g>
<g class="map" id="uzones"><path d="M936.128568,4.415564L938.096195,7.471826L940.001728,8.293187L941.946663,5.310485L941.712304,4.204670L936.128568,4.415564Z " class="urban"/><path d="M357.826971,16.162927L358.653246,12.792781L356.536632,12.404661L353.520348,15.944703L351.529588,16.998045L349.808988,20.847851L348.392818,20.682600L347.598355,16.740970L341.501559,14.547515L339.461926,17.446121L343.253223,22.256650L344.509762,25.430753L347.074436,28.171771L350.896218,27.070373L353.089606,28.278043L355.899455,26.854764L353.476443,23.904833L357.826971,16.162927Z " class="urban"/><path d="M891.285664,6.006818L890.683031,6.500835L890.015576,9.026823L888.622651,8.800439L889.560510,13.880836L891.175504,15.377936L895.178326,14.890318L896.189178,17.415206L899.629015,18.724526L901.843487,17.678509L905.217701,14.489325L904.717337,11.770112L903.498350,9.927488L898.835844,7.796718L898.842724,5.757115L891.285664,6.006818Z " class="urban"/><path d="M404.750545,28.309361L402.853892,24.176504L400.775653,24.084727L398.212286,28.843197L399.487520,28.855838L400.827954,31.163204L403.327871,32.050558L404.750545,28.309361Z " class="urban"/><path d="M453.579861,47.825253L455.841233,46.326704L455.598948,42.644359L452.254818,40.335148L449.847787,43.696936L445.860433,45.497697L445.586498,46.356267L448.733374,46.409935L453.579861,47.825253Z " class="urban"/><path d="M924.021518,40.606680L924.013307,36.756332L919.952276,34.443392L913.675840,37.598089L915.183228,40.424818L914.119503,44.195476L915.075455,46.813474L917.018739,48.207536L921.884159,48.610728L925.071440,43.956303L924.021518,40.606680Z " class="urban"/><path d="M440.467253,49.540523L438.845140,49.472781L435.339929,52.728374L425.084915,52.733842L420.627215,50.866644L419.949896,52.740287L421.169997,53.521786L419.068567,58.872794L417.381108,60.682515L414.810668,59.088718L413.154520,59.877207L412.662339,61.564960L409.992456,62.891624L409.672126,63.871742L403.250769,70.222646L398.563822,73.640154L399.601940,76.182277L399.372133,78.170088L396.737466,80.076666L396.802361,81.348380L391.195126,87.996208L390.328722,90.897908L393.807720,92.589276L405.771431,90.936652L404.401028,93.592169L406.723928,96.576275L407.047833,98.880080L404.826415,101.847083L401.419340,103.954507L398.562241,107.104879L398.010022,113.191165L399.072986,114.063727L403.164132,114.796173L404.773336,115.999353L406.210917,114.644721L408.378178,114.546197L408.300301,113.525147L410.956126,112.946933L411.397756,111.467702L412.950707,111.748933L413.823329,110.086671L412.215091,105.254542L413.931103,102.539929L415.653562,101.420421L416.582646,99.480795L420.686387,97.587711L421.926869,98.742888L422.970117,97.147978L425.383973,96.957124L428.717625,95.453895L430.059502,96.211030L432.806210,100.485798L433.658102,103.011777L443.126231,106.838001L444.430169,108.433219L450.401548,104.250211L448.272869,100.463812L450.433697,99.587689L453.014197,99.740609L453.417913,97.266306L451.360423,95.826654L445.400028,97.639866L441.829541,97.282484L440.048837,92.337465L438.177814,90.064485L435.384960,88.769364L431.752420,83.491985L431.514502,81.382580L433.374875,78.124097L436.513625,76.435223L439.068966,74.043361L439.201335,68.635604L436.592053,67.267765L431.505516,67.057145L432.432939,64.931414L434.820661,62.357018L436.206487,59.462794L439.184646,55.910081L440.235982,53.213875L440.467253,49.540523Z " class="urban"/><path d="M818.625985,63.113711L817.665945,58.289993L809.733411,55.997162L809.846978,59.165411L810.935597,60.452728L811.277391,63.881508L815.120637,65.917047L817.263470,65.029684L818.625985,63.113711Z " class="urban"/><path d="M467.461707,66.973958L462.311900,66.997551L462.255903,68.697362L464.893479,70.180398L468.771202,74.937843L472.515276,74.506469L473.897375,71.733996L472.120426,68.389566L467.461707,66.973958Z " class="urban"/><path d="M565.143223,72.843144L561.129542,67.852490L559.649573,70.718819L557.472819,82.221648L560.425527,81.854702L564.408271,76.695676L565.143223,72.843144Z " class="urban"/><path d="M868.950717,69.855899L871.060064,68.892439L870.549894,62.816260L868.240511,63.052614L866.670489,65.428393L866.027312,69.869741L868.950717,69.855899Z " class="urban"/><path d="M723.421075,78.883248L721.322565,77.613086L721.365310,79.198667L715.844329,79.816724L720.892406,82.776444L723.260118,81.084773L723.421075,78.883248Z " class="urban"/><path d="M347.869734,93.885782L348.297649,87.805594L342.759873,87.463025L343.332349,90.667643L345.167459,92.601420L347.869734,93.885782Z " class="urban"/><path d="M747.163224,88.045056L744.434536,84.334221L739.510892,88.255331L735.672757,88.358496L734.488923,91.568418L731.459702,92.476391L730.792858,96.435882L723.630144,101.531221L720.401842,102.001264L719.502976,104.670356L713.920117,107.468068L713.231558,109.606120L717.846297,113.495188L720.671953,113.937105L722.233230,110.962561L729.950132,112.349826L737.497645,107.384098L740.780225,106.941534L741.942526,105.896995L746.442450,107.137551L746.849157,105.377350L750.316461,103.206586L755.342359,105.296589L756.908844,104.070412L755.204146,100.521040L752.791757,100.372570L751.317050,99.058389L751.742010,95.718080L755.730006,92.729180L754.996591,89.308125L752.358079,91.074889L750.453286,87.333827L747.163224,88.045056Z " class="urban"/><path d="M705.724621,98.281101L709.063954,96.997165L711.493415,92.167065L708.899669,90.641401L706.614119,87.666674L705.452671,87.138555L703.999518,90.532828L701.848198,91.412606L700.043361,93.180567L700.105617,97.214326L705.724621,98.281101Z " class="urban"/><path d="M458.742114,113.361479L452.638800,114.613088L452.005689,115.630467L452.182650,119.552685L451.548752,125.101777L463.566108,127.562867L468.951829,117.912229L458.742114,113.361479Z " class="urban"/><path d="M787.592805,115.424826L784.134719,110.802031L782.329259,110.827651L783.047913,116.010012L782.511374,121.188243L782.734763,123.529608L787.438308,126.711848L790.512871,120.853479L789.619653,119.894280L787.592805,115.424826Z " class="urban"/><path d="M740.609057,119.346940L741.745364,115.024649L734.479539,117.767634L733.090272,120.220154L734.097925,123.363362L734.229119,128.122151L735.292203,132.971774L737.007844,135.993757L739.566772,134.811811L744.429598,126.254070L743.839492,124.605223L740.467100,121.588241L740.609057,119.346940Z " class="urban"/><path d="M531.718701,146.225467L534.950979,142.929364L532.538813,141.214018L530.382657,140.604302L528.577970,141.579463L527.211038,144.597863L529.127973,145.871183L531.718701,146.225467Z " class="urban"/><path d="M381.500099,159.417100L384.996525,159.257373L387.505456,157.547762L386.280134,152.961549L386.290380,148.182939L381.123436,148.164754L379.807344,152.938252L377.186396,155.768516L377.198111,157.706555L381.500099,159.417100Z " class="urban"/><path d="M453.620778,176.880569L454.235931,176.098862L451.691235,170.421199L449.406747,171.287256L450.909063,175.945454L453.620778,176.880569Z " class="urban"/><path d="M416.008318,181.692715L414.688337,176.159286L413.264122,174.308143L410.822805,173.708063L410.733212,177.406022L411.416353,180.158561L413.096366,181.674908L416.008318,181.692715Z " class="urban"/><path d="M671.138790,178.966365L670.822870,175.279461L666.418225,172.778079L663.245798,172.772454L663.566615,176.456463L665.295619,178.309741L671.138790,178.966365Z " class="urban"/><path d="M484.822785,192.664416L483.510214,189.678358L477.716466,186.626165L476.500169,187.227231L479.308297,192.280267L481.707533,192.915225L484.822785,192.664416Z " class="urban"/><path d="M638.319043,222.566990L640.715650,211.380143L636.776877,208.284463L634.365521,213.562877L634.716449,218.515881L638.319043,222.566990Z " class="urban"/><path d="M599.637192,244.907548L600.440913,244.422765L602.238606,240.712347L604.238962,241.936570L607.450482,240.625098L607.864323,238.844403L606.860368,230.944524L600.245244,226.248183L598.145837,226.439396L596.076086,221.086171L593.924439,220.280841L588.227770,221.723357L584.999201,225.736082L584.720123,228.643755L582.690811,232.306852L580.060523,238.974249L580.123782,241.045560L584.089480,241.734070L586.347411,245.285472L599.637192,244.907548Z " class="urban"/><path d="M112.014585,85.184723L111.091761,84.926787L108.142473,86.680802L108.641173,89.829120L112.132130,93.426218L114.342551,93.199082L117.073304,86.919897L111.969244,86.774740L112.014585,85.184723Z " class="urban"/><path d="M68.525374,111.015177L71.180689,109.577645L69.944878,108.624098L68.220533,110.358275L67.939674,110.971508L68.525374,111.015177Z " class="urban"/><path d="M177.224272,140.385175L167.860496,141.418183L164.271250,146.877825L170.641095,150.209285L173.176349,153.685639L173.599544,155.203553L177.568240,160.305144L182.427009,151.373881L183.519358,150.484972L182.600707,146.765929L180.166275,143.164748L177.224272,140.385175Z " class="urban"/><path d="M48.667923,189.682596L55.236665,185.122917L53.202493,183.823130L48.667923,189.682596Z " class="urban"/><path d="M40.835388,195.857687L39.483098,195.707598L35.514528,197.435479L32.932467,201.494792L30.243376,203.309165L28.553150,205.921241L29.222447,210.099636L28.947124,215.890197L26.427470,219.339979L24.015189,218.821773L24.027599,218.850174L26.700331,220.357539L27.056755,222.233157L25.443796,225.493933L19.148571,228.288551L24.179585,231.642098L24.081589,234.816168L29.223679,235.004759L30.003742,237.111538L45.478500,237.679336L47.245566,235.649428L48.512608,237.700545L54.765553,237.273156L59.484814,238.043090L62.510291,230.804759L66.766695,229.962361L69.481108,225.279470L68.034567,223.786047L67.423686,221.623597L67.139825,217.260710L65.940691,214.052098L70.040982,210.335412L69.747024,203.824932L64.919333,204.256654L64.029776,202.557715L59.912358,201.458029L56.087909,199.434756L55.127047,201.240648L49.976033,200.094141L48.459277,198.950602L44.522107,199.042377L40.835388,195.857687Z M17.356456,219.687568L18.988418,221.455004L20.609710,218.157847L18.177442,218.122642L17.356456,219.687568Z " class="urban"/><path d="M74.118147,233.423974L78.907120,230.506164L75.965599,224.475790L72.678546,225.523740L71.877563,231.708270L74.118147,233.423974Z " class="urban"/></g>
<g class="map" id="lakes"><path d="M267.575847,28.523598L266.246204,31.967887L265.422789,37.180541L260.370355,40.904256L262.500988,43.334474L262.038853,45.856090L258.225318,50.269904L256.996314,55.140409L257.412763,56.705297L260.539751,55.189531L261.672505,57.649030L261.360533,63.670881L263.164266,64.496176L264.827288,62.242874L264.974788,59.168508L264.106939,53.678817L264.750194,50.358644L267.526231,46.055437L268.191018,43.494014L269.051249,43.757951L272.816975,49.409979L274.951381,56.811233L277.589603,62.406995L279.347398,68.034194L278.067511,73.498060L280.214131,79.510203L280.305626,82.883787L279.536645,84.434166L269.116720,93.533641L269.713451,94.679793L272.424195,95.642748L272.201380,100.699058L270.753214,101.944930L268.117743,102.795330L269.409323,105.468689L271.771892,108.409053L274.276259,109.790838L275.955629,107.872837L273.923449,106.877017L273.514093,104.384139L275.011853,96.940824L280.233500,88.363399L283.092875,84.393015L285.120432,77.503407L284.749444,75.939301L282.791489,73.555445L280.778944,57.514855L278.781609,53.402883L276.220807,49.705351L273.116512,42.672201L270.595959,40.070257L269.750904,36.478517L272.847851,24.891695L271.615098,17.842911L271.308512,11.143611L267.542881,1.257010L266.918689,1.188005L266.395221,3.555485L268.338791,10.347618L269.746545,17.759012L269.691794,25.219316L269.302901,28.550488L267.575847,28.523598Z " class="Reservoir"/><path d="M281.118227,2.757776L284.383694,7.468450L285.924237,14.771041L287.589201,12.852602L288.048493,7.509766L285.694777,3.263718L281.118227,2.757776Z " class="Reservoir"/></g>
<g class="map" id="rivers"><path d="M740.041837,115.235003L736.038988,114.285317L734.331074,114.756380L731.827828,118.385369L721.616933,120.895646L721.160809,121.757285L721.768980,125.047593L717.839978,125.684686L716.325092,130.508393L714.988567,130.810316L711.937191,128.757074L705.594856,128.915118L702.768712,130.812509L701.270160,130.883923L701.690600,134.995762L700.669635,135.963787L696.536208,130.997868L695.440927,132.997784L689.793094,131.156756L687.508401,134.295894L685.457663,129.882527L675.815376,119.231946L674.062856,117.837574L672.569930,121.777688L667.454199,122.376498L665.608422,129.579388L663.246141,128.999970L660.494731,125.806992L659.535316,125.861687L658.883552,133.022024L654.647740,136.987774L654.038681,142.784394L653.026176,143.334911L648.828350,142.888549L647.722028,144.454100L647.006151,154.738447L645.236391,160.487974L643.661081,162.144060L641.247855,162.755893L636.436698,161.787266L635.349821,162.588354L635.659735,164.289524L638.160225,169.397994L635.956938,172.585626L633.717638,173.315128L629.480474,179.184419L628.397592,178.726532L626.180591,175.376062L625.101557,175.675120L624.300408,178.672419L624.487081,182.129701L620.106869,183.675581L619.537213,184.472086L615.083867,195.764263L613.508508,198.436142L611.532961,199.553295L611.165728,200.957667L612.282941,207.742830L612.137523,210.296717L608.442854,214.110448L607.486032,218.722237L599.595953,225.170989L592.804543,228.492894L590.743997,230.277673L585.202598,237.949949L583.670128,239.183910L582.041221,237.745787L582.650301,228.440851L581.266632,227.091905L578.853343,226.363157L576.358338,226.706862L574.738525,228.552602L576.974611,231.463276L576.398775,233.422664L573.138582,234.446228L572.490884,237.635369L569.342301,238.167052L566.605927,231.929591L564.583288,230.441156L562.001433,229.594341L559.575468,229.904283L558.015495,231.886754L557.421083,235.074751L555.804120,237.634220L553.592268,239.466525L551.068952,240.300100L544.287939,238.856630L543.120974,239.987923L541.952022,245.555012 M250.371499,243.179665L250.310601,242.999672 M249.791837,241.466394L247.255404,233.969619L246.124257,231.854702L244.433133,230.970987L239.472448,231.727143L237.419092,231.249748L236.004062,228.872802L236.385528,226.945833L234.957108,222.413534L234.548960,219.605036L234.640201,213.741253L236.192062,211.099944L240.680924,209.573362L241.985772,207.468618L241.762415,205.903691L239.594069,202.984136L240.567809,202.021552L246.826333,198.749870L250.168415,198.418081L250.745525,194.954476L248.543733,190.421853L249.690717,187.905148L252.344642,187.404313L258.199341,187.993818L260.668680,187.132756L264.002697,184.756681L266.608339,184.292425L270.547805,186.689879L272.351614,187.005864L274.244747,184.397120L274.186818,182.228306L269.786550,181.387708L268.657524,179.967592L269.140682,176.401669L272.137996,174.845612L274.393776,172.666868L275.695891,166.791423L273.190289,161.640752L269.947744,156.590370L269.043332,150.988442L270.715916,146.878556L270.711934,145.054119L268.460293,140.623042L269.187128,137.561212L274.059559,131.400890L274.992750,126.528525L277.811187,122.519464L280.879187,111.786403L278.482783,106.831553L275.957181,107.866243 " class="River"/><path d="M892.517820,5.966105L891.536590,7.385071L889.585337,13.803389L887.133094,16.415026L882.661709,18.524343L883.462557,20.592871L881.845152,21.751177L879.581534,20.585119L875.535780,21.162305L871.917788,23.897410L868.826778,24.013161L870.966625,26.793105L869.001683,27.255435L864.269016,26.033139L861.008338,31.549616L856.006823,34.210599L850.576527,39.305937L847.721204,40.453328L843.322638,41.242713L840.922799,40.973305L839.149458,39.682810L835.480413,41.790721L829.869172,43.714852L828.040932,47.558106L823.474415,50.815004L816.181943,51.274559L812.877674,52.580655L806.878806,56.385046L800.110861,62.989691L795.655905,70.466494L792.368999,71.302808L785.973740,69.502584L783.093285,70.858565L780.661005,74.397977L777.364902,75.253916L777.970843,79.398703L777.513210,80.819718L774.731537,78.037037L773.232396,77.837753L774.073937,81.958572L770.477811,80.996034L769.413009,81.562638L770.254927,85.003641L768.747051,86.490689L763.195813,87.154090L759.979155,88.748111L757.196345,91.288728L752.901617,96.507163L753.403215,98.267229L750.775263,101.960372L746.324624,103.446843L743.800895,105.402186L741.068735,104.860802L738.603578,107.465297L740.678295,114.199148L740.041837,115.235003 " class="River"/><path d="M110.618691,26.227424L110.615410,26.235441L107.557814,29.085205 M104.526762,31.910230L104.513224,31.922848L101.554874,31.018097L101.419848,28.910125L102.885103,24.869668 M96.281410,45.130106L94.836364,46.049136L89.170234,46.222257L86.961181,47.284725 M91.709411,59.807455L91.698021,59.817723L81.037368,59.925534L78.960787,60.557024 M86.598655,78.432769L86.595985,78.438887L80.647046,81.297194 M79.732827,110.692865L79.727371,110.709873L77.970040,110.180192L74.684523,107.364733L69.972107,108.596714 M68.550394,110.026533L68.219272,110.361029 M73.920958,119.514368L73.921197,119.515036L71.754444,121.225948 M66.508852,125.367970L66.507160,125.369307L48.676988,132.599519L48.051622,133.286054 M51.424676,146.577804L51.424539,146.581029L46.933638,151.193719 M48.856638,161.287673L48.852747,161.293129L40.520586,162.958563L39.376294,164.060990 M34.319179,177.027238L34.311580,177.037083L28.006493,181.992593 M26.426618,219.339796L26.412292,219.359425L20.935905,218.182310L18.169601,218.137588 M12.644690,229.640989L12.639497,229.649381L8.300633,231.922353L5.366886,233.016128 " class="River"/><path d="M561.244757,11.367392L559.800471,22.350621L559.392285,23.682711L556.128498,26.339059L551.179114,29.099991L550.424514,30.557971L550.819004,34.519802L549.401933,36.631341L545.420334,39.864063L544.625638,42.889343L540.277667,43.910965L539.985139,49.290698L538.911053,50.157471L534.480631,50.409040L533.185734,51.312339L532.164720,54.252228L527.388429,56.345591L526.726625,62.207351L525.155900,62.506379L521.956225,58.337722L520.095030,58.154797L519.554908,61.288303L518.268280,63.466361L515.322787,60.762200L513.756602,57.738178L512.346615,56.466789L512.950771,63.035419L511.621245,64.199177L503.004645,61.905359L501.959338,57.745632L496.663144,62.155694L494.179911,60.399018L495.803278,55.890524L495.163274,52.893390L492.542129,51.236410L488.239059,50.747594L485.932029,49.588586L485.048571,50.228271L484.338451,53.296932L482.134903,53.063147L480.427611,49.901407L479.140045,48.747867L477.805440,53.980902L476.616066,56.573625L475.169765,57.652229L473.697281,56.213219L472.678165,52.167361L467.974093,55.792870L466.496908,55.238792L463.753228,51.343884L461.753538,50.196594L460.349334,51.448000L457.825923,56.746886L452.181798,54.331465L448.973322,54.181303L446.431676,58.364948L440.857243,57.470872L438.833899,58.732443L439.715422,60.596310L438.778168,62.567492L434.973557,65.585004L429.365649,60.174325L426.743386,61.253482L430.207823,69.592891L430.407236,72.618050L427.729817,72.438530L426.368973,68.125454L425.357670,67.636006L425.358421,72.969524L424.393925,75.656896L422.054419,77.323981L419.201473,77.900322L416.673839,77.321941L412.592701,72.632013L409.917299,71.136925L407.732561,75.482705L402.855745,73.510603L400.884169,73.477795L400.298046,79.014492L399.172351,81.303206L396.454420,79.787344L394.591865,75.597381L394.245034,71.638555L387.625392,68.933062L364.804837,54.778552L362.717753,52.664408L352.689109,35.957525L354.137804,33.099951L352.847322,31.292492L347.618217,30.066534L346.269874,28.700818L344.407056,24.844692L341.749455,26.999375L337.450864,34.914204L334.996906,35.840014L329.330071,36.495872L324.211610,38.598198L317.813503,42.865751L315.973883,43.501791L313.167421,42.876217L311.407656,41.287067L305.096429,32.413932L302.925207,31.070341L300.323553,30.554799L295.534876,30.918305L294.001077,30.412725L287.536895,22.224478L286.114875,18.383306L285.924605,14.777571 " class="River"/></g>
<g class="map" id="roads"><path d="M357.284425,97.278589L362.467415,106.015904L370.281652,114.266371L377.910634,121.515996L384.751444,126.269640L406.546183,125.078588L417.238650,127.827305L418.854690,124.592729L422.688444,123.100503L443.462412,120.097436L448.904973,118.842580L450.218576,116.158701 " class="U/C"/><path d="M940.079825,4.266328L940.313167,7.313788L939.949034,11.778618L938.094113,13.836303L934.027826,14.752698L932.708162,15.798068L931.544348,20.051103L921.380632,33.095507L919.064260,38.140765L919.929707,39.836251 " class="Interstate"/><path d="M931.003295,4.992933L922.569398,12.764656L917.346547,14.218135L913.387648,17.596531L905.769381,22.607416L898.205246,29.097838L894.259623,33.214936L891.542397,34.065098L888.584006,33.933999L883.359846,40.574844L875.706288,41.365290L857.080145,53.954189L843.687449,60.387882L838.096553,64.304708L835.355037,65.145020L828.022207,65.152455L827.691138,66.899359L813.540359,76.058860L806.295552,84.732375 " class="Interstate"/><path d="M120.033745,84.070994L134.169088,70.770150L135.046445,67.811597L133.525332,65.042558L133.220821,61.558570L133.706681,58.342466L135.009106,54.401479L141.539452,48.599420 " class="Federal"/><path d="M210.962406,242.423403L204.060073,219.947131L201.282492,216.660619L200.420881,208.441942L198.245626,205.663863L197.473634,203.659794L197.831427,184.776500L197.109322,180.287388L194.749462,177.007737L185.200205,170.097075L181.643223,166.541070L179.897055,163.272042L177.076298,153.765352L175.503544,151.991038L173.697866,151.702748L173.583127,147.723331 " class="Federal"/><path d="M438.269891,8.921657L436.878020,13.148113L430.694470,23.344174L426.299512,34.036206L424.098567,36.274234L422.497021,40.003991L421.694987,45.972089L423.497512,56.418003L422.695156,59.154003L420.287279,62.387175 " class="Interstate"/><path d="M85.268814,79.390687L85.123491,79.141195 " class="Interstate"/><path d="M540.789806,237.435901L542.618746,237.167545L547.682885,234.873674L550.734010,234.838706L554.825574,237.028047L562.209109,242.406104L563.666921,245.370398L566.713878,244.833693L568.146952,245.560477 " class="Interstate"/><path d="M707.204470,115.886966L701.462971,118.760079L695.991397,116.406070L689.660064,120.033076L678.125986,115.820390L674.850105,112.909743L671.430016,112.486533L668.394499,111.308471L660.608975,113.210664L657.038697,115.272003L653.585621,113.352555L650.389414,114.161502L645.140241,112.771651L642.569330,114.809545L635.105665,113.208102L627.537501,105.884633L621.474584,103.751653L605.652320,94.311865L599.611635,93.161013L592.695488,87.294746L590.427830,83.348467L587.972246,80.150384L581.949073,79.735550L579.563912,81.259424L577.132324,79.550613L574.919179,79.081871L563.899536,80.212928L549.846930,79.874335L547.243518,80.399355L540.258006,84.201558L535.639166,84.246410L517.307259,78.187542L509.248149,74.766131L499.821552,76.074319L494.798433,75.608054L491.791196,76.372037L483.741795,73.430415L480.727507,72.947773L468.889649,74.988974L457.842035,74.528371L452.219869,75.040771L442.381822,77.299392L434.345733,77.309279L428.319612,79.801061L420.683435,79.801489 " class="Interstate"/><path d="M173.202531,146.720712L173.365746,139.267637L175.131375,132.098078L180.641239,128.239433L184.568569,123.101947L186.507172,116.927665L185.646815,110.198495L182.453666,100.190182L180.921905,96.927261L179.536417,96.152656L178.835031,91.664484L179.157363,86.203935L180.979910,76.301881L179.470398,72.294919L177.323091,61.318267L173.611194,49.316949L173.511584,45.092478L175.392670,41.406322L173.480380,26.882688 " class="Federal"/><path d="M535.965385,245.522342L535.977767,245.442245 " class="Federal"/><path d="M707.204470,115.886966L704.123666,120.931681L696.663062,127.572100L691.841261,135.886712L674.706673,161.131684L670.381186,166.198202L662.461668,173.328889L656.158799,181.167042L654.198084,184.190487L652.086555,189.950965L650.719476,192.464557L642.747694,198.838662L639.658224,207.101837L635.937883,214.381892 " class="Interstate"/><path d="M931.586364,4.587120L931.003295,4.992933 " class="Interstate"/><path d="M721.661180,11.883034L721.745609,12.234127 " class="Interstate"/><path d="M438.916834,6.897925L438.269891,8.921657 " class="Interstate"/><path d="M919.929707,39.836251L922.330481,44.930510L926.117315,50.212217L926.244948,52.928390L922.962389,62.719815L916.549091,68.933271L916.256555,71.173440L912.813989,73.546988L907.004595,80.475553L904.847108,80.813143L901.491902,85.409689L900.644855,88.664139L901.429663,93.089328L901.275452,96.136381 " class="Interstate"/><path d="M350.653882,8.710934L349.512601,7.720082 " class="Interstate"/><path d="M806.295552,84.732375L798.344222,90.697599L795.610513,92.274296L789.285549,93.716248L784.398826,96.599236L782.033391,97.417255L778.456107,97.775687L772.201266,95.483635L762.435773,95.773183L752.221379,94.577428L745.754294,98.731546L745.020753,100.986723L742.432401,101.306615 " class="Interstate"/><path d="M721.745609,12.234127L719.855784,15.505764L710.068186,27.653431L704.645962,32.994002L700.549867,36.068264L701.795491,38.025493L706.708077,43.123787L707.769370,45.581300L708.360108,52.767606L709.601323,54.475903L709.880244,57.448896L712.921445,59.361505L724.632641,71.980824L731.570102,77.512040L731.619282,79.248923L734.331209,83.398529L733.782208,85.151344L734.913426,89.839345L734.861289,95.055711L735.288610,96.037599L742.432401,101.306615 " class="Interstate"/><path d="M806.295552,84.732375L814.234012,89.925068L815.306436,92.121215L816.277244,97.049137L817.142589,99.004024L825.983827,101.427091L828.656687,103.813409L830.047372,109.220382L830.524822,116.891671L831.600093,119.085391L833.788079,119.006966L836.852843,121.128269L840.925541,124.692525 " class="Interstate"/><path d="M413.663762,65.368374L410.262612,57.156461L400.646158,53.162113L389.646042,45.674835L374.082884,33.187950L364.716917,26.930648L361.342643,22.936487L359.770280,18.702861L357.001471,14.462925L354.426283,11.466398L350.653882,8.710934 " class="Interstate"/><path d="M742.432401,101.306615L721.621373,108.070694L707.204470,115.886966 " class="Interstate"/><path d="M159.032776,34.351004L167.921368,29.081455L169.836439,26.801851 " class="Federal"/><path d="M413.853155,77.558520L413.663762,65.368374 " class="Interstate"/><path d="M420.683435,79.801489L417.468501,79.302593L413.853155,77.558520 " class="Interstate"/><path d="M141.539452,48.599420L150.363877,38.625247L150.960718,38.638879L151.878576,33.942586L159.032776,34.351004 " class="Federal"/><path d="M85.268814,79.390687L88.561481,82.464377L107.382796,86.714449L113.986146,86.146921L120.033745,84.070994 " class="Interstate"/><path d="M173.202531,146.720712L186.129625,144.512786L206.638004,135.474677L217.956277,132.948860L242.441563,125.404259L248.874175,126.001367L254.719525,125.591374L260.184372,123.680535L268.303164,119.066865L274.150422,118.397913L285.012194,119.279905L291.079829,117.112264L307.376021,118.780716L308.801466,117.302193L315.472857,114.878579L324.399646,107.743200L326.436741,105.023599L329.665432,104.054957L335.527836,100.866407L338.141695,101.134718L341.575562,99.417788L351.852178,97.246381L356.279955,97.024010L360.700622,98.044006L365.335457,96.824035L367.142508,97.579407L370.977841,95.109167L376.232631,89.657758L381.064885,88.183505L387.091458,89.945621L392.519570,90.707830L396.749661,88.230180L404.202879,81.278349L410.033365,79.545028L413.853155,77.558520 " class="Interstate"/><path d="M702.403490,237.400892L693.504322,235.971284L688.031224,235.857177L686.113512,231.433237L682.406108,228.541243L680.801923,229.324239L678.533330,227.390248L673.000349,224.288349L669.983074,225.350287L668.392623,226.876489L666.762352,226.415955L663.540657,227.480740L660.868384,225.551417L659.252405,225.834730L655.567705,223.925630L650.267377,222.297035L640.509298,220.754509L640.451916,217.524910L635.937883,214.381892 " class="State"/><path d="M635.937883,214.381892L634.127464,215.162236L628.951138,220.727895L617.662474,225.158261L615.496574,229.421592L610.248963,231.500556L608.240809,233.025846L601.638546,240.094302L598.821172,242.128111 " class="Interstate"/><path d="M600.079537,244.841481L598.821172,242.128111 " class="Interstate"/><path d="M420.683435,79.801489L420.481099,84.279918L426.111833,92.740062L431.950019,97.714157L434.166901,100.698506L437.994793,102.685253L460.227134,128.020584L472.624354,148.381982L476.897030,154.335703L478.138581,160.302567L482.407987,164.263040L492.966851,169.926930L496.426096,172.642445L501.543455,180.819677L516.898749,200.855000L519.988780,206.550213L520.623845,209.778428L522.242503,209.017927L526.318673,210.722129L527.374503,215.438146L528.409594,217.666848L530.251425,219.141492L536.025674,228.285625L536.889320,233.747292L540.169995,236.447978 " class="Interstate"/><path d="M598.821172,242.128111L595.782108,242.922099L586.796088,240.077741L579.882707,240.178867L576.644205,241.467560L574.251491,245.477802 " class="Interstate"/><path d="M574.251491,245.477802L574.148122,245.551971 " class="Interstate"/><path d="M568.146952,245.560477L568.267863,245.632168 " class="Interstate"/><path d="M535.977767,245.442245L540.205033,240.177046L543.439840,237.904475L544.035788,236.406161 " class="Federal"/><path d="M413.853155,77.558520L416.055680,88.010039L414.240305,94.229331L413.430495,99.454216L409.995138,109.902354L407.956135,126.822740L405.123871,131.049382L403.293899,138.263738L401.865964,145.478608L401.445684,153.690808L399.810407,161.900366L399.602273,164.637515L403.007127,185.548532L402.387835,191.519520L401.536821,212.666759L403.565150,215.407250L403.559753,218.641276L402.320584,229.335177L402.708988,240.279281L402.089035,245.251702 " class="Interstate"/><path d="M120.033745,84.070994L120.384518,85.818498L115.890399,89.425690L113.110771,88.855175L110.873639,90.285176L110.011741,92.496846L111.551954,94.524977L111.933648,102.233776L109.438271,105.642985L108.028644,113.054819L106.516783,116.986735L103.790141,121.381165L94.545623,129.561745L87.491314,144.749974L83.689115,151.339831L80.649496,159.192181L70.515698,169.303204L49.018008,189.444252L39.219899,200.765789L35.747384,208.827922 " class="Federal"/><path d="M173.202531,146.720712L153.130488,153.466209L133.223011,161.418785L126.332166,163.474428L123.496261,172.092914L114.667629,178.806558L105.652598,184.760956L99.960278,186.831192L92.603828,190.834576L78.417920,201.321776L57.949465,212.816999L51.417426,215.821177L49.088728,213.013180L47.178861,209.723127L36.936109,209.365989L35.747384,208.827922 " class="Interstate"/><path d="M402.089035,245.251702L402.086376,245.264549 " class="Interstate"/><path d="M28.257708,216.834110L30.441619,217.565084 " class="Interstate"/><path d="M35.747384,208.827922L35.238565,218.481012 " class="Interstate"/><path d="M30.441619,217.565084L35.238565,218.481012 " class="Interstate"/><path d="M80.225256,237.357770L82.205651,238.950428 " class="Federal"/><path d="M35.238565,218.481012L35.353048,221.212637L37.832992,231.962486L37.480150,237.385861 " class="Interstate"/><path d="M24.478836,236.908819L29.579873,231.913143L31.274872,229.247785L35.238565,218.481012 " class="Federal"/><path d="M600.109277,244.894123L600.079537,244.841481 " class="Interstate"/><path d="M52.463471,237.935627L50.011497,235.612979L48.125646,231.332332L35.238565,218.481012 " class="Federal"/><path d="M738.274018,102.662072L737.604464,100.196869L739.117032,97.175820L741.654837,95.119990L749.141427,91.684762L751.371909,92.863482L752.221379,94.577428 " class="Federal"/><path d="M35.522857,209.563939L39.644929,200.036552L46.733463,191.847418L57.292831,194.684086L70.787000,193.883068L80.058783,207.329433L80.792204,217.030630L80.225256,237.357770 " class="State"/><path d="M404.203779,80.780750L404.225465,68.839184L419.685687,61.640742L425.504983,71.343017L426.511045,79.801610 " class="State"/><path d="M80.225256,237.357770L66.784162,234.442800L57.288781,228.173680L52.293486,226.764003L43.680243,225.226269L34.029503,224.884456L30.250780,223.508630L30.401786,218.803363 " class="State"/><path d="M450.218576,116.158701L452.322932,114.852851L455.318405,104.890950L455.910315,100.659005L455.479009,90.706980L456.870403,85.229249L460.072005,80.741410L467.082172,74.995727 " class="U/C"/><path d="M438.966170,245.703660L438.945777,245.470697 " class="Federal"/><path d="M589.855956,245.185698L589.574523,245.075987 " class="Federal"/><path d="M439.493246,10.300869L440.354768,6.881700 " class="Federal"/><path d="M370.929423,8.912611L370.247797,7.839979L366.296826,7.822015L366.177825,7.634376 " class="Federal"/><path d="M609.140686,10.399852L608.998121,10.191720 " class="Federal"/><path d="M683.344789,12.888819L683.307384,11.403003 " class="Federal"/><path d="M476.262125,8.914726L476.200409,8.530368 " class="Federal"/><path d="M406.154688,8.372564L406.198862,7.267085 " class="Federal"/><path d="M365.775442,8.889197L367.732055,7.626383 " class="Federal"/><path d="M770.332535,10.498030L769.822248,10.276295 " class="Federal"/><path d="M895.564704,6.671443L895.669546,5.861964 " class="Federal"/><path d="M772.359948,10.012881L773.329943,9.433609 M774.486813,9.405906L775.592187,9.919252L776.848976,9.349342 " class="Federal"/><path d="M125.975404,155.239672L126.359730,153.752753L128.629321,152.956826 " class="Federal"/><path d="M766.808509,91.763207L766.993354,92.185139L772.350341,93.307564L775.766126,92.777033L781.080123,92.614508L784.486588,91.868091L786.735029,92.438838L793.543710,90.941927L796.148147,91.926593L797.332177,91.461281L803.017616,92.344513L810.753575,88.244586L815.639881,90.856447L816.593723,93.600092L819.497974,98.198744L820.539632,98.590022L825.468600,97.565308L830.131537,98.682925L831.025468,99.718841L835.330458,100.419715L838.390736,99.882937L841.562446,102.329744L844.752134,100.719226L847.606818,103.815926L850.673180,103.488883L852.446583,105.130168L854.267432,103.568068L857.902406,104.711533L860.751519,104.404871 " class="Federal"/><path d="M732.560458,95.931035L728.001882,92.844199L725.606937,93.334249L722.430759,90.422731L720.458748,87.479600L720.267198,80.428567L719.041630,79.604310L717.769905,77.070589L718.838145,72.126378L718.561503,68.285116L716.551930,63.845794 " class="Federal"/><path d="M719.062062,12.712031L720.988442,14.373590L723.170040,13.038303L725.438053,14.690600L727.315078,14.643628L729.394051,15.659117L728.097935,18.041235L726.549284,17.652998L724.385896,19.629455L724.789213,21.755473L724.155421,23.480228L725.633030,27.288514L724.827940,29.017817L725.329422,34.560148L723.203857,38.032272L720.019607,40.462235L720.758135,42.367166 " class="Federal"/><path d="M402.800660,242.249518L401.931420,237.751662L399.833603,234.321422L398.431899,233.890019L397.209316,231.745872L394.230519,231.309979L393.011110,228.308766L390.567174,224.875375L388.645122,223.156211L384.989463,216.076684 " class="Federal"/><path d="M411.393471,83.310007L410.525052,85.879496L409.311671,87.163301L407.228103,91.230567L402.018297,98.505552L402.360288,100.862709L401.663103,102.789497L403.208984,110.504953L404.245340,113.077698L406.499118,114.366777L407.012970,118.866812L406.129725,128.507056L407.169759,130.222695L407.338236,133.865391L408.029730,136.651786L407.504684,139.007952L408.713341,145.651812L408.533310,150.151123L409.228045,151.437618L409.568844,157.437408L407.820592,161.934539L409.209090,166.435825L409.380769,168.578596L411.468453,173.080375L411.291262,175.651164L414.255271,178.225033L415.126104,180.582419L414.077204,182.509721L411.981614,183.150417L411.454709,186.149152L407.781652,190.429091L407.078350,193.641418L402.348065,200.488167L397.967459,204.977089L397.088674,206.902764L393.235948,208.606326L391.655702,210.743705L387.971663,213.945055L385.519347,214.579345L384.989463,216.076684 " class="Federal"/><path d="M385.519347,214.579345L383.608290,210.289029L383.625442,205.148599L385.732283,202.585675L384.708393,194.870696L384.897154,190.587013L386.127393,188.234778L385.439935,184.804803L383.880933,181.157412L384.411002,179.231165L382.685446,173.654750L382.349521,170.011365L383.403172,167.872716L384.128372,159.733729 " class="Federal"/><path d="M395.506427,138.127509L398.121755,135.134013L400.569437,128.497159L402.660574,125.287318L402.498680,119.073616L404.247979,111.577978 " class="Federal"/><path d="M415.722755,79.458245L417.450946,82.458054L419.525519,87.385704L421.775339,91.456374L422.294054,97.454692L426.280853,103.453050L426.454684,105.381157L428.190422,109.665485L428.712059,112.450484L427.845325,114.807560L428.542505,121.877681L428.024383,129.591229L426.460845,131.734317L424.201439,137.519740L424.027609,142.019316L425.420332,148.875706L424.898517,153.375326L424.027829,155.518011L424.376421,160.660291L423.156475,163.445662L422.458299,171.801573L417.398204,175.227820L414.255271,178.225033 " class="Federal"/><path d="M942.305533,48.162431L944.697686,48.695017L948.913886,45.100356L951.546571,43.704891L956.430587,43.484064L958.923846,42.732023L960.198431,44.589241L962.103633,45.565956L960.853233,47.538897L963.116956,48.924523L965.903234,47.305877L969.975989,47.627891 " class="Federal"/><path d="M829.276743,98.713034L829.408633,97.640897L845.719537,90.225456L849.561041,87.950470L853.179193,84.402458L854.928055,81.136824L858.241911,78.666237L862.480004,73.813508L869.863434,66.920680 " class="Federal"/><path d="M793.486419,136.021368L796.002536,134.016296L798.759412,134.139208L801.294530,132.773421L803.857131,132.260709L805.860836,130.484602L809.236881,128.661823L810.796262,129.036049L817.295105,128.172244L823.730033,125.598682L824.683044,123.429739L823.095081,122.204243L823.987067,118.329223L826.636347,115.673710L825.657679,112.291670L828.521801,110.909682L829.898787,111.074463 " class="Federal"/><path d="M744.738660,100.731133L746.575398,104.741748L748.006742,106.625612L750.273050,107.630539L752.164144,107.576832L753.239777,109.042473L755.493672,109.619058L759.683258,111.635047L760.224668,112.474200L764.414980,114.488128 " class="Federal"/><path d="M402.511404,25.271226L398.215576,22.480762L393.400461,21.613628L389.271503,21.602571L380.690377,16.653438L379.658704,16.649735L376.060798,13.854578L371.786276,9.344165L370.929423,8.912611 " class="Federal"/><path d="M428.197751,128.519856L430.285737,133.446914L429.592763,138.161097L430.811726,140.731602L435.864192,148.226682L436.393634,154.868291L438.662171,158.293750L440.929499,160.004645L443.028524,164.929222L446.175180,169.637033L451.067799,173.911268L457.350682,174.965553L463.465806,177.730816L466.439815,179.862306L469.581888,180.064184L472.737318,183.478568L478.172170,188.594864L480.456607,191.582530 " class="Federal"/><path d="M481.511881,193.076600L482.916816,194.568697L490.486181,204.807210L492.085234,209.295166L494.736398,213.990094L494.396423,215.705509L492.654950,217.215561 " class="Federal"/><path d="M786.238765,114.033321L788.662876,114.597432L792.960767,114.673479L796.486098,112.209441L799.373306,111.260802L804.058035,107.688884L808.841358,107.102434L810.703589,106.399159L812.006895,104.433085L815.892405,102.806426L818.034203,100.384280L820.539632,98.590022 " class="Federal"/><path d="M740.960943,131.409121L745.916821,129.773601L749.122905,127.330952L752.874550,125.940799L760.608236,119.516615L761.238544,117.574344L764.414980,114.488128L770.013749,117.526425L772.234941,117.031686L775.776637,114.786471L778.070487,116.639098L782.969775,113.922470 " class="Federal"/><path d="M243.443131,151.301285L245.703988,151.122848L248.122245,152.017018L258.578818,149.818439L264.281778,152.041400L269.993526,153.833450L270.500744,154.911103L274.504676,154.536180L277.283582,154.786571L279.551873,154.173126L285.627198,155.105424L288.079508,153.635756L290.151305,154.945433L293.813319,154.131219L296.962783,152.453307L300.779633,153.352056L303.029543,154.447193L309.935417,159.873658L311.300885,162.671948L317.199164,165.085358L320.512097,164.687709L325.035063,165.370783L327.141374,163.461054L330.979948,162.636330L333.605759,160.943780L334.662169,159.452569L336.230919,159.250575L340.038532,162.492793L342.993726,163.371203L351.187046,162.569827L352.774639,159.366336L362.722911,155.567896L373.864714,156.265126L375.434795,155.629168L379.963471,155.433304L384.663373,156.093249 " class="Federal"/><path d="M386.937122,153.101257L393.031470,153.119394L395.642346,153.554686L401.391833,152.067652 " class="Federal"/><path d="M347.082299,27.828791L350.170625,29.132051L352.412386,28.503472L355.333864,29.162419L357.923723,27.892736 " class="Federal"/><path d="M439.094502,223.844359L436.808958,216.137394L435.056679,214.425902L432.425212,206.289108L431.547411,201.363090L430.671907,199.221563L426.824778,195.367373L425.775882,193.653836L424.726984,187.869831L423.504477,184.013634L422.282372,183.156578L415.126263,180.368177 " class="Federal"/><path d="M157.823062,34.545568L157.195492,39.020494L152.581036,38.489224L150.111897,54.465898L150.256018,55.538223L157.132920,68.952782 " class="Federal"/><path d="M164.406693,110.400705L164.318970,106.761671L165.630873,102.298221L165.558436,98.017872L163.682923,97.120317 " class="Federal"/><path d="M472.769369,70.792630L472.950971,72.719354L477.653078,79.766596L480.956155,82.963795L483.744226,86.591139L487.207827,87.001346L490.666322,86.553797L492.925375,88.040046L496.383757,87.590805L501.078683,90.773655L502.828099,93.332288L504.948251,99.101100L507.726139,99.938265L510.141124,98.635463L512.742444,99.044332L514.486687,100.530281L516.911626,100.511180L520.226755,103.268767L521.802963,105.183375L524.240288,106.447769L529.613744,106.614315L534.822198,107.636691L536.032884,107.410875L539.462190,103.950360L541.538194,103.715373L544.671752,105.182477L558.727122,107.383689L564.639226,109.240913L566.733897,110.500230L569.510544,110.893979L571.753423,110.223126L573.848732,111.481085L576.437567,110.804846L578.482678,108.422208L580.909222,108.603744L584.358805,107.700006L589.678951,104.627528L593.315112,104.789174L595.204688,103.905024L601.074729,103.174692L609.085557,106.475173L611.664989,105.577367L615.979968,105.078586L617.918991,107.187067L619.974800,106.082122L623.247617,105.384136L626.378129,106.400209L627.976893,108.726812L631.843652,112.082883L634.609854,112.032790L639.335008,114.942287L645.065351,116.118091L652.239580,120.258694L654.123814,119.365068L655.364763,120.838299 " class="Federal"/><path d="M497.153196,125.502134L500.806922,126.549479L502.907220,128.891817L505.343369,129.517513L505.524797,130.587389L508.866848,136.133169L512.887142,139.101858L518.651279,142.483168L524.218040,142.864064L527.184900,144.122917 " class="Federal"/><path d="M185.958574,144.891665L189.177594,140.036124L189.576681,137.476100L192.580863,134.541019L194.363831,132.008616L201.586950,125.729930L203.671638,125.342008L209.179145,117.954455L211.323708,114.355316L214.693396,109.921702L216.614804,108.885988L223.008882,99.580011L227.534810,97.730704 " class="Federal"/><path d="M51.703239,216.043522L61.564290,205.054914L74.554169,199.279706L75.821544,197.396845L80.914858,194.992132L90.062046,183.944941L93.272058,180.621000L97.137527,178.597528L108.875506,173.590447L110.830291,171.721092L115.487242,165.863308L115.705383,164.158668L123.504891,157.098894 " class="Federal"/><path d="M357.923723,27.892736L358.445391,27.039528L363.788803,25.569168 " class="State"/><path d="M732.560458,95.931035L735.814237,95.416423L741.012518,96.771968 " class="Federal"/><path d="M709.958661,54.814864L710.604157,53.302915L720.758135,42.367166 " class="Federal"/><path d="M384.128372,159.733729L384.840433,155.236832L386.937122,153.101257 " class="Federal"/><path d="M737.542524,132.572794L741.311679,131.613173 " class="Federal"/><path d="M412.441041,74.529235L412.269273,73.458171L409.675241,73.883705L407.947778,72.810622 " class="Federal"/><path d="M436.849381,97.233328L442.051510,99.582887L455.274861,117.979339L458.760607,122.468601 " class="Federal"/><path d="M782.969775,113.922470L784.151058,113.244412L786.238765,114.033321 " class="Federal"/><path d="M210.953199,143.246352L216.816669,145.067026L226.119635,148.871955L228.172823,150.620237L236.994377,152.695769L243.443131,151.301285 " class="Federal"/><path d="M198.863762,140.873529L201.990510,140.506730 " class="Federal"/><path d="M166.917075,121.368687L166.941521,120.299422L164.406693,110.400705 " class="Federal"/><path d="M175.146354,132.248959L169.574528,126.135149L170.179645,122.297058L169.152822,121.846398 " class="Federal"/><path d="M163.682923,97.120317L162.512255,95.596589L158.224872,87.584951L157.770965,85.007872L159.574733,81.626485L159.637046,79.061239L157.418512,71.311690L157.132920,68.952782 " class="Federal"/><path d="M58.160734,208.786642L65.424778,209.240070 " class="Federal"/><path d="M460.329055,124.177769L463.453743,123.738958L470.232863,125.213437L475.792592,125.618218L480.667468,127.951921L486.230792,128.780091L489.008937,128.550451L492.996190,127.241742L495.416753,125.513050L497.153196,125.502134 " class="Federal"/><path d="M177.280127,153.694418L179.181815,153.949680L181.115225,152.707314L181.329043,150.785892L185.958574,144.891665 " class="Federal"/><path d="M164.970492,153.847437L170.190586,152.895814L174.694835,152.995847 " class="Federal"/><path d="M311.527056,54.731982L314.458269,54.759229L319.486266,52.021314L322.585468,52.476141L325.183706,51.213441L330.191166,50.397434L331.589049,48.267582L335.553741,48.297487L337.634582,46.814160L341.607400,45.771748L344.895057,44.081318 " class="Other"/><path d="M299.615592,197.673744L300.006973,193.609272L299.704863,189.108629L298.334141,186.737550L296.766692,186.505691L294.350792,184.122226L297.351829,180.729852L299.310257,176.896632L298.810239,174.749307L297.753286,175.808391L292.358889,175.104080L289.610635,171.644901L289.667247,166.719591L287.648501,160.698508L288.543483,158.567450L291.353978,156.244640L293.885946,147.706381L295.117126,146.435213L296.400657,140.452235L294.863905,138.078899L295.061843,135.939222L297.497686,135.537958L298.762871,131.053768L297.911668,129.545123L298.627275,127.625218L297.277567,124.183428L295.389004,122.449049L295.076541,119.447006L297.547578,115.619010L299.684946,110.501811L301.975062,107.099248L301.825414,104.955931L300.629801,103.444130L300.653670,101.302700L299.470773,98.720170L299.694612,94.225233L298.693211,91.002298L297.156449,89.272618L298.403821,86.073921L298.983863,80.726782L300.230039,77.528061L301.964782,76.903757L304.757057,74.362824L304.615083,71.577893L307.419527,67.751864L310.948644,60.506671L311.527056,54.731982 " class="State"/><path d="M309.845613,242.870619L309.886085,238.464092L308.341244,235.023008L300.528631,228.087761L299.329546,225.505327L301.278023,223.172316L301.664385,219.537043L303.082788,217.625769L304.692500,214.003404L304.545080,211.218276L301.237050,209.897381L298.810318,207.943142L299.613368,197.887864 " class="State"/><path d="M344.895057,44.081318L346.665541,37.671220L345.826663,34.669305L345.839423,32.957170 " class="State"/><path d="M346.191683,31.889332L346.384465,29.108381L347.082299,27.828791 " class="State"/><path d="M581.204388,45.662266L581.350963,43.948451L585.119969,42.828413L588.470127,37.005973L594.129283,36.071356L595.991838,34.333385L597.996950,30.881850L600.629175,23.998954L600.202263,19.086198L600.695053,17.795888L602.746161,17.338115L605.445416,14.731968L605.586753,13.019236L607.133501,13.209838L609.140686,10.399852 " class="State"/><path d="M443.643916,220.624763L445.389528,217.409014L448.186122,215.047313L452.383692,213.538041L454.305697,212.247844L456.055711,212.242888L461.454579,203.872549L462.501750,203.226364L463.711536,198.938062L464.755197,197.434829L464.921126,194.863694L467.188031,193.569838L480.456607,191.582530 " class="State"/><path d="M481.511881,193.076600L486.904351,188.763256 " class="State"/><path d="M511.661869,160.748530L515.636518,156.860992L526.550872,150.983618 " class="State"/><path d="M678.627703,102.373946L682.248584,102.293826L685.493775,100.937463L687.855640,98.744724L691.254949,96.741734L694.583992,91.958891L695.945279,91.285497 " class="State"/><path d="M812.657176,64.907328L813.533355,65.518718L819.905383,62.316662 " class="Federal"/><path d="M819.881816,61.677078L827.715539,56.714863L829.418545,56.656275L831.583413,55.301026L834.622891,54.555169L837.905729,55.720403L839.843764,57.359002L840.420523,59.045575L844.766721,61.237558 " class="Federal"/><path d="M770.628759,71.565008L773.557264,66.778119L779.872325,61.034852L784.050999,58.131315L789.087014,55.413775L790.779397,54.934198L796.811063,51.542432L800.881520,50.772789L806.392334,47.393682L810.759851,45.544144 " class="Federal"/><path d="M841.013261,39.396653L845.165876,36.903555L847.117535,34.701309L850.238247,32.030587 " class="Federal"/><path d="M585.010249,230.807170L583.924526,228.040835L582.350586,228.063702L581.451400,226.150389L583.363696,225.266631L585.920941,220.306335L585.024494,218.607129L581.496276,216.089517L579.544129,213.762526L577.262216,212.938185L574.607095,210.191692L575.270839,207.399485L576.823364,205.879510L576.272472,203.746155L577.987832,201.367373L577.049465,196.241817L575.978198,194.329486L576.119785,191.758134L579.680467,184.000562L581.891273,179.901140L588.725709,170.381179L592.131682,165.191718L593.305411,162.176344L599.492740,157.371180L599.971603,154.580136L602.507589,150.043925L606.776644,145.479584L613.391399,136.164901L617.633961,130.741394L618.795115,127.724416L619.041368,121.939816L620.531884,118.060945L620.832775,115.486847L622.690117,112.886119L618.272281,107.609298L616.667745,104.853108 " class="Federal"/><path d="M615.534024,99.306001L615.650925,96.093091L613.481880,90.562956L612.515094,84.585108L616.707613,77.667849L617.006703,75.094679L618.014176,73.580008L617.956461,70.370812L619.406123,64.782994L621.265019,62.826299L622.731040,58.308393L622.839272,54.883232L624.687225,52.498760L626.926841,43.689854L626.869202,40.696159L627.498381,37.690973L626.548798,33.001671L624.084047,29.834902L622.874522,29.427213L622.821495,26.647920L623.834513,25.775775L624.797720,22.338349L622.874327,20.445671L620.641036,20.268350L616.656880,18.194118L615.468434,18.854458L613.714279,16.743751L611.033591,10.798499L607.940999,10.418053 " class="Federal"/><path d="M747.261461,171.638734L745.860356,171.037819L745.449969,168.697981L743.846993,167.033559L739.881528,167.573672L738.596049,164.830324L738.670764,161.193429L736.561906,159.969366L732.988414,162.206416L729.858741,161.650538L728.324595,162.547547L726.500243,158.961405L726.756705,155.532924L726.193373,153.837222L727.976301,149.298508L730.337961,147.096333L732.790309,141.897591L732.053761,140.206900L736.952771,136.224040L738.267700,133.835739 " class="Federal"/><path d="M739.960332,120.318599L739.954326,120.104955 " class="Federal"/><path d="M347.082299,27.828791L346.940286,23.761965L347.805025,23.125461L350.382011,23.569325 " class="Federal"/><path d="M436.289445,221.706325L436.466366,223.419379L439.094502,223.844359 " class="Federal"/><path d="M962.523818,63.946957L959.036711,61.884227L954.040675,59.984280L950.993598,59.909865L948.927254,59.151601L945.744994,56.313582L942.431102,57.739137L941.295242,55.234167 " class="Federal"/><path d="M438.945777,245.470697L438.241601,243.544859L438.929330,231.981956L439.451681,229.197492L439.094502,223.844359 " class="Federal"/><path d="M440.492719,221.486615L439.263180,218.704283L439.776948,209.922260L439.423671,207.352466L441.693448,204.350283L442.211247,199.851134L443.781861,198.134744L442.729984,196.208646L444.646915,192.991951L446.038339,189.561683L447.434903,189.130370L450.730199,178.839691L451.941036,174.337616L452.622994,167.908425L454.171448,159.976960 " class="Federal"/><path d="M458.760607,122.468601L459.797725,120.965659L460.653194,117.106487L460.464857,112.607942L461.150953,110.249104L461.302698,103.821549L465.413104,90.525996L467.799135,81.092585L468.658801,79.804227L470.877635,72.941948L471.042059,71.013805 " class="Federal"/><path d="M459.124705,127.823841L459.632290,123.537193 " class="Federal"/><path d="M471.214888,71.013115L471.360256,64.802048L472.896163,60.727144L474.096727,59.009086L475.261653,50.011318L474.901193,46.801442L473.670903,41.882749L473.639437,35.246999L473.274713,30.967695L472.405867,29.258989 " class="Federal"/><path d="M798.704362,42.302599L797.405964,39.354928L795.271304,36.860172L792.219701,37.381911L791.500917,36.336746L788.026565,34.522110L785.470619,34.599875L783.345244,32.315729L783.294067,30.822890 " class="Federal"/><path d="M588.811699,240.380257L589.574523,245.075987 " class="Federal"/><path d="M680.494664,101.049121L675.554685,96.236487L675.683006,94.308215L673.828056,88.571764L672.401389,86.462841L670.138181,85.441041L666.631443,82.733082L659.914475,74.954330L658.997997,72.405449L659.276871,69.404870L657.942130,63.441664L659.748855,59.555520L659.181390,57.213950L660.527712,55.903852L663.085712,54.997075L662.708568,53.507534L665.741839,50.879843L667.037030,47.431841L669.865240,43.524832L672.261875,43.261406L672.857155,39.400403L672.418199,35.347359L671.309027,31.949706L672.618834,29.357384L674.960418,26.957393L675.266832,25.454755L678.596787,21.537669L681.484632,20.621532L683.344789,12.888819 " class="Federal"/><path d="M650.150824,128.219086L652.685449,125.172400L656.357727,118.678125L658.732590,116.489847 " class="Federal"/><path d="M671.369038,109.592101L676.237829,103.495974L678.627703,102.373946 " class="Federal"/><path d="M635.454089,147.979536L637.790044,143.012408 " class="Federal"/><path d="M607.860869,192.349730L609.536406,188.040491L610.507207,183.314600L612.381211,180.714217 " class="Federal"/><path d="M450.585482,46.666286L455.058553,43.015945L460.562370,39.361095L461.763257,37.858911L464.684874,35.922830L467.253772,32.275058L469.827391,30.125185L473.606811,28.398011L475.486446,25.607936L477.187475,21.748555L476.664879,20.466902L476.818243,16.828591L477.662291,13.829391L476.262125,8.914726 " class="Federal"/><path d="M931.410964,43.102357L932.847990,41.336597L935.633280,39.512253 " class="Federal"/><path d="M195.839870,102.075244L198.770155,102.346423L202.943738,100.928443L206.565287,101.210742L207.988503,99.097005L210.594858,98.288956L214.899259,99.009132L217.003684,97.334408L220.272786,98.034138L224.022121,100.881788L225.235372,100.688512 " class="Federal"/><path d="M344.546946,21.820706L342.844001,19.669736L342.004674,17.096576 " class="Federal"/><path d="M421.610366,51.834532L420.920750,49.693245L416.266648,44.338676L411.960539,40.267582L410.757749,37.269332L402.846564,29.766373L402.510964,25.485243L404.927181,21.851066L406.313406,16.075385L405.803147,12.865073L406.154688,8.372564 " class="Federal"/><path d="M480.456607,191.582530L481.511881,193.076600 " class="Federal"/><path d="M458.760607,122.468601L459.632290,123.537193 " class="Federal"/><path d="M706.220873,157.990661L708.795901,157.070302L711.521955,155.289988L716.429910,150.886261L730.707363,141.526412L732.053761,140.206900 " class="Federal"/><path d="M678.222760,193.530950L678.158888,190.537381L678.831089,189.452323L681.260821,181.266850L681.762996,180.399502L689.101495,174.665535L694.335083,168.336604L695.023431,168.106077 " class="Federal"/><path d="M653.762603,243.464182L654.368270,238.548538L653.867737,230.431752L654.660038,226.137122L657.831308,218.583072L662.346712,217.630328L667.132052,212.819491L672.952329,207.769530L675.291049,203.010443L675.576297,200.009094L677.394468,195.475246 " class="Federal"/><path d="M953.479590,8.506211L954.643518,8.241785L960.312020,10.540700L963.095305,12.329310L966.081238,11.555592L969.646410,15.433406L973.111911,17.400291L975.246693,16.450592L977.035493,18.493843L979.192029,17.967671L982.242437,18.462202L983.923434,24.761897L986.730386,26.967387L988.600067,30.492824L988.906473,36.219785L990.046433,37.633052 " class="Federal"/><path d="M328.827472,243.063345L329.691223,238.224589L332.160800,236.104836L336.735276,233.573182L340.623396,228.679092L347.497438,221.877107L348.924364,217.604116L348.949472,213.535430L350.917965,206.266971L355.704936,194.731232 " class="Federal"/><path d="M404.350327,54.602411L403.838603,51.389775L402.290113,49.245981L400.919379,44.961447L401.618137,40.681068L401.280768,37.255307L401.633548,33.402932L403.534050,30.409659 " class="Federal"/><path d="M803.124495,149.523364L803.047784,149.377309L797.093559,146.371581L794.512475,146.456655L791.821542,143.126200L790.700263,140.385044L792.633607,136.262783L793.486419,136.021368 " class="Federal"/><path d="M112.376132,205.328913L116.541471,205.445897 " class="Federal"/><path d="M241.661594,210.574739L248.297130,210.468132L252.697594,207.968483L256.371988,207.382516L257.934115,208.048251L260.907602,207.664293L267.941026,203.912025L270.564815,203.520414 " class="Federal"/><path d="M65.424778,209.240070L71.492208,209.223040L76.713686,208.534920L79.133272,208.824809 " class="Federal"/><path d="M151.750686,201.238430L153.305355,201.704325L154.812488,204.307592L157.594618,204.375020L164.684083,206.468678 " class="Federal"/><path d="M174.380349,209.045085L188.613885,211.711107L194.676023,213.764307L200.559388,216.238597 " class="Federal"/><path d="M224.573899,209.637610L225.812350,208.589823L228.592597,209.281348L230.839800,210.604947L234.151416,210.876355 " class="Federal"/><path d="M299.790177,197.675691L300.322785,196.825030L306.426966,197.533541L310.294908,194.789600L312.042727,194.593105L315.344293,196.339055L319.356880,196.805753L322.658748,198.763757L327.549823,198.807157L331.730955,200.341762L336.621795,200.595371L340.283932,201.694374L341.326628,202.558866L346.527533,209.235581L348.977317,209.038242L355.439992,210.579208L356.485968,211.228120L362.601357,212.762818L365.400911,212.777963L366.980726,211.715350L371.183622,210.879451L375.371500,213.682830L380.095117,214.130869 " class="Federal"/><path d="M440.492719,221.486615L443.643916,220.624763L445.220838,221.050138L448.552732,223.184733L452.590529,227.029572L455.395623,227.664295L456.279089,230.445468L458.208155,230.867854L464.531749,235.128613L470.843120,235.103340L474.168755,233.803894 " class="Federal"/><path d="M432.610522,220.639061L436.289445,221.706325 " class="Federal"/><path d="M274.074758,202.069646L277.951497,199.123703L280.921042,198.948162L285.621323,200.078216L288.746768,201.615533L295.395897,200.409624L296.636370,198.710789L299.613368,197.887864 " class="Federal"/><path d="M262.959586,122.684484L263.188073,118.833126L261.675411,115.599928L259.921775,105.297111L260.705509,99.098739L259.725389,95.231025L260.544518,86.678557L256.899100,76.565687L256.062880,74.841323L253.843715,73.311161L249.111564,67.248998L241.454196,61.355197L239.600235,58.972614L237.384322,57.654123 " class="Federal"/><path d="M236.201858,56.351636L236.438002,52.717826L235.481550,48.423575L235.913116,33.883339L236.689310,28.042705 " class="Federal"/><path d="M227.534810,97.730704L231.898370,95.234656L238.484216,94.056731L241.583042,94.747751L244.357923,94.148512L249.189091,94.649955L254.051120,93.223015L257.507402,93.272730L260.250357,94.810182L264.908591,95.516850L266.952841,97.685679L268.160385,97.915982L276.993003,97.174014L283.794010,92.974873L288.505765,89.604166 " class="Federal"/><path d="M346.459915,90.130141L352.184428,88.238811L355.832176,86.118628L358.605932,85.277607L367.947739,85.754129L371.934134,84.487253L374.357666,84.283508L376.266720,83.006233L377.823010,83.226613L378.508874,84.728632L380.240253,84.520983L384.383438,87.320214L386.978502,87.757054L388.884769,87.120271L391.479396,87.770322L396.505660,85.426845L400.839508,82.223122 " class="Federal"/><path d="M300.975382,88.028405L303.401020,87.625274L307.751556,85.099357L312.413364,85.786961L315.534538,84.959547L319.843349,86.497592L325.199392,87.186314L340.763117,88.163509 " class="Federal"/><path d="M527.184900,144.122917L527.532604,144.119765 " class="Federal"/><path d="M81.546905,238.928906L78.532062,236.361286L74.826088,232.184938L70.846642,231.629173L60.800580,224.891846L53.740887,223.159407 " class="Federal"/><path d="M127.811976,157.854419L128.547444,156.162753L128.629321,152.956826 " class="Federal"/><path d="M257.611842,41.904900L260.076477,38.301495L271.301565,35.239841L278.399703,31.904357L280.468721,31.501230L289.237917,31.602309L292.518781,30.568642L293.413353,27.796843L298.651015,21.219838L302.792512,19.764338 " class="Federal"/><path d="M128.629321,152.956826L138.321435,145.933330L145.728873,140.127658L148.032832,137.830578L159.315954,128.684334L160.880919,128.292489L164.593079,124.739818L164.829786,121.963696L166.917075,121.368687 " class="Federal"/><path d="M40.967987,215.885930L50.645096,216.648023L51.703239,216.043522 " class="Federal"/><path d="M33.483810,217.115149L40.541733,218.432927 " class="Federal"/><path d="M169.152822,121.846398L175.154795,116.200433L182.846938,112.084023L184.583035,111.692133L194.445677,102.689790L196.012486,102.078632L200.764340,97.676649L213.333004,81.645327L218.754729,77.675160 " class="Federal"/><path d="M235.089757,60.827670L237.384322,57.654123 " class="Federal"/><path d="M325.784696,23.823215L330.093388,22.787455L339.563492,21.359161L345.577154,22.041375L347.287455,23.336189 " class="Federal"/><path d="M356.803510,14.833600L360.767277,13.143152L364.218127,10.807118L365.775442,8.889197 " class="Federal"/><path d="M562.261838,85.499727L564.804170,81.615409L565.625969,78.393943 " class="State"/><path d="M567.426034,70.878947L571.897802,69.753409L573.753824,66.733090L576.636995,63.271373L577.622204,59.833947L579.483641,57.455354L580.645621,54.443775L581.204388,45.662266 " class="State"/><path d="M711.299377,99.043317L714.219797,98.756712L716.031089,102.132893L719.593237,106.533304 " class="State"/><path d="M486.904351,188.763256L491.598033,185.094193L493.152658,182.299871 " class="State"/><path d="M502.140824,169.387534L505.776900,165.934109L510.112055,163.116929L511.661869,160.748530 " class="State"/><path d="M526.550872,150.983618L527.184900,144.122917 " class="State"/><path d="M695.945279,91.285497L700.517078,95.027702L702.749566,94.760484 " class="State"/><path d="M704.853244,96.206960L708.156710,97.409801L709.522649,96.948537L711.127243,99.047582 " class="State"/><path d="M786.238765,114.033321L784.548941,109.599551L784.637639,107.032790L783.813016,102.785342L781.081546,97.955940 " class="State"/><path d="M527.532604,144.119765L530.827664,143.232503L535.179452,143.833537L537.413546,141.241035L540.024498,141.643204L542.259043,139.264037L544.158727,138.173212L549.141626,133.193275L552.075998,131.661519L555.155533,127.771370L558.783693,126.444292L566.662028,118.425029L566.247152,113.076111L564.493109,111.384267L564.812410,109.238810 " class="Federal"/><path d="M754.188209,94.694029L755.879240,93.790801L765.970815,92.429033L769.781191,88.042327L772.990447,86.450687L776.732727,85.483127L780.609963,83.442106L787.030916,80.680187L795.498222,77.850233L804.615972,69.441607L812.657176,64.907328 " class="Federal"/><path d="M844.766721,61.237558L846.672125,62.022440L850.210088,65.307895L852.464608,66.292242L856.896886,66.342186L859.347021,67.957739L864.994327,68.598885L870.704423,66.675224L875.301154,66.711557L876.114920,65.826999L878.340925,66.167020L880.485653,64.590588L883.520392,59.993865L885.859032,59.048917L890.250156,58.448331L895.534549,55.039140L899.722439,53.804110L903.352371,51.525026L904.629841,49.767933L907.806119,48.785068L913.608130,45.987825L918.350202,46.002240 " class="Federal"/><path d="M850.238247,32.030587L854.134257,27.625625L857.640752,26.219235L860.351733,26.120274L863.846317,24.499538L869.626627,20.874548L876.620584,18.054161L880.687148,18.112509L882.180162,17.416113L886.759355,13.830874L891.429370,12.371242L895.788011,11.561255L899.002962,11.647098L903.476259,13.385386L906.422330,11.350273L911.536550,8.800794L915.440682,9.279870L919.935811,8.030013L921.471092,8.392042L923.944009,7.224691L925.310588,7.593236L928.423622,5.759761L930.966689,6.078000 " class="Federal"/><path d="M798.704362,42.302599L799.832690,45.255540L802.358525,44.321279L803.736884,44.704123L809.985322,43.008132L810.759851,45.544144L813.631501,44.809686L817.060341,45.336615L818.917052,44.847980L825.051650,44.855084L828.874905,42.377767L836.384307,38.491946L839.782142,38.373315L841.013261,39.396653 " class="Federal"/><path d="M750.423346,95.228147L752.941671,93.233266L753.913990,91.282022L758.145824,89.237519L761.484614,86.149139L766.420507,79.380776L768.347706,75.264439L770.628759,71.565008 " class="Federal"/><path d="M615.534024,99.306001L616.251279,100.792646L616.667745,104.853108 " class="Federal"/><path d="M738.267700,133.835739L737.691326,131.713407L738.351352,130.626118L737.715654,126.367201L739.960332,120.318599 " class="Federal"/><path d="M739.954326,120.104955L741.247438,117.075948L741.784274,111.716080L741.336703,108.093878L742.264735,104.433845 " class="Federal"/><path d="M941.295242,55.234167L940.568836,54.201587L941.775104,51.166962L942.305533,48.162431L939.431698,44.669424L938.151981,39.189523L935.633280,39.512253 " class="Federal"/><path d="M459.124705,127.823841L458.278840,135.325419L456.390325,143.687090L456.745686,146.257202L454.171448,159.976960 " class="Federal"/><path d="M439.094502,223.844359L440.843904,222.128554L440.492719,221.486615 " class="Federal"/><path d="M772.055667,11.088800L770.332535,10.498030 " class="Federal"/><path d="M783.294067,30.822890L783.435155,29.964734L781.459059,27.035316L779.972627,23.450639L776.251777,19.291189L773.206309,14.897456L772.359948,10.012881 " class="Federal"/><path d="M817.798485,74.769603L818.837998,70.464664L818.395530,67.704326L820.091585,62.737298L819.307549,59.988765L816.819296,57.297230L816.832955,53.027752L815.740152,51.143098L816.806621,47.692710L816.379338,45.359211 " class="Federal"/><path d="M658.732590,116.489847L661.460808,114.721924L666.437518,113.120411L669.829745,110.266888L671.369038,109.592101 " class="Federal"/><path d="M612.381211,180.714217L615.301649,178.309810L619.225017,173.532458L620.598261,172.438109L622.264383,168.127302L624.486971,165.947171L627.868099,160.534687L633.111628,152.732415L635.454089,147.979536 " class="Federal"/><path d="M604.837735,199.891671L605.861180,198.376506L607.860869,192.349730 " class="Federal"/><path d="M678.627703,102.373946L680.494664,101.049121 " class="Federal"/><path d="M637.790044,143.012408L642.878709,137.136313L644.759084,135.815812L650.150824,128.219086 " class="Federal"/><path d="M386.937122,153.101257L389.396055,146.038397L392.366756,141.547489L395.506427,138.127509 " class="Federal"/><path d="M699.131793,115.595258L699.351603,117.515233L701.625968,118.743989L702.358443,120.437541L705.528132,122.927066L707.706213,127.151357L708.736394,126.911858L708.957488,128.831436L711.806042,132.182317L712.367411,133.879271L713.943155,134.694846L717.234537,135.038361L720.965237,132.375265L723.219792,132.744045L729.747033,131.501591L734.242709,131.807805L737.542524,132.572794 " class="Federal"/><path d="M227.534810,97.730704L225.235372,100.688512 " class="Federal"/><path d="M342.004674,17.096576L339.973393,13.231720L339.321297,8.948689 " class="Federal"/><path d="M695.023431,168.106077L704.856898,158.880355L706.220873,157.990661 " class="Federal"/><path d="M678.222760,193.530950L677.394468,195.475246 " class="Federal"/><path d="M117.987180,86.599547L118.661895,93.245125L120.122365,102.691472L123.649121,105.991094L126.312059,109.481576L130.188975,112.788876L134.525624,118.459472L135.505305,120.622949L139.191781,124.992894L140.011603,126.724439L144.848977,133.688624L148.765464,136.136887L150.772654,138.966248L156.585876,141.885471L160.168981,144.108648L165.350431,144.655635L169.302747,146.028714L171.005674,147.350628 " class="Federal"/><path d="M942.070937,9.219583L942.302762,10.486227L944.908482,12.074974L948.393544,11.071093L951.486960,9.019933L953.479590,8.506211 " class="Federal"/><path d="M355.704936,194.731232L357.121710,191.312544L355.932312,185.521703L356.308390,180.811179L357.535861,179.747382L358.599371,176.754449L361.227360,174.627082L361.764213,172.059257L364.045309,169.286507L365.456082,166.080285L373.168105,156.262039L373.704538,153.050635L383.286665,151.374773L386.937122,153.101257 " class="Federal"/><path d="M793.486419,136.021368L791.511405,128.180217L789.236020,126.971472L785.503899,123.244375L786.238765,114.033321 " class="Federal"/><path d="M474.168755,233.803894L479.062323,230.568588L483.247149,226.264232L486.392443,224.747864L490.047081,220.443725L495.475381,220.623919L497.222127,219.970009L498.073847,216.109705L500.687848,214.378624L500.668825,211.380578L502.571969,208.154777L504.488330,207.070171L506.761318,207.053405L509.897700,205.530357L515.478422,203.772361L517.029745,200.975285 " class="Federal"/><path d="M631.716151,221.889629L636.279848,223.299923L639.068482,223.031623L640.597323,220.648140L644.970316,221.202769L650.583852,222.799635L655.832646,223.545493 " class="Federal"/><path d="M380.095117,214.130869L382.176229,219.707187L391.634664,218.668057L393.559634,219.101835L395.838428,218.037031L397.764402,218.041749L400.043930,216.333545L402.320562,215.909870L404.944834,216.985531L407.922027,216.347708L410.196274,217.849951L413.525065,215.497664L417.376300,215.714763L420.002751,214.216746L423.153430,216.144983L425.429361,216.144891L431.383248,218.498315L432.610522,220.639061 " class="Federal"/><path d="M79.133272,208.824809L81.039426,208.884496L83.161157,207.454907L88.557856,206.766179L97.065034,206.594876L108.883441,206.084572L112.376132,205.328913 " class="Federal"/><path d="M116.541471,205.445897L120.034802,204.687668L124.444177,202.028986L126.411953,199.730327L136.599782,195.081474L140.082087,194.743486L141.395439,197.984838L144.303304,199.983362L147.406033,201.130652L151.750686,201.238430 " class="Federal"/><path d="M270.564815,203.520414L274.074758,202.069646 " class="Federal"/><path d="M234.151416,210.876355L236.956517,210.068073L241.661594,210.574739 " class="Federal"/><path d="M164.684083,206.468678L168.846383,207.207326L174.380349,209.045085 " class="Federal"/><path d="M237.384322,57.654123L236.201858,56.351636 " class="Federal"/><path d="M340.763117,88.163509L343.704802,88.183968L346.459915,90.130141 " class="Federal"/><path d="M288.505765,89.604166L296.131420,88.190790L298.893066,88.648831L300.975382,88.028405 " class="Federal"/><path d="M40.541733,218.432927L40.967987,215.885930 " class="Federal"/><path d="M302.792512,19.764338L304.854351,19.784729L314.108783,22.225377L323.547256,24.018870L325.784696,23.823215 " class="Federal"/><path d="M350.382011,23.569325L350.732062,22.715492L354.021703,19.525166L356.803510,14.833600 " class="Federal"/><path d="M237.384322,57.654123L238.967108,55.752998L257.611842,41.904900 " class="Federal"/><path d="M218.754729,77.675160L221.917398,74.519793L225.266759,70.510660L231.733975,65.481590L235.089757,60.827670 " class="Federal"/><path d="M166.917075,121.368687L169.152822,121.846398 " class="Federal"/><path d="M526.023813,210.747195L527.774081,210.945032L529.191445,213.072966L530.596044,213.701876L530.972248,216.695977L529.770186,219.277004 " class="Federal"/><path d="M564.406346,104.532347L562.807944,101.339297L562.026986,94.281836L562.261838,85.499727 " class="State"/><path d="M585.810891,238.499389L586.299426,235.710226L584.999037,229.951272L588.092714,225.838969L588.410724,223.479903L590.606890,217.881869L594.941036,215.460955L599.915178,209.175407L601.124305,208.299888L603.684398,204.405652L604.837735,199.891671 " class="Federal"/><path d="M894.626269,12.032976L894.620727,8.199349L895.564704,6.671443 " class="Federal"/><path d="M923.776097,46.198548L930.459265,44.421219L931.410964,43.102357 " class="Federal"/><path d="M722.439657,109.881634L727.130970,117.671291L732.085610,116.042569L734.733915,118.323275L736.456178,118.276493L739.954326,120.104955 " class="Interstate"/><path d="M747.261461,171.638734L747.191940,171.844995 " class="Federal"/><path d="M902.047149,26.435748L900.150630,25.659796L899.320254,22.284563L895.938319,18.584575L894.997781,16.491528L894.626269,12.032976 " class="Interstate"/></g>
    
<g class="map" id="airports"><circle cx="737.942320828" cy="124.502658934" id="Mcghee Tyson" class="Airport" r="10"/><circle cx="427.395852226" cy="82.1226089943" id="Nashville Int'l" class="Airport" r="10"/><circle cx="40.4809704705" cy="231.142100268" id="Memphis Int'l" class="Airport" r="10"/></g>

<g class="map" id="cities"><circle cx="922.073308311" cy="45.5898066408" class="city" data-lat="36.3133248078" data-lon="-82.3536143409" id="Johnson City" r="15"/><circle cx="897.002289773" cy="13.1359517586" class="city" data-lat="36.5483233836" data-lon="-82.5619478777" id="Kingsport" r="15"/><circle cx="384.781363503" cy="156.071393762" class="city" data-lat="35.61499534" data-lon="-87.0352665626" id="Columbia" r="15"/><circle cx="57.5341228177" cy="206.236466824" class="city" data-lat="35.22290041" data-lon="-89.8410901304" id="Barlett" r="15"/><circle cx="704.93060125" cy="96.044557441" class="city" data-lat="36.0106559438" data-lon="-84.2697247739" id="Oak Ridge" r="15"/><circle cx="459.821494726" cy="122.981256609" class="city" data-lat="35.8459631541" data-lon="-86.390267173" id="Murfreesboro" r="15"/><circle cx="347.93916932" cy="24.7996187069" class="city" data-lat="36.530081603" data-lon="-87.3594328224" id="Clarksville" r="15"/><circle cx="177.978380718" cy="153.491873268" class="city" data-lat="35.6148661489" data-lon="-88.8138918475" id="Jackson" r="15"/><circle cx="593.749426942" cy="232.908224606" class="city" data-lat="35.0699898468" data-lon="-85.2500008562" id="Chattanooga" r="15"/><circle cx="745.321288541" cy="100.807900868" class="city" data-lat="35.9700124298" data-lon="-83.9200303566" id="Knoxville" r="15"/><circle cx="414.363407919" cy="76.3266641109" class="city" data-lat="36.1699743846" data-lon="-86.7799849871" id="Nashville" r="15"/><circle cx="38.4743603055" cy="220.002251907" class="city" data-lat="35.1199867951" data-lon="-89.9999951597" id="Memphis" r="15"/></g></svg>