<?xml version="1.0" encoding="utf-8"?><!DOCTYPE svg  PUBLIC '-//W3C//DTD SVG 1.1//EN'  'http://www.w3.org/Graphics/SVG/1.1/DTD/svg11.dtd'>
<svg xmlns="http://www.w3.org/2000/svg" version="1.1" style="fill:none;" width="100%" height="100%" viewbox="-50 -50 1100 1003">

<!--svg enable_background="new 0 0 1000 903" height="903px" pretty_print="False" style="stroke-linejoin: round; stroke:#000; fill: none;" version="1.1" viewBox="0 0 1000 903" width="1000px" xmlns="http://www.w3.org/2000/svg" xmlns:xlink="http://www.w3.org/1999/xlink"--><defs><style type="text/css"><![CDATA[path { fill-rule: evenodd; }]]></style></defs><metadata><views><view h="903.829315261" padding="0" w="1000"><proj dist="1.3" id="satellite" lat0="38.5" lon0="-80.9" tilt="0" up="0"/><bbox h="165.94" w="183.8" x="934.06" y="896.49"/></view></views></metadata><g class="map" id="states"><path d="M137.253125,813.524230L133.398149,811.331846L131.112042,811.046862L124.904653,812.419670L122.380303,812.124052L106.003059,806.632546L101.821741,803.398331L101.822800,799.173806L99.066688,794.877365L92.688564,788.926688L88.568463,788.903586L84.821867,783.232659L79.698769,779.165563L71.699658,775.992452L68.962396,773.298181L68.095809,769.391692L64.959763,757.860984L61.018047,751.290953L48.189175,737.647492L46.587536,732.695458L45.727881,724.233550L44.692710,720.654834L43.200572,717.926310L40.890960,715.221835L32.624206,709.017044L31.782697,705.543362L34.441038,701.465846L34.900802,697.976703L32.403204,693.448561L21.281497,683.177745L16.861634,672.769986L1.759859,650.261277L1.987234,643.289220L5.759062,640.645148L7.301219,639.002339L8.499423,635.514143L8.314903,631.243729L9.459505,627.920888L13.883167,626.568332L14.422103,625.630070L14.967002,612.748725L15.546935,609.485213L14.773744,603.883656L11.202728,595.526290L10.507740,591.829044L11.537279,582.063726L11.610445,580.520832L9.609637,577.337595L6.391458,568.819537L4.354106,565.052111L0.000000,560.407152L0.000000,901.829315L12.967371,901.829315L50.930693,883.852299L56.045543,880.495386L74.306325,865.518137L125.459677,823.287722L137.253125,813.524230Z " id="Kentucky" class="neighbor"/><path d="M11.610445,580.520832L11.702924,580.669918L19.094228,584.278116L28.069262,583.490019L45.516439,577.508888L60.925134,576.477493L64.611419,575.048612L67.697954,570.539750L69.302069,565.911438L74.023760,542.897266L76.380886,537.247537L79.288295,534.861457L89.100872,536.458264L93.695682,535.651264L96.887987,531.369065L95.847121,521.817333L94.012412,517.234841L94.415580,514.548502L95.777995,510.817862L95.208132,504.170027L93.691733,499.848554L91.886445,496.228022L90.469957,491.677152L91.148169,485.559817L94.655824,482.468070L98.575366,479.810610L101.025358,473.768140L104.773546,466.781283L106.318740,456.054734L109.653442,448.010915L115.601810,437.955550L122.620370,428.949641L129.151931,424.081173L133.970934,424.233455L137.740333,426.807563L140.849047,429.790160L147.227263,432.551865L149.928234,435.740263L151.762730,439.880434L154.049068,448.626773L153.583397,450.140731L151.090016,452.023992L150.441854,455.509871L148.929662,458.249388L150.352241,461.136034L154.173877,463.163718L158.627713,460.870984L162.642426,456.682040L165.149828,452.989991L166.782114,446.680566L168.045683,443.584744L170.201720,442.279190L172.673228,443.200270L176.230624,447.137103L178.439134,448.055034L182.462426,446.906344L182.387567,443.861366L180.539868,439.742796L179.268507,435.360350L180.373749,425.898827L180.042138,421.230655L176.132615,418.612054L172.526008,413.791414L171.632284,410.329224L172.935820,409.322868L183.186175,405.214248L184.815676,402.819638L185.336948,396.807982L184.861350,387.078409L185.176553,383.826767L186.766198,379.721556L196.638299,368.332388L199.894946,359.461918L204.007165,358.290345L209.032256,358.181658L213.470619,356.478956L214.847971,358.442545L218.916333,357.068975L220.517016,358.482929L222.903264,355.258471L224.420136,345.104613L226.081599,340.447130L241.478943,325.757866L244.682863,324.214084L253.326785,324.332038L255.210706,326.390922L257.134450,331.011301L259.766063,335.936275L263.758283,338.876009L268.573535,338.251596L275.667298,331.622302L279.801352,329.986946L284.038475,329.542217L288.496657,328.296911L292.579781,326.549901L295.692580,324.510884L301.458334,318.144324L305.061861,315.093787L313.142461,312.123845L316.215693,308.129147L320.925233,299.502485L327.456559,292.133134L349.976718,274.318361L363.914053,266.269713L364.293233,263.595020L366.668467,256.421991L366.665980,251.060892L370.800471,247.310224L371.895920,242.269022L371.227992,238.777115L365.903555,232.108938L364.754809,228.950081L366.393687,226.768886L370.783717,223.902016L371.874506,221.202944L372.702025,216.023332L375.946353,208.086931L379.702906,203.416950L380.191794,201.262306L377.753312,192.693655L378.618170,188.673038L380.755431,188.939294L383.459538,190.425285L385.998953,190.083403L387.340581,187.512595L385.984089,181.143548L387.473794,176.662584L390.803290,169.872926L391.434100,163.924790L391.216241,153.118530L391.955859,148.098076L394.132073,141.677467L398.424675,132.540546L400.130666,127.807339L401.568947,118.505598L403.400810,112.484391L407.588417,102.222510L409.477467,100.151247L414.884036,95.672604L416.001536,94.087837L417.895045,85.976928L418.767685,84.437695L418.490941,80.963367L417.171331,75.120559L417.151366,69.772159L416.289818,68.837472L413.049653,67.991809L413.384220,61.904114L417.424402,51.659410L418.429359,45.788878L417.694436,41.994205L415.891212,37.374721L411.433826,28.648435L404.793648,19.692368L403.317751,15.201083L405.386110,9.964599L408.975986,7.213523L414.092677,5.476440L419.112349,5.297612L422.470571,7.248124L431.335851,0.863107L434.408742,0.000000L0.000000,0.000000L0.000000,560.407152L4.354106,565.052111L6.391458,568.819537L9.609637,577.337595L11.610445,580.520832Z " id="Ohio" class="neighbor"/><path d="M999.446185,333.994548L999.094774,334.983487L980.873340,383.515671L979.091091,382.018836L941.834774,353.523330L918.480853,335.595731L880.242236,306.130717L877.502346,307.736290L874.778564,312.352132L873.587675,319.735102L875.023111,327.555754L875.197077,330.243133L873.790718,337.601359L871.098099,342.704052L864.062130,354.211978L864.539451,361.664352L862.888522,374.801502L863.856021,378.563985L863.616876,382.114492L856.371576,391.922878L848.459587,398.572796L840.711914,408.473915L837.142926,415.160522L837.372700,419.116800L836.325195,421.267580L831.310307,428.232868L828.290719,430.501811L820.143312,434.000567L816.924507,440.856681L812.880952,445.446445L808.285057,447.698705L804.368969,447.975044L800.935873,443.853551L798.808913,444.593544L775.424640,481.019848L774.334645,482.343652L771.691151,482.785001L749.456275,467.806944L747.330904,468.721043L738.938699,480.655773L734.970608,489.977858L731.506823,495.144953L730.166699,498.905959L728.318464,513.741191L725.592990,517.253531L718.377445,523.093414L715.201449,529.643762L712.657925,541.256770L709.832713,550.337612L707.404535,555.361287L691.887425,577.902827L689.880906,579.501831L688.365697,579.393879L645.676399,565.941969L645.042537,564.445427L645.476363,559.016654L637.283706,544.557797L635.475326,542.757588L618.251468,536.571941L614.581284,539.724014L612.965051,546.790115L612.981575,551.725486L607.267102,565.102025L607.160142,576.096545L602.547736,583.694969L601.418150,586.017177L599.469085,593.849618L596.486706,596.669569L592.473558,598.232767L585.637645,612.245811L587.243607,618.866910L585.824816,622.217333L582.387800,625.931678L577.825894,629.062564L575.828997,630.893506L571.368851,636.675327L561.864514,645.716772L560.734162,650.382492L561.045833,654.731145L556.568870,669.514413L545.110988,692.480933L502.661086,741.875262L499.977798,750.640890L486.708831,776.027775L485.786984,778.692156L486.570919,780.812868L491.471020,784.856904L497.487286,787.866217L499.050572,790.223434L499.259394,792.603872L496.153699,797.250946L485.523460,803.821550L483.409440,806.115664L481.951861,809.576603L482.683892,813.137526L486.739004,816.687620L486.684873,819.498274L485.023895,822.173017L459.741087,836.735455L452.190879,843.278995L448.874299,843.488068L447.184575,842.152575L446.152218,838.541654L446.208828,836.218077L444.976173,833.279840L442.909200,832.745641L436.446750,833.190960L431.615528,834.824282L412.812700,843.774677L394.109280,855.212571L390.087285,855.552837L389.505812,854.849963L381.679278,849.518346L381.621063,847.425753L379.883877,845.891945L374.121494,844.592230L367.327713,845.825524L364.574810,848.066527L362.895811,852.149843L363.253046,856.373161L366.340831,861.996541L366.224803,865.304472L364.885763,868.011304L362.588418,870.692561L348.831797,878.814468L346.211672,878.889540L343.302843,876.373238L339.653560,876.312065L332.090676,879.814056L310.445544,882.569556L293.529644,891.341170L291.202312,891.914349L288.887598,888.522120L285.844092,885.273518L274.930238,878.265870L272.772864,876.087023L268.670099,870.098148L264.817795,867.960553L262.188545,868.138302L258.806471,871.382088L257.313890,875.697856L255.196017,879.568194L252.699845,882.476366L249.462578,884.631156L241.149215,885.479378L234.884479,888.167233L223.995173,899.795539L220.954987,901.479075L215.979621,901.829315L203.314412,900.519728L200.795453,899.761981L195.627596,895.929627L188.214456,892.016416L185.473410,889.284808L182.735827,884.960416L176.950158,880.981497L166.067863,879.970568L163.687430,878.460706L160.545590,874.492502L158.722518,869.547167L155.434155,865.729491L145.549690,858.570479L143.588356,855.271503L144.448418,844.559518L143.756312,840.584230L141.833010,837.764703L134.469424,832.861507L134.434026,827.556162L139.478182,823.651176L140.450767,818.984711L139.035484,815.427982L137.253125,813.524230L125.459677,823.287722L74.306325,865.518137L56.045543,880.495386L50.930693,883.852299L12.967371,901.829315L1000.000000,901.829315L1000.000000,334.237742L999.446185,333.994548Z " id="Virginia" class="neighbor"/><path d="M999.446185,333.994548L999.166776,333.875826L995.913300,328.882510L995.705441,324.180669L997.063838,319.243434L997.865283,314.401076L995.961700,310.035584L986.608232,306.308955L983.953123,303.850253L988.126489,300.384563L986.802784,297.188074L986.678203,294.337065L987.910168,292.260921L990.655595,291.369509L990.589292,289.583453L986.884431,289.962158L983.551385,291.139652L980.598043,291.193519L977.959860,288.197065L979.832643,282.991556L978.408145,280.072580L976.569407,279.350300L975.125706,281.138188L973.787889,286.537582L972.544450,286.575787L969.288872,276.878551L967.977084,274.051137L972.884862,272.579664L976.427685,269.303833L977.316940,265.253986L974.242844,261.357948L969.459612,260.086313L967.049954,260.574283L964.978005,263.516410L959.341014,262.082799L954.155059,264.816655L949.852994,264.751958L945.254240,263.213419L941.362045,260.714590L925.560888,245.392393L916.135191,239.613918L905.801066,239.135692L900.078096,242.156480L894.356450,249.595400L892.081722,251.558811L888.640630,256.344006L887.215972,257.652490L883.221198,257.852480L875.071300,256.273845L871.106545,257.326640L865.970667,260.075608L864.129348,260.351786L858.426263,259.969844L856.430878,261.354462L862.207060,269.082938L859.676856,270.174782L855.763096,270.322857L852.523371,271.367462L851.978678,275.080898L856.024357,276.361674L857.045903,277.691205L856.181322,280.364812L850.057613,285.225924L835.557527,283.542879L828.749792,285.908648L828.291016,286.922996L811.811732,284.469531L806.837263,282.931685L801.585331,279.046103L794.166980,275.564055L791.852357,273.140007L792.604364,268.348819L794.219746,267.323277L795.015061,265.388569L792.720804,263.903987L788.760832,259.540125L787.033909,259.647068L781.352618,270.390217L780.207252,274.345740L780.946605,278.345149L772.119243,283.170147L767.833743,290.189285L756.048851,302.897214L752.079316,308.195036L749.835192,309.256110L744.409071,307.896578L740.520884,304.280184L737.199272,302.366648L730.335219,301.228536L722.739476,305.314855L720.442370,308.420817L718.021462,315.086181L711.711798,321.750685L707.650889,326.794160L698.323583,332.074957L692.677225,336.573750L688.690878,341.690327L686.412752,347.290498L684.061942,349.102337L675.702777,350.665217L674.094352,351.215798L651.781791,372.060134L649.228584,373.833257L645.999817,374.053425L645.868827,239.888819L619.632845,240.254267L593.372622,240.586127L514.578885,241.365669L462.026352,241.711890L435.734120,241.834259L434.409501,0.152705L434.408742,0.000000L431.335851,0.863107L422.470571,7.248124L419.112349,5.297612L414.092677,5.476440L408.975986,7.213523L405.386110,9.964599L403.317751,15.201083L404.793648,19.692368L411.433826,28.648435L415.891212,37.374721L417.694436,41.994205L418.429359,45.788878L417.424402,51.659410L413.384220,61.904114L413.049653,67.991809L416.289818,68.837472L417.151366,69.772159L417.171331,75.120559L418.490941,80.963367L418.767685,84.437695L417.895045,85.976928L416.001536,94.087837L414.884036,95.672604L409.477467,100.151247L407.588417,102.222510L403.400810,112.484391L401.568947,118.505598L400.130666,127.807339L398.424675,132.540546L394.132073,141.677467L391.955859,148.098076L391.216241,153.118530L391.434100,163.924790L390.803290,169.872926L387.473794,176.662584L385.984089,181.143548L387.340581,187.512595L385.998953,190.083403L383.459538,190.425285L380.755431,188.939294L378.618170,188.673038L377.753312,192.693655L380.191794,201.262306L379.702906,203.416950L375.946353,208.086931L372.702025,216.023332L371.874506,221.202944L370.783717,223.902016L366.393687,226.768886L364.754809,228.950081L365.903555,232.108938L371.227992,238.777115L371.895920,242.269022L370.800471,247.310224L366.665980,251.060892L366.668467,256.421991L364.293233,263.595020L363.914053,266.269713L349.976718,274.318361L327.456559,292.133134L320.925233,299.502485L316.215693,308.129147L313.142461,312.123845L305.061861,315.093787L301.458334,318.144324L295.692580,324.510884L292.579781,326.549901L288.496657,328.296911L284.038475,329.542217L279.801352,329.986946L275.667298,331.622302L268.573535,338.251596L263.758283,338.876009L259.766063,335.936275L257.134450,331.011301L255.210706,326.390922L253.326785,324.332038L244.682863,324.214084L241.478943,325.757866L226.081599,340.447130L224.420136,345.104613L222.903264,355.258471L220.517016,358.482929L218.916333,357.068975L214.847971,358.442545L213.470619,356.478956L209.032256,358.181658L204.007165,358.290345L199.894946,359.461918L196.638299,368.332388L186.766198,379.721556L185.176553,383.826767L184.861350,387.078409L185.336948,396.807982L184.815676,402.819638L183.186175,405.214248L172.935820,409.322868L171.632284,410.329224L172.526008,413.791414L176.132615,418.612054L180.042138,421.230655L180.373749,425.898827L179.268507,435.360350L180.539868,439.742796L182.387567,443.861366L182.462426,446.906344L178.439134,448.055034L176.230624,447.137103L172.673228,443.200270L170.201720,442.279190L168.045683,443.584744L166.782114,446.680566L165.149828,452.989991L162.642426,456.682040L158.627713,460.870984L154.173877,463.163718L150.352241,461.136034L148.929662,458.249388L150.441854,455.509871L151.090016,452.023992L153.583397,450.140731L154.049068,448.626773L151.762730,439.880434L149.928234,435.740263L147.227263,432.551865L140.849047,429.790160L137.740333,426.807563L133.970934,424.233455L129.151931,424.081173L122.620370,428.949641L115.601810,437.955550L109.653442,448.010915L106.318740,456.054734L104.773546,466.781283L101.025358,473.768140L98.575366,479.810610L94.655824,482.468070L91.148169,485.559817L90.469957,491.677152L91.886445,496.228022L93.691733,499.848554L95.208132,504.170027L95.777995,510.817862L94.415580,514.548502L94.012412,517.234841L95.847121,521.817333L96.887987,531.369065L93.695682,535.651264L89.100872,536.458264L79.288295,534.861457L76.380886,537.247537L74.023760,542.897266L69.302069,565.911438L67.697954,570.539750L64.611419,575.048612L60.925134,576.477493L45.516439,577.508888L28.069262,583.490019L19.094228,584.278116L11.702924,580.669918L11.610445,580.520832L11.537279,582.063726L10.507740,591.829044L11.202728,595.526290L14.773744,603.883656L15.546935,609.485213L14.967002,612.748725L14.422103,625.630070L13.883167,626.568332L9.459505,627.920888L8.314903,631.243729L8.499423,635.514143L7.301219,639.002339L5.759062,640.645148L1.987234,643.289220L1.759859,650.261277L16.861634,672.769986L21.281497,683.177745L32.403204,693.448561L34.900802,697.976703L34.441038,701.465846L31.782697,705.543362L32.624206,709.017044L40.890960,715.221835L43.200572,717.926310L44.692710,720.654834L45.727881,724.233550L46.587536,732.695458L48.189175,737.647492L61.018047,751.290953L64.959763,757.860984L68.095809,769.391692L68.962396,773.298181L71.699658,775.992452L79.698769,779.165563L84.821867,783.232659L88.568463,788.903586L92.688564,788.926688L99.066688,794.877365L101.822800,799.173806L101.821741,803.398331L106.003059,806.632546L122.380303,812.124052L124.904653,812.419670L131.112042,811.046862L133.398149,811.331846L137.253125,813.524230L139.035484,815.427982L140.450767,818.984711L139.478182,823.651176L134.434026,827.556162L134.469424,832.861507L141.833010,837.764703L143.756312,840.584230L144.448418,844.559518L143.588356,855.271503L145.549690,858.570479L155.434155,865.729491L158.722518,869.547167L160.545590,874.492502L163.687430,878.460706L166.067863,879.970568L176.950158,880.981497L182.735827,884.960416L185.473410,889.284808L188.214456,892.016416L195.627596,895.929627L200.795453,899.761981L203.314412,900.519728L215.979621,901.829315L220.954987,901.479075L223.995173,899.795539L234.884479,888.167233L241.149215,885.479378L249.462578,884.631156L252.699845,882.476366L255.196017,879.568194L257.313890,875.697856L258.806471,871.382088L262.188545,868.138302L264.817795,867.960553L268.670099,870.098148L272.772864,876.087023L274.930238,878.265870L285.844092,885.273518L288.887598,888.522120L291.202312,891.914349L293.529644,891.341170L310.445544,882.569556L332.090676,879.814056L339.653560,876.312065L343.302843,876.373238L346.211672,878.889540L348.831797,878.814468L362.588418,870.692561L364.885763,868.011304L366.224803,865.304472L366.340831,861.996541L363.253046,856.373161L362.895811,852.149843L364.574810,848.066527L367.327713,845.825524L374.121494,844.592230L379.883877,845.891945L381.621063,847.425753L381.679278,849.518346L389.505812,854.849963L390.087285,855.552837L394.109280,855.212571L412.812700,843.774677L431.615528,834.824282L436.446750,833.190960L442.909200,832.745641L444.976173,833.279840L446.208828,836.218077L446.152218,838.541654L447.184575,842.152575L448.874299,843.488068L452.190879,843.278995L459.741087,836.735455L485.023895,822.173017L486.684873,819.498274L486.739004,816.687620L482.683892,813.137526L481.951861,809.576603L483.409440,806.115664L485.523460,803.821550L496.153699,797.250946L499.259394,792.603872L499.050572,790.223434L497.487286,787.866217L491.471020,784.856904L486.570919,780.812868L485.786984,778.692156L486.708831,776.027775L499.977798,750.640890L502.661086,741.875262L545.110988,692.480933L556.568870,669.514413L561.045833,654.731145L560.734162,650.382492L561.864514,645.716772L571.368851,636.675327L575.828997,630.893506L577.825894,629.062564L582.387800,625.931678L585.824816,622.217333L587.243607,618.866910L585.637645,612.245811L592.473558,598.232767L596.486706,596.669569L599.469085,593.849618L601.418150,586.017177L602.547736,583.694969L607.160142,576.096545L607.267102,565.102025L612.981575,551.725486L612.965051,546.790115L614.581284,539.724014L618.251468,536.571941L635.475326,542.757588L637.283706,544.557797L645.476363,559.016654L645.042537,564.445427L645.676399,565.941969L688.365697,579.393879L689.880906,579.501831L691.887425,577.902827L707.404535,555.361287L709.832713,550.337612L712.657925,541.256770L715.201449,529.643762L718.377445,523.093414L725.592990,517.253531L728.318464,513.741191L730.166699,498.905959L731.506823,495.144953L734.970608,489.977858L738.938699,480.655773L747.330904,468.721043L749.456275,467.806944L771.691151,482.785001L774.334645,482.343652L775.424640,481.019848L798.808913,444.593544L800.935873,443.853551L804.368969,447.975044L808.285057,447.698705L812.880952,445.446445L816.924507,440.856681L820.143312,434.000567L828.290719,430.501811L831.310307,428.232868L836.325195,421.267580L837.372700,419.116800L837.142926,415.160522L840.711914,408.473915L848.459587,398.572796L856.371576,391.922878L863.616876,382.114492L863.856021,378.563985L862.888522,374.801502L864.539451,361.664352L864.062130,354.211978L871.098099,342.704052L873.790718,337.601359L875.197077,330.243133L875.023111,327.555754L873.587675,319.735102L874.778564,312.352132L877.502346,307.736290L880.242236,306.130717L918.480853,335.595731L941.834774,353.523330L979.091091,382.018836L980.873340,383.515671L999.094774,334.983487L999.446185,333.994548Z " id="West Virginia" class="neighbor"/><path d="M434.409501,0.152705L435.734120,241.834259L462.026352,241.711890L514.578885,241.365669L593.372622,240.586127L619.632845,240.254267L645.868827,239.888819L669.105814,239.548165L738.771696,238.392852L761.974446,237.946340L831.511642,236.454936L854.664924,235.909391L924.027583,234.096292L1000.000000,231.857589L1000.000000,0.000000L434.408742,0.000000L434.409501,0.152705Z " id="Pennsylvania" class="neighbor"/><path d="M645.868827,239.888819L645.999817,374.053425L649.228584,373.833257L651.781791,372.060134L674.094352,351.215798L675.702777,350.665217L684.061942,349.102337L686.412752,347.290498L688.690878,341.690327L692.677225,336.573750L698.323583,332.074957L707.650889,326.794160L711.711798,321.750685L718.021462,315.086181L720.442370,308.420817L722.739476,305.314855L730.335219,301.228536L737.199272,302.366648L740.520884,304.280184L744.409071,307.896578L749.835192,309.256110L752.079316,308.195036L756.048851,302.897214L767.833743,290.189285L772.119243,283.170147L780.946605,278.345149L780.207252,274.345740L781.352618,270.390217L787.033909,259.647068L788.760832,259.540125L792.720804,263.903987L795.015061,265.388569L794.219746,267.323277L792.604364,268.348819L791.852357,273.140007L794.166980,275.564055L801.585331,279.046103L806.837263,282.931685L811.811732,284.469531L828.291016,286.922996L828.749792,285.908648L835.557527,283.542879L850.057613,285.225924L856.181322,280.364812L857.045903,277.691205L856.024357,276.361674L851.978678,275.080898L852.523371,271.367462L855.763096,270.322857L859.676856,270.174782L862.207060,269.082938L856.430878,261.354462L858.426263,259.969844L864.129348,260.351786L865.970667,260.075608L871.106545,257.326640L875.071300,256.273845L883.221198,257.852480L887.215972,257.652490L888.640630,256.344006L892.081722,251.558811L894.356450,249.595400L900.078096,242.156480L905.801066,239.135692L916.135191,239.613918L925.560888,245.392393L941.362045,260.714590L945.254240,263.213419L949.852994,264.751958L954.155059,264.816655L959.341014,262.082799L964.978005,263.516410L967.049954,260.574283L969.459612,260.086313L974.242844,261.357948L977.316940,265.253986L976.427685,269.303833L972.884862,272.579664L967.977084,274.051137L969.288872,276.878551L972.544450,286.575787L973.787889,286.537582L975.125706,281.138188L976.569407,279.350300L978.408145,280.072580L979.832643,282.991556L977.959860,288.197065L980.598043,291.193519L983.551385,291.139652L986.884431,289.962158L990.589292,289.583453L990.655595,291.369509L987.910168,292.260921L986.678203,294.337065L986.802784,297.188074L988.126489,300.384563L983.953123,303.850253L986.608232,306.308955L995.961700,310.035584L997.865283,314.401076L997.063838,319.243434L995.705441,324.180669L995.913300,328.882510L999.166776,333.875826L999.446185,333.994548L1000.000000,334.237742L1000.000000,231.857589L924.027583,234.096292L854.664924,235.909391L831.511642,236.454936L761.974446,237.946340L738.771696,238.392852L669.105814,239.548165L645.868827,239.888819Z " id="Maryland" class="neighbor"/></g>
<g class="map" id="WV"><path d="M999.446185,333.994548L999.166776,333.875826L995.913300,328.882510L995.705441,324.180669L997.063838,319.243434L997.865283,314.401076L995.961700,310.035584L986.608232,306.308955L983.953123,303.850253L988.126489,300.384563L986.802784,297.188074L986.678203,294.337065L987.910168,292.260921L990.655595,291.369509L990.589292,289.583453L986.884431,289.962158L983.551385,291.139652L980.598043,291.193519L977.959860,288.197065L979.832643,282.991556L978.408145,280.072580L976.569407,279.350300L975.125706,281.138188L973.787889,286.537582L972.544450,286.575787L969.288872,276.878551L967.977084,274.051137L972.884862,272.579664L976.427685,269.303833L977.316940,265.253986L974.242844,261.357948L969.459612,260.086313L967.049954,260.574283L964.978005,263.516410L959.341014,262.082799L954.155059,264.816655L949.852994,264.751958L945.254240,263.213419L941.362045,260.714590L925.560888,245.392393L916.135191,239.613918L905.801066,239.135692L900.078096,242.156480L894.356450,249.595400L892.081722,251.558811L888.640630,256.344006L887.215972,257.652490L883.221198,257.852480L875.071300,256.273845L871.106545,257.326640L865.970667,260.075608L864.129348,260.351786L858.426263,259.969844L856.430878,261.354462L862.207060,269.082938L859.676856,270.174782L855.763096,270.322857L852.523371,271.367462L851.978678,275.080898L856.024357,276.361674L857.045903,277.691205L856.181322,280.364812L850.057613,285.225924L835.557527,283.542879L828.749792,285.908648L828.291016,286.922996L811.811732,284.469531L806.837263,282.931685L801.585331,279.046103L794.166980,275.564055L791.852357,273.140007L792.604364,268.348819L794.219746,267.323277L795.015061,265.388569L792.720804,263.903987L788.760832,259.540125L787.033909,259.647068L781.352618,270.390217L780.207252,274.345740L780.946605,278.345149L772.119243,283.170147L767.833743,290.189285L756.048851,302.897214L752.079316,308.195036L749.835192,309.256110L744.409071,307.896578L740.520884,304.280184L737.199272,302.366648L730.335219,301.228536L722.739476,305.314855L720.442370,308.420817L718.021462,315.086181L711.711798,321.750685L707.650889,326.794160L698.323583,332.074957L692.677225,336.573750L688.690878,341.690327L686.412752,347.290498L684.061942,349.102337L675.702777,350.665217L674.094352,351.215798L651.781791,372.060134L649.228584,373.833257L645.999817,374.053425L645.868827,239.888819L619.632845,240.254267L593.372622,240.586127L514.578885,241.365669L462.026352,241.711890L435.734120,241.834259L434.409501,0.152705L434.408742,0.000000L431.335851,0.863107L422.470571,7.248124L419.112349,5.297612L414.092677,5.476440L408.975986,7.213523L405.386110,9.964599L403.317751,15.201083L404.793648,19.692368L411.433826,28.648435L415.891212,37.374721L417.694436,41.994205L418.429359,45.788878L417.424402,51.659410L413.384220,61.904114L413.049653,67.991809L416.289818,68.837472L417.151366,69.772159L417.171331,75.120559L418.490941,80.963367L418.767685,84.437695L417.895045,85.976928L416.001536,94.087837L414.884036,95.672604L409.477467,100.151247L407.588417,102.222510L403.400810,112.484391L401.568947,118.505598L400.130666,127.807339L398.424675,132.540546L394.132073,141.677467L391.955859,148.098076L391.216241,153.118530L391.434100,163.924790L390.803290,169.872926L387.473794,176.662584L385.984089,181.143548L387.340581,187.512595L385.998953,190.083403L383.459538,190.425285L380.755431,188.939294L378.618170,188.673038L377.753312,192.693655L380.191794,201.262306L379.702906,203.416950L375.946353,208.086931L372.702025,216.023332L371.874506,221.202944L370.783717,223.902016L366.393687,226.768886L364.754809,228.950081L365.903555,232.108938L371.227992,238.777115L371.895920,242.269022L370.800471,247.310224L366.665980,251.060892L366.668467,256.421991L364.293233,263.595020L363.914053,266.269713L349.976718,274.318361L327.456559,292.133134L320.925233,299.502485L316.215693,308.129147L313.142461,312.123845L305.061861,315.093787L301.458334,318.144324L295.692580,324.510884L292.579781,326.549901L288.496657,328.296911L284.038475,329.542217L279.801352,329.986946L275.667298,331.622302L268.573535,338.251596L263.758283,338.876009L259.766063,335.936275L257.134450,331.011301L255.210706,326.390922L253.326785,324.332038L244.682863,324.214084L241.478943,325.757866L226.081599,340.447130L224.420136,345.104613L222.903264,355.258471L220.517016,358.482929L218.916333,357.068975L214.847971,358.442545L213.470619,356.478956L209.032256,358.181658L204.007165,358.290345L199.894946,359.461918L196.638299,368.332388L186.766198,379.721556L185.176553,383.826767L184.861350,387.078409L185.336948,396.807982L184.815676,402.819638L183.186175,405.214248L172.935820,409.322868L171.632284,410.329224L172.526008,413.791414L176.132615,418.612054L180.042138,421.230655L180.373749,425.898827L179.268507,435.360350L180.539868,439.742796L182.387567,443.861366L182.462426,446.906344L178.439134,448.055034L176.230624,447.137103L172.673228,443.200270L170.201720,442.279190L168.045683,443.584744L166.782114,446.680566L165.149828,452.989991L162.642426,456.682040L158.627713,460.870984L154.173877,463.163718L150.352241,461.136034L148.929662,458.249388L150.441854,455.509871L151.090016,452.023992L153.583397,450.140731L154.049068,448.626773L151.762730,439.880434L149.928234,435.740263L147.227263,432.551865L140.849047,429.790160L137.740333,426.807563L133.970934,424.233455L129.151931,424.081173L122.620370,428.949641L115.601810,437.955550L109.653442,448.010915L106.318740,456.054734L104.773546,466.781283L101.025358,473.768140L98.575366,479.810610L94.655824,482.468070L91.148169,485.559817L90.469957,491.677152L91.886445,496.228022L93.691733,499.848554L95.208132,504.170027L95.777995,510.817862L94.415580,514.548502L94.012412,517.234841L95.847121,521.817333L96.887987,531.369065L93.695682,535.651264L89.100872,536.458264L79.288295,534.861457L76.380886,537.247537L74.023760,542.897266L69.302069,565.911438L67.697954,570.539750L64.611419,575.048612L60.925134,576.477493L45.516439,577.508888L28.069262,583.490019L19.094228,584.278116L11.702924,580.669918L11.610445,580.520832L11.537279,582.063726L10.507740,591.829044L11.202728,595.526290L14.773744,603.883656L15.546935,609.485213L14.967002,612.748725L14.422103,625.630070L13.883167,626.568332L9.459505,627.920888L8.314903,631.243729L8.499423,635.514143L7.301219,639.002339L5.759062,640.645148L1.987234,643.289220L1.759859,650.261277L16.861634,672.769986L21.281497,683.177745L32.403204,693.448561L34.900802,697.976703L34.441038,701.465846L31.782697,705.543362L32.624206,709.017044L40.890960,715.221835L43.200572,717.926310L44.692710,720.654834L45.727881,724.233550L46.587536,732.695458L48.189175,737.647492L61.018047,751.290953L64.959763,757.860984L68.095809,769.391692L68.962396,773.298181L71.699658,775.992452L79.698769,779.165563L84.821867,783.232659L88.568463,788.903586L92.688564,788.926688L99.066688,794.877365L101.822800,799.173806L101.821741,803.398331L106.003059,806.632546L122.380303,812.124052L124.904653,812.419670L131.112042,811.046862L133.398149,811.331846L137.253125,813.524230L139.035484,815.427982L140.450767,818.984711L139.478182,823.651176L134.434026,827.556162L134.469424,832.861507L141.833010,837.764703L143.756312,840.584230L144.448418,844.559518L143.588356,855.271503L145.549690,858.570479L155.434155,865.729491L158.722518,869.547167L160.545590,874.492502L163.687430,878.460706L166.067863,879.970568L176.950158,880.981497L182.735827,884.960416L185.473410,889.284808L188.214456,892.016416L195.627596,895.929627L200.795453,899.761981L203.314412,900.519728L215.979621,901.829315L220.954987,901.479075L223.995173,899.795539L234.884479,888.167233L241.149215,885.479378L249.462578,884.631156L252.699845,882.476366L255.196017,879.568194L257.313890,875.697856L258.806471,871.382088L262.188545,868.138302L264.817795,867.960553L268.670099,870.098148L272.772864,876.087023L274.930238,878.265870L285.844092,885.273518L288.887598,888.522120L291.202312,891.914349L293.529644,891.341170L310.445544,882.569556L332.090676,879.814056L339.653560,876.312065L343.302843,876.373238L346.211672,878.889540L348.831797,878.814468L362.588418,870.692561L364.885763,868.011304L366.224803,865.304472L366.340831,861.996541L363.253046,856.373161L362.895811,852.149843L364.574810,848.066527L367.327713,845.825524L374.121494,844.592230L379.883877,845.891945L381.621063,847.425753L381.679278,849.518346L389.505812,854.849963L390.087285,855.552837L394.109280,855.212571L412.812700,843.774677L431.615528,834.824282L436.446750,833.190960L442.909200,832.745641L444.976173,833.279840L446.208828,836.218077L446.152218,838.541654L447.184575,842.152575L448.874299,843.488068L452.190879,843.278995L459.741087,836.735455L485.023895,822.173017L486.684873,819.498274L486.739004,816.687620L482.683892,813.137526L481.951861,809.576603L483.409440,806.115664L485.523460,803.821550L496.153699,797.250946L499.259394,792.603872L499.050572,790.223434L497.487286,787.866217L491.471020,784.856904L486.570919,780.812868L485.786984,778.692156L486.708831,776.027775L499.977798,750.640890L502.661086,741.875262L545.110988,692.480933L556.568870,669.514413L561.045833,654.731145L560.734162,650.382492L561.864514,645.716772L571.368851,636.675327L575.828997,630.893506L577.825894,629.062564L582.387800,625.931678L585.824816,622.217333L587.243607,618.866910L585.637645,612.245811L592.473558,598.232767L596.486706,596.669569L599.469085,593.849618L601.418150,586.017177L602.547736,583.694969L607.160142,576.096545L607.267102,565.102025L612.981575,551.725486L612.965051,546.790115L614.581284,539.724014L618.251468,536.571941L635.475326,542.757588L637.283706,544.557797L645.476363,559.016654L645.042537,564.445427L645.676399,565.941969L688.365697,579.393879L689.880906,579.501831L691.887425,577.902827L707.404535,555.361287L709.832713,550.337612L712.657925,541.256770L715.201449,529.643762L718.377445,523.093414L725.592990,517.253531L728.318464,513.741191L730.166699,498.905959L731.506823,495.144953L734.970608,489.977858L738.938699,480.655773L747.330904,468.721043L749.456275,467.806944L771.691151,482.785001L774.334645,482.343652L775.424640,481.019848L798.808913,444.593544L800.935873,443.853551L804.368969,447.975044L808.285057,447.698705L812.880952,445.446445L816.924507,440.856681L820.143312,434.000567L828.290719,430.501811L831.310307,428.232868L836.325195,421.267580L837.372700,419.116800L837.142926,415.160522L840.711914,408.473915L848.459587,398.572796L856.371576,391.922878L863.616876,382.114492L863.856021,378.563985L862.888522,374.801502L864.539451,361.664352L864.062130,354.211978L871.098099,342.704052L873.790718,337.601359L875.197077,330.243133L875.023111,327.555754L873.587675,319.735102L874.778564,312.352132L877.502346,307.736290L880.242236,306.130717L918.480853,335.595731L941.834774,353.523330L979.091091,382.018836L980.873340,383.515671L999.094774,334.983487L999.446185,333.994548Z " id="West Virginia" class="state"/></g>
<g class="map" id="uzones"><path d="M64.129415,584.681476L63.993576,579.873994L66.307513,576.995585L64.122947,575.237954L60.925134,576.477493L45.516439,577.508888L28.069262,583.490019L21.262979,584.087678L20.547843,584.960724L26.829539,587.649719L29.730756,585.489832L31.972759,585.183583L34.197233,588.150264L38.987579,589.527034L54.723388,588.494466L54.778623,585.564045L56.623850,585.013430L61.947835,586.161812L64.129415,584.681476Z " class="urban"/><path d="M301.062563,736.676294L296.749394,737.928826L292.064410,743.584563L289.512721,745.392483L287.235648,739.552624L286.053893,739.995229L284.878081,745.392681L289.779459,747.222570L303.662740,748.678601L301.062563,736.676294Z " class="urban"/><path d="M171.289598,578.317652L169.072176,572.468372L166.877096,563.692307L161.005092,573.786500L159.436772,580.611463L184.431330,602.604205L191.281544,604.185905L194.428516,599.788854L196.234278,599.007628L198.458308,604.851605L201.650329,607.032927L212.174815,607.874767L221.918961,612.263390L223.623964,607.954591L218.154793,603.956701L216.793527,602.058024L214.591594,593.204291L212.254966,591.245477L211.005831,592.289505L205.696316,592.119273L202.777298,588.608902L201.187255,587.993456L198.585978,590.250313L194.680593,589.524972L187.184871,587.222076L184.397076,588.039124L181.503861,584.811445L176.659157,577.953035L172.856724,578.588640L171.289598,578.317652Z " class="urban"/><path d="M417.874362,86.065525L420.840469,81.119266L420.545232,77.817615L418.481171,72.498958L418.562188,69.538139L422.990436,66.624260L423.894645,64.868746L424.866685,60.418214L424.644954,55.713554L422.939461,55.008490L420.466501,52.405476L417.984665,48.386589L417.424402,51.659410L416.534370,53.916268L418.264083,56.063728L418.510688,60.823291L413.124399,66.631764L413.049653,67.991809L416.289818,68.837472L417.151366,69.772159L417.171331,75.120559L418.490941,80.963367L418.767685,84.437695L417.895045,85.976928L417.874362,86.065525Z " class="urban"/><path d="M400.916461,144.478222L401.020993,142.141148L398.561592,137.976888L396.517759,137.325498L396.085626,137.519275L394.132073,141.677467L391.955859,148.098076L391.216241,153.118530L391.434100,163.924790L391.357561,164.646505L392.131358,165.419139L394.619977,160.271909L402.207438,151.024143L403.259488,145.041274L400.916461,144.478222Z " class="urban"/><path d="M786.969641,259.768597L789.163189,262.299626L791.484369,262.541444L788.760832,259.540125L787.033909,259.647068L786.969641,259.768597Z " class="urban"/><path d="M947.158431,311.045001L951.552404,309.428149L954.052480,305.501053L955.175606,299.921755L949.501336,294.222041L945.814873,298.674845L944.869184,304.874625L947.158431,311.045001Z " class="urban"/><path d="M228.196494,365.687083L232.198415,363.021570L227.844894,339.656302L228.009583,338.607808L226.081599,340.447130L224.420136,345.104613L224.040041,347.648946L224.015912,349.863761L223.204877,354.200371L223.040383,354.340610L222.903264,355.258471L220.517016,358.482929L219.370034,357.469749L216.402265,359.999906L224.055581,364.986798L228.196494,365.687083Z " class="urban"/><path d="M10.511850,591.790068L11.227207,591.794121L13.738250,590.192126L13.601457,588.347824L17.219232,586.520184L17.916868,583.703366L11.702924,580.669918L11.610445,580.520832L11.537279,582.063726L10.511850,591.790068Z " class="urban"/></g>
<g class="map" id="lakes"/>
<g class="map" id="rivers"><path d="M678.413726,527.081297L680.948776,522.905268L682.287610,518.482343L682.206406,513.816523L688.924884,494.809474L690.267409,484.886897L690.370603,480.485494L689.192048,471.813503L689.351883,467.347288L691.544532,461.052389L698.306156,450.353735L699.688385,447.574872L700.534472,444.090125L700.944204,436.855185L701.636195,434.035261L703.713059,430.881279L709.512805,426.742416L714.926830,426.686810L720.479876,427.801286L726.660585,427.215744L731.203838,423.564280L736.448339,423.847508L738.037826,423.485737L740.898870,420.676146L745.383451,412.679379L751.810455,405.667840L752.695215,397.123971L756.143874,389.948030L760.781143,381.488922L769.475875,376.433826L773.643521,371.642048L784.232088,349.402508L789.712243,342.309910L791.626205,338.877383L793.006024,334.848797L793.876390,330.543637L794.180781,326.315040L793.914318,319.679188L794.461237,316.618430L796.260836,314.372473L798.934895,313.578172L804.652330,313.920257L807.388893,313.038187L810.134186,310.322320L816.199746,299.825395L818.251885,298.339780L822.929069,296.580236L824.857518,295.118260L826.197269,292.838790L828.736803,285.939239L835.537706,283.562982L850.037875,285.248168L852.720724,283.111897 M852.522060,271.376398L855.743389,270.345100L859.658729,270.194859L862.179318,269.109646L862.170997,269.098500 M856.438225,261.364292L858.398405,259.992286L864.101436,260.372107L865.940996,260.091716L871.089957,257.342423L875.046356,256.283456L878.088700,256.876210 M645.043244,564.436569L648.205290,559.674126L653.974917,553.368146L668.423461,534.498792L674.632036,531.032187L678.397072,527.081576 " class="River"/><path d="M878.088700,256.876210L883.202793,257.861931L887.193008,257.672710L887.215323,257.652522 M887.256275,257.615474L888.623039,256.378990L892.057618,251.593967L894.338475,249.617621L894.353914,249.597589 M894.777546,249.047918L900.066872,242.184907L905.778235,239.158048L916.106074,239.642842L925.542975,245.414634L941.327831,260.737322L945.226775,263.242347L949.834874,264.767846L954.131175,264.854004L958.440700,262.557414 M959.319280,262.094257L964.954079,263.551640L965.560356,262.689483 M967.036147,260.593889L969.430662,260.117441L974.215456,261.386908L977.294440,265.282801L976.399261,269.330116 M967.987636,274.073880L967.961146,274.081878L969.270765,276.894459L972.528198,286.598031L973.760216,286.560178L973.765677,286.538264 M976.548460,279.376240L978.383756,280.095077L979.805223,283.020536L977.937087,288.219515L980.570297,291.213999L983.533592,291.164082L986.855148,289.984823L990.573304,289.612089L990.638745,291.374980 M987.899065,292.279633L987.887409,292.283382L987.041475,293.724868 M986.678481,294.343417L986.665464,294.365597L986.786307,297.203951L988.097103,300.408966 M985.650425,302.440762L983.925437,303.872870L986.590813,306.344028L995.948803,310.059874L997.835736,314.417388L997.050853,319.265601L995.687703,324.207250L995.885669,328.907282L999.147003,333.891831L999.437147,334.019985 " class="River"/><path d="M534.211761,549.428137L534.991344,533.713721L535.819657,531.291220L541.012181,519.585152L545.093115,513.263292L546.776595,508.299976L547.216570,502.408676L548.197840,498.990811L549.968919,496.291598L558.284795,489.081111L561.694362,485.028559L566.144923,477.545869L569.099635,469.042710L570.018045,460.070516L568.303403,451.202104L565.203039,447.368724L560.486551,445.922921L549.949433,446.029480L546.531517,443.990608L547.982816,439.063171L551.114969,433.083257L552.718771,427.908730L551.226827,423.405827L547.882598,420.117050L543.582799,418.129017L539.197678,417.465101L535.154315,416.124284L531.995815,412.788394L529.783846,408.642845L528.578802,404.840857L529.072838,395.022945L533.354295,385.759886L539.365970,377.900995L545.048101,372.275328L550.100157,369.889141L550.538242,366.853139L549.768336,364.490744L544.296037,360.635804L540.949178,356.738654L535.318304,353.160340L534.915831,350.132553L534.925178,343.728497L527.681181,330.034701L525.758925,327.521751L521.456976,326.298029L517.403337,323.321369L508.579819,314.244793L505.554464,313.360226L506.986102,310.159490L515.118368,298.959894L517.835672,293.562275L521.969115,293.529222L523.988366,291.176770L528.143309,283.484211L530.965705,281.039375L533.607531,280.312816L539.164993,280.701225L539.991965,279.563382L540.079142,274.657108L544.385998,272.933226L546.046727,271.425076L548.044617,266.299070L544.749051,256.702103L545.143921,253.798790L546.776832,250.734964L554.023373,241.937020L554.543628,240.970280 " class="River"/><path d="M370.398361,845.268101L368.328348,842.930557L368.446213,840.967771L369.741459,836.412031L368.917427,833.073426L366.177756,829.020712L366.896651,824.859456L368.768614,822.980687L372.834965,821.484219L372.578317,817.685866L371.162668,816.118337L365.384511,812.792079L359.930036,811.053830L360.581934,808.503321L364.044218,804.180577L362.773438,799.474373L360.521563,794.255621L359.658237,788.854818L362.499837,783.517342L361.180099,780.453904L362.008301,776.898964L363.495524,773.012752L364.035554,769.019795L363.088440,766.489751L360.958506,763.062918L358.246360,759.945345L355.534799,758.279397L355.535093,756.485594L359.006649,751.787710L354.599902,745.123954L346.912757,739.183055L340.534840,736.593354L334.148014,735.752796L324.391604,732.041790L318.487906,731.175273L320.797481,727.677232L328.189670,719.787652L329.947558,716.874638L329.008278,713.572653L323.325386,705.145404L321.362189,700.719122L328.066248,701.287091L329.968199,702.518638L332.127504,700.470937L333.293257,697.855423L334.098686,693.562120L332.798754,689.564920L332.418636,684.190730L331.314238,679.456314L324.403861,675.876306L322.038300,672.196456L318.621830,664.688984L307.215551,657.053204L305.229821,654.803748 " class="River"/><path d="M305.229821,654.803748L300.267001,650.771180L297.069019,652.470385L294.257941,656.456907L290.416052,659.242463L286.426662,658.425936L281.765808,655.340637L277.362638,651.272287L272.566236,645.384588L264.954997,642.334476L261.529006,638.961729L259.369940,637.593286L250.257310,635.362531L244.995909,635.138735L241.579981,636.517241L237.290960,639.192955L233.229242,637.691447L229.669465,634.012855L226.901764,630.050711L224.790437,625.964652L224.003087,622.176448L224.075402,612.998304L222.272503,608.347731L217.945505,605.270285L208.811833,601.064072L204.554288,598.208562L200.832660,596.542710L186.466757,595.187396L182.607885,594.168522L175.071291,589.993235L171.045253,587.453161L168.473857,585.162111L167.138679,581.472977L166.805601,574.684714L171.071784,567.803841L167.919147,562.098518L165.431032,559.423369L159.977473,551.246412L156.228476,548.834702L152.195109,551.131057L148.273326,552.337941L143.233151,549.802474L138.644948,545.882055L136.049998,542.967060L133.719126,536.208693L135.344217,530.779105L138.800146,525.594970L141.930717,519.573125L143.349842,512.943910L143.326593,506.351871L141.967733,500.054695L139.429936,494.288973L136.288223,490.439008L118.753004,477.163661L108.220579,471.539286L103.316627,470.364096 " class="River"/><path d="M242.613082,325.211391L242.624657,325.607079 " class="River"/><path d="M434.408871,0.025987L431.302946,0.897607L422.447324,7.278345L419.089089,5.325708L414.064530,5.498178L408.964062,7.250069L405.379070,9.982423 M414.876584,95.678776L414.867109,95.692238L412.605911,97.559736 M385.985838,190.085168L385.975341,190.105192L383.429391,190.459861L380.741639,188.961066L378.610580,188.708324 M370.787242,223.893293L370.769891,223.936584L366.382747,226.783448 M366.158224,232.427879L369.095131,235.768426L370.863821,238.321038 M370.789665,247.320027L370.786617,247.334144L366.665985,251.072026 M363.890564,266.283278L363.890300,266.285106L349.959518,274.346541L327.443669,292.147678 M325.976603,293.802980L320.923502,299.505656 M316.201106,308.148107L316.198415,308.153042L315.939771,308.487801 M313.125703,312.130004L313.120254,312.137056L305.044567,315.115540L301.429440,318.178847L300.248906,319.479778 M295.669976,324.525691L295.663711,324.532595L292.560810,326.571640L288.467773,328.318611L284.012942,329.551116L279.783984,330.015083L275.648260,331.652564L268.554478,338.281853L263.735949,338.899842L259.747117,335.945176L257.108828,331.032973L255.196642,326.412650L253.302818,324.353712L244.663796,324.242178L241.459825,325.792360L226.074269,340.467676 M220.510927,358.477550L220.486304,358.510928L218.893938,357.090623L214.823864,358.470582L213.451471,356.507028L209.014808,358.203334L203.988040,358.314138L199.881996,359.497190 M196.621793,368.351431L196.620828,368.354054L195.559778,369.576648 M183.173025,405.219518L183.162027,405.235846L172.918354,409.338110L171.634009,410.335908 M182.444080,446.911582L182.444786,446.936550L178.413288,448.074478L176.196473,447.156466L172.648890,443.234675L170.184245,442.292295L168.039739,443.599306 M158.616633,460.876688L158.603495,460.890418L154.156181,463.193898L150.339527,461.166263L148.910325,458.277407L150.412554,455.537785L151.075917,452.030707L151.576891,451.656253 M153.562000,450.156892L154.029747,448.654798L151.738361,439.914810L149.902356,435.761803L147.201411,432.571265L140.813242,429.809440L137.714482,426.826950L133.948265,424.263552L129.132708,424.100626L122.601025,428.977629L119.916632,432.418959 M98.548105,479.829092L98.544305,479.838418L96.716384,481.071004 M96.866661,531.397672L96.866820,531.399142L96.508459,531.878169 M93.684301,535.653263L93.671323,535.670610L89.073112,536.481828L79.257162,534.887093L76.377347,537.256020 M67.687249,570.555389L67.685194,570.561374L67.219592,571.238551 M64.595756,575.054684L64.575037,575.084818L60.893956,576.500956L45.490082,577.543085L28.039718,583.513452L19.063158,584.292962L11.678691,580.676335L11.608356,580.564884 " class="River"/></g>
<g class="map" id="roads"><path d="M213.912160,594.156330L218.968796,586.897834L239.442114,569.708198L247.327898,564.283457L264.136576,557.533808L275.959118,546.642972L280.608273,543.470042L288.457548,542.132475L306.639906,542.647285L319.488747,536.748899L331.609788,535.857934L334.466746,531.756867L339.100069,531.306143L343.374555,533.590636L362.976561,530.859900L374.738318,533.134285L387.567254,532.207092L392.195271,529.462954L392.545012,525.813541L391.469870,522.166630L392.530997,518.059950L399.643031,513.485237L404.978650,511.648799L407.104983,507.994927L406.740820,504.803313L404.243214,502.072950L407.744088,480.629844L407.363294,471.054243L419.037431,456.885465L427.182767,452.298732L431.774878,447.266451L439.182705,438.118445L441.624298,429.445846L445.158784,427.606944L449.407894,427.131804L453.285609,423.466361L458.234117,421.618326L460.335679,417.504764L459.594053,411.582586L462.047860,407.467356L464.459703,396.515285L472.513912,384.165022L477.430359,379.578890L480.562372,372.724436L483.662431,361.769437L485.417004,360.391436L487.154502,356.735370 " class="Interstate"/><path d="M301.400199,887.259952L298.847154,887.618035 " class="Federal"/><path d="M467.744158,355.940142L464.574337,356.868509L454.687075,355.551850L447.990208,356.949916L439.506434,353.796830L435.282597,356.091647L423.276349,353.856084L401.408562,357.560040L387.991571,354.394756L383.055057,357.135221L359.055220,361.250839L342.113175,358.054107L323.398312,362.130364L307.867869,361.185123L293.724338,367.523034L275.726962,365.177210L257.003181,367.368003L252.769302,366.890082L247.815224,368.685545L242.175363,367.286082L240.082004,363.628428L236.927788,360.419827 " class="Federal"/><path d="M638.229288,259.138761L628.071455,259.276143L614.339269,254.904605L599.692024,259.632934L591.644385,260.636795L570.549590,255.863150L565.292477,255.917253L560.768964,258.692592L556.680031,268.743424L550.082061,274.722902L546.292458,281.130172 " class="Interstate"/><path d="M497.422046,749.669942L500.897474,747.636538 " class="Interstate"/><path d="M645.885353,256.815760L643.794309,256.786935L638.571945,258.679144 " class="Interstate"/><path d="M2.827937,642.699883L2.719862,642.832529L2.088271,643.218392 " class="Federal"/><path d="M290.840733,891.384453L298.845900,888.072964 " class="Federal"/><path d="M932.969490,252.576428L931.547416,252.053473L918.746316,244.236647L906.905912,239.186820 " class="Interstate"/><path d="M977.183733,265.860637L963.562770,271.102779L957.255111,279.923057L942.031010,314.001355L934.425659,326.951893L929.220791,343.840227 " class="Interstate"/><path d="M391.294113,152.589943L394.266296,152.357498L407.530699,157.782038L426.684235,151.368887L435.203941,145.101097 " class="Interstate"/><path d="M527.978562,241.233100L527.981996,241.248673L543.720199,270.686170L546.292458,281.130172 " class="Interstate"/><path d="M487.154502,356.735370L495.880554,344.832200L498.534838,324.316722L501.298743,317.921373L513.191113,309.636608L530.973346,294.012204L538.698851,293.489448L541.494980,292.098608L543.578102,289.803558L546.292458,281.130172 " class="Interstate"/><path d="M487.154502,356.735370L475.867868,357.260747L467.744158,355.940142 " class="Federal"/><path d="M236.927788,360.419827L243.750440,342.692699L247.663506,337.248532L248.435513,326.776424L249.419247,324.278716 " class="Interstate"/><path d="M223.191001,357.141256L222.820427,359.416745L227.742947,361.728029L236.927788,360.419827 " class="State"/><path d="M222.570349,355.708329L223.201655,355.774536L223.191001,357.141256 " class="Federal"/><path d="M213.551332,594.609588L213.912160,594.156330 " class=""/><path d="M236.927788,360.419827L235.098831,369.521359L232.611007,371.783959L231.178692,374.508811L230.775668,381.341636L227.901926,387.702834L228.484442,404.569990L226.671620,410.483302L210.977931,425.413314L197.020125,441.713542L189.825563,453.049618L186.543162,462.594937L187.791232,480.843877L189.161124,486.327640L191.953439,491.823859L196.181632,495.964074L201.494164,498.288387L204.296320,503.327283L205.196972,523.399654L207.270042,531.168933L203.928903,547.559660L204.210508,556.682961L206.884667,579.051204L208.955484,588.188801L213.551332,594.609588 " class="Interstate"/><path d="M10.699160,590.013405L14.423589,587.907357L32.998595,585.960168L42.214987,589.308761L55.460928,586.336681L66.250878,580.581547L76.941705,581.200791L87.699548,577.255814L105.894439,577.053223L117.274305,579.938427L121.567148,579.081140L133.055322,573.294808L146.621939,572.540485L160.527022,573.603916L164.076681,575.464977L170.772042,584.197313L184.241376,595.271790L188.155627,597.131909L197.439593,598.126178L203.858272,600.004478L213.551332,594.609588 " class="Interstate"/><path d="M295.951874,763.759941L309.313532,755.599274L330.219092,756.555807L347.525854,750.650687L356.175055,751.565495L372.751197,747.914600L375.991580,744.721651L379.948098,738.336859L401.895838,727.815102L410.875103,720.042784L415.545123,717.293879L422.389286,720.006403L427.463591,730.927483L432.873486,733.641021L446.566457,736.314860L457.772459,745.372179L466.791942,748.055100L470.791849,754.866174L473.314311,754.850430L475.126356,756.661562L480.166185,755.717218L489.488600,748.361719L497.422046,749.669942 " class="Interstate"/><path d="M283.098283,725.532115L284.534389,730.448880L287.761511,734.108026L292.794901,736.405860L293.130031,744.154895L291.303276,751.895470L295.951874,763.759941 " class="Interstate"/><path d="M316.538759,881.793868L324.984579,873.582972L325.722136,865.393128L328.268963,858.115773L323.580988,845.361850L323.239546,833.069030L313.494346,822.118906L314.600211,812.103044L312.295556,802.325867 " class="Interstate"/><path d="M434.765370,65.082406L434.636195,65.118193L413.080987,67.421667 " class="Federal"/><path d="M414.406505,96.068176L413.954107,99.197835L406.331772,106.476598L403.233612,117.375987L401.278206,120.385900 M395.605721,138.540768L395.630673,139.183699L393.845449,142.523111 " class="State"/><path d="M418.766896,5.309919L411.213490,8.105441L406.734322,11.737595L404.672118,15.364211L404.682964,18.986695L405.443438,20.568784 M408.025171,24.050946L410.931204,26.671498L412.045709,29.846325 M415.114260,57.517246L415.200158,59.285011L413.373921,62.091509 " class="State"/><path d="M207.801087,598.668553L214.187137,605.103500L219.534390,607.424263L222.372888,610.637469L222.704872,614.288192L219.793633,621.107193L219.760947,625.667170L221.515381,630.696364L226.506716,633.924616L234.805699,642.062134 " class="Interstate"/><path d="M245.562571,652.293157L245.362383,655.937438L246.425105,658.223834L254.673668,658.272111L257.535783,659.655958L257.474944,671.510847L263.871779,684.767233L265.986295,693.440409L270.574633,695.732075 " class="Interstate"/><path d="M312.295556,802.325867L311.378206,798.431074L314.291191,787.506011L313.220153,782.036566L306.029727,771.082486L301.711172,767.424262L298.828601,766.503628L295.951874,763.759941 " class="Interstate"/><path d="M270.574633,695.732075L278.895863,699.883750L283.905825,705.831386L281.713630,714.939432L282.402000,723.147238L283.098283,725.532115 " class="Interstate"/><path d="M234.805699,642.062134L235.405662,642.649996L240.416670,643.594646L245.762985,648.644023L245.562571,652.293157 " class="Interstate"/><path d="M645.755772,357.045512L645.982915,356.741913 " class="Federal"/><path d="M748.967243,310.611664L749.128773,309.079115 " class="Federal"/><path d="M645.871290,345.673971L645.972166,345.732140 M673.338268,351.922130L674.168324,351.909007 " class="Federal"/><path d="M40.329981,581.358518L32.625502,583.188428 " class="Federal"/><path d="M820.915447,406.240039L821.804363,405.435061L827.280178,406.088265L828.722976,403.310023L833.800340,400.443737L836.892642,402.719746L841.468287,403.782859L845.070994,402.517734 " class="State"/><path d="M495.156704,430.455396L494.827910,427.317989L502.657749,415.096295L502.330930,412.351773L500.182774,410.405335L506.229532,404.867220L508.361118,404.851088L514.180969,408.729754L518.717555,405.161791L522.375005,405.524014L522.657767,403.167400L525.988152,401.177478L526.849247,395.677165L528.949183,392.520390L532.885011,390.524318 " class="Federal"/><path d="M266.078581,482.526641L266.376576,484.098458L263.594442,489.581284L263.878157,493.901361L260.791929,498.597182L260.775216,501.738024L257.395805,503.683520L254.619477,507.202188L255.216723,509.953789L259.182649,513.115882L258.857168,516.647856L256.696667,519.384849L257.266858,527.240624L259.379986,533.534051L258.451262,535.099750L261.183692,540.611038L260.561694,542.178424L266.055047,548.488500L268.482931,554.390051L264.779928,557.905907L264.459021,560.652889L266.296543,561.839937L266.281172,564.981104L261.346457,568.490156L256.115424,569.640364L254.565748,571.987760L251.487504,572.755785L249.652204,571.174662L246.266598,571.940053L244.096059,575.068119L238.855214,577.391324L236.042709,584.440659L233.264430,585.992849L226.492544,586.731658L222.782174,589.453548L220.022283,588.255487L216.934836,589.802911 " class="Federal"/><path d="M32.625502,583.188428L41.257091,580.981777 " class="Federal"/><path d="M753.711980,400.265452L762.938955,405.565913L765.937643,403.935422L772.309100,403.801674L773.164376,401.431315L777.089104,400.563703L780.747148,401.269170L784.774250,404.710030L785.199618,409.797161L786.773072,412.114947L798.379284,414.992949L801.012718,411.013192L805.073326,415.624792L811.001301,410.000128L815.822676,408.711798L816.691910,407.123532L820.915447,406.240039 " class="State"/><path d="M302.327562,748.054778L299.856169,744.515805L297.700462,739.408003L297.410542,732.736584 " class="Federal"/><path d="M161.894772,588.521294L167.097812,590.930614L174.462843,592.574732L180.581016,596.167152L183.317302,599.726276L186.390630,600.147401L190.712193,598.616290 " class="Federal"/><path d="M116.988984,690.039469L118.557097,688.098140L123.153279,691.296791L122.811923,694.039064L127.405939,697.628988L127.696894,699.202142 " class="State"/><path d="M116.988984,690.039469L107.487906,684.026208L104.086505,684.371760L101.955569,681.987831L101.388930,678.056060L98.312751,677.227998L97.119631,674.071960L97.207734,667.402416L94.473527,664.224182L94.212458,660.688727L91.777559,658.299194L94.573427,656.769692L94.004372,653.229712L95.598147,649.328106L94.455416,642.640308L92.633706,640.652015L93.000467,636.340300L89.958728,633.549338L89.694179,630.405851L92.837224,625.741478L89.500515,622.161296L92.653305,616.711938L92.081287,613.563923L94.568963,611.636877L90.630522,607.263402L86.331276,606.808738L84.844173,603.254674L82.982894,604.404759L75.303655,603.897443L71.667929,600.309781L70.432838,600.683256L64.413399,592.347869L51.251602,589.389430L49.127768,587.784712 " class="State"/><path d="M952.153648,302.865576L951.374675,306.410049L953.872295,309.074405L961.189908,311.984255L963.156943,316.619775L968.401958,320.372169L967.925456,323.908427L974.716944,328.785293 " class="State"/><path d="M954.323887,296.150066L949.182521,286.522893L947.846879,282.650609L944.017838,276.113334L938.660125,277.442328L936.193927,275.557698L935.434043,270.885900L931.769444,269.035079L929.538199,265.187352L925.495993,260.999398L924.191813,257.907321L920.217069,255.671866L913.974609,257.408972L912.111482,255.504647L905.956035,259.974824L901.757324,260.088312L900.308017,261.691906L897.558108,260.200930 " class="State"/><path d="M976.642647,349.074858L980.693022,352.861128L990.188679,357.255028L992.205687,353.332341 " class="State"/><path d="M952.153648,302.865576L954.323887,296.150066 " class="Federal"/><path d="M532.885011,390.524318L530.390275,384.269166L531.572021,380.728156L530.917835,376.026455L531.429118,366.215529L530.490785,363.478036L533.784697,358.742581L531.935506,356.013367L532.814958,352.868121L531.569573,349.741533L533.938166,343.838365L537.243080,340.671877L539.374511,341.436934L545.979712,335.102064L546.560535,332.744016L551.968954,328.379520L553.734064,323.657689L550.361905,320.161915L552.736556,315.826812L552.701067,312.691129L559.485202,297.338205L559.141163,293.814479L556.387313,291.098442L553.300414,285.642236L550.495267,278.224072 " class="Federal"/><path d="M550.495267,278.224072L550.153118,274.700993L547.083751,270.420050L549.140469,265.307858L552.443837,263.709602L557.520591,258.959834L556.824301,251.132904L558.554672,244.458074L558.517127,241.325541 " class="Federal"/><path d="M184.747620,447.421715L183.851132,445.451267 " class="Federal"/><path d="M580.175255,426.536357L580.687258,418.683012L580.034388,415.159159L581.227855,413.183858L580.859777,408.087578L586.607304,405.275300L593.899719,404.404559L598.489900,406.310514L603.118508,410.961105L604.939079,410.545973L604.591397,407.411838L608.491667,403.439521L613.707701,406.510713L619.688061,399.370973L622.728743,399.330302L626.329998,396.143491L627.480413,391.813133L638.364567,388.131373L642.953056,390.026632L644.756889,388.823858L645.598099,384.497471L639.126147,378.707938L638.184051,376.760450L641.416268,370.047777L644.980986,365.290903L643.729101,362.956284L645.755772,357.045512 " class="Federal"/><path d="M384.850028,851.678335L387.154849,850.466973L394.315058,844.575684L399.296971,842.213557L408.319081,835.919758L408.930119,830.822450L414.535970,830.805851L419.512160,828.437726L420.129291,826.475637L417.927855,818.642614L420.415579,817.850147L423.201173,812.743628L426.312759,812.732187L427.845407,805.668854L430.025410,806.444536L436.820507,793.476251L443.621076,784.033427L448.269892,781.265613L449.492000,776.553009L454.140005,774.175751L454.748390,771.426913L453.163624,764.374727L454.394331,762.014659L451.280088,759.677142L450.043953,760.860251L449.085357,754.588377L452.462390,746.724936L458.012441,740.025725L460.435877,728.633663L459.482971,723.930203L461.629516,719.601759L465.645355,717.616659L465.302572,711.339813L467.444216,706.617927L465.240273,699.566579L470.168762,695.612637L469.539253,693.654043L471.984743,688.536822L478.138417,683.395509L479.974051,680.243493L484.891757,675.892911L487.634457,669.986177L487.917753,666.058906L491.600012,662.500022L494.993779,662.082825L499.908596,658.513178L508.803598,650.985006L514.656705,649.759124L516.784757,645.815661L517.058332,641.495248L521.060808,640.675634L526.523572,630.420654L524.654354,628.081980L525.524942,621.793056L522.729186,619.069756L524.828068,612.377306L524.175279,608.064608L525.680496,604.125339L524.087655,597.857904L519.141772,595.152580L517.561272,590.062110L519.046475,583.767763L523.347500,583.338060L527.658601,584.085102L535.022602,582.447217L536.197417,576.547206L538.004252,572.604134 " class="Federal"/><path d="M538.004252,572.604134L535.166151,564.778827L532.698392,563.623872L534.193877,559.291425L536.021313,557.703998L535.063666,553.786913L537.994573,539.233309L539.815753,537.253092L539.482586,534.508112L536.076336,531.006794L539.705560,525.869031L542.149552,525.060525L542.037381,513.676795L543.254610,512.879947L548.670219,503.405432L551.049238,496.708325L555.265450,490.384987L558.629586,490.350312L561.954536,486.782711L563.146947,484.022426L566.779707,480.843406L568.851555,474.933345L569.713727,470.213988 " class="Federal"/><path d="M573.124137,448.590691L571.228996,443.117337 " class="Federal"/><path d="M772.127772,344.621391L767.427974,350.596717L762.091709,355.408832L760.474288,364.063971L761.481716,368.354796L758.266425,373.515746L758.355533,377.433742L757.276513,383.335617L754.965882,388.478633L755.115179,395.140313L751.864984,412.849572L746.830269,418.832244L745.767612,425.912008L742.812245,429.892222L740.396818,430.724140L729.977574,427.003996L720.911358,429.920265L720.958798,432.272647L717.082611,436.266736L714.375227,437.885441L713.250551,442.612951L708.859263,451.714871L705.599036,456.481016L705.331817,458.447279L698.826028,469.155397L696.423025,471.159289L689.614383,482.655618L688.625845,495.620903L684.800960,503.926576L685.745353,505.480041L680.081871,513.816629L681.033119,515.762657L680.523321,521.657510L677.891204,528.765427L673.979213,532.754986L671.836592,532.790394L668.514895,535.591917L663.960723,538.020330L662.186823,541.973315L657.367000,547.151814L656.491222,549.912857L648.944264,557.487053L646.857769,561.443764 " class="Federal"/><path d="M748.967243,310.611664L744.855176,315.784223L741.413988,324.077958L742.951069,325.223806L742.149016,329.941083L743.108161,332.273584 " class="Federal"/><path d="M547.469957,505.772649L549.391392,513.997490L553.082691,515.530606L557.110042,519.807461L559.250016,519.392552L559.645150,527.632309L565.791151,529.136813L569.144303,527.529843L571.351638,533.001198L575.696973,537.662883L576.076222,543.939526L578.552375,545.873826L578.900362,549.402835L583.798619,548.560234L589.966227,551.233898L597.579336,546.821556L600.384274,550.318874L599.836109,555.428857L605.148012,562.818608L605.823091,567.520184 " class="Federal"/><path d="M549.877085,443.339001L548.932923,440.601082L555.256634,433.081939L554.870241,425.629882L556.058941,422.871073L551.467274,420.954903L549.580502,415.479905L544.945979,409.246447L543.374604,404.552910L542.684370,396.712422L537.183378,394.409102L532.885011,390.524318 " class="Federal"/><path d="M432.727745,241.777252L429.085142,236.698433L426.666986,235.531652L427.862193,232.786201L426.638187,228.482535L428.132687,225.344814L428.114647,221.037647L431.107912,216.328895L426.279135,214.387734L428.063678,208.900941L427.736248,202.638831L424.426262,203.041057L419.288014,197.576944L418.975549,194.446770L412.342743,190.551380L410.223309,186.252078L406.904527,182.738286L402.398187,184.313446L393.080329,186.678829L391.580343,188.637914L388.569307,187.077118 " class="Federal"/><path d="M432.727745,241.777252L432.136285,244.521217L435.465142,246.467504L436.681626,248.421471L447.253165,249.553515L449.391769,254.244962L453.632504,256.576184L456.375539,260.872725L455.500879,266.362137L457.030024,269.489402L463.098697,273.377528L469.195539,281.182662L469.221095,285.101559L471.046389,286.659168L471.993122,292.532926L474.416692,292.911126L479.286268,296.802206L483.232497,298.346097L488.363373,296.353894L493.823471,297.885879L496.537961,296.691603L499.590283,299.806213L502.617173,299.784805L504.147303,301.733682L509.283009,300.519988L511.732575,303.637322L506.956688,311.513220L504.247348,313.493204L505.169515,315.054652L503.374928,317.812032 " class="Federal"/><path d="M503.374928,317.812032L507.051527,322.489949L509.231297,329.139212L512.562853,328.721745L515.926323,331.832418L515.037944,334.192099L516.896977,338.490898L519.338205,340.039952L519.981404,343.956289 " class="Federal"/><path d="M525.738806,343.124521L527.893157,346.243605L531.561773,348.957252 " class="Federal"/><path d="M426.893909,8.102912L429.590045,12.381557L434.486759,14.248703 " class="Federal"/><path d="M573.124137,448.590691L576.226752,452.873104L583.235000,452.008346 " class="Federal"/><path d="M603.395937,453.726581L610.368431,450.497993L614.083446,454.373536L615.048442,457.892544L619.613357,457.046737L624.534322,459.726672L626.710368,462.443541L629.749807,461.616355L634.858647,456.442903L636.323469,452.498081L639.939665,449.699308L651.338565,456.985554L651.084170,460.128408L652.971157,463.631207L657.883692,465.517662L661.933914,470.555419L663.757967,470.134279L670.198026,471.993223L667.239716,477.534148L665.188603,482.668026L661.602644,487.433706L658.962905,494.146245L652.422175,505.628199L654.587357,507.164617L657.008022,505.557267L665.886091,506.201662L666.315415,513.650928L665.143942,516.809250L668.859958,519.496254L673.155510,520.210770L680.170041,518.916543L680.822407,521.260039L684.097608,516.103060L692.018709,514.396750L696.006832,515.111465L699.732486,518.184327L704.609166,517.311722L701.340427,522.471743L698.616943,524.090106L698.361092,526.841430L705.796097,531.808268L710.093409,532.514061L713.502787,534.804952L713.768889,536.184424 " class="Federal"/><path d="M189.654366,477.688662L197.901582,478.544410L200.639617,480.137296L202.181911,478.579693L205.229483,479.781899L209.227059,477.065474L211.051948,478.257223L213.819383,476.315465L219.310664,477.926240L219.931163,476.753038L226.346398,477.583336L232.773308,476.841313L237.354831,477.655879L238.894158,476.095232L244.089988,476.519435L248.041543,480.468350L248.316595,485.573559L250.750339,487.942950L255.049891,485.218475L257.799193,486.018302L260.565624,483.677063L266.078581,482.526641L270.958412,485.690330L276.162033,485.320799L283.803815,487.315163L290.246711,483.020549L299.413075,486.977140L301.863850,486.199334L306.759240,486.605833L309.210763,485.434477L312.574050,486.620709L315.942396,485.843291L317.477895,483.490976L322.373852,483.500884L326.048669,481.937055L329.414398,481.942501L335.850830,473.313961L338.912193,470.569201L340.134137,471.748212L342.888496,469.395128L346.251976,469.397624L348.391471,470.969281L351.143990,470.185394L356.954801,461.942539L360.928083,460.764799L363.983586,458.016222L366.730249,449.771494L370.700470,448.984383L376.195146,445.839882L378.328102,441.519930L382.909150,442.692424L387.181737,441.509076L388.397773,438.367030L394.797629,433.253532L396.008489,428.541182L400.276749,427.355102L405.142276,421.456854L409.715306,421.053020L411.244575,422.618905L416.121391,421.820271L416.721107,418.678708L419.455762,415.923171L423.422903,417.087879L439.281984,418.598984L442.326931,417.801308L447.219954,420.919519L450.880665,421.295097L455.170280,425.199125 " class="Federal"/><path d="M182.924234,446.620314L183.851132,445.451267 " class="Federal"/><path d="M963.836271,370.351182L964.586730,366.281499L966.038835,364.670733L967.067033,359.549977L972.526750,351.943314 " class="Federal"/><path d="M139.305464,521.928468L140.627465,513.700187L140.126497,504.273571L137.165669,495.996502L133.849388,492.032749L125.343067,487.613671L117.773937,482.025422L111.705577,478.808655 " class="Federal"/><path d="M139.305464,521.928468L137.407115,527.009630L132.415033,534.409305L132.956967,540.304006L143.863914,551.815016L148.733336,555.402808L151.810656,554.651577L156.136382,551.950350L159.810140,552.774477L162.825729,557.909537L165.807158,566.577134L167.925254,569.739389L167.897622,572.487233L163.875919,575.194166 " class="Federal"/><path d="M483.964596,357.550554L489.125170,357.125104L492.448034,354.749639L504.871834,351.524467L509.422257,351.098297L511.226498,349.123576L517.575508,346.328635L519.374550,343.961194L528.765048,342.314613L531.452368,337.977986L536.931685,339.890399L539.956552,339.078864L542.399477,340.625007L549.678661,340.556563L553.915770,339.731259L555.472136,343.245052L559.424278,343.989852L562.140321,342.785903L568.509213,342.719800L570.309666,341.132300L573.375968,343.844251L577.920012,343.402601L581.574074,344.538338L583.676521,342.946253L588.214391,342.110245L592.490725,344.413038L595.187579,342.028612L599.177602,345.509601L604.039992,346.234385L608.862958,344.213856L615.298524,348.836846L615.968732,353.141273L623.205541,350.301466L624.382409,347.933260L632.808568,343.898186L640.977906,342.999795L645.871290,345.673971 " class="Federal"/><path d="M674.168324,351.909007L677.487055,351.071888L681.224388,356.499817L683.013566,354.902479L691.853114,357.499936L695.754468,355.473825L701.099811,349.894254L701.930938,345.960175L713.387181,343.407102L717.337968,344.119993L722.400795,340.108731L726.023148,339.650189L732.022860,337.187061L737.027224,330.822750L743.108161,332.273584L747.766005,337.668826L751.732351,339.158158L756.845570,337.880787L766.876805,340.028125L771.532369,345.025638L779.071949,344.083539L781.970580,338.928382L785.927907,340.018967L788.589204,337.610791L794.017350,337.100734L800.772609,341.260807L802.243074,339.660920L806.200211,340.747301L806.552831,342.698136L809.916527,344.188880L812.916970,343.336805L816.383979,348.741615L819.363774,347.105432L824.801054,346.978133L832.145537,350.329395L834.054000,353.809295L838.067261,356.846294L841.886262,352.835801L845.197548,352.362811L848.733229,349.141774L851.461481,349.465653L857.688600,345.392698L860.159269,347.288539L862.226464,345.669366L866.977988,349.442845 " class="Federal"/><path d="M79.029783,778.900187L80.274517,777.372355L83.148786,771.143600L91.849649,769.706166L93.314327,776.393146L96.986461,780.367527L100.747907,777.285326L102.894933,779.276316L107.863094,778.954179L111.238196,782.137476L115.577622,782.588727L119.287773,783.814709L125.193107,783.108218L129.839747,783.952111L131.689160,785.151791L138.211868,784.840891L141.291478,787.230891L149.662441,788.506466L150.570471,790.869469L154.281687,792.480387L154.883709,794.447555L158.917960,794.884988L159.206137,797.240538L163.522619,800.816467L166.644346,799.282011L167.551451,802.036018L170.652054,802.852909L174.005182,810.336232L173.345422,814.641347L169.557742,820.873103L170.137911,825.582512L167.302535,829.471442L167.889649,833.396695L170.704560,831.859086L175.694137,830.735368L183.419612,837.475310L186.539240,836.722022L188.391511,838.699261L192.127834,838.734663L195.531898,841.509352L198.026190,841.140214L202.671710,844.708398L212.000239,847.139061L215.123518,845.989043L217.644233,841.698674L222.931790,842.915519L226.947448,848.431905L231.335400,844.153418L240.962905,849.706040L245.971790,845.428036L250.621697,850.159401L249.980484,853.682104L254.960198,855.279305L256.815719,858.424663L261.177153,859.232864L262.744919,857.282346L270.206638,862.414790L276.406488,872.239041L280.777475,871.475399L283.577337,873.838008L284.495986,878.934283L287.903696,886.781989 " class="Federal"/><path d="M291.030904,885.227644L294.451355,889.940360L299.143145,887.215335 " class="Federal"/><path d="M66.649569,754.024103L62.384441,753.568452 M62.259567,753.360313L60.547566,747.650608L53.189005,742.822402L51.385467,739.262640L48.618957,738.039125L48.339454,736.073593L47.112492,734.318545 M46.081876,727.718061L46.640072,725.848080L45.874056,725.672412 M38.674987,713.558589L39.159629,710.030309L44.157044,706.587006L42.384232,701.457237L37.778055,699.808005L35.390654,694.666713L33.052202,694.625193 M30.821659,691.988016L30.510789,691.049625L29.085930,690.385083 M22.931907,684.701887L18.458553,673.962647L18.894622,666.517240L14.923499,664.482107L11.617774,659.712637L11.385869,655.392964L6.208172,652.156457L5.061685,647.426900L8.901752,639.261174L9.594125,634.958578 " class="Federal"/><path d="M883.060185,308.302106L882.070625,303.261738L884.308806,297.723314L890.612719,277.990402L897.270666,260.599767L905.369085,242.000738 " class="Federal"/><path d="M236.299605,640.978642L240.627532,639.436354L247.129587,635.158071L250.209057,635.961506L251.427532,638.716747L253.890890,639.516009L259.761715,637.585260L261.897427,642.307672L269.287609,645.485531L274.838716,646.296679L275.747869,650.226661L279.736780,656.132846L282.506484,658.499930L287.438776,660.875064L292.071440,660.892374L294.556332,656.582833L293.951738,652.654879L297.353822,650.703533L302.280488,655.037717L302.582511,657.394142L306.908871,656.229041L309.057473,661.338500L315.234891,661.354110L317.712448,658.219143L322.035291,658.620839L324.192296,661.373081L327.900704,660.201924L331.914849,660.993376L335.931167,660.213633L339.940770,666.106844L343.022494,675.923810L347.038390,680.244855L352.912722,680.640245L355.076208,684.958733L355.694213,688.099081L357.549931,689.669403L362.499398,690.846662L363.737638,694.379004L367.142181,697.125335L371.165421,697.908092L378.597325,703.004035L386.333976,701.816635L390.348982,696.315261L390.034061,692.783236L391.890275,692.779999L393.753319,696.701618L396.231665,698.266741L400.883267,702.966565L406.152474,706.093568L408.938554,706.086174L410.501454,711.968803L414.236627,719.021899 " class="Federal"/><path d="M974.716944,328.785293L975.282047,336.202694L977.378394,344.355348 " class="State"/><path d="M111.705577,478.808655L104.745496,474.008569 " class="Federal"/><path d="M167.701359,623.127447L169.557103,622.361271L174.459193,625.158307L181.265521,622.083894L184.062624,619.362327L193.129689,603.741567L195.280764,604.153076L201.750768,603.423276L204.228860,601.480882 " class="Federal"/><path d="M166.321865,638.029884L166.075707,631.746739L167.701359,623.127447 " class="Federal"/><path d="M63.861358,756.030168L64.780319,754.778049L70.702982,752.128466L75.646978,752.990749L79.406184,749.912013L84.030344,751.551369L88.061888,751.219943L90.834088,752.437654L93.337526,750.513719L98.603188,750.590128L100.186626,747.867545L102.974162,747.907106L105.781186,746.377732L109.502685,746.037082 " class="Federal"/><path d="M109.502685,746.037082L116.363508,742.207929L122.006510,736.398816L124.542264,731.332272L123.668097,726.613670L119.991341,723.427544L124.414302,715.638822L125.064751,712.900895L128.507239,709.413592L126.683515,706.644122L127.942803,704.698302L126.765128,699.582732L131.396998,700.033183L135.167642,694.586260L140.399917,696.611267L144.426443,695.874002L150.018740,693.191696L152.483134,694.004390L152.816475,691.653667L157.182800,687.777914L157.234419,682.676836L158.818485,678.769667L163.490116,674.895233L165.396663,669.420751L164.806149,666.667196L162.360083,664.286434L166.121422,658.438660L163.984803,656.061279L162.516739,648.588139L162.860459,645.059132 " class="Federal"/><path d="M162.860459,645.059132L166.321865,638.029884 " class="Federal"/><path d="M309.907599,692.351763L312.386994,690.395647L313.024620,682.154241L314.575854,679.802818L322.313616,675.109252L328.504532,669.232116L332.523687,667.668026L339.327135,661.787865L346.123528,660.616062L351.066779,657.478126L354.155991,653.553248L358.169994,651.983451L361.256740,646.486867L366.810762,642.166608L370.817338,633.919441L367.730478,628.816970L368.037377,625.675741L371.426914,622.532663L372.964864,617.819850L372.649123,607.218509L372.027977,599.758435L376.948993,593.864398L378.176299,589.936517L382.476569,583.256255L381.543842,575.011298L383.996132,569.118102L387.374720,567.149947L389.209567,561.256997L393.199249,558.501481L396.558441,548.285650L392.250408,543.188996L393.467495,537.296805L391.619971,533.766078L388.241098,531.415594 " class="Federal"/><path d="M297.410542,732.736584L299.278379,729.996029L298.989327,722.931695L303.031025,717.842921L305.522444,712.748571L305.225334,708.038184L307.715064,702.943148 " class="Federal"/><path d="M302.904254,881.744183L307.598911,876.666199L311.674234,868.450756L311.679375,866.100066 " class="Federal"/><path d="M184.747620,447.421715L186.284769,446.258009L190.829390,449.830254 " class="Federal"/><path d="M569.713727,470.213988L571.199809,466.665314L574.841123,464.662558L574.165310,459.175486L574.686990,451.712953 " class="Federal"/><path d="M388.569307,187.077118L388.255813,180.034110 " class="Federal"/><path d="M477.446290,427.431355L490.576232,429.701938L493.640663,431.643341L496.678557,430.052234L501.262313,431.196688L508.309227,435.068583L514.097807,434.238373L518.395578,437.343357L521.456594,438.495426L525.404055,436.499725L529.986582,437.244893L533.360683,439.177223L541.600306,439.494014L552.020894,444.102717L557.241412,447.189744L562.728707,446.740434L565.747967,443.961366L569.408184,443.922034L573.040281,441.527721L573.289144,436.815877L576.890475,432.066926L581.108764,428.095292L580.479937,426.532896 " class="Federal"/><path d="M455.170280,425.199125L465.270829,431.426343L468.936161,432.190966L473.184338,428.634206L477.446290,427.431355 " class="Federal"/><path d="M583.235000,452.008346L586.281053,451.580407L589.972070,453.891379L594.228237,452.662834L597.299621,454.195011L603.395937,453.726581 " class="Federal"/><path d="M972.526750,351.943314L974.906579,351.086182L977.804353,347.864260L977.378394,344.355348L986.272991,340.552338L988.306335,338.531023L997.564751,336.668444L998.473238,336.638928 " class="Federal"/><path d="M311.679375,866.100066L314.801331,864.932733L318.862384,861.807917L330.404239,860.654770L334.455209,863.795356L335.699992,866.539633L341.315844,866.154309L344.434752,867.332508L349.427413,865.376913L351.610999,865.769747L362.840985,861.460898L365.294101,860.090268 " class="Federal"/><path d="M290.893791,891.462211L295.388205,889.943763L299.143145,887.215335 " class="Federal"/><path d="M307.715064,702.943148L308.960940,699.806700L308.667234,693.525936L309.907599,692.351763 " class="Federal"/><path d="M293.058409,736.645195L297.410542,732.736584 " class="Federal"/><path d="M388.255813,180.034110L392.454538,174.941380L392.435093,165.552504L394.226308,160.464595L394.812078,153.814820L396.303832,149.901568 " class="Federal"/><path d="M425.697614,6.547743L426.893909,8.102912 " class="Federal"/><path d="M104.745496,474.008569L103.540506,472.815293 " class="Federal"/><path d="M32.827186,581.858938L33.812878,585.563550 " class="Federal"/><path d="M845.070994,402.517734L845.629977,402.188889 " class="State"/><path d="M645.206990,564.833700L646.857769,561.443764 " class="Federal"/><path d="M605.823091,567.520184L607.222899,569.645703 " class="Federal"/><path d="M558.517127,241.325541L558.714865,240.929012 " class="Federal"/><path d="M94.322696,534.810180L94.717043,534.707856L95.888797,532.709392 M96.854554,531.062261L97.228188,530.425016L97.589408,526.504927L94.944828,518.618490L94.370194,514.850911 M93.424931,499.313477L93.146437,494.652156L90.560492,491.968021 M100.876908,474.134265L102.313627,473.191451L104.184079,470.469124L104.575157,467.151092 M108.594404,450.565480L110.286315,448.572554L111.355678,445.133386 " class="State"/><path d="M182.457394,446.701676L182.924234,446.620314 " class="Federal"/><path d="M101.724115,472.465614L103.540506,472.815293 " class="Federal"/></g>
<g class="map" id="airports"><circle cx="215.527998937" cy="595.976899478" id="Yeager" class="Airport" r="10"/></g>
<g class="map" id="cities"><circle cx="224.426206061" cy="360.782583901" class="city" data-lat="39.2666587515" data-lon="-81.5616471778" id="Parkersburg" r="15"/><circle cx="482.669086543" cy="747.524505566" class="city" data-lat="37.7938804312" data-lon="-80.3034810808" id="White Sulphur Springs" r="15"/><circle cx="473.333230721" cy="356.549625462" class="city" data-lat="39.2832727245" data-lon="-80.3369157325" id="Clarksburg" r="15"/><circle cx="394.828527284" cy="152.199511646" class="city" data-lat="40.0643103221" data-lon="-80.7210783302" id="Wheeling" r="15"/><circle cx="549.671638506" cy="265.103803362" class="city" data-lat="39.6298148794" data-lon="-79.9560604265" id="Morgantown" r="15"/><circle cx="41.1925477945" cy="580.975246768" class="city" data-lat="38.4195786733" data-lon="-82.4452883318" id="Huntington" r="15"/><circle cx="300.174529882" cy="751.444951091" class="city" data-lat="37.7801861766" data-lon="-81.1830139584" id="Beckley" r="15"/><circle cx="208.011884254" cy="601.394209897" class="city" data-lat="38.3497379751" data-lon="-81.6327281105" id="Charleston" r="15"/></g></svg>